<?xml version="1.0" encoding="utf-8" standalone="no"?>
<!DOCTYPE svg PUBLIC "-//W3C//DTD SVG 1.1//EN"
  "http://www.w3.org/Graphics/SVG/1.1/DTD/svg11.dtd">
<svg xmlns:xlink="http://www.w3.org/1999/xlink" width="643.244375pt" height="398.20925pt" viewBox="0 0 643.244375 398.20925" xmlns="http://www.w3.org/2000/svg" version="1.1">
 <metadata>
  <rdf:RDF xmlns:dc="http://purl.org/dc/elements/1.1/" xmlns:cc="http://creativecommons.org/ns#" xmlns:rdf="http://www.w3.org/1999/02/22-rdf-syntax-ns#">
   <cc:Work>
    <dc:type rdf:resource="http://purl.org/dc/dcmitype/StillImage"/>
    <dc:date>2026-01-23T15:20:59.016308</dc:date>
    <dc:format>image/svg+xml</dc:format>
    <dc:creator>
     <cc:Agent>
      <dc:title>Matplotlib v3.10.8, https://matplotlib.org/</dc:title>
     </cc:Agent>
    </dc:creator>
   </cc:Work>
  </rdf:RDF>
 </metadata>
 <defs>
  <style type="text/css">*{stroke-linejoin: round; stroke-linecap: butt}</style>
 </defs>
 <g id="figure_1">
  <g id="patch_1">
   <path d="M 0 398.20925 
L 643.244375 398.20925 
L 643.244375 0 
L 0 0 
z
" style="fill: #ffffff"/>
  </g>
  <g id="axes_1">
   <g id="patch_2">
    <path d="M 78.044375 356.78175 
L 636.044375 356.78175 
L 636.044375 24.14175 
L 78.044375 24.14175 
z
" style="fill: #ffffff"/>
   </g>
   <g id="FillBetweenPolyCollection_1">
    <defs>
     <path id="m42617ffca1" d="M 103.408011 -204.383554 
L 103.408011 -150.170147 
L 108.531978 -159.144006 
L 113.655945 -154.856943 
L 118.779912 -155.871247 
L 123.903879 -156.993483 
L 129.027846 -157.373824 
L 134.151813 -155.573309 
L 139.27578 -159.827003 
L 144.399747 -157.505466 
L 149.523714 -157.304574 
L 154.647681 -131.687815 
L 159.771648 -159.939003 
L 164.895615 -158.459969 
L 170.019582 -156.354066 
L 175.143549 -157.998355 
L 180.267515 -156.266017 
L 185.391482 -154.085548 
L 190.515449 -159.29079 
L 195.639416 -154.60796 
L 200.763383 -157.066533 
L 205.88735 -159.817828 
L 211.011317 -147.313952 
L 216.135284 -148.983453 
L 221.259251 -159.015296 
L 226.383218 -117.290716 
L 231.507185 -157.217703 
L 236.631152 -155.866916 
L 241.755119 -157.655928 
L 246.879086 -157.815729 
L 252.003053 -157.303243 
L 257.12702 -159.604751 
L 262.250987 -157.055495 
L 267.374954 -158.393307 
L 272.49892 -158.476444 
L 277.622887 -155.858247 
L 282.746854 -158.406249 
L 287.870821 -149.277135 
L 292.994788 -153.834725 
L 298.118755 -157.158986 
L 303.242722 -155.129207 
L 308.366689 -156.584471 
L 313.490656 -158.936137 
L 318.614623 -154.28699 
L 323.73859 -159.430828 
L 328.862557 -155.499372 
L 333.986524 -157.247412 
L 339.110491 -135.29966 
L 344.234458 -156.695477 
L 349.358425 -153.985055 
L 354.482392 -156.982692 
L 359.606358 -157.979504 
L 364.730325 -158.208482 
L 369.854292 -153.047505 
L 374.978259 -157.653 
L 380.102226 -156.509363 
L 385.226193 -156.684667 
L 390.35016 -157.86683 
L 395.474127 -156.642189 
L 400.598094 -157.153239 
L 405.722061 -155.933089 
L 410.846028 -157.3853 
L 415.969995 -156.67409 
L 421.093962 -156.117162 
L 426.217929 -158.337783 
L 431.341896 -154.797761 
L 436.465863 -155.512351 
L 441.58983 -156.233902 
L 446.713796 -157.681484 
L 451.837763 -157.322683 
L 456.96173 -157.561591 
L 462.085697 -157.168541 
L 467.209664 -157.236039 
L 472.333631 -158.417881 
L 477.457598 -158.761292 
L 482.581565 -156.342183 
L 487.705532 -154.070864 
L 492.829499 -155.974635 
L 497.953466 -158.774401 
L 503.077433 -158.612927 
L 508.2014 -158.313831 
L 513.325367 -154.741725 
L 518.449334 -156.333265 
L 523.573301 -156.695287 
L 528.697268 -157.360003 
L 533.821235 -157.473343 
L 538.945201 -158.510795 
L 544.069168 -152.437054 
L 549.193135 -159.611375 
L 554.317102 -156.60026 
L 559.441069 -158.828319 
L 564.565036 -159.302075 
L 569.689003 -158.046349 
L 574.81297 -157.372958 
L 579.936937 -139.427083 
L 585.060904 -156.696037 
L 590.184871 -157.260812 
L 595.308838 -156.781781 
L 600.432805 -157.848978 
L 605.556772 -158.05495 
L 610.680739 -147.155403 
L 610.680739 -202.704594 
L 610.680739 -202.704594 
L 605.556772 -164.579196 
L 600.432805 -170.257817 
L 595.308838 -163.171283 
L 590.184871 -162.109092 
L 585.060904 -164.925661 
L 579.936937 -213.885596 
L 574.81297 -167.111995 
L 569.689003 -162.751433 
L 564.565036 -169.191063 
L 559.441069 -165.964661 
L 554.317102 -166.933989 
L 549.193135 -163.885003 
L 544.069168 -177.626242 
L 538.945201 -162.401713 
L 533.821235 -165.4182 
L 528.697268 -163.672712 
L 523.573301 -170.059395 
L 518.449334 -167.892729 
L 513.325367 -170.106302 
L 508.2014 -164.756659 
L 503.077433 -167.03341 
L 497.953466 -162.738161 
L 492.829499 -166.602125 
L 487.705532 -172.043759 
L 482.581565 -162.884783 
L 477.457598 -162.060092 
L 472.333631 -169.052747 
L 467.209664 -169.282 
L 462.085697 -163.478263 
L 456.96173 -170.693026 
L 451.837763 -166.885757 
L 446.713796 -169.457421 
L 441.58983 -168.009934 
L 436.465863 -169.031653 
L 431.341896 -165.152256 
L 426.217929 -164.291483 
L 421.093962 -170.319753 
L 415.969995 -170.806278 
L 410.846028 -163.033662 
L 405.722061 -168.586446 
L 400.598094 -166.003583 
L 395.474127 -166.550905 
L 390.35016 -162.67763 
L 385.226193 -169.025737 
L 380.102226 -166.114539 
L 374.978259 -167.805777 
L 369.854292 -171.974449 
L 364.730325 -163.182098 
L 359.606358 -162.387449 
L 354.482392 -162.197355 
L 349.358425 -172.839321 
L 344.234458 -169.558411 
L 339.110491 -230.701742 
L 333.986524 -163.524089 
L 328.862557 -166.004196 
L 323.73859 -171.365015 
L 318.614623 -175.276323 
L 313.490656 -162.959585 
L 308.366689 -165.548898 
L 303.242722 -171.508502 
L 298.118755 -165.880497 
L 292.994788 -170.918968 
L 287.870821 -181.982403 
L 282.746854 -161.053579 
L 277.622887 -169.812493 
L 272.49892 -169.998439 
L 267.374954 -163.286602 
L 262.250987 -164.995455 
L 257.12702 -168.060685 
L 252.003053 -168.148474 
L 246.879086 -165.14427 
L 241.755119 -168.932333 
L 236.631152 -167.992173 
L 231.507185 -166.985876 
L 226.383218 -261.186307 
L 221.259251 -164.127255 
L 216.135284 -183.514512 
L 211.011317 -204.090282 
L 205.88735 -175.846598 
L 200.763383 -170.183598 
L 195.639416 -171.810658 
L 190.515449 -167.029282 
L 185.391482 -176.755732 
L 180.267515 -172.525308 
L 175.143549 -162.127956 
L 170.019582 -168.064636 
L 164.895615 -161.65698 
L 159.771648 -170.114518 
L 154.647681 -219.583196 
L 149.523714 -165.637536 
L 144.399747 -167.847077 
L 139.27578 -166.943355 
L 134.151813 -175.562896 
L 129.027846 -170.791365 
L 123.903879 -172.581584 
L 118.779912 -171.76774 
L 113.655945 -172.798692 
L 108.531978 -171.453128 
L 103.408011 -204.383554 
z
" style="stroke: #35dc67; stroke-opacity: 0.2"/>
    </defs>
    <g clip-path="url(#p37bcd7a5db)">
     <use xlink:href="#m42617ffca1" x="0" y="398.20925" style="fill: #35dc67; fill-opacity: 0.2; stroke: #35dc67; stroke-opacity: 0.2"/>
    </g>
   </g>
   <g id="FillBetweenPolyCollection_2">
    <defs>
     <path id="m9a4301af05" d="M 103.408011 -184.153308 
L 103.408011 -154.881504 
L 108.531978 -153.837232 
L 113.655945 -148.549564 
L 118.779912 -132.255639 
L 123.903879 -156.541653 
L 129.027846 -150.739513 
L 134.151813 -158.229915 
L 139.27578 -157.292321 
L 144.399747 -152.219067 
L 149.523714 -129.930828 
L 154.647681 -157.726525 
L 159.771648 -160.686001 
L 164.895615 -159.073957 
L 170.019582 -153.871411 
L 175.143549 -155.977714 
L 180.267515 -157.444835 
L 185.391482 -127.155066 
L 190.515449 -159.798096 
L 195.639416 -157.803821 
L 200.763383 -145.859647 
L 205.88735 -157.137526 
L 211.011317 -142.166508 
L 216.135284 -56.5475 
L 221.259251 -89.594755 
L 226.383218 -117.400073 
L 231.507185 -156.616125 
L 236.631152 -156.027376 
L 241.755119 -156.962623 
L 246.879086 -158.432554 
L 252.003053 -157.958741 
L 257.12702 -158.107966 
L 262.250987 -109.845256 
L 267.374954 -157.063415 
L 272.49892 -157.966397 
L 277.622887 -159.935364 
L 282.746854 -155.951986 
L 287.870821 -159.053083 
L 292.994788 -154.684985 
L 298.118755 -156.152701 
L 303.242722 -149.927646 
L 308.366689 -159.312573 
L 313.490656 -159.646219 
L 318.614623 -158.151926 
L 323.73859 -156.670341 
L 328.862557 -152.260037 
L 333.986524 -157.314379 
L 339.110491 -155.809577 
L 344.234458 -154.933407 
L 349.358425 -158.025468 
L 354.482392 -157.695867 
L 359.606358 -158.067727 
L 364.730325 -154.076224 
L 369.854292 -157.643492 
L 374.978259 -155.230875 
L 380.102226 -156.070547 
L 385.226193 -158.742001 
L 390.35016 -159.757465 
L 395.474127 -154.231027 
L 400.598094 -155.841663 
L 405.722061 -154.167596 
L 410.846028 -155.967651 
L 415.969995 -155.954647 
L 421.093962 -156.250424 
L 426.217929 -157.073852 
L 431.341896 -149.310345 
L 436.465863 -155.90617 
L 441.58983 -159.015235 
L 446.713796 -154.339929 
L 451.837763 -155.238232 
L 456.96173 -152.063586 
L 462.085697 -157.554689 
L 467.209664 -158.765977 
L 472.333631 -157.896753 
L 477.457598 -153.814895 
L 482.581565 -151.953811 
L 487.705532 -153.534758 
L 492.829499 -158.225069 
L 497.953466 -158.778101 
L 503.077433 -148.859565 
L 508.2014 -157.202298 
L 513.325367 -157.527659 
L 518.449334 -154.463809 
L 523.573301 -155.943451 
L 528.697268 -157.78545 
L 533.821235 -152.836654 
L 538.945201 -158.519583 
L 544.069168 -154.843579 
L 549.193135 -158.647043 
L 554.317102 -158.450468 
L 559.441069 -151.076579 
L 564.565036 -155.274171 
L 569.689003 -156.251448 
L 574.81297 -105.229997 
L 579.936937 -153.797834 
L 585.060904 -158.668856 
L 590.184871 -152.299042 
L 595.308838 -155.084062 
L 600.432805 -154.178212 
L 605.556772 -156.3373 
L 610.680739 -157.565802 
L 610.680739 -179.928451 
L 610.680739 -179.928451 
L 605.556772 -177.235714 
L 600.432805 -173.190563 
L 595.308838 -169.825304 
L 590.184871 -178.000674 
L 585.060904 -162.326212 
L 579.936937 -175.204147 
L 574.81297 -277.408598 
L 569.689003 -168.073223 
L 564.565036 -172.546171 
L 559.441069 -189.009769 
L 554.317102 -167.221425 
L 549.193135 -174.81893 
L 544.069168 -170.025946 
L 538.945201 -172.551318 
L 533.821235 -174.265837 
L 528.697268 -162.23382 
L 523.573301 -169.112722 
L 518.449334 -169.063016 
L 513.325367 -171.76506 
L 508.2014 -171.448 
L 503.077433 -187.984304 
L 497.953466 -166.233745 
L 492.829499 -167.369274 
L 487.705532 -176.001276 
L 482.581565 -184.582185 
L 477.457598 -169.469742 
L 472.333631 -163.498732 
L 467.209664 -165.246732 
L 462.085697 -169.338966 
L 456.96173 -177.106767 
L 451.837763 -171.396416 
L 446.713796 -169.022875 
L 441.58983 -172.25834 
L 436.465863 -169.545153 
L 431.341896 -194.751483 
L 426.217929 -169.98299 
L 421.093962 -177.483762 
L 415.969995 -171.447495 
L 410.846028 -170.034782 
L 405.722061 -179.046216 
L 400.598094 -180.747523 
L 395.474127 -173.317997 
L 390.35016 -175.558847 
L 385.226193 -168.575674 
L 380.102226 -171.028276 
L 374.978259 -171.642032 
L 369.854292 -171.637949 
L 364.730325 -169.236288 
L 359.606358 -165.051575 
L 354.482392 -169.57719 
L 349.358425 -164.386313 
L 344.234458 -170.651479 
L 339.110491 -177.984331 
L 333.986524 -166.299176 
L 328.862557 -184.885814 
L 323.73859 -164.130857 
L 318.614623 -166.882316 
L 313.490656 -170.13036 
L 308.366689 -166.560352 
L 303.242722 -191.1561 
L 298.118755 -184.260271 
L 292.994788 -168.074188 
L 287.870821 -172.820106 
L 282.746854 -174.431104 
L 277.622887 -178.432179 
L 272.49892 -170.421424 
L 267.374954 -169.53213 
L 262.250987 -256.485008 
L 257.12702 -168.430114 
L 252.003053 -184.076155 
L 246.879086 -171.873012 
L 241.755119 -190.526637 
L 236.631152 -170.395088 
L 231.507185 -171.669076 
L 226.383218 -241.827118 
L 221.259251 -294.731011 
L 216.135284 -358.9475 
L 211.011317 -224.482784 
L 205.88735 -170.857303 
L 200.763383 -200.209551 
L 195.639416 -166.288641 
L 190.515449 -197.955125 
L 185.391482 -235.399013 
L 180.267515 -179.092523 
L 175.143549 -187.515755 
L 170.019582 -179.990851 
L 164.895615 -174.839086 
L 159.771648 -176.377194 
L 154.647681 -169.500576 
L 149.523714 -233.374942 
L 144.399747 -188.791762 
L 139.27578 -170.200597 
L 134.151813 -173.064886 
L 129.027846 -190.462491 
L 123.903879 -189.063976 
L 118.779912 -232.449979 
L 113.655945 -216.717443 
L 108.531978 -186.445744 
L 103.408011 -184.153308 
z
" style="stroke: #007bff; stroke-opacity: 0.2"/>
    </defs>
    <g clip-path="url(#p37bcd7a5db)">
     <use xlink:href="#m9a4301af05" x="0" y="398.20925" style="fill: #007bff; fill-opacity: 0.2; stroke: #007bff; stroke-opacity: 0.2"/>
    </g>
   </g>
   <g id="matplotlib.axis_1">
    <g id="xtick_1">
     <g id="line2d_1">
      <path d="M 103.408011 356.78175 
L 103.408011 24.14175 
" clip-path="url(#p37bcd7a5db)" style="fill: none; stroke-dasharray: 2.96,1.28; stroke-dashoffset: 0; stroke: #b0b0b0; stroke-opacity: 0.5; stroke-width: 0.8"/>
     </g>
     <g id="line2d_2">
      <defs>
       <path id="m1e4d7bd583" d="M 0 0 
L 0 3.5 
" style="stroke: #000000; stroke-width: 0.8"/>
      </defs>
      <g>
       <use xlink:href="#m1e4d7bd583" x="103.408011" y="356.78175" style="stroke: #000000; stroke-width: 0.8"/>
      </g>
     </g>
     <g id="text_1">
      <!-- 1 -->
      <g transform="translate(99.590511 372.899875) scale(0.12 -0.12)">
       <defs>
        <path id="DejaVuSans-31" d="M 794 531 
L 1825 531 
L 1825 4091 
L 703 3866 
L 703 4441 
L 1819 4666 
L 2450 4666 
L 2450 531 
L 3481 531 
L 3481 0 
L 794 0 
L 794 531 
z
" transform="scale(0.015625)"/>
       </defs>
       <use xlink:href="#DejaVuSans-31"/>
      </g>
     </g>
    </g>
    <g id="xtick_2">
     <g id="line2d_3">
      <path d="M 154.647681 356.78175 
L 154.647681 24.14175 
" clip-path="url(#p37bcd7a5db)" style="fill: none; stroke-dasharray: 2.96,1.28; stroke-dashoffset: 0; stroke: #b0b0b0; stroke-opacity: 0.5; stroke-width: 0.8"/>
     </g>
     <g id="line2d_4">
      <g>
       <use xlink:href="#m1e4d7bd583" x="154.647681" y="356.78175" style="stroke: #000000; stroke-width: 0.8"/>
      </g>
     </g>
     <g id="text_2">
      <!-- 11 -->
      <g transform="translate(147.012681 372.899875) scale(0.12 -0.12)">
       <use xlink:href="#DejaVuSans-31"/>
       <use xlink:href="#DejaVuSans-31" transform="translate(63.623047 0)"/>
      </g>
     </g>
    </g>
    <g id="xtick_3">
     <g id="line2d_5">
      <path d="M 205.88735 356.78175 
L 205.88735 24.14175 
" clip-path="url(#p37bcd7a5db)" style="fill: none; stroke-dasharray: 2.96,1.28; stroke-dashoffset: 0; stroke: #b0b0b0; stroke-opacity: 0.5; stroke-width: 0.8"/>
     </g>
     <g id="line2d_6">
      <g>
       <use xlink:href="#m1e4d7bd583" x="205.88735" y="356.78175" style="stroke: #000000; stroke-width: 0.8"/>
      </g>
     </g>
     <g id="text_3">
      <!-- 21 -->
      <g transform="translate(198.25235 372.899875) scale(0.12 -0.12)">
       <defs>
        <path id="DejaVuSans-32" d="M 1228 531 
L 3431 531 
L 3431 0 
L 469 0 
L 469 531 
Q 828 903 1448 1529 
Q 2069 2156 2228 2338 
Q 2531 2678 2651 2914 
Q 2772 3150 2772 3378 
Q 2772 3750 2511 3984 
Q 2250 4219 1831 4219 
Q 1534 4219 1204 4116 
Q 875 4013 500 3803 
L 500 4441 
Q 881 4594 1212 4672 
Q 1544 4750 1819 4750 
Q 2544 4750 2975 4387 
Q 3406 4025 3406 3419 
Q 3406 3131 3298 2873 
Q 3191 2616 2906 2266 
Q 2828 2175 2409 1742 
Q 1991 1309 1228 531 
z
" transform="scale(0.015625)"/>
       </defs>
       <use xlink:href="#DejaVuSans-32"/>
       <use xlink:href="#DejaVuSans-31" transform="translate(63.623047 0)"/>
      </g>
     </g>
    </g>
    <g id="xtick_4">
     <g id="line2d_7">
      <path d="M 257.12702 356.78175 
L 257.12702 24.14175 
" clip-path="url(#p37bcd7a5db)" style="fill: none; stroke-dasharray: 2.96,1.28; stroke-dashoffset: 0; stroke: #b0b0b0; stroke-opacity: 0.5; stroke-width: 0.8"/>
     </g>
     <g id="line2d_8">
      <g>
       <use xlink:href="#m1e4d7bd583" x="257.12702" y="356.78175" style="stroke: #000000; stroke-width: 0.8"/>
      </g>
     </g>
     <g id="text_4">
      <!-- 31 -->
      <g transform="translate(249.49202 372.899875) scale(0.12 -0.12)">
       <defs>
        <path id="DejaVuSans-33" d="M 2597 2516 
Q 3050 2419 3304 2112 
Q 3559 1806 3559 1356 
Q 3559 666 3084 287 
Q 2609 -91 1734 -91 
Q 1441 -91 1130 -33 
Q 819 25 488 141 
L 488 750 
Q 750 597 1062 519 
Q 1375 441 1716 441 
Q 2309 441 2620 675 
Q 2931 909 2931 1356 
Q 2931 1769 2642 2001 
Q 2353 2234 1838 2234 
L 1294 2234 
L 1294 2753 
L 1863 2753 
Q 2328 2753 2575 2939 
Q 2822 3125 2822 3475 
Q 2822 3834 2567 4026 
Q 2313 4219 1838 4219 
Q 1578 4219 1281 4162 
Q 984 4106 628 3988 
L 628 4550 
Q 988 4650 1302 4700 
Q 1616 4750 1894 4750 
Q 2613 4750 3031 4423 
Q 3450 4097 3450 3541 
Q 3450 3153 3228 2886 
Q 3006 2619 2597 2516 
z
" transform="scale(0.015625)"/>
       </defs>
       <use xlink:href="#DejaVuSans-33"/>
       <use xlink:href="#DejaVuSans-31" transform="translate(63.623047 0)"/>
      </g>
     </g>
    </g>
    <g id="xtick_5">
     <g id="line2d_9">
      <path d="M 308.366689 356.78175 
L 308.366689 24.14175 
" clip-path="url(#p37bcd7a5db)" style="fill: none; stroke-dasharray: 2.96,1.28; stroke-dashoffset: 0; stroke: #b0b0b0; stroke-opacity: 0.5; stroke-width: 0.8"/>
     </g>
     <g id="line2d_10">
      <g>
       <use xlink:href="#m1e4d7bd583" x="308.366689" y="356.78175" style="stroke: #000000; stroke-width: 0.8"/>
      </g>
     </g>
     <g id="text_5">
      <!-- 41 -->
      <g transform="translate(300.731689 372.899875) scale(0.12 -0.12)">
       <defs>
        <path id="DejaVuSans-34" d="M 2419 4116 
L 825 1625 
L 2419 1625 
L 2419 4116 
z
M 2253 4666 
L 3047 4666 
L 3047 1625 
L 3713 1625 
L 3713 1100 
L 3047 1100 
L 3047 0 
L 2419 0 
L 2419 1100 
L 313 1100 
L 313 1709 
L 2253 4666 
z
" transform="scale(0.015625)"/>
       </defs>
       <use xlink:href="#DejaVuSans-34"/>
       <use xlink:href="#DejaVuSans-31" transform="translate(63.623047 0)"/>
      </g>
     </g>
    </g>
    <g id="xtick_6">
     <g id="line2d_11">
      <path d="M 359.606358 356.78175 
L 359.606358 24.14175 
" clip-path="url(#p37bcd7a5db)" style="fill: none; stroke-dasharray: 2.96,1.28; stroke-dashoffset: 0; stroke: #b0b0b0; stroke-opacity: 0.5; stroke-width: 0.8"/>
     </g>
     <g id="line2d_12">
      <g>
       <use xlink:href="#m1e4d7bd583" x="359.606358" y="356.78175" style="stroke: #000000; stroke-width: 0.8"/>
      </g>
     </g>
     <g id="text_6">
      <!-- 51 -->
      <g transform="translate(351.971358 372.899875) scale(0.12 -0.12)">
       <defs>
        <path id="DejaVuSans-35" d="M 691 4666 
L 3169 4666 
L 3169 4134 
L 1269 4134 
L 1269 2991 
Q 1406 3038 1543 3061 
Q 1681 3084 1819 3084 
Q 2600 3084 3056 2656 
Q 3513 2228 3513 1497 
Q 3513 744 3044 326 
Q 2575 -91 1722 -91 
Q 1428 -91 1123 -41 
Q 819 9 494 109 
L 494 744 
Q 775 591 1075 516 
Q 1375 441 1709 441 
Q 2250 441 2565 725 
Q 2881 1009 2881 1497 
Q 2881 1984 2565 2268 
Q 2250 2553 1709 2553 
Q 1456 2553 1204 2497 
Q 953 2441 691 2322 
L 691 4666 
z
" transform="scale(0.015625)"/>
       </defs>
       <use xlink:href="#DejaVuSans-35"/>
       <use xlink:href="#DejaVuSans-31" transform="translate(63.623047 0)"/>
      </g>
     </g>
    </g>
    <g id="xtick_7">
     <g id="line2d_13">
      <path d="M 410.846028 356.78175 
L 410.846028 24.14175 
" clip-path="url(#p37bcd7a5db)" style="fill: none; stroke-dasharray: 2.96,1.28; stroke-dashoffset: 0; stroke: #b0b0b0; stroke-opacity: 0.5; stroke-width: 0.8"/>
     </g>
     <g id="line2d_14">
      <g>
       <use xlink:href="#m1e4d7bd583" x="410.846028" y="356.78175" style="stroke: #000000; stroke-width: 0.8"/>
      </g>
     </g>
     <g id="text_7">
      <!-- 61 -->
      <g transform="translate(403.211028 372.899875) scale(0.12 -0.12)">
       <defs>
        <path id="DejaVuSans-36" d="M 2113 2584 
Q 1688 2584 1439 2293 
Q 1191 2003 1191 1497 
Q 1191 994 1439 701 
Q 1688 409 2113 409 
Q 2538 409 2786 701 
Q 3034 994 3034 1497 
Q 3034 2003 2786 2293 
Q 2538 2584 2113 2584 
z
M 3366 4563 
L 3366 3988 
Q 3128 4100 2886 4159 
Q 2644 4219 2406 4219 
Q 1781 4219 1451 3797 
Q 1122 3375 1075 2522 
Q 1259 2794 1537 2939 
Q 1816 3084 2150 3084 
Q 2853 3084 3261 2657 
Q 3669 2231 3669 1497 
Q 3669 778 3244 343 
Q 2819 -91 2113 -91 
Q 1303 -91 875 529 
Q 447 1150 447 2328 
Q 447 3434 972 4092 
Q 1497 4750 2381 4750 
Q 2619 4750 2861 4703 
Q 3103 4656 3366 4563 
z
" transform="scale(0.015625)"/>
       </defs>
       <use xlink:href="#DejaVuSans-36"/>
       <use xlink:href="#DejaVuSans-31" transform="translate(63.623047 0)"/>
      </g>
     </g>
    </g>
    <g id="xtick_8">
     <g id="line2d_15">
      <path d="M 462.085697 356.78175 
L 462.085697 24.14175 
" clip-path="url(#p37bcd7a5db)" style="fill: none; stroke-dasharray: 2.96,1.28; stroke-dashoffset: 0; stroke: #b0b0b0; stroke-opacity: 0.5; stroke-width: 0.8"/>
     </g>
     <g id="line2d_16">
      <g>
       <use xlink:href="#m1e4d7bd583" x="462.085697" y="356.78175" style="stroke: #000000; stroke-width: 0.8"/>
      </g>
     </g>
     <g id="text_8">
      <!-- 71 -->
      <g transform="translate(454.450697 372.899875) scale(0.12 -0.12)">
       <defs>
        <path id="DejaVuSans-37" d="M 525 4666 
L 3525 4666 
L 3525 4397 
L 1831 0 
L 1172 0 
L 2766 4134 
L 525 4134 
L 525 4666 
z
" transform="scale(0.015625)"/>
       </defs>
       <use xlink:href="#DejaVuSans-37"/>
       <use xlink:href="#DejaVuSans-31" transform="translate(63.623047 0)"/>
      </g>
     </g>
    </g>
    <g id="xtick_9">
     <g id="line2d_17">
      <path d="M 513.325367 356.78175 
L 513.325367 24.14175 
" clip-path="url(#p37bcd7a5db)" style="fill: none; stroke-dasharray: 2.96,1.28; stroke-dashoffset: 0; stroke: #b0b0b0; stroke-opacity: 0.5; stroke-width: 0.8"/>
     </g>
     <g id="line2d_18">
      <g>
       <use xlink:href="#m1e4d7bd583" x="513.325367" y="356.78175" style="stroke: #000000; stroke-width: 0.8"/>
      </g>
     </g>
     <g id="text_9">
      <!-- 81 -->
      <g transform="translate(505.690367 372.899875) scale(0.12 -0.12)">
       <defs>
        <path id="DejaVuSans-38" d="M 2034 2216 
Q 1584 2216 1326 1975 
Q 1069 1734 1069 1313 
Q 1069 891 1326 650 
Q 1584 409 2034 409 
Q 2484 409 2743 651 
Q 3003 894 3003 1313 
Q 3003 1734 2745 1975 
Q 2488 2216 2034 2216 
z
M 1403 2484 
Q 997 2584 770 2862 
Q 544 3141 544 3541 
Q 544 4100 942 4425 
Q 1341 4750 2034 4750 
Q 2731 4750 3128 4425 
Q 3525 4100 3525 3541 
Q 3525 3141 3298 2862 
Q 3072 2584 2669 2484 
Q 3125 2378 3379 2068 
Q 3634 1759 3634 1313 
Q 3634 634 3220 271 
Q 2806 -91 2034 -91 
Q 1263 -91 848 271 
Q 434 634 434 1313 
Q 434 1759 690 2068 
Q 947 2378 1403 2484 
z
M 1172 3481 
Q 1172 3119 1398 2916 
Q 1625 2713 2034 2713 
Q 2441 2713 2670 2916 
Q 2900 3119 2900 3481 
Q 2900 3844 2670 4047 
Q 2441 4250 2034 4250 
Q 1625 4250 1398 4047 
Q 1172 3844 1172 3481 
z
" transform="scale(0.015625)"/>
       </defs>
       <use xlink:href="#DejaVuSans-38"/>
       <use xlink:href="#DejaVuSans-31" transform="translate(63.623047 0)"/>
      </g>
     </g>
    </g>
    <g id="xtick_10">
     <g id="line2d_19">
      <path d="M 564.565036 356.78175 
L 564.565036 24.14175 
" clip-path="url(#p37bcd7a5db)" style="fill: none; stroke-dasharray: 2.96,1.28; stroke-dashoffset: 0; stroke: #b0b0b0; stroke-opacity: 0.5; stroke-width: 0.8"/>
     </g>
     <g id="line2d_20">
      <g>
       <use xlink:href="#m1e4d7bd583" x="564.565036" y="356.78175" style="stroke: #000000; stroke-width: 0.8"/>
      </g>
     </g>
     <g id="text_10">
      <!-- 91 -->
      <g transform="translate(556.930036 372.899875) scale(0.12 -0.12)">
       <defs>
        <path id="DejaVuSans-39" d="M 703 97 
L 703 672 
Q 941 559 1184 500 
Q 1428 441 1663 441 
Q 2288 441 2617 861 
Q 2947 1281 2994 2138 
Q 2813 1869 2534 1725 
Q 2256 1581 1919 1581 
Q 1219 1581 811 2004 
Q 403 2428 403 3163 
Q 403 3881 828 4315 
Q 1253 4750 1959 4750 
Q 2769 4750 3195 4129 
Q 3622 3509 3622 2328 
Q 3622 1225 3098 567 
Q 2575 -91 1691 -91 
Q 1453 -91 1209 -44 
Q 966 3 703 97 
z
M 1959 2075 
Q 2384 2075 2632 2365 
Q 2881 2656 2881 3163 
Q 2881 3666 2632 3958 
Q 2384 4250 1959 4250 
Q 1534 4250 1286 3958 
Q 1038 3666 1038 3163 
Q 1038 2656 1286 2365 
Q 1534 2075 1959 2075 
z
" transform="scale(0.015625)"/>
       </defs>
       <use xlink:href="#DejaVuSans-39"/>
       <use xlink:href="#DejaVuSans-31" transform="translate(63.623047 0)"/>
      </g>
     </g>
    </g>
    <g id="text_11">
     <!-- Trial ID -->
     <g transform="translate(336.490625 388.513625) scale(0.12 -0.12)">
      <defs>
       <path id="DejaVuSans-54" d="M -19 4666 
L 3928 4666 
L 3928 4134 
L 2272 4134 
L 2272 0 
L 1638 0 
L 1638 4134 
L -19 4134 
L -19 4666 
z
" transform="scale(0.015625)"/>
       <path id="DejaVuSans-72" d="M 2631 2963 
Q 2534 3019 2420 3045 
Q 2306 3072 2169 3072 
Q 1681 3072 1420 2755 
Q 1159 2438 1159 1844 
L 1159 0 
L 581 0 
L 581 3500 
L 1159 3500 
L 1159 2956 
Q 1341 3275 1631 3429 
Q 1922 3584 2338 3584 
Q 2397 3584 2469 3576 
Q 2541 3569 2628 3553 
L 2631 2963 
z
" transform="scale(0.015625)"/>
       <path id="DejaVuSans-69" d="M 603 3500 
L 1178 3500 
L 1178 0 
L 603 0 
L 603 3500 
z
M 603 4863 
L 1178 4863 
L 1178 4134 
L 603 4134 
L 603 4863 
z
" transform="scale(0.015625)"/>
       <path id="DejaVuSans-61" d="M 2194 1759 
Q 1497 1759 1228 1600 
Q 959 1441 959 1056 
Q 959 750 1161 570 
Q 1363 391 1709 391 
Q 2188 391 2477 730 
Q 2766 1069 2766 1631 
L 2766 1759 
L 2194 1759 
z
M 3341 1997 
L 3341 0 
L 2766 0 
L 2766 531 
Q 2569 213 2275 61 
Q 1981 -91 1556 -91 
Q 1019 -91 701 211 
Q 384 513 384 1019 
Q 384 1609 779 1909 
Q 1175 2209 1959 2209 
L 2766 2209 
L 2766 2266 
Q 2766 2663 2505 2880 
Q 2244 3097 1772 3097 
Q 1472 3097 1187 3025 
Q 903 2953 641 2809 
L 641 3341 
Q 956 3463 1253 3523 
Q 1550 3584 1831 3584 
Q 2591 3584 2966 3190 
Q 3341 2797 3341 1997 
z
" transform="scale(0.015625)"/>
       <path id="DejaVuSans-6c" d="M 603 4863 
L 1178 4863 
L 1178 0 
L 603 0 
L 603 4863 
z
" transform="scale(0.015625)"/>
       <path id="DejaVuSans-20" transform="scale(0.015625)"/>
       <path id="DejaVuSans-49" d="M 628 4666 
L 1259 4666 
L 1259 0 
L 628 0 
L 628 4666 
z
" transform="scale(0.015625)"/>
       <path id="DejaVuSans-44" d="M 1259 4147 
L 1259 519 
L 2022 519 
Q 2988 519 3436 956 
Q 3884 1394 3884 2338 
Q 3884 3275 3436 3711 
Q 2988 4147 2022 4147 
L 1259 4147 
z
M 628 4666 
L 1925 4666 
Q 3281 4666 3915 4102 
Q 4550 3538 4550 2338 
Q 4550 1131 3912 565 
Q 3275 0 1925 0 
L 628 0 
L 628 4666 
z
" transform="scale(0.015625)"/>
      </defs>
      <use xlink:href="#DejaVuSans-54"/>
      <use xlink:href="#DejaVuSans-72" transform="translate(46.333984 0)"/>
      <use xlink:href="#DejaVuSans-69" transform="translate(87.447266 0)"/>
      <use xlink:href="#DejaVuSans-61" transform="translate(115.230469 0)"/>
      <use xlink:href="#DejaVuSans-6c" transform="translate(176.509766 0)"/>
      <use xlink:href="#DejaVuSans-20" transform="translate(204.292969 0)"/>
      <use xlink:href="#DejaVuSans-49" transform="translate(236.080078 0)"/>
      <use xlink:href="#DejaVuSans-44" transform="translate(265.572266 0)"/>
     </g>
    </g>
   </g>
   <g id="matplotlib.axis_2">
    <g id="ytick_1">
     <g id="line2d_21">
      <path d="M 78.044375 333.93481 
L 636.044375 333.93481 
" clip-path="url(#p37bcd7a5db)" style="fill: none; stroke-dasharray: 2.96,1.28; stroke-dashoffset: 0; stroke: #b0b0b0; stroke-opacity: 0.5; stroke-width: 0.8"/>
     </g>
     <g id="line2d_22">
      <defs>
       <path id="m5fc0a13c6f" d="M 0 0 
L -3.5 0 
" style="stroke: #000000; stroke-width: 0.8"/>
      </defs>
      <g>
       <use xlink:href="#m5fc0a13c6f" x="78.044375" y="333.93481" style="stroke: #000000; stroke-width: 0.8"/>
      </g>
     </g>
     <g id="text_12">
      <!-- −10000 -->
      <g transform="translate(22.81375 338.493873) scale(0.12 -0.12)">
       <defs>
        <path id="DejaVuSans-2212" d="M 678 2272 
L 4684 2272 
L 4684 1741 
L 678 1741 
L 678 2272 
z
" transform="scale(0.015625)"/>
        <path id="DejaVuSans-30" d="M 2034 4250 
Q 1547 4250 1301 3770 
Q 1056 3291 1056 2328 
Q 1056 1369 1301 889 
Q 1547 409 2034 409 
Q 2525 409 2770 889 
Q 3016 1369 3016 2328 
Q 3016 3291 2770 3770 
Q 2525 4250 2034 4250 
z
M 2034 4750 
Q 2819 4750 3233 4129 
Q 3647 3509 3647 2328 
Q 3647 1150 3233 529 
Q 2819 -91 2034 -91 
Q 1250 -91 836 529 
Q 422 1150 422 2328 
Q 422 3509 836 4129 
Q 1250 4750 2034 4750 
z
" transform="scale(0.015625)"/>
       </defs>
       <use xlink:href="#DejaVuSans-2212"/>
       <use xlink:href="#DejaVuSans-31" transform="translate(83.789062 0)"/>
       <use xlink:href="#DejaVuSans-30" transform="translate(147.412109 0)"/>
       <use xlink:href="#DejaVuSans-30" transform="translate(211.035156 0)"/>
       <use xlink:href="#DejaVuSans-30" transform="translate(274.658203 0)"/>
       <use xlink:href="#DejaVuSans-30" transform="translate(338.28125 0)"/>
      </g>
     </g>
    </g>
    <g id="ytick_2">
     <g id="line2d_23">
      <path d="M 78.044375 290.243989 
L 636.044375 290.243989 
" clip-path="url(#p37bcd7a5db)" style="fill: none; stroke-dasharray: 2.96,1.28; stroke-dashoffset: 0; stroke: #b0b0b0; stroke-opacity: 0.5; stroke-width: 0.8"/>
     </g>
     <g id="line2d_24">
      <g>
       <use xlink:href="#m5fc0a13c6f" x="78.044375" y="290.243989" style="stroke: #000000; stroke-width: 0.8"/>
      </g>
     </g>
     <g id="text_13">
      <!-- −5000 -->
      <g transform="translate(30.44875 294.803051) scale(0.12 -0.12)">
       <use xlink:href="#DejaVuSans-2212"/>
       <use xlink:href="#DejaVuSans-35" transform="translate(83.789062 0)"/>
       <use xlink:href="#DejaVuSans-30" transform="translate(147.412109 0)"/>
       <use xlink:href="#DejaVuSans-30" transform="translate(211.035156 0)"/>
       <use xlink:href="#DejaVuSans-30" transform="translate(274.658203 0)"/>
      </g>
     </g>
    </g>
    <g id="ytick_3">
     <g id="line2d_25">
      <path d="M 78.044375 246.553168 
L 636.044375 246.553168 
" clip-path="url(#p37bcd7a5db)" style="fill: none; stroke-dasharray: 2.96,1.28; stroke-dashoffset: 0; stroke: #b0b0b0; stroke-opacity: 0.5; stroke-width: 0.8"/>
     </g>
     <g id="line2d_26">
      <g>
       <use xlink:href="#m5fc0a13c6f" x="78.044375" y="246.553168" style="stroke: #000000; stroke-width: 0.8"/>
      </g>
     </g>
     <g id="text_14">
      <!-- 0 -->
      <g transform="translate(63.409375 251.11223) scale(0.12 -0.12)">
       <use xlink:href="#DejaVuSans-30"/>
      </g>
     </g>
    </g>
    <g id="ytick_4">
     <g id="line2d_27">
      <path d="M 78.044375 202.862347 
L 636.044375 202.862347 
" clip-path="url(#p37bcd7a5db)" style="fill: none; stroke-dasharray: 2.96,1.28; stroke-dashoffset: 0; stroke: #b0b0b0; stroke-opacity: 0.5; stroke-width: 0.8"/>
     </g>
     <g id="line2d_28">
      <g>
       <use xlink:href="#m5fc0a13c6f" x="78.044375" y="202.862347" style="stroke: #000000; stroke-width: 0.8"/>
      </g>
     </g>
     <g id="text_15">
      <!-- 5000 -->
      <g transform="translate(40.504375 207.421409) scale(0.12 -0.12)">
       <use xlink:href="#DejaVuSans-35"/>
       <use xlink:href="#DejaVuSans-30" transform="translate(63.623047 0)"/>
       <use xlink:href="#DejaVuSans-30" transform="translate(127.246094 0)"/>
       <use xlink:href="#DejaVuSans-30" transform="translate(190.869141 0)"/>
      </g>
     </g>
    </g>
    <g id="ytick_5">
     <g id="line2d_29">
      <path d="M 78.044375 159.171525 
L 636.044375 159.171525 
" clip-path="url(#p37bcd7a5db)" style="fill: none; stroke-dasharray: 2.96,1.28; stroke-dashoffset: 0; stroke: #b0b0b0; stroke-opacity: 0.5; stroke-width: 0.8"/>
     </g>
     <g id="line2d_30">
      <g>
       <use xlink:href="#m5fc0a13c6f" x="78.044375" y="159.171525" style="stroke: #000000; stroke-width: 0.8"/>
      </g>
     </g>
     <g id="text_16">
      <!-- 10000 -->
      <g transform="translate(32.869375 163.730588) scale(0.12 -0.12)">
       <use xlink:href="#DejaVuSans-31"/>
       <use xlink:href="#DejaVuSans-30" transform="translate(63.623047 0)"/>
       <use xlink:href="#DejaVuSans-30" transform="translate(127.246094 0)"/>
       <use xlink:href="#DejaVuSans-30" transform="translate(190.869141 0)"/>
       <use xlink:href="#DejaVuSans-30" transform="translate(254.492188 0)"/>
      </g>
     </g>
    </g>
    <g id="ytick_6">
     <g id="line2d_31">
      <path d="M 78.044375 115.480704 
L 636.044375 115.480704 
" clip-path="url(#p37bcd7a5db)" style="fill: none; stroke-dasharray: 2.96,1.28; stroke-dashoffset: 0; stroke: #b0b0b0; stroke-opacity: 0.5; stroke-width: 0.8"/>
     </g>
     <g id="line2d_32">
      <g>
       <use xlink:href="#m5fc0a13c6f" x="78.044375" y="115.480704" style="stroke: #000000; stroke-width: 0.8"/>
      </g>
     </g>
     <g id="text_17">
      <!-- 15000 -->
      <g transform="translate(32.869375 120.039767) scale(0.12 -0.12)">
       <use xlink:href="#DejaVuSans-31"/>
       <use xlink:href="#DejaVuSans-35" transform="translate(63.623047 0)"/>
       <use xlink:href="#DejaVuSans-30" transform="translate(127.246094 0)"/>
       <use xlink:href="#DejaVuSans-30" transform="translate(190.869141 0)"/>
       <use xlink:href="#DejaVuSans-30" transform="translate(254.492188 0)"/>
      </g>
     </g>
    </g>
    <g id="ytick_7">
     <g id="line2d_33">
      <path d="M 78.044375 71.789883 
L 636.044375 71.789883 
" clip-path="url(#p37bcd7a5db)" style="fill: none; stroke-dasharray: 2.96,1.28; stroke-dashoffset: 0; stroke: #b0b0b0; stroke-opacity: 0.5; stroke-width: 0.8"/>
     </g>
     <g id="line2d_34">
      <g>
       <use xlink:href="#m5fc0a13c6f" x="78.044375" y="71.789883" style="stroke: #000000; stroke-width: 0.8"/>
      </g>
     </g>
     <g id="text_18">
      <!-- 20000 -->
      <g transform="translate(32.869375 76.348946) scale(0.12 -0.12)">
       <use xlink:href="#DejaVuSans-32"/>
       <use xlink:href="#DejaVuSans-30" transform="translate(63.623047 0)"/>
       <use xlink:href="#DejaVuSans-30" transform="translate(127.246094 0)"/>
       <use xlink:href="#DejaVuSans-30" transform="translate(190.869141 0)"/>
       <use xlink:href="#DejaVuSans-30" transform="translate(254.492188 0)"/>
      </g>
     </g>
    </g>
    <g id="ytick_8">
     <g id="line2d_35">
      <path d="M 78.044375 28.099062 
L 636.044375 28.099062 
" clip-path="url(#p37bcd7a5db)" style="fill: none; stroke-dasharray: 2.96,1.28; stroke-dashoffset: 0; stroke: #b0b0b0; stroke-opacity: 0.5; stroke-width: 0.8"/>
     </g>
     <g id="line2d_36">
      <g>
       <use xlink:href="#m5fc0a13c6f" x="78.044375" y="28.099062" style="stroke: #000000; stroke-width: 0.8"/>
      </g>
     </g>
     <g id="text_19">
      <!-- 25000 -->
      <g transform="translate(32.869375 32.658125) scale(0.12 -0.12)">
       <use xlink:href="#DejaVuSans-32"/>
       <use xlink:href="#DejaVuSans-35" transform="translate(63.623047 0)"/>
       <use xlink:href="#DejaVuSans-30" transform="translate(127.246094 0)"/>
       <use xlink:href="#DejaVuSans-30" transform="translate(190.869141 0)"/>
       <use xlink:href="#DejaVuSans-30" transform="translate(254.492188 0)"/>
      </g>
     </g>
    </g>
    <g id="text_20">
     <!-- Time (ms) -->
     <g transform="translate(16.318125 220.700812) rotate(-90) scale(0.12 -0.12)">
      <defs>
       <path id="DejaVuSans-6d" d="M 3328 2828 
Q 3544 3216 3844 3400 
Q 4144 3584 4550 3584 
Q 5097 3584 5394 3201 
Q 5691 2819 5691 2113 
L 5691 0 
L 5113 0 
L 5113 2094 
Q 5113 2597 4934 2840 
Q 4756 3084 4391 3084 
Q 3944 3084 3684 2787 
Q 3425 2491 3425 1978 
L 3425 0 
L 2847 0 
L 2847 2094 
Q 2847 2600 2669 2842 
Q 2491 3084 2119 3084 
Q 1678 3084 1418 2786 
Q 1159 2488 1159 1978 
L 1159 0 
L 581 0 
L 581 3500 
L 1159 3500 
L 1159 2956 
Q 1356 3278 1631 3431 
Q 1906 3584 2284 3584 
Q 2666 3584 2933 3390 
Q 3200 3197 3328 2828 
z
" transform="scale(0.015625)"/>
       <path id="DejaVuSans-65" d="M 3597 1894 
L 3597 1613 
L 953 1613 
Q 991 1019 1311 708 
Q 1631 397 2203 397 
Q 2534 397 2845 478 
Q 3156 559 3463 722 
L 3463 178 
Q 3153 47 2828 -22 
Q 2503 -91 2169 -91 
Q 1331 -91 842 396 
Q 353 884 353 1716 
Q 353 2575 817 3079 
Q 1281 3584 2069 3584 
Q 2775 3584 3186 3129 
Q 3597 2675 3597 1894 
z
M 3022 2063 
Q 3016 2534 2758 2815 
Q 2500 3097 2075 3097 
Q 1594 3097 1305 2825 
Q 1016 2553 972 2059 
L 3022 2063 
z
" transform="scale(0.015625)"/>
       <path id="DejaVuSans-28" d="M 1984 4856 
Q 1566 4138 1362 3434 
Q 1159 2731 1159 2009 
Q 1159 1288 1364 580 
Q 1569 -128 1984 -844 
L 1484 -844 
Q 1016 -109 783 600 
Q 550 1309 550 2009 
Q 550 2706 781 3412 
Q 1013 4119 1484 4856 
L 1984 4856 
z
" transform="scale(0.015625)"/>
       <path id="DejaVuSans-73" d="M 2834 3397 
L 2834 2853 
Q 2591 2978 2328 3040 
Q 2066 3103 1784 3103 
Q 1356 3103 1142 2972 
Q 928 2841 928 2578 
Q 928 2378 1081 2264 
Q 1234 2150 1697 2047 
L 1894 2003 
Q 2506 1872 2764 1633 
Q 3022 1394 3022 966 
Q 3022 478 2636 193 
Q 2250 -91 1575 -91 
Q 1294 -91 989 -36 
Q 684 19 347 128 
L 347 722 
Q 666 556 975 473 
Q 1284 391 1588 391 
Q 1994 391 2212 530 
Q 2431 669 2431 922 
Q 2431 1156 2273 1281 
Q 2116 1406 1581 1522 
L 1381 1569 
Q 847 1681 609 1914 
Q 372 2147 372 2553 
Q 372 3047 722 3315 
Q 1072 3584 1716 3584 
Q 2034 3584 2315 3537 
Q 2597 3491 2834 3397 
z
" transform="scale(0.015625)"/>
       <path id="DejaVuSans-29" d="M 513 4856 
L 1013 4856 
Q 1481 4119 1714 3412 
Q 1947 2706 1947 2009 
Q 1947 1309 1714 600 
Q 1481 -109 1013 -844 
L 513 -844 
Q 928 -128 1133 580 
Q 1338 1288 1338 2009 
Q 1338 2731 1133 3434 
Q 928 4138 513 4856 
z
" transform="scale(0.015625)"/>
      </defs>
      <use xlink:href="#DejaVuSans-54"/>
      <use xlink:href="#DejaVuSans-69" transform="translate(57.958984 0)"/>
      <use xlink:href="#DejaVuSans-6d" transform="translate(85.742188 0)"/>
      <use xlink:href="#DejaVuSans-65" transform="translate(183.154297 0)"/>
      <use xlink:href="#DejaVuSans-20" transform="translate(244.677734 0)"/>
      <use xlink:href="#DejaVuSans-28" transform="translate(276.464844 0)"/>
      <use xlink:href="#DejaVuSans-6d" transform="translate(315.478516 0)"/>
      <use xlink:href="#DejaVuSans-73" transform="translate(412.890625 0)"/>
      <use xlink:href="#DejaVuSans-29" transform="translate(464.990234 0)"/>
     </g>
    </g>
   </g>
   <g id="line2d_37">
    <path d="M 103.408011 220.932399 
L 108.531978 232.910683 
L 113.655945 234.381432 
L 118.779912 234.389757 
L 123.903879 233.421716 
L 129.027846 234.126656 
L 134.151813 232.641148 
L 139.27578 234.824071 
L 144.399747 235.532978 
L 149.523714 236.738195 
L 154.647681 222.573745 
L 159.771648 233.182489 
L 164.895615 238.150776 
L 170.019582 235.999899 
L 175.143549 238.146095 
L 180.267515 233.813587 
L 185.391482 232.78861 
L 190.515449 235.049214 
L 195.639416 234.999941 
L 200.763383 234.584185 
L 205.88735 230.377037 
L 211.011317 222.507133 
L 216.135284 231.960268 
L 221.259251 236.637975 
L 226.383218 208.970738 
L 231.507185 236.10746 
L 236.631152 236.279706 
L 241.755119 234.91512 
L 246.879086 236.72925 
L 252.003053 235.483391 
L 257.12702 234.376532 
L 262.250987 237.183775 
L 267.374954 237.369295 
L 272.49892 233.971808 
L 277.622887 235.37388 
L 282.746854 238.479336 
L 287.870821 232.579481 
L 292.994788 235.832404 
L 298.118755 236.689509 
L 303.242722 234.890395 
L 308.366689 237.142566 
L 313.490656 237.261389 
L 318.614623 233.427593 
L 323.73859 232.811328 
L 328.862557 237.457466 
L 333.986524 237.8235 
L 339.110491 215.208549 
L 344.234458 235.082306 
L 349.358425 234.797062 
L 354.482392 238.619227 
L 359.606358 238.025774 
L 364.730325 237.51396 
L 369.854292 235.698273 
L 374.978259 235.479862 
L 380.102226 236.897299 
L 385.226193 235.354048 
L 390.35016 237.93702 
L 395.474127 236.612703 
L 400.598094 236.630839 
L 405.722061 235.949483 
L 410.846028 237.999769 
L 415.969995 234.469066 
L 421.093962 234.990792 
L 426.217929 236.894617 
L 431.341896 238.234242 
L 436.465863 235.937248 
L 441.58983 236.087332 
L 446.713796 234.639797 
L 451.837763 236.10503 
L 456.96173 234.081942 
L 462.085697 237.885848 
L 467.209664 234.950231 
L 472.333631 234.473936 
L 477.457598 237.798558 
L 482.581565 238.595767 
L 487.705532 235.151939 
L 492.829499 236.92087 
L 497.953466 237.452969 
L 503.077433 235.386082 
L 508.2014 236.674005 
L 513.325367 235.785237 
L 518.449334 236.096253 
L 523.573301 234.831909 
L 528.697268 237.692892 
L 533.821235 236.763478 
L 538.945201 237.752996 
L 544.069168 233.177602 
L 549.193135 236.461061 
L 554.317102 236.442126 
L 559.441069 235.81276 
L 564.565036 233.962681 
L 569.689003 237.810359 
L 574.81297 235.966774 
L 579.936937 221.552911 
L 585.060904 237.398401 
L 590.184871 238.524298 
L 595.308838 238.232718 
L 600.432805 234.155852 
L 605.556772 236.892177 
L 610.680739 223.279251 
" clip-path="url(#p37bcd7a5db)" style="fill: none; stroke: #35dc67; stroke-width: 1.5; stroke-linecap: square"/>
    <defs>
     <path id="m3a59b72f76" d="M 0 3 
C 0.795609 3 1.55874 2.683901 2.12132 2.12132 
C 2.683901 1.55874 3 0.795609 3 0 
C 3 -0.795609 2.683901 -1.55874 2.12132 -2.12132 
C 1.55874 -2.683901 0.795609 -3 0 -3 
C -0.795609 -3 -1.55874 -2.683901 -2.12132 -2.12132 
C -2.683901 -1.55874 -3 -0.795609 -3 0 
C -3 0.795609 -2.683901 1.55874 -2.12132 2.12132 
C -1.55874 2.683901 -0.795609 3 0 3 
z
" style="stroke: #ffffff; stroke-width: 0.75"/>
    </defs>
    <g clip-path="url(#p37bcd7a5db)">
     <use xlink:href="#m3a59b72f76" x="103.408011" y="220.932399" style="fill: #35dc67; stroke: #ffffff; stroke-width: 0.75"/>
     <use xlink:href="#m3a59b72f76" x="108.531978" y="232.910683" style="fill: #35dc67; stroke: #ffffff; stroke-width: 0.75"/>
     <use xlink:href="#m3a59b72f76" x="113.655945" y="234.381432" style="fill: #35dc67; stroke: #ffffff; stroke-width: 0.75"/>
     <use xlink:href="#m3a59b72f76" x="118.779912" y="234.389757" style="fill: #35dc67; stroke: #ffffff; stroke-width: 0.75"/>
     <use xlink:href="#m3a59b72f76" x="123.903879" y="233.421716" style="fill: #35dc67; stroke: #ffffff; stroke-width: 0.75"/>
     <use xlink:href="#m3a59b72f76" x="129.027846" y="234.126656" style="fill: #35dc67; stroke: #ffffff; stroke-width: 0.75"/>
     <use xlink:href="#m3a59b72f76" x="134.151813" y="232.641148" style="fill: #35dc67; stroke: #ffffff; stroke-width: 0.75"/>
     <use xlink:href="#m3a59b72f76" x="139.27578" y="234.824071" style="fill: #35dc67; stroke: #ffffff; stroke-width: 0.75"/>
     <use xlink:href="#m3a59b72f76" x="144.399747" y="235.532978" style="fill: #35dc67; stroke: #ffffff; stroke-width: 0.75"/>
     <use xlink:href="#m3a59b72f76" x="149.523714" y="236.738195" style="fill: #35dc67; stroke: #ffffff; stroke-width: 0.75"/>
     <use xlink:href="#m3a59b72f76" x="154.647681" y="222.573745" style="fill: #35dc67; stroke: #ffffff; stroke-width: 0.75"/>
     <use xlink:href="#m3a59b72f76" x="159.771648" y="233.182489" style="fill: #35dc67; stroke: #ffffff; stroke-width: 0.75"/>
     <use xlink:href="#m3a59b72f76" x="164.895615" y="238.150776" style="fill: #35dc67; stroke: #ffffff; stroke-width: 0.75"/>
     <use xlink:href="#m3a59b72f76" x="170.019582" y="235.999899" style="fill: #35dc67; stroke: #ffffff; stroke-width: 0.75"/>
     <use xlink:href="#m3a59b72f76" x="175.143549" y="238.146095" style="fill: #35dc67; stroke: #ffffff; stroke-width: 0.75"/>
     <use xlink:href="#m3a59b72f76" x="180.267515" y="233.813587" style="fill: #35dc67; stroke: #ffffff; stroke-width: 0.75"/>
     <use xlink:href="#m3a59b72f76" x="185.391482" y="232.78861" style="fill: #35dc67; stroke: #ffffff; stroke-width: 0.75"/>
     <use xlink:href="#m3a59b72f76" x="190.515449" y="235.049214" style="fill: #35dc67; stroke: #ffffff; stroke-width: 0.75"/>
     <use xlink:href="#m3a59b72f76" x="195.639416" y="234.999941" style="fill: #35dc67; stroke: #ffffff; stroke-width: 0.75"/>
     <use xlink:href="#m3a59b72f76" x="200.763383" y="234.584185" style="fill: #35dc67; stroke: #ffffff; stroke-width: 0.75"/>
     <use xlink:href="#m3a59b72f76" x="205.88735" y="230.377037" style="fill: #35dc67; stroke: #ffffff; stroke-width: 0.75"/>
     <use xlink:href="#m3a59b72f76" x="211.011317" y="222.507133" style="fill: #35dc67; stroke: #ffffff; stroke-width: 0.75"/>
     <use xlink:href="#m3a59b72f76" x="216.135284" y="231.960268" style="fill: #35dc67; stroke: #ffffff; stroke-width: 0.75"/>
     <use xlink:href="#m3a59b72f76" x="221.259251" y="236.637975" style="fill: #35dc67; stroke: #ffffff; stroke-width: 0.75"/>
     <use xlink:href="#m3a59b72f76" x="226.383218" y="208.970738" style="fill: #35dc67; stroke: #ffffff; stroke-width: 0.75"/>
     <use xlink:href="#m3a59b72f76" x="231.507185" y="236.10746" style="fill: #35dc67; stroke: #ffffff; stroke-width: 0.75"/>
     <use xlink:href="#m3a59b72f76" x="236.631152" y="236.279706" style="fill: #35dc67; stroke: #ffffff; stroke-width: 0.75"/>
     <use xlink:href="#m3a59b72f76" x="241.755119" y="234.91512" style="fill: #35dc67; stroke: #ffffff; stroke-width: 0.75"/>
     <use xlink:href="#m3a59b72f76" x="246.879086" y="236.72925" style="fill: #35dc67; stroke: #ffffff; stroke-width: 0.75"/>
     <use xlink:href="#m3a59b72f76" x="252.003053" y="235.483391" style="fill: #35dc67; stroke: #ffffff; stroke-width: 0.75"/>
     <use xlink:href="#m3a59b72f76" x="257.12702" y="234.376532" style="fill: #35dc67; stroke: #ffffff; stroke-width: 0.75"/>
     <use xlink:href="#m3a59b72f76" x="262.250987" y="237.183775" style="fill: #35dc67; stroke: #ffffff; stroke-width: 0.75"/>
     <use xlink:href="#m3a59b72f76" x="267.374954" y="237.369295" style="fill: #35dc67; stroke: #ffffff; stroke-width: 0.75"/>
     <use xlink:href="#m3a59b72f76" x="272.49892" y="233.971808" style="fill: #35dc67; stroke: #ffffff; stroke-width: 0.75"/>
     <use xlink:href="#m3a59b72f76" x="277.622887" y="235.37388" style="fill: #35dc67; stroke: #ffffff; stroke-width: 0.75"/>
     <use xlink:href="#m3a59b72f76" x="282.746854" y="238.479336" style="fill: #35dc67; stroke: #ffffff; stroke-width: 0.75"/>
     <use xlink:href="#m3a59b72f76" x="287.870821" y="232.579481" style="fill: #35dc67; stroke: #ffffff; stroke-width: 0.75"/>
     <use xlink:href="#m3a59b72f76" x="292.994788" y="235.832404" style="fill: #35dc67; stroke: #ffffff; stroke-width: 0.75"/>
     <use xlink:href="#m3a59b72f76" x="298.118755" y="236.689509" style="fill: #35dc67; stroke: #ffffff; stroke-width: 0.75"/>
     <use xlink:href="#m3a59b72f76" x="303.242722" y="234.890395" style="fill: #35dc67; stroke: #ffffff; stroke-width: 0.75"/>
     <use xlink:href="#m3a59b72f76" x="308.366689" y="237.142566" style="fill: #35dc67; stroke: #ffffff; stroke-width: 0.75"/>
     <use xlink:href="#m3a59b72f76" x="313.490656" y="237.261389" style="fill: #35dc67; stroke: #ffffff; stroke-width: 0.75"/>
     <use xlink:href="#m3a59b72f76" x="318.614623" y="233.427593" style="fill: #35dc67; stroke: #ffffff; stroke-width: 0.75"/>
     <use xlink:href="#m3a59b72f76" x="323.73859" y="232.811328" style="fill: #35dc67; stroke: #ffffff; stroke-width: 0.75"/>
     <use xlink:href="#m3a59b72f76" x="328.862557" y="237.457466" style="fill: #35dc67; stroke: #ffffff; stroke-width: 0.75"/>
     <use xlink:href="#m3a59b72f76" x="333.986524" y="237.8235" style="fill: #35dc67; stroke: #ffffff; stroke-width: 0.75"/>
     <use xlink:href="#m3a59b72f76" x="339.110491" y="215.208549" style="fill: #35dc67; stroke: #ffffff; stroke-width: 0.75"/>
     <use xlink:href="#m3a59b72f76" x="344.234458" y="235.082306" style="fill: #35dc67; stroke: #ffffff; stroke-width: 0.75"/>
     <use xlink:href="#m3a59b72f76" x="349.358425" y="234.797062" style="fill: #35dc67; stroke: #ffffff; stroke-width: 0.75"/>
     <use xlink:href="#m3a59b72f76" x="354.482392" y="238.619227" style="fill: #35dc67; stroke: #ffffff; stroke-width: 0.75"/>
     <use xlink:href="#m3a59b72f76" x="359.606358" y="238.025774" style="fill: #35dc67; stroke: #ffffff; stroke-width: 0.75"/>
     <use xlink:href="#m3a59b72f76" x="364.730325" y="237.51396" style="fill: #35dc67; stroke: #ffffff; stroke-width: 0.75"/>
     <use xlink:href="#m3a59b72f76" x="369.854292" y="235.698273" style="fill: #35dc67; stroke: #ffffff; stroke-width: 0.75"/>
     <use xlink:href="#m3a59b72f76" x="374.978259" y="235.479862" style="fill: #35dc67; stroke: #ffffff; stroke-width: 0.75"/>
     <use xlink:href="#m3a59b72f76" x="380.102226" y="236.897299" style="fill: #35dc67; stroke: #ffffff; stroke-width: 0.75"/>
     <use xlink:href="#m3a59b72f76" x="385.226193" y="235.354048" style="fill: #35dc67; stroke: #ffffff; stroke-width: 0.75"/>
     <use xlink:href="#m3a59b72f76" x="390.35016" y="237.93702" style="fill: #35dc67; stroke: #ffffff; stroke-width: 0.75"/>
     <use xlink:href="#m3a59b72f76" x="395.474127" y="236.612703" style="fill: #35dc67; stroke: #ffffff; stroke-width: 0.75"/>
     <use xlink:href="#m3a59b72f76" x="400.598094" y="236.630839" style="fill: #35dc67; stroke: #ffffff; stroke-width: 0.75"/>
     <use xlink:href="#m3a59b72f76" x="405.722061" y="235.949483" style="fill: #35dc67; stroke: #ffffff; stroke-width: 0.75"/>
     <use xlink:href="#m3a59b72f76" x="410.846028" y="237.999769" style="fill: #35dc67; stroke: #ffffff; stroke-width: 0.75"/>
     <use xlink:href="#m3a59b72f76" x="415.969995" y="234.469066" style="fill: #35dc67; stroke: #ffffff; stroke-width: 0.75"/>
     <use xlink:href="#m3a59b72f76" x="421.093962" y="234.990792" style="fill: #35dc67; stroke: #ffffff; stroke-width: 0.75"/>
     <use xlink:href="#m3a59b72f76" x="426.217929" y="236.894617" style="fill: #35dc67; stroke: #ffffff; stroke-width: 0.75"/>
     <use xlink:href="#m3a59b72f76" x="431.341896" y="238.234242" style="fill: #35dc67; stroke: #ffffff; stroke-width: 0.75"/>
     <use xlink:href="#m3a59b72f76" x="436.465863" y="235.937248" style="fill: #35dc67; stroke: #ffffff; stroke-width: 0.75"/>
     <use xlink:href="#m3a59b72f76" x="441.58983" y="236.087332" style="fill: #35dc67; stroke: #ffffff; stroke-width: 0.75"/>
     <use xlink:href="#m3a59b72f76" x="446.713796" y="234.639797" style="fill: #35dc67; stroke: #ffffff; stroke-width: 0.75"/>
     <use xlink:href="#m3a59b72f76" x="451.837763" y="236.10503" style="fill: #35dc67; stroke: #ffffff; stroke-width: 0.75"/>
     <use xlink:href="#m3a59b72f76" x="456.96173" y="234.081942" style="fill: #35dc67; stroke: #ffffff; stroke-width: 0.75"/>
     <use xlink:href="#m3a59b72f76" x="462.085697" y="237.885848" style="fill: #35dc67; stroke: #ffffff; stroke-width: 0.75"/>
     <use xlink:href="#m3a59b72f76" x="467.209664" y="234.950231" style="fill: #35dc67; stroke: #ffffff; stroke-width: 0.75"/>
     <use xlink:href="#m3a59b72f76" x="472.333631" y="234.473936" style="fill: #35dc67; stroke: #ffffff; stroke-width: 0.75"/>
     <use xlink:href="#m3a59b72f76" x="477.457598" y="237.798558" style="fill: #35dc67; stroke: #ffffff; stroke-width: 0.75"/>
     <use xlink:href="#m3a59b72f76" x="482.581565" y="238.595767" style="fill: #35dc67; stroke: #ffffff; stroke-width: 0.75"/>
     <use xlink:href="#m3a59b72f76" x="487.705532" y="235.151939" style="fill: #35dc67; stroke: #ffffff; stroke-width: 0.75"/>
     <use xlink:href="#m3a59b72f76" x="492.829499" y="236.92087" style="fill: #35dc67; stroke: #ffffff; stroke-width: 0.75"/>
     <use xlink:href="#m3a59b72f76" x="497.953466" y="237.452969" style="fill: #35dc67; stroke: #ffffff; stroke-width: 0.75"/>
     <use xlink:href="#m3a59b72f76" x="503.077433" y="235.386082" style="fill: #35dc67; stroke: #ffffff; stroke-width: 0.75"/>
     <use xlink:href="#m3a59b72f76" x="508.2014" y="236.674005" style="fill: #35dc67; stroke: #ffffff; stroke-width: 0.75"/>
     <use xlink:href="#m3a59b72f76" x="513.325367" y="235.785237" style="fill: #35dc67; stroke: #ffffff; stroke-width: 0.75"/>
     <use xlink:href="#m3a59b72f76" x="518.449334" y="236.096253" style="fill: #35dc67; stroke: #ffffff; stroke-width: 0.75"/>
     <use xlink:href="#m3a59b72f76" x="523.573301" y="234.831909" style="fill: #35dc67; stroke: #ffffff; stroke-width: 0.75"/>
     <use xlink:href="#m3a59b72f76" x="528.697268" y="237.692892" style="fill: #35dc67; stroke: #ffffff; stroke-width: 0.75"/>
     <use xlink:href="#m3a59b72f76" x="533.821235" y="236.763478" style="fill: #35dc67; stroke: #ffffff; stroke-width: 0.75"/>
     <use xlink:href="#m3a59b72f76" x="538.945201" y="237.752996" style="fill: #35dc67; stroke: #ffffff; stroke-width: 0.75"/>
     <use xlink:href="#m3a59b72f76" x="544.069168" y="233.177602" style="fill: #35dc67; stroke: #ffffff; stroke-width: 0.75"/>
     <use xlink:href="#m3a59b72f76" x="549.193135" y="236.461061" style="fill: #35dc67; stroke: #ffffff; stroke-width: 0.75"/>
     <use xlink:href="#m3a59b72f76" x="554.317102" y="236.442126" style="fill: #35dc67; stroke: #ffffff; stroke-width: 0.75"/>
     <use xlink:href="#m3a59b72f76" x="559.441069" y="235.81276" style="fill: #35dc67; stroke: #ffffff; stroke-width: 0.75"/>
     <use xlink:href="#m3a59b72f76" x="564.565036" y="233.962681" style="fill: #35dc67; stroke: #ffffff; stroke-width: 0.75"/>
     <use xlink:href="#m3a59b72f76" x="569.689003" y="237.810359" style="fill: #35dc67; stroke: #ffffff; stroke-width: 0.75"/>
     <use xlink:href="#m3a59b72f76" x="574.81297" y="235.966774" style="fill: #35dc67; stroke: #ffffff; stroke-width: 0.75"/>
     <use xlink:href="#m3a59b72f76" x="579.936937" y="221.552911" style="fill: #35dc67; stroke: #ffffff; stroke-width: 0.75"/>
     <use xlink:href="#m3a59b72f76" x="585.060904" y="237.398401" style="fill: #35dc67; stroke: #ffffff; stroke-width: 0.75"/>
     <use xlink:href="#m3a59b72f76" x="590.184871" y="238.524298" style="fill: #35dc67; stroke: #ffffff; stroke-width: 0.75"/>
     <use xlink:href="#m3a59b72f76" x="595.308838" y="238.232718" style="fill: #35dc67; stroke: #ffffff; stroke-width: 0.75"/>
     <use xlink:href="#m3a59b72f76" x="600.432805" y="234.155852" style="fill: #35dc67; stroke: #ffffff; stroke-width: 0.75"/>
     <use xlink:href="#m3a59b72f76" x="605.556772" y="236.892177" style="fill: #35dc67; stroke: #ffffff; stroke-width: 0.75"/>
     <use xlink:href="#m3a59b72f76" x="610.680739" y="223.279251" style="fill: #35dc67; stroke: #ffffff; stroke-width: 0.75"/>
    </g>
   </g>
   <g id="line2d_38">
    <path d="M 103.408011 228.691844 
L 108.531978 228.067762 
L 113.655945 215.575746 
L 118.779912 215.856441 
L 123.903879 225.406436 
L 129.027846 227.608248 
L 134.151813 232.56185 
L 139.27578 234.462791 
L 144.399747 227.703836 
L 149.523714 216.556365 
L 154.647681 234.5957 
L 159.771648 229.677652 
L 164.895615 231.252728 
L 170.019582 231.278119 
L 175.143549 226.462515 
L 180.267515 229.940571 
L 185.391482 216.93221 
L 190.515449 219.332639 
L 195.639416 236.163019 
L 200.763383 225.174651 
L 205.88735 234.211835 
L 211.011317 214.884604 
L 216.135284 190.46175 
L 221.259251 206.046367 
L 226.383218 218.595655 
L 231.507185 234.066649 
L 236.631152 234.998018 
L 241.755119 224.46462 
L 246.879086 233.056467 
L 252.003053 227.191802 
L 257.12702 234.94021 
L 262.250987 215.044118 
L 267.374954 234.911477 
L 272.49892 234.015339 
L 277.622887 229.025479 
L 282.746854 233.017705 
L 287.870821 232.272655 
L 292.994788 236.829664 
L 298.118755 228.002764 
L 303.242722 227.667377 
L 308.366689 235.272788 
L 313.490656 233.32096 
L 318.614623 235.692129 
L 323.73859 237.808651 
L 328.862557 229.636324 
L 333.986524 236.402472 
L 339.110491 231.312296 
L 344.234458 235.416807 
L 349.358425 237.00336 
L 354.482392 234.572722 
L 359.606358 236.649599 
L 364.730325 236.552994 
L 369.854292 233.568529 
L 374.978259 234.772796 
L 380.102226 234.659839 
L 385.226193 234.550413 
L 390.35016 230.551094 
L 395.474127 234.434738 
L 400.598094 229.914657 
L 405.722061 231.602344 
L 410.846028 235.208034 
L 415.969995 234.508179 
L 421.093962 231.342157 
L 426.217929 234.680829 
L 431.341896 226.178336 
L 436.465863 235.483589 
L 441.58983 232.572463 
L 446.713796 236.527848 
L 451.837763 234.891926 
L 456.96173 233.624074 
L 462.085697 234.762423 
L 467.209664 236.202896 
L 472.333631 237.511508 
L 477.457598 236.566931 
L 482.581565 229.941252 
L 487.705532 233.441233 
L 492.829499 235.412078 
L 497.953466 235.703327 
L 503.077433 229.787316 
L 508.2014 233.884101 
L 513.325367 233.56289 
L 518.449334 236.445838 
L 523.573301 235.681163 
L 528.697268 238.199615 
L 533.821235 234.658004 
L 538.945201 232.6738 
L 544.069168 235.774487 
L 549.193135 231.476264 
L 554.317102 235.373304 
L 559.441069 228.166076 
L 564.565036 234.299079 
L 569.689003 236.046915 
L 574.81297 206.889953 
L 579.936937 233.708259 
L 585.060904 237.711716 
L 590.184871 233.059392 
L 595.308838 235.754567 
L 600.432805 234.524863 
L 605.556772 231.422743 
L 610.680739 229.462124 
" clip-path="url(#p37bcd7a5db)" style="fill: none; stroke: #007bff; stroke-width: 1.5; stroke-linecap: square"/>
    <defs>
     <path id="m6980705b95" d="M 0 3 
C 0.795609 3 1.55874 2.683901 2.12132 2.12132 
C 2.683901 1.55874 3 0.795609 3 0 
C 3 -0.795609 2.683901 -1.55874 2.12132 -2.12132 
C 1.55874 -2.683901 0.795609 -3 0 -3 
C -0.795609 -3 -1.55874 -2.683901 -2.12132 -2.12132 
C -2.683901 -1.55874 -3 -0.795609 -3 0 
C -3 0.795609 -2.683901 1.55874 -2.12132 2.12132 
C -1.55874 2.683901 -0.795609 3 0 3 
z
" style="stroke: #ffffff; stroke-width: 0.75"/>
    </defs>
    <g clip-path="url(#p37bcd7a5db)">
     <use xlink:href="#m6980705b95" x="103.408011" y="228.691844" style="fill: #007bff; stroke: #ffffff; stroke-width: 0.75"/>
     <use xlink:href="#m6980705b95" x="108.531978" y="228.067762" style="fill: #007bff; stroke: #ffffff; stroke-width: 0.75"/>
     <use xlink:href="#m6980705b95" x="113.655945" y="215.575746" style="fill: #007bff; stroke: #ffffff; stroke-width: 0.75"/>
     <use xlink:href="#m6980705b95" x="118.779912" y="215.856441" style="fill: #007bff; stroke: #ffffff; stroke-width: 0.75"/>
     <use xlink:href="#m6980705b95" x="123.903879" y="225.406436" style="fill: #007bff; stroke: #ffffff; stroke-width: 0.75"/>
     <use xlink:href="#m6980705b95" x="129.027846" y="227.608248" style="fill: #007bff; stroke: #ffffff; stroke-width: 0.75"/>
     <use xlink:href="#m6980705b95" x="134.151813" y="232.56185" style="fill: #007bff; stroke: #ffffff; stroke-width: 0.75"/>
     <use xlink:href="#m6980705b95" x="139.27578" y="234.462791" style="fill: #007bff; stroke: #ffffff; stroke-width: 0.75"/>
     <use xlink:href="#m6980705b95" x="144.399747" y="227.703836" style="fill: #007bff; stroke: #ffffff; stroke-width: 0.75"/>
     <use xlink:href="#m6980705b95" x="149.523714" y="216.556365" style="fill: #007bff; stroke: #ffffff; stroke-width: 0.75"/>
     <use xlink:href="#m6980705b95" x="154.647681" y="234.5957" style="fill: #007bff; stroke: #ffffff; stroke-width: 0.75"/>
     <use xlink:href="#m6980705b95" x="159.771648" y="229.677652" style="fill: #007bff; stroke: #ffffff; stroke-width: 0.75"/>
     <use xlink:href="#m6980705b95" x="164.895615" y="231.252728" style="fill: #007bff; stroke: #ffffff; stroke-width: 0.75"/>
     <use xlink:href="#m6980705b95" x="170.019582" y="231.278119" style="fill: #007bff; stroke: #ffffff; stroke-width: 0.75"/>
     <use xlink:href="#m6980705b95" x="175.143549" y="226.462515" style="fill: #007bff; stroke: #ffffff; stroke-width: 0.75"/>
     <use xlink:href="#m6980705b95" x="180.267515" y="229.940571" style="fill: #007bff; stroke: #ffffff; stroke-width: 0.75"/>
     <use xlink:href="#m6980705b95" x="185.391482" y="216.93221" style="fill: #007bff; stroke: #ffffff; stroke-width: 0.75"/>
     <use xlink:href="#m6980705b95" x="190.515449" y="219.332639" style="fill: #007bff; stroke: #ffffff; stroke-width: 0.75"/>
     <use xlink:href="#m6980705b95" x="195.639416" y="236.163019" style="fill: #007bff; stroke: #ffffff; stroke-width: 0.75"/>
     <use xlink:href="#m6980705b95" x="200.763383" y="225.174651" style="fill: #007bff; stroke: #ffffff; stroke-width: 0.75"/>
     <use xlink:href="#m6980705b95" x="205.88735" y="234.211835" style="fill: #007bff; stroke: #ffffff; stroke-width: 0.75"/>
     <use xlink:href="#m6980705b95" x="211.011317" y="214.884604" style="fill: #007bff; stroke: #ffffff; stroke-width: 0.75"/>
     <use xlink:href="#m6980705b95" x="216.135284" y="190.46175" style="fill: #007bff; stroke: #ffffff; stroke-width: 0.75"/>
     <use xlink:href="#m6980705b95" x="221.259251" y="206.046367" style="fill: #007bff; stroke: #ffffff; stroke-width: 0.75"/>
     <use xlink:href="#m6980705b95" x="226.383218" y="218.595655" style="fill: #007bff; stroke: #ffffff; stroke-width: 0.75"/>
     <use xlink:href="#m6980705b95" x="231.507185" y="234.066649" style="fill: #007bff; stroke: #ffffff; stroke-width: 0.75"/>
     <use xlink:href="#m6980705b95" x="236.631152" y="234.998018" style="fill: #007bff; stroke: #ffffff; stroke-width: 0.75"/>
     <use xlink:href="#m6980705b95" x="241.755119" y="224.46462" style="fill: #007bff; stroke: #ffffff; stroke-width: 0.75"/>
     <use xlink:href="#m6980705b95" x="246.879086" y="233.056467" style="fill: #007bff; stroke: #ffffff; stroke-width: 0.75"/>
     <use xlink:href="#m6980705b95" x="252.003053" y="227.191802" style="fill: #007bff; stroke: #ffffff; stroke-width: 0.75"/>
     <use xlink:href="#m6980705b95" x="257.12702" y="234.94021" style="fill: #007bff; stroke: #ffffff; stroke-width: 0.75"/>
     <use xlink:href="#m6980705b95" x="262.250987" y="215.044118" style="fill: #007bff; stroke: #ffffff; stroke-width: 0.75"/>
     <use xlink:href="#m6980705b95" x="267.374954" y="234.911477" style="fill: #007bff; stroke: #ffffff; stroke-width: 0.75"/>
     <use xlink:href="#m6980705b95" x="272.49892" y="234.015339" style="fill: #007bff; stroke: #ffffff; stroke-width: 0.75"/>
     <use xlink:href="#m6980705b95" x="277.622887" y="229.025479" style="fill: #007bff; stroke: #ffffff; stroke-width: 0.75"/>
     <use xlink:href="#m6980705b95" x="282.746854" y="233.017705" style="fill: #007bff; stroke: #ffffff; stroke-width: 0.75"/>
     <use xlink:href="#m6980705b95" x="287.870821" y="232.272655" style="fill: #007bff; stroke: #ffffff; stroke-width: 0.75"/>
     <use xlink:href="#m6980705b95" x="292.994788" y="236.829664" style="fill: #007bff; stroke: #ffffff; stroke-width: 0.75"/>
     <use xlink:href="#m6980705b95" x="298.118755" y="228.002764" style="fill: #007bff; stroke: #ffffff; stroke-width: 0.75"/>
     <use xlink:href="#m6980705b95" x="303.242722" y="227.667377" style="fill: #007bff; stroke: #ffffff; stroke-width: 0.75"/>
     <use xlink:href="#m6980705b95" x="308.366689" y="235.272788" style="fill: #007bff; stroke: #ffffff; stroke-width: 0.75"/>
     <use xlink:href="#m6980705b95" x="313.490656" y="233.32096" style="fill: #007bff; stroke: #ffffff; stroke-width: 0.75"/>
     <use xlink:href="#m6980705b95" x="318.614623" y="235.692129" style="fill: #007bff; stroke: #ffffff; stroke-width: 0.75"/>
     <use xlink:href="#m6980705b95" x="323.73859" y="237.808651" style="fill: #007bff; stroke: #ffffff; stroke-width: 0.75"/>
     <use xlink:href="#m6980705b95" x="328.862557" y="229.636324" style="fill: #007bff; stroke: #ffffff; stroke-width: 0.75"/>
     <use xlink:href="#m6980705b95" x="333.986524" y="236.402472" style="fill: #007bff; stroke: #ffffff; stroke-width: 0.75"/>
     <use xlink:href="#m6980705b95" x="339.110491" y="231.312296" style="fill: #007bff; stroke: #ffffff; stroke-width: 0.75"/>
     <use xlink:href="#m6980705b95" x="344.234458" y="235.416807" style="fill: #007bff; stroke: #ffffff; stroke-width: 0.75"/>
     <use xlink:href="#m6980705b95" x="349.358425" y="237.00336" style="fill: #007bff; stroke: #ffffff; stroke-width: 0.75"/>
     <use xlink:href="#m6980705b95" x="354.482392" y="234.572722" style="fill: #007bff; stroke: #ffffff; stroke-width: 0.75"/>
     <use xlink:href="#m6980705b95" x="359.606358" y="236.649599" style="fill: #007bff; stroke: #ffffff; stroke-width: 0.75"/>
     <use xlink:href="#m6980705b95" x="364.730325" y="236.552994" style="fill: #007bff; stroke: #ffffff; stroke-width: 0.75"/>
     <use xlink:href="#m6980705b95" x="369.854292" y="233.568529" style="fill: #007bff; stroke: #ffffff; stroke-width: 0.75"/>
     <use xlink:href="#m6980705b95" x="374.978259" y="234.772796" style="fill: #007bff; stroke: #ffffff; stroke-width: 0.75"/>
     <use xlink:href="#m6980705b95" x="380.102226" y="234.659839" style="fill: #007bff; stroke: #ffffff; stroke-width: 0.75"/>
     <use xlink:href="#m6980705b95" x="385.226193" y="234.550413" style="fill: #007bff; stroke: #ffffff; stroke-width: 0.75"/>
     <use xlink:href="#m6980705b95" x="390.35016" y="230.551094" style="fill: #007bff; stroke: #ffffff; stroke-width: 0.75"/>
     <use xlink:href="#m6980705b95" x="395.474127" y="234.434738" style="fill: #007bff; stroke: #ffffff; stroke-width: 0.75"/>
     <use xlink:href="#m6980705b95" x="400.598094" y="229.914657" style="fill: #007bff; stroke: #ffffff; stroke-width: 0.75"/>
     <use xlink:href="#m6980705b95" x="405.722061" y="231.602344" style="fill: #007bff; stroke: #ffffff; stroke-width: 0.75"/>
     <use xlink:href="#m6980705b95" x="410.846028" y="235.208034" style="fill: #007bff; stroke: #ffffff; stroke-width: 0.75"/>
     <use xlink:href="#m6980705b95" x="415.969995" y="234.508179" style="fill: #007bff; stroke: #ffffff; stroke-width: 0.75"/>
     <use xlink:href="#m6980705b95" x="421.093962" y="231.342157" style="fill: #007bff; stroke: #ffffff; stroke-width: 0.75"/>
     <use xlink:href="#m6980705b95" x="426.217929" y="234.680829" style="fill: #007bff; stroke: #ffffff; stroke-width: 0.75"/>
     <use xlink:href="#m6980705b95" x="431.341896" y="226.178336" style="fill: #007bff; stroke: #ffffff; stroke-width: 0.75"/>
     <use xlink:href="#m6980705b95" x="436.465863" y="235.483589" style="fill: #007bff; stroke: #ffffff; stroke-width: 0.75"/>
     <use xlink:href="#m6980705b95" x="441.58983" y="232.572463" style="fill: #007bff; stroke: #ffffff; stroke-width: 0.75"/>
     <use xlink:href="#m6980705b95" x="446.713796" y="236.527848" style="fill: #007bff; stroke: #ffffff; stroke-width: 0.75"/>
     <use xlink:href="#m6980705b95" x="451.837763" y="234.891926" style="fill: #007bff; stroke: #ffffff; stroke-width: 0.75"/>
     <use xlink:href="#m6980705b95" x="456.96173" y="233.624074" style="fill: #007bff; stroke: #ffffff; stroke-width: 0.75"/>
     <use xlink:href="#m6980705b95" x="462.085697" y="234.762423" style="fill: #007bff; stroke: #ffffff; stroke-width: 0.75"/>
     <use xlink:href="#m6980705b95" x="467.209664" y="236.202896" style="fill: #007bff; stroke: #ffffff; stroke-width: 0.75"/>
     <use xlink:href="#m6980705b95" x="472.333631" y="237.511508" style="fill: #007bff; stroke: #ffffff; stroke-width: 0.75"/>
     <use xlink:href="#m6980705b95" x="477.457598" y="236.566931" style="fill: #007bff; stroke: #ffffff; stroke-width: 0.75"/>
     <use xlink:href="#m6980705b95" x="482.581565" y="229.941252" style="fill: #007bff; stroke: #ffffff; stroke-width: 0.75"/>
     <use xlink:href="#m6980705b95" x="487.705532" y="233.441233" style="fill: #007bff; stroke: #ffffff; stroke-width: 0.75"/>
     <use xlink:href="#m6980705b95" x="492.829499" y="235.412078" style="fill: #007bff; stroke: #ffffff; stroke-width: 0.75"/>
     <use xlink:href="#m6980705b95" x="497.953466" y="235.703327" style="fill: #007bff; stroke: #ffffff; stroke-width: 0.75"/>
     <use xlink:href="#m6980705b95" x="503.077433" y="229.787316" style="fill: #007bff; stroke: #ffffff; stroke-width: 0.75"/>
     <use xlink:href="#m6980705b95" x="508.2014" y="233.884101" style="fill: #007bff; stroke: #ffffff; stroke-width: 0.75"/>
     <use xlink:href="#m6980705b95" x="513.325367" y="233.56289" style="fill: #007bff; stroke: #ffffff; stroke-width: 0.75"/>
     <use xlink:href="#m6980705b95" x="518.449334" y="236.445838" style="fill: #007bff; stroke: #ffffff; stroke-width: 0.75"/>
     <use xlink:href="#m6980705b95" x="523.573301" y="235.681163" style="fill: #007bff; stroke: #ffffff; stroke-width: 0.75"/>
     <use xlink:href="#m6980705b95" x="528.697268" y="238.199615" style="fill: #007bff; stroke: #ffffff; stroke-width: 0.75"/>
     <use xlink:href="#m6980705b95" x="533.821235" y="234.658004" style="fill: #007bff; stroke: #ffffff; stroke-width: 0.75"/>
     <use xlink:href="#m6980705b95" x="538.945201" y="232.6738" style="fill: #007bff; stroke: #ffffff; stroke-width: 0.75"/>
     <use xlink:href="#m6980705b95" x="544.069168" y="235.774487" style="fill: #007bff; stroke: #ffffff; stroke-width: 0.75"/>
     <use xlink:href="#m6980705b95" x="549.193135" y="231.476264" style="fill: #007bff; stroke: #ffffff; stroke-width: 0.75"/>
     <use xlink:href="#m6980705b95" x="554.317102" y="235.373304" style="fill: #007bff; stroke: #ffffff; stroke-width: 0.75"/>
     <use xlink:href="#m6980705b95" x="559.441069" y="228.166076" style="fill: #007bff; stroke: #ffffff; stroke-width: 0.75"/>
     <use xlink:href="#m6980705b95" x="564.565036" y="234.299079" style="fill: #007bff; stroke: #ffffff; stroke-width: 0.75"/>
     <use xlink:href="#m6980705b95" x="569.689003" y="236.046915" style="fill: #007bff; stroke: #ffffff; stroke-width: 0.75"/>
     <use xlink:href="#m6980705b95" x="574.81297" y="206.889953" style="fill: #007bff; stroke: #ffffff; stroke-width: 0.75"/>
     <use xlink:href="#m6980705b95" x="579.936937" y="233.708259" style="fill: #007bff; stroke: #ffffff; stroke-width: 0.75"/>
     <use xlink:href="#m6980705b95" x="585.060904" y="237.711716" style="fill: #007bff; stroke: #ffffff; stroke-width: 0.75"/>
     <use xlink:href="#m6980705b95" x="590.184871" y="233.059392" style="fill: #007bff; stroke: #ffffff; stroke-width: 0.75"/>
     <use xlink:href="#m6980705b95" x="595.308838" y="235.754567" style="fill: #007bff; stroke: #ffffff; stroke-width: 0.75"/>
     <use xlink:href="#m6980705b95" x="600.432805" y="234.524863" style="fill: #007bff; stroke: #ffffff; stroke-width: 0.75"/>
     <use xlink:href="#m6980705b95" x="605.556772" y="231.422743" style="fill: #007bff; stroke: #ffffff; stroke-width: 0.75"/>
     <use xlink:href="#m6980705b95" x="610.680739" y="229.462124" style="fill: #007bff; stroke: #ffffff; stroke-width: 0.75"/>
    </g>
   </g>
   <g id="line2d_39"/>
   <g id="line2d_40"/>
   <g id="patch_3">
    <path d="M 78.044375 356.78175 
L 78.044375 24.14175 
" style="fill: none; stroke: #000000; stroke-width: 0.8; stroke-linejoin: miter; stroke-linecap: square"/>
   </g>
   <g id="patch_4">
    <path d="M 636.044375 356.78175 
L 636.044375 24.14175 
" style="fill: none; stroke: #000000; stroke-width: 0.8; stroke-linejoin: miter; stroke-linecap: square"/>
   </g>
   <g id="patch_5">
    <path d="M 78.044375 356.78175 
L 636.044375 356.78175 
" style="fill: none; stroke: #000000; stroke-width: 0.8; stroke-linejoin: miter; stroke-linecap: square"/>
   </g>
   <g id="patch_6">
    <path d="M 78.044375 24.14175 
L 636.044375 24.14175 
" style="fill: none; stroke: #000000; stroke-width: 0.8; stroke-linejoin: miter; stroke-linecap: square"/>
   </g>
   <g id="text_21">
    <!-- Gesture Learning Curve  -->
    <g transform="translate(269.3045 18.14175) scale(0.144 -0.144)">
     <defs>
      <path id="DejaVuSans-47" d="M 3809 666 
L 3809 1919 
L 2778 1919 
L 2778 2438 
L 4434 2438 
L 4434 434 
Q 4069 175 3628 42 
Q 3188 -91 2688 -91 
Q 1594 -91 976 548 
Q 359 1188 359 2328 
Q 359 3472 976 4111 
Q 1594 4750 2688 4750 
Q 3144 4750 3555 4637 
Q 3966 4525 4313 4306 
L 4313 3634 
Q 3963 3931 3569 4081 
Q 3175 4231 2741 4231 
Q 1884 4231 1454 3753 
Q 1025 3275 1025 2328 
Q 1025 1384 1454 906 
Q 1884 428 2741 428 
Q 3075 428 3337 486 
Q 3600 544 3809 666 
z
" transform="scale(0.015625)"/>
      <path id="DejaVuSans-74" d="M 1172 4494 
L 1172 3500 
L 2356 3500 
L 2356 3053 
L 1172 3053 
L 1172 1153 
Q 1172 725 1289 603 
Q 1406 481 1766 481 
L 2356 481 
L 2356 0 
L 1766 0 
Q 1100 0 847 248 
Q 594 497 594 1153 
L 594 3053 
L 172 3053 
L 172 3500 
L 594 3500 
L 594 4494 
L 1172 4494 
z
" transform="scale(0.015625)"/>
      <path id="DejaVuSans-75" d="M 544 1381 
L 544 3500 
L 1119 3500 
L 1119 1403 
Q 1119 906 1312 657 
Q 1506 409 1894 409 
Q 2359 409 2629 706 
Q 2900 1003 2900 1516 
L 2900 3500 
L 3475 3500 
L 3475 0 
L 2900 0 
L 2900 538 
Q 2691 219 2414 64 
Q 2138 -91 1772 -91 
Q 1169 -91 856 284 
Q 544 659 544 1381 
z
M 1991 3584 
L 1991 3584 
z
" transform="scale(0.015625)"/>
      <path id="DejaVuSans-4c" d="M 628 4666 
L 1259 4666 
L 1259 531 
L 3531 531 
L 3531 0 
L 628 0 
L 628 4666 
z
" transform="scale(0.015625)"/>
      <path id="DejaVuSans-6e" d="M 3513 2113 
L 3513 0 
L 2938 0 
L 2938 2094 
Q 2938 2591 2744 2837 
Q 2550 3084 2163 3084 
Q 1697 3084 1428 2787 
Q 1159 2491 1159 1978 
L 1159 0 
L 581 0 
L 581 3500 
L 1159 3500 
L 1159 2956 
Q 1366 3272 1645 3428 
Q 1925 3584 2291 3584 
Q 2894 3584 3203 3211 
Q 3513 2838 3513 2113 
z
" transform="scale(0.015625)"/>
      <path id="DejaVuSans-67" d="M 2906 1791 
Q 2906 2416 2648 2759 
Q 2391 3103 1925 3103 
Q 1463 3103 1205 2759 
Q 947 2416 947 1791 
Q 947 1169 1205 825 
Q 1463 481 1925 481 
Q 2391 481 2648 825 
Q 2906 1169 2906 1791 
z
M 3481 434 
Q 3481 -459 3084 -895 
Q 2688 -1331 1869 -1331 
Q 1566 -1331 1297 -1286 
Q 1028 -1241 775 -1147 
L 775 -588 
Q 1028 -725 1275 -790 
Q 1522 -856 1778 -856 
Q 2344 -856 2625 -561 
Q 2906 -266 2906 331 
L 2906 616 
Q 2728 306 2450 153 
Q 2172 0 1784 0 
Q 1141 0 747 490 
Q 353 981 353 1791 
Q 353 2603 747 3093 
Q 1141 3584 1784 3584 
Q 2172 3584 2450 3431 
Q 2728 3278 2906 2969 
L 2906 3500 
L 3481 3500 
L 3481 434 
z
" transform="scale(0.015625)"/>
      <path id="DejaVuSans-43" d="M 4122 4306 
L 4122 3641 
Q 3803 3938 3442 4084 
Q 3081 4231 2675 4231 
Q 1875 4231 1450 3742 
Q 1025 3253 1025 2328 
Q 1025 1406 1450 917 
Q 1875 428 2675 428 
Q 3081 428 3442 575 
Q 3803 722 4122 1019 
L 4122 359 
Q 3791 134 3420 21 
Q 3050 -91 2638 -91 
Q 1578 -91 968 557 
Q 359 1206 359 2328 
Q 359 3453 968 4101 
Q 1578 4750 2638 4750 
Q 3056 4750 3426 4639 
Q 3797 4528 4122 4306 
z
" transform="scale(0.015625)"/>
      <path id="DejaVuSans-76" d="M 191 3500 
L 800 3500 
L 1894 563 
L 2988 3500 
L 3597 3500 
L 2284 0 
L 1503 0 
L 191 3500 
z
" transform="scale(0.015625)"/>
     </defs>
     <use xlink:href="#DejaVuSans-47"/>
     <use xlink:href="#DejaVuSans-65" transform="translate(77.490234 0)"/>
     <use xlink:href="#DejaVuSans-73" transform="translate(139.013672 0)"/>
     <use xlink:href="#DejaVuSans-74" transform="translate(191.113281 0)"/>
     <use xlink:href="#DejaVuSans-75" transform="translate(230.322266 0)"/>
     <use xlink:href="#DejaVuSans-72" transform="translate(293.701172 0)"/>
     <use xlink:href="#DejaVuSans-65" transform="translate(332.564453 0)"/>
     <use xlink:href="#DejaVuSans-20" transform="translate(394.087891 0)"/>
     <use xlink:href="#DejaVuSans-4c" transform="translate(425.875 0)"/>
     <use xlink:href="#DejaVuSans-65" transform="translate(479.837891 0)"/>
     <use xlink:href="#DejaVuSans-61" transform="translate(541.361328 0)"/>
     <use xlink:href="#DejaVuSans-72" transform="translate(602.640625 0)"/>
     <use xlink:href="#DejaVuSans-6e" transform="translate(642.003906 0)"/>
     <use xlink:href="#DejaVuSans-69" transform="translate(705.382812 0)"/>
     <use xlink:href="#DejaVuSans-6e" transform="translate(733.166016 0)"/>
     <use xlink:href="#DejaVuSans-67" transform="translate(796.544922 0)"/>
     <use xlink:href="#DejaVuSans-20" transform="translate(860.021484 0)"/>
     <use xlink:href="#DejaVuSans-43" transform="translate(891.808594 0)"/>
     <use xlink:href="#DejaVuSans-75" transform="translate(961.632812 0)"/>
     <use xlink:href="#DejaVuSans-72" transform="translate(1025.011719 0)"/>
     <use xlink:href="#DejaVuSans-76" transform="translate(1066.125 0)"/>
     <use xlink:href="#DejaVuSans-65" transform="translate(1125.304688 0)"/>
     <use xlink:href="#DejaVuSans-20" transform="translate(1186.828125 0)"/>
    </g>
   </g>
   <g id="legend_1">
    <g id="patch_7">
     <path d="M 530.223125 86.583 
L 627.644375 86.583 
Q 630.044375 86.583 630.044375 84.183 
L 630.044375 32.54175 
Q 630.044375 30.14175 627.644375 30.14175 
L 530.223125 30.14175 
Q 527.823125 30.14175 527.823125 32.54175 
L 527.823125 84.183 
Q 527.823125 86.583 530.223125 86.583 
z
" style="fill: #ffffff; opacity: 0.8; stroke: #cccccc; stroke-linejoin: miter"/>
    </g>
    <g id="text_22">
     <!-- Condition -->
     <g transform="translate(550.301562 44.059875) scale(0.12 -0.12)">
      <defs>
       <path id="DejaVuSans-6f" d="M 1959 3097 
Q 1497 3097 1228 2736 
Q 959 2375 959 1747 
Q 959 1119 1226 758 
Q 1494 397 1959 397 
Q 2419 397 2687 759 
Q 2956 1122 2956 1747 
Q 2956 2369 2687 2733 
Q 2419 3097 1959 3097 
z
M 1959 3584 
Q 2709 3584 3137 3096 
Q 3566 2609 3566 1747 
Q 3566 888 3137 398 
Q 2709 -91 1959 -91 
Q 1206 -91 779 398 
Q 353 888 353 1747 
Q 353 2609 779 3096 
Q 1206 3584 1959 3584 
z
" transform="scale(0.015625)"/>
       <path id="DejaVuSans-64" d="M 2906 2969 
L 2906 4863 
L 3481 4863 
L 3481 0 
L 2906 0 
L 2906 525 
Q 2725 213 2448 61 
Q 2172 -91 1784 -91 
Q 1150 -91 751 415 
Q 353 922 353 1747 
Q 353 2572 751 3078 
Q 1150 3584 1784 3584 
Q 2172 3584 2448 3432 
Q 2725 3281 2906 2969 
z
M 947 1747 
Q 947 1113 1208 752 
Q 1469 391 1925 391 
Q 2381 391 2643 752 
Q 2906 1113 2906 1747 
Q 2906 2381 2643 2742 
Q 2381 3103 1925 3103 
Q 1469 3103 1208 2742 
Q 947 2381 947 1747 
z
" transform="scale(0.015625)"/>
      </defs>
      <use xlink:href="#DejaVuSans-43"/>
      <use xlink:href="#DejaVuSans-6f" transform="translate(69.824219 0)"/>
      <use xlink:href="#DejaVuSans-6e" transform="translate(131.005859 0)"/>
      <use xlink:href="#DejaVuSans-64" transform="translate(194.384766 0)"/>
      <use xlink:href="#DejaVuSans-69" transform="translate(257.861328 0)"/>
      <use xlink:href="#DejaVuSans-74" transform="translate(285.644531 0)"/>
      <use xlink:href="#DejaVuSans-69" transform="translate(324.853516 0)"/>
      <use xlink:href="#DejaVuSans-6f" transform="translate(352.636719 0)"/>
      <use xlink:href="#DejaVuSans-6e" transform="translate(413.818359 0)"/>
     </g>
    </g>
    <g id="line2d_41">
     <path d="M 532.623125 57.473625 
L 544.623125 57.473625 
L 556.623125 57.473625 
" style="fill: none; stroke: #35dc67; stroke-width: 1.5; stroke-linecap: square"/>
     <g>
      <use xlink:href="#m3a59b72f76" x="544.623125" y="57.473625" style="fill: #35dc67; stroke: #ffffff; stroke-width: 0.75"/>
     </g>
    </g>
    <g id="text_23">
     <!-- Proposed -->
     <g transform="translate(566.223125 61.673625) scale(0.12 -0.12)">
      <defs>
       <path id="DejaVuSans-50" d="M 1259 4147 
L 1259 2394 
L 2053 2394 
Q 2494 2394 2734 2622 
Q 2975 2850 2975 3272 
Q 2975 3691 2734 3919 
Q 2494 4147 2053 4147 
L 1259 4147 
z
M 628 4666 
L 2053 4666 
Q 2838 4666 3239 4311 
Q 3641 3956 3641 3272 
Q 3641 2581 3239 2228 
Q 2838 1875 2053 1875 
L 1259 1875 
L 1259 0 
L 628 0 
L 628 4666 
z
" transform="scale(0.015625)"/>
       <path id="DejaVuSans-70" d="M 1159 525 
L 1159 -1331 
L 581 -1331 
L 581 3500 
L 1159 3500 
L 1159 2969 
Q 1341 3281 1617 3432 
Q 1894 3584 2278 3584 
Q 2916 3584 3314 3078 
Q 3713 2572 3713 1747 
Q 3713 922 3314 415 
Q 2916 -91 2278 -91 
Q 1894 -91 1617 61 
Q 1341 213 1159 525 
z
M 3116 1747 
Q 3116 2381 2855 2742 
Q 2594 3103 2138 3103 
Q 1681 3103 1420 2742 
Q 1159 2381 1159 1747 
Q 1159 1113 1420 752 
Q 1681 391 2138 391 
Q 2594 391 2855 752 
Q 3116 1113 3116 1747 
z
" transform="scale(0.015625)"/>
      </defs>
      <use xlink:href="#DejaVuSans-50"/>
      <use xlink:href="#DejaVuSans-72" transform="translate(58.552734 0)"/>
      <use xlink:href="#DejaVuSans-6f" transform="translate(97.416016 0)"/>
      <use xlink:href="#DejaVuSans-70" transform="translate(158.597656 0)"/>
      <use xlink:href="#DejaVuSans-6f" transform="translate(222.074219 0)"/>
      <use xlink:href="#DejaVuSans-73" transform="translate(283.255859 0)"/>
      <use xlink:href="#DejaVuSans-65" transform="translate(335.355469 0)"/>
      <use xlink:href="#DejaVuSans-64" transform="translate(396.878906 0)"/>
     </g>
    </g>
    <g id="line2d_42">
     <path d="M 532.623125 75.087375 
L 544.623125 75.087375 
L 556.623125 75.087375 
" style="fill: none; stroke: #007bff; stroke-width: 1.5; stroke-linecap: square"/>
     <g>
      <use xlink:href="#m6980705b95" x="544.623125" y="75.087375" style="fill: #007bff; stroke: #ffffff; stroke-width: 0.75"/>
     </g>
    </g>
    <g id="text_24">
     <!-- Controller -->
     <g transform="translate(566.223125 79.287375) scale(0.12 -0.12)">
      <use xlink:href="#DejaVuSans-43"/>
      <use xlink:href="#DejaVuSans-6f" transform="translate(69.824219 0)"/>
      <use xlink:href="#DejaVuSans-6e" transform="translate(131.005859 0)"/>
      <use xlink:href="#DejaVuSans-74" transform="translate(194.384766 0)"/>
      <use xlink:href="#DejaVuSans-72" transform="translate(233.59375 0)"/>
      <use xlink:href="#DejaVuSans-6f" transform="translate(272.457031 0)"/>
      <use xlink:href="#DejaVuSans-6c" transform="translate(333.638672 0)"/>
      <use xlink:href="#DejaVuSans-6c" transform="translate(361.421875 0)"/>
      <use xlink:href="#DejaVuSans-65" transform="translate(389.205078 0)"/>
      <use xlink:href="#DejaVuSans-72" transform="translate(450.728516 0)"/>
     </g>
    </g>
   </g>
  </g>
 </g>
 <defs>
  <clipPath id="p37bcd7a5db">
   <rect x="78.044375" y="24.14175" width="558" height="332.64"/>
  </clipPath>
 </defs>
</svg>
