<?xml version="1.0" encoding="utf-8" standalone="no"?>
<!DOCTYPE svg PUBLIC "-//W3C//DTD SVG 1.1//EN"
  "http://www.w3.org/Graphics/SVG/1.1/DTD/svg11.dtd">
<svg xmlns:xlink="http://www.w3.org/1999/xlink" width="521.58875pt" height="398.20925pt" viewBox="0 0 521.58875 398.20925" xmlns="http://www.w3.org/2000/svg" version="1.1">
 <metadata>
  <rdf:RDF xmlns:dc="http://purl.org/dc/elements/1.1/" xmlns:cc="http://creativecommons.org/ns#" xmlns:rdf="http://www.w3.org/1999/02/22-rdf-syntax-ns#">
   <cc:Work>
    <dc:type rdf:resource="http://purl.org/dc/dcmitype/StillImage"/>
    <dc:date>2026-01-23T15:20:56.804894</dc:date>
    <dc:format>image/svg+xml</dc:format>
    <dc:creator>
     <cc:Agent>
      <dc:title>Matplotlib v3.10.8, https://matplotlib.org/</dc:title>
     </cc:Agent>
    </dc:creator>
   </cc:Work>
  </rdf:RDF>
 </metadata>
 <defs>
  <style type="text/css">*{stroke-linejoin: round; stroke-linecap: butt}</style>
 </defs>
 <g id="figure_1">
  <g id="patch_1">
   <path d="M 0 398.20925 
L 521.58875 398.20925 
L 521.58875 0 
L 0 0 
z
" style="fill: #ffffff"/>
  </g>
  <g id="axes_1">
   <g id="patch_2">
    <path d="M 67.98875 356.78175 
L 514.38875 356.78175 
L 514.38875 24.14175 
L 67.98875 24.14175 
z
" style="fill: #ffffff"/>
   </g>
   <g id="matplotlib.axis_1">
    <g id="xtick_1">
     <g id="line2d_1">
      <defs>
       <path id="m9a112aa013" d="M 0 0 
L 0 3.5 
" style="stroke: #000000; stroke-width: 0.8"/>
      </defs>
      <g>
       <use xlink:href="#m9a112aa013" x="179.58875" y="356.78175" style="stroke: #000000; stroke-width: 0.8"/>
      </g>
     </g>
     <g id="text_1">
      <!-- Proposed -->
      <g transform="translate(151.96625 372.899875) scale(0.12 -0.12)">
       <defs>
        <path id="DejaVuSans-50" d="M 1259 4147 
L 1259 2394 
L 2053 2394 
Q 2494 2394 2734 2622 
Q 2975 2850 2975 3272 
Q 2975 3691 2734 3919 
Q 2494 4147 2053 4147 
L 1259 4147 
z
M 628 4666 
L 2053 4666 
Q 2838 4666 3239 4311 
Q 3641 3956 3641 3272 
Q 3641 2581 3239 2228 
Q 2838 1875 2053 1875 
L 1259 1875 
L 1259 0 
L 628 0 
L 628 4666 
z
" transform="scale(0.015625)"/>
        <path id="DejaVuSans-72" d="M 2631 2963 
Q 2534 3019 2420 3045 
Q 2306 3072 2169 3072 
Q 1681 3072 1420 2755 
Q 1159 2438 1159 1844 
L 1159 0 
L 581 0 
L 581 3500 
L 1159 3500 
L 1159 2956 
Q 1341 3275 1631 3429 
Q 1922 3584 2338 3584 
Q 2397 3584 2469 3576 
Q 2541 3569 2628 3553 
L 2631 2963 
z
" transform="scale(0.015625)"/>
        <path id="DejaVuSans-6f" d="M 1959 3097 
Q 1497 3097 1228 2736 
Q 959 2375 959 1747 
Q 959 1119 1226 758 
Q 1494 397 1959 397 
Q 2419 397 2687 759 
Q 2956 1122 2956 1747 
Q 2956 2369 2687 2733 
Q 2419 3097 1959 3097 
z
M 1959 3584 
Q 2709 3584 3137 3096 
Q 3566 2609 3566 1747 
Q 3566 888 3137 398 
Q 2709 -91 1959 -91 
Q 1206 -91 779 398 
Q 353 888 353 1747 
Q 353 2609 779 3096 
Q 1206 3584 1959 3584 
z
" transform="scale(0.015625)"/>
        <path id="DejaVuSans-70" d="M 1159 525 
L 1159 -1331 
L 581 -1331 
L 581 3500 
L 1159 3500 
L 1159 2969 
Q 1341 3281 1617 3432 
Q 1894 3584 2278 3584 
Q 2916 3584 3314 3078 
Q 3713 2572 3713 1747 
Q 3713 922 3314 415 
Q 2916 -91 2278 -91 
Q 1894 -91 1617 61 
Q 1341 213 1159 525 
z
M 3116 1747 
Q 3116 2381 2855 2742 
Q 2594 3103 2138 3103 
Q 1681 3103 1420 2742 
Q 1159 2381 1159 1747 
Q 1159 1113 1420 752 
Q 1681 391 2138 391 
Q 2594 391 2855 752 
Q 3116 1113 3116 1747 
z
" transform="scale(0.015625)"/>
        <path id="DejaVuSans-73" d="M 2834 3397 
L 2834 2853 
Q 2591 2978 2328 3040 
Q 2066 3103 1784 3103 
Q 1356 3103 1142 2972 
Q 928 2841 928 2578 
Q 928 2378 1081 2264 
Q 1234 2150 1697 2047 
L 1894 2003 
Q 2506 1872 2764 1633 
Q 3022 1394 3022 966 
Q 3022 478 2636 193 
Q 2250 -91 1575 -91 
Q 1294 -91 989 -36 
Q 684 19 347 128 
L 347 722 
Q 666 556 975 473 
Q 1284 391 1588 391 
Q 1994 391 2212 530 
Q 2431 669 2431 922 
Q 2431 1156 2273 1281 
Q 2116 1406 1581 1522 
L 1381 1569 
Q 847 1681 609 1914 
Q 372 2147 372 2553 
Q 372 3047 722 3315 
Q 1072 3584 1716 3584 
Q 2034 3584 2315 3537 
Q 2597 3491 2834 3397 
z
" transform="scale(0.015625)"/>
        <path id="DejaVuSans-65" d="M 3597 1894 
L 3597 1613 
L 953 1613 
Q 991 1019 1311 708 
Q 1631 397 2203 397 
Q 2534 397 2845 478 
Q 3156 559 3463 722 
L 3463 178 
Q 3153 47 2828 -22 
Q 2503 -91 2169 -91 
Q 1331 -91 842 396 
Q 353 884 353 1716 
Q 353 2575 817 3079 
Q 1281 3584 2069 3584 
Q 2775 3584 3186 3129 
Q 3597 2675 3597 1894 
z
M 3022 2063 
Q 3016 2534 2758 2815 
Q 2500 3097 2075 3097 
Q 1594 3097 1305 2825 
Q 1016 2553 972 2059 
L 3022 2063 
z
" transform="scale(0.015625)"/>
        <path id="DejaVuSans-64" d="M 2906 2969 
L 2906 4863 
L 3481 4863 
L 3481 0 
L 2906 0 
L 2906 525 
Q 2725 213 2448 61 
Q 2172 -91 1784 -91 
Q 1150 -91 751 415 
Q 353 922 353 1747 
Q 353 2572 751 3078 
Q 1150 3584 1784 3584 
Q 2172 3584 2448 3432 
Q 2725 3281 2906 2969 
z
M 947 1747 
Q 947 1113 1208 752 
Q 1469 391 1925 391 
Q 2381 391 2643 752 
Q 2906 1113 2906 1747 
Q 2906 2381 2643 2742 
Q 2381 3103 1925 3103 
Q 1469 3103 1208 2742 
Q 947 2381 947 1747 
z
" transform="scale(0.015625)"/>
       </defs>
       <use xlink:href="#DejaVuSans-50"/>
       <use xlink:href="#DejaVuSans-72" transform="translate(58.552734 0)"/>
       <use xlink:href="#DejaVuSans-6f" transform="translate(97.416016 0)"/>
       <use xlink:href="#DejaVuSans-70" transform="translate(158.597656 0)"/>
       <use xlink:href="#DejaVuSans-6f" transform="translate(222.074219 0)"/>
       <use xlink:href="#DejaVuSans-73" transform="translate(283.255859 0)"/>
       <use xlink:href="#DejaVuSans-65" transform="translate(335.355469 0)"/>
       <use xlink:href="#DejaVuSans-64" transform="translate(396.878906 0)"/>
      </g>
     </g>
    </g>
    <g id="xtick_2">
     <g id="line2d_2">
      <g>
       <use xlink:href="#m9a112aa013" x="402.78875" y="356.78175" style="stroke: #000000; stroke-width: 0.8"/>
      </g>
     </g>
     <g id="text_2">
      <!-- Controller -->
      <g transform="translate(373.278125 372.899875) scale(0.12 -0.12)">
       <defs>
        <path id="DejaVuSans-43" d="M 4122 4306 
L 4122 3641 
Q 3803 3938 3442 4084 
Q 3081 4231 2675 4231 
Q 1875 4231 1450 3742 
Q 1025 3253 1025 2328 
Q 1025 1406 1450 917 
Q 1875 428 2675 428 
Q 3081 428 3442 575 
Q 3803 722 4122 1019 
L 4122 359 
Q 3791 134 3420 21 
Q 3050 -91 2638 -91 
Q 1578 -91 968 557 
Q 359 1206 359 2328 
Q 359 3453 968 4101 
Q 1578 4750 2638 4750 
Q 3056 4750 3426 4639 
Q 3797 4528 4122 4306 
z
" transform="scale(0.015625)"/>
        <path id="DejaVuSans-6e" d="M 3513 2113 
L 3513 0 
L 2938 0 
L 2938 2094 
Q 2938 2591 2744 2837 
Q 2550 3084 2163 3084 
Q 1697 3084 1428 2787 
Q 1159 2491 1159 1978 
L 1159 0 
L 581 0 
L 581 3500 
L 1159 3500 
L 1159 2956 
Q 1366 3272 1645 3428 
Q 1925 3584 2291 3584 
Q 2894 3584 3203 3211 
Q 3513 2838 3513 2113 
z
" transform="scale(0.015625)"/>
        <path id="DejaVuSans-74" d="M 1172 4494 
L 1172 3500 
L 2356 3500 
L 2356 3053 
L 1172 3053 
L 1172 1153 
Q 1172 725 1289 603 
Q 1406 481 1766 481 
L 2356 481 
L 2356 0 
L 1766 0 
Q 1100 0 847 248 
Q 594 497 594 1153 
L 594 3053 
L 172 3053 
L 172 3500 
L 594 3500 
L 594 4494 
L 1172 4494 
z
" transform="scale(0.015625)"/>
        <path id="DejaVuSans-6c" d="M 603 4863 
L 1178 4863 
L 1178 0 
L 603 0 
L 603 4863 
z
" transform="scale(0.015625)"/>
       </defs>
       <use xlink:href="#DejaVuSans-43"/>
       <use xlink:href="#DejaVuSans-6f" transform="translate(69.824219 0)"/>
       <use xlink:href="#DejaVuSans-6e" transform="translate(131.005859 0)"/>
       <use xlink:href="#DejaVuSans-74" transform="translate(194.384766 0)"/>
       <use xlink:href="#DejaVuSans-72" transform="translate(233.59375 0)"/>
       <use xlink:href="#DejaVuSans-6f" transform="translate(272.457031 0)"/>
       <use xlink:href="#DejaVuSans-6c" transform="translate(333.638672 0)"/>
       <use xlink:href="#DejaVuSans-6c" transform="translate(361.421875 0)"/>
       <use xlink:href="#DejaVuSans-65" transform="translate(389.205078 0)"/>
       <use xlink:href="#DejaVuSans-72" transform="translate(450.728516 0)"/>
      </g>
     </g>
    </g>
    <g id="text_3">
     <!-- Condition -->
     <g transform="translate(262.556562 388.513625) scale(0.12 -0.12)">
      <defs>
       <path id="DejaVuSans-69" d="M 603 3500 
L 1178 3500 
L 1178 0 
L 603 0 
L 603 3500 
z
M 603 4863 
L 1178 4863 
L 1178 4134 
L 603 4134 
L 603 4863 
z
" transform="scale(0.015625)"/>
      </defs>
      <use xlink:href="#DejaVuSans-43"/>
      <use xlink:href="#DejaVuSans-6f" transform="translate(69.824219 0)"/>
      <use xlink:href="#DejaVuSans-6e" transform="translate(131.005859 0)"/>
      <use xlink:href="#DejaVuSans-64" transform="translate(194.384766 0)"/>
      <use xlink:href="#DejaVuSans-69" transform="translate(257.861328 0)"/>
      <use xlink:href="#DejaVuSans-74" transform="translate(285.644531 0)"/>
      <use xlink:href="#DejaVuSans-69" transform="translate(324.853516 0)"/>
      <use xlink:href="#DejaVuSans-6f" transform="translate(352.636719 0)"/>
      <use xlink:href="#DejaVuSans-6e" transform="translate(413.818359 0)"/>
     </g>
    </g>
   </g>
   <g id="matplotlib.axis_2">
    <g id="ytick_1">
     <g id="line2d_3">
      <defs>
       <path id="mdd726d1efb" d="M 0 0 
L -3.5 0 
" style="stroke: #000000; stroke-width: 0.8"/>
      </defs>
      <g>
       <use xlink:href="#mdd726d1efb" x="67.98875" y="341.672015" style="stroke: #000000; stroke-width: 0.8"/>
      </g>
     </g>
     <g id="text_4">
      <!-- 0 -->
      <g transform="translate(53.35375 346.231077) scale(0.12 -0.12)">
       <defs>
        <path id="DejaVuSans-30" d="M 2034 4250 
Q 1547 4250 1301 3770 
Q 1056 3291 1056 2328 
Q 1056 1369 1301 889 
Q 1547 409 2034 409 
Q 2525 409 2770 889 
Q 3016 1369 3016 2328 
Q 3016 3291 2770 3770 
Q 2525 4250 2034 4250 
z
M 2034 4750 
Q 2819 4750 3233 4129 
Q 3647 3509 3647 2328 
Q 3647 1150 3233 529 
Q 2819 -91 2034 -91 
Q 1250 -91 836 529 
Q 422 1150 422 2328 
Q 422 3509 836 4129 
Q 1250 4750 2034 4750 
z
" transform="scale(0.015625)"/>
       </defs>
       <use xlink:href="#DejaVuSans-30"/>
      </g>
     </g>
    </g>
    <g id="ytick_2">
     <g id="line2d_4">
      <g>
       <use xlink:href="#mdd726d1efb" x="67.98875" y="292.32795" style="stroke: #000000; stroke-width: 0.8"/>
      </g>
     </g>
     <g id="text_5">
      <!-- 10000 -->
      <g transform="translate(22.81375 296.887012) scale(0.12 -0.12)">
       <defs>
        <path id="DejaVuSans-31" d="M 794 531 
L 1825 531 
L 1825 4091 
L 703 3866 
L 703 4441 
L 1819 4666 
L 2450 4666 
L 2450 531 
L 3481 531 
L 3481 0 
L 794 0 
L 794 531 
z
" transform="scale(0.015625)"/>
       </defs>
       <use xlink:href="#DejaVuSans-31"/>
       <use xlink:href="#DejaVuSans-30" transform="translate(63.623047 0)"/>
       <use xlink:href="#DejaVuSans-30" transform="translate(127.246094 0)"/>
       <use xlink:href="#DejaVuSans-30" transform="translate(190.869141 0)"/>
       <use xlink:href="#DejaVuSans-30" transform="translate(254.492188 0)"/>
      </g>
     </g>
    </g>
    <g id="ytick_3">
     <g id="line2d_5">
      <g>
       <use xlink:href="#mdd726d1efb" x="67.98875" y="242.983885" style="stroke: #000000; stroke-width: 0.8"/>
      </g>
     </g>
     <g id="text_6">
      <!-- 20000 -->
      <g transform="translate(22.81375 247.542947) scale(0.12 -0.12)">
       <defs>
        <path id="DejaVuSans-32" d="M 1228 531 
L 3431 531 
L 3431 0 
L 469 0 
L 469 531 
Q 828 903 1448 1529 
Q 2069 2156 2228 2338 
Q 2531 2678 2651 2914 
Q 2772 3150 2772 3378 
Q 2772 3750 2511 3984 
Q 2250 4219 1831 4219 
Q 1534 4219 1204 4116 
Q 875 4013 500 3803 
L 500 4441 
Q 881 4594 1212 4672 
Q 1544 4750 1819 4750 
Q 2544 4750 2975 4387 
Q 3406 4025 3406 3419 
Q 3406 3131 3298 2873 
Q 3191 2616 2906 2266 
Q 2828 2175 2409 1742 
Q 1991 1309 1228 531 
z
" transform="scale(0.015625)"/>
       </defs>
       <use xlink:href="#DejaVuSans-32"/>
       <use xlink:href="#DejaVuSans-30" transform="translate(63.623047 0)"/>
       <use xlink:href="#DejaVuSans-30" transform="translate(127.246094 0)"/>
       <use xlink:href="#DejaVuSans-30" transform="translate(190.869141 0)"/>
       <use xlink:href="#DejaVuSans-30" transform="translate(254.492188 0)"/>
      </g>
     </g>
    </g>
    <g id="ytick_4">
     <g id="line2d_6">
      <g>
       <use xlink:href="#mdd726d1efb" x="67.98875" y="193.63982" style="stroke: #000000; stroke-width: 0.8"/>
      </g>
     </g>
     <g id="text_7">
      <!-- 30000 -->
      <g transform="translate(22.81375 198.198882) scale(0.12 -0.12)">
       <defs>
        <path id="DejaVuSans-33" d="M 2597 2516 
Q 3050 2419 3304 2112 
Q 3559 1806 3559 1356 
Q 3559 666 3084 287 
Q 2609 -91 1734 -91 
Q 1441 -91 1130 -33 
Q 819 25 488 141 
L 488 750 
Q 750 597 1062 519 
Q 1375 441 1716 441 
Q 2309 441 2620 675 
Q 2931 909 2931 1356 
Q 2931 1769 2642 2001 
Q 2353 2234 1838 2234 
L 1294 2234 
L 1294 2753 
L 1863 2753 
Q 2328 2753 2575 2939 
Q 2822 3125 2822 3475 
Q 2822 3834 2567 4026 
Q 2313 4219 1838 4219 
Q 1578 4219 1281 4162 
Q 984 4106 628 3988 
L 628 4550 
Q 988 4650 1302 4700 
Q 1616 4750 1894 4750 
Q 2613 4750 3031 4423 
Q 3450 4097 3450 3541 
Q 3450 3153 3228 2886 
Q 3006 2619 2597 2516 
z
" transform="scale(0.015625)"/>
       </defs>
       <use xlink:href="#DejaVuSans-33"/>
       <use xlink:href="#DejaVuSans-30" transform="translate(63.623047 0)"/>
       <use xlink:href="#DejaVuSans-30" transform="translate(127.246094 0)"/>
       <use xlink:href="#DejaVuSans-30" transform="translate(190.869141 0)"/>
       <use xlink:href="#DejaVuSans-30" transform="translate(254.492188 0)"/>
      </g>
     </g>
    </g>
    <g id="ytick_5">
     <g id="line2d_7">
      <g>
       <use xlink:href="#mdd726d1efb" x="67.98875" y="144.295755" style="stroke: #000000; stroke-width: 0.8"/>
      </g>
     </g>
     <g id="text_8">
      <!-- 40000 -->
      <g transform="translate(22.81375 148.854817) scale(0.12 -0.12)">
       <defs>
        <path id="DejaVuSans-34" d="M 2419 4116 
L 825 1625 
L 2419 1625 
L 2419 4116 
z
M 2253 4666 
L 3047 4666 
L 3047 1625 
L 3713 1625 
L 3713 1100 
L 3047 1100 
L 3047 0 
L 2419 0 
L 2419 1100 
L 313 1100 
L 313 1709 
L 2253 4666 
z
" transform="scale(0.015625)"/>
       </defs>
       <use xlink:href="#DejaVuSans-34"/>
       <use xlink:href="#DejaVuSans-30" transform="translate(63.623047 0)"/>
       <use xlink:href="#DejaVuSans-30" transform="translate(127.246094 0)"/>
       <use xlink:href="#DejaVuSans-30" transform="translate(190.869141 0)"/>
       <use xlink:href="#DejaVuSans-30" transform="translate(254.492188 0)"/>
      </g>
     </g>
    </g>
    <g id="ytick_6">
     <g id="line2d_8">
      <g>
       <use xlink:href="#mdd726d1efb" x="67.98875" y="94.95169" style="stroke: #000000; stroke-width: 0.8"/>
      </g>
     </g>
     <g id="text_9">
      <!-- 50000 -->
      <g transform="translate(22.81375 99.510752) scale(0.12 -0.12)">
       <defs>
        <path id="DejaVuSans-35" d="M 691 4666 
L 3169 4666 
L 3169 4134 
L 1269 4134 
L 1269 2991 
Q 1406 3038 1543 3061 
Q 1681 3084 1819 3084 
Q 2600 3084 3056 2656 
Q 3513 2228 3513 1497 
Q 3513 744 3044 326 
Q 2575 -91 1722 -91 
Q 1428 -91 1123 -41 
Q 819 9 494 109 
L 494 744 
Q 775 591 1075 516 
Q 1375 441 1709 441 
Q 2250 441 2565 725 
Q 2881 1009 2881 1497 
Q 2881 1984 2565 2268 
Q 2250 2553 1709 2553 
Q 1456 2553 1204 2497 
Q 953 2441 691 2322 
L 691 4666 
z
" transform="scale(0.015625)"/>
       </defs>
       <use xlink:href="#DejaVuSans-35"/>
       <use xlink:href="#DejaVuSans-30" transform="translate(63.623047 0)"/>
       <use xlink:href="#DejaVuSans-30" transform="translate(127.246094 0)"/>
       <use xlink:href="#DejaVuSans-30" transform="translate(190.869141 0)"/>
       <use xlink:href="#DejaVuSans-30" transform="translate(254.492188 0)"/>
      </g>
     </g>
    </g>
    <g id="ytick_7">
     <g id="line2d_9">
      <g>
       <use xlink:href="#mdd726d1efb" x="67.98875" y="45.607625" style="stroke: #000000; stroke-width: 0.8"/>
      </g>
     </g>
     <g id="text_10">
      <!-- 60000 -->
      <g transform="translate(22.81375 50.166688) scale(0.12 -0.12)">
       <defs>
        <path id="DejaVuSans-36" d="M 2113 2584 
Q 1688 2584 1439 2293 
Q 1191 2003 1191 1497 
Q 1191 994 1439 701 
Q 1688 409 2113 409 
Q 2538 409 2786 701 
Q 3034 994 3034 1497 
Q 3034 2003 2786 2293 
Q 2538 2584 2113 2584 
z
M 3366 4563 
L 3366 3988 
Q 3128 4100 2886 4159 
Q 2644 4219 2406 4219 
Q 1781 4219 1451 3797 
Q 1122 3375 1075 2522 
Q 1259 2794 1537 2939 
Q 1816 3084 2150 3084 
Q 2853 3084 3261 2657 
Q 3669 2231 3669 1497 
Q 3669 778 3244 343 
Q 2819 -91 2113 -91 
Q 1303 -91 875 529 
Q 447 1150 447 2328 
Q 447 3434 972 4092 
Q 1497 4750 2381 4750 
Q 2619 4750 2861 4703 
Q 3103 4656 3366 4563 
z
" transform="scale(0.015625)"/>
       </defs>
       <use xlink:href="#DejaVuSans-36"/>
       <use xlink:href="#DejaVuSans-30" transform="translate(63.623047 0)"/>
       <use xlink:href="#DejaVuSans-30" transform="translate(127.246094 0)"/>
       <use xlink:href="#DejaVuSans-30" transform="translate(190.869141 0)"/>
       <use xlink:href="#DejaVuSans-30" transform="translate(254.492188 0)"/>
      </g>
     </g>
    </g>
    <g id="text_11">
     <!-- Time (ms) -->
     <g transform="translate(16.318125 220.700812) rotate(-90) scale(0.12 -0.12)">
      <defs>
       <path id="DejaVuSans-54" d="M -19 4666 
L 3928 4666 
L 3928 4134 
L 2272 4134 
L 2272 0 
L 1638 0 
L 1638 4134 
L -19 4134 
L -19 4666 
z
" transform="scale(0.015625)"/>
       <path id="DejaVuSans-6d" d="M 3328 2828 
Q 3544 3216 3844 3400 
Q 4144 3584 4550 3584 
Q 5097 3584 5394 3201 
Q 5691 2819 5691 2113 
L 5691 0 
L 5113 0 
L 5113 2094 
Q 5113 2597 4934 2840 
Q 4756 3084 4391 3084 
Q 3944 3084 3684 2787 
Q 3425 2491 3425 1978 
L 3425 0 
L 2847 0 
L 2847 2094 
Q 2847 2600 2669 2842 
Q 2491 3084 2119 3084 
Q 1678 3084 1418 2786 
Q 1159 2488 1159 1978 
L 1159 0 
L 581 0 
L 581 3500 
L 1159 3500 
L 1159 2956 
Q 1356 3278 1631 3431 
Q 1906 3584 2284 3584 
Q 2666 3584 2933 3390 
Q 3200 3197 3328 2828 
z
" transform="scale(0.015625)"/>
       <path id="DejaVuSans-20" transform="scale(0.015625)"/>
       <path id="DejaVuSans-28" d="M 1984 4856 
Q 1566 4138 1362 3434 
Q 1159 2731 1159 2009 
Q 1159 1288 1364 580 
Q 1569 -128 1984 -844 
L 1484 -844 
Q 1016 -109 783 600 
Q 550 1309 550 2009 
Q 550 2706 781 3412 
Q 1013 4119 1484 4856 
L 1984 4856 
z
" transform="scale(0.015625)"/>
       <path id="DejaVuSans-29" d="M 513 4856 
L 1013 4856 
Q 1481 4119 1714 3412 
Q 1947 2706 1947 2009 
Q 1947 1309 1714 600 
Q 1481 -109 1013 -844 
L 513 -844 
Q 928 -128 1133 580 
Q 1338 1288 1338 2009 
Q 1338 2731 1133 3434 
Q 928 4138 513 4856 
z
" transform="scale(0.015625)"/>
      </defs>
      <use xlink:href="#DejaVuSans-54"/>
      <use xlink:href="#DejaVuSans-69" transform="translate(57.958984 0)"/>
      <use xlink:href="#DejaVuSans-6d" transform="translate(85.742188 0)"/>
      <use xlink:href="#DejaVuSans-65" transform="translate(183.154297 0)"/>
      <use xlink:href="#DejaVuSans-20" transform="translate(244.677734 0)"/>
      <use xlink:href="#DejaVuSans-28" transform="translate(276.464844 0)"/>
      <use xlink:href="#DejaVuSans-6d" transform="translate(315.478516 0)"/>
      <use xlink:href="#DejaVuSans-73" transform="translate(412.890625 0)"/>
      <use xlink:href="#DejaVuSans-29" transform="translate(464.990234 0)"/>
     </g>
    </g>
   </g>
   <g id="patch_3">
    <path d="M 90.30875 337.579945 
L 268.86875 337.579945 
L 268.86875 334.626062 
L 90.30875 334.626062 
L 90.30875 337.579945 
z
" clip-path="url(#p45c9382515)" style="fill: #4ac76f; stroke: #1f1f1f; stroke-linejoin: miter"/>
   </g>
   <g id="line2d_10">
    <path d="M 179.58875 337.579945 
L 179.58875 341.498059 
" clip-path="url(#p45c9382515)" style="fill: none; stroke: #1f1f1f"/>
   </g>
   <g id="line2d_11">
    <path d="M 179.58875 334.626062 
L 179.58875 330.262907 
" clip-path="url(#p45c9382515)" style="fill: none; stroke: #1f1f1f"/>
   </g>
   <g id="line2d_12">
    <path d="M 134.94875 341.498059 
L 224.22875 341.498059 
" clip-path="url(#p45c9382515)" style="fill: none; stroke: #1f1f1f; stroke-linecap: square"/>
   </g>
   <g id="line2d_13">
    <path d="M 134.94875 330.262907 
L 224.22875 330.262907 
" clip-path="url(#p45c9382515)" style="fill: none; stroke: #1f1f1f; stroke-linecap: square"/>
   </g>
   <g id="line2d_14">
    <defs>
     <path id="m7906123d5d" d="M 0 3 
C 0.795609 3 1.55874 2.683901 2.12132 2.12132 
C 2.683901 1.55874 3 0.795609 3 0 
C 3 -0.795609 2.683901 -1.55874 2.12132 -2.12132 
C 1.55874 -2.683901 0.795609 -3 0 -3 
C -0.795609 -3 -1.55874 -2.683901 -2.12132 -2.12132 
C -2.683901 -1.55874 -3 -0.795609 -3 0 
C -3 0.795609 -2.683901 1.55874 -2.12132 2.12132 
C -1.55874 2.683901 -0.795609 3 0 3 
z
" style="stroke: #1f1f1f"/>
    </defs>
    <g clip-path="url(#p45c9382515)">
     <use xlink:href="#m7906123d5d" x="179.58875" y="302.572063" style="fill-opacity: 0; stroke: #1f1f1f"/>
     <use xlink:href="#m7906123d5d" x="179.58875" y="316.273782" style="fill-opacity: 0; stroke: #1f1f1f"/>
     <use xlink:href="#m7906123d5d" x="179.58875" y="325.042845" style="fill-opacity: 0; stroke: #1f1f1f"/>
     <use xlink:href="#m7906123d5d" x="179.58875" y="328.830835" style="fill-opacity: 0; stroke: #1f1f1f"/>
     <use xlink:href="#m7906123d5d" x="179.58875" y="329.539751" style="fill-opacity: 0; stroke: #1f1f1f"/>
     <use xlink:href="#m7906123d5d" x="179.58875" y="327.354182" style="fill-opacity: 0; stroke: #1f1f1f"/>
     <use xlink:href="#m7906123d5d" x="179.58875" y="327.354182" style="fill-opacity: 0; stroke: #1f1f1f"/>
     <use xlink:href="#m7906123d5d" x="179.58875" y="327.354182" style="fill-opacity: 0; stroke: #1f1f1f"/>
     <use xlink:href="#m7906123d5d" x="179.58875" y="304.121726" style="fill-opacity: 0; stroke: #1f1f1f"/>
     <use xlink:href="#m7906123d5d" x="179.58875" y="320.551151" style="fill-opacity: 0; stroke: #1f1f1f"/>
     <use xlink:href="#m7906123d5d" x="179.58875" y="322.541479" style="fill-opacity: 0; stroke: #1f1f1f"/>
     <use xlink:href="#m7906123d5d" x="179.58875" y="322.541479" style="fill-opacity: 0; stroke: #1f1f1f"/>
     <use xlink:href="#m7906123d5d" x="179.58875" y="248.761304" style="fill-opacity: 0; stroke: #1f1f1f"/>
     <use xlink:href="#m7906123d5d" x="179.58875" y="329.998989" style="fill-opacity: 0; stroke: #1f1f1f"/>
     <use xlink:href="#m7906123d5d" x="179.58875" y="318.53927" style="fill-opacity: 0; stroke: #1f1f1f"/>
     <use xlink:href="#m7906123d5d" x="179.58875" y="329.180238" style="fill-opacity: 0; stroke: #1f1f1f"/>
     <use xlink:href="#m7906123d5d" x="179.58875" y="328.649889" style="fill-opacity: 0; stroke: #1f1f1f"/>
     <use xlink:href="#m7906123d5d" x="179.58875" y="322.385994" style="fill-opacity: 0; stroke: #1f1f1f"/>
     <use xlink:href="#m7906123d5d" x="179.58875" y="327.665896" style="fill-opacity: 0; stroke: #1f1f1f"/>
     <use xlink:href="#m7906123d5d" x="179.58875" y="329.639608" style="fill-opacity: 0; stroke: #1f1f1f"/>
     <use xlink:href="#m7906123d5d" x="179.58875" y="326.426881" style="fill-opacity: 0; stroke: #1f1f1f"/>
     <use xlink:href="#m7906123d5d" x="179.58875" y="316.493566" style="fill-opacity: 0; stroke: #1f1f1f"/>
     <use xlink:href="#m7906123d5d" x="179.58875" y="328.099254" style="fill-opacity: 0; stroke: #1f1f1f"/>
     <use xlink:href="#m7906123d5d" x="179.58875" y="329.232576" style="fill-opacity: 0; stroke: #1f1f1f"/>
     <use xlink:href="#m7906123d5d" x="179.58875" y="278.140697" style="fill-opacity: 0; stroke: #1f1f1f"/>
     <use xlink:href="#m7906123d5d" x="179.58875" y="278.140697" style="fill-opacity: 0; stroke: #1f1f1f"/>
     <use xlink:href="#m7906123d5d" x="179.58875" y="329.946387" style="fill-opacity: 0; stroke: #1f1f1f"/>
     <use xlink:href="#m7906123d5d" x="179.58875" y="249.730352" style="fill-opacity: 0; stroke: #1f1f1f"/>
     <use xlink:href="#m7906123d5d" x="179.58875" y="228.631206" style="fill-opacity: 0; stroke: #1f1f1f"/>
     <use xlink:href="#m7906123d5d" x="179.58875" y="328.870325" style="fill-opacity: 0; stroke: #1f1f1f"/>
     <use xlink:href="#m7906123d5d" x="179.58875" y="327.334196" style="fill-opacity: 0; stroke: #1f1f1f"/>
     <use xlink:href="#m7906123d5d" x="179.58875" y="330.030283" style="fill-opacity: 0; stroke: #1f1f1f"/>
     <use xlink:href="#m7906123d5d" x="179.58875" y="330.030283" style="fill-opacity: 0; stroke: #1f1f1f"/>
     <use xlink:href="#m7906123d5d" x="179.58875" y="330.030283" style="fill-opacity: 0; stroke: #1f1f1f"/>
     <use xlink:href="#m7906123d5d" x="179.58875" y="328.196021" style="fill-opacity: 0; stroke: #1f1f1f"/>
     <use xlink:href="#m7906123d5d" x="179.58875" y="329.413731" style="fill-opacity: 0; stroke: #1f1f1f"/>
     <use xlink:href="#m7906123d5d" x="179.58875" y="329.479538" style="fill-opacity: 0; stroke: #1f1f1f"/>
     <use xlink:href="#m7906123d5d" x="179.58875" y="324.907745" style="fill-opacity: 0; stroke: #1f1f1f"/>
     <use xlink:href="#m7906123d5d" x="179.58875" y="322.44613" style="fill-opacity: 0; stroke: #1f1f1f"/>
     <use xlink:href="#m7906123d5d" x="179.58875" y="326.699921" style="fill-opacity: 0; stroke: #1f1f1f"/>
     <use xlink:href="#m7906123d5d" x="179.58875" y="328.824371" style="fill-opacity: 0; stroke: #1f1f1f"/>
     <use xlink:href="#m7906123d5d" x="179.58875" y="329.84247" style="fill-opacity: 0; stroke: #1f1f1f"/>
     <use xlink:href="#m7906123d5d" x="179.58875" y="326.526945" style="fill-opacity: 0; stroke: #1f1f1f"/>
     <use xlink:href="#m7906123d5d" x="179.58875" y="327.096899" style="fill-opacity: 0; stroke: #1f1f1f"/>
     <use xlink:href="#m7906123d5d" x="179.58875" y="327.459561" style="fill-opacity: 0; stroke: #1f1f1f"/>
     <use xlink:href="#m7906123d5d" x="179.58875" y="326.155963" style="fill-opacity: 0; stroke: #1f1f1f"/>
     <use xlink:href="#m7906123d5d" x="179.58875" y="327.820499" style="fill-opacity: 0; stroke: #1f1f1f"/>
     <use xlink:href="#m7906123d5d" x="179.58875" y="323.459131" style="fill-opacity: 0; stroke: #1f1f1f"/>
     <use xlink:href="#m7906123d5d" x="179.58875" y="326.176908" style="fill-opacity: 0; stroke: #1f1f1f"/>
     <use xlink:href="#m7906123d5d" x="179.58875" y="324.713213" style="fill-opacity: 0; stroke: #1f1f1f"/>
     <use xlink:href="#m7906123d5d" x="179.58875" y="320.547095" style="fill-opacity: 0; stroke: #1f1f1f"/>
     <use xlink:href="#m7906123d5d" x="179.58875" y="326.453617" style="fill-opacity: 0; stroke: #1f1f1f"/>
     <use xlink:href="#m7906123d5d" x="179.58875" y="329.652466" style="fill-opacity: 0; stroke: #1f1f1f"/>
     <use xlink:href="#m7906123d5d" x="179.58875" y="321.588845" style="fill-opacity: 0; stroke: #1f1f1f"/>
     <use xlink:href="#m7906123d5d" x="179.58875" y="328.600018" style="fill-opacity: 0; stroke: #1f1f1f"/>
     <use xlink:href="#m7906123d5d" x="179.58875" y="326.446353" style="fill-opacity: 0; stroke: #1f1f1f"/>
     <use xlink:href="#m7906123d5d" x="179.58875" y="326.056306" style="fill-opacity: 0; stroke: #1f1f1f"/>
     <use xlink:href="#m7906123d5d" x="179.58875" y="327.055714" style="fill-opacity: 0; stroke: #1f1f1f"/>
     <use xlink:href="#m7906123d5d" x="179.58875" y="328.359684" style="fill-opacity: 0; stroke: #1f1f1f"/>
     <use xlink:href="#m7906123d5d" x="179.58875" y="327.574178" style="fill-opacity: 0; stroke: #1f1f1f"/>
     <use xlink:href="#m7906123d5d" x="179.58875" y="327.572068" style="fill-opacity: 0; stroke: #1f1f1f"/>
     <use xlink:href="#m7906123d5d" x="179.58875" y="325.744732" style="fill-opacity: 0; stroke: #1f1f1f"/>
     <use xlink:href="#m7906123d5d" x="179.58875" y="329.299252" style="fill-opacity: 0; stroke: #1f1f1f"/>
     <use xlink:href="#m7906123d5d" x="179.58875" y="323.941262" style="fill-opacity: 0; stroke: #1f1f1f"/>
     <use xlink:href="#m7906123d5d" x="179.58875" y="330.106988" style="fill-opacity: 0; stroke: #1f1f1f"/>
     <use xlink:href="#m7906123d5d" x="179.58875" y="327.352953" style="fill-opacity: 0; stroke: #1f1f1f"/>
     <use xlink:href="#m7906123d5d" x="179.58875" y="329.636389" style="fill-opacity: 0; stroke: #1f1f1f"/>
     <use xlink:href="#m7906123d5d" x="179.58875" y="324.310191" style="fill-opacity: 0; stroke: #1f1f1f"/>
     <use xlink:href="#m7906123d5d" x="179.58875" y="287.793459" style="fill-opacity: 0; stroke: #1f1f1f"/>
     <use xlink:href="#m7906123d5d" x="179.58875" y="328.51977" style="fill-opacity: 0; stroke: #1f1f1f"/>
     <use xlink:href="#m7906123d5d" x="179.58875" y="325.271608" style="fill-opacity: 0; stroke: #1f1f1f"/>
     <use xlink:href="#m7906123d5d" x="179.58875" y="301.65041" style="fill-opacity: 0; stroke: #1f1f1f"/>
     <use xlink:href="#m7906123d5d" x="179.58875" y="301.65041" style="fill-opacity: 0; stroke: #1f1f1f"/>
     <use xlink:href="#m7906123d5d" x="179.58875" y="301.65041" style="fill-opacity: 0; stroke: #1f1f1f"/>
     <use xlink:href="#m7906123d5d" x="179.58875" y="301.65041" style="fill-opacity: 0; stroke: #1f1f1f"/>
     <use xlink:href="#m7906123d5d" x="179.58875" y="327.294687" style="fill-opacity: 0; stroke: #1f1f1f"/>
     <use xlink:href="#m7906123d5d" x="179.58875" y="322.58536" style="fill-opacity: 0; stroke: #1f1f1f"/>
     <use xlink:href="#m7906123d5d" x="179.58875" y="329.149873" style="fill-opacity: 0; stroke: #1f1f1f"/>
     <use xlink:href="#m7906123d5d" x="179.58875" y="329.149873" style="fill-opacity: 0; stroke: #1f1f1f"/>
     <use xlink:href="#m7906123d5d" x="179.58875" y="324.221506" style="fill-opacity: 0; stroke: #1f1f1f"/>
     <use xlink:href="#m7906123d5d" x="179.58875" y="326.759053" style="fill-opacity: 0; stroke: #1f1f1f"/>
     <use xlink:href="#m7906123d5d" x="179.58875" y="298.362304" style="fill-opacity: 0; stroke: #1f1f1f"/>
     <use xlink:href="#m7906123d5d" x="179.58875" y="298.362304" style="fill-opacity: 0; stroke: #1f1f1f"/>
     <use xlink:href="#m7906123d5d" x="179.58875" y="320.313812" style="fill-opacity: 0; stroke: #1f1f1f"/>
     <use xlink:href="#m7906123d5d" x="179.58875" y="327.157846" style="fill-opacity: 0; stroke: #1f1f1f"/>
     <use xlink:href="#m7906123d5d" x="179.58875" y="323.207411" style="fill-opacity: 0; stroke: #1f1f1f"/>
     <use xlink:href="#m7906123d5d" x="179.58875" y="328.406063" style="fill-opacity: 0; stroke: #1f1f1f"/>
     <use xlink:href="#m7906123d5d" x="179.58875" y="328.406063" style="fill-opacity: 0; stroke: #1f1f1f"/>
     <use xlink:href="#m7906123d5d" x="179.58875" y="329.203473" style="fill-opacity: 0; stroke: #1f1f1f"/>
     <use xlink:href="#m7906123d5d" x="179.58875" y="326.626876" style="fill-opacity: 0; stroke: #1f1f1f"/>
     <use xlink:href="#m7906123d5d" x="179.58875" y="329.319326" style="fill-opacity: 0; stroke: #1f1f1f"/>
     <use xlink:href="#m7906123d5d" x="179.58875" y="315.671556" style="fill-opacity: 0; stroke: #1f1f1f"/>
     <use xlink:href="#m7906123d5d" x="179.58875" y="326.739953" style="fill-opacity: 0; stroke: #1f1f1f"/>
     <use xlink:href="#m7906123d5d" x="179.58875" y="328.365512" style="fill-opacity: 0; stroke: #1f1f1f"/>
    </g>
   </g>
   <g id="patch_4">
    <path d="M 313.50875 337.346296 
L 492.06875 337.346296 
L 492.06875 332.869412 
L 313.50875 332.869412 
L 313.50875 337.346296 
z
" clip-path="url(#p45c9382515)" style="fill: #207cdf; stroke: #1f1f1f; stroke-linejoin: miter"/>
   </g>
   <g id="line2d_15">
    <path d="M 402.78875 337.346296 
L 402.78875 341.66175 
" clip-path="url(#p45c9382515)" style="fill: none; stroke: #1f1f1f"/>
   </g>
   <g id="line2d_16">
    <path d="M 402.78875 332.869412 
L 402.78875 326.176197 
" clip-path="url(#p45c9382515)" style="fill: none; stroke: #1f1f1f"/>
   </g>
   <g id="line2d_17">
    <path d="M 358.14875 341.66175 
L 447.42875 341.66175 
" clip-path="url(#p45c9382515)" style="fill: none; stroke: #1f1f1f; stroke-linecap: square"/>
   </g>
   <g id="line2d_18">
    <path d="M 358.14875 326.176197 
L 447.42875 326.176197 
" clip-path="url(#p45c9382515)" style="fill: none; stroke: #1f1f1f; stroke-linecap: square"/>
   </g>
   <g id="line2d_19">
    <g clip-path="url(#p45c9382515)">
     <use xlink:href="#m7906123d5d" x="402.78875" y="315.681263" style="fill-opacity: 0; stroke: #1f1f1f"/>
     <use xlink:href="#m7906123d5d" x="402.78875" y="317.150346" style="fill-opacity: 0; stroke: #1f1f1f"/>
     <use xlink:href="#m7906123d5d" x="402.78875" y="318.937639" style="fill-opacity: 0; stroke: #1f1f1f"/>
     <use xlink:href="#m7906123d5d" x="402.78875" y="325.191238" style="fill-opacity: 0; stroke: #1f1f1f"/>
     <use xlink:href="#m7906123d5d" x="402.78875" y="322.971481" style="fill-opacity: 0; stroke: #1f1f1f"/>
     <use xlink:href="#m7906123d5d" x="402.78875" y="323.23588" style="fill-opacity: 0; stroke: #1f1f1f"/>
     <use xlink:href="#m7906123d5d" x="402.78875" y="320.947012" style="fill-opacity: 0; stroke: #1f1f1f"/>
     <use xlink:href="#m7906123d5d" x="402.78875" y="322.981236" style="fill-opacity: 0; stroke: #1f1f1f"/>
     <use xlink:href="#m7906123d5d" x="402.78875" y="324.298534" style="fill-opacity: 0; stroke: #1f1f1f"/>
     <use xlink:href="#m7906123d5d" x="402.78875" y="325.631624" style="fill-opacity: 0; stroke: #1f1f1f"/>
     <use xlink:href="#m7906123d5d" x="402.78875" y="323.58576" style="fill-opacity: 0; stroke: #1f1f1f"/>
     <use xlink:href="#m7906123d5d" x="402.78875" y="305.370352" style="fill-opacity: 0; stroke: #1f1f1f"/>
     <use xlink:href="#m7906123d5d" x="402.78875" y="305.370352" style="fill-opacity: 0; stroke: #1f1f1f"/>
     <use xlink:href="#m7906123d5d" x="402.78875" y="323.002407" style="fill-opacity: 0; stroke: #1f1f1f"/>
     <use xlink:href="#m7906123d5d" x="402.78875" y="318.99126" style="fill-opacity: 0; stroke: #1f1f1f"/>
     <use xlink:href="#m7906123d5d" x="402.78875" y="324.114976" style="fill-opacity: 0; stroke: #1f1f1f"/>
     <use xlink:href="#m7906123d5d" x="402.78875" y="324.081595" style="fill-opacity: 0; stroke: #1f1f1f"/>
     <use xlink:href="#m7906123d5d" x="402.78875" y="293.323305" style="fill-opacity: 0; stroke: #1f1f1f"/>
     <use xlink:href="#m7906123d5d" x="402.78875" y="321.058722" style="fill-opacity: 0; stroke: #1f1f1f"/>
     <use xlink:href="#m7906123d5d" x="402.78875" y="324.061295" style="fill-opacity: 0; stroke: #1f1f1f"/>
     <use xlink:href="#m7906123d5d" x="402.78875" y="324.061295" style="fill-opacity: 0; stroke: #1f1f1f"/>
     <use xlink:href="#m7906123d5d" x="402.78875" y="321.011411" style="fill-opacity: 0; stroke: #1f1f1f"/>
     <use xlink:href="#m7906123d5d" x="402.78875" y="325.182392" style="fill-opacity: 0; stroke: #1f1f1f"/>
     <use xlink:href="#m7906123d5d" x="402.78875" y="299.979321" style="fill-opacity: 0; stroke: #1f1f1f"/>
     <use xlink:href="#m7906123d5d" x="402.78875" y="314.510984" style="fill-opacity: 0; stroke: #1f1f1f"/>
     <use xlink:href="#m7906123d5d" x="402.78875" y="313.341288" style="fill-opacity: 0; stroke: #1f1f1f"/>
     <use xlink:href="#m7906123d5d" x="402.78875" y="320.933952" style="fill-opacity: 0; stroke: #1f1f1f"/>
     <use xlink:href="#m7906123d5d" x="402.78875" y="326.012383" style="fill-opacity: 0; stroke: #1f1f1f"/>
     <use xlink:href="#m7906123d5d" x="402.78875" y="324.769618" style="fill-opacity: 0; stroke: #1f1f1f"/>
     <use xlink:href="#m7906123d5d" x="402.78875" y="318.354589" style="fill-opacity: 0; stroke: #1f1f1f"/>
     <use xlink:href="#m7906123d5d" x="402.78875" y="318.923701" style="fill-opacity: 0; stroke: #1f1f1f"/>
     <use xlink:href="#m7906123d5d" x="402.78875" y="323.585924" style="fill-opacity: 0; stroke: #1f1f1f"/>
     <use xlink:href="#m7906123d5d" x="402.78875" y="317.653052" style="fill-opacity: 0; stroke: #1f1f1f"/>
     <use xlink:href="#m7906123d5d" x="402.78875" y="324.055928" style="fill-opacity: 0; stroke: #1f1f1f"/>
     <use xlink:href="#m7906123d5d" x="402.78875" y="325.094602" style="fill-opacity: 0; stroke: #1f1f1f"/>
     <use xlink:href="#m7906123d5d" x="402.78875" y="297.01567" style="fill-opacity: 0; stroke: #1f1f1f"/>
     <use xlink:href="#m7906123d5d" x="402.78875" y="311.956521" style="fill-opacity: 0; stroke: #1f1f1f"/>
     <use xlink:href="#m7906123d5d" x="402.78875" y="308.436793" style="fill-opacity: 0; stroke: #1f1f1f"/>
     <use xlink:href="#m7906123d5d" x="402.78875" y="281.582549" style="fill-opacity: 0; stroke: #1f1f1f"/>
     <use xlink:href="#m7906123d5d" x="402.78875" y="280.303286" style="fill-opacity: 0; stroke: #1f1f1f"/>
     <use xlink:href="#m7906123d5d" x="402.78875" y="39.26175" style="fill-opacity: 0; stroke: #1f1f1f"/>
     <use xlink:href="#m7906123d5d" x="402.78875" y="324.42021" style="fill-opacity: 0; stroke: #1f1f1f"/>
     <use xlink:href="#m7906123d5d" x="402.78875" y="180.380079" style="fill-opacity: 0; stroke: #1f1f1f"/>
     <use xlink:href="#m7906123d5d" x="402.78875" y="313.953867" style="fill-opacity: 0; stroke: #1f1f1f"/>
     <use xlink:href="#m7906123d5d" x="402.78875" y="314.909924" style="fill-opacity: 0; stroke: #1f1f1f"/>
     <use xlink:href="#m7906123d5d" x="402.78875" y="312.480355" style="fill-opacity: 0; stroke: #1f1f1f"/>
     <use xlink:href="#m7906123d5d" x="402.78875" y="317.417012" style="fill-opacity: 0; stroke: #1f1f1f"/>
     <use xlink:href="#m7906123d5d" x="402.78875" y="311.429917" style="fill-opacity: 0; stroke: #1f1f1f"/>
     <use xlink:href="#m7906123d5d" x="402.78875" y="320.560408" style="fill-opacity: 0; stroke: #1f1f1f"/>
     <use xlink:href="#m7906123d5d" x="402.78875" y="307.923177" style="fill-opacity: 0; stroke: #1f1f1f"/>
     <use xlink:href="#m7906123d5d" x="402.78875" y="302.646887" style="fill-opacity: 0; stroke: #1f1f1f"/>
     <use xlink:href="#m7906123d5d" x="402.78875" y="312.809193" style="fill-opacity: 0; stroke: #1f1f1f"/>
     <use xlink:href="#m7906123d5d" x="402.78875" y="317.563727" style="fill-opacity: 0; stroke: #1f1f1f"/>
     <use xlink:href="#m7906123d5d" x="402.78875" y="325.699609" style="fill-opacity: 0; stroke: #1f1f1f"/>
     <use xlink:href="#m7906123d5d" x="402.78875" y="324.090862" style="fill-opacity: 0; stroke: #1f1f1f"/>
     <use xlink:href="#m7906123d5d" x="402.78875" y="311.515623" style="fill-opacity: 0; stroke: #1f1f1f"/>
     <use xlink:href="#m7906123d5d" x="402.78875" y="316.205467" style="fill-opacity: 0; stroke: #1f1f1f"/>
     <use xlink:href="#m7906123d5d" x="402.78875" y="325.698247" style="fill-opacity: 0; stroke: #1f1f1f"/>
     <use xlink:href="#m7906123d5d" x="402.78875" y="326.075364" style="fill-opacity: 0; stroke: #1f1f1f"/>
     <use xlink:href="#m7906123d5d" x="402.78875" y="304.170893" style="fill-opacity: 0; stroke: #1f1f1f"/>
     <use xlink:href="#m7906123d5d" x="402.78875" y="304.170893" style="fill-opacity: 0; stroke: #1f1f1f"/>
     <use xlink:href="#m7906123d5d" x="402.78875" y="325.245619" style="fill-opacity: 0; stroke: #1f1f1f"/>
     <use xlink:href="#m7906123d5d" x="402.78875" y="324.999419" style="fill-opacity: 0; stroke: #1f1f1f"/>
     <use xlink:href="#m7906123d5d" x="402.78875" y="313.974578" style="fill-opacity: 0; stroke: #1f1f1f"/>
     <use xlink:href="#m7906123d5d" x="402.78875" y="322.912909" style="fill-opacity: 0; stroke: #1f1f1f"/>
     <use xlink:href="#m7906123d5d" x="402.78875" y="323.673477" style="fill-opacity: 0; stroke: #1f1f1f"/>
     <use xlink:href="#m7906123d5d" x="402.78875" y="318.657734" style="fill-opacity: 0; stroke: #1f1f1f"/>
     <use xlink:href="#m7906123d5d" x="402.78875" y="323.802526" style="fill-opacity: 0; stroke: #1f1f1f"/>
     <use xlink:href="#m7906123d5d" x="402.78875" y="298.731696" style="fill-opacity: 0; stroke: #1f1f1f"/>
     <use xlink:href="#m7906123d5d" x="402.78875" y="324.045506" style="fill-opacity: 0; stroke: #1f1f1f"/>
     <use xlink:href="#m7906123d5d" x="402.78875" y="319.47995" style="fill-opacity: 0; stroke: #1f1f1f"/>
     <use xlink:href="#m7906123d5d" x="402.78875" y="300.53733" style="fill-opacity: 0; stroke: #1f1f1f"/>
     <use xlink:href="#m7906123d5d" x="402.78875" y="311.389838" style="fill-opacity: 0; stroke: #1f1f1f"/>
     <use xlink:href="#m7906123d5d" x="402.78875" y="318.721223" style="fill-opacity: 0; stroke: #1f1f1f"/>
     <use xlink:href="#m7906123d5d" x="402.78875" y="326.027879" style="fill-opacity: 0; stroke: #1f1f1f"/>
     <use xlink:href="#m7906123d5d" x="402.78875" y="315.832985" style="fill-opacity: 0; stroke: #1f1f1f"/>
     <use xlink:href="#m7906123d5d" x="402.78875" y="322.821033" style="fill-opacity: 0; stroke: #1f1f1f"/>
     <use xlink:href="#m7906123d5d" x="402.78875" y="323.494544" style="fill-opacity: 0; stroke: #1f1f1f"/>
     <use xlink:href="#m7906123d5d" x="402.78875" y="312.088586" style="fill-opacity: 0; stroke: #1f1f1f"/>
     <use xlink:href="#m7906123d5d" x="402.78875" y="285.519995" style="fill-opacity: 0; stroke: #1f1f1f"/>
     <use xlink:href="#m7906123d5d" x="402.78875" y="321.594026" style="fill-opacity: 0; stroke: #1f1f1f"/>
     <use xlink:href="#m7906123d5d" x="402.78875" y="307.490892" style="fill-opacity: 0; stroke: #1f1f1f"/>
     <use xlink:href="#m7906123d5d" x="402.78875" y="323.290903" style="fill-opacity: 0; stroke: #1f1f1f"/>
     <use xlink:href="#m7906123d5d" x="402.78875" y="320.876196" style="fill-opacity: 0; stroke: #1f1f1f"/>
     <use xlink:href="#m7906123d5d" x="402.78875" y="321.841562" style="fill-opacity: 0; stroke: #1f1f1f"/>
     <use xlink:href="#m7906123d5d" x="402.78875" y="313.886723" style="fill-opacity: 0; stroke: #1f1f1f"/>
     <use xlink:href="#m7906123d5d" x="402.78875" y="235.132281" style="fill-opacity: 0; stroke: #1f1f1f"/>
     <use xlink:href="#m7906123d5d" x="402.78875" y="315.134665" style="fill-opacity: 0; stroke: #1f1f1f"/>
     <use xlink:href="#m7906123d5d" x="402.78875" y="321.183876" style="fill-opacity: 0; stroke: #1f1f1f"/>
     <use xlink:href="#m7906123d5d" x="402.78875" y="322.229352" style="fill-opacity: 0; stroke: #1f1f1f"/>
     <use xlink:href="#m7906123d5d" x="402.78875" y="325.491274" style="fill-opacity: 0; stroke: #1f1f1f"/>
     <use xlink:href="#m7906123d5d" x="402.78875" y="325.147341" style="fill-opacity: 0; stroke: #1f1f1f"/>
     <use xlink:href="#m7906123d5d" x="402.78875" y="233.721596" style="fill-opacity: 0; stroke: #1f1f1f"/>
     <use xlink:href="#m7906123d5d" x="402.78875" y="214.443852" style="fill-opacity: 0; stroke: #1f1f1f"/>
     <use xlink:href="#m7906123d5d" x="402.78875" y="314.905794" style="fill-opacity: 0; stroke: #1f1f1f"/>
     <use xlink:href="#m7906123d5d" x="402.78875" y="325.534289" style="fill-opacity: 0; stroke: #1f1f1f"/>
     <use xlink:href="#m7906123d5d" x="402.78875" y="325.534289" style="fill-opacity: 0; stroke: #1f1f1f"/>
     <use xlink:href="#m7906123d5d" x="402.78875" y="311.798976" style="fill-opacity: 0; stroke: #1f1f1f"/>
     <use xlink:href="#m7906123d5d" x="402.78875" y="325.556023" style="fill-opacity: 0; stroke: #1f1f1f"/>
     <use xlink:href="#m7906123d5d" x="402.78875" y="269.407099" style="fill-opacity: 0; stroke: #1f1f1f"/>
     <use xlink:href="#m7906123d5d" x="402.78875" y="228.857801" style="fill-opacity: 0; stroke: #1f1f1f"/>
     <use xlink:href="#m7906123d5d" x="402.78875" y="323.303845" style="fill-opacity: 0; stroke: #1f1f1f"/>
     <use xlink:href="#m7906123d5d" x="402.78875" y="312.356115" style="fill-opacity: 0; stroke: #1f1f1f"/>
     <use xlink:href="#m7906123d5d" x="402.78875" y="126.556576" style="fill-opacity: 0; stroke: #1f1f1f"/>
     <use xlink:href="#m7906123d5d" x="402.78875" y="320.457604" style="fill-opacity: 0; stroke: #1f1f1f"/>
     <use xlink:href="#m7906123d5d" x="402.78875" y="325.075497" style="fill-opacity: 0; stroke: #1f1f1f"/>
     <use xlink:href="#m7906123d5d" x="402.78875" y="308.615351" style="fill-opacity: 0; stroke: #1f1f1f"/>
     <use xlink:href="#m7906123d5d" x="402.78875" y="324.173531" style="fill-opacity: 0; stroke: #1f1f1f"/>
     <use xlink:href="#m7906123d5d" x="402.78875" y="321.140094" style="fill-opacity: 0; stroke: #1f1f1f"/>
     <use xlink:href="#m7906123d5d" x="402.78875" y="324.956024" style="fill-opacity: 0; stroke: #1f1f1f"/>
     <use xlink:href="#m7906123d5d" x="402.78875" y="318.86043" style="fill-opacity: 0; stroke: #1f1f1f"/>
     <use xlink:href="#m7906123d5d" x="402.78875" y="323.521664" style="fill-opacity: 0; stroke: #1f1f1f"/>
     <use xlink:href="#m7906123d5d" x="402.78875" y="174.541311" style="fill-opacity: 0; stroke: #1f1f1f"/>
     <use xlink:href="#m7906123d5d" x="402.78875" y="315.951493" style="fill-opacity: 0; stroke: #1f1f1f"/>
    </g>
   </g>
   <g id="line2d_20">
    <path d="M 90.30875 336.707268 
L 268.86875 336.707268 
" clip-path="url(#p45c9382515)" style="fill: none; stroke: #1f1f1f"/>
   </g>
   <g id="line2d_21">
    <path d="M 313.50875 336.048154 
L 492.06875 336.048154 
" clip-path="url(#p45c9382515)" style="fill: none; stroke: #1f1f1f"/>
   </g>
   <g id="patch_5">
    <path d="M 67.98875 356.78175 
L 67.98875 24.14175 
" style="fill: none; stroke: #000000; stroke-width: 0.8; stroke-linejoin: miter; stroke-linecap: square"/>
   </g>
   <g id="patch_6">
    <path d="M 514.38875 356.78175 
L 514.38875 24.14175 
" style="fill: none; stroke: #000000; stroke-width: 0.8; stroke-linejoin: miter; stroke-linecap: square"/>
   </g>
   <g id="patch_7">
    <path d="M 67.98875 356.78175 
L 514.38875 356.78175 
" style="fill: none; stroke: #000000; stroke-width: 0.8; stroke-linejoin: miter; stroke-linecap: square"/>
   </g>
   <g id="patch_8">
    <path d="M 67.98875 24.14175 
L 514.38875 24.14175 
" style="fill: none; stroke: #000000; stroke-width: 0.8; stroke-linejoin: miter; stroke-linecap: square"/>
   </g>
   <g id="text_12">
    <!-- Gesture Reaction Time  -->
    <g transform="translate(207.062375 18.14175) scale(0.144 -0.144)">
     <defs>
      <path id="DejaVuSans-47" d="M 3809 666 
L 3809 1919 
L 2778 1919 
L 2778 2438 
L 4434 2438 
L 4434 434 
Q 4069 175 3628 42 
Q 3188 -91 2688 -91 
Q 1594 -91 976 548 
Q 359 1188 359 2328 
Q 359 3472 976 4111 
Q 1594 4750 2688 4750 
Q 3144 4750 3555 4637 
Q 3966 4525 4313 4306 
L 4313 3634 
Q 3963 3931 3569 4081 
Q 3175 4231 2741 4231 
Q 1884 4231 1454 3753 
Q 1025 3275 1025 2328 
Q 1025 1384 1454 906 
Q 1884 428 2741 428 
Q 3075 428 3337 486 
Q 3600 544 3809 666 
z
" transform="scale(0.015625)"/>
      <path id="DejaVuSans-75" d="M 544 1381 
L 544 3500 
L 1119 3500 
L 1119 1403 
Q 1119 906 1312 657 
Q 1506 409 1894 409 
Q 2359 409 2629 706 
Q 2900 1003 2900 1516 
L 2900 3500 
L 3475 3500 
L 3475 0 
L 2900 0 
L 2900 538 
Q 2691 219 2414 64 
Q 2138 -91 1772 -91 
Q 1169 -91 856 284 
Q 544 659 544 1381 
z
M 1991 3584 
L 1991 3584 
z
" transform="scale(0.015625)"/>
      <path id="DejaVuSans-52" d="M 2841 2188 
Q 3044 2119 3236 1894 
Q 3428 1669 3622 1275 
L 4263 0 
L 3584 0 
L 2988 1197 
Q 2756 1666 2539 1819 
Q 2322 1972 1947 1972 
L 1259 1972 
L 1259 0 
L 628 0 
L 628 4666 
L 2053 4666 
Q 2853 4666 3247 4331 
Q 3641 3997 3641 3322 
Q 3641 2881 3436 2590 
Q 3231 2300 2841 2188 
z
M 1259 4147 
L 1259 2491 
L 2053 2491 
Q 2509 2491 2742 2702 
Q 2975 2913 2975 3322 
Q 2975 3731 2742 3939 
Q 2509 4147 2053 4147 
L 1259 4147 
z
" transform="scale(0.015625)"/>
      <path id="DejaVuSans-61" d="M 2194 1759 
Q 1497 1759 1228 1600 
Q 959 1441 959 1056 
Q 959 750 1161 570 
Q 1363 391 1709 391 
Q 2188 391 2477 730 
Q 2766 1069 2766 1631 
L 2766 1759 
L 2194 1759 
z
M 3341 1997 
L 3341 0 
L 2766 0 
L 2766 531 
Q 2569 213 2275 61 
Q 1981 -91 1556 -91 
Q 1019 -91 701 211 
Q 384 513 384 1019 
Q 384 1609 779 1909 
Q 1175 2209 1959 2209 
L 2766 2209 
L 2766 2266 
Q 2766 2663 2505 2880 
Q 2244 3097 1772 3097 
Q 1472 3097 1187 3025 
Q 903 2953 641 2809 
L 641 3341 
Q 956 3463 1253 3523 
Q 1550 3584 1831 3584 
Q 2591 3584 2966 3190 
Q 3341 2797 3341 1997 
z
" transform="scale(0.015625)"/>
      <path id="DejaVuSans-63" d="M 3122 3366 
L 3122 2828 
Q 2878 2963 2633 3030 
Q 2388 3097 2138 3097 
Q 1578 3097 1268 2742 
Q 959 2388 959 1747 
Q 959 1106 1268 751 
Q 1578 397 2138 397 
Q 2388 397 2633 464 
Q 2878 531 3122 666 
L 3122 134 
Q 2881 22 2623 -34 
Q 2366 -91 2075 -91 
Q 1284 -91 818 406 
Q 353 903 353 1747 
Q 353 2603 823 3093 
Q 1294 3584 2113 3584 
Q 2378 3584 2631 3529 
Q 2884 3475 3122 3366 
z
" transform="scale(0.015625)"/>
     </defs>
     <use xlink:href="#DejaVuSans-47"/>
     <use xlink:href="#DejaVuSans-65" transform="translate(77.490234 0)"/>
     <use xlink:href="#DejaVuSans-73" transform="translate(139.013672 0)"/>
     <use xlink:href="#DejaVuSans-74" transform="translate(191.113281 0)"/>
     <use xlink:href="#DejaVuSans-75" transform="translate(230.322266 0)"/>
     <use xlink:href="#DejaVuSans-72" transform="translate(293.701172 0)"/>
     <use xlink:href="#DejaVuSans-65" transform="translate(332.564453 0)"/>
     <use xlink:href="#DejaVuSans-20" transform="translate(394.087891 0)"/>
     <use xlink:href="#DejaVuSans-52" transform="translate(425.875 0)"/>
     <use xlink:href="#DejaVuSans-65" transform="translate(490.857422 0)"/>
     <use xlink:href="#DejaVuSans-61" transform="translate(552.380859 0)"/>
     <use xlink:href="#DejaVuSans-63" transform="translate(613.660156 0)"/>
     <use xlink:href="#DejaVuSans-74" transform="translate(668.640625 0)"/>
     <use xlink:href="#DejaVuSans-69" transform="translate(707.849609 0)"/>
     <use xlink:href="#DejaVuSans-6f" transform="translate(735.632812 0)"/>
     <use xlink:href="#DejaVuSans-6e" transform="translate(796.814453 0)"/>
     <use xlink:href="#DejaVuSans-20" transform="translate(860.193359 0)"/>
     <use xlink:href="#DejaVuSans-54" transform="translate(891.980469 0)"/>
     <use xlink:href="#DejaVuSans-69" transform="translate(949.939453 0)"/>
     <use xlink:href="#DejaVuSans-6d" transform="translate(977.722656 0)"/>
     <use xlink:href="#DejaVuSans-65" transform="translate(1075.134766 0)"/>
     <use xlink:href="#DejaVuSans-20" transform="translate(1136.658203 0)"/>
    </g>
   </g>
  </g>
 </g>
 <defs>
  <clipPath id="p45c9382515">
   <rect x="67.98875" y="24.14175" width="446.4" height="332.64"/>
  </clipPath>
 </defs>
</svg>
