<?xml version="1.0" encoding="utf-8" standalone="no"?>
<!DOCTYPE svg PUBLIC "-//W3C//DTD SVG 1.1//EN"
  "http://www.w3.org/Graphics/SVG/1.1/DTD/svg11.dtd">
<svg xmlns:xlink="http://www.w3.org/1999/xlink" width="610.28375pt" height="398.20925pt" viewBox="0 0 610.28375 398.20925" xmlns="http://www.w3.org/2000/svg" version="1.1">
 <metadata>
  <rdf:RDF xmlns:dc="http://purl.org/dc/elements/1.1/" xmlns:cc="http://creativecommons.org/ns#" xmlns:rdf="http://www.w3.org/1999/02/22-rdf-syntax-ns#">
   <cc:Work>
    <dc:type rdf:resource="http://purl.org/dc/dcmitype/StillImage"/>
    <dc:date>2026-01-22T11:25:13.871945</dc:date>
    <dc:format>image/svg+xml</dc:format>
    <dc:creator>
     <cc:Agent>
      <dc:title>Matplotlib v3.10.8, https://matplotlib.org/</dc:title>
     </cc:Agent>
    </dc:creator>
   </cc:Work>
  </rdf:RDF>
 </metadata>
 <defs>
  <style type="text/css">*{stroke-linejoin: round; stroke-linecap: butt}</style>
 </defs>
 <g id="figure_1">
  <g id="patch_1">
   <path d="M 0 398.20925 
L 610.28375 398.20925 
L 610.28375 0 
L 0 0 
z
" style="fill: #ffffff"/>
  </g>
  <g id="axes_1">
   <g id="patch_2">
    <path d="M 45.08375 356.78175 
L 603.08375 356.78175 
L 603.08375 24.14175 
L 45.08375 24.14175 
z
" style="fill: #ffffff"/>
   </g>
   <g id="FillBetweenPolyCollection_1">
    <defs>
     <path id="m1e293e99e2" d="M 70.447386 -284.678181 
L 70.447386 -106.799848 
L 97.145951 -125.25337 
L 123.844516 -126.241872 
L 150.54308 -129.672176 
L 177.241645 -122.579343 
L 203.940209 -132.189345 
L 230.638774 -119.935326 
L 257.337339 -134.909927 
L 284.035903 -112.961811 
L 310.734468 -125.925774 
L 337.433032 -121.888507 
L 364.131597 -143.078432 
L 390.830161 -116.860663 
L 417.528726 -130.293709 
L 444.227291 -122.321395 
L 470.925855 -101.949796 
L 497.62442 -78.13597 
L 524.322984 -127.870247 
L 551.021549 -127.43446 
L 577.720114 -128.29124 
L 577.720114 -346.031455 
L 577.720114 -346.031455 
L 551.021549 -358.9475 
L 524.322984 -305.287427 
L 497.62442 -284.037768 
L 470.925855 -349.627257 
L 444.227291 -305.757232 
L 417.528726 -258.258964 
L 390.830161 -261.14956 
L 364.131597 -279.233821 
L 337.433032 -328.889765 
L 310.734468 -242.069691 
L 284.035903 -303.848064 
L 257.337339 -279.45964 
L 230.638774 -258.935995 
L 203.940209 -259.596162 
L 177.241645 -268.752998 
L 150.54308 -256.063526 
L 123.844516 -270.592773 
L 97.145951 -226.794672 
L 70.447386 -284.678181 
z
" style="stroke: #333333; stroke-opacity: 0.2"/>
    </defs>
    <g clip-path="url(#pd6accacedb)">
     <use xlink:href="#m1e293e99e2" x="0" y="398.20925" style="fill: #333333; fill-opacity: 0.2; stroke: #333333; stroke-opacity: 0.2"/>
    </g>
   </g>
   <g id="FillBetweenPolyCollection_2">
    <defs>
     <path id="mdad716acb2" d="M 70.447386 -123.065589 
L 70.447386 -61.262954 
L 97.145951 -72.575754 
L 123.844516 -72.249612 
L 150.54308 -67.500389 
L 177.241645 -62.912254 
L 203.940209 -66.12485 
L 230.638774 -77.083983 
L 257.337339 -56.5475 
L 284.035903 -70.104067 
L 310.734468 -63.271325 
L 337.433032 -64.168201 
L 364.131597 -69.285443 
L 390.830161 -59.026609 
L 417.528726 -72.246919 
L 444.227291 -81.16168 
L 470.925855 -64.83527 
L 497.62442 -69.715809 
L 524.322984 -83.539737 
L 551.021549 -77.142233 
L 577.720114 -70.482769 
L 577.720114 -158.176957 
L 577.720114 -158.176957 
L 551.021549 -156.491009 
L 524.322984 -138.569772 
L 497.62442 -179.635158 
L 470.925855 -183.191344 
L 444.227291 -181.905091 
L 417.528726 -169.422887 
L 390.830161 -241.595855 
L 364.131597 -152.216788 
L 337.433032 -219.210397 
L 310.734468 -211.199553 
L 284.035903 -182.930654 
L 257.337339 -151.457099 
L 230.638774 -183.326855 
L 203.940209 -123.696249 
L 177.241645 -134.898399 
L 150.54308 -159.87264 
L 123.844516 -140.482789 
L 97.145951 -156.237052 
L 70.447386 -123.065589 
z
" style="stroke: #35dc67; stroke-opacity: 0.2"/>
    </defs>
    <g clip-path="url(#pd6accacedb)">
     <use xlink:href="#mdad716acb2" x="0" y="398.20925" style="fill: #35dc67; fill-opacity: 0.2; stroke: #35dc67; stroke-opacity: 0.2"/>
    </g>
   </g>
   <g id="FillBetweenPolyCollection_3">
    <defs>
     <path id="m6383e1d855" d="M 70.447386 -133.997283 
L 70.447386 -85.171 
L 97.145951 -95.895175 
L 123.844516 -91.060277 
L 150.54308 -98.363619 
L 177.241645 -84.164613 
L 203.940209 -94.453791 
L 230.638774 -95.769832 
L 257.337339 -100.780569 
L 284.035903 -90.122003 
L 310.734468 -89.53769 
L 337.433032 -82.278523 
L 364.131597 -88.003646 
L 390.830161 -97.732605 
L 417.528726 -98.95023 
L 444.227291 -103.493172 
L 470.925855 -90.200776 
L 497.62442 -98.490999 
L 524.322984 -98.372852 
L 551.021549 -101.217911 
L 577.720114 -86.262259 
L 577.720114 -119.915329 
L 577.720114 -119.915329 
L 551.021549 -146.736456 
L 524.322984 -145.134542 
L 497.62442 -132.561162 
L 470.925855 -143.173883 
L 444.227291 -137.709741 
L 417.528726 -163.601017 
L 390.830161 -164.412137 
L 364.131597 -146.042864 
L 337.433032 -144.563428 
L 310.734468 -147.246262 
L 284.035903 -131.820199 
L 257.337339 -134.218201 
L 230.638774 -129.338474 
L 203.940209 -141.69616 
L 177.241645 -127.666699 
L 150.54308 -143.353454 
L 123.844516 -134.260429 
L 97.145951 -120.103952 
L 70.447386 -133.997283 
z
" style="stroke: #007bff; stroke-opacity: 0.2"/>
    </defs>
    <g clip-path="url(#pd6accacedb)">
     <use xlink:href="#m6383e1d855" x="0" y="398.20925" style="fill: #007bff; fill-opacity: 0.2; stroke: #007bff; stroke-opacity: 0.2"/>
    </g>
   </g>
   <g id="matplotlib.axis_1">
    <g id="xtick_1">
     <g id="line2d_1">
      <path d="M 110.495233 356.78175 
L 110.495233 24.14175 
" clip-path="url(#pd6accacedb)" style="fill: none; stroke-dasharray: 2.96,1.28; stroke-dashoffset: 0; stroke: #b0b0b0; stroke-opacity: 0.5; stroke-width: 0.8"/>
     </g>
     <g id="line2d_2">
      <defs>
       <path id="m0078764940" d="M 0 0 
L 0 3.5 
" style="stroke: #000000; stroke-width: 0.8"/>
      </defs>
      <g>
       <use xlink:href="#m0078764940" x="110.495233" y="356.78175" style="stroke: #000000; stroke-width: 0.8"/>
      </g>
     </g>
     <g id="text_1">
      <!-- 2.5 -->
      <g transform="translate(100.953358 372.899875) scale(0.12 -0.12)">
       <defs>
        <path id="DejaVuSans-32" d="M 1228 531 
L 3431 531 
L 3431 0 
L 469 0 
L 469 531 
Q 828 903 1448 1529 
Q 2069 2156 2228 2338 
Q 2531 2678 2651 2914 
Q 2772 3150 2772 3378 
Q 2772 3750 2511 3984 
Q 2250 4219 1831 4219 
Q 1534 4219 1204 4116 
Q 875 4013 500 3803 
L 500 4441 
Q 881 4594 1212 4672 
Q 1544 4750 1819 4750 
Q 2544 4750 2975 4387 
Q 3406 4025 3406 3419 
Q 3406 3131 3298 2873 
Q 3191 2616 2906 2266 
Q 2828 2175 2409 1742 
Q 1991 1309 1228 531 
z
" transform="scale(0.015625)"/>
        <path id="DejaVuSans-2e" d="M 684 794 
L 1344 794 
L 1344 0 
L 684 0 
L 684 794 
z
" transform="scale(0.015625)"/>
        <path id="DejaVuSans-35" d="M 691 4666 
L 3169 4666 
L 3169 4134 
L 1269 4134 
L 1269 2991 
Q 1406 3038 1543 3061 
Q 1681 3084 1819 3084 
Q 2600 3084 3056 2656 
Q 3513 2228 3513 1497 
Q 3513 744 3044 326 
Q 2575 -91 1722 -91 
Q 1428 -91 1123 -41 
Q 819 9 494 109 
L 494 744 
Q 775 591 1075 516 
Q 1375 441 1709 441 
Q 2250 441 2565 725 
Q 2881 1009 2881 1497 
Q 2881 1984 2565 2268 
Q 2250 2553 1709 2553 
Q 1456 2553 1204 2497 
Q 953 2441 691 2322 
L 691 4666 
z
" transform="scale(0.015625)"/>
       </defs>
       <use xlink:href="#DejaVuSans-32"/>
       <use xlink:href="#DejaVuSans-2e" transform="translate(63.623047 0)"/>
       <use xlink:href="#DejaVuSans-35" transform="translate(95.410156 0)"/>
      </g>
     </g>
    </g>
    <g id="xtick_2">
     <g id="line2d_3">
      <path d="M 177.241645 356.78175 
L 177.241645 24.14175 
" clip-path="url(#pd6accacedb)" style="fill: none; stroke-dasharray: 2.96,1.28; stroke-dashoffset: 0; stroke: #b0b0b0; stroke-opacity: 0.5; stroke-width: 0.8"/>
     </g>
     <g id="line2d_4">
      <g>
       <use xlink:href="#m0078764940" x="177.241645" y="356.78175" style="stroke: #000000; stroke-width: 0.8"/>
      </g>
     </g>
     <g id="text_2">
      <!-- 5.0 -->
      <g transform="translate(167.69977 372.899875) scale(0.12 -0.12)">
       <defs>
        <path id="DejaVuSans-30" d="M 2034 4250 
Q 1547 4250 1301 3770 
Q 1056 3291 1056 2328 
Q 1056 1369 1301 889 
Q 1547 409 2034 409 
Q 2525 409 2770 889 
Q 3016 1369 3016 2328 
Q 3016 3291 2770 3770 
Q 2525 4250 2034 4250 
z
M 2034 4750 
Q 2819 4750 3233 4129 
Q 3647 3509 3647 2328 
Q 3647 1150 3233 529 
Q 2819 -91 2034 -91 
Q 1250 -91 836 529 
Q 422 1150 422 2328 
Q 422 3509 836 4129 
Q 1250 4750 2034 4750 
z
" transform="scale(0.015625)"/>
       </defs>
       <use xlink:href="#DejaVuSans-35"/>
       <use xlink:href="#DejaVuSans-2e" transform="translate(63.623047 0)"/>
       <use xlink:href="#DejaVuSans-30" transform="translate(95.410156 0)"/>
      </g>
     </g>
    </g>
    <g id="xtick_3">
     <g id="line2d_5">
      <path d="M 243.988056 356.78175 
L 243.988056 24.14175 
" clip-path="url(#pd6accacedb)" style="fill: none; stroke-dasharray: 2.96,1.28; stroke-dashoffset: 0; stroke: #b0b0b0; stroke-opacity: 0.5; stroke-width: 0.8"/>
     </g>
     <g id="line2d_6">
      <g>
       <use xlink:href="#m0078764940" x="243.988056" y="356.78175" style="stroke: #000000; stroke-width: 0.8"/>
      </g>
     </g>
     <g id="text_3">
      <!-- 7.5 -->
      <g transform="translate(234.446181 372.899875) scale(0.12 -0.12)">
       <defs>
        <path id="DejaVuSans-37" d="M 525 4666 
L 3525 4666 
L 3525 4397 
L 1831 0 
L 1172 0 
L 2766 4134 
L 525 4134 
L 525 4666 
z
" transform="scale(0.015625)"/>
       </defs>
       <use xlink:href="#DejaVuSans-37"/>
       <use xlink:href="#DejaVuSans-2e" transform="translate(63.623047 0)"/>
       <use xlink:href="#DejaVuSans-35" transform="translate(95.410156 0)"/>
      </g>
     </g>
    </g>
    <g id="xtick_4">
     <g id="line2d_7">
      <path d="M 310.734468 356.78175 
L 310.734468 24.14175 
" clip-path="url(#pd6accacedb)" style="fill: none; stroke-dasharray: 2.96,1.28; stroke-dashoffset: 0; stroke: #b0b0b0; stroke-opacity: 0.5; stroke-width: 0.8"/>
     </g>
     <g id="line2d_8">
      <g>
       <use xlink:href="#m0078764940" x="310.734468" y="356.78175" style="stroke: #000000; stroke-width: 0.8"/>
      </g>
     </g>
     <g id="text_4">
      <!-- 10.0 -->
      <g transform="translate(297.375093 372.899875) scale(0.12 -0.12)">
       <defs>
        <path id="DejaVuSans-31" d="M 794 531 
L 1825 531 
L 1825 4091 
L 703 3866 
L 703 4441 
L 1819 4666 
L 2450 4666 
L 2450 531 
L 3481 531 
L 3481 0 
L 794 0 
L 794 531 
z
" transform="scale(0.015625)"/>
       </defs>
       <use xlink:href="#DejaVuSans-31"/>
       <use xlink:href="#DejaVuSans-30" transform="translate(63.623047 0)"/>
       <use xlink:href="#DejaVuSans-2e" transform="translate(127.246094 0)"/>
       <use xlink:href="#DejaVuSans-30" transform="translate(159.033203 0)"/>
      </g>
     </g>
    </g>
    <g id="xtick_5">
     <g id="line2d_9">
      <path d="M 377.480879 356.78175 
L 377.480879 24.14175 
" clip-path="url(#pd6accacedb)" style="fill: none; stroke-dasharray: 2.96,1.28; stroke-dashoffset: 0; stroke: #b0b0b0; stroke-opacity: 0.5; stroke-width: 0.8"/>
     </g>
     <g id="line2d_10">
      <g>
       <use xlink:href="#m0078764940" x="377.480879" y="356.78175" style="stroke: #000000; stroke-width: 0.8"/>
      </g>
     </g>
     <g id="text_5">
      <!-- 12.5 -->
      <g transform="translate(364.121504 372.899875) scale(0.12 -0.12)">
       <use xlink:href="#DejaVuSans-31"/>
       <use xlink:href="#DejaVuSans-32" transform="translate(63.623047 0)"/>
       <use xlink:href="#DejaVuSans-2e" transform="translate(127.246094 0)"/>
       <use xlink:href="#DejaVuSans-35" transform="translate(159.033203 0)"/>
      </g>
     </g>
    </g>
    <g id="xtick_6">
     <g id="line2d_11">
      <path d="M 444.227291 356.78175 
L 444.227291 24.14175 
" clip-path="url(#pd6accacedb)" style="fill: none; stroke-dasharray: 2.96,1.28; stroke-dashoffset: 0; stroke: #b0b0b0; stroke-opacity: 0.5; stroke-width: 0.8"/>
     </g>
     <g id="line2d_12">
      <g>
       <use xlink:href="#m0078764940" x="444.227291" y="356.78175" style="stroke: #000000; stroke-width: 0.8"/>
      </g>
     </g>
     <g id="text_6">
      <!-- 15.0 -->
      <g transform="translate(430.867916 372.899875) scale(0.12 -0.12)">
       <use xlink:href="#DejaVuSans-31"/>
       <use xlink:href="#DejaVuSans-35" transform="translate(63.623047 0)"/>
       <use xlink:href="#DejaVuSans-2e" transform="translate(127.246094 0)"/>
       <use xlink:href="#DejaVuSans-30" transform="translate(159.033203 0)"/>
      </g>
     </g>
    </g>
    <g id="xtick_7">
     <g id="line2d_13">
      <path d="M 510.973702 356.78175 
L 510.973702 24.14175 
" clip-path="url(#pd6accacedb)" style="fill: none; stroke-dasharray: 2.96,1.28; stroke-dashoffset: 0; stroke: #b0b0b0; stroke-opacity: 0.5; stroke-width: 0.8"/>
     </g>
     <g id="line2d_14">
      <g>
       <use xlink:href="#m0078764940" x="510.973702" y="356.78175" style="stroke: #000000; stroke-width: 0.8"/>
      </g>
     </g>
     <g id="text_7">
      <!-- 17.5 -->
      <g transform="translate(497.614327 372.899875) scale(0.12 -0.12)">
       <use xlink:href="#DejaVuSans-31"/>
       <use xlink:href="#DejaVuSans-37" transform="translate(63.623047 0)"/>
       <use xlink:href="#DejaVuSans-2e" transform="translate(127.246094 0)"/>
       <use xlink:href="#DejaVuSans-35" transform="translate(159.033203 0)"/>
      </g>
     </g>
    </g>
    <g id="xtick_8">
     <g id="line2d_15">
      <path d="M 577.720114 356.78175 
L 577.720114 24.14175 
" clip-path="url(#pd6accacedb)" style="fill: none; stroke-dasharray: 2.96,1.28; stroke-dashoffset: 0; stroke: #b0b0b0; stroke-opacity: 0.5; stroke-width: 0.8"/>
     </g>
     <g id="line2d_16">
      <g>
       <use xlink:href="#m0078764940" x="577.720114" y="356.78175" style="stroke: #000000; stroke-width: 0.8"/>
      </g>
     </g>
     <g id="text_8">
      <!-- 20.0 -->
      <g transform="translate(564.360739 372.899875) scale(0.12 -0.12)">
       <use xlink:href="#DejaVuSans-32"/>
       <use xlink:href="#DejaVuSans-30" transform="translate(63.623047 0)"/>
       <use xlink:href="#DejaVuSans-2e" transform="translate(127.246094 0)"/>
       <use xlink:href="#DejaVuSans-30" transform="translate(159.033203 0)"/>
      </g>
     </g>
    </g>
    <g id="text_9">
     <!-- TrialID -->
     <g transform="translate(305.436875 388.513625) scale(0.12 -0.12)">
      <defs>
       <path id="DejaVuSans-54" d="M -19 4666 
L 3928 4666 
L 3928 4134 
L 2272 4134 
L 2272 0 
L 1638 0 
L 1638 4134 
L -19 4134 
L -19 4666 
z
" transform="scale(0.015625)"/>
       <path id="DejaVuSans-72" d="M 2631 2963 
Q 2534 3019 2420 3045 
Q 2306 3072 2169 3072 
Q 1681 3072 1420 2755 
Q 1159 2438 1159 1844 
L 1159 0 
L 581 0 
L 581 3500 
L 1159 3500 
L 1159 2956 
Q 1341 3275 1631 3429 
Q 1922 3584 2338 3584 
Q 2397 3584 2469 3576 
Q 2541 3569 2628 3553 
L 2631 2963 
z
" transform="scale(0.015625)"/>
       <path id="DejaVuSans-69" d="M 603 3500 
L 1178 3500 
L 1178 0 
L 603 0 
L 603 3500 
z
M 603 4863 
L 1178 4863 
L 1178 4134 
L 603 4134 
L 603 4863 
z
" transform="scale(0.015625)"/>
       <path id="DejaVuSans-61" d="M 2194 1759 
Q 1497 1759 1228 1600 
Q 959 1441 959 1056 
Q 959 750 1161 570 
Q 1363 391 1709 391 
Q 2188 391 2477 730 
Q 2766 1069 2766 1631 
L 2766 1759 
L 2194 1759 
z
M 3341 1997 
L 3341 0 
L 2766 0 
L 2766 531 
Q 2569 213 2275 61 
Q 1981 -91 1556 -91 
Q 1019 -91 701 211 
Q 384 513 384 1019 
Q 384 1609 779 1909 
Q 1175 2209 1959 2209 
L 2766 2209 
L 2766 2266 
Q 2766 2663 2505 2880 
Q 2244 3097 1772 3097 
Q 1472 3097 1187 3025 
Q 903 2953 641 2809 
L 641 3341 
Q 956 3463 1253 3523 
Q 1550 3584 1831 3584 
Q 2591 3584 2966 3190 
Q 3341 2797 3341 1997 
z
" transform="scale(0.015625)"/>
       <path id="DejaVuSans-6c" d="M 603 4863 
L 1178 4863 
L 1178 0 
L 603 0 
L 603 4863 
z
" transform="scale(0.015625)"/>
       <path id="DejaVuSans-49" d="M 628 4666 
L 1259 4666 
L 1259 0 
L 628 0 
L 628 4666 
z
" transform="scale(0.015625)"/>
       <path id="DejaVuSans-44" d="M 1259 4147 
L 1259 519 
L 2022 519 
Q 2988 519 3436 956 
Q 3884 1394 3884 2338 
Q 3884 3275 3436 3711 
Q 2988 4147 2022 4147 
L 1259 4147 
z
M 628 4666 
L 1925 4666 
Q 3281 4666 3915 4102 
Q 4550 3538 4550 2338 
Q 4550 1131 3912 565 
Q 3275 0 1925 0 
L 628 0 
L 628 4666 
z
" transform="scale(0.015625)"/>
      </defs>
      <use xlink:href="#DejaVuSans-54"/>
      <use xlink:href="#DejaVuSans-72" transform="translate(46.333984 0)"/>
      <use xlink:href="#DejaVuSans-69" transform="translate(87.447266 0)"/>
      <use xlink:href="#DejaVuSans-61" transform="translate(115.230469 0)"/>
      <use xlink:href="#DejaVuSans-6c" transform="translate(176.509766 0)"/>
      <use xlink:href="#DejaVuSans-49" transform="translate(204.292969 0)"/>
      <use xlink:href="#DejaVuSans-44" transform="translate(233.785156 0)"/>
     </g>
    </g>
   </g>
   <g id="matplotlib.axis_2">
    <g id="ytick_1">
     <g id="line2d_17">
      <path d="M 45.08375 308.347839 
L 603.08375 308.347839 
" clip-path="url(#pd6accacedb)" style="fill: none; stroke-dasharray: 2.96,1.28; stroke-dashoffset: 0; stroke: #b0b0b0; stroke-opacity: 0.5; stroke-width: 0.8"/>
     </g>
     <g id="line2d_18">
      <defs>
       <path id="m65c4b37e7f" d="M 0 0 
L -3.5 0 
" style="stroke: #000000; stroke-width: 0.8"/>
      </defs>
      <g>
       <use xlink:href="#m65c4b37e7f" x="45.08375" y="308.347839" style="stroke: #000000; stroke-width: 0.8"/>
      </g>
     </g>
     <g id="text_10">
      <!-- 10 -->
      <g transform="translate(22.81375 312.906901) scale(0.12 -0.12)">
       <use xlink:href="#DejaVuSans-31"/>
       <use xlink:href="#DejaVuSans-30" transform="translate(63.623047 0)"/>
      </g>
     </g>
    </g>
    <g id="ytick_2">
     <g id="line2d_19">
      <path d="M 45.08375 248.26784 
L 603.08375 248.26784 
" clip-path="url(#pd6accacedb)" style="fill: none; stroke-dasharray: 2.96,1.28; stroke-dashoffset: 0; stroke: #b0b0b0; stroke-opacity: 0.5; stroke-width: 0.8"/>
     </g>
     <g id="line2d_20">
      <g>
       <use xlink:href="#m65c4b37e7f" x="45.08375" y="248.26784" style="stroke: #000000; stroke-width: 0.8"/>
      </g>
     </g>
     <g id="text_11">
      <!-- 20 -->
      <g transform="translate(22.81375 252.826903) scale(0.12 -0.12)">
       <use xlink:href="#DejaVuSans-32"/>
       <use xlink:href="#DejaVuSans-30" transform="translate(63.623047 0)"/>
      </g>
     </g>
    </g>
    <g id="ytick_3">
     <g id="line2d_21">
      <path d="M 45.08375 188.187842 
L 603.08375 188.187842 
" clip-path="url(#pd6accacedb)" style="fill: none; stroke-dasharray: 2.96,1.28; stroke-dashoffset: 0; stroke: #b0b0b0; stroke-opacity: 0.5; stroke-width: 0.8"/>
     </g>
     <g id="line2d_22">
      <g>
       <use xlink:href="#m65c4b37e7f" x="45.08375" y="188.187842" style="stroke: #000000; stroke-width: 0.8"/>
      </g>
     </g>
     <g id="text_12">
      <!-- 30 -->
      <g transform="translate(22.81375 192.746905) scale(0.12 -0.12)">
       <defs>
        <path id="DejaVuSans-33" d="M 2597 2516 
Q 3050 2419 3304 2112 
Q 3559 1806 3559 1356 
Q 3559 666 3084 287 
Q 2609 -91 1734 -91 
Q 1441 -91 1130 -33 
Q 819 25 488 141 
L 488 750 
Q 750 597 1062 519 
Q 1375 441 1716 441 
Q 2309 441 2620 675 
Q 2931 909 2931 1356 
Q 2931 1769 2642 2001 
Q 2353 2234 1838 2234 
L 1294 2234 
L 1294 2753 
L 1863 2753 
Q 2328 2753 2575 2939 
Q 2822 3125 2822 3475 
Q 2822 3834 2567 4026 
Q 2313 4219 1838 4219 
Q 1578 4219 1281 4162 
Q 984 4106 628 3988 
L 628 4550 
Q 988 4650 1302 4700 
Q 1616 4750 1894 4750 
Q 2613 4750 3031 4423 
Q 3450 4097 3450 3541 
Q 3450 3153 3228 2886 
Q 3006 2619 2597 2516 
z
" transform="scale(0.015625)"/>
       </defs>
       <use xlink:href="#DejaVuSans-33"/>
       <use xlink:href="#DejaVuSans-30" transform="translate(63.623047 0)"/>
      </g>
     </g>
    </g>
    <g id="ytick_4">
     <g id="line2d_23">
      <path d="M 45.08375 128.107844 
L 603.08375 128.107844 
" clip-path="url(#pd6accacedb)" style="fill: none; stroke-dasharray: 2.96,1.28; stroke-dashoffset: 0; stroke: #b0b0b0; stroke-opacity: 0.5; stroke-width: 0.8"/>
     </g>
     <g id="line2d_24">
      <g>
       <use xlink:href="#m65c4b37e7f" x="45.08375" y="128.107844" style="stroke: #000000; stroke-width: 0.8"/>
      </g>
     </g>
     <g id="text_13">
      <!-- 40 -->
      <g transform="translate(22.81375 132.666906) scale(0.12 -0.12)">
       <defs>
        <path id="DejaVuSans-34" d="M 2419 4116 
L 825 1625 
L 2419 1625 
L 2419 4116 
z
M 2253 4666 
L 3047 4666 
L 3047 1625 
L 3713 1625 
L 3713 1100 
L 3047 1100 
L 3047 0 
L 2419 0 
L 2419 1100 
L 313 1100 
L 313 1709 
L 2253 4666 
z
" transform="scale(0.015625)"/>
       </defs>
       <use xlink:href="#DejaVuSans-34"/>
       <use xlink:href="#DejaVuSans-30" transform="translate(63.623047 0)"/>
      </g>
     </g>
    </g>
    <g id="ytick_5">
     <g id="line2d_25">
      <path d="M 45.08375 68.027846 
L 603.08375 68.027846 
" clip-path="url(#pd6accacedb)" style="fill: none; stroke-dasharray: 2.96,1.28; stroke-dashoffset: 0; stroke: #b0b0b0; stroke-opacity: 0.5; stroke-width: 0.8"/>
     </g>
     <g id="line2d_26">
      <g>
       <use xlink:href="#m65c4b37e7f" x="45.08375" y="68.027846" style="stroke: #000000; stroke-width: 0.8"/>
      </g>
     </g>
     <g id="text_14">
      <!-- 50 -->
      <g transform="translate(22.81375 72.586908) scale(0.12 -0.12)">
       <use xlink:href="#DejaVuSans-35"/>
       <use xlink:href="#DejaVuSans-30" transform="translate(63.623047 0)"/>
      </g>
     </g>
    </g>
    <g id="text_15">
     <!-- WPM -->
     <g transform="translate(16.318125 205.188937) rotate(-90) scale(0.12 -0.12)">
      <defs>
       <path id="DejaVuSans-57" d="M 213 4666 
L 850 4666 
L 1831 722 
L 2809 4666 
L 3519 4666 
L 4500 722 
L 5478 4666 
L 6119 4666 
L 4947 0 
L 4153 0 
L 3169 4050 
L 2175 0 
L 1381 0 
L 213 4666 
z
" transform="scale(0.015625)"/>
       <path id="DejaVuSans-50" d="M 1259 4147 
L 1259 2394 
L 2053 2394 
Q 2494 2394 2734 2622 
Q 2975 2850 2975 3272 
Q 2975 3691 2734 3919 
Q 2494 4147 2053 4147 
L 1259 4147 
z
M 628 4666 
L 2053 4666 
Q 2838 4666 3239 4311 
Q 3641 3956 3641 3272 
Q 3641 2581 3239 2228 
Q 2838 1875 2053 1875 
L 1259 1875 
L 1259 0 
L 628 0 
L 628 4666 
z
" transform="scale(0.015625)"/>
       <path id="DejaVuSans-4d" d="M 628 4666 
L 1569 4666 
L 2759 1491 
L 3956 4666 
L 4897 4666 
L 4897 0 
L 4281 0 
L 4281 4097 
L 3078 897 
L 2444 897 
L 1241 4097 
L 1241 0 
L 628 0 
L 628 4666 
z
" transform="scale(0.015625)"/>
      </defs>
      <use xlink:href="#DejaVuSans-57"/>
      <use xlink:href="#DejaVuSans-50" transform="translate(98.876953 0)"/>
      <use xlink:href="#DejaVuSans-4d" transform="translate(159.179688 0)"/>
     </g>
    </g>
   </g>
   <g id="line2d_27">
    <path d="M 70.447386 202.470236 
L 97.145951 222.185229 
L 123.844516 199.791928 
L 150.54308 205.341399 
L 177.241645 202.543079 
L 203.940209 202.316497 
L 230.638774 208.77359 
L 257.337339 191.024466 
L 284.035903 189.804313 
L 310.734468 214.211517 
L 337.433032 172.820114 
L 364.131597 187.053123 
L 390.830161 209.204139 
L 417.528726 203.932914 
L 444.227291 184.169936 
L 470.925855 172.420724 
L 497.62442 217.122381 
L 524.322984 181.630413 
L 551.021549 155.01827 
L 577.720114 161.047902 
" clip-path="url(#pd6accacedb)" style="fill: none; stroke: #333333; stroke-width: 1.5; stroke-linecap: square"/>
    <defs>
     <path id="mc91981e342" d="M 0 3 
C 0.795609 3 1.55874 2.683901 2.12132 2.12132 
C 2.683901 1.55874 3 0.795609 3 0 
C 3 -0.795609 2.683901 -1.55874 2.12132 -2.12132 
C 1.55874 -2.683901 0.795609 -3 0 -3 
C -0.795609 -3 -1.55874 -2.683901 -2.12132 -2.12132 
C -2.683901 -1.55874 -3 -0.795609 -3 0 
C -3 0.795609 -2.683901 1.55874 -2.12132 2.12132 
C -1.55874 2.683901 -0.795609 3 0 3 
z
" style="stroke: #ffffff; stroke-width: 0.75"/>
    </defs>
    <g clip-path="url(#pd6accacedb)">
     <use xlink:href="#mc91981e342" x="70.447386" y="202.470236" style="fill: #333333; stroke: #ffffff; stroke-width: 0.75"/>
     <use xlink:href="#mc91981e342" x="97.145951" y="222.185229" style="fill: #333333; stroke: #ffffff; stroke-width: 0.75"/>
     <use xlink:href="#mc91981e342" x="123.844516" y="199.791928" style="fill: #333333; stroke: #ffffff; stroke-width: 0.75"/>
     <use xlink:href="#mc91981e342" x="150.54308" y="205.341399" style="fill: #333333; stroke: #ffffff; stroke-width: 0.75"/>
     <use xlink:href="#mc91981e342" x="177.241645" y="202.543079" style="fill: #333333; stroke: #ffffff; stroke-width: 0.75"/>
     <use xlink:href="#mc91981e342" x="203.940209" y="202.316497" style="fill: #333333; stroke: #ffffff; stroke-width: 0.75"/>
     <use xlink:href="#mc91981e342" x="230.638774" y="208.77359" style="fill: #333333; stroke: #ffffff; stroke-width: 0.75"/>
     <use xlink:href="#mc91981e342" x="257.337339" y="191.024466" style="fill: #333333; stroke: #ffffff; stroke-width: 0.75"/>
     <use xlink:href="#mc91981e342" x="284.035903" y="189.804313" style="fill: #333333; stroke: #ffffff; stroke-width: 0.75"/>
     <use xlink:href="#mc91981e342" x="310.734468" y="214.211517" style="fill: #333333; stroke: #ffffff; stroke-width: 0.75"/>
     <use xlink:href="#mc91981e342" x="337.433032" y="172.820114" style="fill: #333333; stroke: #ffffff; stroke-width: 0.75"/>
     <use xlink:href="#mc91981e342" x="364.131597" y="187.053123" style="fill: #333333; stroke: #ffffff; stroke-width: 0.75"/>
     <use xlink:href="#mc91981e342" x="390.830161" y="209.204139" style="fill: #333333; stroke: #ffffff; stroke-width: 0.75"/>
     <use xlink:href="#mc91981e342" x="417.528726" y="203.932914" style="fill: #333333; stroke: #ffffff; stroke-width: 0.75"/>
     <use xlink:href="#mc91981e342" x="444.227291" y="184.169936" style="fill: #333333; stroke: #ffffff; stroke-width: 0.75"/>
     <use xlink:href="#mc91981e342" x="470.925855" y="172.420724" style="fill: #333333; stroke: #ffffff; stroke-width: 0.75"/>
     <use xlink:href="#mc91981e342" x="497.62442" y="217.122381" style="fill: #333333; stroke: #ffffff; stroke-width: 0.75"/>
     <use xlink:href="#mc91981e342" x="524.322984" y="181.630413" style="fill: #333333; stroke: #ffffff; stroke-width: 0.75"/>
     <use xlink:href="#mc91981e342" x="551.021549" y="155.01827" style="fill: #333333; stroke: #ffffff; stroke-width: 0.75"/>
     <use xlink:href="#mc91981e342" x="577.720114" y="161.047902" style="fill: #333333; stroke: #ffffff; stroke-width: 0.75"/>
    </g>
   </g>
   <g id="line2d_28">
    <path d="M 70.447386 306.044978 
L 97.145951 283.802847 
L 123.844516 291.84305 
L 150.54308 284.522735 
L 177.241645 299.303923 
L 203.940209 303.2987 
L 230.638774 268.003831 
L 257.337339 294.206951 
L 284.035903 271.69189 
L 310.734468 260.973811 
L 337.433032 256.519951 
L 364.131597 287.458134 
L 390.830161 247.898018 
L 417.528726 277.374347 
L 444.227291 266.675864 
L 470.925855 274.195943 
L 497.62442 273.533767 
L 524.322984 287.154495 
L 551.021549 281.392629 
L 577.720114 283.879387 
" clip-path="url(#pd6accacedb)" style="fill: none; stroke: #35dc67; stroke-width: 1.5; stroke-linecap: square"/>
    <defs>
     <path id="m08a00be33d" d="M 0 3 
C 0.795609 3 1.55874 2.683901 2.12132 2.12132 
C 2.683901 1.55874 3 0.795609 3 0 
C 3 -0.795609 2.683901 -1.55874 2.12132 -2.12132 
C 1.55874 -2.683901 0.795609 -3 0 -3 
C -0.795609 -3 -1.55874 -2.683901 -2.12132 -2.12132 
C -2.683901 -1.55874 -3 -0.795609 -3 0 
C -3 0.795609 -2.683901 1.55874 -2.12132 2.12132 
C -1.55874 2.683901 -0.795609 3 0 3 
z
" style="stroke: #ffffff; stroke-width: 0.75"/>
    </defs>
    <g clip-path="url(#pd6accacedb)">
     <use xlink:href="#m08a00be33d" x="70.447386" y="306.044978" style="fill: #35dc67; stroke: #ffffff; stroke-width: 0.75"/>
     <use xlink:href="#m08a00be33d" x="97.145951" y="283.802847" style="fill: #35dc67; stroke: #ffffff; stroke-width: 0.75"/>
     <use xlink:href="#m08a00be33d" x="123.844516" y="291.84305" style="fill: #35dc67; stroke: #ffffff; stroke-width: 0.75"/>
     <use xlink:href="#m08a00be33d" x="150.54308" y="284.522735" style="fill: #35dc67; stroke: #ffffff; stroke-width: 0.75"/>
     <use xlink:href="#m08a00be33d" x="177.241645" y="299.303923" style="fill: #35dc67; stroke: #ffffff; stroke-width: 0.75"/>
     <use xlink:href="#m08a00be33d" x="203.940209" y="303.2987" style="fill: #35dc67; stroke: #ffffff; stroke-width: 0.75"/>
     <use xlink:href="#m08a00be33d" x="230.638774" y="268.003831" style="fill: #35dc67; stroke: #ffffff; stroke-width: 0.75"/>
     <use xlink:href="#m08a00be33d" x="257.337339" y="294.206951" style="fill: #35dc67; stroke: #ffffff; stroke-width: 0.75"/>
     <use xlink:href="#m08a00be33d" x="284.035903" y="271.69189" style="fill: #35dc67; stroke: #ffffff; stroke-width: 0.75"/>
     <use xlink:href="#m08a00be33d" x="310.734468" y="260.973811" style="fill: #35dc67; stroke: #ffffff; stroke-width: 0.75"/>
     <use xlink:href="#m08a00be33d" x="337.433032" y="256.519951" style="fill: #35dc67; stroke: #ffffff; stroke-width: 0.75"/>
     <use xlink:href="#m08a00be33d" x="364.131597" y="287.458134" style="fill: #35dc67; stroke: #ffffff; stroke-width: 0.75"/>
     <use xlink:href="#m08a00be33d" x="390.830161" y="247.898018" style="fill: #35dc67; stroke: #ffffff; stroke-width: 0.75"/>
     <use xlink:href="#m08a00be33d" x="417.528726" y="277.374347" style="fill: #35dc67; stroke: #ffffff; stroke-width: 0.75"/>
     <use xlink:href="#m08a00be33d" x="444.227291" y="266.675864" style="fill: #35dc67; stroke: #ffffff; stroke-width: 0.75"/>
     <use xlink:href="#m08a00be33d" x="470.925855" y="274.195943" style="fill: #35dc67; stroke: #ffffff; stroke-width: 0.75"/>
     <use xlink:href="#m08a00be33d" x="497.62442" y="273.533767" style="fill: #35dc67; stroke: #ffffff; stroke-width: 0.75"/>
     <use xlink:href="#m08a00be33d" x="524.322984" y="287.154495" style="fill: #35dc67; stroke: #ffffff; stroke-width: 0.75"/>
     <use xlink:href="#m08a00be33d" x="551.021549" y="281.392629" style="fill: #35dc67; stroke: #ffffff; stroke-width: 0.75"/>
     <use xlink:href="#m08a00be33d" x="577.720114" y="283.879387" style="fill: #35dc67; stroke: #ffffff; stroke-width: 0.75"/>
    </g>
   </g>
   <g id="line2d_29">
    <path d="M 70.447386 288.625108 
L 97.145951 290.209686 
L 123.844516 285.548897 
L 150.54308 277.350713 
L 177.241645 292.293594 
L 203.940209 280.134275 
L 230.638774 285.655097 
L 257.337339 280.709865 
L 284.035903 287.238149 
L 310.734468 279.817274 
L 337.433032 284.788275 
L 364.131597 281.185995 
L 390.830161 267.136879 
L 417.528726 266.933627 
L 444.227291 277.607793 
L 470.925855 281.521921 
L 497.62442 282.683169 
L 524.322984 276.455553 
L 551.021549 274.232067 
L 577.720114 295.120456 
" clip-path="url(#pd6accacedb)" style="fill: none; stroke: #007bff; stroke-width: 1.5; stroke-linecap: square"/>
    <defs>
     <path id="mfe0ded9347" d="M 0 3 
C 0.795609 3 1.55874 2.683901 2.12132 2.12132 
C 2.683901 1.55874 3 0.795609 3 0 
C 3 -0.795609 2.683901 -1.55874 2.12132 -2.12132 
C 1.55874 -2.683901 0.795609 -3 0 -3 
C -0.795609 -3 -1.55874 -2.683901 -2.12132 -2.12132 
C -2.683901 -1.55874 -3 -0.795609 -3 0 
C -3 0.795609 -2.683901 1.55874 -2.12132 2.12132 
C -1.55874 2.683901 -0.795609 3 0 3 
z
" style="stroke: #ffffff; stroke-width: 0.75"/>
    </defs>
    <g clip-path="url(#pd6accacedb)">
     <use xlink:href="#mfe0ded9347" x="70.447386" y="288.625108" style="fill: #007bff; stroke: #ffffff; stroke-width: 0.75"/>
     <use xlink:href="#mfe0ded9347" x="97.145951" y="290.209686" style="fill: #007bff; stroke: #ffffff; stroke-width: 0.75"/>
     <use xlink:href="#mfe0ded9347" x="123.844516" y="285.548897" style="fill: #007bff; stroke: #ffffff; stroke-width: 0.75"/>
     <use xlink:href="#mfe0ded9347" x="150.54308" y="277.350713" style="fill: #007bff; stroke: #ffffff; stroke-width: 0.75"/>
     <use xlink:href="#mfe0ded9347" x="177.241645" y="292.293594" style="fill: #007bff; stroke: #ffffff; stroke-width: 0.75"/>
     <use xlink:href="#mfe0ded9347" x="203.940209" y="280.134275" style="fill: #007bff; stroke: #ffffff; stroke-width: 0.75"/>
     <use xlink:href="#mfe0ded9347" x="230.638774" y="285.655097" style="fill: #007bff; stroke: #ffffff; stroke-width: 0.75"/>
     <use xlink:href="#mfe0ded9347" x="257.337339" y="280.709865" style="fill: #007bff; stroke: #ffffff; stroke-width: 0.75"/>
     <use xlink:href="#mfe0ded9347" x="284.035903" y="287.238149" style="fill: #007bff; stroke: #ffffff; stroke-width: 0.75"/>
     <use xlink:href="#mfe0ded9347" x="310.734468" y="279.817274" style="fill: #007bff; stroke: #ffffff; stroke-width: 0.75"/>
     <use xlink:href="#mfe0ded9347" x="337.433032" y="284.788275" style="fill: #007bff; stroke: #ffffff; stroke-width: 0.75"/>
     <use xlink:href="#mfe0ded9347" x="364.131597" y="281.185995" style="fill: #007bff; stroke: #ffffff; stroke-width: 0.75"/>
     <use xlink:href="#mfe0ded9347" x="390.830161" y="267.136879" style="fill: #007bff; stroke: #ffffff; stroke-width: 0.75"/>
     <use xlink:href="#mfe0ded9347" x="417.528726" y="266.933627" style="fill: #007bff; stroke: #ffffff; stroke-width: 0.75"/>
     <use xlink:href="#mfe0ded9347" x="444.227291" y="277.607793" style="fill: #007bff; stroke: #ffffff; stroke-width: 0.75"/>
     <use xlink:href="#mfe0ded9347" x="470.925855" y="281.521921" style="fill: #007bff; stroke: #ffffff; stroke-width: 0.75"/>
     <use xlink:href="#mfe0ded9347" x="497.62442" y="282.683169" style="fill: #007bff; stroke: #ffffff; stroke-width: 0.75"/>
     <use xlink:href="#mfe0ded9347" x="524.322984" y="276.455553" style="fill: #007bff; stroke: #ffffff; stroke-width: 0.75"/>
     <use xlink:href="#mfe0ded9347" x="551.021549" y="274.232067" style="fill: #007bff; stroke: #ffffff; stroke-width: 0.75"/>
     <use xlink:href="#mfe0ded9347" x="577.720114" y="295.120456" style="fill: #007bff; stroke: #ffffff; stroke-width: 0.75"/>
    </g>
   </g>
   <g id="line2d_30"/>
   <g id="line2d_31"/>
   <g id="line2d_32"/>
   <g id="patch_3">
    <path d="M 45.08375 356.78175 
L 45.08375 24.14175 
" style="fill: none; stroke: #000000; stroke-width: 0.8; stroke-linejoin: miter; stroke-linecap: square"/>
   </g>
   <g id="patch_4">
    <path d="M 603.08375 356.78175 
L 603.08375 24.14175 
" style="fill: none; stroke: #000000; stroke-width: 0.8; stroke-linejoin: miter; stroke-linecap: square"/>
   </g>
   <g id="patch_5">
    <path d="M 45.08375 356.78175 
L 603.08375 356.78175 
" style="fill: none; stroke: #000000; stroke-width: 0.8; stroke-linejoin: miter; stroke-linecap: square"/>
   </g>
   <g id="patch_6">
    <path d="M 45.08375 24.14175 
L 603.08375 24.14175 
" style="fill: none; stroke: #000000; stroke-width: 0.8; stroke-linejoin: miter; stroke-linecap: square"/>
   </g>
   <g id="text_16">
    <!-- WPM Learning Curve  -->
    <g transform="translate(247.044875 18.14175) scale(0.144 -0.144)">
     <defs>
      <path id="DejaVuSans-20" transform="scale(0.015625)"/>
      <path id="DejaVuSans-4c" d="M 628 4666 
L 1259 4666 
L 1259 531 
L 3531 531 
L 3531 0 
L 628 0 
L 628 4666 
z
" transform="scale(0.015625)"/>
      <path id="DejaVuSans-65" d="M 3597 1894 
L 3597 1613 
L 953 1613 
Q 991 1019 1311 708 
Q 1631 397 2203 397 
Q 2534 397 2845 478 
Q 3156 559 3463 722 
L 3463 178 
Q 3153 47 2828 -22 
Q 2503 -91 2169 -91 
Q 1331 -91 842 396 
Q 353 884 353 1716 
Q 353 2575 817 3079 
Q 1281 3584 2069 3584 
Q 2775 3584 3186 3129 
Q 3597 2675 3597 1894 
z
M 3022 2063 
Q 3016 2534 2758 2815 
Q 2500 3097 2075 3097 
Q 1594 3097 1305 2825 
Q 1016 2553 972 2059 
L 3022 2063 
z
" transform="scale(0.015625)"/>
      <path id="DejaVuSans-6e" d="M 3513 2113 
L 3513 0 
L 2938 0 
L 2938 2094 
Q 2938 2591 2744 2837 
Q 2550 3084 2163 3084 
Q 1697 3084 1428 2787 
Q 1159 2491 1159 1978 
L 1159 0 
L 581 0 
L 581 3500 
L 1159 3500 
L 1159 2956 
Q 1366 3272 1645 3428 
Q 1925 3584 2291 3584 
Q 2894 3584 3203 3211 
Q 3513 2838 3513 2113 
z
" transform="scale(0.015625)"/>
      <path id="DejaVuSans-67" d="M 2906 1791 
Q 2906 2416 2648 2759 
Q 2391 3103 1925 3103 
Q 1463 3103 1205 2759 
Q 947 2416 947 1791 
Q 947 1169 1205 825 
Q 1463 481 1925 481 
Q 2391 481 2648 825 
Q 2906 1169 2906 1791 
z
M 3481 434 
Q 3481 -459 3084 -895 
Q 2688 -1331 1869 -1331 
Q 1566 -1331 1297 -1286 
Q 1028 -1241 775 -1147 
L 775 -588 
Q 1028 -725 1275 -790 
Q 1522 -856 1778 -856 
Q 2344 -856 2625 -561 
Q 2906 -266 2906 331 
L 2906 616 
Q 2728 306 2450 153 
Q 2172 0 1784 0 
Q 1141 0 747 490 
Q 353 981 353 1791 
Q 353 2603 747 3093 
Q 1141 3584 1784 3584 
Q 2172 3584 2450 3431 
Q 2728 3278 2906 2969 
L 2906 3500 
L 3481 3500 
L 3481 434 
z
" transform="scale(0.015625)"/>
      <path id="DejaVuSans-43" d="M 4122 4306 
L 4122 3641 
Q 3803 3938 3442 4084 
Q 3081 4231 2675 4231 
Q 1875 4231 1450 3742 
Q 1025 3253 1025 2328 
Q 1025 1406 1450 917 
Q 1875 428 2675 428 
Q 3081 428 3442 575 
Q 3803 722 4122 1019 
L 4122 359 
Q 3791 134 3420 21 
Q 3050 -91 2638 -91 
Q 1578 -91 968 557 
Q 359 1206 359 2328 
Q 359 3453 968 4101 
Q 1578 4750 2638 4750 
Q 3056 4750 3426 4639 
Q 3797 4528 4122 4306 
z
" transform="scale(0.015625)"/>
      <path id="DejaVuSans-75" d="M 544 1381 
L 544 3500 
L 1119 3500 
L 1119 1403 
Q 1119 906 1312 657 
Q 1506 409 1894 409 
Q 2359 409 2629 706 
Q 2900 1003 2900 1516 
L 2900 3500 
L 3475 3500 
L 3475 0 
L 2900 0 
L 2900 538 
Q 2691 219 2414 64 
Q 2138 -91 1772 -91 
Q 1169 -91 856 284 
Q 544 659 544 1381 
z
M 1991 3584 
L 1991 3584 
z
" transform="scale(0.015625)"/>
      <path id="DejaVuSans-76" d="M 191 3500 
L 800 3500 
L 1894 563 
L 2988 3500 
L 3597 3500 
L 2284 0 
L 1503 0 
L 191 3500 
z
" transform="scale(0.015625)"/>
     </defs>
     <use xlink:href="#DejaVuSans-57"/>
     <use xlink:href="#DejaVuSans-50" transform="translate(98.876953 0)"/>
     <use xlink:href="#DejaVuSans-4d" transform="translate(159.179688 0)"/>
     <use xlink:href="#DejaVuSans-20" transform="translate(245.458984 0)"/>
     <use xlink:href="#DejaVuSans-4c" transform="translate(277.246094 0)"/>
     <use xlink:href="#DejaVuSans-65" transform="translate(331.208984 0)"/>
     <use xlink:href="#DejaVuSans-61" transform="translate(392.732422 0)"/>
     <use xlink:href="#DejaVuSans-72" transform="translate(454.011719 0)"/>
     <use xlink:href="#DejaVuSans-6e" transform="translate(493.375 0)"/>
     <use xlink:href="#DejaVuSans-69" transform="translate(556.753906 0)"/>
     <use xlink:href="#DejaVuSans-6e" transform="translate(584.537109 0)"/>
     <use xlink:href="#DejaVuSans-67" transform="translate(647.916016 0)"/>
     <use xlink:href="#DejaVuSans-20" transform="translate(711.392578 0)"/>
     <use xlink:href="#DejaVuSans-43" transform="translate(743.179688 0)"/>
     <use xlink:href="#DejaVuSans-75" transform="translate(813.003906 0)"/>
     <use xlink:href="#DejaVuSans-72" transform="translate(876.382812 0)"/>
     <use xlink:href="#DejaVuSans-76" transform="translate(917.496094 0)"/>
     <use xlink:href="#DejaVuSans-65" transform="translate(976.675781 0)"/>
     <use xlink:href="#DejaVuSans-20" transform="translate(1038.199219 0)"/>
    </g>
   </g>
   <g id="legend_1">
    <g id="patch_7">
     <path d="M 53.48375 104.19675 
L 150.905 104.19675 
Q 153.305 104.19675 153.305 101.79675 
L 153.305 32.54175 
Q 153.305 30.14175 150.905 30.14175 
L 53.48375 30.14175 
Q 51.08375 30.14175 51.08375 32.54175 
L 51.08375 101.79675 
Q 51.08375 104.19675 53.48375 104.19675 
z
" style="fill: #ffffff; opacity: 0.8; stroke: #cccccc; stroke-linejoin: miter"/>
    </g>
    <g id="text_17">
     <!-- Condition -->
     <g transform="translate(73.562188 44.059875) scale(0.12 -0.12)">
      <defs>
       <path id="DejaVuSans-6f" d="M 1959 3097 
Q 1497 3097 1228 2736 
Q 959 2375 959 1747 
Q 959 1119 1226 758 
Q 1494 397 1959 397 
Q 2419 397 2687 759 
Q 2956 1122 2956 1747 
Q 2956 2369 2687 2733 
Q 2419 3097 1959 3097 
z
M 1959 3584 
Q 2709 3584 3137 3096 
Q 3566 2609 3566 1747 
Q 3566 888 3137 398 
Q 2709 -91 1959 -91 
Q 1206 -91 779 398 
Q 353 888 353 1747 
Q 353 2609 779 3096 
Q 1206 3584 1959 3584 
z
" transform="scale(0.015625)"/>
       <path id="DejaVuSans-64" d="M 2906 2969 
L 2906 4863 
L 3481 4863 
L 3481 0 
L 2906 0 
L 2906 525 
Q 2725 213 2448 61 
Q 2172 -91 1784 -91 
Q 1150 -91 751 415 
Q 353 922 353 1747 
Q 353 2572 751 3078 
Q 1150 3584 1784 3584 
Q 2172 3584 2448 3432 
Q 2725 3281 2906 2969 
z
M 947 1747 
Q 947 1113 1208 752 
Q 1469 391 1925 391 
Q 2381 391 2643 752 
Q 2906 1113 2906 1747 
Q 2906 2381 2643 2742 
Q 2381 3103 1925 3103 
Q 1469 3103 1208 2742 
Q 947 2381 947 1747 
z
" transform="scale(0.015625)"/>
       <path id="DejaVuSans-74" d="M 1172 4494 
L 1172 3500 
L 2356 3500 
L 2356 3053 
L 1172 3053 
L 1172 1153 
Q 1172 725 1289 603 
Q 1406 481 1766 481 
L 2356 481 
L 2356 0 
L 1766 0 
Q 1100 0 847 248 
Q 594 497 594 1153 
L 594 3053 
L 172 3053 
L 172 3500 
L 594 3500 
L 594 4494 
L 1172 4494 
z
" transform="scale(0.015625)"/>
      </defs>
      <use xlink:href="#DejaVuSans-43"/>
      <use xlink:href="#DejaVuSans-6f" transform="translate(69.824219 0)"/>
      <use xlink:href="#DejaVuSans-6e" transform="translate(131.005859 0)"/>
      <use xlink:href="#DejaVuSans-64" transform="translate(194.384766 0)"/>
      <use xlink:href="#DejaVuSans-69" transform="translate(257.861328 0)"/>
      <use xlink:href="#DejaVuSans-74" transform="translate(285.644531 0)"/>
      <use xlink:href="#DejaVuSans-69" transform="translate(324.853516 0)"/>
      <use xlink:href="#DejaVuSans-6f" transform="translate(352.636719 0)"/>
      <use xlink:href="#DejaVuSans-6e" transform="translate(413.818359 0)"/>
     </g>
    </g>
    <g id="line2d_33">
     <path d="M 55.88375 57.473625 
L 67.88375 57.473625 
L 79.88375 57.473625 
" style="fill: none; stroke: #333333; stroke-width: 1.5; stroke-linecap: square"/>
     <g>
      <use xlink:href="#mc91981e342" x="67.88375" y="57.473625" style="fill: #333333; stroke: #ffffff; stroke-width: 0.75"/>
     </g>
    </g>
    <g id="text_18">
     <!-- Keyboard -->
     <g transform="translate(89.48375 61.673625) scale(0.12 -0.12)">
      <defs>
       <path id="DejaVuSans-4b" d="M 628 4666 
L 1259 4666 
L 1259 2694 
L 3353 4666 
L 4166 4666 
L 1850 2491 
L 4331 0 
L 3500 0 
L 1259 2247 
L 1259 0 
L 628 0 
L 628 4666 
z
" transform="scale(0.015625)"/>
       <path id="DejaVuSans-79" d="M 2059 -325 
Q 1816 -950 1584 -1140 
Q 1353 -1331 966 -1331 
L 506 -1331 
L 506 -850 
L 844 -850 
Q 1081 -850 1212 -737 
Q 1344 -625 1503 -206 
L 1606 56 
L 191 3500 
L 800 3500 
L 1894 763 
L 2988 3500 
L 3597 3500 
L 2059 -325 
z
" transform="scale(0.015625)"/>
       <path id="DejaVuSans-62" d="M 3116 1747 
Q 3116 2381 2855 2742 
Q 2594 3103 2138 3103 
Q 1681 3103 1420 2742 
Q 1159 2381 1159 1747 
Q 1159 1113 1420 752 
Q 1681 391 2138 391 
Q 2594 391 2855 752 
Q 3116 1113 3116 1747 
z
M 1159 2969 
Q 1341 3281 1617 3432 
Q 1894 3584 2278 3584 
Q 2916 3584 3314 3078 
Q 3713 2572 3713 1747 
Q 3713 922 3314 415 
Q 2916 -91 2278 -91 
Q 1894 -91 1617 61 
Q 1341 213 1159 525 
L 1159 0 
L 581 0 
L 581 4863 
L 1159 4863 
L 1159 2969 
z
" transform="scale(0.015625)"/>
      </defs>
      <use xlink:href="#DejaVuSans-4b"/>
      <use xlink:href="#DejaVuSans-65" transform="translate(60.576172 0)"/>
      <use xlink:href="#DejaVuSans-79" transform="translate(122.099609 0)"/>
      <use xlink:href="#DejaVuSans-62" transform="translate(181.279297 0)"/>
      <use xlink:href="#DejaVuSans-6f" transform="translate(244.755859 0)"/>
      <use xlink:href="#DejaVuSans-61" transform="translate(305.9375 0)"/>
      <use xlink:href="#DejaVuSans-72" transform="translate(367.216797 0)"/>
      <use xlink:href="#DejaVuSans-64" transform="translate(406.580078 0)"/>
     </g>
    </g>
    <g id="line2d_34">
     <path d="M 55.88375 75.087375 
L 67.88375 75.087375 
L 79.88375 75.087375 
" style="fill: none; stroke: #35dc67; stroke-width: 1.5; stroke-linecap: square"/>
     <g>
      <use xlink:href="#m08a00be33d" x="67.88375" y="75.087375" style="fill: #35dc67; stroke: #ffffff; stroke-width: 0.75"/>
     </g>
    </g>
    <g id="text_19">
     <!-- Proposed -->
     <g transform="translate(89.48375 79.287375) scale(0.12 -0.12)">
      <defs>
       <path id="DejaVuSans-70" d="M 1159 525 
L 1159 -1331 
L 581 -1331 
L 581 3500 
L 1159 3500 
L 1159 2969 
Q 1341 3281 1617 3432 
Q 1894 3584 2278 3584 
Q 2916 3584 3314 3078 
Q 3713 2572 3713 1747 
Q 3713 922 3314 415 
Q 2916 -91 2278 -91 
Q 1894 -91 1617 61 
Q 1341 213 1159 525 
z
M 3116 1747 
Q 3116 2381 2855 2742 
Q 2594 3103 2138 3103 
Q 1681 3103 1420 2742 
Q 1159 2381 1159 1747 
Q 1159 1113 1420 752 
Q 1681 391 2138 391 
Q 2594 391 2855 752 
Q 3116 1113 3116 1747 
z
" transform="scale(0.015625)"/>
       <path id="DejaVuSans-73" d="M 2834 3397 
L 2834 2853 
Q 2591 2978 2328 3040 
Q 2066 3103 1784 3103 
Q 1356 3103 1142 2972 
Q 928 2841 928 2578 
Q 928 2378 1081 2264 
Q 1234 2150 1697 2047 
L 1894 2003 
Q 2506 1872 2764 1633 
Q 3022 1394 3022 966 
Q 3022 478 2636 193 
Q 2250 -91 1575 -91 
Q 1294 -91 989 -36 
Q 684 19 347 128 
L 347 722 
Q 666 556 975 473 
Q 1284 391 1588 391 
Q 1994 391 2212 530 
Q 2431 669 2431 922 
Q 2431 1156 2273 1281 
Q 2116 1406 1581 1522 
L 1381 1569 
Q 847 1681 609 1914 
Q 372 2147 372 2553 
Q 372 3047 722 3315 
Q 1072 3584 1716 3584 
Q 2034 3584 2315 3537 
Q 2597 3491 2834 3397 
z
" transform="scale(0.015625)"/>
      </defs>
      <use xlink:href="#DejaVuSans-50"/>
      <use xlink:href="#DejaVuSans-72" transform="translate(58.552734 0)"/>
      <use xlink:href="#DejaVuSans-6f" transform="translate(97.416016 0)"/>
      <use xlink:href="#DejaVuSans-70" transform="translate(158.597656 0)"/>
      <use xlink:href="#DejaVuSans-6f" transform="translate(222.074219 0)"/>
      <use xlink:href="#DejaVuSans-73" transform="translate(283.255859 0)"/>
      <use xlink:href="#DejaVuSans-65" transform="translate(335.355469 0)"/>
      <use xlink:href="#DejaVuSans-64" transform="translate(396.878906 0)"/>
     </g>
    </g>
    <g id="line2d_35">
     <path d="M 55.88375 92.701125 
L 67.88375 92.701125 
L 79.88375 92.701125 
" style="fill: none; stroke: #007bff; stroke-width: 1.5; stroke-linecap: square"/>
     <g>
      <use xlink:href="#mfe0ded9347" x="67.88375" y="92.701125" style="fill: #007bff; stroke: #ffffff; stroke-width: 0.75"/>
     </g>
    </g>
    <g id="text_20">
     <!-- Controller -->
     <g transform="translate(89.48375 96.901125) scale(0.12 -0.12)">
      <use xlink:href="#DejaVuSans-43"/>
      <use xlink:href="#DejaVuSans-6f" transform="translate(69.824219 0)"/>
      <use xlink:href="#DejaVuSans-6e" transform="translate(131.005859 0)"/>
      <use xlink:href="#DejaVuSans-74" transform="translate(194.384766 0)"/>
      <use xlink:href="#DejaVuSans-72" transform="translate(233.59375 0)"/>
      <use xlink:href="#DejaVuSans-6f" transform="translate(272.457031 0)"/>
      <use xlink:href="#DejaVuSans-6c" transform="translate(333.638672 0)"/>
      <use xlink:href="#DejaVuSans-6c" transform="translate(361.421875 0)"/>
      <use xlink:href="#DejaVuSans-65" transform="translate(389.205078 0)"/>
      <use xlink:href="#DejaVuSans-72" transform="translate(450.728516 0)"/>
     </g>
    </g>
   </g>
  </g>
 </g>
 <defs>
  <clipPath id="pd6accacedb">
   <rect x="45.08375" y="24.14175" width="558" height="332.64"/>
  </clipPath>
 </defs>
</svg>
