<?xml version="1.0" encoding="utf-8" standalone="no"?>
<!DOCTYPE svg PUBLIC "-//W3C//DTD SVG 1.1//EN"
  "http://www.w3.org/Graphics/SVG/1.1/DTD/svg11.dtd">
<svg xmlns:xlink="http://www.w3.org/1999/xlink" width="506.928125pt" height="392.514375pt" viewBox="0 0 506.928125 392.514375" xmlns="http://www.w3.org/2000/svg" version="1.1">
 <metadata>
  <rdf:RDF xmlns:dc="http://purl.org/dc/elements/1.1/" xmlns:cc="http://creativecommons.org/ns#" xmlns:rdf="http://www.w3.org/1999/02/22-rdf-syntax-ns#">
   <cc:Work>
    <dc:type rdf:resource="http://purl.org/dc/dcmitype/StillImage"/>
    <dc:date>2026-01-28T23:54:21.501556</dc:date>
    <dc:format>image/svg+xml</dc:format>
    <dc:creator>
     <cc:Agent>
      <dc:title>Matplotlib v3.10.8, https://matplotlib.org/</dc:title>
     </cc:Agent>
    </dc:creator>
   </cc:Work>
  </rdf:RDF>
 </metadata>
 <defs>
  <style type="text/css">*{stroke-linejoin: round; stroke-linecap: butt}</style>
 </defs>
 <g id="figure_1">
  <g id="patch_1">
   <path d="M 0 392.514375 
L 506.928125 392.514375 
L 506.928125 0 
L 0 0 
z
" style="fill: #ffffff"/>
  </g>
  <g id="axes_1">
   <g id="patch_2">
    <path d="M 53.328125 354.958125 
L 499.728125 354.958125 
L 499.728125 22.318125 
L 53.328125 22.318125 
z
" style="fill: #ffffff"/>
   </g>
   <g id="matplotlib.axis_1">
    <g id="xtick_1">
     <g id="line2d_1">
      <defs>
       <path id="m8ec84b2d02" d="M 0 0 
L 0 3.5 
" style="stroke: #000000; stroke-width: 0.8"/>
      </defs>
      <g>
       <use xlink:href="#m8ec84b2d02" x="163.800852" y="354.958125" style="stroke: #000000; stroke-width: 0.8"/>
      </g>
     </g>
     <g id="text_1">
      <!-- HandyKey4VR -->
      <g transform="translate(128.533665 369.556562) scale(0.1 -0.1)">
       <defs>
        <path id="DejaVuSans-48" d="M 628 4666 
L 1259 4666 
L 1259 2753 
L 3553 2753 
L 3553 4666 
L 4184 4666 
L 4184 0 
L 3553 0 
L 3553 2222 
L 1259 2222 
L 1259 0 
L 628 0 
L 628 4666 
z
" transform="scale(0.015625)"/>
        <path id="DejaVuSans-61" d="M 2194 1759 
Q 1497 1759 1228 1600 
Q 959 1441 959 1056 
Q 959 750 1161 570 
Q 1363 391 1709 391 
Q 2188 391 2477 730 
Q 2766 1069 2766 1631 
L 2766 1759 
L 2194 1759 
z
M 3341 1997 
L 3341 0 
L 2766 0 
L 2766 531 
Q 2569 213 2275 61 
Q 1981 -91 1556 -91 
Q 1019 -91 701 211 
Q 384 513 384 1019 
Q 384 1609 779 1909 
Q 1175 2209 1959 2209 
L 2766 2209 
L 2766 2266 
Q 2766 2663 2505 2880 
Q 2244 3097 1772 3097 
Q 1472 3097 1187 3025 
Q 903 2953 641 2809 
L 641 3341 
Q 956 3463 1253 3523 
Q 1550 3584 1831 3584 
Q 2591 3584 2966 3190 
Q 3341 2797 3341 1997 
z
" transform="scale(0.015625)"/>
        <path id="DejaVuSans-6e" d="M 3513 2113 
L 3513 0 
L 2938 0 
L 2938 2094 
Q 2938 2591 2744 2837 
Q 2550 3084 2163 3084 
Q 1697 3084 1428 2787 
Q 1159 2491 1159 1978 
L 1159 0 
L 581 0 
L 581 3500 
L 1159 3500 
L 1159 2956 
Q 1366 3272 1645 3428 
Q 1925 3584 2291 3584 
Q 2894 3584 3203 3211 
Q 3513 2838 3513 2113 
z
" transform="scale(0.015625)"/>
        <path id="DejaVuSans-64" d="M 2906 2969 
L 2906 4863 
L 3481 4863 
L 3481 0 
L 2906 0 
L 2906 525 
Q 2725 213 2448 61 
Q 2172 -91 1784 -91 
Q 1150 -91 751 415 
Q 353 922 353 1747 
Q 353 2572 751 3078 
Q 1150 3584 1784 3584 
Q 2172 3584 2448 3432 
Q 2725 3281 2906 2969 
z
M 947 1747 
Q 947 1113 1208 752 
Q 1469 391 1925 391 
Q 2381 391 2643 752 
Q 2906 1113 2906 1747 
Q 2906 2381 2643 2742 
Q 2381 3103 1925 3103 
Q 1469 3103 1208 2742 
Q 947 2381 947 1747 
z
" transform="scale(0.015625)"/>
        <path id="DejaVuSans-79" d="M 2059 -325 
Q 1816 -950 1584 -1140 
Q 1353 -1331 966 -1331 
L 506 -1331 
L 506 -850 
L 844 -850 
Q 1081 -850 1212 -737 
Q 1344 -625 1503 -206 
L 1606 56 
L 191 3500 
L 800 3500 
L 1894 763 
L 2988 3500 
L 3597 3500 
L 2059 -325 
z
" transform="scale(0.015625)"/>
        <path id="DejaVuSans-4b" d="M 628 4666 
L 1259 4666 
L 1259 2694 
L 3353 4666 
L 4166 4666 
L 1850 2491 
L 4331 0 
L 3500 0 
L 1259 2247 
L 1259 0 
L 628 0 
L 628 4666 
z
" transform="scale(0.015625)"/>
        <path id="DejaVuSans-65" d="M 3597 1894 
L 3597 1613 
L 953 1613 
Q 991 1019 1311 708 
Q 1631 397 2203 397 
Q 2534 397 2845 478 
Q 3156 559 3463 722 
L 3463 178 
Q 3153 47 2828 -22 
Q 2503 -91 2169 -91 
Q 1331 -91 842 396 
Q 353 884 353 1716 
Q 353 2575 817 3079 
Q 1281 3584 2069 3584 
Q 2775 3584 3186 3129 
Q 3597 2675 3597 1894 
z
M 3022 2063 
Q 3016 2534 2758 2815 
Q 2500 3097 2075 3097 
Q 1594 3097 1305 2825 
Q 1016 2553 972 2059 
L 3022 2063 
z
" transform="scale(0.015625)"/>
        <path id="DejaVuSans-34" d="M 2419 4116 
L 825 1625 
L 2419 1625 
L 2419 4116 
z
M 2253 4666 
L 3047 4666 
L 3047 1625 
L 3713 1625 
L 3713 1100 
L 3047 1100 
L 3047 0 
L 2419 0 
L 2419 1100 
L 313 1100 
L 313 1709 
L 2253 4666 
z
" transform="scale(0.015625)"/>
        <path id="DejaVuSans-56" d="M 1831 0 
L 50 4666 
L 709 4666 
L 2188 738 
L 3669 4666 
L 4325 4666 
L 2547 0 
L 1831 0 
z
" transform="scale(0.015625)"/>
        <path id="DejaVuSans-52" d="M 2841 2188 
Q 3044 2119 3236 1894 
Q 3428 1669 3622 1275 
L 4263 0 
L 3584 0 
L 2988 1197 
Q 2756 1666 2539 1819 
Q 2322 1972 1947 1972 
L 1259 1972 
L 1259 0 
L 628 0 
L 628 4666 
L 2053 4666 
Q 2853 4666 3247 4331 
Q 3641 3997 3641 3322 
Q 3641 2881 3436 2590 
Q 3231 2300 2841 2188 
z
M 1259 4147 
L 1259 2491 
L 2053 2491 
Q 2509 2491 2742 2702 
Q 2975 2913 2975 3322 
Q 2975 3731 2742 3939 
Q 2509 4147 2053 4147 
L 1259 4147 
z
" transform="scale(0.015625)"/>
       </defs>
       <use xlink:href="#DejaVuSans-48"/>
       <use xlink:href="#DejaVuSans-61" transform="translate(75.195312 0)"/>
       <use xlink:href="#DejaVuSans-6e" transform="translate(136.474609 0)"/>
       <use xlink:href="#DejaVuSans-64" transform="translate(199.853516 0)"/>
       <use xlink:href="#DejaVuSans-79" transform="translate(263.330078 0)"/>
       <use xlink:href="#DejaVuSans-4b" transform="translate(322.509766 0)"/>
       <use xlink:href="#DejaVuSans-65" transform="translate(383.085938 0)"/>
       <use xlink:href="#DejaVuSans-79" transform="translate(444.609375 0)"/>
       <use xlink:href="#DejaVuSans-34" transform="translate(503.789062 0)"/>
       <use xlink:href="#DejaVuSans-56" transform="translate(567.412109 0)"/>
       <use xlink:href="#DejaVuSans-52" transform="translate(635.820312 0)"/>
      </g>
     </g>
    </g>
    <g id="xtick_2">
     <g id="line2d_2">
      <g>
       <use xlink:href="#m8ec84b2d02" x="389.255398" y="354.958125" style="stroke: #000000; stroke-width: 0.8"/>
      </g>
     </g>
     <g id="text_2">
      <!-- Controller -->
      <g transform="translate(364.66321 369.556562) scale(0.1 -0.1)">
       <defs>
        <path id="DejaVuSans-43" d="M 4122 4306 
L 4122 3641 
Q 3803 3938 3442 4084 
Q 3081 4231 2675 4231 
Q 1875 4231 1450 3742 
Q 1025 3253 1025 2328 
Q 1025 1406 1450 917 
Q 1875 428 2675 428 
Q 3081 428 3442 575 
Q 3803 722 4122 1019 
L 4122 359 
Q 3791 134 3420 21 
Q 3050 -91 2638 -91 
Q 1578 -91 968 557 
Q 359 1206 359 2328 
Q 359 3453 968 4101 
Q 1578 4750 2638 4750 
Q 3056 4750 3426 4639 
Q 3797 4528 4122 4306 
z
" transform="scale(0.015625)"/>
        <path id="DejaVuSans-6f" d="M 1959 3097 
Q 1497 3097 1228 2736 
Q 959 2375 959 1747 
Q 959 1119 1226 758 
Q 1494 397 1959 397 
Q 2419 397 2687 759 
Q 2956 1122 2956 1747 
Q 2956 2369 2687 2733 
Q 2419 3097 1959 3097 
z
M 1959 3584 
Q 2709 3584 3137 3096 
Q 3566 2609 3566 1747 
Q 3566 888 3137 398 
Q 2709 -91 1959 -91 
Q 1206 -91 779 398 
Q 353 888 353 1747 
Q 353 2609 779 3096 
Q 1206 3584 1959 3584 
z
" transform="scale(0.015625)"/>
        <path id="DejaVuSans-74" d="M 1172 4494 
L 1172 3500 
L 2356 3500 
L 2356 3053 
L 1172 3053 
L 1172 1153 
Q 1172 725 1289 603 
Q 1406 481 1766 481 
L 2356 481 
L 2356 0 
L 1766 0 
Q 1100 0 847 248 
Q 594 497 594 1153 
L 594 3053 
L 172 3053 
L 172 3500 
L 594 3500 
L 594 4494 
L 1172 4494 
z
" transform="scale(0.015625)"/>
        <path id="DejaVuSans-72" d="M 2631 2963 
Q 2534 3019 2420 3045 
Q 2306 3072 2169 3072 
Q 1681 3072 1420 2755 
Q 1159 2438 1159 1844 
L 1159 0 
L 581 0 
L 581 3500 
L 1159 3500 
L 1159 2956 
Q 1341 3275 1631 3429 
Q 1922 3584 2338 3584 
Q 2397 3584 2469 3576 
Q 2541 3569 2628 3553 
L 2631 2963 
z
" transform="scale(0.015625)"/>
        <path id="DejaVuSans-6c" d="M 603 4863 
L 1178 4863 
L 1178 0 
L 603 0 
L 603 4863 
z
" transform="scale(0.015625)"/>
       </defs>
       <use xlink:href="#DejaVuSans-43"/>
       <use xlink:href="#DejaVuSans-6f" transform="translate(69.824219 0)"/>
       <use xlink:href="#DejaVuSans-6e" transform="translate(131.005859 0)"/>
       <use xlink:href="#DejaVuSans-74" transform="translate(194.384766 0)"/>
       <use xlink:href="#DejaVuSans-72" transform="translate(233.59375 0)"/>
       <use xlink:href="#DejaVuSans-6f" transform="translate(272.457031 0)"/>
       <use xlink:href="#DejaVuSans-6c" transform="translate(333.638672 0)"/>
       <use xlink:href="#DejaVuSans-6c" transform="translate(361.421875 0)"/>
       <use xlink:href="#DejaVuSans-65" transform="translate(389.205078 0)"/>
       <use xlink:href="#DejaVuSans-72" transform="translate(450.728516 0)"/>
      </g>
     </g>
    </g>
    <g id="text_3">
     <!-- Condition -->
     <g transform="translate(252.667969 383.234687) scale(0.1 -0.1)">
      <defs>
       <path id="DejaVuSans-69" d="M 603 3500 
L 1178 3500 
L 1178 0 
L 603 0 
L 603 3500 
z
M 603 4863 
L 1178 4863 
L 1178 4134 
L 603 4134 
L 603 4863 
z
" transform="scale(0.015625)"/>
      </defs>
      <use xlink:href="#DejaVuSans-43"/>
      <use xlink:href="#DejaVuSans-6f" transform="translate(69.824219 0)"/>
      <use xlink:href="#DejaVuSans-6e" transform="translate(131.005859 0)"/>
      <use xlink:href="#DejaVuSans-64" transform="translate(194.384766 0)"/>
      <use xlink:href="#DejaVuSans-69" transform="translate(257.861328 0)"/>
      <use xlink:href="#DejaVuSans-74" transform="translate(285.644531 0)"/>
      <use xlink:href="#DejaVuSans-69" transform="translate(324.853516 0)"/>
      <use xlink:href="#DejaVuSans-6f" transform="translate(352.636719 0)"/>
      <use xlink:href="#DejaVuSans-6e" transform="translate(413.818359 0)"/>
     </g>
    </g>
   </g>
   <g id="matplotlib.axis_2">
    <g id="ytick_1">
     <g id="line2d_3">
      <defs>
       <path id="mb487a1928b" d="M 0 0 
L -3.5 0 
" style="stroke: #000000; stroke-width: 0.8"/>
      </defs>
      <g>
       <use xlink:href="#mb487a1928b" x="53.328125" y="354.958125" style="stroke: #000000; stroke-width: 0.8"/>
      </g>
     </g>
     <g id="text_4">
      <!-- 0 -->
      <g transform="translate(39.965625 358.757344) scale(0.1 -0.1)">
       <defs>
        <path id="DejaVuSans-30" d="M 2034 4250 
Q 1547 4250 1301 3770 
Q 1056 3291 1056 2328 
Q 1056 1369 1301 889 
Q 1547 409 2034 409 
Q 2525 409 2770 889 
Q 3016 1369 3016 2328 
Q 3016 3291 2770 3770 
Q 2525 4250 2034 4250 
z
M 2034 4750 
Q 2819 4750 3233 4129 
Q 3647 3509 3647 2328 
Q 3647 1150 3233 529 
Q 2819 -91 2034 -91 
Q 1250 -91 836 529 
Q 422 1150 422 2328 
Q 422 3509 836 4129 
Q 1250 4750 2034 4750 
z
" transform="scale(0.015625)"/>
       </defs>
       <use xlink:href="#DejaVuSans-30"/>
      </g>
     </g>
    </g>
    <g id="ytick_2">
     <g id="line2d_4">
      <g>
       <use xlink:href="#mb487a1928b" x="53.328125" y="316.118849" style="stroke: #000000; stroke-width: 0.8"/>
      </g>
     </g>
     <g id="text_5">
      <!-- 500 -->
      <g transform="translate(27.240625 319.918068) scale(0.1 -0.1)">
       <defs>
        <path id="DejaVuSans-35" d="M 691 4666 
L 3169 4666 
L 3169 4134 
L 1269 4134 
L 1269 2991 
Q 1406 3038 1543 3061 
Q 1681 3084 1819 3084 
Q 2600 3084 3056 2656 
Q 3513 2228 3513 1497 
Q 3513 744 3044 326 
Q 2575 -91 1722 -91 
Q 1428 -91 1123 -41 
Q 819 9 494 109 
L 494 744 
Q 775 591 1075 516 
Q 1375 441 1709 441 
Q 2250 441 2565 725 
Q 2881 1009 2881 1497 
Q 2881 1984 2565 2268 
Q 2250 2553 1709 2553 
Q 1456 2553 1204 2497 
Q 953 2441 691 2322 
L 691 4666 
z
" transform="scale(0.015625)"/>
       </defs>
       <use xlink:href="#DejaVuSans-35"/>
       <use xlink:href="#DejaVuSans-30" transform="translate(63.623047 0)"/>
       <use xlink:href="#DejaVuSans-30" transform="translate(127.246094 0)"/>
      </g>
     </g>
    </g>
    <g id="ytick_3">
     <g id="line2d_5">
      <g>
       <use xlink:href="#mb487a1928b" x="53.328125" y="277.279573" style="stroke: #000000; stroke-width: 0.8"/>
      </g>
     </g>
     <g id="text_6">
      <!-- 1000 -->
      <g transform="translate(20.878125 281.078792) scale(0.1 -0.1)">
       <defs>
        <path id="DejaVuSans-31" d="M 794 531 
L 1825 531 
L 1825 4091 
L 703 3866 
L 703 4441 
L 1819 4666 
L 2450 4666 
L 2450 531 
L 3481 531 
L 3481 0 
L 794 0 
L 794 531 
z
" transform="scale(0.015625)"/>
       </defs>
       <use xlink:href="#DejaVuSans-31"/>
       <use xlink:href="#DejaVuSans-30" transform="translate(63.623047 0)"/>
       <use xlink:href="#DejaVuSans-30" transform="translate(127.246094 0)"/>
       <use xlink:href="#DejaVuSans-30" transform="translate(190.869141 0)"/>
      </g>
     </g>
    </g>
    <g id="ytick_4">
     <g id="line2d_6">
      <g>
       <use xlink:href="#mb487a1928b" x="53.328125" y="238.440297" style="stroke: #000000; stroke-width: 0.8"/>
      </g>
     </g>
     <g id="text_7">
      <!-- 1500 -->
      <g transform="translate(20.878125 242.239516) scale(0.1 -0.1)">
       <use xlink:href="#DejaVuSans-31"/>
       <use xlink:href="#DejaVuSans-35" transform="translate(63.623047 0)"/>
       <use xlink:href="#DejaVuSans-30" transform="translate(127.246094 0)"/>
       <use xlink:href="#DejaVuSans-30" transform="translate(190.869141 0)"/>
      </g>
     </g>
    </g>
    <g id="ytick_5">
     <g id="line2d_7">
      <g>
       <use xlink:href="#mb487a1928b" x="53.328125" y="199.601021" style="stroke: #000000; stroke-width: 0.8"/>
      </g>
     </g>
     <g id="text_8">
      <!-- 2000 -->
      <g transform="translate(20.878125 203.40024) scale(0.1 -0.1)">
       <defs>
        <path id="DejaVuSans-32" d="M 1228 531 
L 3431 531 
L 3431 0 
L 469 0 
L 469 531 
Q 828 903 1448 1529 
Q 2069 2156 2228 2338 
Q 2531 2678 2651 2914 
Q 2772 3150 2772 3378 
Q 2772 3750 2511 3984 
Q 2250 4219 1831 4219 
Q 1534 4219 1204 4116 
Q 875 4013 500 3803 
L 500 4441 
Q 881 4594 1212 4672 
Q 1544 4750 1819 4750 
Q 2544 4750 2975 4387 
Q 3406 4025 3406 3419 
Q 3406 3131 3298 2873 
Q 3191 2616 2906 2266 
Q 2828 2175 2409 1742 
Q 1991 1309 1228 531 
z
" transform="scale(0.015625)"/>
       </defs>
       <use xlink:href="#DejaVuSans-32"/>
       <use xlink:href="#DejaVuSans-30" transform="translate(63.623047 0)"/>
       <use xlink:href="#DejaVuSans-30" transform="translate(127.246094 0)"/>
       <use xlink:href="#DejaVuSans-30" transform="translate(190.869141 0)"/>
      </g>
     </g>
    </g>
    <g id="ytick_6">
     <g id="line2d_8">
      <g>
       <use xlink:href="#mb487a1928b" x="53.328125" y="160.761745" style="stroke: #000000; stroke-width: 0.8"/>
      </g>
     </g>
     <g id="text_9">
      <!-- 2500 -->
      <g transform="translate(20.878125 164.560964) scale(0.1 -0.1)">
       <use xlink:href="#DejaVuSans-32"/>
       <use xlink:href="#DejaVuSans-35" transform="translate(63.623047 0)"/>
       <use xlink:href="#DejaVuSans-30" transform="translate(127.246094 0)"/>
       <use xlink:href="#DejaVuSans-30" transform="translate(190.869141 0)"/>
      </g>
     </g>
    </g>
    <g id="ytick_7">
     <g id="line2d_9">
      <g>
       <use xlink:href="#mb487a1928b" x="53.328125" y="121.922469" style="stroke: #000000; stroke-width: 0.8"/>
      </g>
     </g>
     <g id="text_10">
      <!-- 3000 -->
      <g transform="translate(20.878125 125.721688) scale(0.1 -0.1)">
       <defs>
        <path id="DejaVuSans-33" d="M 2597 2516 
Q 3050 2419 3304 2112 
Q 3559 1806 3559 1356 
Q 3559 666 3084 287 
Q 2609 -91 1734 -91 
Q 1441 -91 1130 -33 
Q 819 25 488 141 
L 488 750 
Q 750 597 1062 519 
Q 1375 441 1716 441 
Q 2309 441 2620 675 
Q 2931 909 2931 1356 
Q 2931 1769 2642 2001 
Q 2353 2234 1838 2234 
L 1294 2234 
L 1294 2753 
L 1863 2753 
Q 2328 2753 2575 2939 
Q 2822 3125 2822 3475 
Q 2822 3834 2567 4026 
Q 2313 4219 1838 4219 
Q 1578 4219 1281 4162 
Q 984 4106 628 3988 
L 628 4550 
Q 988 4650 1302 4700 
Q 1616 4750 1894 4750 
Q 2613 4750 3031 4423 
Q 3450 4097 3450 3541 
Q 3450 3153 3228 2886 
Q 3006 2619 2597 2516 
z
" transform="scale(0.015625)"/>
       </defs>
       <use xlink:href="#DejaVuSans-33"/>
       <use xlink:href="#DejaVuSans-30" transform="translate(63.623047 0)"/>
       <use xlink:href="#DejaVuSans-30" transform="translate(127.246094 0)"/>
       <use xlink:href="#DejaVuSans-30" transform="translate(190.869141 0)"/>
      </g>
     </g>
    </g>
    <g id="ytick_8">
     <g id="line2d_10">
      <g>
       <use xlink:href="#mb487a1928b" x="53.328125" y="83.083193" style="stroke: #000000; stroke-width: 0.8"/>
      </g>
     </g>
     <g id="text_11">
      <!-- 3500 -->
      <g transform="translate(20.878125 86.882411) scale(0.1 -0.1)">
       <use xlink:href="#DejaVuSans-33"/>
       <use xlink:href="#DejaVuSans-35" transform="translate(63.623047 0)"/>
       <use xlink:href="#DejaVuSans-30" transform="translate(127.246094 0)"/>
       <use xlink:href="#DejaVuSans-30" transform="translate(190.869141 0)"/>
      </g>
     </g>
    </g>
    <g id="ytick_9">
     <g id="line2d_11">
      <g>
       <use xlink:href="#mb487a1928b" x="53.328125" y="44.243917" style="stroke: #000000; stroke-width: 0.8"/>
      </g>
     </g>
     <g id="text_12">
      <!-- 4000 -->
      <g transform="translate(20.878125 48.043135) scale(0.1 -0.1)">
       <use xlink:href="#DejaVuSans-34"/>
       <use xlink:href="#DejaVuSans-30" transform="translate(63.623047 0)"/>
       <use xlink:href="#DejaVuSans-30" transform="translate(127.246094 0)"/>
       <use xlink:href="#DejaVuSans-30" transform="translate(190.869141 0)"/>
      </g>
     </g>
    </g>
    <g id="text_13">
     <!-- Time (ms) -->
     <g transform="translate(14.798438 213.837344) rotate(-90) scale(0.1 -0.1)">
      <defs>
       <path id="DejaVuSans-54" d="M -19 4666 
L 3928 4666 
L 3928 4134 
L 2272 4134 
L 2272 0 
L 1638 0 
L 1638 4134 
L -19 4134 
L -19 4666 
z
" transform="scale(0.015625)"/>
       <path id="DejaVuSans-6d" d="M 3328 2828 
Q 3544 3216 3844 3400 
Q 4144 3584 4550 3584 
Q 5097 3584 5394 3201 
Q 5691 2819 5691 2113 
L 5691 0 
L 5113 0 
L 5113 2094 
Q 5113 2597 4934 2840 
Q 4756 3084 4391 3084 
Q 3944 3084 3684 2787 
Q 3425 2491 3425 1978 
L 3425 0 
L 2847 0 
L 2847 2094 
Q 2847 2600 2669 2842 
Q 2491 3084 2119 3084 
Q 1678 3084 1418 2786 
Q 1159 2488 1159 1978 
L 1159 0 
L 581 0 
L 581 3500 
L 1159 3500 
L 1159 2956 
Q 1356 3278 1631 3431 
Q 1906 3584 2284 3584 
Q 2666 3584 2933 3390 
Q 3200 3197 3328 2828 
z
" transform="scale(0.015625)"/>
       <path id="DejaVuSans-20" transform="scale(0.015625)"/>
       <path id="DejaVuSans-28" d="M 1984 4856 
Q 1566 4138 1362 3434 
Q 1159 2731 1159 2009 
Q 1159 1288 1364 580 
Q 1569 -128 1984 -844 
L 1484 -844 
Q 1016 -109 783 600 
Q 550 1309 550 2009 
Q 550 2706 781 3412 
Q 1013 4119 1484 4856 
L 1984 4856 
z
" transform="scale(0.015625)"/>
       <path id="DejaVuSans-73" d="M 2834 3397 
L 2834 2853 
Q 2591 2978 2328 3040 
Q 2066 3103 1784 3103 
Q 1356 3103 1142 2972 
Q 928 2841 928 2578 
Q 928 2378 1081 2264 
Q 1234 2150 1697 2047 
L 1894 2003 
Q 2506 1872 2764 1633 
Q 3022 1394 3022 966 
Q 3022 478 2636 193 
Q 2250 -91 1575 -91 
Q 1294 -91 989 -36 
Q 684 19 347 128 
L 347 722 
Q 666 556 975 473 
Q 1284 391 1588 391 
Q 1994 391 2212 530 
Q 2431 669 2431 922 
Q 2431 1156 2273 1281 
Q 2116 1406 1581 1522 
L 1381 1569 
Q 847 1681 609 1914 
Q 372 2147 372 2553 
Q 372 3047 722 3315 
Q 1072 3584 1716 3584 
Q 2034 3584 2315 3537 
Q 2597 3491 2834 3397 
z
" transform="scale(0.015625)"/>
       <path id="DejaVuSans-29" d="M 513 4856 
L 1013 4856 
Q 1481 4119 1714 3412 
Q 1947 2706 1947 2009 
Q 1947 1309 1714 600 
Q 1481 -109 1013 -844 
L 513 -844 
Q 928 -128 1133 580 
Q 1338 1288 1338 2009 
Q 1338 2731 1133 3434 
Q 928 4138 513 4856 
z
" transform="scale(0.015625)"/>
      </defs>
      <use xlink:href="#DejaVuSans-54"/>
      <use xlink:href="#DejaVuSans-69" transform="translate(57.958984 0)"/>
      <use xlink:href="#DejaVuSans-6d" transform="translate(85.742188 0)"/>
      <use xlink:href="#DejaVuSans-65" transform="translate(183.154297 0)"/>
      <use xlink:href="#DejaVuSans-20" transform="translate(244.677734 0)"/>
      <use xlink:href="#DejaVuSans-28" transform="translate(276.464844 0)"/>
      <use xlink:href="#DejaVuSans-6d" transform="translate(315.478516 0)"/>
      <use xlink:href="#DejaVuSans-73" transform="translate(412.890625 0)"/>
      <use xlink:href="#DejaVuSans-29" transform="translate(464.990234 0)"/>
     </g>
    </g>
   </g>
   <g id="patch_3">
    <path d="M 73.619034 292.610502 
L 253.98267 292.610502 
L 253.98267 238.95219 
L 73.619034 238.95219 
L 73.619034 292.610502 
z
" clip-path="url(#p019b1ce5e4)" style="fill: #4ac76f; stroke: #1f1f1f; stroke-linejoin: miter"/>
   </g>
   <g id="line2d_12">
    <path d="M 163.800852 292.610502 
L 163.800852 352.219682 
" clip-path="url(#p019b1ce5e4)" style="fill: none; stroke: #1f1f1f"/>
   </g>
   <g id="line2d_13">
    <path d="M 163.800852 238.95219 
L 163.800852 158.675503 
" clip-path="url(#p019b1ce5e4)" style="fill: none; stroke: #1f1f1f"/>
   </g>
   <g id="line2d_14">
    <path d="M 118.709943 352.219682 
L 208.891761 352.219682 
" clip-path="url(#p019b1ce5e4)" style="fill: none; stroke: #1f1f1f; stroke-linecap: square"/>
   </g>
   <g id="line2d_15">
    <path d="M 118.709943 158.675503 
L 208.891761 158.675503 
" clip-path="url(#p019b1ce5e4)" style="fill: none; stroke: #1f1f1f; stroke-linecap: square"/>
   </g>
   <g id="line2d_16">
    <defs>
     <path id="m0645982b43" d="M 0 3 
C 0.795609 3 1.55874 2.683901 2.12132 2.12132 
C 2.683901 1.55874 3 0.795609 3 0 
C 3 -0.795609 2.683901 -1.55874 2.12132 -2.12132 
C 1.55874 -2.683901 0.795609 -3 0 -3 
C -0.795609 -3 -1.55874 -2.683901 -2.12132 -2.12132 
C -2.683901 -1.55874 -3 -0.795609 -3 0 
C -3 0.795609 -2.683901 1.55874 -2.12132 2.12132 
C -1.55874 2.683901 -0.795609 3 0 3 
z
" style="stroke: #1f1f1f"/>
    </defs>
    <g clip-path="url(#p019b1ce5e4)">
     <use xlink:href="#m0645982b43" x="163.800852" y="-1" style="fill-opacity: 0; stroke: #1f1f1f"/>
     <use xlink:href="#m0645982b43" x="163.800852" y="93.17795" style="fill-opacity: 0; stroke: #1f1f1f"/>
     <use xlink:href="#m0645982b43" x="163.800852" y="152.809345" style="fill-opacity: 0; stroke: #1f1f1f"/>
     <use xlink:href="#m0645982b43" x="163.800852" y="129.563547" style="fill-opacity: 0; stroke: #1f1f1f"/>
     <use xlink:href="#m0645982b43" x="163.800852" y="129.563547" style="fill-opacity: 0; stroke: #1f1f1f"/>
     <use xlink:href="#m0645982b43" x="163.800852" y="129.563547" style="fill-opacity: 0; stroke: #1f1f1f"/>
     <use xlink:href="#m0645982b43" x="163.800852" y="-1" style="fill-opacity: 0; stroke: #1f1f1f"/>
     <use xlink:href="#m0645982b43" x="163.800852" y="-1" style="fill-opacity: 0; stroke: #1f1f1f"/>
     <use xlink:href="#m0645982b43" x="163.800852" y="22.468682" style="fill-opacity: 0; stroke: #1f1f1f"/>
     <use xlink:href="#m0645982b43" x="163.800852" y="53.800872" style="fill-opacity: 0; stroke: #1f1f1f"/>
     <use xlink:href="#m0645982b43" x="163.800852" y="53.800872" style="fill-opacity: 0; stroke: #1f1f1f"/>
     <use xlink:href="#m0645982b43" x="163.800852" y="-1" style="fill-opacity: 0; stroke: #1f1f1f"/>
     <use xlink:href="#m0645982b43" x="163.800852" y="-1" style="fill-opacity: 0; stroke: #1f1f1f"/>
     <use xlink:href="#m0645982b43" x="163.800852" y="158.309733" style="fill-opacity: 0; stroke: #1f1f1f"/>
     <use xlink:href="#m0645982b43" x="163.800852" y="149.960856" style="fill-opacity: 0; stroke: #1f1f1f"/>
     <use xlink:href="#m0645982b43" x="163.800852" y="51.353193" style="fill-opacity: 0; stroke: #1f1f1f"/>
     <use xlink:href="#m0645982b43" x="163.800852" y="134.470609" style="fill-opacity: 0; stroke: #1f1f1f"/>
     <use xlink:href="#m0645982b43" x="163.800852" y="114.96576" style="fill-opacity: 0; stroke: #1f1f1f"/>
     <use xlink:href="#m0645982b43" x="163.800852" y="-1" style="fill-opacity: 0; stroke: #1f1f1f"/>
     <use xlink:href="#m0645982b43" x="163.800852" y="-1" style="fill-opacity: 0; stroke: #1f1f1f"/>
     <use xlink:href="#m0645982b43" x="163.800852" y="141.29264" style="fill-opacity: 0; stroke: #1f1f1f"/>
     <use xlink:href="#m0645982b43" x="163.800852" y="-1" style="fill-opacity: 0; stroke: #1f1f1f"/>
     <use xlink:href="#m0645982b43" x="163.800852" y="-1" style="fill-opacity: 0; stroke: #1f1f1f"/>
     <use xlink:href="#m0645982b43" x="163.800852" y="70.460602" style="fill-opacity: 0; stroke: #1f1f1f"/>
     <use xlink:href="#m0645982b43" x="163.800852" y="121.957898" style="fill-opacity: 0; stroke: #1f1f1f"/>
     <use xlink:href="#m0645982b43" x="163.800852" y="135.235208" style="fill-opacity: 0; stroke: #1f1f1f"/>
     <use xlink:href="#m0645982b43" x="163.800852" y="115.109883" style="fill-opacity: 0; stroke: #1f1f1f"/>
     <use xlink:href="#m0645982b43" x="163.800852" y="-1" style="fill-opacity: 0; stroke: #1f1f1f"/>
     <use xlink:href="#m0645982b43" x="163.800852" y="-1" style="fill-opacity: 0; stroke: #1f1f1f"/>
     <use xlink:href="#m0645982b43" x="163.800852" y="153.600687" style="fill-opacity: 0; stroke: #1f1f1f"/>
     <use xlink:href="#m0645982b43" x="163.800852" y="87.800943" style="fill-opacity: 0; stroke: #1f1f1f"/>
     <use xlink:href="#m0645982b43" x="163.800852" y="120.942519" style="fill-opacity: 0; stroke: #1f1f1f"/>
     <use xlink:href="#m0645982b43" x="163.800852" y="-1" style="fill-opacity: 0; stroke: #1f1f1f"/>
     <use xlink:href="#m0645982b43" x="163.800852" y="-1" style="fill-opacity: 0; stroke: #1f1f1f"/>
     <use xlink:href="#m0645982b43" x="163.800852" y="153.431006" style="fill-opacity: 0; stroke: #1f1f1f"/>
     <use xlink:href="#m0645982b43" x="163.800852" y="129.248911" style="fill-opacity: 0; stroke: #1f1f1f"/>
     <use xlink:href="#m0645982b43" x="163.800852" y="142.815966" style="fill-opacity: 0; stroke: #1f1f1f"/>
     <use xlink:href="#m0645982b43" x="163.800852" y="152.707596" style="fill-opacity: 0; stroke: #1f1f1f"/>
     <use xlink:href="#m0645982b43" x="163.800852" y="116.54098" style="fill-opacity: 0; stroke: #1f1f1f"/>
     <use xlink:href="#m0645982b43" x="163.800852" y="125.513332" style="fill-opacity: 0; stroke: #1f1f1f"/>
     <use xlink:href="#m0645982b43" x="163.800852" y="131.22244" style="fill-opacity: 0; stroke: #1f1f1f"/>
     <use xlink:href="#m0645982b43" x="163.800852" y="110.700898" style="fill-opacity: 0; stroke: #1f1f1f"/>
     <use xlink:href="#m0645982b43" x="163.800852" y="136.904416" style="fill-opacity: 0; stroke: #1f1f1f"/>
     <use xlink:href="#m0645982b43" x="163.800852" y="68.246757" style="fill-opacity: 0; stroke: #1f1f1f"/>
     <use xlink:href="#m0645982b43" x="163.800852" y="111.030629" style="fill-opacity: 0; stroke: #1f1f1f"/>
     <use xlink:href="#m0645982b43" x="163.800852" y="87.98881" style="fill-opacity: 0; stroke: #1f1f1f"/>
     <use xlink:href="#m0645982b43" x="163.800852" y="22.404825" style="fill-opacity: 0; stroke: #1f1f1f"/>
     <use xlink:href="#m0645982b43" x="163.800852" y="115.386646" style="fill-opacity: 0; stroke: #1f1f1f"/>
     <use xlink:href="#m0645982b43" x="163.800852" y="38.804293" style="fill-opacity: 0; stroke: #1f1f1f"/>
     <use xlink:href="#m0645982b43" x="163.800852" y="149.175775" style="fill-opacity: 0; stroke: #1f1f1f"/>
     <use xlink:href="#m0645982b43" x="163.800852" y="115.272285" style="fill-opacity: 0; stroke: #1f1f1f"/>
     <use xlink:href="#m0645982b43" x="163.800852" y="109.132087" style="fill-opacity: 0; stroke: #1f1f1f"/>
     <use xlink:href="#m0645982b43" x="163.800852" y="124.864984" style="fill-opacity: 0; stroke: #1f1f1f"/>
     <use xlink:href="#m0645982b43" x="163.800852" y="145.392377" style="fill-opacity: 0; stroke: #1f1f1f"/>
     <use xlink:href="#m0645982b43" x="163.800852" y="133.02677" style="fill-opacity: 0; stroke: #1f1f1f"/>
     <use xlink:href="#m0645982b43" x="163.800852" y="132.993546" style="fill-opacity: 0; stroke: #1f1f1f"/>
     <use xlink:href="#m0645982b43" x="163.800852" y="104.22721" style="fill-opacity: 0; stroke: #1f1f1f"/>
     <use xlink:href="#m0645982b43" x="163.800852" y="75.836572" style="fill-opacity: 0; stroke: #1f1f1f"/>
     <use xlink:href="#m0645982b43" x="163.800852" y="129.544194" style="fill-opacity: 0; stroke: #1f1f1f"/>
     <use xlink:href="#m0645982b43" x="163.800852" y="81.644336" style="fill-opacity: 0; stroke: #1f1f1f"/>
     <use xlink:href="#m0645982b43" x="163.800852" y="-1" style="fill-opacity: 0; stroke: #1f1f1f"/>
     <use xlink:href="#m0645982b43" x="163.800852" y="-1" style="fill-opacity: 0; stroke: #1f1f1f"/>
     <use xlink:href="#m0645982b43" x="163.800852" y="147.912488" style="fill-opacity: 0; stroke: #1f1f1f"/>
     <use xlink:href="#m0645982b43" x="163.800852" y="96.779185" style="fill-opacity: 0; stroke: #1f1f1f"/>
     <use xlink:href="#m0645982b43" x="163.800852" y="-1" style="fill-opacity: 0; stroke: #1f1f1f"/>
     <use xlink:href="#m0645982b43" x="163.800852" y="-1" style="fill-opacity: 0; stroke: #1f1f1f"/>
     <use xlink:href="#m0645982b43" x="163.800852" y="128.626953" style="fill-opacity: 0; stroke: #1f1f1f"/>
     <use xlink:href="#m0645982b43" x="163.800852" y="54.491649" style="fill-opacity: 0; stroke: #1f1f1f"/>
     <use xlink:href="#m0645982b43" x="163.800852" y="157.831713" style="fill-opacity: 0; stroke: #1f1f1f"/>
     <use xlink:href="#m0645982b43" x="163.800852" y="157.831713" style="fill-opacity: 0; stroke: #1f1f1f"/>
     <use xlink:href="#m0645982b43" x="163.800852" y="80.248242" style="fill-opacity: 0; stroke: #1f1f1f"/>
     <use xlink:href="#m0645982b43" x="163.800852" y="120.194885" style="fill-opacity: 0; stroke: #1f1f1f"/>
     <use xlink:href="#m0645982b43" x="163.800852" y="-1" style="fill-opacity: 0; stroke: #1f1f1f"/>
     <use xlink:href="#m0645982b43" x="163.800852" y="-1" style="fill-opacity: 0; stroke: #1f1f1f"/>
     <use xlink:href="#m0645982b43" x="163.800852" y="18.732436" style="fill-opacity: 0; stroke: #1f1f1f"/>
     <use xlink:href="#m0645982b43" x="163.800852" y="126.47278" style="fill-opacity: 0; stroke: #1f1f1f"/>
     <use xlink:href="#m0645982b43" x="163.800852" y="64.284123" style="fill-opacity: 0; stroke: #1f1f1f"/>
     <use xlink:href="#m0645982b43" x="163.800852" y="146.122492" style="fill-opacity: 0; stroke: #1f1f1f"/>
     <use xlink:href="#m0645982b43" x="163.800852" y="146.122492" style="fill-opacity: 0; stroke: #1f1f1f"/>
     <use xlink:href="#m0645982b43" x="163.800852" y="118.114125" style="fill-opacity: 0; stroke: #1f1f1f"/>
     <use xlink:href="#m0645982b43" x="163.800852" y="-1" style="fill-opacity: 0; stroke: #1f1f1f"/>
     <use xlink:href="#m0645982b43" x="163.800852" y="-1" style="fill-opacity: 0; stroke: #1f1f1f"/>
     <use xlink:href="#m0645982b43" x="163.800852" y="119.894213" style="fill-opacity: 0; stroke: #1f1f1f"/>
     <use xlink:href="#m0645982b43" x="163.800852" y="145.484126" style="fill-opacity: 0; stroke: #1f1f1f"/>
    </g>
   </g>
   <g id="patch_4">
    <path d="M 299.07358 283.45157 
L 479.437216 283.45157 
L 479.437216 212.858663 
L 299.07358 212.858663 
L 299.07358 283.45157 
z
" clip-path="url(#p019b1ce5e4)" style="fill: #207cdf; stroke: #1f1f1f; stroke-linejoin: miter"/>
   </g>
   <g id="line2d_17">
    <path d="M 389.255398 283.45157 
L 389.255398 354.796538 
" clip-path="url(#p019b1ce5e4)" style="fill: none; stroke: #1f1f1f"/>
   </g>
   <g id="line2d_18">
    <path d="M 389.255398 212.858663 
L 389.255398 108.440642 
" clip-path="url(#p019b1ce5e4)" style="fill: none; stroke: #1f1f1f"/>
   </g>
   <g id="line2d_19">
    <path d="M 344.164489 354.796538 
L 434.346307 354.796538 
" clip-path="url(#p019b1ce5e4)" style="fill: none; stroke: #1f1f1f; stroke-linecap: square"/>
   </g>
   <g id="line2d_20">
    <path d="M 344.164489 108.440642 
L 434.346307 108.440642 
" clip-path="url(#p019b1ce5e4)" style="fill: none; stroke: #1f1f1f; stroke-linecap: square"/>
   </g>
   <g id="line2d_21">
    <g clip-path="url(#p019b1ce5e4)">
     <use xlink:href="#m0645982b43" x="389.255398" y="-1" style="fill-opacity: 0; stroke: #1f1f1f"/>
     <use xlink:href="#m0645982b43" x="389.255398" y="95.51399" style="fill-opacity: 0; stroke: #1f1f1f"/>
     <use xlink:href="#m0645982b43" x="389.255398" y="60.570065" style="fill-opacity: 0; stroke: #1f1f1f"/>
     <use xlink:href="#m0645982b43" x="389.255398" y="64.732289" style="fill-opacity: 0; stroke: #1f1f1f"/>
     <use xlink:href="#m0645982b43" x="389.255398" y="28.700406" style="fill-opacity: 0; stroke: #1f1f1f"/>
     <use xlink:href="#m0645982b43" x="389.255398" y="60.723633" style="fill-opacity: 0; stroke: #1f1f1f"/>
     <use xlink:href="#m0645982b43" x="389.255398" y="81.46084" style="fill-opacity: 0; stroke: #1f1f1f"/>
     <use xlink:href="#m0645982b43" x="389.255398" y="102.446641" style="fill-opacity: 0; stroke: #1f1f1f"/>
     <use xlink:href="#m0645982b43" x="389.255398" y="70.240177" style="fill-opacity: 0; stroke: #1f1f1f"/>
     <use xlink:href="#m0645982b43" x="389.255398" y="-1" style="fill-opacity: 0; stroke: #1f1f1f"/>
     <use xlink:href="#m0645982b43" x="389.255398" y="-1" style="fill-opacity: 0; stroke: #1f1f1f"/>
     <use xlink:href="#m0645982b43" x="389.255398" y="61.0569" style="fill-opacity: 0; stroke: #1f1f1f"/>
     <use xlink:href="#m0645982b43" x="389.255398" y="-1" style="fill-opacity: 0; stroke: #1f1f1f"/>
     <use xlink:href="#m0645982b43" x="389.255398" y="-1" style="fill-opacity: 0; stroke: #1f1f1f"/>
     <use xlink:href="#m0645982b43" x="389.255398" y="78.571218" style="fill-opacity: 0; stroke: #1f1f1f"/>
     <use xlink:href="#m0645982b43" x="389.255398" y="-1" style="fill-opacity: 0; stroke: #1f1f1f"/>
     <use xlink:href="#m0645982b43" x="389.255398" y="-1" style="fill-opacity: 0; stroke: #1f1f1f"/>
     <use xlink:href="#m0645982b43" x="389.255398" y="95.960693" style="fill-opacity: 0; stroke: #1f1f1f"/>
     <use xlink:href="#m0645982b43" x="389.255398" y="58.837018" style="fill-opacity: 0; stroke: #1f1f1f"/>
     <use xlink:href="#m0645982b43" x="389.255398" y="102.855767" style="fill-opacity: 0; stroke: #1f1f1f"/>
     <use xlink:href="#m0645982b43" x="389.255398" y="34.492205" style="fill-opacity: 0; stroke: #1f1f1f"/>
     <use xlink:href="#m0645982b43" x="389.255398" y="78.045731" style="fill-opacity: 0; stroke: #1f1f1f"/>
     <use xlink:href="#m0645982b43" x="389.255398" y="-1" style="fill-opacity: 0; stroke: #1f1f1f"/>
     <use xlink:href="#m0645982b43" x="389.255398" y="-1" style="fill-opacity: 0; stroke: #1f1f1f"/>
     <use xlink:href="#m0645982b43" x="389.255398" y="30.458973" style="fill-opacity: 0; stroke: #1f1f1f"/>
     <use xlink:href="#m0645982b43" x="389.255398" y="77.726169" style="fill-opacity: 0; stroke: #1f1f1f"/>
     <use xlink:href="#m0645982b43" x="389.255398" y="77.726169" style="fill-opacity: 0; stroke: #1f1f1f"/>
     <use xlink:href="#m0645982b43" x="389.255398" y="29.714191" style="fill-opacity: 0; stroke: #1f1f1f"/>
     <use xlink:href="#m0645982b43" x="389.255398" y="95.37472" style="fill-opacity: 0; stroke: #1f1f1f"/>
     <use xlink:href="#m0645982b43" x="389.255398" y="-1" style="fill-opacity: 0; stroke: #1f1f1f"/>
     <use xlink:href="#m0645982b43" x="389.255398" y="-1" style="fill-opacity: 0; stroke: #1f1f1f"/>
     <use xlink:href="#m0645982b43" x="389.255398" y="28.494815" style="fill-opacity: 0; stroke: #1f1f1f"/>
     <use xlink:href="#m0645982b43" x="389.255398" y="88.876752" style="fill-opacity: 0; stroke: #1f1f1f"/>
     <use xlink:href="#m0645982b43" x="389.255398" y="-1" style="fill-opacity: 0; stroke: #1f1f1f"/>
     <use xlink:href="#m0645982b43" x="389.255398" y="-1" style="fill-opacity: 0; stroke: #1f1f1f"/>
     <use xlink:href="#m0645982b43" x="389.255398" y="70.24277" style="fill-opacity: 0; stroke: #1f1f1f"/>
     <use xlink:href="#m0645982b43" x="389.255398" y="-1" style="fill-opacity: 0; stroke: #1f1f1f"/>
     <use xlink:href="#m0645982b43" x="389.255398" y="-1" style="fill-opacity: 0; stroke: #1f1f1f"/>
     <use xlink:href="#m0645982b43" x="389.255398" y="77.64168" style="fill-opacity: 0; stroke: #1f1f1f"/>
     <use xlink:href="#m0645982b43" x="389.255398" y="93.992719" style="fill-opacity: 0; stroke: #1f1f1f"/>
     <use xlink:href="#m0645982b43" x="389.255398" y="-1" style="fill-opacity: 0; stroke: #1f1f1f"/>
     <use xlink:href="#m0645982b43" x="389.255398" y="-1" style="fill-opacity: 0; stroke: #1f1f1f"/>
     <use xlink:href="#m0645982b43" x="389.255398" y="83.37629" style="fill-opacity: 0; stroke: #1f1f1f"/>
     <use xlink:href="#m0645982b43" x="389.255398" y="-1" style="fill-opacity: 0; stroke: #1f1f1f"/>
     <use xlink:href="#m0645982b43" x="389.255398" y="-1" style="fill-opacity: 0; stroke: #1f1f1f"/>
     <use xlink:href="#m0645982b43" x="389.255398" y="22.614397" style="fill-opacity: 0; stroke: #1f1f1f"/>
     <use xlink:href="#m0645982b43" x="389.255398" y="-1" style="fill-opacity: 0; stroke: #1f1f1f"/>
     <use xlink:href="#m0645982b43" x="389.255398" y="-1" style="fill-opacity: 0; stroke: #1f1f1f"/>
     <use xlink:href="#m0645982b43" x="389.255398" y="103.516875" style="fill-opacity: 0; stroke: #1f1f1f"/>
     <use xlink:href="#m0645982b43" x="389.255398" y="78.191614" style="fill-opacity: 0; stroke: #1f1f1f"/>
     <use xlink:href="#m0645982b43" x="389.255398" y="-1" style="fill-opacity: 0; stroke: #1f1f1f"/>
     <use xlink:href="#m0645982b43" x="389.255398" y="-1" style="fill-opacity: 0; stroke: #1f1f1f"/>
     <use xlink:href="#m0645982b43" x="389.255398" y="103.495429" style="fill-opacity: 0; stroke: #1f1f1f"/>
     <use xlink:href="#m0645982b43" x="389.255398" y="-1" style="fill-opacity: 0; stroke: #1f1f1f"/>
     <use xlink:href="#m0645982b43" x="389.255398" y="-1" style="fill-opacity: 0; stroke: #1f1f1f"/>
     <use xlink:href="#m0645982b43" x="389.255398" y="96.370059" style="fill-opacity: 0; stroke: #1f1f1f"/>
     <use xlink:href="#m0645982b43" x="389.255398" y="92.494321" style="fill-opacity: 0; stroke: #1f1f1f"/>
     <use xlink:href="#m0645982b43" x="389.255398" y="-1" style="fill-opacity: 0; stroke: #1f1f1f"/>
     <use xlink:href="#m0645982b43" x="389.255398" y="-1" style="fill-opacity: 0; stroke: #1f1f1f"/>
     <use xlink:href="#m0645982b43" x="389.255398" y="59.648009" style="fill-opacity: 0; stroke: #1f1f1f"/>
     <use xlink:href="#m0645982b43" x="389.255398" y="71.621047" style="fill-opacity: 0; stroke: #1f1f1f"/>
     <use xlink:href="#m0645982b43" x="389.255398" y="-1" style="fill-opacity: 0; stroke: #1f1f1f"/>
     <use xlink:href="#m0645982b43" x="389.255398" y="-1" style="fill-opacity: 0; stroke: #1f1f1f"/>
     <use xlink:href="#m0645982b43" x="389.255398" y="73.652563" style="fill-opacity: 0; stroke: #1f1f1f"/>
     <use xlink:href="#m0645982b43" x="389.255398" y="-1" style="fill-opacity: 0; stroke: #1f1f1f"/>
     <use xlink:href="#m0645982b43" x="389.255398" y="-1" style="fill-opacity: 0; stroke: #1f1f1f"/>
     <use xlink:href="#m0645982b43" x="389.255398" y="77.477612" style="fill-opacity: 0; stroke: #1f1f1f"/>
     <use xlink:href="#m0645982b43" x="389.255398" y="5.605583" style="fill-opacity: 0; stroke: #1f1f1f"/>
     <use xlink:href="#m0645982b43" x="389.255398" y="-1" style="fill-opacity: 0; stroke: #1f1f1f"/>
     <use xlink:href="#m0645982b43" x="389.255398" y="-1" style="fill-opacity: 0; stroke: #1f1f1f"/>
     <use xlink:href="#m0645982b43" x="389.255398" y="58.20167" style="fill-opacity: 0; stroke: #1f1f1f"/>
     <use xlink:href="#m0645982b43" x="389.255398" y="68.804246" style="fill-opacity: 0; stroke: #1f1f1f"/>
     <use xlink:href="#m0645982b43" x="389.255398" y="-1" style="fill-opacity: 0; stroke: #1f1f1f"/>
     <use xlink:href="#m0645982b43" x="389.255398" y="-1" style="fill-opacity: 0; stroke: #1f1f1f"/>
     <use xlink:href="#m0645982b43" x="389.255398" y="38.885856" style="fill-opacity: 0; stroke: #1f1f1f"/>
     <use xlink:href="#m0645982b43" x="389.255398" y="-1" style="fill-opacity: 0; stroke: #1f1f1f"/>
     <use xlink:href="#m0645982b43" x="389.255398" y="-1" style="fill-opacity: 0; stroke: #1f1f1f"/>
     <use xlink:href="#m0645982b43" x="389.255398" y="65.59847" style="fill-opacity: 0; stroke: #1f1f1f"/>
     <use xlink:href="#m0645982b43" x="389.255398" y="27.585612" style="fill-opacity: 0; stroke: #1f1f1f"/>
     <use xlink:href="#m0645982b43" x="389.255398" y="42.782614" style="fill-opacity: 0; stroke: #1f1f1f"/>
     <use xlink:href="#m0645982b43" x="389.255398" y="-1" style="fill-opacity: 0; stroke: #1f1f1f"/>
     <use xlink:href="#m0645982b43" x="389.255398" y="-1" style="fill-opacity: 0; stroke: #1f1f1f"/>
     <use xlink:href="#m0645982b43" x="389.255398" y="32.429169" style="fill-opacity: 0; stroke: #1f1f1f"/>
     <use xlink:href="#m0645982b43" x="389.255398" y="48.887291" style="fill-opacity: 0; stroke: #1f1f1f"/>
     <use xlink:href="#m0645982b43" x="389.255398" y="100.237222" style="fill-opacity: 0; stroke: #1f1f1f"/>
     <use xlink:href="#m0645982b43" x="389.255398" y="94.822953" style="fill-opacity: 0; stroke: #1f1f1f"/>
     <use xlink:href="#m0645982b43" x="389.255398" y="-1" style="fill-opacity: 0; stroke: #1f1f1f"/>
     <use xlink:href="#m0645982b43" x="389.255398" y="-1" style="fill-opacity: 0; stroke: #1f1f1f"/>
     <use xlink:href="#m0645982b43" x="389.255398" y="100.914369" style="fill-opacity: 0; stroke: #1f1f1f"/>
     <use xlink:href="#m0645982b43" x="389.255398" y="100.914369" style="fill-opacity: 0; stroke: #1f1f1f"/>
     <use xlink:href="#m0645982b43" x="389.255398" y="-1" style="fill-opacity: 0; stroke: #1f1f1f"/>
     <use xlink:href="#m0645982b43" x="389.255398" y="-1" style="fill-opacity: 0; stroke: #1f1f1f"/>
     <use xlink:href="#m0645982b43" x="389.255398" y="101.256508" style="fill-opacity: 0; stroke: #1f1f1f"/>
     <use xlink:href="#m0645982b43" x="389.255398" y="-1" style="fill-opacity: 0; stroke: #1f1f1f"/>
     <use xlink:href="#m0645982b43" x="389.255398" y="-1" style="fill-opacity: 0; stroke: #1f1f1f"/>
     <use xlink:href="#m0645982b43" x="389.255398" y="65.802208" style="fill-opacity: 0; stroke: #1f1f1f"/>
     <use xlink:href="#m0645982b43" x="389.255398" y="-1" style="fill-opacity: 0; stroke: #1f1f1f"/>
     <use xlink:href="#m0645982b43" x="389.255398" y="-1" style="fill-opacity: 0; stroke: #1f1f1f"/>
     <use xlink:href="#m0645982b43" x="389.255398" y="20.996044" style="fill-opacity: 0; stroke: #1f1f1f"/>
     <use xlink:href="#m0645982b43" x="389.255398" y="93.691955" style="fill-opacity: 0; stroke: #1f1f1f"/>
     <use xlink:href="#m0645982b43" x="389.255398" y="-1" style="fill-opacity: 0; stroke: #1f1f1f"/>
     <use xlink:href="#m0645982b43" x="389.255398" y="-1" style="fill-opacity: 0; stroke: #1f1f1f"/>
     <use xlink:href="#m0645982b43" x="389.255398" y="79.493015" style="fill-opacity: 0; stroke: #1f1f1f"/>
     <use xlink:href="#m0645982b43" x="389.255398" y="31.739947" style="fill-opacity: 0; stroke: #1f1f1f"/>
     <use xlink:href="#m0645982b43" x="389.255398" y="91.811192" style="fill-opacity: 0; stroke: #1f1f1f"/>
     <use xlink:href="#m0645982b43" x="389.255398" y="-1" style="fill-opacity: 0; stroke: #1f1f1f"/>
     <use xlink:href="#m0645982b43" x="389.255398" y="-1" style="fill-opacity: 0; stroke: #1f1f1f"/>
     <use xlink:href="#m0645982b43" x="389.255398" y="69.23117" style="fill-opacity: 0; stroke: #1f1f1f"/>
     <use xlink:href="#m0645982b43" x="389.255398" y="-1" style="fill-opacity: 0; stroke: #1f1f1f"/>
    </g>
   </g>
   <g id="line2d_22">
    <path d="M 163.800852 63.898125 
L 163.800852 58.354125 
L 389.255398 58.354125 
L 389.255398 63.898125 
" clip-path="url(#p019b1ce5e4)" style="fill: none; stroke: #000000; stroke-width: 1.5; stroke-linecap: square"/>
   </g>
   <g id="line2d_23">
    <path d="M 73.619034 277.696607 
L 253.98267 277.696607 
" clip-path="url(#p019b1ce5e4)" style="fill: none; stroke: #1f1f1f"/>
   </g>
   <g id="line2d_24">
    <path d="M 299.07358 262.047837 
L 479.437216 262.047837 
" clip-path="url(#p019b1ce5e4)" style="fill: none; stroke: #1f1f1f"/>
   </g>
   <g id="patch_5">
    <path d="M 53.328125 354.958125 
L 53.328125 22.318125 
" style="fill: none; stroke: #000000; stroke-width: 0.8; stroke-linejoin: miter; stroke-linecap: square"/>
   </g>
   <g id="patch_6">
    <path d="M 499.728125 354.958125 
L 499.728125 22.318125 
" style="fill: none; stroke: #000000; stroke-width: 0.8; stroke-linejoin: miter; stroke-linecap: square"/>
   </g>
   <g id="patch_7">
    <path d="M 53.328125 354.958125 
L 499.728125 354.958125 
" style="fill: none; stroke: #000000; stroke-width: 0.8; stroke-linejoin: miter; stroke-linecap: square"/>
   </g>
   <g id="patch_8">
    <path d="M 53.328125 22.318125 
L 499.728125 22.318125 
" style="fill: none; stroke: #000000; stroke-width: 0.8; stroke-linejoin: miter; stroke-linecap: square"/>
   </g>
   <g id="text_14">
    <!-- * -->
    <g transform="translate(272.867344 55.442563) scale(0.14 -0.14)">
     <defs>
      <path id="DejaVuSans-Bold-2a" d="M 3219 3803 
L 2188 3263 
L 3219 2719 
L 2981 2278 
L 1941 2853 
L 1941 1778 
L 1409 1778 
L 1409 2853 
L 366 2278 
L 128 2719 
L 1172 3263 
L 128 3803 
L 366 4244 
L 1409 3675 
L 1409 4750 
L 1941 4750 
L 1941 3675 
L 2981 4244 
L 3219 3803 
z
" transform="scale(0.015625)"/>
     </defs>
     <use xlink:href="#DejaVuSans-Bold-2a"/>
    </g>
   </g>
   <g id="text_15">
    <!-- Gesture Reaction Time  -->
    <g transform="translate(206.422812 16.318125) scale(0.12 -0.12)">
     <defs>
      <path id="DejaVuSans-47" d="M 3809 666 
L 3809 1919 
L 2778 1919 
L 2778 2438 
L 4434 2438 
L 4434 434 
Q 4069 175 3628 42 
Q 3188 -91 2688 -91 
Q 1594 -91 976 548 
Q 359 1188 359 2328 
Q 359 3472 976 4111 
Q 1594 4750 2688 4750 
Q 3144 4750 3555 4637 
Q 3966 4525 4313 4306 
L 4313 3634 
Q 3963 3931 3569 4081 
Q 3175 4231 2741 4231 
Q 1884 4231 1454 3753 
Q 1025 3275 1025 2328 
Q 1025 1384 1454 906 
Q 1884 428 2741 428 
Q 3075 428 3337 486 
Q 3600 544 3809 666 
z
" transform="scale(0.015625)"/>
      <path id="DejaVuSans-75" d="M 544 1381 
L 544 3500 
L 1119 3500 
L 1119 1403 
Q 1119 906 1312 657 
Q 1506 409 1894 409 
Q 2359 409 2629 706 
Q 2900 1003 2900 1516 
L 2900 3500 
L 3475 3500 
L 3475 0 
L 2900 0 
L 2900 538 
Q 2691 219 2414 64 
Q 2138 -91 1772 -91 
Q 1169 -91 856 284 
Q 544 659 544 1381 
z
M 1991 3584 
L 1991 3584 
z
" transform="scale(0.015625)"/>
      <path id="DejaVuSans-63" d="M 3122 3366 
L 3122 2828 
Q 2878 2963 2633 3030 
Q 2388 3097 2138 3097 
Q 1578 3097 1268 2742 
Q 959 2388 959 1747 
Q 959 1106 1268 751 
Q 1578 397 2138 397 
Q 2388 397 2633 464 
Q 2878 531 3122 666 
L 3122 134 
Q 2881 22 2623 -34 
Q 2366 -91 2075 -91 
Q 1284 -91 818 406 
Q 353 903 353 1747 
Q 353 2603 823 3093 
Q 1294 3584 2113 3584 
Q 2378 3584 2631 3529 
Q 2884 3475 3122 3366 
z
" transform="scale(0.015625)"/>
     </defs>
     <use xlink:href="#DejaVuSans-47"/>
     <use xlink:href="#DejaVuSans-65" transform="translate(77.490234 0)"/>
     <use xlink:href="#DejaVuSans-73" transform="translate(139.013672 0)"/>
     <use xlink:href="#DejaVuSans-74" transform="translate(191.113281 0)"/>
     <use xlink:href="#DejaVuSans-75" transform="translate(230.322266 0)"/>
     <use xlink:href="#DejaVuSans-72" transform="translate(293.701172 0)"/>
     <use xlink:href="#DejaVuSans-65" transform="translate(332.564453 0)"/>
     <use xlink:href="#DejaVuSans-20" transform="translate(394.087891 0)"/>
     <use xlink:href="#DejaVuSans-52" transform="translate(425.875 0)"/>
     <use xlink:href="#DejaVuSans-65" transform="translate(490.857422 0)"/>
     <use xlink:href="#DejaVuSans-61" transform="translate(552.380859 0)"/>
     <use xlink:href="#DejaVuSans-63" transform="translate(613.660156 0)"/>
     <use xlink:href="#DejaVuSans-74" transform="translate(668.640625 0)"/>
     <use xlink:href="#DejaVuSans-69" transform="translate(707.849609 0)"/>
     <use xlink:href="#DejaVuSans-6f" transform="translate(735.632812 0)"/>
     <use xlink:href="#DejaVuSans-6e" transform="translate(796.814453 0)"/>
     <use xlink:href="#DejaVuSans-20" transform="translate(860.193359 0)"/>
     <use xlink:href="#DejaVuSans-54" transform="translate(891.980469 0)"/>
     <use xlink:href="#DejaVuSans-69" transform="translate(949.939453 0)"/>
     <use xlink:href="#DejaVuSans-6d" transform="translate(977.722656 0)"/>
     <use xlink:href="#DejaVuSans-65" transform="translate(1075.134766 0)"/>
     <use xlink:href="#DejaVuSans-20" transform="translate(1136.658203 0)"/>
    </g>
   </g>
  </g>
 </g>
 <defs>
  <clipPath id="p019b1ce5e4">
   <rect x="53.328125" y="22.318125" width="446.4" height="332.64"/>
  </clipPath>
 </defs>
</svg>
