<?xml version="1.0" encoding="utf-8" standalone="no"?>
<!DOCTYPE svg PUBLIC "-//W3C//DTD SVG 1.1//EN"
  "http://www.w3.org/Graphics/SVG/1.1/DTD/svg11.dtd">
<svg xmlns:xlink="http://www.w3.org/1999/xlink" width="633.270313pt" height="392.514375pt" viewBox="0 0 633.270313 392.514375" xmlns="http://www.w3.org/2000/svg" version="1.1">
 <metadata>
  <rdf:RDF xmlns:dc="http://purl.org/dc/elements/1.1/" xmlns:cc="http://creativecommons.org/ns#" xmlns:rdf="http://www.w3.org/1999/02/22-rdf-syntax-ns#">
   <cc:Work>
    <dc:type rdf:resource="http://purl.org/dc/dcmitype/StillImage"/>
    <dc:date>2026-01-28T11:28:42.434861</dc:date>
    <dc:format>image/svg+xml</dc:format>
    <dc:creator>
     <cc:Agent>
      <dc:title>Matplotlib v3.10.8, https://matplotlib.org/</dc:title>
     </cc:Agent>
    </dc:creator>
   </cc:Work>
  </rdf:RDF>
 </metadata>
 <defs>
  <style type="text/css">*{stroke-linejoin: round; stroke-linecap: butt}</style>
 </defs>
 <g id="figure_1">
  <g id="patch_1">
   <path d="M 0 392.514375 
L 633.270313 392.514375 
L 633.270313 0 
L 0 0 
z
" style="fill: #ffffff"/>
  </g>
  <g id="axes_1">
   <g id="patch_2">
    <path d="M 68.070312 354.958125 
L 626.070312 354.958125 
L 626.070312 22.318125 
L 68.070312 22.318125 
z
" style="fill: #ffffff"/>
   </g>
   <g id="FillBetweenPolyCollection_1">
    <defs>
     <path id="m2fd1d30119" d="M 93.433949 -199.89565 
L 93.433949 -145.574775 
L 98.557916 -154.244162 
L 103.681883 -150.322488 
L 108.80585 -151.238226 
L 113.929817 -153.3568 
L 119.053784 -152.701103 
L 124.177751 -151.729529 
L 129.301717 -154.891169 
L 134.425684 -152.810199 
L 139.549651 -153.074152 
L 144.673618 -127.943714 
L 149.797585 -155.204755 
L 154.921552 -153.285525 
L 160.045519 -151.499014 
L 165.169486 -153.464504 
L 170.293453 -151.69031 
L 175.41742 -150.329238 
L 180.541387 -154.360413 
L 185.665354 -149.295824 
L 190.789321 -152.317642 
L 195.913288 -154.425914 
L 201.037255 -142.604921 
L 206.161222 -143.923679 
L 211.285189 -154.652925 
L 216.409155 -111.892921 
L 221.533122 -152.337279 
L 226.657089 -151.440359 
L 231.781056 -152.858918 
L 236.905023 -152.996062 
L 242.02899 -152.094165 
L 247.152957 -154.847257 
L 252.276924 -152.187019 
L 257.400891 -153.780133 
L 262.524858 -153.133252 
L 267.648825 -151.25673 
L 272.772792 -153.76008 
L 277.896759 -144.407528 
L 283.020726 -149.218187 
L 288.144693 -151.793194 
L 293.26866 -149.597871 
L 298.392627 -151.80449 
L 303.516593 -154.154898 
L 308.64056 -149.359788 
L 313.764527 -154.712573 
L 318.888494 -150.806222 
L 324.012461 -152.605521 
L 329.136428 -130.609597 
L 334.260395 -153.314901 
L 339.384362 -149.461161 
L 344.508329 -152.260216 
L 349.632296 -153.162804 
L 354.756263 -153.214706 
L 359.88023 -149.274051 
L 365.004197 -152.766111 
L 370.128164 -151.609755 
L 375.252131 -152.38813 
L 380.376098 -153.530463 
L 385.500065 -152.050632 
L 390.624032 -149.706085 
L 395.747998 -152.980172 
L 400.871965 -152.450873 
L 405.995932 -151.321443 
L 411.119899 -151.261268 
L 416.243866 -153.555706 
L 421.367833 -151.02923 
L 426.4918 -151.091586 
L 431.615767 -151.691288 
L 436.739734 -152.963901 
L 441.863701 -152.539286 
L 446.987668 -152.652896 
L 452.111635 -151.830093 
L 457.235602 -152.605604 
L 462.359569 -153.504315 
L 467.483536 -153.932827 
L 472.607503 -151.449603 
L 477.73147 -151.572576 
L 482.855436 -151.05672 
L 487.979403 -153.782567 
L 493.10337 -154.348906 
L 498.227337 -152.304111 
L 503.351304 -150.754085 
L 508.475271 -151.584961 
L 513.599238 -151.891199 
L 518.723205 -152.590189 
L 523.847172 -152.697474 
L 528.971139 -153.736543 
L 534.095106 -147.79955 
L 539.219073 -154.490941 
L 544.34304 -151.815415 
L 549.467007 -153.714844 
L 554.590974 -155.305321 
L 559.714941 -151.281892 
L 564.838908 -153.313406 
L 569.962874 -134.670303 
L 575.086841 -151.713856 
L 580.210808 -152.541824 
L 585.334775 -152.052864 
L 590.458742 -154.260893 
L 595.582709 -153.67069 
L 600.706676 -143.108678 
L 600.706676 -195.835135 
L 600.706676 -195.835135 
L 595.582709 -160.273864 
L 590.458742 -166.554253 
L 585.334775 -160.164045 
L 580.210808 -157.506152 
L 575.086841 -160.260816 
L 569.962874 -209.314097 
L 564.838908 -163.73866 
L 559.714941 -163.996362 
L 554.590974 -165.01565 
L 549.467007 -161.435997 
L 544.34304 -161.126122 
L 539.219073 -159.380118 
L 534.095106 -174.170042 
L 528.971139 -157.098362 
L 523.847172 -160.813094 
L 518.723205 -158.969976 
L 513.599238 -165.431921 
L 508.475271 -163.289146 
L 503.351304 -161.43206 
L 498.227337 -165.102466 
L 493.10337 -163.203469 
L 487.979403 -158.219221 
L 482.855436 -161.913505 
L 477.73147 -160.033699 
L 472.607503 -158.056463 
L 467.483536 -157.498984 
L 462.359569 -164.543447 
L 457.235602 -164.744874 
L 452.111635 -162.355194 
L 446.987668 -165.987461 
L 441.863701 -161.862948 
L 436.739734 -165.285257 
L 431.615767 -163.482899 
L 426.4918 -165.67882 
L 421.367833 -165.528832 
L 416.243866 -159.520952 
L 411.119899 -166.613868 
L 405.995932 -165.769502 
L 400.871965 -158.383043 
L 395.747998 -158.715472 
L 390.624032 -170.135314 
L 385.500065 -162.009884 
L 380.376098 -158.603633 
L 375.252131 -165.838168 
L 370.128164 -161.337755 
L 365.004197 -161.142531 
L 359.88023 -168.208397 
L 354.756263 -158.552939 
L 349.632296 -157.735729 
L 344.508329 -157.567428 
L 339.384362 -169.064502 
L 334.260395 -166.088428 
L 329.136428 -226.224062 
L 324.012461 -158.704636 
L 318.888494 -161.755084 
L 313.764527 -166.849644 
L 308.64056 -169.873863 
L 303.516593 -158.644996 
L 298.392627 -160.731927 
L 293.26866 -165.847664 
L 288.144693 -160.944875 
L 283.020726 -166.931312 
L 277.896759 -176.31094 
L 272.772792 -156.163899 
L 267.648825 -165.812987 
L 262.524858 -164.863022 
L 257.400891 -160.268824 
L 252.276924 -160.323642 
L 247.152957 -163.548494 
L 242.02899 -165.249513 
L 236.905023 -160.263583 
L 231.781056 -164.680873 
L 226.657089 -166.072292 
L 221.533122 -165.637653 
L 216.409155 -256.495402 
L 211.285189 -159.929761 
L 206.161222 -180.053701 
L 201.037255 -199.57413 
L 195.913288 -171.273263 
L 190.789321 -165.61822 
L 185.665354 -167.025704 
L 180.541387 -162.507742 
L 175.41742 -172.083627 
L 170.293453 -168.514765 
L 165.169486 -157.757025 
L 160.045519 -162.79684 
L 154.921552 -158.893564 
L 149.797585 -165.220614 
L 144.673618 -219.030304 
L 139.549651 -161.447777 
L 134.425684 -162.8499 
L 129.301717 -161.440119 
L 124.177751 -174.300192 
L 119.053784 -166.795392 
L 113.929817 -168.204629 
L 108.80585 -166.276416 
L 103.681883 -169.219587 
L 98.557916 -166.348398 
L 93.433949 -199.89565 
z
" style="stroke: #35dc67; stroke-opacity: 0.2"/>
    </defs>
    <g clip-path="url(#p7101292ba3)">
     <use xlink:href="#m2fd1d30119" x="0" y="392.514375" style="fill: #35dc67; fill-opacity: 0.2; stroke: #35dc67; stroke-opacity: 0.2"/>
    </g>
   </g>
   <g id="FillBetweenPolyCollection_2">
    <defs>
     <path id="m200333a35d" d="M 93.433949 -169.320624 
L 93.433949 -153.906445 
L 98.557916 -154.692128 
L 103.681883 -143.302435 
L 108.80585 -128.508401 
L 113.929817 -152.611422 
L 119.053784 -147.61802 
L 124.177751 -154.485422 
L 129.301717 -153.058095 
L 134.425684 -148.116663 
L 139.549651 -123.053957 
L 144.673618 -107.759075 
L 149.797585 -154.800404 
L 154.921552 -155.152373 
L 160.045519 -150.424523 
L 165.169486 -152.64166 
L 170.293453 -152.004222 
L 175.41742 -122.958309 
L 180.541387 -156.040681 
L 185.665354 -153.756643 
L 190.789321 -142.879714 
L 195.913288 -153.064153 
L 201.037255 -139.700295 
L 206.161222 -52.67625 
L 211.285189 -83.320595 
L 216.409155 -114.505209 
L 221.533122 -152.339589 
L 226.657089 -151.529745 
L 231.781056 -151.89029 
L 236.905023 -155.110611 
L 242.02899 -153.772989 
L 247.152957 -154.532597 
L 252.276924 -106.159752 
L 257.400891 -153.106966 
L 262.524858 -154.009687 
L 267.648825 -155.79683 
L 272.772792 -151.854769 
L 277.896759 -153.829095 
L 283.020726 -149.93062 
L 288.144693 -151.978438 
L 293.26866 -145.513288 
L 298.392627 -155.368742 
L 303.516593 -155.457236 
L 308.64056 -152.860759 
L 313.764527 -152.206274 
L 318.888494 -148.041899 
L 324.012461 -153.237382 
L 329.136428 -152.053693 
L 334.260395 -150.542674 
L 339.384362 -153.54471 
L 344.508329 -153.29865 
L 349.632296 -153.601626 
L 354.756263 -149.796372 
L 359.88023 -152.937462 
L 365.004197 -151.266291 
L 370.128164 -151.498081 
L 375.252131 -154.287695 
L 380.376098 -156.654299 
L 385.500065 -150.117878 
L 390.624032 -152.21009 
L 395.747998 -150.321592 
L 400.871965 -151.362907 
L 405.995932 -151.40241 
L 411.119899 -151.842676 
L 416.243866 -152.876317 
L 421.367833 -146.087879 
L 426.4918 -151.531182 
L 431.615767 -154.407995 
L 436.739734 -149.834495 
L 441.863701 -151.006284 
L 446.987668 -148.190422 
L 452.111635 -153.691471 
L 457.235602 -154.259442 
L 462.359569 -153.285033 
L 467.483536 -149.867462 
L 472.607503 -147.47989 
L 477.73147 -149.149471 
L 482.855436 -153.743529 
L 487.979403 -153.890733 
L 493.10337 -144.819553 
L 498.227337 -152.564009 
L 503.351304 -153.271519 
L 508.475271 -150.302544 
L 513.599238 -151.879822 
L 518.723205 -153.439104 
L 523.847172 -148.600249 
L 528.971139 -154.366801 
L 534.095106 -150.658087 
L 539.219073 -155.703297 
L 544.34304 -154.890077 
L 549.467007 -146.296017 
L 554.590974 -151.328174 
L 559.714941 -152.787988 
L 564.838908 -101.437998 
L 569.962874 -149.009057 
L 575.086841 -154.359922 
L 580.210808 -148.564277 
L 585.334775 -150.332123 
L 590.458742 -150.271956 
L 595.582709 -152.420895 
L 600.706676 -154.207025 
L 600.706676 -175.704789 
L 600.706676 -175.704789 
L 595.582709 -172.913014 
L 590.458742 -169.46497 
L 585.334775 -165.208605 
L 580.210808 -174.138789 
L 575.086841 -158.380448 
L 569.962874 -170.596898 
L 564.838908 -266.861267 
L 559.714941 -164.26654 
L 554.590974 -168.219014 
L 549.467007 -183.125954 
L 544.34304 -163.292891 
L 539.219073 -171.636442 
L 534.095106 -165.679845 
L 528.971139 -168.071673 
L 523.847172 -169.871864 
L 518.723205 -158.189309 
L 513.599238 -164.54285 
L 508.475271 -165.8178 
L 503.351304 -167.330323 
L 498.227337 -166.304471 
L 493.10337 -184.888947 
L 487.979403 -161.668917 
L 482.855436 -162.840978 
L 477.73147 -171.533282 
L 472.607503 -180.09561 
L 467.483536 -165.800586 
L 462.359569 -159.153084 
L 457.235602 -160.449255 
L 452.111635 -165.357855 
L 446.987668 -172.964731 
L 441.863701 -166.3689 
L 436.739734 -165.744998 
L 431.615767 -167.309128 
L 426.4918 -165.130609 
L 421.367833 -188.987247 
L 416.243866 -166.095988 
L 411.119899 -173.018949 
L 405.995932 -166.922618 
L 400.871965 -165.476606 
L 395.747998 -174.799513 
L 390.624032 -176.383531 
L 385.500065 -168.961951 
L 380.376098 -171.023583 
L 375.252131 -164.050312 
L 370.128164 -166.483429 
L 365.004197 -167.425406 
L 359.88023 -172.285224 
L 354.756263 -164.38283 
L 349.632296 -160.815862 
L 344.508329 -165.062492 
L 339.384362 -161.223892 
L 334.260395 -167.272393 
L 329.136428 -171.975885 
L 324.012461 -162.170838 
L 318.888494 -180.470398 
L 313.764527 -159.634101 
L 308.64056 -166.180694 
L 303.516593 -165.569213 
L 298.392627 -162.112188 
L 293.26866 -186.699686 
L 288.144693 -179.810539 
L 283.020726 -163.387933 
L 277.896759 -167.644897 
L 272.772792 -170.125349 
L 267.648825 -173.895087 
L 262.524858 -166.117499 
L 257.400891 -165.080331 
L 252.276924 -248.135301 
L 247.152957 -164.888797 
L 242.02899 -178.846893 
L 236.905023 -168.580695 
L 231.781056 -184.813813 
L 226.657089 -170.600877 
L 221.533122 -167.235603 
L 216.409155 -233.957673 
L 211.285189 -297.029471 
L 206.161222 -355.07625 
L 201.037255 -217.428057 
L 195.913288 -167.391523 
L 190.789321 -194.698721 
L 185.665354 -162.074443 
L 180.541387 -193.503601 
L 175.41742 -231.10626 
L 170.293453 -174.055739 
L 165.169486 -183.260159 
L 160.045519 -176.259012 
L 154.921552 -170.364227 
L 149.797585 -182.138579 
L 144.673618 -248.692275 
L 139.549651 -230.068532 
L 134.425684 -185.620902 
L 129.301717 -166.191008 
L 124.177751 -168.590155 
L 119.053784 -189.286442 
L 113.929817 -186.104194 
L 108.80585 -231.349628 
L 103.681883 -212.062355 
L 98.557916 -171.374057 
L 93.433949 -169.320624 
z
" style="stroke: #007bff; stroke-opacity: 0.2"/>
    </defs>
    <g clip-path="url(#p7101292ba3)">
     <use xlink:href="#m200333a35d" x="0" y="392.514375" style="fill: #007bff; fill-opacity: 0.2; stroke: #007bff; stroke-opacity: 0.2"/>
    </g>
   </g>
   <g id="matplotlib.axis_1">
    <g id="xtick_1">
     <g id="line2d_1">
      <defs>
       <path id="mba8fac668a" d="M 0 0 
L 0 3.5 
" style="stroke: #000000; stroke-width: 0.8"/>
      </defs>
      <g>
       <use xlink:href="#mba8fac668a" x="93.433949" y="354.958125" style="stroke: #000000; stroke-width: 0.8"/>
      </g>
     </g>
     <g id="text_1">
      <!-- 1 -->
      <g transform="translate(90.252699 369.556562) scale(0.1 -0.1)">
       <defs>
        <path id="DejaVuSans-31" d="M 794 531 
L 1825 531 
L 1825 4091 
L 703 3866 
L 703 4441 
L 1819 4666 
L 2450 4666 
L 2450 531 
L 3481 531 
L 3481 0 
L 794 0 
L 794 531 
z
" transform="scale(0.015625)"/>
       </defs>
       <use xlink:href="#DejaVuSans-31"/>
      </g>
     </g>
    </g>
    <g id="xtick_2">
     <g id="line2d_2">
      <g>
       <use xlink:href="#mba8fac668a" x="144.673618" y="354.958125" style="stroke: #000000; stroke-width: 0.8"/>
      </g>
     </g>
     <g id="text_2">
      <!-- 11 -->
      <g transform="translate(138.311118 369.556562) scale(0.1 -0.1)">
       <use xlink:href="#DejaVuSans-31"/>
       <use xlink:href="#DejaVuSans-31" transform="translate(63.623047 0)"/>
      </g>
     </g>
    </g>
    <g id="xtick_3">
     <g id="line2d_3">
      <g>
       <use xlink:href="#mba8fac668a" x="195.913288" y="354.958125" style="stroke: #000000; stroke-width: 0.8"/>
      </g>
     </g>
     <g id="text_3">
      <!-- 21 -->
      <g transform="translate(189.550788 369.556562) scale(0.1 -0.1)">
       <defs>
        <path id="DejaVuSans-32" d="M 1228 531 
L 3431 531 
L 3431 0 
L 469 0 
L 469 531 
Q 828 903 1448 1529 
Q 2069 2156 2228 2338 
Q 2531 2678 2651 2914 
Q 2772 3150 2772 3378 
Q 2772 3750 2511 3984 
Q 2250 4219 1831 4219 
Q 1534 4219 1204 4116 
Q 875 4013 500 3803 
L 500 4441 
Q 881 4594 1212 4672 
Q 1544 4750 1819 4750 
Q 2544 4750 2975 4387 
Q 3406 4025 3406 3419 
Q 3406 3131 3298 2873 
Q 3191 2616 2906 2266 
Q 2828 2175 2409 1742 
Q 1991 1309 1228 531 
z
" transform="scale(0.015625)"/>
       </defs>
       <use xlink:href="#DejaVuSans-32"/>
       <use xlink:href="#DejaVuSans-31" transform="translate(63.623047 0)"/>
      </g>
     </g>
    </g>
    <g id="xtick_4">
     <g id="line2d_4">
      <g>
       <use xlink:href="#mba8fac668a" x="247.152957" y="354.958125" style="stroke: #000000; stroke-width: 0.8"/>
      </g>
     </g>
     <g id="text_4">
      <!-- 31 -->
      <g transform="translate(240.790457 369.556562) scale(0.1 -0.1)">
       <defs>
        <path id="DejaVuSans-33" d="M 2597 2516 
Q 3050 2419 3304 2112 
Q 3559 1806 3559 1356 
Q 3559 666 3084 287 
Q 2609 -91 1734 -91 
Q 1441 -91 1130 -33 
Q 819 25 488 141 
L 488 750 
Q 750 597 1062 519 
Q 1375 441 1716 441 
Q 2309 441 2620 675 
Q 2931 909 2931 1356 
Q 2931 1769 2642 2001 
Q 2353 2234 1838 2234 
L 1294 2234 
L 1294 2753 
L 1863 2753 
Q 2328 2753 2575 2939 
Q 2822 3125 2822 3475 
Q 2822 3834 2567 4026 
Q 2313 4219 1838 4219 
Q 1578 4219 1281 4162 
Q 984 4106 628 3988 
L 628 4550 
Q 988 4650 1302 4700 
Q 1616 4750 1894 4750 
Q 2613 4750 3031 4423 
Q 3450 4097 3450 3541 
Q 3450 3153 3228 2886 
Q 3006 2619 2597 2516 
z
" transform="scale(0.015625)"/>
       </defs>
       <use xlink:href="#DejaVuSans-33"/>
       <use xlink:href="#DejaVuSans-31" transform="translate(63.623047 0)"/>
      </g>
     </g>
    </g>
    <g id="xtick_5">
     <g id="line2d_5">
      <g>
       <use xlink:href="#mba8fac668a" x="298.392627" y="354.958125" style="stroke: #000000; stroke-width: 0.8"/>
      </g>
     </g>
     <g id="text_5">
      <!-- 41 -->
      <g transform="translate(292.030127 369.556562) scale(0.1 -0.1)">
       <defs>
        <path id="DejaVuSans-34" d="M 2419 4116 
L 825 1625 
L 2419 1625 
L 2419 4116 
z
M 2253 4666 
L 3047 4666 
L 3047 1625 
L 3713 1625 
L 3713 1100 
L 3047 1100 
L 3047 0 
L 2419 0 
L 2419 1100 
L 313 1100 
L 313 1709 
L 2253 4666 
z
" transform="scale(0.015625)"/>
       </defs>
       <use xlink:href="#DejaVuSans-34"/>
       <use xlink:href="#DejaVuSans-31" transform="translate(63.623047 0)"/>
      </g>
     </g>
    </g>
    <g id="xtick_6">
     <g id="line2d_6">
      <g>
       <use xlink:href="#mba8fac668a" x="349.632296" y="354.958125" style="stroke: #000000; stroke-width: 0.8"/>
      </g>
     </g>
     <g id="text_6">
      <!-- 51 -->
      <g transform="translate(343.269796 369.556562) scale(0.1 -0.1)">
       <defs>
        <path id="DejaVuSans-35" d="M 691 4666 
L 3169 4666 
L 3169 4134 
L 1269 4134 
L 1269 2991 
Q 1406 3038 1543 3061 
Q 1681 3084 1819 3084 
Q 2600 3084 3056 2656 
Q 3513 2228 3513 1497 
Q 3513 744 3044 326 
Q 2575 -91 1722 -91 
Q 1428 -91 1123 -41 
Q 819 9 494 109 
L 494 744 
Q 775 591 1075 516 
Q 1375 441 1709 441 
Q 2250 441 2565 725 
Q 2881 1009 2881 1497 
Q 2881 1984 2565 2268 
Q 2250 2553 1709 2553 
Q 1456 2553 1204 2497 
Q 953 2441 691 2322 
L 691 4666 
z
" transform="scale(0.015625)"/>
       </defs>
       <use xlink:href="#DejaVuSans-35"/>
       <use xlink:href="#DejaVuSans-31" transform="translate(63.623047 0)"/>
      </g>
     </g>
    </g>
    <g id="xtick_7">
     <g id="line2d_7">
      <g>
       <use xlink:href="#mba8fac668a" x="400.871965" y="354.958125" style="stroke: #000000; stroke-width: 0.8"/>
      </g>
     </g>
     <g id="text_7">
      <!-- 61 -->
      <g transform="translate(394.509465 369.556562) scale(0.1 -0.1)">
       <defs>
        <path id="DejaVuSans-36" d="M 2113 2584 
Q 1688 2584 1439 2293 
Q 1191 2003 1191 1497 
Q 1191 994 1439 701 
Q 1688 409 2113 409 
Q 2538 409 2786 701 
Q 3034 994 3034 1497 
Q 3034 2003 2786 2293 
Q 2538 2584 2113 2584 
z
M 3366 4563 
L 3366 3988 
Q 3128 4100 2886 4159 
Q 2644 4219 2406 4219 
Q 1781 4219 1451 3797 
Q 1122 3375 1075 2522 
Q 1259 2794 1537 2939 
Q 1816 3084 2150 3084 
Q 2853 3084 3261 2657 
Q 3669 2231 3669 1497 
Q 3669 778 3244 343 
Q 2819 -91 2113 -91 
Q 1303 -91 875 529 
Q 447 1150 447 2328 
Q 447 3434 972 4092 
Q 1497 4750 2381 4750 
Q 2619 4750 2861 4703 
Q 3103 4656 3366 4563 
z
" transform="scale(0.015625)"/>
       </defs>
       <use xlink:href="#DejaVuSans-36"/>
       <use xlink:href="#DejaVuSans-31" transform="translate(63.623047 0)"/>
      </g>
     </g>
    </g>
    <g id="xtick_8">
     <g id="line2d_8">
      <g>
       <use xlink:href="#mba8fac668a" x="452.111635" y="354.958125" style="stroke: #000000; stroke-width: 0.8"/>
      </g>
     </g>
     <g id="text_8">
      <!-- 71 -->
      <g transform="translate(445.749135 369.556562) scale(0.1 -0.1)">
       <defs>
        <path id="DejaVuSans-37" d="M 525 4666 
L 3525 4666 
L 3525 4397 
L 1831 0 
L 1172 0 
L 2766 4134 
L 525 4134 
L 525 4666 
z
" transform="scale(0.015625)"/>
       </defs>
       <use xlink:href="#DejaVuSans-37"/>
       <use xlink:href="#DejaVuSans-31" transform="translate(63.623047 0)"/>
      </g>
     </g>
    </g>
    <g id="xtick_9">
     <g id="line2d_9">
      <g>
       <use xlink:href="#mba8fac668a" x="503.351304" y="354.958125" style="stroke: #000000; stroke-width: 0.8"/>
      </g>
     </g>
     <g id="text_9">
      <!-- 81 -->
      <g transform="translate(496.988804 369.556562) scale(0.1 -0.1)">
       <defs>
        <path id="DejaVuSans-38" d="M 2034 2216 
Q 1584 2216 1326 1975 
Q 1069 1734 1069 1313 
Q 1069 891 1326 650 
Q 1584 409 2034 409 
Q 2484 409 2743 651 
Q 3003 894 3003 1313 
Q 3003 1734 2745 1975 
Q 2488 2216 2034 2216 
z
M 1403 2484 
Q 997 2584 770 2862 
Q 544 3141 544 3541 
Q 544 4100 942 4425 
Q 1341 4750 2034 4750 
Q 2731 4750 3128 4425 
Q 3525 4100 3525 3541 
Q 3525 3141 3298 2862 
Q 3072 2584 2669 2484 
Q 3125 2378 3379 2068 
Q 3634 1759 3634 1313 
Q 3634 634 3220 271 
Q 2806 -91 2034 -91 
Q 1263 -91 848 271 
Q 434 634 434 1313 
Q 434 1759 690 2068 
Q 947 2378 1403 2484 
z
M 1172 3481 
Q 1172 3119 1398 2916 
Q 1625 2713 2034 2713 
Q 2441 2713 2670 2916 
Q 2900 3119 2900 3481 
Q 2900 3844 2670 4047 
Q 2441 4250 2034 4250 
Q 1625 4250 1398 4047 
Q 1172 3844 1172 3481 
z
" transform="scale(0.015625)"/>
       </defs>
       <use xlink:href="#DejaVuSans-38"/>
       <use xlink:href="#DejaVuSans-31" transform="translate(63.623047 0)"/>
      </g>
     </g>
    </g>
    <g id="xtick_10">
     <g id="line2d_10">
      <g>
       <use xlink:href="#mba8fac668a" x="554.590974" y="354.958125" style="stroke: #000000; stroke-width: 0.8"/>
      </g>
     </g>
     <g id="text_10">
      <!-- 91 -->
      <g transform="translate(548.228474 369.556562) scale(0.1 -0.1)">
       <defs>
        <path id="DejaVuSans-39" d="M 703 97 
L 703 672 
Q 941 559 1184 500 
Q 1428 441 1663 441 
Q 2288 441 2617 861 
Q 2947 1281 2994 2138 
Q 2813 1869 2534 1725 
Q 2256 1581 1919 1581 
Q 1219 1581 811 2004 
Q 403 2428 403 3163 
Q 403 3881 828 4315 
Q 1253 4750 1959 4750 
Q 2769 4750 3195 4129 
Q 3622 3509 3622 2328 
Q 3622 1225 3098 567 
Q 2575 -91 1691 -91 
Q 1453 -91 1209 -44 
Q 966 3 703 97 
z
M 1959 2075 
Q 2384 2075 2632 2365 
Q 2881 2656 2881 3163 
Q 2881 3666 2632 3958 
Q 2384 4250 1959 4250 
Q 1534 4250 1286 3958 
Q 1038 3666 1038 3163 
Q 1038 2656 1286 2365 
Q 1534 2075 1959 2075 
z
" transform="scale(0.015625)"/>
       </defs>
       <use xlink:href="#DejaVuSans-39"/>
       <use xlink:href="#DejaVuSans-31" transform="translate(63.623047 0)"/>
      </g>
     </g>
    </g>
    <g id="text_11">
     <!-- Trial ID -->
     <g transform="translate(329.942187 383.234687) scale(0.1 -0.1)">
      <defs>
       <path id="DejaVuSans-54" d="M -19 4666 
L 3928 4666 
L 3928 4134 
L 2272 4134 
L 2272 0 
L 1638 0 
L 1638 4134 
L -19 4134 
L -19 4666 
z
" transform="scale(0.015625)"/>
       <path id="DejaVuSans-72" d="M 2631 2963 
Q 2534 3019 2420 3045 
Q 2306 3072 2169 3072 
Q 1681 3072 1420 2755 
Q 1159 2438 1159 1844 
L 1159 0 
L 581 0 
L 581 3500 
L 1159 3500 
L 1159 2956 
Q 1341 3275 1631 3429 
Q 1922 3584 2338 3584 
Q 2397 3584 2469 3576 
Q 2541 3569 2628 3553 
L 2631 2963 
z
" transform="scale(0.015625)"/>
       <path id="DejaVuSans-69" d="M 603 3500 
L 1178 3500 
L 1178 0 
L 603 0 
L 603 3500 
z
M 603 4863 
L 1178 4863 
L 1178 4134 
L 603 4134 
L 603 4863 
z
" transform="scale(0.015625)"/>
       <path id="DejaVuSans-61" d="M 2194 1759 
Q 1497 1759 1228 1600 
Q 959 1441 959 1056 
Q 959 750 1161 570 
Q 1363 391 1709 391 
Q 2188 391 2477 730 
Q 2766 1069 2766 1631 
L 2766 1759 
L 2194 1759 
z
M 3341 1997 
L 3341 0 
L 2766 0 
L 2766 531 
Q 2569 213 2275 61 
Q 1981 -91 1556 -91 
Q 1019 -91 701 211 
Q 384 513 384 1019 
Q 384 1609 779 1909 
Q 1175 2209 1959 2209 
L 2766 2209 
L 2766 2266 
Q 2766 2663 2505 2880 
Q 2244 3097 1772 3097 
Q 1472 3097 1187 3025 
Q 903 2953 641 2809 
L 641 3341 
Q 956 3463 1253 3523 
Q 1550 3584 1831 3584 
Q 2591 3584 2966 3190 
Q 3341 2797 3341 1997 
z
" transform="scale(0.015625)"/>
       <path id="DejaVuSans-6c" d="M 603 4863 
L 1178 4863 
L 1178 0 
L 603 0 
L 603 4863 
z
" transform="scale(0.015625)"/>
       <path id="DejaVuSans-20" transform="scale(0.015625)"/>
       <path id="DejaVuSans-49" d="M 628 4666 
L 1259 4666 
L 1259 0 
L 628 0 
L 628 4666 
z
" transform="scale(0.015625)"/>
       <path id="DejaVuSans-44" d="M 1259 4147 
L 1259 519 
L 2022 519 
Q 2988 519 3436 956 
Q 3884 1394 3884 2338 
Q 3884 3275 3436 3711 
Q 2988 4147 2022 4147 
L 1259 4147 
z
M 628 4666 
L 1925 4666 
Q 3281 4666 3915 4102 
Q 4550 3538 4550 2338 
Q 4550 1131 3912 565 
Q 3275 0 1925 0 
L 628 0 
L 628 4666 
z
" transform="scale(0.015625)"/>
      </defs>
      <use xlink:href="#DejaVuSans-54"/>
      <use xlink:href="#DejaVuSans-72" transform="translate(46.333984 0)"/>
      <use xlink:href="#DejaVuSans-69" transform="translate(87.447266 0)"/>
      <use xlink:href="#DejaVuSans-61" transform="translate(115.230469 0)"/>
      <use xlink:href="#DejaVuSans-6c" transform="translate(176.509766 0)"/>
      <use xlink:href="#DejaVuSans-20" transform="translate(204.292969 0)"/>
      <use xlink:href="#DejaVuSans-49" transform="translate(236.080078 0)"/>
      <use xlink:href="#DejaVuSans-44" transform="translate(265.572266 0)"/>
     </g>
    </g>
   </g>
   <g id="matplotlib.axis_2">
    <g id="ytick_1">
     <g id="line2d_11">
      <defs>
       <path id="m2453f0475a" d="M 0 0 
L -3.5 0 
" style="stroke: #000000; stroke-width: 0.8"/>
      </defs>
      <g>
       <use xlink:href="#m2453f0475a" x="68.070312" y="332.904205" style="stroke: #000000; stroke-width: 0.8"/>
      </g>
     </g>
     <g id="text_12">
      <!-- −10000 -->
      <g transform="translate(20.878125 336.703423) scale(0.1 -0.1)">
       <defs>
        <path id="DejaVuSans-2212" d="M 678 2272 
L 4684 2272 
L 4684 1741 
L 678 1741 
L 678 2272 
z
" transform="scale(0.015625)"/>
        <path id="DejaVuSans-30" d="M 2034 4250 
Q 1547 4250 1301 3770 
Q 1056 3291 1056 2328 
Q 1056 1369 1301 889 
Q 1547 409 2034 409 
Q 2525 409 2770 889 
Q 3016 1369 3016 2328 
Q 3016 3291 2770 3770 
Q 2525 4250 2034 4250 
z
M 2034 4750 
Q 2819 4750 3233 4129 
Q 3647 3509 3647 2328 
Q 3647 1150 3233 529 
Q 2819 -91 2034 -91 
Q 1250 -91 836 529 
Q 422 1150 422 2328 
Q 422 3509 836 4129 
Q 1250 4750 2034 4750 
z
" transform="scale(0.015625)"/>
       </defs>
       <use xlink:href="#DejaVuSans-2212"/>
       <use xlink:href="#DejaVuSans-31" transform="translate(83.789062 0)"/>
       <use xlink:href="#DejaVuSans-30" transform="translate(147.412109 0)"/>
       <use xlink:href="#DejaVuSans-30" transform="translate(211.035156 0)"/>
       <use xlink:href="#DejaVuSans-30" transform="translate(274.658203 0)"/>
       <use xlink:href="#DejaVuSans-30" transform="translate(338.28125 0)"/>
      </g>
     </g>
    </g>
    <g id="ytick_2">
     <g id="line2d_12">
      <g>
       <use xlink:href="#m2453f0475a" x="68.070312" y="289.155584" style="stroke: #000000; stroke-width: 0.8"/>
      </g>
     </g>
     <g id="text_13">
      <!-- −5000 -->
      <g transform="translate(27.240625 292.954803) scale(0.1 -0.1)">
       <use xlink:href="#DejaVuSans-2212"/>
       <use xlink:href="#DejaVuSans-35" transform="translate(83.789062 0)"/>
       <use xlink:href="#DejaVuSans-30" transform="translate(147.412109 0)"/>
       <use xlink:href="#DejaVuSans-30" transform="translate(211.035156 0)"/>
       <use xlink:href="#DejaVuSans-30" transform="translate(274.658203 0)"/>
      </g>
     </g>
    </g>
    <g id="ytick_3">
     <g id="line2d_13">
      <g>
       <use xlink:href="#m2453f0475a" x="68.070312" y="245.406963" style="stroke: #000000; stroke-width: 0.8"/>
      </g>
     </g>
     <g id="text_14">
      <!-- 0 -->
      <g transform="translate(54.707813 249.206182) scale(0.1 -0.1)">
       <use xlink:href="#DejaVuSans-30"/>
      </g>
     </g>
    </g>
    <g id="ytick_4">
     <g id="line2d_14">
      <g>
       <use xlink:href="#m2453f0475a" x="68.070312" y="201.658342" style="stroke: #000000; stroke-width: 0.8"/>
      </g>
     </g>
     <g id="text_15">
      <!-- 5000 -->
      <g transform="translate(35.620312 205.457561) scale(0.1 -0.1)">
       <use xlink:href="#DejaVuSans-35"/>
       <use xlink:href="#DejaVuSans-30" transform="translate(63.623047 0)"/>
       <use xlink:href="#DejaVuSans-30" transform="translate(127.246094 0)"/>
       <use xlink:href="#DejaVuSans-30" transform="translate(190.869141 0)"/>
      </g>
     </g>
    </g>
    <g id="ytick_5">
     <g id="line2d_15">
      <g>
       <use xlink:href="#m2453f0475a" x="68.070312" y="157.909722" style="stroke: #000000; stroke-width: 0.8"/>
      </g>
     </g>
     <g id="text_16">
      <!-- 10000 -->
      <g transform="translate(29.257812 161.70894) scale(0.1 -0.1)">
       <use xlink:href="#DejaVuSans-31"/>
       <use xlink:href="#DejaVuSans-30" transform="translate(63.623047 0)"/>
       <use xlink:href="#DejaVuSans-30" transform="translate(127.246094 0)"/>
       <use xlink:href="#DejaVuSans-30" transform="translate(190.869141 0)"/>
       <use xlink:href="#DejaVuSans-30" transform="translate(254.492188 0)"/>
      </g>
     </g>
    </g>
    <g id="ytick_6">
     <g id="line2d_16">
      <g>
       <use xlink:href="#m2453f0475a" x="68.070312" y="114.161101" style="stroke: #000000; stroke-width: 0.8"/>
      </g>
     </g>
     <g id="text_17">
      <!-- 15000 -->
      <g transform="translate(29.257812 117.96032) scale(0.1 -0.1)">
       <use xlink:href="#DejaVuSans-31"/>
       <use xlink:href="#DejaVuSans-35" transform="translate(63.623047 0)"/>
       <use xlink:href="#DejaVuSans-30" transform="translate(127.246094 0)"/>
       <use xlink:href="#DejaVuSans-30" transform="translate(190.869141 0)"/>
       <use xlink:href="#DejaVuSans-30" transform="translate(254.492188 0)"/>
      </g>
     </g>
    </g>
    <g id="ytick_7">
     <g id="line2d_17">
      <g>
       <use xlink:href="#m2453f0475a" x="68.070312" y="70.41248" style="stroke: #000000; stroke-width: 0.8"/>
      </g>
     </g>
     <g id="text_18">
      <!-- 20000 -->
      <g transform="translate(29.257812 74.211699) scale(0.1 -0.1)">
       <use xlink:href="#DejaVuSans-32"/>
       <use xlink:href="#DejaVuSans-30" transform="translate(63.623047 0)"/>
       <use xlink:href="#DejaVuSans-30" transform="translate(127.246094 0)"/>
       <use xlink:href="#DejaVuSans-30" transform="translate(190.869141 0)"/>
       <use xlink:href="#DejaVuSans-30" transform="translate(254.492188 0)"/>
      </g>
     </g>
    </g>
    <g id="ytick_8">
     <g id="line2d_18">
      <g>
       <use xlink:href="#m2453f0475a" x="68.070312" y="26.663859" style="stroke: #000000; stroke-width: 0.8"/>
      </g>
     </g>
     <g id="text_19">
      <!-- 25000 -->
      <g transform="translate(29.257812 30.463078) scale(0.1 -0.1)">
       <use xlink:href="#DejaVuSans-32"/>
       <use xlink:href="#DejaVuSans-35" transform="translate(63.623047 0)"/>
       <use xlink:href="#DejaVuSans-30" transform="translate(127.246094 0)"/>
       <use xlink:href="#DejaVuSans-30" transform="translate(190.869141 0)"/>
       <use xlink:href="#DejaVuSans-30" transform="translate(254.492188 0)"/>
      </g>
     </g>
    </g>
    <g id="text_20">
     <!-- Mean Reaction Time (ms) -->
     <g transform="translate(14.798437 252.355312) rotate(-90) scale(0.1 -0.1)">
      <defs>
       <path id="DejaVuSans-4d" d="M 628 4666 
L 1569 4666 
L 2759 1491 
L 3956 4666 
L 4897 4666 
L 4897 0 
L 4281 0 
L 4281 4097 
L 3078 897 
L 2444 897 
L 1241 4097 
L 1241 0 
L 628 0 
L 628 4666 
z
" transform="scale(0.015625)"/>
       <path id="DejaVuSans-65" d="M 3597 1894 
L 3597 1613 
L 953 1613 
Q 991 1019 1311 708 
Q 1631 397 2203 397 
Q 2534 397 2845 478 
Q 3156 559 3463 722 
L 3463 178 
Q 3153 47 2828 -22 
Q 2503 -91 2169 -91 
Q 1331 -91 842 396 
Q 353 884 353 1716 
Q 353 2575 817 3079 
Q 1281 3584 2069 3584 
Q 2775 3584 3186 3129 
Q 3597 2675 3597 1894 
z
M 3022 2063 
Q 3016 2534 2758 2815 
Q 2500 3097 2075 3097 
Q 1594 3097 1305 2825 
Q 1016 2553 972 2059 
L 3022 2063 
z
" transform="scale(0.015625)"/>
       <path id="DejaVuSans-6e" d="M 3513 2113 
L 3513 0 
L 2938 0 
L 2938 2094 
Q 2938 2591 2744 2837 
Q 2550 3084 2163 3084 
Q 1697 3084 1428 2787 
Q 1159 2491 1159 1978 
L 1159 0 
L 581 0 
L 581 3500 
L 1159 3500 
L 1159 2956 
Q 1366 3272 1645 3428 
Q 1925 3584 2291 3584 
Q 2894 3584 3203 3211 
Q 3513 2838 3513 2113 
z
" transform="scale(0.015625)"/>
       <path id="DejaVuSans-52" d="M 2841 2188 
Q 3044 2119 3236 1894 
Q 3428 1669 3622 1275 
L 4263 0 
L 3584 0 
L 2988 1197 
Q 2756 1666 2539 1819 
Q 2322 1972 1947 1972 
L 1259 1972 
L 1259 0 
L 628 0 
L 628 4666 
L 2053 4666 
Q 2853 4666 3247 4331 
Q 3641 3997 3641 3322 
Q 3641 2881 3436 2590 
Q 3231 2300 2841 2188 
z
M 1259 4147 
L 1259 2491 
L 2053 2491 
Q 2509 2491 2742 2702 
Q 2975 2913 2975 3322 
Q 2975 3731 2742 3939 
Q 2509 4147 2053 4147 
L 1259 4147 
z
" transform="scale(0.015625)"/>
       <path id="DejaVuSans-63" d="M 3122 3366 
L 3122 2828 
Q 2878 2963 2633 3030 
Q 2388 3097 2138 3097 
Q 1578 3097 1268 2742 
Q 959 2388 959 1747 
Q 959 1106 1268 751 
Q 1578 397 2138 397 
Q 2388 397 2633 464 
Q 2878 531 3122 666 
L 3122 134 
Q 2881 22 2623 -34 
Q 2366 -91 2075 -91 
Q 1284 -91 818 406 
Q 353 903 353 1747 
Q 353 2603 823 3093 
Q 1294 3584 2113 3584 
Q 2378 3584 2631 3529 
Q 2884 3475 3122 3366 
z
" transform="scale(0.015625)"/>
       <path id="DejaVuSans-74" d="M 1172 4494 
L 1172 3500 
L 2356 3500 
L 2356 3053 
L 1172 3053 
L 1172 1153 
Q 1172 725 1289 603 
Q 1406 481 1766 481 
L 2356 481 
L 2356 0 
L 1766 0 
Q 1100 0 847 248 
Q 594 497 594 1153 
L 594 3053 
L 172 3053 
L 172 3500 
L 594 3500 
L 594 4494 
L 1172 4494 
z
" transform="scale(0.015625)"/>
       <path id="DejaVuSans-6f" d="M 1959 3097 
Q 1497 3097 1228 2736 
Q 959 2375 959 1747 
Q 959 1119 1226 758 
Q 1494 397 1959 397 
Q 2419 397 2687 759 
Q 2956 1122 2956 1747 
Q 2956 2369 2687 2733 
Q 2419 3097 1959 3097 
z
M 1959 3584 
Q 2709 3584 3137 3096 
Q 3566 2609 3566 1747 
Q 3566 888 3137 398 
Q 2709 -91 1959 -91 
Q 1206 -91 779 398 
Q 353 888 353 1747 
Q 353 2609 779 3096 
Q 1206 3584 1959 3584 
z
" transform="scale(0.015625)"/>
       <path id="DejaVuSans-6d" d="M 3328 2828 
Q 3544 3216 3844 3400 
Q 4144 3584 4550 3584 
Q 5097 3584 5394 3201 
Q 5691 2819 5691 2113 
L 5691 0 
L 5113 0 
L 5113 2094 
Q 5113 2597 4934 2840 
Q 4756 3084 4391 3084 
Q 3944 3084 3684 2787 
Q 3425 2491 3425 1978 
L 3425 0 
L 2847 0 
L 2847 2094 
Q 2847 2600 2669 2842 
Q 2491 3084 2119 3084 
Q 1678 3084 1418 2786 
Q 1159 2488 1159 1978 
L 1159 0 
L 581 0 
L 581 3500 
L 1159 3500 
L 1159 2956 
Q 1356 3278 1631 3431 
Q 1906 3584 2284 3584 
Q 2666 3584 2933 3390 
Q 3200 3197 3328 2828 
z
" transform="scale(0.015625)"/>
       <path id="DejaVuSans-28" d="M 1984 4856 
Q 1566 4138 1362 3434 
Q 1159 2731 1159 2009 
Q 1159 1288 1364 580 
Q 1569 -128 1984 -844 
L 1484 -844 
Q 1016 -109 783 600 
Q 550 1309 550 2009 
Q 550 2706 781 3412 
Q 1013 4119 1484 4856 
L 1984 4856 
z
" transform="scale(0.015625)"/>
       <path id="DejaVuSans-73" d="M 2834 3397 
L 2834 2853 
Q 2591 2978 2328 3040 
Q 2066 3103 1784 3103 
Q 1356 3103 1142 2972 
Q 928 2841 928 2578 
Q 928 2378 1081 2264 
Q 1234 2150 1697 2047 
L 1894 2003 
Q 2506 1872 2764 1633 
Q 3022 1394 3022 966 
Q 3022 478 2636 193 
Q 2250 -91 1575 -91 
Q 1294 -91 989 -36 
Q 684 19 347 128 
L 347 722 
Q 666 556 975 473 
Q 1284 391 1588 391 
Q 1994 391 2212 530 
Q 2431 669 2431 922 
Q 2431 1156 2273 1281 
Q 2116 1406 1581 1522 
L 1381 1569 
Q 847 1681 609 1914 
Q 372 2147 372 2553 
Q 372 3047 722 3315 
Q 1072 3584 1716 3584 
Q 2034 3584 2315 3537 
Q 2597 3491 2834 3397 
z
" transform="scale(0.015625)"/>
       <path id="DejaVuSans-29" d="M 513 4856 
L 1013 4856 
Q 1481 4119 1714 3412 
Q 1947 2706 1947 2009 
Q 1947 1309 1714 600 
Q 1481 -109 1013 -844 
L 513 -844 
Q 928 -128 1133 580 
Q 1338 1288 1338 2009 
Q 1338 2731 1133 3434 
Q 928 4138 513 4856 
z
" transform="scale(0.015625)"/>
      </defs>
      <use xlink:href="#DejaVuSans-4d"/>
      <use xlink:href="#DejaVuSans-65" transform="translate(86.279297 0)"/>
      <use xlink:href="#DejaVuSans-61" transform="translate(147.802734 0)"/>
      <use xlink:href="#DejaVuSans-6e" transform="translate(209.082031 0)"/>
      <use xlink:href="#DejaVuSans-20" transform="translate(272.460938 0)"/>
      <use xlink:href="#DejaVuSans-52" transform="translate(304.248047 0)"/>
      <use xlink:href="#DejaVuSans-65" transform="translate(369.230469 0)"/>
      <use xlink:href="#DejaVuSans-61" transform="translate(430.753906 0)"/>
      <use xlink:href="#DejaVuSans-63" transform="translate(492.033203 0)"/>
      <use xlink:href="#DejaVuSans-74" transform="translate(547.013672 0)"/>
      <use xlink:href="#DejaVuSans-69" transform="translate(586.222656 0)"/>
      <use xlink:href="#DejaVuSans-6f" transform="translate(614.005859 0)"/>
      <use xlink:href="#DejaVuSans-6e" transform="translate(675.1875 0)"/>
      <use xlink:href="#DejaVuSans-20" transform="translate(738.566406 0)"/>
      <use xlink:href="#DejaVuSans-54" transform="translate(770.353516 0)"/>
      <use xlink:href="#DejaVuSans-69" transform="translate(828.3125 0)"/>
      <use xlink:href="#DejaVuSans-6d" transform="translate(856.095703 0)"/>
      <use xlink:href="#DejaVuSans-65" transform="translate(953.507812 0)"/>
      <use xlink:href="#DejaVuSans-20" transform="translate(1015.03125 0)"/>
      <use xlink:href="#DejaVuSans-28" transform="translate(1046.818359 0)"/>
      <use xlink:href="#DejaVuSans-6d" transform="translate(1085.832031 0)"/>
      <use xlink:href="#DejaVuSans-73" transform="translate(1183.244141 0)"/>
      <use xlink:href="#DejaVuSans-29" transform="translate(1235.34375 0)"/>
     </g>
    </g>
   </g>
   <g id="line2d_19">
    <path d="M 93.433949 219.779162 
L 98.557916 232.218095 
L 103.681883 232.743337 
L 108.80585 233.757054 
L 113.929817 231.733661 
L 119.053784 232.766128 
L 124.177751 229.499514 
L 129.301717 234.348731 
L 134.425684 234.684325 
L 139.549651 235.253411 
L 144.673618 219.027366 
L 149.797585 232.30169 
L 154.921552 236.42483 
L 160.045519 235.366448 
L 165.169486 236.90361 
L 170.293453 232.411837 
L 175.41742 231.307943 
L 180.541387 234.080298 
L 185.665354 234.353611 
L 190.789321 233.546444 
L 195.913288 229.664786 
L 201.037255 221.424849 
L 206.161222 230.525685 
L 211.285189 235.223032 
L 216.409155 208.320213 
L 221.533122 233.526909 
L 226.657089 233.758049 
L 231.781056 233.744479 
L 236.905023 235.884553 
L 242.02899 233.842536 
L 247.152957 233.316499 
L 252.276924 236.259044 
L 257.400891 235.489896 
L 262.524858 233.516238 
L 267.648825 233.979517 
L 272.772792 237.552386 
L 277.896759 232.155141 
L 283.020726 234.439626 
L 288.144693 236.145341 
L 293.26866 234.791607 
L 298.392627 236.246167 
L 303.516593 236.114428 
L 308.64056 232.89755 
L 313.764527 231.733266 
L 318.888494 236.233722 
L 324.012461 236.859296 
L 329.136428 214.097546 
L 334.260395 232.81271 
L 339.384362 233.251544 
L 344.508329 237.600553 
L 349.632296 237.065109 
L 354.756263 236.630552 
L 359.88023 233.773151 
L 365.004197 235.560054 
L 370.128164 236.04062 
L 375.252131 233.401226 
L 380.376098 236.447327 
L 385.500065 235.484117 
L 390.624032 232.593676 
L 395.747998 236.666553 
L 400.871965 237.097417 
L 405.995932 233.968903 
L 411.119899 233.576807 
L 416.243866 235.976046 
L 421.367833 234.235344 
L 426.4918 234.129172 
L 431.615767 234.927282 
L 436.739734 233.389796 
L 441.863701 235.313258 
L 446.987668 233.194197 
L 452.111635 235.421731 
L 457.235602 233.839136 
L 462.359569 233.490494 
L 467.483536 236.79847 
L 472.607503 237.761342 
L 477.73147 236.711237 
L 482.855436 236.029262 
L 487.979403 236.513481 
L 493.10337 233.738188 
L 498.227337 233.811086 
L 503.351304 236.421302 
L 508.475271 235.077322 
L 513.599238 233.852815 
L 518.723205 236.734293 
L 523.847172 235.759091 
L 528.971139 237.096922 
L 534.095106 231.529579 
L 539.219073 235.578846 
L 544.34304 236.043607 
L 549.467007 234.938955 
L 554.590974 232.353889 
L 559.714941 234.875248 
L 564.838908 233.988342 
L 569.962874 220.522175 
L 575.086841 236.527039 
L 580.210808 237.490387 
L 585.334775 236.405921 
L 590.458742 232.106802 
L 595.582709 235.542098 
L 600.706676 223.042469 
" clip-path="url(#p7101292ba3)" style="fill: none; stroke: #35dc67; stroke-width: 1.5; stroke-linecap: square"/>
    <defs>
     <path id="m20687e0b6e" d="M 0 3 
C 0.795609 3 1.55874 2.683901 2.12132 2.12132 
C 2.683901 1.55874 3 0.795609 3 0 
C 3 -0.795609 2.683901 -1.55874 2.12132 -2.12132 
C 1.55874 -2.683901 0.795609 -3 0 -3 
C -0.795609 -3 -1.55874 -2.683901 -2.12132 -2.12132 
C -2.683901 -1.55874 -3 -0.795609 -3 0 
C -3 0.795609 -2.683901 1.55874 -2.12132 2.12132 
C -1.55874 2.683901 -0.795609 3 0 3 
z
" style="stroke: #ffffff; stroke-width: 0.75"/>
    </defs>
    <g clip-path="url(#p7101292ba3)">
     <use xlink:href="#m20687e0b6e" x="93.433949" y="219.779162" style="fill: #35dc67; stroke: #ffffff; stroke-width: 0.75"/>
     <use xlink:href="#m20687e0b6e" x="98.557916" y="232.218095" style="fill: #35dc67; stroke: #ffffff; stroke-width: 0.75"/>
     <use xlink:href="#m20687e0b6e" x="103.681883" y="232.743337" style="fill: #35dc67; stroke: #ffffff; stroke-width: 0.75"/>
     <use xlink:href="#m20687e0b6e" x="108.80585" y="233.757054" style="fill: #35dc67; stroke: #ffffff; stroke-width: 0.75"/>
     <use xlink:href="#m20687e0b6e" x="113.929817" y="231.733661" style="fill: #35dc67; stroke: #ffffff; stroke-width: 0.75"/>
     <use xlink:href="#m20687e0b6e" x="119.053784" y="232.766128" style="fill: #35dc67; stroke: #ffffff; stroke-width: 0.75"/>
     <use xlink:href="#m20687e0b6e" x="124.177751" y="229.499514" style="fill: #35dc67; stroke: #ffffff; stroke-width: 0.75"/>
     <use xlink:href="#m20687e0b6e" x="129.301717" y="234.348731" style="fill: #35dc67; stroke: #ffffff; stroke-width: 0.75"/>
     <use xlink:href="#m20687e0b6e" x="134.425684" y="234.684325" style="fill: #35dc67; stroke: #ffffff; stroke-width: 0.75"/>
     <use xlink:href="#m20687e0b6e" x="139.549651" y="235.253411" style="fill: #35dc67; stroke: #ffffff; stroke-width: 0.75"/>
     <use xlink:href="#m20687e0b6e" x="144.673618" y="219.027366" style="fill: #35dc67; stroke: #ffffff; stroke-width: 0.75"/>
     <use xlink:href="#m20687e0b6e" x="149.797585" y="232.30169" style="fill: #35dc67; stroke: #ffffff; stroke-width: 0.75"/>
     <use xlink:href="#m20687e0b6e" x="154.921552" y="236.42483" style="fill: #35dc67; stroke: #ffffff; stroke-width: 0.75"/>
     <use xlink:href="#m20687e0b6e" x="160.045519" y="235.366448" style="fill: #35dc67; stroke: #ffffff; stroke-width: 0.75"/>
     <use xlink:href="#m20687e0b6e" x="165.169486" y="236.90361" style="fill: #35dc67; stroke: #ffffff; stroke-width: 0.75"/>
     <use xlink:href="#m20687e0b6e" x="170.293453" y="232.411837" style="fill: #35dc67; stroke: #ffffff; stroke-width: 0.75"/>
     <use xlink:href="#m20687e0b6e" x="175.41742" y="231.307943" style="fill: #35dc67; stroke: #ffffff; stroke-width: 0.75"/>
     <use xlink:href="#m20687e0b6e" x="180.541387" y="234.080298" style="fill: #35dc67; stroke: #ffffff; stroke-width: 0.75"/>
     <use xlink:href="#m20687e0b6e" x="185.665354" y="234.353611" style="fill: #35dc67; stroke: #ffffff; stroke-width: 0.75"/>
     <use xlink:href="#m20687e0b6e" x="190.789321" y="233.546444" style="fill: #35dc67; stroke: #ffffff; stroke-width: 0.75"/>
     <use xlink:href="#m20687e0b6e" x="195.913288" y="229.664786" style="fill: #35dc67; stroke: #ffffff; stroke-width: 0.75"/>
     <use xlink:href="#m20687e0b6e" x="201.037255" y="221.424849" style="fill: #35dc67; stroke: #ffffff; stroke-width: 0.75"/>
     <use xlink:href="#m20687e0b6e" x="206.161222" y="230.525685" style="fill: #35dc67; stroke: #ffffff; stroke-width: 0.75"/>
     <use xlink:href="#m20687e0b6e" x="211.285189" y="235.223032" style="fill: #35dc67; stroke: #ffffff; stroke-width: 0.75"/>
     <use xlink:href="#m20687e0b6e" x="216.409155" y="208.320213" style="fill: #35dc67; stroke: #ffffff; stroke-width: 0.75"/>
     <use xlink:href="#m20687e0b6e" x="221.533122" y="233.526909" style="fill: #35dc67; stroke: #ffffff; stroke-width: 0.75"/>
     <use xlink:href="#m20687e0b6e" x="226.657089" y="233.758049" style="fill: #35dc67; stroke: #ffffff; stroke-width: 0.75"/>
     <use xlink:href="#m20687e0b6e" x="231.781056" y="233.744479" style="fill: #35dc67; stroke: #ffffff; stroke-width: 0.75"/>
     <use xlink:href="#m20687e0b6e" x="236.905023" y="235.884553" style="fill: #35dc67; stroke: #ffffff; stroke-width: 0.75"/>
     <use xlink:href="#m20687e0b6e" x="242.02899" y="233.842536" style="fill: #35dc67; stroke: #ffffff; stroke-width: 0.75"/>
     <use xlink:href="#m20687e0b6e" x="247.152957" y="233.316499" style="fill: #35dc67; stroke: #ffffff; stroke-width: 0.75"/>
     <use xlink:href="#m20687e0b6e" x="252.276924" y="236.259044" style="fill: #35dc67; stroke: #ffffff; stroke-width: 0.75"/>
     <use xlink:href="#m20687e0b6e" x="257.400891" y="235.489896" style="fill: #35dc67; stroke: #ffffff; stroke-width: 0.75"/>
     <use xlink:href="#m20687e0b6e" x="262.524858" y="233.516238" style="fill: #35dc67; stroke: #ffffff; stroke-width: 0.75"/>
     <use xlink:href="#m20687e0b6e" x="267.648825" y="233.979517" style="fill: #35dc67; stroke: #ffffff; stroke-width: 0.75"/>
     <use xlink:href="#m20687e0b6e" x="272.772792" y="237.552386" style="fill: #35dc67; stroke: #ffffff; stroke-width: 0.75"/>
     <use xlink:href="#m20687e0b6e" x="277.896759" y="232.155141" style="fill: #35dc67; stroke: #ffffff; stroke-width: 0.75"/>
     <use xlink:href="#m20687e0b6e" x="283.020726" y="234.439626" style="fill: #35dc67; stroke: #ffffff; stroke-width: 0.75"/>
     <use xlink:href="#m20687e0b6e" x="288.144693" y="236.145341" style="fill: #35dc67; stroke: #ffffff; stroke-width: 0.75"/>
     <use xlink:href="#m20687e0b6e" x="293.26866" y="234.791607" style="fill: #35dc67; stroke: #ffffff; stroke-width: 0.75"/>
     <use xlink:href="#m20687e0b6e" x="298.392627" y="236.246167" style="fill: #35dc67; stroke: #ffffff; stroke-width: 0.75"/>
     <use xlink:href="#m20687e0b6e" x="303.516593" y="236.114428" style="fill: #35dc67; stroke: #ffffff; stroke-width: 0.75"/>
     <use xlink:href="#m20687e0b6e" x="308.64056" y="232.89755" style="fill: #35dc67; stroke: #ffffff; stroke-width: 0.75"/>
     <use xlink:href="#m20687e0b6e" x="313.764527" y="231.733266" style="fill: #35dc67; stroke: #ffffff; stroke-width: 0.75"/>
     <use xlink:href="#m20687e0b6e" x="318.888494" y="236.233722" style="fill: #35dc67; stroke: #ffffff; stroke-width: 0.75"/>
     <use xlink:href="#m20687e0b6e" x="324.012461" y="236.859296" style="fill: #35dc67; stroke: #ffffff; stroke-width: 0.75"/>
     <use xlink:href="#m20687e0b6e" x="329.136428" y="214.097546" style="fill: #35dc67; stroke: #ffffff; stroke-width: 0.75"/>
     <use xlink:href="#m20687e0b6e" x="334.260395" y="232.81271" style="fill: #35dc67; stroke: #ffffff; stroke-width: 0.75"/>
     <use xlink:href="#m20687e0b6e" x="339.384362" y="233.251544" style="fill: #35dc67; stroke: #ffffff; stroke-width: 0.75"/>
     <use xlink:href="#m20687e0b6e" x="344.508329" y="237.600553" style="fill: #35dc67; stroke: #ffffff; stroke-width: 0.75"/>
     <use xlink:href="#m20687e0b6e" x="349.632296" y="237.065109" style="fill: #35dc67; stroke: #ffffff; stroke-width: 0.75"/>
     <use xlink:href="#m20687e0b6e" x="354.756263" y="236.630552" style="fill: #35dc67; stroke: #ffffff; stroke-width: 0.75"/>
     <use xlink:href="#m20687e0b6e" x="359.88023" y="233.773151" style="fill: #35dc67; stroke: #ffffff; stroke-width: 0.75"/>
     <use xlink:href="#m20687e0b6e" x="365.004197" y="235.560054" style="fill: #35dc67; stroke: #ffffff; stroke-width: 0.75"/>
     <use xlink:href="#m20687e0b6e" x="370.128164" y="236.04062" style="fill: #35dc67; stroke: #ffffff; stroke-width: 0.75"/>
     <use xlink:href="#m20687e0b6e" x="375.252131" y="233.401226" style="fill: #35dc67; stroke: #ffffff; stroke-width: 0.75"/>
     <use xlink:href="#m20687e0b6e" x="380.376098" y="236.447327" style="fill: #35dc67; stroke: #ffffff; stroke-width: 0.75"/>
     <use xlink:href="#m20687e0b6e" x="385.500065" y="235.484117" style="fill: #35dc67; stroke: #ffffff; stroke-width: 0.75"/>
     <use xlink:href="#m20687e0b6e" x="390.624032" y="232.593676" style="fill: #35dc67; stroke: #ffffff; stroke-width: 0.75"/>
     <use xlink:href="#m20687e0b6e" x="395.747998" y="236.666553" style="fill: #35dc67; stroke: #ffffff; stroke-width: 0.75"/>
     <use xlink:href="#m20687e0b6e" x="400.871965" y="237.097417" style="fill: #35dc67; stroke: #ffffff; stroke-width: 0.75"/>
     <use xlink:href="#m20687e0b6e" x="405.995932" y="233.968903" style="fill: #35dc67; stroke: #ffffff; stroke-width: 0.75"/>
     <use xlink:href="#m20687e0b6e" x="411.119899" y="233.576807" style="fill: #35dc67; stroke: #ffffff; stroke-width: 0.75"/>
     <use xlink:href="#m20687e0b6e" x="416.243866" y="235.976046" style="fill: #35dc67; stroke: #ffffff; stroke-width: 0.75"/>
     <use xlink:href="#m20687e0b6e" x="421.367833" y="234.235344" style="fill: #35dc67; stroke: #ffffff; stroke-width: 0.75"/>
     <use xlink:href="#m20687e0b6e" x="426.4918" y="234.129172" style="fill: #35dc67; stroke: #ffffff; stroke-width: 0.75"/>
     <use xlink:href="#m20687e0b6e" x="431.615767" y="234.927282" style="fill: #35dc67; stroke: #ffffff; stroke-width: 0.75"/>
     <use xlink:href="#m20687e0b6e" x="436.739734" y="233.389796" style="fill: #35dc67; stroke: #ffffff; stroke-width: 0.75"/>
     <use xlink:href="#m20687e0b6e" x="441.863701" y="235.313258" style="fill: #35dc67; stroke: #ffffff; stroke-width: 0.75"/>
     <use xlink:href="#m20687e0b6e" x="446.987668" y="233.194197" style="fill: #35dc67; stroke: #ffffff; stroke-width: 0.75"/>
     <use xlink:href="#m20687e0b6e" x="452.111635" y="235.421731" style="fill: #35dc67; stroke: #ffffff; stroke-width: 0.75"/>
     <use xlink:href="#m20687e0b6e" x="457.235602" y="233.839136" style="fill: #35dc67; stroke: #ffffff; stroke-width: 0.75"/>
     <use xlink:href="#m20687e0b6e" x="462.359569" y="233.490494" style="fill: #35dc67; stroke: #ffffff; stroke-width: 0.75"/>
     <use xlink:href="#m20687e0b6e" x="467.483536" y="236.79847" style="fill: #35dc67; stroke: #ffffff; stroke-width: 0.75"/>
     <use xlink:href="#m20687e0b6e" x="472.607503" y="237.761342" style="fill: #35dc67; stroke: #ffffff; stroke-width: 0.75"/>
     <use xlink:href="#m20687e0b6e" x="477.73147" y="236.711237" style="fill: #35dc67; stroke: #ffffff; stroke-width: 0.75"/>
     <use xlink:href="#m20687e0b6e" x="482.855436" y="236.029262" style="fill: #35dc67; stroke: #ffffff; stroke-width: 0.75"/>
     <use xlink:href="#m20687e0b6e" x="487.979403" y="236.513481" style="fill: #35dc67; stroke: #ffffff; stroke-width: 0.75"/>
     <use xlink:href="#m20687e0b6e" x="493.10337" y="233.738188" style="fill: #35dc67; stroke: #ffffff; stroke-width: 0.75"/>
     <use xlink:href="#m20687e0b6e" x="498.227337" y="233.811086" style="fill: #35dc67; stroke: #ffffff; stroke-width: 0.75"/>
     <use xlink:href="#m20687e0b6e" x="503.351304" y="236.421302" style="fill: #35dc67; stroke: #ffffff; stroke-width: 0.75"/>
     <use xlink:href="#m20687e0b6e" x="508.475271" y="235.077322" style="fill: #35dc67; stroke: #ffffff; stroke-width: 0.75"/>
     <use xlink:href="#m20687e0b6e" x="513.599238" y="233.852815" style="fill: #35dc67; stroke: #ffffff; stroke-width: 0.75"/>
     <use xlink:href="#m20687e0b6e" x="518.723205" y="236.734293" style="fill: #35dc67; stroke: #ffffff; stroke-width: 0.75"/>
     <use xlink:href="#m20687e0b6e" x="523.847172" y="235.759091" style="fill: #35dc67; stroke: #ffffff; stroke-width: 0.75"/>
     <use xlink:href="#m20687e0b6e" x="528.971139" y="237.096922" style="fill: #35dc67; stroke: #ffffff; stroke-width: 0.75"/>
     <use xlink:href="#m20687e0b6e" x="534.095106" y="231.529579" style="fill: #35dc67; stroke: #ffffff; stroke-width: 0.75"/>
     <use xlink:href="#m20687e0b6e" x="539.219073" y="235.578846" style="fill: #35dc67; stroke: #ffffff; stroke-width: 0.75"/>
     <use xlink:href="#m20687e0b6e" x="544.34304" y="236.043607" style="fill: #35dc67; stroke: #ffffff; stroke-width: 0.75"/>
     <use xlink:href="#m20687e0b6e" x="549.467007" y="234.938955" style="fill: #35dc67; stroke: #ffffff; stroke-width: 0.75"/>
     <use xlink:href="#m20687e0b6e" x="554.590974" y="232.353889" style="fill: #35dc67; stroke: #ffffff; stroke-width: 0.75"/>
     <use xlink:href="#m20687e0b6e" x="559.714941" y="234.875248" style="fill: #35dc67; stroke: #ffffff; stroke-width: 0.75"/>
     <use xlink:href="#m20687e0b6e" x="564.838908" y="233.988342" style="fill: #35dc67; stroke: #ffffff; stroke-width: 0.75"/>
     <use xlink:href="#m20687e0b6e" x="569.962874" y="220.522175" style="fill: #35dc67; stroke: #ffffff; stroke-width: 0.75"/>
     <use xlink:href="#m20687e0b6e" x="575.086841" y="236.527039" style="fill: #35dc67; stroke: #ffffff; stroke-width: 0.75"/>
     <use xlink:href="#m20687e0b6e" x="580.210808" y="237.490387" style="fill: #35dc67; stroke: #ffffff; stroke-width: 0.75"/>
     <use xlink:href="#m20687e0b6e" x="585.334775" y="236.405921" style="fill: #35dc67; stroke: #ffffff; stroke-width: 0.75"/>
     <use xlink:href="#m20687e0b6e" x="590.458742" y="232.106802" style="fill: #35dc67; stroke: #ffffff; stroke-width: 0.75"/>
     <use xlink:href="#m20687e0b6e" x="595.582709" y="235.542098" style="fill: #35dc67; stroke: #ffffff; stroke-width: 0.75"/>
     <use xlink:href="#m20687e0b6e" x="600.706676" y="223.042469" style="fill: #35dc67; stroke: #ffffff; stroke-width: 0.75"/>
    </g>
   </g>
   <g id="line2d_20">
    <path d="M 93.433949 230.900841 
L 98.557916 229.481282 
L 103.681883 214.83198 
L 108.80585 212.58536 
L 113.929817 223.156567 
L 119.053784 224.062144 
L 124.177751 230.976587 
L 129.301717 232.889823 
L 134.425684 225.645592 
L 139.549651 215.953131 
L 144.673618 214.2887 
L 149.797585 224.044884 
L 154.921552 229.756075 
L 160.045519 229.172607 
L 165.169486 224.563465 
L 170.293453 229.484395 
L 175.41742 215.48209 
L 180.541387 217.742234 
L 185.665354 234.598832 
L 190.789321 223.725157 
L 195.913288 232.286537 
L 201.037255 213.950199 
L 206.161222 188.638125 
L 211.285189 202.339342 
L 216.409155 218.282934 
L 221.533122 232.726779 
L 226.657089 231.449064 
L 231.781056 224.162324 
L 236.905023 230.668722 
L 242.02899 226.204434 
L 247.152957 232.803678 
L 252.276924 215.366849 
L 257.400891 233.420726 
L 262.524858 232.450782 
L 267.648825 227.668416 
L 272.772792 231.524316 
L 277.896759 231.777379 
L 283.020726 235.855099 
L 288.144693 226.619887 
L 293.26866 226.407888 
L 298.392627 233.77391 
L 303.516593 232.001151 
L 308.64056 232.993649 
L 313.764527 236.594187 
L 318.888494 228.258226 
L 324.012461 234.810265 
L 329.136428 230.499586 
L 334.260395 233.606841 
L 339.384362 235.130074 
L 344.508329 233.333804 
L 349.632296 235.305631 
L 354.756263 235.424774 
L 359.88023 229.903032 
L 365.004197 233.168526 
L 370.128164 233.52362 
L 375.252131 233.345372 
L 380.376098 228.675434 
L 385.500065 232.974461 
L 390.624032 228.217565 
L 395.747998 229.953822 
L 400.871965 234.094619 
L 405.995932 233.351861 
L 411.119899 230.083563 
L 416.243866 233.028223 
L 421.367833 224.976812 
L 426.4918 234.18348 
L 431.615767 231.655814 
L 436.739734 234.724629 
L 441.863701 233.826783 
L 446.987668 231.936798 
L 452.111635 232.989712 
L 457.235602 235.160026 
L 462.359569 236.295317 
L 467.483536 234.680351 
L 472.607503 228.726625 
L 477.73147 232.172999 
L 482.855436 234.222122 
L 487.979403 234.73455 
L 493.10337 227.660125 
L 498.227337 233.080135 
L 503.351304 232.213454 
L 508.475271 234.454203 
L 513.599238 234.303039 
L 518.723205 236.700168 
L 523.847172 233.278319 
L 528.971139 231.295138 
L 534.095106 234.345409 
L 539.219073 228.844505 
L 544.34304 233.422891 
L 549.467007 227.80339 
L 554.590974 232.740781 
L 559.714941 233.987111 
L 564.838908 208.364742 
L 569.962874 232.711397 
L 575.086841 236.14419 
L 580.210808 231.162842 
L 585.334775 234.744011 
L 590.458742 232.645912 
L 595.582709 229.84742 
L 600.706676 227.558468 
" clip-path="url(#p7101292ba3)" style="fill: none; stroke: #007bff; stroke-width: 1.5; stroke-linecap: square"/>
    <defs>
     <path id="m5e72ec7a54" d="M 0 3 
C 0.795609 3 1.55874 2.683901 2.12132 2.12132 
C 2.683901 1.55874 3 0.795609 3 0 
C 3 -0.795609 2.683901 -1.55874 2.12132 -2.12132 
C 1.55874 -2.683901 0.795609 -3 0 -3 
C -0.795609 -3 -1.55874 -2.683901 -2.12132 -2.12132 
C -2.683901 -1.55874 -3 -0.795609 -3 0 
C -3 0.795609 -2.683901 1.55874 -2.12132 2.12132 
C -1.55874 2.683901 -0.795609 3 0 3 
z
" style="stroke: #ffffff; stroke-width: 0.75"/>
    </defs>
    <g clip-path="url(#p7101292ba3)">
     <use xlink:href="#m5e72ec7a54" x="93.433949" y="230.900841" style="fill: #007bff; stroke: #ffffff; stroke-width: 0.75"/>
     <use xlink:href="#m5e72ec7a54" x="98.557916" y="229.481282" style="fill: #007bff; stroke: #ffffff; stroke-width: 0.75"/>
     <use xlink:href="#m5e72ec7a54" x="103.681883" y="214.83198" style="fill: #007bff; stroke: #ffffff; stroke-width: 0.75"/>
     <use xlink:href="#m5e72ec7a54" x="108.80585" y="212.58536" style="fill: #007bff; stroke: #ffffff; stroke-width: 0.75"/>
     <use xlink:href="#m5e72ec7a54" x="113.929817" y="223.156567" style="fill: #007bff; stroke: #ffffff; stroke-width: 0.75"/>
     <use xlink:href="#m5e72ec7a54" x="119.053784" y="224.062144" style="fill: #007bff; stroke: #ffffff; stroke-width: 0.75"/>
     <use xlink:href="#m5e72ec7a54" x="124.177751" y="230.976587" style="fill: #007bff; stroke: #ffffff; stroke-width: 0.75"/>
     <use xlink:href="#m5e72ec7a54" x="129.301717" y="232.889823" style="fill: #007bff; stroke: #ffffff; stroke-width: 0.75"/>
     <use xlink:href="#m5e72ec7a54" x="134.425684" y="225.645592" style="fill: #007bff; stroke: #ffffff; stroke-width: 0.75"/>
     <use xlink:href="#m5e72ec7a54" x="139.549651" y="215.953131" style="fill: #007bff; stroke: #ffffff; stroke-width: 0.75"/>
     <use xlink:href="#m5e72ec7a54" x="144.673618" y="214.2887" style="fill: #007bff; stroke: #ffffff; stroke-width: 0.75"/>
     <use xlink:href="#m5e72ec7a54" x="149.797585" y="224.044884" style="fill: #007bff; stroke: #ffffff; stroke-width: 0.75"/>
     <use xlink:href="#m5e72ec7a54" x="154.921552" y="229.756075" style="fill: #007bff; stroke: #ffffff; stroke-width: 0.75"/>
     <use xlink:href="#m5e72ec7a54" x="160.045519" y="229.172607" style="fill: #007bff; stroke: #ffffff; stroke-width: 0.75"/>
     <use xlink:href="#m5e72ec7a54" x="165.169486" y="224.563465" style="fill: #007bff; stroke: #ffffff; stroke-width: 0.75"/>
     <use xlink:href="#m5e72ec7a54" x="170.293453" y="229.484395" style="fill: #007bff; stroke: #ffffff; stroke-width: 0.75"/>
     <use xlink:href="#m5e72ec7a54" x="175.41742" y="215.48209" style="fill: #007bff; stroke: #ffffff; stroke-width: 0.75"/>
     <use xlink:href="#m5e72ec7a54" x="180.541387" y="217.742234" style="fill: #007bff; stroke: #ffffff; stroke-width: 0.75"/>
     <use xlink:href="#m5e72ec7a54" x="185.665354" y="234.598832" style="fill: #007bff; stroke: #ffffff; stroke-width: 0.75"/>
     <use xlink:href="#m5e72ec7a54" x="190.789321" y="223.725157" style="fill: #007bff; stroke: #ffffff; stroke-width: 0.75"/>
     <use xlink:href="#m5e72ec7a54" x="195.913288" y="232.286537" style="fill: #007bff; stroke: #ffffff; stroke-width: 0.75"/>
     <use xlink:href="#m5e72ec7a54" x="201.037255" y="213.950199" style="fill: #007bff; stroke: #ffffff; stroke-width: 0.75"/>
     <use xlink:href="#m5e72ec7a54" x="206.161222" y="188.638125" style="fill: #007bff; stroke: #ffffff; stroke-width: 0.75"/>
     <use xlink:href="#m5e72ec7a54" x="211.285189" y="202.339342" style="fill: #007bff; stroke: #ffffff; stroke-width: 0.75"/>
     <use xlink:href="#m5e72ec7a54" x="216.409155" y="218.282934" style="fill: #007bff; stroke: #ffffff; stroke-width: 0.75"/>
     <use xlink:href="#m5e72ec7a54" x="221.533122" y="232.726779" style="fill: #007bff; stroke: #ffffff; stroke-width: 0.75"/>
     <use xlink:href="#m5e72ec7a54" x="226.657089" y="231.449064" style="fill: #007bff; stroke: #ffffff; stroke-width: 0.75"/>
     <use xlink:href="#m5e72ec7a54" x="231.781056" y="224.162324" style="fill: #007bff; stroke: #ffffff; stroke-width: 0.75"/>
     <use xlink:href="#m5e72ec7a54" x="236.905023" y="230.668722" style="fill: #007bff; stroke: #ffffff; stroke-width: 0.75"/>
     <use xlink:href="#m5e72ec7a54" x="242.02899" y="226.204434" style="fill: #007bff; stroke: #ffffff; stroke-width: 0.75"/>
     <use xlink:href="#m5e72ec7a54" x="247.152957" y="232.803678" style="fill: #007bff; stroke: #ffffff; stroke-width: 0.75"/>
     <use xlink:href="#m5e72ec7a54" x="252.276924" y="215.366849" style="fill: #007bff; stroke: #ffffff; stroke-width: 0.75"/>
     <use xlink:href="#m5e72ec7a54" x="257.400891" y="233.420726" style="fill: #007bff; stroke: #ffffff; stroke-width: 0.75"/>
     <use xlink:href="#m5e72ec7a54" x="262.524858" y="232.450782" style="fill: #007bff; stroke: #ffffff; stroke-width: 0.75"/>
     <use xlink:href="#m5e72ec7a54" x="267.648825" y="227.668416" style="fill: #007bff; stroke: #ffffff; stroke-width: 0.75"/>
     <use xlink:href="#m5e72ec7a54" x="272.772792" y="231.524316" style="fill: #007bff; stroke: #ffffff; stroke-width: 0.75"/>
     <use xlink:href="#m5e72ec7a54" x="277.896759" y="231.777379" style="fill: #007bff; stroke: #ffffff; stroke-width: 0.75"/>
     <use xlink:href="#m5e72ec7a54" x="283.020726" y="235.855099" style="fill: #007bff; stroke: #ffffff; stroke-width: 0.75"/>
     <use xlink:href="#m5e72ec7a54" x="288.144693" y="226.619887" style="fill: #007bff; stroke: #ffffff; stroke-width: 0.75"/>
     <use xlink:href="#m5e72ec7a54" x="293.26866" y="226.407888" style="fill: #007bff; stroke: #ffffff; stroke-width: 0.75"/>
     <use xlink:href="#m5e72ec7a54" x="298.392627" y="233.77391" style="fill: #007bff; stroke: #ffffff; stroke-width: 0.75"/>
     <use xlink:href="#m5e72ec7a54" x="303.516593" y="232.001151" style="fill: #007bff; stroke: #ffffff; stroke-width: 0.75"/>
     <use xlink:href="#m5e72ec7a54" x="308.64056" y="232.993649" style="fill: #007bff; stroke: #ffffff; stroke-width: 0.75"/>
     <use xlink:href="#m5e72ec7a54" x="313.764527" y="236.594187" style="fill: #007bff; stroke: #ffffff; stroke-width: 0.75"/>
     <use xlink:href="#m5e72ec7a54" x="318.888494" y="228.258226" style="fill: #007bff; stroke: #ffffff; stroke-width: 0.75"/>
     <use xlink:href="#m5e72ec7a54" x="324.012461" y="234.810265" style="fill: #007bff; stroke: #ffffff; stroke-width: 0.75"/>
     <use xlink:href="#m5e72ec7a54" x="329.136428" y="230.499586" style="fill: #007bff; stroke: #ffffff; stroke-width: 0.75"/>
     <use xlink:href="#m5e72ec7a54" x="334.260395" y="233.606841" style="fill: #007bff; stroke: #ffffff; stroke-width: 0.75"/>
     <use xlink:href="#m5e72ec7a54" x="339.384362" y="235.130074" style="fill: #007bff; stroke: #ffffff; stroke-width: 0.75"/>
     <use xlink:href="#m5e72ec7a54" x="344.508329" y="233.333804" style="fill: #007bff; stroke: #ffffff; stroke-width: 0.75"/>
     <use xlink:href="#m5e72ec7a54" x="349.632296" y="235.305631" style="fill: #007bff; stroke: #ffffff; stroke-width: 0.75"/>
     <use xlink:href="#m5e72ec7a54" x="354.756263" y="235.424774" style="fill: #007bff; stroke: #ffffff; stroke-width: 0.75"/>
     <use xlink:href="#m5e72ec7a54" x="359.88023" y="229.903032" style="fill: #007bff; stroke: #ffffff; stroke-width: 0.75"/>
     <use xlink:href="#m5e72ec7a54" x="365.004197" y="233.168526" style="fill: #007bff; stroke: #ffffff; stroke-width: 0.75"/>
     <use xlink:href="#m5e72ec7a54" x="370.128164" y="233.52362" style="fill: #007bff; stroke: #ffffff; stroke-width: 0.75"/>
     <use xlink:href="#m5e72ec7a54" x="375.252131" y="233.345372" style="fill: #007bff; stroke: #ffffff; stroke-width: 0.75"/>
     <use xlink:href="#m5e72ec7a54" x="380.376098" y="228.675434" style="fill: #007bff; stroke: #ffffff; stroke-width: 0.75"/>
     <use xlink:href="#m5e72ec7a54" x="385.500065" y="232.974461" style="fill: #007bff; stroke: #ffffff; stroke-width: 0.75"/>
     <use xlink:href="#m5e72ec7a54" x="390.624032" y="228.217565" style="fill: #007bff; stroke: #ffffff; stroke-width: 0.75"/>
     <use xlink:href="#m5e72ec7a54" x="395.747998" y="229.953822" style="fill: #007bff; stroke: #ffffff; stroke-width: 0.75"/>
     <use xlink:href="#m5e72ec7a54" x="400.871965" y="234.094619" style="fill: #007bff; stroke: #ffffff; stroke-width: 0.75"/>
     <use xlink:href="#m5e72ec7a54" x="405.995932" y="233.351861" style="fill: #007bff; stroke: #ffffff; stroke-width: 0.75"/>
     <use xlink:href="#m5e72ec7a54" x="411.119899" y="230.083563" style="fill: #007bff; stroke: #ffffff; stroke-width: 0.75"/>
     <use xlink:href="#m5e72ec7a54" x="416.243866" y="233.028223" style="fill: #007bff; stroke: #ffffff; stroke-width: 0.75"/>
     <use xlink:href="#m5e72ec7a54" x="421.367833" y="224.976812" style="fill: #007bff; stroke: #ffffff; stroke-width: 0.75"/>
     <use xlink:href="#m5e72ec7a54" x="426.4918" y="234.18348" style="fill: #007bff; stroke: #ffffff; stroke-width: 0.75"/>
     <use xlink:href="#m5e72ec7a54" x="431.615767" y="231.655814" style="fill: #007bff; stroke: #ffffff; stroke-width: 0.75"/>
     <use xlink:href="#m5e72ec7a54" x="436.739734" y="234.724629" style="fill: #007bff; stroke: #ffffff; stroke-width: 0.75"/>
     <use xlink:href="#m5e72ec7a54" x="441.863701" y="233.826783" style="fill: #007bff; stroke: #ffffff; stroke-width: 0.75"/>
     <use xlink:href="#m5e72ec7a54" x="446.987668" y="231.936798" style="fill: #007bff; stroke: #ffffff; stroke-width: 0.75"/>
     <use xlink:href="#m5e72ec7a54" x="452.111635" y="232.989712" style="fill: #007bff; stroke: #ffffff; stroke-width: 0.75"/>
     <use xlink:href="#m5e72ec7a54" x="457.235602" y="235.160026" style="fill: #007bff; stroke: #ffffff; stroke-width: 0.75"/>
     <use xlink:href="#m5e72ec7a54" x="462.359569" y="236.295317" style="fill: #007bff; stroke: #ffffff; stroke-width: 0.75"/>
     <use xlink:href="#m5e72ec7a54" x="467.483536" y="234.680351" style="fill: #007bff; stroke: #ffffff; stroke-width: 0.75"/>
     <use xlink:href="#m5e72ec7a54" x="472.607503" y="228.726625" style="fill: #007bff; stroke: #ffffff; stroke-width: 0.75"/>
     <use xlink:href="#m5e72ec7a54" x="477.73147" y="232.172999" style="fill: #007bff; stroke: #ffffff; stroke-width: 0.75"/>
     <use xlink:href="#m5e72ec7a54" x="482.855436" y="234.222122" style="fill: #007bff; stroke: #ffffff; stroke-width: 0.75"/>
     <use xlink:href="#m5e72ec7a54" x="487.979403" y="234.73455" style="fill: #007bff; stroke: #ffffff; stroke-width: 0.75"/>
     <use xlink:href="#m5e72ec7a54" x="493.10337" y="227.660125" style="fill: #007bff; stroke: #ffffff; stroke-width: 0.75"/>
     <use xlink:href="#m5e72ec7a54" x="498.227337" y="233.080135" style="fill: #007bff; stroke: #ffffff; stroke-width: 0.75"/>
     <use xlink:href="#m5e72ec7a54" x="503.351304" y="232.213454" style="fill: #007bff; stroke: #ffffff; stroke-width: 0.75"/>
     <use xlink:href="#m5e72ec7a54" x="508.475271" y="234.454203" style="fill: #007bff; stroke: #ffffff; stroke-width: 0.75"/>
     <use xlink:href="#m5e72ec7a54" x="513.599238" y="234.303039" style="fill: #007bff; stroke: #ffffff; stroke-width: 0.75"/>
     <use xlink:href="#m5e72ec7a54" x="518.723205" y="236.700168" style="fill: #007bff; stroke: #ffffff; stroke-width: 0.75"/>
     <use xlink:href="#m5e72ec7a54" x="523.847172" y="233.278319" style="fill: #007bff; stroke: #ffffff; stroke-width: 0.75"/>
     <use xlink:href="#m5e72ec7a54" x="528.971139" y="231.295138" style="fill: #007bff; stroke: #ffffff; stroke-width: 0.75"/>
     <use xlink:href="#m5e72ec7a54" x="534.095106" y="234.345409" style="fill: #007bff; stroke: #ffffff; stroke-width: 0.75"/>
     <use xlink:href="#m5e72ec7a54" x="539.219073" y="228.844505" style="fill: #007bff; stroke: #ffffff; stroke-width: 0.75"/>
     <use xlink:href="#m5e72ec7a54" x="544.34304" y="233.422891" style="fill: #007bff; stroke: #ffffff; stroke-width: 0.75"/>
     <use xlink:href="#m5e72ec7a54" x="549.467007" y="227.80339" style="fill: #007bff; stroke: #ffffff; stroke-width: 0.75"/>
     <use xlink:href="#m5e72ec7a54" x="554.590974" y="232.740781" style="fill: #007bff; stroke: #ffffff; stroke-width: 0.75"/>
     <use xlink:href="#m5e72ec7a54" x="559.714941" y="233.987111" style="fill: #007bff; stroke: #ffffff; stroke-width: 0.75"/>
     <use xlink:href="#m5e72ec7a54" x="564.838908" y="208.364742" style="fill: #007bff; stroke: #ffffff; stroke-width: 0.75"/>
     <use xlink:href="#m5e72ec7a54" x="569.962874" y="232.711397" style="fill: #007bff; stroke: #ffffff; stroke-width: 0.75"/>
     <use xlink:href="#m5e72ec7a54" x="575.086841" y="236.14419" style="fill: #007bff; stroke: #ffffff; stroke-width: 0.75"/>
     <use xlink:href="#m5e72ec7a54" x="580.210808" y="231.162842" style="fill: #007bff; stroke: #ffffff; stroke-width: 0.75"/>
     <use xlink:href="#m5e72ec7a54" x="585.334775" y="234.744011" style="fill: #007bff; stroke: #ffffff; stroke-width: 0.75"/>
     <use xlink:href="#m5e72ec7a54" x="590.458742" y="232.645912" style="fill: #007bff; stroke: #ffffff; stroke-width: 0.75"/>
     <use xlink:href="#m5e72ec7a54" x="595.582709" y="229.84742" style="fill: #007bff; stroke: #ffffff; stroke-width: 0.75"/>
     <use xlink:href="#m5e72ec7a54" x="600.706676" y="227.558468" style="fill: #007bff; stroke: #ffffff; stroke-width: 0.75"/>
    </g>
   </g>
   <g id="line2d_21"/>
   <g id="line2d_22"/>
   <g id="patch_3">
    <path d="M 68.070312 354.958125 
L 68.070312 22.318125 
" style="fill: none; stroke: #000000; stroke-width: 0.8; stroke-linejoin: miter; stroke-linecap: square"/>
   </g>
   <g id="patch_4">
    <path d="M 626.070312 354.958125 
L 626.070312 22.318125 
" style="fill: none; stroke: #000000; stroke-width: 0.8; stroke-linejoin: miter; stroke-linecap: square"/>
   </g>
   <g id="patch_5">
    <path d="M 68.070312 354.958125 
L 626.070312 354.958125 
" style="fill: none; stroke: #000000; stroke-width: 0.8; stroke-linejoin: miter; stroke-linecap: square"/>
   </g>
   <g id="patch_6">
    <path d="M 68.070312 22.318125 
L 626.070312 22.318125 
" style="fill: none; stroke: #000000; stroke-width: 0.8; stroke-linejoin: miter; stroke-linecap: square"/>
   </g>
   <g id="text_21">
    <!-- Gesture Learning Curve  -->
    <g transform="translate(273.95375 16.318125) scale(0.12 -0.12)">
     <defs>
      <path id="DejaVuSans-47" d="M 3809 666 
L 3809 1919 
L 2778 1919 
L 2778 2438 
L 4434 2438 
L 4434 434 
Q 4069 175 3628 42 
Q 3188 -91 2688 -91 
Q 1594 -91 976 548 
Q 359 1188 359 2328 
Q 359 3472 976 4111 
Q 1594 4750 2688 4750 
Q 3144 4750 3555 4637 
Q 3966 4525 4313 4306 
L 4313 3634 
Q 3963 3931 3569 4081 
Q 3175 4231 2741 4231 
Q 1884 4231 1454 3753 
Q 1025 3275 1025 2328 
Q 1025 1384 1454 906 
Q 1884 428 2741 428 
Q 3075 428 3337 486 
Q 3600 544 3809 666 
z
" transform="scale(0.015625)"/>
      <path id="DejaVuSans-75" d="M 544 1381 
L 544 3500 
L 1119 3500 
L 1119 1403 
Q 1119 906 1312 657 
Q 1506 409 1894 409 
Q 2359 409 2629 706 
Q 2900 1003 2900 1516 
L 2900 3500 
L 3475 3500 
L 3475 0 
L 2900 0 
L 2900 538 
Q 2691 219 2414 64 
Q 2138 -91 1772 -91 
Q 1169 -91 856 284 
Q 544 659 544 1381 
z
M 1991 3584 
L 1991 3584 
z
" transform="scale(0.015625)"/>
      <path id="DejaVuSans-4c" d="M 628 4666 
L 1259 4666 
L 1259 531 
L 3531 531 
L 3531 0 
L 628 0 
L 628 4666 
z
" transform="scale(0.015625)"/>
      <path id="DejaVuSans-67" d="M 2906 1791 
Q 2906 2416 2648 2759 
Q 2391 3103 1925 3103 
Q 1463 3103 1205 2759 
Q 947 2416 947 1791 
Q 947 1169 1205 825 
Q 1463 481 1925 481 
Q 2391 481 2648 825 
Q 2906 1169 2906 1791 
z
M 3481 434 
Q 3481 -459 3084 -895 
Q 2688 -1331 1869 -1331 
Q 1566 -1331 1297 -1286 
Q 1028 -1241 775 -1147 
L 775 -588 
Q 1028 -725 1275 -790 
Q 1522 -856 1778 -856 
Q 2344 -856 2625 -561 
Q 2906 -266 2906 331 
L 2906 616 
Q 2728 306 2450 153 
Q 2172 0 1784 0 
Q 1141 0 747 490 
Q 353 981 353 1791 
Q 353 2603 747 3093 
Q 1141 3584 1784 3584 
Q 2172 3584 2450 3431 
Q 2728 3278 2906 2969 
L 2906 3500 
L 3481 3500 
L 3481 434 
z
" transform="scale(0.015625)"/>
      <path id="DejaVuSans-43" d="M 4122 4306 
L 4122 3641 
Q 3803 3938 3442 4084 
Q 3081 4231 2675 4231 
Q 1875 4231 1450 3742 
Q 1025 3253 1025 2328 
Q 1025 1406 1450 917 
Q 1875 428 2675 428 
Q 3081 428 3442 575 
Q 3803 722 4122 1019 
L 4122 359 
Q 3791 134 3420 21 
Q 3050 -91 2638 -91 
Q 1578 -91 968 557 
Q 359 1206 359 2328 
Q 359 3453 968 4101 
Q 1578 4750 2638 4750 
Q 3056 4750 3426 4639 
Q 3797 4528 4122 4306 
z
" transform="scale(0.015625)"/>
      <path id="DejaVuSans-76" d="M 191 3500 
L 800 3500 
L 1894 563 
L 2988 3500 
L 3597 3500 
L 2284 0 
L 1503 0 
L 191 3500 
z
" transform="scale(0.015625)"/>
     </defs>
     <use xlink:href="#DejaVuSans-47"/>
     <use xlink:href="#DejaVuSans-65" transform="translate(77.490234 0)"/>
     <use xlink:href="#DejaVuSans-73" transform="translate(139.013672 0)"/>
     <use xlink:href="#DejaVuSans-74" transform="translate(191.113281 0)"/>
     <use xlink:href="#DejaVuSans-75" transform="translate(230.322266 0)"/>
     <use xlink:href="#DejaVuSans-72" transform="translate(293.701172 0)"/>
     <use xlink:href="#DejaVuSans-65" transform="translate(332.564453 0)"/>
     <use xlink:href="#DejaVuSans-20" transform="translate(394.087891 0)"/>
     <use xlink:href="#DejaVuSans-4c" transform="translate(425.875 0)"/>
     <use xlink:href="#DejaVuSans-65" transform="translate(479.837891 0)"/>
     <use xlink:href="#DejaVuSans-61" transform="translate(541.361328 0)"/>
     <use xlink:href="#DejaVuSans-72" transform="translate(602.640625 0)"/>
     <use xlink:href="#DejaVuSans-6e" transform="translate(642.003906 0)"/>
     <use xlink:href="#DejaVuSans-69" transform="translate(705.382812 0)"/>
     <use xlink:href="#DejaVuSans-6e" transform="translate(733.166016 0)"/>
     <use xlink:href="#DejaVuSans-67" transform="translate(796.544922 0)"/>
     <use xlink:href="#DejaVuSans-20" transform="translate(860.021484 0)"/>
     <use xlink:href="#DejaVuSans-43" transform="translate(891.808594 0)"/>
     <use xlink:href="#DejaVuSans-75" transform="translate(961.632812 0)"/>
     <use xlink:href="#DejaVuSans-72" transform="translate(1025.011719 0)"/>
     <use xlink:href="#DejaVuSans-76" transform="translate(1066.125 0)"/>
     <use xlink:href="#DejaVuSans-65" transform="translate(1125.304688 0)"/>
     <use xlink:href="#DejaVuSans-20" transform="translate(1186.828125 0)"/>
    </g>
   </g>
   <g id="legend_1">
    <g id="patch_7">
     <path d="M 516.535938 74.3525 
L 619.070312 74.3525 
Q 621.070312 74.3525 621.070312 72.3525 
L 621.070312 29.318125 
Q 621.070312 27.318125 619.070312 27.318125 
L 516.535938 27.318125 
Q 514.535938 27.318125 514.535938 29.318125 
L 514.535938 72.3525 
Q 514.535938 74.3525 516.535938 74.3525 
z
" style="fill: #ffffff; opacity: 0.8; stroke: #cccccc; stroke-linejoin: miter"/>
    </g>
    <g id="text_22">
     <!-- Condition -->
     <g transform="translate(543.942969 38.916562) scale(0.1 -0.1)">
      <defs>
       <path id="DejaVuSans-64" d="M 2906 2969 
L 2906 4863 
L 3481 4863 
L 3481 0 
L 2906 0 
L 2906 525 
Q 2725 213 2448 61 
Q 2172 -91 1784 -91 
Q 1150 -91 751 415 
Q 353 922 353 1747 
Q 353 2572 751 3078 
Q 1150 3584 1784 3584 
Q 2172 3584 2448 3432 
Q 2725 3281 2906 2969 
z
M 947 1747 
Q 947 1113 1208 752 
Q 1469 391 1925 391 
Q 2381 391 2643 752 
Q 2906 1113 2906 1747 
Q 2906 2381 2643 2742 
Q 2381 3103 1925 3103 
Q 1469 3103 1208 2742 
Q 947 2381 947 1747 
z
" transform="scale(0.015625)"/>
      </defs>
      <use xlink:href="#DejaVuSans-43"/>
      <use xlink:href="#DejaVuSans-6f" transform="translate(69.824219 0)"/>
      <use xlink:href="#DejaVuSans-6e" transform="translate(131.005859 0)"/>
      <use xlink:href="#DejaVuSans-64" transform="translate(194.384766 0)"/>
      <use xlink:href="#DejaVuSans-69" transform="translate(257.861328 0)"/>
      <use xlink:href="#DejaVuSans-74" transform="translate(285.644531 0)"/>
      <use xlink:href="#DejaVuSans-69" transform="translate(324.853516 0)"/>
      <use xlink:href="#DejaVuSans-6f" transform="translate(352.636719 0)"/>
      <use xlink:href="#DejaVuSans-6e" transform="translate(413.818359 0)"/>
     </g>
    </g>
    <g id="line2d_23">
     <path d="M 518.535938 50.094687 
L 528.535938 50.094687 
L 538.535938 50.094687 
" style="fill: none; stroke: #35dc67; stroke-width: 1.5; stroke-linecap: square"/>
     <g>
      <use xlink:href="#m20687e0b6e" x="528.535938" y="50.094687" style="fill: #35dc67; stroke: #ffffff; stroke-width: 0.75"/>
     </g>
    </g>
    <g id="text_23">
     <!-- HandyKey4VR -->
     <g transform="translate(546.535938 53.594687) scale(0.1 -0.1)">
      <defs>
       <path id="DejaVuSans-48" d="M 628 4666 
L 1259 4666 
L 1259 2753 
L 3553 2753 
L 3553 4666 
L 4184 4666 
L 4184 0 
L 3553 0 
L 3553 2222 
L 1259 2222 
L 1259 0 
L 628 0 
L 628 4666 
z
" transform="scale(0.015625)"/>
       <path id="DejaVuSans-79" d="M 2059 -325 
Q 1816 -950 1584 -1140 
Q 1353 -1331 966 -1331 
L 506 -1331 
L 506 -850 
L 844 -850 
Q 1081 -850 1212 -737 
Q 1344 -625 1503 -206 
L 1606 56 
L 191 3500 
L 800 3500 
L 1894 763 
L 2988 3500 
L 3597 3500 
L 2059 -325 
z
" transform="scale(0.015625)"/>
       <path id="DejaVuSans-4b" d="M 628 4666 
L 1259 4666 
L 1259 2694 
L 3353 4666 
L 4166 4666 
L 1850 2491 
L 4331 0 
L 3500 0 
L 1259 2247 
L 1259 0 
L 628 0 
L 628 4666 
z
" transform="scale(0.015625)"/>
       <path id="DejaVuSans-56" d="M 1831 0 
L 50 4666 
L 709 4666 
L 2188 738 
L 3669 4666 
L 4325 4666 
L 2547 0 
L 1831 0 
z
" transform="scale(0.015625)"/>
      </defs>
      <use xlink:href="#DejaVuSans-48"/>
      <use xlink:href="#DejaVuSans-61" transform="translate(75.195312 0)"/>
      <use xlink:href="#DejaVuSans-6e" transform="translate(136.474609 0)"/>
      <use xlink:href="#DejaVuSans-64" transform="translate(199.853516 0)"/>
      <use xlink:href="#DejaVuSans-79" transform="translate(263.330078 0)"/>
      <use xlink:href="#DejaVuSans-4b" transform="translate(322.509766 0)"/>
      <use xlink:href="#DejaVuSans-65" transform="translate(383.085938 0)"/>
      <use xlink:href="#DejaVuSans-79" transform="translate(444.609375 0)"/>
      <use xlink:href="#DejaVuSans-34" transform="translate(503.789062 0)"/>
      <use xlink:href="#DejaVuSans-56" transform="translate(567.412109 0)"/>
      <use xlink:href="#DejaVuSans-52" transform="translate(635.820312 0)"/>
     </g>
    </g>
    <g id="line2d_24">
     <path d="M 518.535938 64.772812 
L 528.535938 64.772812 
L 538.535938 64.772812 
" style="fill: none; stroke: #007bff; stroke-width: 1.5; stroke-linecap: square"/>
     <g>
      <use xlink:href="#m5e72ec7a54" x="528.535938" y="64.772812" style="fill: #007bff; stroke: #ffffff; stroke-width: 0.75"/>
     </g>
    </g>
    <g id="text_24">
     <!-- Controller -->
     <g transform="translate(546.535938 68.272812) scale(0.1 -0.1)">
      <use xlink:href="#DejaVuSans-43"/>
      <use xlink:href="#DejaVuSans-6f" transform="translate(69.824219 0)"/>
      <use xlink:href="#DejaVuSans-6e" transform="translate(131.005859 0)"/>
      <use xlink:href="#DejaVuSans-74" transform="translate(194.384766 0)"/>
      <use xlink:href="#DejaVuSans-72" transform="translate(233.59375 0)"/>
      <use xlink:href="#DejaVuSans-6f" transform="translate(272.457031 0)"/>
      <use xlink:href="#DejaVuSans-6c" transform="translate(333.638672 0)"/>
      <use xlink:href="#DejaVuSans-6c" transform="translate(361.421875 0)"/>
      <use xlink:href="#DejaVuSans-65" transform="translate(389.205078 0)"/>
      <use xlink:href="#DejaVuSans-72" transform="translate(450.728516 0)"/>
     </g>
    </g>
   </g>
  </g>
 </g>
 <defs>
  <clipPath id="p7101292ba3">
   <rect x="68.070312" y="22.318125" width="558" height="332.64"/>
  </clipPath>
 </defs>
</svg>
