<?xml version="1.0" encoding="utf-8" standalone="no"?>
<!DOCTYPE svg PUBLIC "-//W3C//DTD SVG 1.1//EN"
  "http://www.w3.org/Graphics/SVG/1.1/DTD/svg11.dtd">
<svg xmlns:xlink="http://www.w3.org/1999/xlink" width="635.609375pt" height="398.20925pt" viewBox="0 0 635.609375 398.20925" xmlns="http://www.w3.org/2000/svg" version="1.1">
 <metadata>
  <rdf:RDF xmlns:dc="http://purl.org/dc/elements/1.1/" xmlns:cc="http://creativecommons.org/ns#" xmlns:rdf="http://www.w3.org/1999/02/22-rdf-syntax-ns#">
   <cc:Work>
    <dc:type rdf:resource="http://purl.org/dc/dcmitype/StillImage"/>
    <dc:date>2026-01-19T13:47:01.931458</dc:date>
    <dc:format>image/svg+xml</dc:format>
    <dc:creator>
     <cc:Agent>
      <dc:title>Matplotlib v3.10.8, https://matplotlib.org/</dc:title>
     </cc:Agent>
    </dc:creator>
   </cc:Work>
  </rdf:RDF>
 </metadata>
 <defs>
  <style type="text/css">*{stroke-linejoin: round; stroke-linecap: butt}</style>
 </defs>
 <g id="figure_1">
  <g id="patch_1">
   <path d="M 0 398.20925 
L 635.609375 398.20925 
L 635.609375 0 
L 0 0 
z
" style="fill: #ffffff"/>
  </g>
  <g id="axes_1">
   <g id="patch_2">
    <path d="M 70.409375 356.78175 
L 628.409375 356.78175 
L 628.409375 24.14175 
L 70.409375 24.14175 
z
" style="fill: #ffffff"/>
   </g>
   <g id="FillBetweenPolyCollection_1">
    <defs>
     <path id="m2f9cfc8866" d="M 95.773011 -194.298347 
L 95.773011 -100.791965 
L 100.896978 -123.304383 
L 106.020945 -113.189286 
L 111.144912 -115.444529 
L 116.268879 -123.748497 
L 121.392846 -125.489624 
L 126.516813 -127.618474 
L 131.64078 -130.130623 
L 136.764747 -119.742344 
L 141.888714 -127.834607 
L 147.012681 -123.768965 
L 152.136648 -134.635315 
L 157.260615 -126.629648 
L 162.384582 -123.572617 
L 167.508549 -124.040812 
L 172.632515 -123.669346 
L 177.756482 -124.700774 
L 182.880449 -123.969179 
L 188.004416 -122.68386 
L 193.128383 -125.470772 
L 198.25235 -121.453579 
L 203.376317 -122.299742 
L 208.500284 -107.799566 
L 213.624251 -125.125875 
L 218.748218 -121.660064 
L 223.872185 -126.696338 
L 228.996152 -122.646687 
L 234.120119 -123.850725 
L 239.244086 -123.55853 
L 244.368053 -124.31682 
L 249.49202 -121.968696 
L 254.615987 -125.28591 
L 259.739954 -129.261382 
L 264.86392 -121.995402 
L 269.987887 -122.791584 
L 275.111854 -126.300814 
L 280.235821 -109.752531 
L 285.359788 -113.222913 
L 290.483755 -125.572812 
L 295.607722 -119.696571 
L 300.731689 -126.79009 
L 305.855656 -126.069029 
L 310.979623 -122.950109 
L 316.10359 -126.486935 
L 321.227557 -121.633665 
L 326.351524 -123.028877 
L 331.475491 -83.88284 
L 336.599458 -124.484582 
L 341.723425 -111.906508 
L 346.847392 -123.744795 
L 351.971358 -125.198385 
L 357.095325 -129.730602 
L 362.219292 -123.396184 
L 367.343259 -125.927221 
L 372.467226 -120.557283 
L 377.591193 -127.074746 
L 382.71516 -125.363678 
L 387.839127 -122.764688 
L 392.963094 -124.683142 
L 398.087061 -126.817164 
L 403.211028 -124.949651 
L 408.334995 -126.752688 
L 413.458962 -119.391436 
L 418.582929 -129.757168 
L 423.706896 -125.97443 
L 428.830863 -123.58948 
L 433.95483 -121.271044 
L 439.078796 -123.386109 
L 444.202763 -131.65419 
L 449.32673 -129.142996 
L 454.450697 -126.526473 
L 459.574664 -124.359567 
L 464.698631 -120.145345 
L 469.822598 -125.386624 
L 474.946565 -120.399151 
L 480.070532 -115.960525 
L 485.194499 -123.037369 
L 490.318466 -125.990769 
L 495.442433 -127.47059 
L 500.5664 -124.977351 
L 505.690367 -114.899263 
L 510.814334 -124.524244 
L 515.938301 -126.360752 
L 521.062268 -125.268665 
L 526.186235 -124.208271 
L 531.310201 -127.501634 
L 536.434168 -111.958497 
L 541.558135 -127.107207 
L 546.682102 -122.566279 
L 551.806069 -124.673052 
L 556.930036 -127.426162 
L 562.054003 -123.28634 
L 567.17797 -122.662578 
L 572.301937 -100.725989 
L 577.425904 -124.281829 
L 582.549871 -122.897847 
L 587.673838 -126.495019 
L 592.797805 -128.189712 
L 597.921772 -124.651343 
L 603.045739 -130.257063 
L 603.045739 -152.842988 
L 603.045739 -152.842988 
L 597.921772 -135.662763 
L 592.797805 -138.024175 
L 587.673838 -130.114243 
L 582.549871 -133.878675 
L 577.425904 -143.239007 
L 572.301937 -279.049654 
L 567.17797 -147.361813 
L 562.054003 -134.445651 
L 556.930036 -138.546466 
L 551.806069 -135.488102 
L 546.682102 -146.202912 
L 541.558135 -134.021172 
L 536.434168 -167.344739 
L 531.310201 -134.742104 
L 526.186235 -137.696025 
L 521.062268 -135.248658 
L 515.938301 -151.497496 
L 510.814334 -130.031399 
L 505.690367 -146.567284 
L 500.5664 -138.521257 
L 495.442433 -132.930854 
L 490.318466 -128.240834 
L 485.194499 -144.689568 
L 480.070532 -163.805924 
L 474.946565 -135.404041 
L 469.822598 -127.858841 
L 464.698631 -147.478346 
L 459.574664 -141.113001 
L 454.450697 -127.808852 
L 449.32673 -155.859672 
L 444.202763 -148.694171 
L 439.078796 -146.277556 
L 433.95483 -137.184386 
L 428.830863 -131.892282 
L 423.706896 -144.849737 
L 418.582929 -137.554054 
L 413.458962 -151.869353 
L 408.334995 -155.362334 
L 403.211028 -136.046858 
L 398.087061 -153.463516 
L 392.963094 -134.772912 
L 387.839127 -132.789175 
L 382.71516 -136.729997 
L 377.591193 -134.316998 
L 372.467226 -138.471416 
L 367.343259 -147.884013 
L 362.219292 -126.770448 
L 357.095325 -136.142525 
L 351.971358 -128.414363 
L 346.847392 -130.452218 
L 341.723425 -162.930931 
L 336.599458 -143.380808 
L 331.475491 -332.961761 
L 326.351524 -136.465597 
L 321.227557 -138.463845 
L 316.10359 -142.650302 
L 310.979623 -168.92794 
L 305.855656 -132.831224 
L 300.731689 -132.796056 
L 295.607722 -139.487494 
L 290.483755 -139.403322 
L 285.359788 -153.143912 
L 280.235821 -181.727418 
L 275.111854 -130.192984 
L 269.987887 -152.195205 
L 264.86392 -150.917384 
L 259.739954 -134.376353 
L 254.615987 -132.211835 
L 249.49202 -127.180697 
L 244.368053 -143.464977 
L 239.244086 -140.276501 
L 234.120119 -148.734622 
L 228.996152 -135.307422 
L 223.872185 -130.114969 
L 218.748218 -148.194929 
L 213.624251 -126.555972 
L 208.500284 -185.757001 
L 203.376317 -238.98306 
L 198.25235 -163.033651 
L 193.128383 -144.832609 
L 188.004416 -138.834329 
L 182.880449 -133.613756 
L 177.756482 -140.246853 
L 172.632515 -148.000244 
L 167.508549 -134.659006 
L 162.384582 -131.931613 
L 157.260615 -128.834525 
L 152.136648 -146.940692 
L 147.012681 -139.54938 
L 141.888714 -141.965219 
L 136.764747 -149.743851 
L 131.64078 -141.995099 
L 126.516813 -146.204954 
L 121.392846 -150.155447 
L 116.268879 -137.133479 
L 111.144912 -171.66866 
L 106.020945 -155.104581 
L 100.896978 -144.174302 
L 95.773011 -194.298347 
z
" style="stroke: #35dc67; stroke-opacity: 0.2"/>
    </defs>
    <g clip-path="url(#pab252594a9)">
     <use xlink:href="#m2f9cfc8866" x="0" y="398.20925" style="fill: #35dc67; fill-opacity: 0.2; stroke: #35dc67; stroke-opacity: 0.2"/>
    </g>
   </g>
   <g id="FillBetweenPolyCollection_2">
    <defs>
     <path id="ma31c541acd" d="M 95.773011 -142.953121 
L 95.773011 -129.871256 
L 100.896978 -122.179508 
L 106.020945 -130.366357 
L 111.144912 -114.351321 
L 116.268879 -122.156752 
L 121.392846 -100.748453 
L 126.516813 -121.794495 
L 131.64078 -123.288372 
L 136.764747 -127.464782 
L 141.888714 -56.5475 
L 147.012681 -123.377701 
L 152.136648 -122.758209 
L 157.260615 -122.179794 
L 162.384582 -126.054014 
L 167.508549 -115.837406 
L 172.632515 -131.670585 
L 177.756482 -119.250222 
L 182.880449 -124.24399 
L 188.004416 -125.771546 
L 193.128383 -119.348395 
L 198.25235 -124.846362 
L 203.376317 -93.225583 
L 208.500284 -117.488789 
L 213.624251 -118.379753 
L 218.748218 -125.024485 
L 223.872185 -125.037267 
L 228.996152 -117.23132 
L 234.120119 -115.72853 
L 239.244086 -122.351002 
L 244.368053 -138.143249 
L 249.49202 -123.870905 
L 254.615987 -128.980858 
L 259.739954 -120.616989 
L 264.86392 -122.583076 
L 269.987887 -124.935723 
L 275.111854 -124.499969 
L 280.235821 -124.171498 
L 285.359788 -120.650522 
L 290.483755 -118.136462 
L 295.607722 -124.882186 
L 300.731689 -126.402719 
L 305.855656 -127.430351 
L 310.979623 -127.444679 
L 316.10359 -122.991553 
L 321.227557 -114.454289 
L 326.351524 -122.420228 
L 331.475491 -116.408122 
L 336.599458 -117.170852 
L 341.723425 -125.127665 
L 346.847392 -121.199348 
L 351.971358 -123.413152 
L 357.095325 -112.245752 
L 362.219292 -122.583554 
L 367.343259 -124.479718 
L 372.467226 -125.370577 
L 377.591193 -121.70558 
L 382.71516 -123.631812 
L 387.839127 -123.876798 
L 392.963094 -121.556074 
L 398.087061 -123.477239 
L 403.211028 -125.605825 
L 408.334995 -121.745729 
L 413.458962 -124.559808 
L 418.582929 -124.206349 
L 423.706896 -107.934867 
L 428.830863 -115.8589 
L 433.95483 -126.870904 
L 439.078796 -117.214667 
L 444.202763 -117.941608 
L 449.32673 -124.110979 
L 454.450697 -124.735092 
L 459.574664 -123.79949 
L 464.698631 -124.8813 
L 469.822598 -113.132865 
L 474.946565 -124.8006 
L 480.070532 -110.964951 
L 485.194499 -125.127262 
L 490.318466 -128.813233 
L 495.442433 -111.061099 
L 500.5664 -124.431772 
L 505.690367 -124.860003 
L 510.814334 -116.768276 
L 515.938301 -123.358373 
L 521.062268 -122.419655 
L 526.186235 -125.064355 
L 531.310201 -125.965472 
L 536.434168 -124.25177 
L 541.558135 -121.687918 
L 546.682102 -124.318675 
L 551.806069 -124.528716 
L 556.930036 -123.744618 
L 562.054003 -123.275694 
L 567.17797 -118.746961 
L 572.301937 -118.709201 
L 577.425904 -125.053289 
L 582.549871 -117.202001 
L 587.673838 -125.63735 
L 592.797805 -126.66322 
L 597.921772 -123.840702 
L 603.045739 -120.817341 
L 603.045739 -138.775669 
L 603.045739 -138.775669 
L 597.921772 -141.266374 
L 592.797805 -138.110006 
L 587.673838 -132.951086 
L 582.549871 -189.52322 
L 577.425904 -132.517401 
L 572.301937 -174.923155 
L 567.17797 -139.364665 
L 562.054003 -126.868343 
L 556.930036 -128.094062 
L 551.806069 -135.324584 
L 546.682102 -132.301588 
L 541.558135 -139.248955 
L 536.434168 -128.019451 
L 531.310201 -151.251255 
L 526.186235 -129.221124 
L 521.062268 -129.575693 
L 515.938301 -151.808969 
L 510.814334 -152.070004 
L 505.690367 -137.759075 
L 500.5664 -132.927574 
L 495.442433 -202.347889 
L 490.318466 -133.682574 
L 485.194499 -137.487119 
L 480.070532 -172.009899 
L 474.946565 -136.387508 
L 469.822598 -158.349612 
L 464.698631 -132.870515 
L 459.574664 -136.441855 
L 454.450697 -133.846942 
L 449.32673 -133.085947 
L 444.202763 -132.349075 
L 439.078796 -150.962503 
L 433.95483 -142.968204 
L 428.830863 -150.778669 
L 423.706896 -229.970504 
L 418.582929 -136.301861 
L 413.458962 -148.234686 
L 408.334995 -139.786227 
L 403.211028 -133.454873 
L 398.087061 -135.451062 
L 392.963094 -145.90618 
L 387.839127 -127.871986 
L 382.71516 -141.688542 
L 377.591193 -145.162337 
L 372.467226 -138.732916 
L 367.343259 -127.847882 
L 362.219292 -143.449609 
L 357.095325 -156.824446 
L 351.971358 -138.141682 
L 346.847392 -151.589273 
L 341.723425 -128.664214 
L 336.599458 -154.65976 
L 331.475491 -165.047798 
L 326.351524 -138.021866 
L 321.227557 -158.407232 
L 316.10359 -137.007238 
L 310.979623 -135.210155 
L 305.855656 -147.95252 
L 300.731689 -143.922591 
L 295.607722 -145.014331 
L 290.483755 -156.922895 
L 285.359788 -151.364436 
L 280.235821 -158.011096 
L 275.111854 -139.444481 
L 269.987887 -163.762353 
L 264.86392 -141.145165 
L 259.739954 -149.12337 
L 254.615987 -140.610129 
L 249.49202 -143.246733 
L 244.368053 -170.48425 
L 239.244086 -149.747692 
L 234.120119 -187.430829 
L 228.996152 -154.015253 
L 223.872185 -133.417287 
L 218.748218 -135.755445 
L 213.624251 -155.835235 
L 208.500284 -158.734497 
L 203.376317 -244.626427 
L 198.25235 -131.140139 
L 193.128383 -161.213163 
L 188.004416 -133.219267 
L 182.880449 -195.27253 
L 177.756482 -154.757902 
L 172.632515 -157.121962 
L 167.508549 -173.181844 
L 162.384582 -140.10138 
L 157.260615 -157.914633 
L 152.136648 -147.247402 
L 147.012681 -145.690729 
L 141.888714 -358.9475 
L 136.764747 -144.24631 
L 131.64078 -138.516771 
L 126.516813 -147.101734 
L 121.392846 -214.799222 
L 116.268879 -185.515518 
L 111.144912 -165.823465 
L 106.020945 -151.194795 
L 100.896978 -143.773449 
L 95.773011 -142.953121 
z
" style="stroke: #007bff; stroke-opacity: 0.2"/>
    </defs>
    <g clip-path="url(#pab252594a9)">
     <use xlink:href="#ma31c541acd" x="0" y="398.20925" style="fill: #007bff; fill-opacity: 0.2; stroke: #007bff; stroke-opacity: 0.2"/>
    </g>
   </g>
   <g id="matplotlib.axis_1">
    <g id="xtick_1">
     <g id="line2d_1">
      <path d="M 95.773011 356.78175 
L 95.773011 24.14175 
" clip-path="url(#pab252594a9)" style="fill: none; stroke-dasharray: 2.96,1.28; stroke-dashoffset: 0; stroke: #b0b0b0; stroke-opacity: 0.5; stroke-width: 0.8"/>
     </g>
     <g id="line2d_2">
      <defs>
       <path id="m48f47ca4e6" d="M 0 0 
L 0 3.5 
" style="stroke: #000000; stroke-width: 0.8"/>
      </defs>
      <g>
       <use xlink:href="#m48f47ca4e6" x="95.773011" y="356.78175" style="stroke: #000000; stroke-width: 0.8"/>
      </g>
     </g>
     <g id="text_1">
      <!-- 1 -->
      <g transform="translate(91.955511 372.899875) scale(0.12 -0.12)">
       <defs>
        <path id="DejaVuSans-31" d="M 794 531 
L 1825 531 
L 1825 4091 
L 703 3866 
L 703 4441 
L 1819 4666 
L 2450 4666 
L 2450 531 
L 3481 531 
L 3481 0 
L 794 0 
L 794 531 
z
" transform="scale(0.015625)"/>
       </defs>
       <use xlink:href="#DejaVuSans-31"/>
      </g>
     </g>
    </g>
    <g id="xtick_2">
     <g id="line2d_3">
      <path d="M 147.012681 356.78175 
L 147.012681 24.14175 
" clip-path="url(#pab252594a9)" style="fill: none; stroke-dasharray: 2.96,1.28; stroke-dashoffset: 0; stroke: #b0b0b0; stroke-opacity: 0.5; stroke-width: 0.8"/>
     </g>
     <g id="line2d_4">
      <g>
       <use xlink:href="#m48f47ca4e6" x="147.012681" y="356.78175" style="stroke: #000000; stroke-width: 0.8"/>
      </g>
     </g>
     <g id="text_2">
      <!-- 11 -->
      <g transform="translate(139.377681 372.899875) scale(0.12 -0.12)">
       <use xlink:href="#DejaVuSans-31"/>
       <use xlink:href="#DejaVuSans-31" transform="translate(63.623047 0)"/>
      </g>
     </g>
    </g>
    <g id="xtick_3">
     <g id="line2d_5">
      <path d="M 198.25235 356.78175 
L 198.25235 24.14175 
" clip-path="url(#pab252594a9)" style="fill: none; stroke-dasharray: 2.96,1.28; stroke-dashoffset: 0; stroke: #b0b0b0; stroke-opacity: 0.5; stroke-width: 0.8"/>
     </g>
     <g id="line2d_6">
      <g>
       <use xlink:href="#m48f47ca4e6" x="198.25235" y="356.78175" style="stroke: #000000; stroke-width: 0.8"/>
      </g>
     </g>
     <g id="text_3">
      <!-- 21 -->
      <g transform="translate(190.61735 372.899875) scale(0.12 -0.12)">
       <defs>
        <path id="DejaVuSans-32" d="M 1228 531 
L 3431 531 
L 3431 0 
L 469 0 
L 469 531 
Q 828 903 1448 1529 
Q 2069 2156 2228 2338 
Q 2531 2678 2651 2914 
Q 2772 3150 2772 3378 
Q 2772 3750 2511 3984 
Q 2250 4219 1831 4219 
Q 1534 4219 1204 4116 
Q 875 4013 500 3803 
L 500 4441 
Q 881 4594 1212 4672 
Q 1544 4750 1819 4750 
Q 2544 4750 2975 4387 
Q 3406 4025 3406 3419 
Q 3406 3131 3298 2873 
Q 3191 2616 2906 2266 
Q 2828 2175 2409 1742 
Q 1991 1309 1228 531 
z
" transform="scale(0.015625)"/>
       </defs>
       <use xlink:href="#DejaVuSans-32"/>
       <use xlink:href="#DejaVuSans-31" transform="translate(63.623047 0)"/>
      </g>
     </g>
    </g>
    <g id="xtick_4">
     <g id="line2d_7">
      <path d="M 249.49202 356.78175 
L 249.49202 24.14175 
" clip-path="url(#pab252594a9)" style="fill: none; stroke-dasharray: 2.96,1.28; stroke-dashoffset: 0; stroke: #b0b0b0; stroke-opacity: 0.5; stroke-width: 0.8"/>
     </g>
     <g id="line2d_8">
      <g>
       <use xlink:href="#m48f47ca4e6" x="249.49202" y="356.78175" style="stroke: #000000; stroke-width: 0.8"/>
      </g>
     </g>
     <g id="text_4">
      <!-- 31 -->
      <g transform="translate(241.85702 372.899875) scale(0.12 -0.12)">
       <defs>
        <path id="DejaVuSans-33" d="M 2597 2516 
Q 3050 2419 3304 2112 
Q 3559 1806 3559 1356 
Q 3559 666 3084 287 
Q 2609 -91 1734 -91 
Q 1441 -91 1130 -33 
Q 819 25 488 141 
L 488 750 
Q 750 597 1062 519 
Q 1375 441 1716 441 
Q 2309 441 2620 675 
Q 2931 909 2931 1356 
Q 2931 1769 2642 2001 
Q 2353 2234 1838 2234 
L 1294 2234 
L 1294 2753 
L 1863 2753 
Q 2328 2753 2575 2939 
Q 2822 3125 2822 3475 
Q 2822 3834 2567 4026 
Q 2313 4219 1838 4219 
Q 1578 4219 1281 4162 
Q 984 4106 628 3988 
L 628 4550 
Q 988 4650 1302 4700 
Q 1616 4750 1894 4750 
Q 2613 4750 3031 4423 
Q 3450 4097 3450 3541 
Q 3450 3153 3228 2886 
Q 3006 2619 2597 2516 
z
" transform="scale(0.015625)"/>
       </defs>
       <use xlink:href="#DejaVuSans-33"/>
       <use xlink:href="#DejaVuSans-31" transform="translate(63.623047 0)"/>
      </g>
     </g>
    </g>
    <g id="xtick_5">
     <g id="line2d_9">
      <path d="M 300.731689 356.78175 
L 300.731689 24.14175 
" clip-path="url(#pab252594a9)" style="fill: none; stroke-dasharray: 2.96,1.28; stroke-dashoffset: 0; stroke: #b0b0b0; stroke-opacity: 0.5; stroke-width: 0.8"/>
     </g>
     <g id="line2d_10">
      <g>
       <use xlink:href="#m48f47ca4e6" x="300.731689" y="356.78175" style="stroke: #000000; stroke-width: 0.8"/>
      </g>
     </g>
     <g id="text_5">
      <!-- 41 -->
      <g transform="translate(293.096689 372.899875) scale(0.12 -0.12)">
       <defs>
        <path id="DejaVuSans-34" d="M 2419 4116 
L 825 1625 
L 2419 1625 
L 2419 4116 
z
M 2253 4666 
L 3047 4666 
L 3047 1625 
L 3713 1625 
L 3713 1100 
L 3047 1100 
L 3047 0 
L 2419 0 
L 2419 1100 
L 313 1100 
L 313 1709 
L 2253 4666 
z
" transform="scale(0.015625)"/>
       </defs>
       <use xlink:href="#DejaVuSans-34"/>
       <use xlink:href="#DejaVuSans-31" transform="translate(63.623047 0)"/>
      </g>
     </g>
    </g>
    <g id="xtick_6">
     <g id="line2d_11">
      <path d="M 351.971358 356.78175 
L 351.971358 24.14175 
" clip-path="url(#pab252594a9)" style="fill: none; stroke-dasharray: 2.96,1.28; stroke-dashoffset: 0; stroke: #b0b0b0; stroke-opacity: 0.5; stroke-width: 0.8"/>
     </g>
     <g id="line2d_12">
      <g>
       <use xlink:href="#m48f47ca4e6" x="351.971358" y="356.78175" style="stroke: #000000; stroke-width: 0.8"/>
      </g>
     </g>
     <g id="text_6">
      <!-- 51 -->
      <g transform="translate(344.336358 372.899875) scale(0.12 -0.12)">
       <defs>
        <path id="DejaVuSans-35" d="M 691 4666 
L 3169 4666 
L 3169 4134 
L 1269 4134 
L 1269 2991 
Q 1406 3038 1543 3061 
Q 1681 3084 1819 3084 
Q 2600 3084 3056 2656 
Q 3513 2228 3513 1497 
Q 3513 744 3044 326 
Q 2575 -91 1722 -91 
Q 1428 -91 1123 -41 
Q 819 9 494 109 
L 494 744 
Q 775 591 1075 516 
Q 1375 441 1709 441 
Q 2250 441 2565 725 
Q 2881 1009 2881 1497 
Q 2881 1984 2565 2268 
Q 2250 2553 1709 2553 
Q 1456 2553 1204 2497 
Q 953 2441 691 2322 
L 691 4666 
z
" transform="scale(0.015625)"/>
       </defs>
       <use xlink:href="#DejaVuSans-35"/>
       <use xlink:href="#DejaVuSans-31" transform="translate(63.623047 0)"/>
      </g>
     </g>
    </g>
    <g id="xtick_7">
     <g id="line2d_13">
      <path d="M 403.211028 356.78175 
L 403.211028 24.14175 
" clip-path="url(#pab252594a9)" style="fill: none; stroke-dasharray: 2.96,1.28; stroke-dashoffset: 0; stroke: #b0b0b0; stroke-opacity: 0.5; stroke-width: 0.8"/>
     </g>
     <g id="line2d_14">
      <g>
       <use xlink:href="#m48f47ca4e6" x="403.211028" y="356.78175" style="stroke: #000000; stroke-width: 0.8"/>
      </g>
     </g>
     <g id="text_7">
      <!-- 61 -->
      <g transform="translate(395.576028 372.899875) scale(0.12 -0.12)">
       <defs>
        <path id="DejaVuSans-36" d="M 2113 2584 
Q 1688 2584 1439 2293 
Q 1191 2003 1191 1497 
Q 1191 994 1439 701 
Q 1688 409 2113 409 
Q 2538 409 2786 701 
Q 3034 994 3034 1497 
Q 3034 2003 2786 2293 
Q 2538 2584 2113 2584 
z
M 3366 4563 
L 3366 3988 
Q 3128 4100 2886 4159 
Q 2644 4219 2406 4219 
Q 1781 4219 1451 3797 
Q 1122 3375 1075 2522 
Q 1259 2794 1537 2939 
Q 1816 3084 2150 3084 
Q 2853 3084 3261 2657 
Q 3669 2231 3669 1497 
Q 3669 778 3244 343 
Q 2819 -91 2113 -91 
Q 1303 -91 875 529 
Q 447 1150 447 2328 
Q 447 3434 972 4092 
Q 1497 4750 2381 4750 
Q 2619 4750 2861 4703 
Q 3103 4656 3366 4563 
z
" transform="scale(0.015625)"/>
       </defs>
       <use xlink:href="#DejaVuSans-36"/>
       <use xlink:href="#DejaVuSans-31" transform="translate(63.623047 0)"/>
      </g>
     </g>
    </g>
    <g id="xtick_8">
     <g id="line2d_15">
      <path d="M 454.450697 356.78175 
L 454.450697 24.14175 
" clip-path="url(#pab252594a9)" style="fill: none; stroke-dasharray: 2.96,1.28; stroke-dashoffset: 0; stroke: #b0b0b0; stroke-opacity: 0.5; stroke-width: 0.8"/>
     </g>
     <g id="line2d_16">
      <g>
       <use xlink:href="#m48f47ca4e6" x="454.450697" y="356.78175" style="stroke: #000000; stroke-width: 0.8"/>
      </g>
     </g>
     <g id="text_8">
      <!-- 71 -->
      <g transform="translate(446.815697 372.899875) scale(0.12 -0.12)">
       <defs>
        <path id="DejaVuSans-37" d="M 525 4666 
L 3525 4666 
L 3525 4397 
L 1831 0 
L 1172 0 
L 2766 4134 
L 525 4134 
L 525 4666 
z
" transform="scale(0.015625)"/>
       </defs>
       <use xlink:href="#DejaVuSans-37"/>
       <use xlink:href="#DejaVuSans-31" transform="translate(63.623047 0)"/>
      </g>
     </g>
    </g>
    <g id="xtick_9">
     <g id="line2d_17">
      <path d="M 505.690367 356.78175 
L 505.690367 24.14175 
" clip-path="url(#pab252594a9)" style="fill: none; stroke-dasharray: 2.96,1.28; stroke-dashoffset: 0; stroke: #b0b0b0; stroke-opacity: 0.5; stroke-width: 0.8"/>
     </g>
     <g id="line2d_18">
      <g>
       <use xlink:href="#m48f47ca4e6" x="505.690367" y="356.78175" style="stroke: #000000; stroke-width: 0.8"/>
      </g>
     </g>
     <g id="text_9">
      <!-- 81 -->
      <g transform="translate(498.055367 372.899875) scale(0.12 -0.12)">
       <defs>
        <path id="DejaVuSans-38" d="M 2034 2216 
Q 1584 2216 1326 1975 
Q 1069 1734 1069 1313 
Q 1069 891 1326 650 
Q 1584 409 2034 409 
Q 2484 409 2743 651 
Q 3003 894 3003 1313 
Q 3003 1734 2745 1975 
Q 2488 2216 2034 2216 
z
M 1403 2484 
Q 997 2584 770 2862 
Q 544 3141 544 3541 
Q 544 4100 942 4425 
Q 1341 4750 2034 4750 
Q 2731 4750 3128 4425 
Q 3525 4100 3525 3541 
Q 3525 3141 3298 2862 
Q 3072 2584 2669 2484 
Q 3125 2378 3379 2068 
Q 3634 1759 3634 1313 
Q 3634 634 3220 271 
Q 2806 -91 2034 -91 
Q 1263 -91 848 271 
Q 434 634 434 1313 
Q 434 1759 690 2068 
Q 947 2378 1403 2484 
z
M 1172 3481 
Q 1172 3119 1398 2916 
Q 1625 2713 2034 2713 
Q 2441 2713 2670 2916 
Q 2900 3119 2900 3481 
Q 2900 3844 2670 4047 
Q 2441 4250 2034 4250 
Q 1625 4250 1398 4047 
Q 1172 3844 1172 3481 
z
" transform="scale(0.015625)"/>
       </defs>
       <use xlink:href="#DejaVuSans-38"/>
       <use xlink:href="#DejaVuSans-31" transform="translate(63.623047 0)"/>
      </g>
     </g>
    </g>
    <g id="xtick_10">
     <g id="line2d_19">
      <path d="M 556.930036 356.78175 
L 556.930036 24.14175 
" clip-path="url(#pab252594a9)" style="fill: none; stroke-dasharray: 2.96,1.28; stroke-dashoffset: 0; stroke: #b0b0b0; stroke-opacity: 0.5; stroke-width: 0.8"/>
     </g>
     <g id="line2d_20">
      <g>
       <use xlink:href="#m48f47ca4e6" x="556.930036" y="356.78175" style="stroke: #000000; stroke-width: 0.8"/>
      </g>
     </g>
     <g id="text_10">
      <!-- 91 -->
      <g transform="translate(549.295036 372.899875) scale(0.12 -0.12)">
       <defs>
        <path id="DejaVuSans-39" d="M 703 97 
L 703 672 
Q 941 559 1184 500 
Q 1428 441 1663 441 
Q 2288 441 2617 861 
Q 2947 1281 2994 2138 
Q 2813 1869 2534 1725 
Q 2256 1581 1919 1581 
Q 1219 1581 811 2004 
Q 403 2428 403 3163 
Q 403 3881 828 4315 
Q 1253 4750 1959 4750 
Q 2769 4750 3195 4129 
Q 3622 3509 3622 2328 
Q 3622 1225 3098 567 
Q 2575 -91 1691 -91 
Q 1453 -91 1209 -44 
Q 966 3 703 97 
z
M 1959 2075 
Q 2384 2075 2632 2365 
Q 2881 2656 2881 3163 
Q 2881 3666 2632 3958 
Q 2384 4250 1959 4250 
Q 1534 4250 1286 3958 
Q 1038 3666 1038 3163 
Q 1038 2656 1286 2365 
Q 1534 2075 1959 2075 
z
" transform="scale(0.015625)"/>
       </defs>
       <use xlink:href="#DejaVuSans-39"/>
       <use xlink:href="#DejaVuSans-31" transform="translate(63.623047 0)"/>
      </g>
     </g>
    </g>
    <g id="text_11">
     <!-- Trial ID -->
     <g transform="translate(328.855625 388.513625) scale(0.12 -0.12)">
      <defs>
       <path id="DejaVuSans-54" d="M -19 4666 
L 3928 4666 
L 3928 4134 
L 2272 4134 
L 2272 0 
L 1638 0 
L 1638 4134 
L -19 4134 
L -19 4666 
z
" transform="scale(0.015625)"/>
       <path id="DejaVuSans-72" d="M 2631 2963 
Q 2534 3019 2420 3045 
Q 2306 3072 2169 3072 
Q 1681 3072 1420 2755 
Q 1159 2438 1159 1844 
L 1159 0 
L 581 0 
L 581 3500 
L 1159 3500 
L 1159 2956 
Q 1341 3275 1631 3429 
Q 1922 3584 2338 3584 
Q 2397 3584 2469 3576 
Q 2541 3569 2628 3553 
L 2631 2963 
z
" transform="scale(0.015625)"/>
       <path id="DejaVuSans-69" d="M 603 3500 
L 1178 3500 
L 1178 0 
L 603 0 
L 603 3500 
z
M 603 4863 
L 1178 4863 
L 1178 4134 
L 603 4134 
L 603 4863 
z
" transform="scale(0.015625)"/>
       <path id="DejaVuSans-61" d="M 2194 1759 
Q 1497 1759 1228 1600 
Q 959 1441 959 1056 
Q 959 750 1161 570 
Q 1363 391 1709 391 
Q 2188 391 2477 730 
Q 2766 1069 2766 1631 
L 2766 1759 
L 2194 1759 
z
M 3341 1997 
L 3341 0 
L 2766 0 
L 2766 531 
Q 2569 213 2275 61 
Q 1981 -91 1556 -91 
Q 1019 -91 701 211 
Q 384 513 384 1019 
Q 384 1609 779 1909 
Q 1175 2209 1959 2209 
L 2766 2209 
L 2766 2266 
Q 2766 2663 2505 2880 
Q 2244 3097 1772 3097 
Q 1472 3097 1187 3025 
Q 903 2953 641 2809 
L 641 3341 
Q 956 3463 1253 3523 
Q 1550 3584 1831 3584 
Q 2591 3584 2966 3190 
Q 3341 2797 3341 1997 
z
" transform="scale(0.015625)"/>
       <path id="DejaVuSans-6c" d="M 603 4863 
L 1178 4863 
L 1178 0 
L 603 0 
L 603 4863 
z
" transform="scale(0.015625)"/>
       <path id="DejaVuSans-20" transform="scale(0.015625)"/>
       <path id="DejaVuSans-49" d="M 628 4666 
L 1259 4666 
L 1259 0 
L 628 0 
L 628 4666 
z
" transform="scale(0.015625)"/>
       <path id="DejaVuSans-44" d="M 1259 4147 
L 1259 519 
L 2022 519 
Q 2988 519 3436 956 
Q 3884 1394 3884 2338 
Q 3884 3275 3436 3711 
Q 2988 4147 2022 4147 
L 1259 4147 
z
M 628 4666 
L 1925 4666 
Q 3281 4666 3915 4102 
Q 4550 3538 4550 2338 
Q 4550 1131 3912 565 
Q 3275 0 1925 0 
L 628 0 
L 628 4666 
z
" transform="scale(0.015625)"/>
      </defs>
      <use xlink:href="#DejaVuSans-54"/>
      <use xlink:href="#DejaVuSans-72" transform="translate(46.333984 0)"/>
      <use xlink:href="#DejaVuSans-69" transform="translate(87.447266 0)"/>
      <use xlink:href="#DejaVuSans-61" transform="translate(115.230469 0)"/>
      <use xlink:href="#DejaVuSans-6c" transform="translate(176.509766 0)"/>
      <use xlink:href="#DejaVuSans-20" transform="translate(204.292969 0)"/>
      <use xlink:href="#DejaVuSans-49" transform="translate(236.080078 0)"/>
      <use xlink:href="#DejaVuSans-44" transform="translate(265.572266 0)"/>
     </g>
    </g>
   </g>
   <g id="matplotlib.axis_2">
    <g id="ytick_1">
     <g id="line2d_21">
      <path d="M 70.409375 322.014173 
L 628.409375 322.014173 
" clip-path="url(#pab252594a9)" style="fill: none; stroke-dasharray: 2.96,1.28; stroke-dashoffset: 0; stroke: #b0b0b0; stroke-opacity: 0.5; stroke-width: 0.8"/>
     </g>
     <g id="line2d_22">
      <defs>
       <path id="mbbfc24508a" d="M 0 0 
L -3.5 0 
" style="stroke: #000000; stroke-width: 0.8"/>
      </defs>
      <g>
       <use xlink:href="#mbbfc24508a" x="70.409375" y="322.014173" style="stroke: #000000; stroke-width: 0.8"/>
      </g>
     </g>
     <g id="text_12">
      <!-- −2500 -->
      <g transform="translate(22.81375 326.573236) scale(0.12 -0.12)">
       <defs>
        <path id="DejaVuSans-2212" d="M 678 2272 
L 4684 2272 
L 4684 1741 
L 678 1741 
L 678 2272 
z
" transform="scale(0.015625)"/>
        <path id="DejaVuSans-30" d="M 2034 4250 
Q 1547 4250 1301 3770 
Q 1056 3291 1056 2328 
Q 1056 1369 1301 889 
Q 1547 409 2034 409 
Q 2525 409 2770 889 
Q 3016 1369 3016 2328 
Q 3016 3291 2770 3770 
Q 2525 4250 2034 4250 
z
M 2034 4750 
Q 2819 4750 3233 4129 
Q 3647 3509 3647 2328 
Q 3647 1150 3233 529 
Q 2819 -91 2034 -91 
Q 1250 -91 836 529 
Q 422 1150 422 2328 
Q 422 3509 836 4129 
Q 1250 4750 2034 4750 
z
" transform="scale(0.015625)"/>
       </defs>
       <use xlink:href="#DejaVuSans-2212"/>
       <use xlink:href="#DejaVuSans-32" transform="translate(83.789062 0)"/>
       <use xlink:href="#DejaVuSans-35" transform="translate(147.412109 0)"/>
       <use xlink:href="#DejaVuSans-30" transform="translate(211.035156 0)"/>
       <use xlink:href="#DejaVuSans-30" transform="translate(274.658203 0)"/>
      </g>
     </g>
    </g>
    <g id="ytick_2">
     <g id="line2d_23">
      <path d="M 70.409375 284.859536 
L 628.409375 284.859536 
" clip-path="url(#pab252594a9)" style="fill: none; stroke-dasharray: 2.96,1.28; stroke-dashoffset: 0; stroke: #b0b0b0; stroke-opacity: 0.5; stroke-width: 0.8"/>
     </g>
     <g id="line2d_24">
      <g>
       <use xlink:href="#mbbfc24508a" x="70.409375" y="284.859536" style="stroke: #000000; stroke-width: 0.8"/>
      </g>
     </g>
     <g id="text_13">
      <!-- 0 -->
      <g transform="translate(55.774375 289.418598) scale(0.12 -0.12)">
       <use xlink:href="#DejaVuSans-30"/>
      </g>
     </g>
    </g>
    <g id="ytick_3">
     <g id="line2d_25">
      <path d="M 70.409375 247.704898 
L 628.409375 247.704898 
" clip-path="url(#pab252594a9)" style="fill: none; stroke-dasharray: 2.96,1.28; stroke-dashoffset: 0; stroke: #b0b0b0; stroke-opacity: 0.5; stroke-width: 0.8"/>
     </g>
     <g id="line2d_26">
      <g>
       <use xlink:href="#mbbfc24508a" x="70.409375" y="247.704898" style="stroke: #000000; stroke-width: 0.8"/>
      </g>
     </g>
     <g id="text_14">
      <!-- 2500 -->
      <g transform="translate(32.869375 252.26396) scale(0.12 -0.12)">
       <use xlink:href="#DejaVuSans-32"/>
       <use xlink:href="#DejaVuSans-35" transform="translate(63.623047 0)"/>
       <use xlink:href="#DejaVuSans-30" transform="translate(127.246094 0)"/>
       <use xlink:href="#DejaVuSans-30" transform="translate(190.869141 0)"/>
      </g>
     </g>
    </g>
    <g id="ytick_4">
     <g id="line2d_27">
      <path d="M 70.409375 210.55026 
L 628.409375 210.55026 
" clip-path="url(#pab252594a9)" style="fill: none; stroke-dasharray: 2.96,1.28; stroke-dashoffset: 0; stroke: #b0b0b0; stroke-opacity: 0.5; stroke-width: 0.8"/>
     </g>
     <g id="line2d_28">
      <g>
       <use xlink:href="#mbbfc24508a" x="70.409375" y="210.55026" style="stroke: #000000; stroke-width: 0.8"/>
      </g>
     </g>
     <g id="text_15">
      <!-- 5000 -->
      <g transform="translate(32.869375 215.109323) scale(0.12 -0.12)">
       <use xlink:href="#DejaVuSans-35"/>
       <use xlink:href="#DejaVuSans-30" transform="translate(63.623047 0)"/>
       <use xlink:href="#DejaVuSans-30" transform="translate(127.246094 0)"/>
       <use xlink:href="#DejaVuSans-30" transform="translate(190.869141 0)"/>
      </g>
     </g>
    </g>
    <g id="ytick_5">
     <g id="line2d_29">
      <path d="M 70.409375 173.395622 
L 628.409375 173.395622 
" clip-path="url(#pab252594a9)" style="fill: none; stroke-dasharray: 2.96,1.28; stroke-dashoffset: 0; stroke: #b0b0b0; stroke-opacity: 0.5; stroke-width: 0.8"/>
     </g>
     <g id="line2d_30">
      <g>
       <use xlink:href="#mbbfc24508a" x="70.409375" y="173.395622" style="stroke: #000000; stroke-width: 0.8"/>
      </g>
     </g>
     <g id="text_16">
      <!-- 7500 -->
      <g transform="translate(32.869375 177.954685) scale(0.12 -0.12)">
       <use xlink:href="#DejaVuSans-37"/>
       <use xlink:href="#DejaVuSans-35" transform="translate(63.623047 0)"/>
       <use xlink:href="#DejaVuSans-30" transform="translate(127.246094 0)"/>
       <use xlink:href="#DejaVuSans-30" transform="translate(190.869141 0)"/>
      </g>
     </g>
    </g>
    <g id="ytick_6">
     <g id="line2d_31">
      <path d="M 70.409375 136.240985 
L 628.409375 136.240985 
" clip-path="url(#pab252594a9)" style="fill: none; stroke-dasharray: 2.96,1.28; stroke-dashoffset: 0; stroke: #b0b0b0; stroke-opacity: 0.5; stroke-width: 0.8"/>
     </g>
     <g id="line2d_32">
      <g>
       <use xlink:href="#mbbfc24508a" x="70.409375" y="136.240985" style="stroke: #000000; stroke-width: 0.8"/>
      </g>
     </g>
     <g id="text_17">
      <!-- 10000 -->
      <g transform="translate(25.234375 140.800047) scale(0.12 -0.12)">
       <use xlink:href="#DejaVuSans-31"/>
       <use xlink:href="#DejaVuSans-30" transform="translate(63.623047 0)"/>
       <use xlink:href="#DejaVuSans-30" transform="translate(127.246094 0)"/>
       <use xlink:href="#DejaVuSans-30" transform="translate(190.869141 0)"/>
       <use xlink:href="#DejaVuSans-30" transform="translate(254.492188 0)"/>
      </g>
     </g>
    </g>
    <g id="ytick_7">
     <g id="line2d_33">
      <path d="M 70.409375 99.086347 
L 628.409375 99.086347 
" clip-path="url(#pab252594a9)" style="fill: none; stroke-dasharray: 2.96,1.28; stroke-dashoffset: 0; stroke: #b0b0b0; stroke-opacity: 0.5; stroke-width: 0.8"/>
     </g>
     <g id="line2d_34">
      <g>
       <use xlink:href="#mbbfc24508a" x="70.409375" y="99.086347" style="stroke: #000000; stroke-width: 0.8"/>
      </g>
     </g>
     <g id="text_18">
      <!-- 12500 -->
      <g transform="translate(25.234375 103.645409) scale(0.12 -0.12)">
       <use xlink:href="#DejaVuSans-31"/>
       <use xlink:href="#DejaVuSans-32" transform="translate(63.623047 0)"/>
       <use xlink:href="#DejaVuSans-35" transform="translate(127.246094 0)"/>
       <use xlink:href="#DejaVuSans-30" transform="translate(190.869141 0)"/>
       <use xlink:href="#DejaVuSans-30" transform="translate(254.492188 0)"/>
      </g>
     </g>
    </g>
    <g id="ytick_8">
     <g id="line2d_35">
      <path d="M 70.409375 61.931709 
L 628.409375 61.931709 
" clip-path="url(#pab252594a9)" style="fill: none; stroke-dasharray: 2.96,1.28; stroke-dashoffset: 0; stroke: #b0b0b0; stroke-opacity: 0.5; stroke-width: 0.8"/>
     </g>
     <g id="line2d_36">
      <g>
       <use xlink:href="#mbbfc24508a" x="70.409375" y="61.931709" style="stroke: #000000; stroke-width: 0.8"/>
      </g>
     </g>
     <g id="text_19">
      <!-- 15000 -->
      <g transform="translate(25.234375 66.490771) scale(0.12 -0.12)">
       <use xlink:href="#DejaVuSans-31"/>
       <use xlink:href="#DejaVuSans-35" transform="translate(63.623047 0)"/>
       <use xlink:href="#DejaVuSans-30" transform="translate(127.246094 0)"/>
       <use xlink:href="#DejaVuSans-30" transform="translate(190.869141 0)"/>
       <use xlink:href="#DejaVuSans-30" transform="translate(254.492188 0)"/>
      </g>
     </g>
    </g>
    <g id="ytick_9">
     <g id="line2d_37">
      <path d="M 70.409375 24.777071 
L 628.409375 24.777071 
" clip-path="url(#pab252594a9)" style="fill: none; stroke-dasharray: 2.96,1.28; stroke-dashoffset: 0; stroke: #b0b0b0; stroke-opacity: 0.5; stroke-width: 0.8"/>
     </g>
     <g id="line2d_38">
      <g>
       <use xlink:href="#mbbfc24508a" x="70.409375" y="24.777071" style="stroke: #000000; stroke-width: 0.8"/>
      </g>
     </g>
     <g id="text_20">
      <!-- 17500 -->
      <g transform="translate(25.234375 29.336134) scale(0.12 -0.12)">
       <use xlink:href="#DejaVuSans-31"/>
       <use xlink:href="#DejaVuSans-37" transform="translate(63.623047 0)"/>
       <use xlink:href="#DejaVuSans-35" transform="translate(127.246094 0)"/>
       <use xlink:href="#DejaVuSans-30" transform="translate(190.869141 0)"/>
       <use xlink:href="#DejaVuSans-30" transform="translate(254.492188 0)"/>
      </g>
     </g>
    </g>
    <g id="text_21">
     <!-- Time (ms) -->
     <g transform="translate(16.318125 220.700812) rotate(-90) scale(0.12 -0.12)">
      <defs>
       <path id="DejaVuSans-6d" d="M 3328 2828 
Q 3544 3216 3844 3400 
Q 4144 3584 4550 3584 
Q 5097 3584 5394 3201 
Q 5691 2819 5691 2113 
L 5691 0 
L 5113 0 
L 5113 2094 
Q 5113 2597 4934 2840 
Q 4756 3084 4391 3084 
Q 3944 3084 3684 2787 
Q 3425 2491 3425 1978 
L 3425 0 
L 2847 0 
L 2847 2094 
Q 2847 2600 2669 2842 
Q 2491 3084 2119 3084 
Q 1678 3084 1418 2786 
Q 1159 2488 1159 1978 
L 1159 0 
L 581 0 
L 581 3500 
L 1159 3500 
L 1159 2956 
Q 1356 3278 1631 3431 
Q 1906 3584 2284 3584 
Q 2666 3584 2933 3390 
Q 3200 3197 3328 2828 
z
" transform="scale(0.015625)"/>
       <path id="DejaVuSans-65" d="M 3597 1894 
L 3597 1613 
L 953 1613 
Q 991 1019 1311 708 
Q 1631 397 2203 397 
Q 2534 397 2845 478 
Q 3156 559 3463 722 
L 3463 178 
Q 3153 47 2828 -22 
Q 2503 -91 2169 -91 
Q 1331 -91 842 396 
Q 353 884 353 1716 
Q 353 2575 817 3079 
Q 1281 3584 2069 3584 
Q 2775 3584 3186 3129 
Q 3597 2675 3597 1894 
z
M 3022 2063 
Q 3016 2534 2758 2815 
Q 2500 3097 2075 3097 
Q 1594 3097 1305 2825 
Q 1016 2553 972 2059 
L 3022 2063 
z
" transform="scale(0.015625)"/>
       <path id="DejaVuSans-28" d="M 1984 4856 
Q 1566 4138 1362 3434 
Q 1159 2731 1159 2009 
Q 1159 1288 1364 580 
Q 1569 -128 1984 -844 
L 1484 -844 
Q 1016 -109 783 600 
Q 550 1309 550 2009 
Q 550 2706 781 3412 
Q 1013 4119 1484 4856 
L 1984 4856 
z
" transform="scale(0.015625)"/>
       <path id="DejaVuSans-73" d="M 2834 3397 
L 2834 2853 
Q 2591 2978 2328 3040 
Q 2066 3103 1784 3103 
Q 1356 3103 1142 2972 
Q 928 2841 928 2578 
Q 928 2378 1081 2264 
Q 1234 2150 1697 2047 
L 1894 2003 
Q 2506 1872 2764 1633 
Q 3022 1394 3022 966 
Q 3022 478 2636 193 
Q 2250 -91 1575 -91 
Q 1294 -91 989 -36 
Q 684 19 347 128 
L 347 722 
Q 666 556 975 473 
Q 1284 391 1588 391 
Q 1994 391 2212 530 
Q 2431 669 2431 922 
Q 2431 1156 2273 1281 
Q 2116 1406 1581 1522 
L 1381 1569 
Q 847 1681 609 1914 
Q 372 2147 372 2553 
Q 372 3047 722 3315 
Q 1072 3584 1716 3584 
Q 2034 3584 2315 3537 
Q 2597 3491 2834 3397 
z
" transform="scale(0.015625)"/>
       <path id="DejaVuSans-29" d="M 513 4856 
L 1013 4856 
Q 1481 4119 1714 3412 
Q 1947 2706 1947 2009 
Q 1947 1309 1714 600 
Q 1481 -109 1013 -844 
L 513 -844 
Q 928 -128 1133 580 
Q 1338 1288 1338 2009 
Q 1338 2731 1133 3434 
Q 928 4138 513 4856 
z
" transform="scale(0.015625)"/>
      </defs>
      <use xlink:href="#DejaVuSans-54"/>
      <use xlink:href="#DejaVuSans-69" transform="translate(57.958984 0)"/>
      <use xlink:href="#DejaVuSans-6d" transform="translate(85.742188 0)"/>
      <use xlink:href="#DejaVuSans-65" transform="translate(183.154297 0)"/>
      <use xlink:href="#DejaVuSans-20" transform="translate(244.677734 0)"/>
      <use xlink:href="#DejaVuSans-28" transform="translate(276.464844 0)"/>
      <use xlink:href="#DejaVuSans-6d" transform="translate(315.478516 0)"/>
      <use xlink:href="#DejaVuSans-73" transform="translate(412.890625 0)"/>
      <use xlink:href="#DejaVuSans-29" transform="translate(464.990234 0)"/>
     </g>
    </g>
   </g>
   <g id="line2d_39">
    <path d="M 95.773011 250.664094 
L 100.896978 264.469908 
L 106.020945 264.062317 
L 111.144912 254.652655 
L 116.268879 267.768262 
L 121.392846 260.386714 
L 126.516813 261.297536 
L 131.64078 262.146389 
L 136.764747 263.466153 
L 141.888714 263.309337 
L 147.012681 266.550077 
L 152.136648 257.421247 
L 157.260615 270.477163 
L 162.384582 270.457135 
L 167.508549 268.859341 
L 172.632515 262.374455 
L 177.756482 265.735437 
L 182.880449 269.417782 
L 188.004416 267.450156 
L 193.128383 263.05756 
L 198.25235 255.965635 
L 203.376317 217.567849 
L 208.500284 251.430966 
L 213.624251 272.368327 
L 218.748218 263.281753 
L 223.872185 269.803597 
L 228.996152 269.232195 
L 234.120119 261.916576 
L 239.244086 266.291734 
L 244.368053 264.318352 
L 249.49202 273.634554 
L 254.615987 269.460378 
L 259.739954 266.390382 
L 264.86392 261.752857 
L 269.987887 260.715856 
L 275.111854 269.962351 
L 280.235821 252.469276 
L 285.359788 265.025837 
L 290.483755 265.721183 
L 295.607722 268.617218 
L 300.731689 268.416177 
L 305.855656 268.759124 
L 310.979623 252.270225 
L 316.10359 263.640632 
L 321.227557 268.160495 
L 326.351524 268.462013 
L 331.475491 189.78695 
L 336.599458 264.276555 
L 341.723425 260.790531 
L 346.847392 271.110744 
L 351.971358 271.402876 
L 357.095325 265.272687 
L 362.219292 273.125934 
L 367.343259 261.303633 
L 372.467226 268.6949 
L 377.591193 267.513378 
L 382.71516 267.162413 
L 387.839127 270.432318 
L 392.963094 268.481223 
L 398.087061 258.06891 
L 403.211028 267.710996 
L 408.334995 257.151739 
L 413.458962 262.578856 
L 418.582929 264.553639 
L 423.706896 262.797167 
L 428.830863 270.468369 
L 433.95483 268.981535 
L 439.078796 263.377418 
L 444.202763 258.03507 
L 449.32673 255.707916 
L 454.450697 271.041588 
L 459.574664 265.472966 
L 464.698631 264.397404 
L 469.822598 271.586517 
L 474.946565 270.307654 
L 480.070532 258.326025 
L 485.194499 264.345782 
L 490.318466 271.093449 
L 495.442433 268.008528 
L 500.5664 266.459946 
L 505.690367 267.475977 
L 510.814334 270.931429 
L 515.938301 259.280126 
L 521.062268 267.950588 
L 526.186235 267.257102 
L 531.310201 267.087381 
L 536.434168 258.557632 
L 541.558135 267.645061 
L 546.682102 263.824654 
L 551.806069 268.128673 
L 556.930036 265.222936 
L 562.054003 269.343254 
L 567.17797 263.197054 
L 572.301937 208.321429 
L 577.425904 264.448832 
L 582.549871 269.820989 
L 587.673838 269.904619 
L 592.797805 265.102307 
L 597.921772 268.052197 
L 603.045739 256.659224 
" clip-path="url(#pab252594a9)" style="fill: none; stroke: #35dc67; stroke-width: 1.5; stroke-linecap: square"/>
    <defs>
     <path id="m83f6273bac" d="M 0 3 
C 0.795609 3 1.55874 2.683901 2.12132 2.12132 
C 2.683901 1.55874 3 0.795609 3 0 
C 3 -0.795609 2.683901 -1.55874 2.12132 -2.12132 
C 1.55874 -2.683901 0.795609 -3 0 -3 
C -0.795609 -3 -1.55874 -2.683901 -2.12132 -2.12132 
C -2.683901 -1.55874 -3 -0.795609 -3 0 
C -3 0.795609 -2.683901 1.55874 -2.12132 2.12132 
C -1.55874 2.683901 -0.795609 3 0 3 
z
" style="stroke: #ffffff; stroke-width: 0.75"/>
    </defs>
    <g clip-path="url(#pab252594a9)">
     <use xlink:href="#m83f6273bac" x="95.773011" y="250.664094" style="fill: #35dc67; stroke: #ffffff; stroke-width: 0.75"/>
     <use xlink:href="#m83f6273bac" x="100.896978" y="264.469908" style="fill: #35dc67; stroke: #ffffff; stroke-width: 0.75"/>
     <use xlink:href="#m83f6273bac" x="106.020945" y="264.062317" style="fill: #35dc67; stroke: #ffffff; stroke-width: 0.75"/>
     <use xlink:href="#m83f6273bac" x="111.144912" y="254.652655" style="fill: #35dc67; stroke: #ffffff; stroke-width: 0.75"/>
     <use xlink:href="#m83f6273bac" x="116.268879" y="267.768262" style="fill: #35dc67; stroke: #ffffff; stroke-width: 0.75"/>
     <use xlink:href="#m83f6273bac" x="121.392846" y="260.386714" style="fill: #35dc67; stroke: #ffffff; stroke-width: 0.75"/>
     <use xlink:href="#m83f6273bac" x="126.516813" y="261.297536" style="fill: #35dc67; stroke: #ffffff; stroke-width: 0.75"/>
     <use xlink:href="#m83f6273bac" x="131.64078" y="262.146389" style="fill: #35dc67; stroke: #ffffff; stroke-width: 0.75"/>
     <use xlink:href="#m83f6273bac" x="136.764747" y="263.466153" style="fill: #35dc67; stroke: #ffffff; stroke-width: 0.75"/>
     <use xlink:href="#m83f6273bac" x="141.888714" y="263.309337" style="fill: #35dc67; stroke: #ffffff; stroke-width: 0.75"/>
     <use xlink:href="#m83f6273bac" x="147.012681" y="266.550077" style="fill: #35dc67; stroke: #ffffff; stroke-width: 0.75"/>
     <use xlink:href="#m83f6273bac" x="152.136648" y="257.421247" style="fill: #35dc67; stroke: #ffffff; stroke-width: 0.75"/>
     <use xlink:href="#m83f6273bac" x="157.260615" y="270.477163" style="fill: #35dc67; stroke: #ffffff; stroke-width: 0.75"/>
     <use xlink:href="#m83f6273bac" x="162.384582" y="270.457135" style="fill: #35dc67; stroke: #ffffff; stroke-width: 0.75"/>
     <use xlink:href="#m83f6273bac" x="167.508549" y="268.859341" style="fill: #35dc67; stroke: #ffffff; stroke-width: 0.75"/>
     <use xlink:href="#m83f6273bac" x="172.632515" y="262.374455" style="fill: #35dc67; stroke: #ffffff; stroke-width: 0.75"/>
     <use xlink:href="#m83f6273bac" x="177.756482" y="265.735437" style="fill: #35dc67; stroke: #ffffff; stroke-width: 0.75"/>
     <use xlink:href="#m83f6273bac" x="182.880449" y="269.417782" style="fill: #35dc67; stroke: #ffffff; stroke-width: 0.75"/>
     <use xlink:href="#m83f6273bac" x="188.004416" y="267.450156" style="fill: #35dc67; stroke: #ffffff; stroke-width: 0.75"/>
     <use xlink:href="#m83f6273bac" x="193.128383" y="263.05756" style="fill: #35dc67; stroke: #ffffff; stroke-width: 0.75"/>
     <use xlink:href="#m83f6273bac" x="198.25235" y="255.965635" style="fill: #35dc67; stroke: #ffffff; stroke-width: 0.75"/>
     <use xlink:href="#m83f6273bac" x="203.376317" y="217.567849" style="fill: #35dc67; stroke: #ffffff; stroke-width: 0.75"/>
     <use xlink:href="#m83f6273bac" x="208.500284" y="251.430966" style="fill: #35dc67; stroke: #ffffff; stroke-width: 0.75"/>
     <use xlink:href="#m83f6273bac" x="213.624251" y="272.368327" style="fill: #35dc67; stroke: #ffffff; stroke-width: 0.75"/>
     <use xlink:href="#m83f6273bac" x="218.748218" y="263.281753" style="fill: #35dc67; stroke: #ffffff; stroke-width: 0.75"/>
     <use xlink:href="#m83f6273bac" x="223.872185" y="269.803597" style="fill: #35dc67; stroke: #ffffff; stroke-width: 0.75"/>
     <use xlink:href="#m83f6273bac" x="228.996152" y="269.232195" style="fill: #35dc67; stroke: #ffffff; stroke-width: 0.75"/>
     <use xlink:href="#m83f6273bac" x="234.120119" y="261.916576" style="fill: #35dc67; stroke: #ffffff; stroke-width: 0.75"/>
     <use xlink:href="#m83f6273bac" x="239.244086" y="266.291734" style="fill: #35dc67; stroke: #ffffff; stroke-width: 0.75"/>
     <use xlink:href="#m83f6273bac" x="244.368053" y="264.318352" style="fill: #35dc67; stroke: #ffffff; stroke-width: 0.75"/>
     <use xlink:href="#m83f6273bac" x="249.49202" y="273.634554" style="fill: #35dc67; stroke: #ffffff; stroke-width: 0.75"/>
     <use xlink:href="#m83f6273bac" x="254.615987" y="269.460378" style="fill: #35dc67; stroke: #ffffff; stroke-width: 0.75"/>
     <use xlink:href="#m83f6273bac" x="259.739954" y="266.390382" style="fill: #35dc67; stroke: #ffffff; stroke-width: 0.75"/>
     <use xlink:href="#m83f6273bac" x="264.86392" y="261.752857" style="fill: #35dc67; stroke: #ffffff; stroke-width: 0.75"/>
     <use xlink:href="#m83f6273bac" x="269.987887" y="260.715856" style="fill: #35dc67; stroke: #ffffff; stroke-width: 0.75"/>
     <use xlink:href="#m83f6273bac" x="275.111854" y="269.962351" style="fill: #35dc67; stroke: #ffffff; stroke-width: 0.75"/>
     <use xlink:href="#m83f6273bac" x="280.235821" y="252.469276" style="fill: #35dc67; stroke: #ffffff; stroke-width: 0.75"/>
     <use xlink:href="#m83f6273bac" x="285.359788" y="265.025837" style="fill: #35dc67; stroke: #ffffff; stroke-width: 0.75"/>
     <use xlink:href="#m83f6273bac" x="290.483755" y="265.721183" style="fill: #35dc67; stroke: #ffffff; stroke-width: 0.75"/>
     <use xlink:href="#m83f6273bac" x="295.607722" y="268.617218" style="fill: #35dc67; stroke: #ffffff; stroke-width: 0.75"/>
     <use xlink:href="#m83f6273bac" x="300.731689" y="268.416177" style="fill: #35dc67; stroke: #ffffff; stroke-width: 0.75"/>
     <use xlink:href="#m83f6273bac" x="305.855656" y="268.759124" style="fill: #35dc67; stroke: #ffffff; stroke-width: 0.75"/>
     <use xlink:href="#m83f6273bac" x="310.979623" y="252.270225" style="fill: #35dc67; stroke: #ffffff; stroke-width: 0.75"/>
     <use xlink:href="#m83f6273bac" x="316.10359" y="263.640632" style="fill: #35dc67; stroke: #ffffff; stroke-width: 0.75"/>
     <use xlink:href="#m83f6273bac" x="321.227557" y="268.160495" style="fill: #35dc67; stroke: #ffffff; stroke-width: 0.75"/>
     <use xlink:href="#m83f6273bac" x="326.351524" y="268.462013" style="fill: #35dc67; stroke: #ffffff; stroke-width: 0.75"/>
     <use xlink:href="#m83f6273bac" x="331.475491" y="189.78695" style="fill: #35dc67; stroke: #ffffff; stroke-width: 0.75"/>
     <use xlink:href="#m83f6273bac" x="336.599458" y="264.276555" style="fill: #35dc67; stroke: #ffffff; stroke-width: 0.75"/>
     <use xlink:href="#m83f6273bac" x="341.723425" y="260.790531" style="fill: #35dc67; stroke: #ffffff; stroke-width: 0.75"/>
     <use xlink:href="#m83f6273bac" x="346.847392" y="271.110744" style="fill: #35dc67; stroke: #ffffff; stroke-width: 0.75"/>
     <use xlink:href="#m83f6273bac" x="351.971358" y="271.402876" style="fill: #35dc67; stroke: #ffffff; stroke-width: 0.75"/>
     <use xlink:href="#m83f6273bac" x="357.095325" y="265.272687" style="fill: #35dc67; stroke: #ffffff; stroke-width: 0.75"/>
     <use xlink:href="#m83f6273bac" x="362.219292" y="273.125934" style="fill: #35dc67; stroke: #ffffff; stroke-width: 0.75"/>
     <use xlink:href="#m83f6273bac" x="367.343259" y="261.303633" style="fill: #35dc67; stroke: #ffffff; stroke-width: 0.75"/>
     <use xlink:href="#m83f6273bac" x="372.467226" y="268.6949" style="fill: #35dc67; stroke: #ffffff; stroke-width: 0.75"/>
     <use xlink:href="#m83f6273bac" x="377.591193" y="267.513378" style="fill: #35dc67; stroke: #ffffff; stroke-width: 0.75"/>
     <use xlink:href="#m83f6273bac" x="382.71516" y="267.162413" style="fill: #35dc67; stroke: #ffffff; stroke-width: 0.75"/>
     <use xlink:href="#m83f6273bac" x="387.839127" y="270.432318" style="fill: #35dc67; stroke: #ffffff; stroke-width: 0.75"/>
     <use xlink:href="#m83f6273bac" x="392.963094" y="268.481223" style="fill: #35dc67; stroke: #ffffff; stroke-width: 0.75"/>
     <use xlink:href="#m83f6273bac" x="398.087061" y="258.06891" style="fill: #35dc67; stroke: #ffffff; stroke-width: 0.75"/>
     <use xlink:href="#m83f6273bac" x="403.211028" y="267.710996" style="fill: #35dc67; stroke: #ffffff; stroke-width: 0.75"/>
     <use xlink:href="#m83f6273bac" x="408.334995" y="257.151739" style="fill: #35dc67; stroke: #ffffff; stroke-width: 0.75"/>
     <use xlink:href="#m83f6273bac" x="413.458962" y="262.578856" style="fill: #35dc67; stroke: #ffffff; stroke-width: 0.75"/>
     <use xlink:href="#m83f6273bac" x="418.582929" y="264.553639" style="fill: #35dc67; stroke: #ffffff; stroke-width: 0.75"/>
     <use xlink:href="#m83f6273bac" x="423.706896" y="262.797167" style="fill: #35dc67; stroke: #ffffff; stroke-width: 0.75"/>
     <use xlink:href="#m83f6273bac" x="428.830863" y="270.468369" style="fill: #35dc67; stroke: #ffffff; stroke-width: 0.75"/>
     <use xlink:href="#m83f6273bac" x="433.95483" y="268.981535" style="fill: #35dc67; stroke: #ffffff; stroke-width: 0.75"/>
     <use xlink:href="#m83f6273bac" x="439.078796" y="263.377418" style="fill: #35dc67; stroke: #ffffff; stroke-width: 0.75"/>
     <use xlink:href="#m83f6273bac" x="444.202763" y="258.03507" style="fill: #35dc67; stroke: #ffffff; stroke-width: 0.75"/>
     <use xlink:href="#m83f6273bac" x="449.32673" y="255.707916" style="fill: #35dc67; stroke: #ffffff; stroke-width: 0.75"/>
     <use xlink:href="#m83f6273bac" x="454.450697" y="271.041588" style="fill: #35dc67; stroke: #ffffff; stroke-width: 0.75"/>
     <use xlink:href="#m83f6273bac" x="459.574664" y="265.472966" style="fill: #35dc67; stroke: #ffffff; stroke-width: 0.75"/>
     <use xlink:href="#m83f6273bac" x="464.698631" y="264.397404" style="fill: #35dc67; stroke: #ffffff; stroke-width: 0.75"/>
     <use xlink:href="#m83f6273bac" x="469.822598" y="271.586517" style="fill: #35dc67; stroke: #ffffff; stroke-width: 0.75"/>
     <use xlink:href="#m83f6273bac" x="474.946565" y="270.307654" style="fill: #35dc67; stroke: #ffffff; stroke-width: 0.75"/>
     <use xlink:href="#m83f6273bac" x="480.070532" y="258.326025" style="fill: #35dc67; stroke: #ffffff; stroke-width: 0.75"/>
     <use xlink:href="#m83f6273bac" x="485.194499" y="264.345782" style="fill: #35dc67; stroke: #ffffff; stroke-width: 0.75"/>
     <use xlink:href="#m83f6273bac" x="490.318466" y="271.093449" style="fill: #35dc67; stroke: #ffffff; stroke-width: 0.75"/>
     <use xlink:href="#m83f6273bac" x="495.442433" y="268.008528" style="fill: #35dc67; stroke: #ffffff; stroke-width: 0.75"/>
     <use xlink:href="#m83f6273bac" x="500.5664" y="266.459946" style="fill: #35dc67; stroke: #ffffff; stroke-width: 0.75"/>
     <use xlink:href="#m83f6273bac" x="505.690367" y="267.475977" style="fill: #35dc67; stroke: #ffffff; stroke-width: 0.75"/>
     <use xlink:href="#m83f6273bac" x="510.814334" y="270.931429" style="fill: #35dc67; stroke: #ffffff; stroke-width: 0.75"/>
     <use xlink:href="#m83f6273bac" x="515.938301" y="259.280126" style="fill: #35dc67; stroke: #ffffff; stroke-width: 0.75"/>
     <use xlink:href="#m83f6273bac" x="521.062268" y="267.950588" style="fill: #35dc67; stroke: #ffffff; stroke-width: 0.75"/>
     <use xlink:href="#m83f6273bac" x="526.186235" y="267.257102" style="fill: #35dc67; stroke: #ffffff; stroke-width: 0.75"/>
     <use xlink:href="#m83f6273bac" x="531.310201" y="267.087381" style="fill: #35dc67; stroke: #ffffff; stroke-width: 0.75"/>
     <use xlink:href="#m83f6273bac" x="536.434168" y="258.557632" style="fill: #35dc67; stroke: #ffffff; stroke-width: 0.75"/>
     <use xlink:href="#m83f6273bac" x="541.558135" y="267.645061" style="fill: #35dc67; stroke: #ffffff; stroke-width: 0.75"/>
     <use xlink:href="#m83f6273bac" x="546.682102" y="263.824654" style="fill: #35dc67; stroke: #ffffff; stroke-width: 0.75"/>
     <use xlink:href="#m83f6273bac" x="551.806069" y="268.128673" style="fill: #35dc67; stroke: #ffffff; stroke-width: 0.75"/>
     <use xlink:href="#m83f6273bac" x="556.930036" y="265.222936" style="fill: #35dc67; stroke: #ffffff; stroke-width: 0.75"/>
     <use xlink:href="#m83f6273bac" x="562.054003" y="269.343254" style="fill: #35dc67; stroke: #ffffff; stroke-width: 0.75"/>
     <use xlink:href="#m83f6273bac" x="567.17797" y="263.197054" style="fill: #35dc67; stroke: #ffffff; stroke-width: 0.75"/>
     <use xlink:href="#m83f6273bac" x="572.301937" y="208.321429" style="fill: #35dc67; stroke: #ffffff; stroke-width: 0.75"/>
     <use xlink:href="#m83f6273bac" x="577.425904" y="264.448832" style="fill: #35dc67; stroke: #ffffff; stroke-width: 0.75"/>
     <use xlink:href="#m83f6273bac" x="582.549871" y="269.820989" style="fill: #35dc67; stroke: #ffffff; stroke-width: 0.75"/>
     <use xlink:href="#m83f6273bac" x="587.673838" y="269.904619" style="fill: #35dc67; stroke: #ffffff; stroke-width: 0.75"/>
     <use xlink:href="#m83f6273bac" x="592.797805" y="265.102307" style="fill: #35dc67; stroke: #ffffff; stroke-width: 0.75"/>
     <use xlink:href="#m83f6273bac" x="597.921772" y="268.052197" style="fill: #35dc67; stroke: #ffffff; stroke-width: 0.75"/>
     <use xlink:href="#m83f6273bac" x="603.045739" y="256.659224" style="fill: #35dc67; stroke: #ffffff; stroke-width: 0.75"/>
    </g>
   </g>
   <g id="line2d_40">
    <path d="M 95.773011 261.797062 
L 100.896978 265.232772 
L 106.020945 257.428674 
L 111.144912 258.121857 
L 116.268879 244.373115 
L 121.392846 240.435412 
L 126.516813 263.761135 
L 131.64078 267.306679 
L 136.764747 262.353704 
L 141.888714 190.46175 
L 147.012681 263.675035 
L 152.136648 263.206445 
L 157.260615 258.162036 
L 162.384582 265.131553 
L 167.508549 253.699625 
L 172.632515 253.812977 
L 177.756482 261.205188 
L 182.880449 238.45099 
L 188.004416 268.713843 
L 193.128383 257.928471 
L 198.25235 270.215999 
L 203.376317 229.283245 
L 208.500284 260.097607 
L 213.624251 261.101756 
L 218.748218 267.819285 
L 223.872185 268.981973 
L 228.996152 262.585963 
L 234.120119 246.62957 
L 239.244086 262.159903 
L 244.368053 243.8955 
L 249.49202 264.650431 
L 254.615987 263.413756 
L 259.739954 263.339071 
L 264.86392 266.345129 
L 269.987887 253.860212 
L 275.111854 266.237025 
L 280.235821 257.117953 
L 285.359788 262.201771 
L 290.483755 260.679572 
L 295.607722 263.260991 
L 300.731689 263.046595 
L 305.855656 260.517814 
L 310.979623 266.881833 
L 316.10359 268.209855 
L 321.227557 261.77849 
L 326.351524 267.988203 
L 331.475491 257.48129 
L 336.599458 262.293944 
L 341.723425 271.313311 
L 346.847392 261.814939 
L 351.971358 267.431833 
L 357.095325 263.674151 
L 362.219292 265.192669 
L 367.343259 272.04545 
L 372.467226 266.157503 
L 377.591193 264.775291 
L 382.71516 265.549073 
L 387.839127 272.334858 
L 392.963094 264.478123 
L 398.087061 268.745099 
L 403.211028 268.678901 
L 408.334995 267.443272 
L 413.458962 261.812003 
L 418.582929 267.955145 
L 423.706896 229.256565 
L 428.830863 264.890466 
L 433.95483 263.289696 
L 439.078796 264.120665 
L 444.202763 273.063908 
L 449.32673 269.610787 
L 454.450697 268.918233 
L 459.574664 268.088577 
L 464.698631 269.333343 
L 469.822598 262.468011 
L 474.946565 267.615196 
L 480.070532 256.721825 
L 485.194499 266.902059 
L 490.318466 266.961347 
L 495.442433 241.504756 
L 500.5664 269.529577 
L 505.690367 266.899711 
L 510.814334 263.79011 
L 515.938301 260.625579 
L 521.062268 272.211576 
L 526.186235 271.066511 
L 531.310201 259.600886 
L 536.434168 272.073639 
L 541.558135 267.740813 
L 546.682102 269.899118 
L 551.806069 268.2826 
L 556.930036 272.28991 
L 562.054003 273.137231 
L 567.17797 269.153437 
L 572.301937 251.393072 
L 577.425904 269.423905 
L 582.549871 244.84664 
L 587.673838 268.915032 
L 592.797805 265.822637 
L 597.921772 265.655712 
L 603.045739 268.412745 
" clip-path="url(#pab252594a9)" style="fill: none; stroke: #007bff; stroke-width: 1.5; stroke-linecap: square"/>
    <defs>
     <path id="m3dc3be96c3" d="M 0 3 
C 0.795609 3 1.55874 2.683901 2.12132 2.12132 
C 2.683901 1.55874 3 0.795609 3 0 
C 3 -0.795609 2.683901 -1.55874 2.12132 -2.12132 
C 1.55874 -2.683901 0.795609 -3 0 -3 
C -0.795609 -3 -1.55874 -2.683901 -2.12132 -2.12132 
C -2.683901 -1.55874 -3 -0.795609 -3 0 
C -3 0.795609 -2.683901 1.55874 -2.12132 2.12132 
C -1.55874 2.683901 -0.795609 3 0 3 
z
" style="stroke: #ffffff; stroke-width: 0.75"/>
    </defs>
    <g clip-path="url(#pab252594a9)">
     <use xlink:href="#m3dc3be96c3" x="95.773011" y="261.797062" style="fill: #007bff; stroke: #ffffff; stroke-width: 0.75"/>
     <use xlink:href="#m3dc3be96c3" x="100.896978" y="265.232772" style="fill: #007bff; stroke: #ffffff; stroke-width: 0.75"/>
     <use xlink:href="#m3dc3be96c3" x="106.020945" y="257.428674" style="fill: #007bff; stroke: #ffffff; stroke-width: 0.75"/>
     <use xlink:href="#m3dc3be96c3" x="111.144912" y="258.121857" style="fill: #007bff; stroke: #ffffff; stroke-width: 0.75"/>
     <use xlink:href="#m3dc3be96c3" x="116.268879" y="244.373115" style="fill: #007bff; stroke: #ffffff; stroke-width: 0.75"/>
     <use xlink:href="#m3dc3be96c3" x="121.392846" y="240.435412" style="fill: #007bff; stroke: #ffffff; stroke-width: 0.75"/>
     <use xlink:href="#m3dc3be96c3" x="126.516813" y="263.761135" style="fill: #007bff; stroke: #ffffff; stroke-width: 0.75"/>
     <use xlink:href="#m3dc3be96c3" x="131.64078" y="267.306679" style="fill: #007bff; stroke: #ffffff; stroke-width: 0.75"/>
     <use xlink:href="#m3dc3be96c3" x="136.764747" y="262.353704" style="fill: #007bff; stroke: #ffffff; stroke-width: 0.75"/>
     <use xlink:href="#m3dc3be96c3" x="141.888714" y="190.46175" style="fill: #007bff; stroke: #ffffff; stroke-width: 0.75"/>
     <use xlink:href="#m3dc3be96c3" x="147.012681" y="263.675035" style="fill: #007bff; stroke: #ffffff; stroke-width: 0.75"/>
     <use xlink:href="#m3dc3be96c3" x="152.136648" y="263.206445" style="fill: #007bff; stroke: #ffffff; stroke-width: 0.75"/>
     <use xlink:href="#m3dc3be96c3" x="157.260615" y="258.162036" style="fill: #007bff; stroke: #ffffff; stroke-width: 0.75"/>
     <use xlink:href="#m3dc3be96c3" x="162.384582" y="265.131553" style="fill: #007bff; stroke: #ffffff; stroke-width: 0.75"/>
     <use xlink:href="#m3dc3be96c3" x="167.508549" y="253.699625" style="fill: #007bff; stroke: #ffffff; stroke-width: 0.75"/>
     <use xlink:href="#m3dc3be96c3" x="172.632515" y="253.812977" style="fill: #007bff; stroke: #ffffff; stroke-width: 0.75"/>
     <use xlink:href="#m3dc3be96c3" x="177.756482" y="261.205188" style="fill: #007bff; stroke: #ffffff; stroke-width: 0.75"/>
     <use xlink:href="#m3dc3be96c3" x="182.880449" y="238.45099" style="fill: #007bff; stroke: #ffffff; stroke-width: 0.75"/>
     <use xlink:href="#m3dc3be96c3" x="188.004416" y="268.713843" style="fill: #007bff; stroke: #ffffff; stroke-width: 0.75"/>
     <use xlink:href="#m3dc3be96c3" x="193.128383" y="257.928471" style="fill: #007bff; stroke: #ffffff; stroke-width: 0.75"/>
     <use xlink:href="#m3dc3be96c3" x="198.25235" y="270.215999" style="fill: #007bff; stroke: #ffffff; stroke-width: 0.75"/>
     <use xlink:href="#m3dc3be96c3" x="203.376317" y="229.283245" style="fill: #007bff; stroke: #ffffff; stroke-width: 0.75"/>
     <use xlink:href="#m3dc3be96c3" x="208.500284" y="260.097607" style="fill: #007bff; stroke: #ffffff; stroke-width: 0.75"/>
     <use xlink:href="#m3dc3be96c3" x="213.624251" y="261.101756" style="fill: #007bff; stroke: #ffffff; stroke-width: 0.75"/>
     <use xlink:href="#m3dc3be96c3" x="218.748218" y="267.819285" style="fill: #007bff; stroke: #ffffff; stroke-width: 0.75"/>
     <use xlink:href="#m3dc3be96c3" x="223.872185" y="268.981973" style="fill: #007bff; stroke: #ffffff; stroke-width: 0.75"/>
     <use xlink:href="#m3dc3be96c3" x="228.996152" y="262.585963" style="fill: #007bff; stroke: #ffffff; stroke-width: 0.75"/>
     <use xlink:href="#m3dc3be96c3" x="234.120119" y="246.62957" style="fill: #007bff; stroke: #ffffff; stroke-width: 0.75"/>
     <use xlink:href="#m3dc3be96c3" x="239.244086" y="262.159903" style="fill: #007bff; stroke: #ffffff; stroke-width: 0.75"/>
     <use xlink:href="#m3dc3be96c3" x="244.368053" y="243.8955" style="fill: #007bff; stroke: #ffffff; stroke-width: 0.75"/>
     <use xlink:href="#m3dc3be96c3" x="249.49202" y="264.650431" style="fill: #007bff; stroke: #ffffff; stroke-width: 0.75"/>
     <use xlink:href="#m3dc3be96c3" x="254.615987" y="263.413756" style="fill: #007bff; stroke: #ffffff; stroke-width: 0.75"/>
     <use xlink:href="#m3dc3be96c3" x="259.739954" y="263.339071" style="fill: #007bff; stroke: #ffffff; stroke-width: 0.75"/>
     <use xlink:href="#m3dc3be96c3" x="264.86392" y="266.345129" style="fill: #007bff; stroke: #ffffff; stroke-width: 0.75"/>
     <use xlink:href="#m3dc3be96c3" x="269.987887" y="253.860212" style="fill: #007bff; stroke: #ffffff; stroke-width: 0.75"/>
     <use xlink:href="#m3dc3be96c3" x="275.111854" y="266.237025" style="fill: #007bff; stroke: #ffffff; stroke-width: 0.75"/>
     <use xlink:href="#m3dc3be96c3" x="280.235821" y="257.117953" style="fill: #007bff; stroke: #ffffff; stroke-width: 0.75"/>
     <use xlink:href="#m3dc3be96c3" x="285.359788" y="262.201771" style="fill: #007bff; stroke: #ffffff; stroke-width: 0.75"/>
     <use xlink:href="#m3dc3be96c3" x="290.483755" y="260.679572" style="fill: #007bff; stroke: #ffffff; stroke-width: 0.75"/>
     <use xlink:href="#m3dc3be96c3" x="295.607722" y="263.260991" style="fill: #007bff; stroke: #ffffff; stroke-width: 0.75"/>
     <use xlink:href="#m3dc3be96c3" x="300.731689" y="263.046595" style="fill: #007bff; stroke: #ffffff; stroke-width: 0.75"/>
     <use xlink:href="#m3dc3be96c3" x="305.855656" y="260.517814" style="fill: #007bff; stroke: #ffffff; stroke-width: 0.75"/>
     <use xlink:href="#m3dc3be96c3" x="310.979623" y="266.881833" style="fill: #007bff; stroke: #ffffff; stroke-width: 0.75"/>
     <use xlink:href="#m3dc3be96c3" x="316.10359" y="268.209855" style="fill: #007bff; stroke: #ffffff; stroke-width: 0.75"/>
     <use xlink:href="#m3dc3be96c3" x="321.227557" y="261.77849" style="fill: #007bff; stroke: #ffffff; stroke-width: 0.75"/>
     <use xlink:href="#m3dc3be96c3" x="326.351524" y="267.988203" style="fill: #007bff; stroke: #ffffff; stroke-width: 0.75"/>
     <use xlink:href="#m3dc3be96c3" x="331.475491" y="257.48129" style="fill: #007bff; stroke: #ffffff; stroke-width: 0.75"/>
     <use xlink:href="#m3dc3be96c3" x="336.599458" y="262.293944" style="fill: #007bff; stroke: #ffffff; stroke-width: 0.75"/>
     <use xlink:href="#m3dc3be96c3" x="341.723425" y="271.313311" style="fill: #007bff; stroke: #ffffff; stroke-width: 0.75"/>
     <use xlink:href="#m3dc3be96c3" x="346.847392" y="261.814939" style="fill: #007bff; stroke: #ffffff; stroke-width: 0.75"/>
     <use xlink:href="#m3dc3be96c3" x="351.971358" y="267.431833" style="fill: #007bff; stroke: #ffffff; stroke-width: 0.75"/>
     <use xlink:href="#m3dc3be96c3" x="357.095325" y="263.674151" style="fill: #007bff; stroke: #ffffff; stroke-width: 0.75"/>
     <use xlink:href="#m3dc3be96c3" x="362.219292" y="265.192669" style="fill: #007bff; stroke: #ffffff; stroke-width: 0.75"/>
     <use xlink:href="#m3dc3be96c3" x="367.343259" y="272.04545" style="fill: #007bff; stroke: #ffffff; stroke-width: 0.75"/>
     <use xlink:href="#m3dc3be96c3" x="372.467226" y="266.157503" style="fill: #007bff; stroke: #ffffff; stroke-width: 0.75"/>
     <use xlink:href="#m3dc3be96c3" x="377.591193" y="264.775291" style="fill: #007bff; stroke: #ffffff; stroke-width: 0.75"/>
     <use xlink:href="#m3dc3be96c3" x="382.71516" y="265.549073" style="fill: #007bff; stroke: #ffffff; stroke-width: 0.75"/>
     <use xlink:href="#m3dc3be96c3" x="387.839127" y="272.334858" style="fill: #007bff; stroke: #ffffff; stroke-width: 0.75"/>
     <use xlink:href="#m3dc3be96c3" x="392.963094" y="264.478123" style="fill: #007bff; stroke: #ffffff; stroke-width: 0.75"/>
     <use xlink:href="#m3dc3be96c3" x="398.087061" y="268.745099" style="fill: #007bff; stroke: #ffffff; stroke-width: 0.75"/>
     <use xlink:href="#m3dc3be96c3" x="403.211028" y="268.678901" style="fill: #007bff; stroke: #ffffff; stroke-width: 0.75"/>
     <use xlink:href="#m3dc3be96c3" x="408.334995" y="267.443272" style="fill: #007bff; stroke: #ffffff; stroke-width: 0.75"/>
     <use xlink:href="#m3dc3be96c3" x="413.458962" y="261.812003" style="fill: #007bff; stroke: #ffffff; stroke-width: 0.75"/>
     <use xlink:href="#m3dc3be96c3" x="418.582929" y="267.955145" style="fill: #007bff; stroke: #ffffff; stroke-width: 0.75"/>
     <use xlink:href="#m3dc3be96c3" x="423.706896" y="229.256565" style="fill: #007bff; stroke: #ffffff; stroke-width: 0.75"/>
     <use xlink:href="#m3dc3be96c3" x="428.830863" y="264.890466" style="fill: #007bff; stroke: #ffffff; stroke-width: 0.75"/>
     <use xlink:href="#m3dc3be96c3" x="433.95483" y="263.289696" style="fill: #007bff; stroke: #ffffff; stroke-width: 0.75"/>
     <use xlink:href="#m3dc3be96c3" x="439.078796" y="264.120665" style="fill: #007bff; stroke: #ffffff; stroke-width: 0.75"/>
     <use xlink:href="#m3dc3be96c3" x="444.202763" y="273.063908" style="fill: #007bff; stroke: #ffffff; stroke-width: 0.75"/>
     <use xlink:href="#m3dc3be96c3" x="449.32673" y="269.610787" style="fill: #007bff; stroke: #ffffff; stroke-width: 0.75"/>
     <use xlink:href="#m3dc3be96c3" x="454.450697" y="268.918233" style="fill: #007bff; stroke: #ffffff; stroke-width: 0.75"/>
     <use xlink:href="#m3dc3be96c3" x="459.574664" y="268.088577" style="fill: #007bff; stroke: #ffffff; stroke-width: 0.75"/>
     <use xlink:href="#m3dc3be96c3" x="464.698631" y="269.333343" style="fill: #007bff; stroke: #ffffff; stroke-width: 0.75"/>
     <use xlink:href="#m3dc3be96c3" x="469.822598" y="262.468011" style="fill: #007bff; stroke: #ffffff; stroke-width: 0.75"/>
     <use xlink:href="#m3dc3be96c3" x="474.946565" y="267.615196" style="fill: #007bff; stroke: #ffffff; stroke-width: 0.75"/>
     <use xlink:href="#m3dc3be96c3" x="480.070532" y="256.721825" style="fill: #007bff; stroke: #ffffff; stroke-width: 0.75"/>
     <use xlink:href="#m3dc3be96c3" x="485.194499" y="266.902059" style="fill: #007bff; stroke: #ffffff; stroke-width: 0.75"/>
     <use xlink:href="#m3dc3be96c3" x="490.318466" y="266.961347" style="fill: #007bff; stroke: #ffffff; stroke-width: 0.75"/>
     <use xlink:href="#m3dc3be96c3" x="495.442433" y="241.504756" style="fill: #007bff; stroke: #ffffff; stroke-width: 0.75"/>
     <use xlink:href="#m3dc3be96c3" x="500.5664" y="269.529577" style="fill: #007bff; stroke: #ffffff; stroke-width: 0.75"/>
     <use xlink:href="#m3dc3be96c3" x="505.690367" y="266.899711" style="fill: #007bff; stroke: #ffffff; stroke-width: 0.75"/>
     <use xlink:href="#m3dc3be96c3" x="510.814334" y="263.79011" style="fill: #007bff; stroke: #ffffff; stroke-width: 0.75"/>
     <use xlink:href="#m3dc3be96c3" x="515.938301" y="260.625579" style="fill: #007bff; stroke: #ffffff; stroke-width: 0.75"/>
     <use xlink:href="#m3dc3be96c3" x="521.062268" y="272.211576" style="fill: #007bff; stroke: #ffffff; stroke-width: 0.75"/>
     <use xlink:href="#m3dc3be96c3" x="526.186235" y="271.066511" style="fill: #007bff; stroke: #ffffff; stroke-width: 0.75"/>
     <use xlink:href="#m3dc3be96c3" x="531.310201" y="259.600886" style="fill: #007bff; stroke: #ffffff; stroke-width: 0.75"/>
     <use xlink:href="#m3dc3be96c3" x="536.434168" y="272.073639" style="fill: #007bff; stroke: #ffffff; stroke-width: 0.75"/>
     <use xlink:href="#m3dc3be96c3" x="541.558135" y="267.740813" style="fill: #007bff; stroke: #ffffff; stroke-width: 0.75"/>
     <use xlink:href="#m3dc3be96c3" x="546.682102" y="269.899118" style="fill: #007bff; stroke: #ffffff; stroke-width: 0.75"/>
     <use xlink:href="#m3dc3be96c3" x="551.806069" y="268.2826" style="fill: #007bff; stroke: #ffffff; stroke-width: 0.75"/>
     <use xlink:href="#m3dc3be96c3" x="556.930036" y="272.28991" style="fill: #007bff; stroke: #ffffff; stroke-width: 0.75"/>
     <use xlink:href="#m3dc3be96c3" x="562.054003" y="273.137231" style="fill: #007bff; stroke: #ffffff; stroke-width: 0.75"/>
     <use xlink:href="#m3dc3be96c3" x="567.17797" y="269.153437" style="fill: #007bff; stroke: #ffffff; stroke-width: 0.75"/>
     <use xlink:href="#m3dc3be96c3" x="572.301937" y="251.393072" style="fill: #007bff; stroke: #ffffff; stroke-width: 0.75"/>
     <use xlink:href="#m3dc3be96c3" x="577.425904" y="269.423905" style="fill: #007bff; stroke: #ffffff; stroke-width: 0.75"/>
     <use xlink:href="#m3dc3be96c3" x="582.549871" y="244.84664" style="fill: #007bff; stroke: #ffffff; stroke-width: 0.75"/>
     <use xlink:href="#m3dc3be96c3" x="587.673838" y="268.915032" style="fill: #007bff; stroke: #ffffff; stroke-width: 0.75"/>
     <use xlink:href="#m3dc3be96c3" x="592.797805" y="265.822637" style="fill: #007bff; stroke: #ffffff; stroke-width: 0.75"/>
     <use xlink:href="#m3dc3be96c3" x="597.921772" y="265.655712" style="fill: #007bff; stroke: #ffffff; stroke-width: 0.75"/>
     <use xlink:href="#m3dc3be96c3" x="603.045739" y="268.412745" style="fill: #007bff; stroke: #ffffff; stroke-width: 0.75"/>
    </g>
   </g>
   <g id="line2d_41"/>
   <g id="line2d_42"/>
   <g id="patch_3">
    <path d="M 70.409375 356.78175 
L 70.409375 24.14175 
" style="fill: none; stroke: #000000; stroke-width: 0.8; stroke-linejoin: miter; stroke-linecap: square"/>
   </g>
   <g id="patch_4">
    <path d="M 628.409375 356.78175 
L 628.409375 24.14175 
" style="fill: none; stroke: #000000; stroke-width: 0.8; stroke-linejoin: miter; stroke-linecap: square"/>
   </g>
   <g id="patch_5">
    <path d="M 70.409375 356.78175 
L 628.409375 356.78175 
" style="fill: none; stroke: #000000; stroke-width: 0.8; stroke-linejoin: miter; stroke-linecap: square"/>
   </g>
   <g id="patch_6">
    <path d="M 70.409375 24.14175 
L 628.409375 24.14175 
" style="fill: none; stroke: #000000; stroke-width: 0.8; stroke-linejoin: miter; stroke-linecap: square"/>
   </g>
   <g id="text_22">
    <!-- Gesture Learning Curve  -->
    <g transform="translate(261.6695 18.14175) scale(0.144 -0.144)">
     <defs>
      <path id="DejaVuSans-47" d="M 3809 666 
L 3809 1919 
L 2778 1919 
L 2778 2438 
L 4434 2438 
L 4434 434 
Q 4069 175 3628 42 
Q 3188 -91 2688 -91 
Q 1594 -91 976 548 
Q 359 1188 359 2328 
Q 359 3472 976 4111 
Q 1594 4750 2688 4750 
Q 3144 4750 3555 4637 
Q 3966 4525 4313 4306 
L 4313 3634 
Q 3963 3931 3569 4081 
Q 3175 4231 2741 4231 
Q 1884 4231 1454 3753 
Q 1025 3275 1025 2328 
Q 1025 1384 1454 906 
Q 1884 428 2741 428 
Q 3075 428 3337 486 
Q 3600 544 3809 666 
z
" transform="scale(0.015625)"/>
      <path id="DejaVuSans-74" d="M 1172 4494 
L 1172 3500 
L 2356 3500 
L 2356 3053 
L 1172 3053 
L 1172 1153 
Q 1172 725 1289 603 
Q 1406 481 1766 481 
L 2356 481 
L 2356 0 
L 1766 0 
Q 1100 0 847 248 
Q 594 497 594 1153 
L 594 3053 
L 172 3053 
L 172 3500 
L 594 3500 
L 594 4494 
L 1172 4494 
z
" transform="scale(0.015625)"/>
      <path id="DejaVuSans-75" d="M 544 1381 
L 544 3500 
L 1119 3500 
L 1119 1403 
Q 1119 906 1312 657 
Q 1506 409 1894 409 
Q 2359 409 2629 706 
Q 2900 1003 2900 1516 
L 2900 3500 
L 3475 3500 
L 3475 0 
L 2900 0 
L 2900 538 
Q 2691 219 2414 64 
Q 2138 -91 1772 -91 
Q 1169 -91 856 284 
Q 544 659 544 1381 
z
M 1991 3584 
L 1991 3584 
z
" transform="scale(0.015625)"/>
      <path id="DejaVuSans-4c" d="M 628 4666 
L 1259 4666 
L 1259 531 
L 3531 531 
L 3531 0 
L 628 0 
L 628 4666 
z
" transform="scale(0.015625)"/>
      <path id="DejaVuSans-6e" d="M 3513 2113 
L 3513 0 
L 2938 0 
L 2938 2094 
Q 2938 2591 2744 2837 
Q 2550 3084 2163 3084 
Q 1697 3084 1428 2787 
Q 1159 2491 1159 1978 
L 1159 0 
L 581 0 
L 581 3500 
L 1159 3500 
L 1159 2956 
Q 1366 3272 1645 3428 
Q 1925 3584 2291 3584 
Q 2894 3584 3203 3211 
Q 3513 2838 3513 2113 
z
" transform="scale(0.015625)"/>
      <path id="DejaVuSans-67" d="M 2906 1791 
Q 2906 2416 2648 2759 
Q 2391 3103 1925 3103 
Q 1463 3103 1205 2759 
Q 947 2416 947 1791 
Q 947 1169 1205 825 
Q 1463 481 1925 481 
Q 2391 481 2648 825 
Q 2906 1169 2906 1791 
z
M 3481 434 
Q 3481 -459 3084 -895 
Q 2688 -1331 1869 -1331 
Q 1566 -1331 1297 -1286 
Q 1028 -1241 775 -1147 
L 775 -588 
Q 1028 -725 1275 -790 
Q 1522 -856 1778 -856 
Q 2344 -856 2625 -561 
Q 2906 -266 2906 331 
L 2906 616 
Q 2728 306 2450 153 
Q 2172 0 1784 0 
Q 1141 0 747 490 
Q 353 981 353 1791 
Q 353 2603 747 3093 
Q 1141 3584 1784 3584 
Q 2172 3584 2450 3431 
Q 2728 3278 2906 2969 
L 2906 3500 
L 3481 3500 
L 3481 434 
z
" transform="scale(0.015625)"/>
      <path id="DejaVuSans-43" d="M 4122 4306 
L 4122 3641 
Q 3803 3938 3442 4084 
Q 3081 4231 2675 4231 
Q 1875 4231 1450 3742 
Q 1025 3253 1025 2328 
Q 1025 1406 1450 917 
Q 1875 428 2675 428 
Q 3081 428 3442 575 
Q 3803 722 4122 1019 
L 4122 359 
Q 3791 134 3420 21 
Q 3050 -91 2638 -91 
Q 1578 -91 968 557 
Q 359 1206 359 2328 
Q 359 3453 968 4101 
Q 1578 4750 2638 4750 
Q 3056 4750 3426 4639 
Q 3797 4528 4122 4306 
z
" transform="scale(0.015625)"/>
      <path id="DejaVuSans-76" d="M 191 3500 
L 800 3500 
L 1894 563 
L 2988 3500 
L 3597 3500 
L 2284 0 
L 1503 0 
L 191 3500 
z
" transform="scale(0.015625)"/>
     </defs>
     <use xlink:href="#DejaVuSans-47"/>
     <use xlink:href="#DejaVuSans-65" transform="translate(77.490234 0)"/>
     <use xlink:href="#DejaVuSans-73" transform="translate(139.013672 0)"/>
     <use xlink:href="#DejaVuSans-74" transform="translate(191.113281 0)"/>
     <use xlink:href="#DejaVuSans-75" transform="translate(230.322266 0)"/>
     <use xlink:href="#DejaVuSans-72" transform="translate(293.701172 0)"/>
     <use xlink:href="#DejaVuSans-65" transform="translate(332.564453 0)"/>
     <use xlink:href="#DejaVuSans-20" transform="translate(394.087891 0)"/>
     <use xlink:href="#DejaVuSans-4c" transform="translate(425.875 0)"/>
     <use xlink:href="#DejaVuSans-65" transform="translate(479.837891 0)"/>
     <use xlink:href="#DejaVuSans-61" transform="translate(541.361328 0)"/>
     <use xlink:href="#DejaVuSans-72" transform="translate(602.640625 0)"/>
     <use xlink:href="#DejaVuSans-6e" transform="translate(642.003906 0)"/>
     <use xlink:href="#DejaVuSans-69" transform="translate(705.382812 0)"/>
     <use xlink:href="#DejaVuSans-6e" transform="translate(733.166016 0)"/>
     <use xlink:href="#DejaVuSans-67" transform="translate(796.544922 0)"/>
     <use xlink:href="#DejaVuSans-20" transform="translate(860.021484 0)"/>
     <use xlink:href="#DejaVuSans-43" transform="translate(891.808594 0)"/>
     <use xlink:href="#DejaVuSans-75" transform="translate(961.632812 0)"/>
     <use xlink:href="#DejaVuSans-72" transform="translate(1025.011719 0)"/>
     <use xlink:href="#DejaVuSans-76" transform="translate(1066.125 0)"/>
     <use xlink:href="#DejaVuSans-65" transform="translate(1125.304688 0)"/>
     <use xlink:href="#DejaVuSans-20" transform="translate(1186.828125 0)"/>
    </g>
   </g>
   <g id="legend_1">
    <g id="patch_7">
     <path d="M 522.588125 86.583 
L 620.009375 86.583 
Q 622.409375 86.583 622.409375 84.183 
L 622.409375 32.54175 
Q 622.409375 30.14175 620.009375 30.14175 
L 522.588125 30.14175 
Q 520.188125 30.14175 520.188125 32.54175 
L 520.188125 84.183 
Q 520.188125 86.583 522.588125 86.583 
z
" style="fill: #ffffff; opacity: 0.8; stroke: #cccccc; stroke-linejoin: miter"/>
    </g>
    <g id="text_23">
     <!-- Condition -->
     <g transform="translate(542.666562 44.059875) scale(0.12 -0.12)">
      <defs>
       <path id="DejaVuSans-6f" d="M 1959 3097 
Q 1497 3097 1228 2736 
Q 959 2375 959 1747 
Q 959 1119 1226 758 
Q 1494 397 1959 397 
Q 2419 397 2687 759 
Q 2956 1122 2956 1747 
Q 2956 2369 2687 2733 
Q 2419 3097 1959 3097 
z
M 1959 3584 
Q 2709 3584 3137 3096 
Q 3566 2609 3566 1747 
Q 3566 888 3137 398 
Q 2709 -91 1959 -91 
Q 1206 -91 779 398 
Q 353 888 353 1747 
Q 353 2609 779 3096 
Q 1206 3584 1959 3584 
z
" transform="scale(0.015625)"/>
       <path id="DejaVuSans-64" d="M 2906 2969 
L 2906 4863 
L 3481 4863 
L 3481 0 
L 2906 0 
L 2906 525 
Q 2725 213 2448 61 
Q 2172 -91 1784 -91 
Q 1150 -91 751 415 
Q 353 922 353 1747 
Q 353 2572 751 3078 
Q 1150 3584 1784 3584 
Q 2172 3584 2448 3432 
Q 2725 3281 2906 2969 
z
M 947 1747 
Q 947 1113 1208 752 
Q 1469 391 1925 391 
Q 2381 391 2643 752 
Q 2906 1113 2906 1747 
Q 2906 2381 2643 2742 
Q 2381 3103 1925 3103 
Q 1469 3103 1208 2742 
Q 947 2381 947 1747 
z
" transform="scale(0.015625)"/>
      </defs>
      <use xlink:href="#DejaVuSans-43"/>
      <use xlink:href="#DejaVuSans-6f" transform="translate(69.824219 0)"/>
      <use xlink:href="#DejaVuSans-6e" transform="translate(131.005859 0)"/>
      <use xlink:href="#DejaVuSans-64" transform="translate(194.384766 0)"/>
      <use xlink:href="#DejaVuSans-69" transform="translate(257.861328 0)"/>
      <use xlink:href="#DejaVuSans-74" transform="translate(285.644531 0)"/>
      <use xlink:href="#DejaVuSans-69" transform="translate(324.853516 0)"/>
      <use xlink:href="#DejaVuSans-6f" transform="translate(352.636719 0)"/>
      <use xlink:href="#DejaVuSans-6e" transform="translate(413.818359 0)"/>
     </g>
    </g>
    <g id="line2d_43">
     <path d="M 524.988125 57.473625 
L 536.988125 57.473625 
L 548.988125 57.473625 
" style="fill: none; stroke: #35dc67; stroke-width: 1.5; stroke-linecap: square"/>
     <g>
      <use xlink:href="#m83f6273bac" x="536.988125" y="57.473625" style="fill: #35dc67; stroke: #ffffff; stroke-width: 0.75"/>
     </g>
    </g>
    <g id="text_24">
     <!-- Proposed -->
     <g transform="translate(558.588125 61.673625) scale(0.12 -0.12)">
      <defs>
       <path id="DejaVuSans-50" d="M 1259 4147 
L 1259 2394 
L 2053 2394 
Q 2494 2394 2734 2622 
Q 2975 2850 2975 3272 
Q 2975 3691 2734 3919 
Q 2494 4147 2053 4147 
L 1259 4147 
z
M 628 4666 
L 2053 4666 
Q 2838 4666 3239 4311 
Q 3641 3956 3641 3272 
Q 3641 2581 3239 2228 
Q 2838 1875 2053 1875 
L 1259 1875 
L 1259 0 
L 628 0 
L 628 4666 
z
" transform="scale(0.015625)"/>
       <path id="DejaVuSans-70" d="M 1159 525 
L 1159 -1331 
L 581 -1331 
L 581 3500 
L 1159 3500 
L 1159 2969 
Q 1341 3281 1617 3432 
Q 1894 3584 2278 3584 
Q 2916 3584 3314 3078 
Q 3713 2572 3713 1747 
Q 3713 922 3314 415 
Q 2916 -91 2278 -91 
Q 1894 -91 1617 61 
Q 1341 213 1159 525 
z
M 3116 1747 
Q 3116 2381 2855 2742 
Q 2594 3103 2138 3103 
Q 1681 3103 1420 2742 
Q 1159 2381 1159 1747 
Q 1159 1113 1420 752 
Q 1681 391 2138 391 
Q 2594 391 2855 752 
Q 3116 1113 3116 1747 
z
" transform="scale(0.015625)"/>
      </defs>
      <use xlink:href="#DejaVuSans-50"/>
      <use xlink:href="#DejaVuSans-72" transform="translate(58.552734 0)"/>
      <use xlink:href="#DejaVuSans-6f" transform="translate(97.416016 0)"/>
      <use xlink:href="#DejaVuSans-70" transform="translate(158.597656 0)"/>
      <use xlink:href="#DejaVuSans-6f" transform="translate(222.074219 0)"/>
      <use xlink:href="#DejaVuSans-73" transform="translate(283.255859 0)"/>
      <use xlink:href="#DejaVuSans-65" transform="translate(335.355469 0)"/>
      <use xlink:href="#DejaVuSans-64" transform="translate(396.878906 0)"/>
     </g>
    </g>
    <g id="line2d_44">
     <path d="M 524.988125 75.087375 
L 536.988125 75.087375 
L 548.988125 75.087375 
" style="fill: none; stroke: #007bff; stroke-width: 1.5; stroke-linecap: square"/>
     <g>
      <use xlink:href="#m3dc3be96c3" x="536.988125" y="75.087375" style="fill: #007bff; stroke: #ffffff; stroke-width: 0.75"/>
     </g>
    </g>
    <g id="text_25">
     <!-- Controller -->
     <g transform="translate(558.588125 79.287375) scale(0.12 -0.12)">
      <use xlink:href="#DejaVuSans-43"/>
      <use xlink:href="#DejaVuSans-6f" transform="translate(69.824219 0)"/>
      <use xlink:href="#DejaVuSans-6e" transform="translate(131.005859 0)"/>
      <use xlink:href="#DejaVuSans-74" transform="translate(194.384766 0)"/>
      <use xlink:href="#DejaVuSans-72" transform="translate(233.59375 0)"/>
      <use xlink:href="#DejaVuSans-6f" transform="translate(272.457031 0)"/>
      <use xlink:href="#DejaVuSans-6c" transform="translate(333.638672 0)"/>
      <use xlink:href="#DejaVuSans-6c" transform="translate(361.421875 0)"/>
      <use xlink:href="#DejaVuSans-65" transform="translate(389.205078 0)"/>
      <use xlink:href="#DejaVuSans-72" transform="translate(450.728516 0)"/>
     </g>
    </g>
   </g>
  </g>
 </g>
 <defs>
  <clipPath id="pab252594a9">
   <rect x="70.409375" y="24.14175" width="558" height="332.64"/>
  </clipPath>
 </defs>
</svg>
