<?xml version="1.0" encoding="utf-8" standalone="no"?>
<!DOCTYPE svg PUBLIC "-//W3C//DTD SVG 1.1//EN"
  "http://www.w3.org/Graphics/SVG/1.1/DTD/svg11.dtd">
<svg xmlns:xlink="http://www.w3.org/1999/xlink" width="643.244375pt" height="398.20925pt" viewBox="0 0 643.244375 398.20925" xmlns="http://www.w3.org/2000/svg" version="1.1">
 <metadata>
  <rdf:RDF xmlns:dc="http://purl.org/dc/elements/1.1/" xmlns:cc="http://creativecommons.org/ns#" xmlns:rdf="http://www.w3.org/1999/02/22-rdf-syntax-ns#">
   <cc:Work>
    <dc:type rdf:resource="http://purl.org/dc/dcmitype/StillImage"/>
    <dc:date>2026-01-22T11:27:25.560086</dc:date>
    <dc:format>image/svg+xml</dc:format>
    <dc:creator>
     <cc:Agent>
      <dc:title>Matplotlib v3.10.8, https://matplotlib.org/</dc:title>
     </cc:Agent>
    </dc:creator>
   </cc:Work>
  </rdf:RDF>
 </metadata>
 <defs>
  <style type="text/css">*{stroke-linejoin: round; stroke-linecap: butt}</style>
 </defs>
 <g id="figure_1">
  <g id="patch_1">
   <path d="M 0 398.20925 
L 643.244375 398.20925 
L 643.244375 0 
L 0 0 
z
" style="fill: #ffffff"/>
  </g>
  <g id="axes_1">
   <g id="patch_2">
    <path d="M 78.044375 356.78175 
L 636.044375 356.78175 
L 636.044375 24.14175 
L 78.044375 24.14175 
z
" style="fill: #ffffff"/>
   </g>
   <g id="FillBetweenPolyCollection_1">
    <defs>
     <path id="ma9900df060" d="M 103.408011 -199.268548 
L 103.408011 -146.594344 
L 108.531978 -154.635482 
L 113.655945 -150.657377 
L 118.779912 -151.983952 
L 123.903879 -150.619311 
L 129.027846 -154.192441 
L 134.151813 -152.290564 
L 139.27578 -156.292215 
L 144.399747 -153.81314 
L 149.523714 -153.841919 
L 154.647681 -127.424905 
L 159.771648 -154.973175 
L 164.895615 -154.583038 
L 170.019582 -151.398954 
L 175.143549 -154.23499 
L 180.267515 -153.250229 
L 185.391482 -153.856705 
L 190.515449 -154.354644 
L 195.639416 -151.274013 
L 200.763383 -153.890938 
L 205.88735 -154.676464 
L 211.011317 -146.005219 
L 216.135284 -145.602585 
L 221.259251 -154.415659 
L 226.383218 -117.479426 
L 231.507185 -153.397791 
L 236.631152 -151.991088 
L 241.755119 -154.495415 
L 246.879086 -153.833443 
L 252.003053 -154.220765 
L 257.12702 -155.720849 
L 262.250987 -153.388522 
L 267.374954 -154.847418 
L 272.49892 -153.173447 
L 277.622887 -151.702831 
L 282.746854 -155.011901 
L 287.870821 -145.265355 
L 292.994788 -150.299455 
L 298.118755 -152.79373 
L 303.242722 -151.396176 
L 308.366689 -153.289294 
L 313.490656 -154.611689 
L 318.614623 -151.627209 
L 323.73859 -155.156065 
L 328.862557 -151.701223 
L 333.986524 -153.225774 
L 339.110491 -130.221878 
L 344.234458 -153.715322 
L 349.358425 -149.971582 
L 354.482392 -153.471679 
L 359.606358 -154.378904 
L 364.730325 -154.25078 
L 369.854292 -153.769787 
L 374.978259 -153.859604 
L 380.102226 -152.275818 
L 385.226193 -152.937416 
L 390.35016 -154.675685 
L 395.474127 -153.463964 
L 400.598094 -153.793558 
L 405.722061 -152.443691 
L 410.846028 -153.836785 
L 415.969995 -152.449712 
L 421.093962 -152.219308 
L 426.217929 -155.007273 
L 431.341896 -151.165523 
L 436.465863 -150.604491 
L 441.58983 -152.338995 
L 446.713796 -154.867972 
L 451.837763 -153.35725 
L 456.96173 -154.226353 
L 462.085697 -153.122272 
L 467.209664 -153.033595 
L 472.333631 -154.021407 
L 477.457598 -154.698956 
L 482.581565 -152.585685 
L 487.705532 -150.533703 
L 492.829499 -152.112186 
L 497.953466 -154.592819 
L 503.077433 -154.231912 
L 508.2014 -154.896285 
L 513.325367 -151.311897 
L 518.449334 -153.976581 
L 523.573301 -152.704473 
L 528.697268 -154.106517 
L 533.821235 -153.812626 
L 538.945201 -155.097927 
L 544.069168 -148.728288 
L 549.193135 -155.05094 
L 554.317102 -152.221859 
L 559.441069 -154.690987 
L 564.565036 -155.886186 
L 569.689003 -153.958281 
L 574.81297 -153.422434 
L 579.936937 -137.814124 
L 585.060904 -152.98766 
L 590.184871 -153.701911 
L 595.308838 -153.223577 
L 600.432805 -154.292689 
L 605.556772 -154.323893 
L 610.680739 -144.065799 
L 610.680739 -194.816932 
L 610.680739 -194.816932 
L 605.556772 -161.158369 
L 600.432805 -165.980913 
L 595.308838 -159.040349 
L 590.184871 -158.195855 
L 585.060904 -161.137657 
L 579.936937 -210.013443 
L 574.81297 -163.242698 
L 569.689003 -158.794082 
L 564.565036 -164.777878 
L 559.441069 -161.550823 
L 554.317102 -162.563406 
L 549.193135 -159.562214 
L 544.069168 -173.931928 
L 538.945201 -158.181516 
L 533.821235 -161.13908 
L 528.697268 -159.652163 
L 523.573301 -164.357199 
L 518.449334 -159.013122 
L 513.325367 -165.774268 
L 508.2014 -160.880431 
L 503.077433 -162.30265 
L 497.953466 -157.073743 
L 492.829499 -162.430097 
L 487.705532 -168.521675 
L 482.581565 -158.925424 
L 477.457598 -157.798817 
L 472.333631 -163.397892 
L 467.209664 -164.820572 
L 462.085697 -158.978964 
L 456.96173 -166.545461 
L 451.837763 -161.815985 
L 446.713796 -165.303789 
L 441.58983 -163.532575 
L 436.465863 -164.894392 
L 431.341896 -161.406652 
L 426.217929 -160.119411 
L 421.093962 -166.048103 
L 415.969995 -166.057388 
L 410.846028 -158.790615 
L 405.722061 -165.150835 
L 400.598094 -162.456134 
L 395.474127 -158.138774 
L 390.35016 -158.648413 
L 385.226193 -165.139634 
L 380.102226 -161.808829 
L 374.978259 -163.550691 
L 369.854292 -156.433199 
L 364.730325 -159.107987 
L 359.606358 -156.226854 
L 354.482392 -158.13757 
L 349.358425 -168.846074 
L 344.234458 -165.617621 
L 339.110491 -228.048671 
L 333.986524 -159.27371 
L 328.862557 -162.309647 
L 323.73859 -166.509117 
L 318.614623 -171.712781 
L 313.490656 -158.417234 
L 308.366689 -161.623937 
L 303.242722 -164.064542 
L 298.118755 -161.376801 
L 292.994788 -167.333048 
L 287.870821 -177.434737 
L 282.746854 -156.927922 
L 277.622887 -165.345418 
L 272.49892 -164.871941 
L 267.374954 -158.925958 
L 262.250987 -161.290511 
L 257.12702 -162.799582 
L 252.003053 -164.250582 
L 246.879086 -160.489817 
L 241.755119 -164.684508 
L 236.631152 -163.960415 
L 231.507185 -161.609342 
L 226.383218 -258.167124 
L 221.259251 -158.427051 
L 216.135284 -179.604377 
L 211.011317 -200.817923 
L 205.88735 -169.48976 
L 200.763383 -166.032038 
L 195.639416 -167.523962 
L 190.515449 -161.024724 
L 185.391482 -161.338833 
L 180.267515 -164.731087 
L 175.143549 -158.068455 
L 170.019582 -163.281057 
L 164.895615 -157.525972 
L 159.771648 -164.209977 
L 154.647681 -215.718898 
L 149.523714 -161.516036 
L 144.399747 -164.002239 
L 139.27578 -162.602903 
L 134.151813 -170.897711 
L 129.027846 -166.220216 
L 123.903879 -167.541288 
L 118.779912 -168.812705 
L 113.655945 -167.610925 
L 108.531978 -164.609883 
L 103.408011 -199.268548 
z
" style="stroke: #35dc67; stroke-opacity: 0.2"/>
    </defs>
    <g clip-path="url(#pf2fb34166b)">
     <use xlink:href="#ma9900df060" x="0" y="398.20925" style="fill: #35dc67; fill-opacity: 0.2; stroke: #35dc67; stroke-opacity: 0.2"/>
    </g>
   </g>
   <g id="FillBetweenPolyCollection_2">
    <defs>
     <path id="m4f2f4da33b" d="M 103.408011 -180.055183 
L 103.408011 -151.94212 
L 108.531978 -148.200982 
L 113.655945 -155.669847 
L 118.779912 -148.009055 
L 123.903879 -152.146598 
L 129.027846 -147.760041 
L 134.151813 -153.80813 
L 139.27578 -153.874373 
L 144.399747 -149.142787 
L 149.523714 -129.504779 
L 154.647681 -153.266917 
L 159.771648 -156.102218 
L 164.895615 -153.836971 
L 170.019582 -150.979291 
L 175.143549 -151.50817 
L 180.267515 -155.198003 
L 185.391482 -124.466603 
L 190.515449 -152.355392 
L 195.639416 -154.22318 
L 200.763383 -140.912528 
L 205.88735 -154.082738 
L 211.011317 -139.957652 
L 216.135284 -56.5475 
L 221.259251 -152.142549 
L 226.383218 -115.060217 
L 231.507185 -152.655892 
L 236.631152 -151.453814 
L 241.755119 -152.90648 
L 246.879086 -154.35284 
L 252.003053 -156.403885 
L 257.12702 -154.643931 
L 262.250987 -107.750009 
L 267.374954 -153.527913 
L 272.49892 -154.463485 
L 277.622887 -158.223292 
L 282.746854 -154.635623 
L 287.870821 -154.051338 
L 292.994788 -151.826559 
L 298.118755 -150.452182 
L 303.242722 -147.16046 
L 308.366689 -155.122496 
L 313.490656 -155.885844 
L 318.614623 -154.565376 
L 323.73859 -154.230978 
L 328.862557 -150.57383 
L 333.986524 -153.13245 
L 339.110491 -151.138357 
L 344.234458 -151.221221 
L 349.358425 -154.803431 
L 354.482392 -153.276542 
L 359.606358 -154.26212 
L 364.730325 -149.16396 
L 369.854292 -153.64798 
L 374.978259 -153.755129 
L 380.102226 -152.239977 
L 385.226193 -153.897845 
L 390.35016 -154.416224 
L 395.474127 -153.535459 
L 400.598094 -151.710186 
L 405.722061 -149.820072 
L 410.846028 -152.063813 
L 415.969995 -152.022194 
L 421.093962 -151.877179 
L 426.217929 -153.127542 
L 431.341896 -147.434678 
L 436.465863 -152.588577 
L 441.58983 -154.75439 
L 446.713796 -150.004829 
L 451.837763 -151.799746 
L 456.96173 -148.551722 
L 462.085697 -155.035932 
L 467.209664 -154.727279 
L 472.333631 -155.262895 
L 477.457598 -149.80399 
L 482.581565 -147.250499 
L 487.705532 -150.115604 
L 492.829499 -153.748989 
L 497.953466 -155.637216 
L 503.077433 -145.317242 
L 508.2014 -152.833404 
L 513.325367 -153.447491 
L 518.449334 -150.86572 
L 523.573301 -152.268902 
L 528.697268 -154.210265 
L 533.821235 -149.233294 
L 538.945201 -154.425566 
L 544.069168 -152.489038 
L 549.193135 -154.401353 
L 554.317102 -154.151543 
L 559.441069 -145.487365 
L 564.565036 -151.722271 
L 569.689003 -153.302773 
L 574.81297 -147.336964 
L 579.936937 -150.652888 
L 585.060904 -154.683349 
L 590.184871 -148.989549 
L 595.308838 -151.309621 
L 600.432805 -154.552496 
L 605.556772 -155.08922 
L 610.680739 -151.761745 
L 610.680739 -172.223904 
L 610.680739 -172.223904 
L 605.556772 -163.226733 
L 600.432805 -159.459476 
L 595.308838 -164.777588 
L 590.184871 -176.427483 
L 585.060904 -158.086925 
L 579.936937 -172.006789 
L 574.81297 -175.109655 
L 569.689003 -159.19942 
L 564.565036 -168.001506 
L 559.441069 -185.583109 
L 554.317102 -162.03919 
L 549.193135 -164.635191 
L 544.069168 -160.326118 
L 538.945201 -164.88148 
L 533.821235 -169.672826 
L 528.697268 -158.301798 
L 523.573301 -164.688036 
L 518.449334 -165.753931 
L 513.325367 -167.518444 
L 508.2014 -166.637671 
L 503.077433 -184.917793 
L 497.953466 -162.063753 
L 492.829499 -162.420769 
L 487.705532 -172.76293 
L 482.581565 -175.963685 
L 477.457598 -165.272289 
L 472.333631 -159.148906 
L 467.209664 -161.052721 
L 462.085697 -159.752618 
L 456.96173 -173.352968 
L 451.837763 -159.774359 
L 446.713796 -164.828483 
L 441.58983 -167.156607 
L 436.465863 -165.665199 
L 431.341896 -192.848808 
L 426.217929 -164.921654 
L 421.093962 -174.061543 
L 415.969995 -167.524806 
L 410.846028 -165.802799 
L 405.722061 -174.38724 
L 400.598094 -176.549119 
L 395.474127 -160.284692 
L 390.35016 -167.237283 
L 385.226193 -163.29075 
L 380.102226 -161.1112 
L 374.978259 -159.22184 
L 369.854292 -166.433666 
L 364.730325 -166.05813 
L 359.606358 -160.88204 
L 354.482392 -164.860751 
L 349.358425 -160.433552 
L 344.234458 -166.550806 
L 339.110491 -169.469377 
L 333.986524 -162.283947 
L 328.862557 -167.782715 
L 323.73859 -159.769017 
L 318.614623 -160.409401 
L 313.490656 -165.56688 
L 308.366689 -162.546096 
L 303.242722 -187.03809 
L 298.118755 -178.370978 
L 292.994788 -164.077791 
L 287.870821 -167.765393 
L 282.746854 -162.168338 
L 277.622887 -173.862348 
L 272.49892 -163.402144 
L 267.374954 -165.191787 
L 262.250987 -258.089843 
L 257.12702 -163.894732 
L 252.003053 -181.186372 
L 246.879086 -167.662732 
L 241.755119 -183.254302 
L 236.631152 -165.121847 
L 231.507185 -167.397195 
L 226.383218 -239.410925 
L 221.259251 -167.099045 
L 216.135284 -358.9475 
L 211.011317 -218.943468 
L 205.88735 -158.896297 
L 200.763383 -195.030309 
L 195.639416 -161.91028 
L 190.515449 -189.411995 
L 185.391482 -228.381312 
L 180.267515 -175.676722 
L 175.143549 -181.60895 
L 170.019582 -176.052496 
L 164.895615 -168.978624 
L 159.771648 -168.703315 
L 154.647681 -165.085581 
L 149.523714 -231.086165 
L 144.399747 -184.549026 
L 139.27578 -166.095774 
L 134.151813 -168.094738 
L 129.027846 -187.461801 
L 123.903879 -184.250437 
L 118.779912 -183.248687 
L 113.655945 -178.255746 
L 108.531978 -178.551489 
L 103.408011 -180.055183 
z
" style="stroke: #007bff; stroke-opacity: 0.2"/>
    </defs>
    <g clip-path="url(#pf2fb34166b)">
     <use xlink:href="#m4f2f4da33b" x="0" y="398.20925" style="fill: #007bff; fill-opacity: 0.2; stroke: #007bff; stroke-opacity: 0.2"/>
    </g>
   </g>
   <g id="matplotlib.axis_1">
    <g id="xtick_1">
     <g id="line2d_1">
      <path d="M 103.408011 356.78175 
L 103.408011 24.14175 
" clip-path="url(#pf2fb34166b)" style="fill: none; stroke-dasharray: 2.96,1.28; stroke-dashoffset: 0; stroke: #b0b0b0; stroke-opacity: 0.5; stroke-width: 0.8"/>
     </g>
     <g id="line2d_2">
      <defs>
       <path id="mc1ef435673" d="M 0 0 
L 0 3.5 
" style="stroke: #000000; stroke-width: 0.8"/>
      </defs>
      <g>
       <use xlink:href="#mc1ef435673" x="103.408011" y="356.78175" style="stroke: #000000; stroke-width: 0.8"/>
      </g>
     </g>
     <g id="text_1">
      <!-- 1 -->
      <g transform="translate(99.590511 372.899875) scale(0.12 -0.12)">
       <defs>
        <path id="DejaVuSans-31" d="M 794 531 
L 1825 531 
L 1825 4091 
L 703 3866 
L 703 4441 
L 1819 4666 
L 2450 4666 
L 2450 531 
L 3481 531 
L 3481 0 
L 794 0 
L 794 531 
z
" transform="scale(0.015625)"/>
       </defs>
       <use xlink:href="#DejaVuSans-31"/>
      </g>
     </g>
    </g>
    <g id="xtick_2">
     <g id="line2d_3">
      <path d="M 154.647681 356.78175 
L 154.647681 24.14175 
" clip-path="url(#pf2fb34166b)" style="fill: none; stroke-dasharray: 2.96,1.28; stroke-dashoffset: 0; stroke: #b0b0b0; stroke-opacity: 0.5; stroke-width: 0.8"/>
     </g>
     <g id="line2d_4">
      <g>
       <use xlink:href="#mc1ef435673" x="154.647681" y="356.78175" style="stroke: #000000; stroke-width: 0.8"/>
      </g>
     </g>
     <g id="text_2">
      <!-- 11 -->
      <g transform="translate(147.012681 372.899875) scale(0.12 -0.12)">
       <use xlink:href="#DejaVuSans-31"/>
       <use xlink:href="#DejaVuSans-31" transform="translate(63.623047 0)"/>
      </g>
     </g>
    </g>
    <g id="xtick_3">
     <g id="line2d_5">
      <path d="M 205.88735 356.78175 
L 205.88735 24.14175 
" clip-path="url(#pf2fb34166b)" style="fill: none; stroke-dasharray: 2.96,1.28; stroke-dashoffset: 0; stroke: #b0b0b0; stroke-opacity: 0.5; stroke-width: 0.8"/>
     </g>
     <g id="line2d_6">
      <g>
       <use xlink:href="#mc1ef435673" x="205.88735" y="356.78175" style="stroke: #000000; stroke-width: 0.8"/>
      </g>
     </g>
     <g id="text_3">
      <!-- 21 -->
      <g transform="translate(198.25235 372.899875) scale(0.12 -0.12)">
       <defs>
        <path id="DejaVuSans-32" d="M 1228 531 
L 3431 531 
L 3431 0 
L 469 0 
L 469 531 
Q 828 903 1448 1529 
Q 2069 2156 2228 2338 
Q 2531 2678 2651 2914 
Q 2772 3150 2772 3378 
Q 2772 3750 2511 3984 
Q 2250 4219 1831 4219 
Q 1534 4219 1204 4116 
Q 875 4013 500 3803 
L 500 4441 
Q 881 4594 1212 4672 
Q 1544 4750 1819 4750 
Q 2544 4750 2975 4387 
Q 3406 4025 3406 3419 
Q 3406 3131 3298 2873 
Q 3191 2616 2906 2266 
Q 2828 2175 2409 1742 
Q 1991 1309 1228 531 
z
" transform="scale(0.015625)"/>
       </defs>
       <use xlink:href="#DejaVuSans-32"/>
       <use xlink:href="#DejaVuSans-31" transform="translate(63.623047 0)"/>
      </g>
     </g>
    </g>
    <g id="xtick_4">
     <g id="line2d_7">
      <path d="M 257.12702 356.78175 
L 257.12702 24.14175 
" clip-path="url(#pf2fb34166b)" style="fill: none; stroke-dasharray: 2.96,1.28; stroke-dashoffset: 0; stroke: #b0b0b0; stroke-opacity: 0.5; stroke-width: 0.8"/>
     </g>
     <g id="line2d_8">
      <g>
       <use xlink:href="#mc1ef435673" x="257.12702" y="356.78175" style="stroke: #000000; stroke-width: 0.8"/>
      </g>
     </g>
     <g id="text_4">
      <!-- 31 -->
      <g transform="translate(249.49202 372.899875) scale(0.12 -0.12)">
       <defs>
        <path id="DejaVuSans-33" d="M 2597 2516 
Q 3050 2419 3304 2112 
Q 3559 1806 3559 1356 
Q 3559 666 3084 287 
Q 2609 -91 1734 -91 
Q 1441 -91 1130 -33 
Q 819 25 488 141 
L 488 750 
Q 750 597 1062 519 
Q 1375 441 1716 441 
Q 2309 441 2620 675 
Q 2931 909 2931 1356 
Q 2931 1769 2642 2001 
Q 2353 2234 1838 2234 
L 1294 2234 
L 1294 2753 
L 1863 2753 
Q 2328 2753 2575 2939 
Q 2822 3125 2822 3475 
Q 2822 3834 2567 4026 
Q 2313 4219 1838 4219 
Q 1578 4219 1281 4162 
Q 984 4106 628 3988 
L 628 4550 
Q 988 4650 1302 4700 
Q 1616 4750 1894 4750 
Q 2613 4750 3031 4423 
Q 3450 4097 3450 3541 
Q 3450 3153 3228 2886 
Q 3006 2619 2597 2516 
z
" transform="scale(0.015625)"/>
       </defs>
       <use xlink:href="#DejaVuSans-33"/>
       <use xlink:href="#DejaVuSans-31" transform="translate(63.623047 0)"/>
      </g>
     </g>
    </g>
    <g id="xtick_5">
     <g id="line2d_9">
      <path d="M 308.366689 356.78175 
L 308.366689 24.14175 
" clip-path="url(#pf2fb34166b)" style="fill: none; stroke-dasharray: 2.96,1.28; stroke-dashoffset: 0; stroke: #b0b0b0; stroke-opacity: 0.5; stroke-width: 0.8"/>
     </g>
     <g id="line2d_10">
      <g>
       <use xlink:href="#mc1ef435673" x="308.366689" y="356.78175" style="stroke: #000000; stroke-width: 0.8"/>
      </g>
     </g>
     <g id="text_5">
      <!-- 41 -->
      <g transform="translate(300.731689 372.899875) scale(0.12 -0.12)">
       <defs>
        <path id="DejaVuSans-34" d="M 2419 4116 
L 825 1625 
L 2419 1625 
L 2419 4116 
z
M 2253 4666 
L 3047 4666 
L 3047 1625 
L 3713 1625 
L 3713 1100 
L 3047 1100 
L 3047 0 
L 2419 0 
L 2419 1100 
L 313 1100 
L 313 1709 
L 2253 4666 
z
" transform="scale(0.015625)"/>
       </defs>
       <use xlink:href="#DejaVuSans-34"/>
       <use xlink:href="#DejaVuSans-31" transform="translate(63.623047 0)"/>
      </g>
     </g>
    </g>
    <g id="xtick_6">
     <g id="line2d_11">
      <path d="M 359.606358 356.78175 
L 359.606358 24.14175 
" clip-path="url(#pf2fb34166b)" style="fill: none; stroke-dasharray: 2.96,1.28; stroke-dashoffset: 0; stroke: #b0b0b0; stroke-opacity: 0.5; stroke-width: 0.8"/>
     </g>
     <g id="line2d_12">
      <g>
       <use xlink:href="#mc1ef435673" x="359.606358" y="356.78175" style="stroke: #000000; stroke-width: 0.8"/>
      </g>
     </g>
     <g id="text_6">
      <!-- 51 -->
      <g transform="translate(351.971358 372.899875) scale(0.12 -0.12)">
       <defs>
        <path id="DejaVuSans-35" d="M 691 4666 
L 3169 4666 
L 3169 4134 
L 1269 4134 
L 1269 2991 
Q 1406 3038 1543 3061 
Q 1681 3084 1819 3084 
Q 2600 3084 3056 2656 
Q 3513 2228 3513 1497 
Q 3513 744 3044 326 
Q 2575 -91 1722 -91 
Q 1428 -91 1123 -41 
Q 819 9 494 109 
L 494 744 
Q 775 591 1075 516 
Q 1375 441 1709 441 
Q 2250 441 2565 725 
Q 2881 1009 2881 1497 
Q 2881 1984 2565 2268 
Q 2250 2553 1709 2553 
Q 1456 2553 1204 2497 
Q 953 2441 691 2322 
L 691 4666 
z
" transform="scale(0.015625)"/>
       </defs>
       <use xlink:href="#DejaVuSans-35"/>
       <use xlink:href="#DejaVuSans-31" transform="translate(63.623047 0)"/>
      </g>
     </g>
    </g>
    <g id="xtick_7">
     <g id="line2d_13">
      <path d="M 410.846028 356.78175 
L 410.846028 24.14175 
" clip-path="url(#pf2fb34166b)" style="fill: none; stroke-dasharray: 2.96,1.28; stroke-dashoffset: 0; stroke: #b0b0b0; stroke-opacity: 0.5; stroke-width: 0.8"/>
     </g>
     <g id="line2d_14">
      <g>
       <use xlink:href="#mc1ef435673" x="410.846028" y="356.78175" style="stroke: #000000; stroke-width: 0.8"/>
      </g>
     </g>
     <g id="text_7">
      <!-- 61 -->
      <g transform="translate(403.211028 372.899875) scale(0.12 -0.12)">
       <defs>
        <path id="DejaVuSans-36" d="M 2113 2584 
Q 1688 2584 1439 2293 
Q 1191 2003 1191 1497 
Q 1191 994 1439 701 
Q 1688 409 2113 409 
Q 2538 409 2786 701 
Q 3034 994 3034 1497 
Q 3034 2003 2786 2293 
Q 2538 2584 2113 2584 
z
M 3366 4563 
L 3366 3988 
Q 3128 4100 2886 4159 
Q 2644 4219 2406 4219 
Q 1781 4219 1451 3797 
Q 1122 3375 1075 2522 
Q 1259 2794 1537 2939 
Q 1816 3084 2150 3084 
Q 2853 3084 3261 2657 
Q 3669 2231 3669 1497 
Q 3669 778 3244 343 
Q 2819 -91 2113 -91 
Q 1303 -91 875 529 
Q 447 1150 447 2328 
Q 447 3434 972 4092 
Q 1497 4750 2381 4750 
Q 2619 4750 2861 4703 
Q 3103 4656 3366 4563 
z
" transform="scale(0.015625)"/>
       </defs>
       <use xlink:href="#DejaVuSans-36"/>
       <use xlink:href="#DejaVuSans-31" transform="translate(63.623047 0)"/>
      </g>
     </g>
    </g>
    <g id="xtick_8">
     <g id="line2d_15">
      <path d="M 462.085697 356.78175 
L 462.085697 24.14175 
" clip-path="url(#pf2fb34166b)" style="fill: none; stroke-dasharray: 2.96,1.28; stroke-dashoffset: 0; stroke: #b0b0b0; stroke-opacity: 0.5; stroke-width: 0.8"/>
     </g>
     <g id="line2d_16">
      <g>
       <use xlink:href="#mc1ef435673" x="462.085697" y="356.78175" style="stroke: #000000; stroke-width: 0.8"/>
      </g>
     </g>
     <g id="text_8">
      <!-- 71 -->
      <g transform="translate(454.450697 372.899875) scale(0.12 -0.12)">
       <defs>
        <path id="DejaVuSans-37" d="M 525 4666 
L 3525 4666 
L 3525 4397 
L 1831 0 
L 1172 0 
L 2766 4134 
L 525 4134 
L 525 4666 
z
" transform="scale(0.015625)"/>
       </defs>
       <use xlink:href="#DejaVuSans-37"/>
       <use xlink:href="#DejaVuSans-31" transform="translate(63.623047 0)"/>
      </g>
     </g>
    </g>
    <g id="xtick_9">
     <g id="line2d_17">
      <path d="M 513.325367 356.78175 
L 513.325367 24.14175 
" clip-path="url(#pf2fb34166b)" style="fill: none; stroke-dasharray: 2.96,1.28; stroke-dashoffset: 0; stroke: #b0b0b0; stroke-opacity: 0.5; stroke-width: 0.8"/>
     </g>
     <g id="line2d_18">
      <g>
       <use xlink:href="#mc1ef435673" x="513.325367" y="356.78175" style="stroke: #000000; stroke-width: 0.8"/>
      </g>
     </g>
     <g id="text_9">
      <!-- 81 -->
      <g transform="translate(505.690367 372.899875) scale(0.12 -0.12)">
       <defs>
        <path id="DejaVuSans-38" d="M 2034 2216 
Q 1584 2216 1326 1975 
Q 1069 1734 1069 1313 
Q 1069 891 1326 650 
Q 1584 409 2034 409 
Q 2484 409 2743 651 
Q 3003 894 3003 1313 
Q 3003 1734 2745 1975 
Q 2488 2216 2034 2216 
z
M 1403 2484 
Q 997 2584 770 2862 
Q 544 3141 544 3541 
Q 544 4100 942 4425 
Q 1341 4750 2034 4750 
Q 2731 4750 3128 4425 
Q 3525 4100 3525 3541 
Q 3525 3141 3298 2862 
Q 3072 2584 2669 2484 
Q 3125 2378 3379 2068 
Q 3634 1759 3634 1313 
Q 3634 634 3220 271 
Q 2806 -91 2034 -91 
Q 1263 -91 848 271 
Q 434 634 434 1313 
Q 434 1759 690 2068 
Q 947 2378 1403 2484 
z
M 1172 3481 
Q 1172 3119 1398 2916 
Q 1625 2713 2034 2713 
Q 2441 2713 2670 2916 
Q 2900 3119 2900 3481 
Q 2900 3844 2670 4047 
Q 2441 4250 2034 4250 
Q 1625 4250 1398 4047 
Q 1172 3844 1172 3481 
z
" transform="scale(0.015625)"/>
       </defs>
       <use xlink:href="#DejaVuSans-38"/>
       <use xlink:href="#DejaVuSans-31" transform="translate(63.623047 0)"/>
      </g>
     </g>
    </g>
    <g id="xtick_10">
     <g id="line2d_19">
      <path d="M 564.565036 356.78175 
L 564.565036 24.14175 
" clip-path="url(#pf2fb34166b)" style="fill: none; stroke-dasharray: 2.96,1.28; stroke-dashoffset: 0; stroke: #b0b0b0; stroke-opacity: 0.5; stroke-width: 0.8"/>
     </g>
     <g id="line2d_20">
      <g>
       <use xlink:href="#mc1ef435673" x="564.565036" y="356.78175" style="stroke: #000000; stroke-width: 0.8"/>
      </g>
     </g>
     <g id="text_10">
      <!-- 91 -->
      <g transform="translate(556.930036 372.899875) scale(0.12 -0.12)">
       <defs>
        <path id="DejaVuSans-39" d="M 703 97 
L 703 672 
Q 941 559 1184 500 
Q 1428 441 1663 441 
Q 2288 441 2617 861 
Q 2947 1281 2994 2138 
Q 2813 1869 2534 1725 
Q 2256 1581 1919 1581 
Q 1219 1581 811 2004 
Q 403 2428 403 3163 
Q 403 3881 828 4315 
Q 1253 4750 1959 4750 
Q 2769 4750 3195 4129 
Q 3622 3509 3622 2328 
Q 3622 1225 3098 567 
Q 2575 -91 1691 -91 
Q 1453 -91 1209 -44 
Q 966 3 703 97 
z
M 1959 2075 
Q 2384 2075 2632 2365 
Q 2881 2656 2881 3163 
Q 2881 3666 2632 3958 
Q 2384 4250 1959 4250 
Q 1534 4250 1286 3958 
Q 1038 3666 1038 3163 
Q 1038 2656 1286 2365 
Q 1534 2075 1959 2075 
z
" transform="scale(0.015625)"/>
       </defs>
       <use xlink:href="#DejaVuSans-39"/>
       <use xlink:href="#DejaVuSans-31" transform="translate(63.623047 0)"/>
      </g>
     </g>
    </g>
    <g id="text_11">
     <!-- Trial ID -->
     <g transform="translate(336.490625 388.513625) scale(0.12 -0.12)">
      <defs>
       <path id="DejaVuSans-54" d="M -19 4666 
L 3928 4666 
L 3928 4134 
L 2272 4134 
L 2272 0 
L 1638 0 
L 1638 4134 
L -19 4134 
L -19 4666 
z
" transform="scale(0.015625)"/>
       <path id="DejaVuSans-72" d="M 2631 2963 
Q 2534 3019 2420 3045 
Q 2306 3072 2169 3072 
Q 1681 3072 1420 2755 
Q 1159 2438 1159 1844 
L 1159 0 
L 581 0 
L 581 3500 
L 1159 3500 
L 1159 2956 
Q 1341 3275 1631 3429 
Q 1922 3584 2338 3584 
Q 2397 3584 2469 3576 
Q 2541 3569 2628 3553 
L 2631 2963 
z
" transform="scale(0.015625)"/>
       <path id="DejaVuSans-69" d="M 603 3500 
L 1178 3500 
L 1178 0 
L 603 0 
L 603 3500 
z
M 603 4863 
L 1178 4863 
L 1178 4134 
L 603 4134 
L 603 4863 
z
" transform="scale(0.015625)"/>
       <path id="DejaVuSans-61" d="M 2194 1759 
Q 1497 1759 1228 1600 
Q 959 1441 959 1056 
Q 959 750 1161 570 
Q 1363 391 1709 391 
Q 2188 391 2477 730 
Q 2766 1069 2766 1631 
L 2766 1759 
L 2194 1759 
z
M 3341 1997 
L 3341 0 
L 2766 0 
L 2766 531 
Q 2569 213 2275 61 
Q 1981 -91 1556 -91 
Q 1019 -91 701 211 
Q 384 513 384 1019 
Q 384 1609 779 1909 
Q 1175 2209 1959 2209 
L 2766 2209 
L 2766 2266 
Q 2766 2663 2505 2880 
Q 2244 3097 1772 3097 
Q 1472 3097 1187 3025 
Q 903 2953 641 2809 
L 641 3341 
Q 956 3463 1253 3523 
Q 1550 3584 1831 3584 
Q 2591 3584 2966 3190 
Q 3341 2797 3341 1997 
z
" transform="scale(0.015625)"/>
       <path id="DejaVuSans-6c" d="M 603 4863 
L 1178 4863 
L 1178 0 
L 603 0 
L 603 4863 
z
" transform="scale(0.015625)"/>
       <path id="DejaVuSans-20" transform="scale(0.015625)"/>
       <path id="DejaVuSans-49" d="M 628 4666 
L 1259 4666 
L 1259 0 
L 628 0 
L 628 4666 
z
" transform="scale(0.015625)"/>
       <path id="DejaVuSans-44" d="M 1259 4147 
L 1259 519 
L 2022 519 
Q 2988 519 3436 956 
Q 3884 1394 3884 2338 
Q 3884 3275 3436 3711 
Q 2988 4147 2022 4147 
L 1259 4147 
z
M 628 4666 
L 1925 4666 
Q 3281 4666 3915 4102 
Q 4550 3538 4550 2338 
Q 4550 1131 3912 565 
Q 3275 0 1925 0 
L 628 0 
L 628 4666 
z
" transform="scale(0.015625)"/>
      </defs>
      <use xlink:href="#DejaVuSans-54"/>
      <use xlink:href="#DejaVuSans-72" transform="translate(46.333984 0)"/>
      <use xlink:href="#DejaVuSans-69" transform="translate(87.447266 0)"/>
      <use xlink:href="#DejaVuSans-61" transform="translate(115.230469 0)"/>
      <use xlink:href="#DejaVuSans-6c" transform="translate(176.509766 0)"/>
      <use xlink:href="#DejaVuSans-20" transform="translate(204.292969 0)"/>
      <use xlink:href="#DejaVuSans-49" transform="translate(236.080078 0)"/>
      <use xlink:href="#DejaVuSans-44" transform="translate(265.572266 0)"/>
     </g>
    </g>
   </g>
   <g id="matplotlib.axis_2">
    <g id="ytick_1">
     <g id="line2d_21">
      <path d="M 78.044375 329.865575 
L 636.044375 329.865575 
" clip-path="url(#pf2fb34166b)" style="fill: none; stroke-dasharray: 2.96,1.28; stroke-dashoffset: 0; stroke: #b0b0b0; stroke-opacity: 0.5; stroke-width: 0.8"/>
     </g>
     <g id="line2d_22">
      <defs>
       <path id="m00276704f7" d="M 0 0 
L -3.5 0 
" style="stroke: #000000; stroke-width: 0.8"/>
      </defs>
      <g>
       <use xlink:href="#m00276704f7" x="78.044375" y="329.865575" style="stroke: #000000; stroke-width: 0.8"/>
      </g>
     </g>
     <g id="text_12">
      <!-- −10000 -->
      <g transform="translate(22.81375 334.424638) scale(0.12 -0.12)">
       <defs>
        <path id="DejaVuSans-2212" d="M 678 2272 
L 4684 2272 
L 4684 1741 
L 678 1741 
L 678 2272 
z
" transform="scale(0.015625)"/>
        <path id="DejaVuSans-30" d="M 2034 4250 
Q 1547 4250 1301 3770 
Q 1056 3291 1056 2328 
Q 1056 1369 1301 889 
Q 1547 409 2034 409 
Q 2525 409 2770 889 
Q 3016 1369 3016 2328 
Q 3016 3291 2770 3770 
Q 2525 4250 2034 4250 
z
M 2034 4750 
Q 2819 4750 3233 4129 
Q 3647 3509 3647 2328 
Q 3647 1150 3233 529 
Q 2819 -91 2034 -91 
Q 1250 -91 836 529 
Q 422 1150 422 2328 
Q 422 3509 836 4129 
Q 1250 4750 2034 4750 
z
" transform="scale(0.015625)"/>
       </defs>
       <use xlink:href="#DejaVuSans-2212"/>
       <use xlink:href="#DejaVuSans-31" transform="translate(83.789062 0)"/>
       <use xlink:href="#DejaVuSans-30" transform="translate(147.412109 0)"/>
       <use xlink:href="#DejaVuSans-30" transform="translate(211.035156 0)"/>
       <use xlink:href="#DejaVuSans-30" transform="translate(274.658203 0)"/>
       <use xlink:href="#DejaVuSans-30" transform="translate(338.28125 0)"/>
      </g>
     </g>
    </g>
    <g id="ytick_2">
     <g id="line2d_23">
      <path d="M 78.044375 289.948546 
L 636.044375 289.948546 
" clip-path="url(#pf2fb34166b)" style="fill: none; stroke-dasharray: 2.96,1.28; stroke-dashoffset: 0; stroke: #b0b0b0; stroke-opacity: 0.5; stroke-width: 0.8"/>
     </g>
     <g id="line2d_24">
      <g>
       <use xlink:href="#m00276704f7" x="78.044375" y="289.948546" style="stroke: #000000; stroke-width: 0.8"/>
      </g>
     </g>
     <g id="text_13">
      <!-- −5000 -->
      <g transform="translate(30.44875 294.507609) scale(0.12 -0.12)">
       <use xlink:href="#DejaVuSans-2212"/>
       <use xlink:href="#DejaVuSans-35" transform="translate(83.789062 0)"/>
       <use xlink:href="#DejaVuSans-30" transform="translate(147.412109 0)"/>
       <use xlink:href="#DejaVuSans-30" transform="translate(211.035156 0)"/>
       <use xlink:href="#DejaVuSans-30" transform="translate(274.658203 0)"/>
      </g>
     </g>
    </g>
    <g id="ytick_3">
     <g id="line2d_25">
      <path d="M 78.044375 250.031518 
L 636.044375 250.031518 
" clip-path="url(#pf2fb34166b)" style="fill: none; stroke-dasharray: 2.96,1.28; stroke-dashoffset: 0; stroke: #b0b0b0; stroke-opacity: 0.5; stroke-width: 0.8"/>
     </g>
     <g id="line2d_26">
      <g>
       <use xlink:href="#m00276704f7" x="78.044375" y="250.031518" style="stroke: #000000; stroke-width: 0.8"/>
      </g>
     </g>
     <g id="text_14">
      <!-- 0 -->
      <g transform="translate(63.409375 254.59058) scale(0.12 -0.12)">
       <use xlink:href="#DejaVuSans-30"/>
      </g>
     </g>
    </g>
    <g id="ytick_4">
     <g id="line2d_27">
      <path d="M 78.044375 210.114489 
L 636.044375 210.114489 
" clip-path="url(#pf2fb34166b)" style="fill: none; stroke-dasharray: 2.96,1.28; stroke-dashoffset: 0; stroke: #b0b0b0; stroke-opacity: 0.5; stroke-width: 0.8"/>
     </g>
     <g id="line2d_28">
      <g>
       <use xlink:href="#m00276704f7" x="78.044375" y="210.114489" style="stroke: #000000; stroke-width: 0.8"/>
      </g>
     </g>
     <g id="text_15">
      <!-- 5000 -->
      <g transform="translate(40.504375 214.673552) scale(0.12 -0.12)">
       <use xlink:href="#DejaVuSans-35"/>
       <use xlink:href="#DejaVuSans-30" transform="translate(63.623047 0)"/>
       <use xlink:href="#DejaVuSans-30" transform="translate(127.246094 0)"/>
       <use xlink:href="#DejaVuSans-30" transform="translate(190.869141 0)"/>
      </g>
     </g>
    </g>
    <g id="ytick_5">
     <g id="line2d_29">
      <path d="M 78.044375 170.19746 
L 636.044375 170.19746 
" clip-path="url(#pf2fb34166b)" style="fill: none; stroke-dasharray: 2.96,1.28; stroke-dashoffset: 0; stroke: #b0b0b0; stroke-opacity: 0.5; stroke-width: 0.8"/>
     </g>
     <g id="line2d_30">
      <g>
       <use xlink:href="#m00276704f7" x="78.044375" y="170.19746" style="stroke: #000000; stroke-width: 0.8"/>
      </g>
     </g>
     <g id="text_16">
      <!-- 10000 -->
      <g transform="translate(32.869375 174.756523) scale(0.12 -0.12)">
       <use xlink:href="#DejaVuSans-31"/>
       <use xlink:href="#DejaVuSans-30" transform="translate(63.623047 0)"/>
       <use xlink:href="#DejaVuSans-30" transform="translate(127.246094 0)"/>
       <use xlink:href="#DejaVuSans-30" transform="translate(190.869141 0)"/>
       <use xlink:href="#DejaVuSans-30" transform="translate(254.492188 0)"/>
      </g>
     </g>
    </g>
    <g id="ytick_6">
     <g id="line2d_31">
      <path d="M 78.044375 130.280432 
L 636.044375 130.280432 
" clip-path="url(#pf2fb34166b)" style="fill: none; stroke-dasharray: 2.96,1.28; stroke-dashoffset: 0; stroke: #b0b0b0; stroke-opacity: 0.5; stroke-width: 0.8"/>
     </g>
     <g id="line2d_32">
      <g>
       <use xlink:href="#m00276704f7" x="78.044375" y="130.280432" style="stroke: #000000; stroke-width: 0.8"/>
      </g>
     </g>
     <g id="text_17">
      <!-- 15000 -->
      <g transform="translate(32.869375 134.839494) scale(0.12 -0.12)">
       <use xlink:href="#DejaVuSans-31"/>
       <use xlink:href="#DejaVuSans-35" transform="translate(63.623047 0)"/>
       <use xlink:href="#DejaVuSans-30" transform="translate(127.246094 0)"/>
       <use xlink:href="#DejaVuSans-30" transform="translate(190.869141 0)"/>
       <use xlink:href="#DejaVuSans-30" transform="translate(254.492188 0)"/>
      </g>
     </g>
    </g>
    <g id="ytick_7">
     <g id="line2d_33">
      <path d="M 78.044375 90.363403 
L 636.044375 90.363403 
" clip-path="url(#pf2fb34166b)" style="fill: none; stroke-dasharray: 2.96,1.28; stroke-dashoffset: 0; stroke: #b0b0b0; stroke-opacity: 0.5; stroke-width: 0.8"/>
     </g>
     <g id="line2d_34">
      <g>
       <use xlink:href="#m00276704f7" x="78.044375" y="90.363403" style="stroke: #000000; stroke-width: 0.8"/>
      </g>
     </g>
     <g id="text_18">
      <!-- 20000 -->
      <g transform="translate(32.869375 94.922466) scale(0.12 -0.12)">
       <use xlink:href="#DejaVuSans-32"/>
       <use xlink:href="#DejaVuSans-30" transform="translate(63.623047 0)"/>
       <use xlink:href="#DejaVuSans-30" transform="translate(127.246094 0)"/>
       <use xlink:href="#DejaVuSans-30" transform="translate(190.869141 0)"/>
       <use xlink:href="#DejaVuSans-30" transform="translate(254.492188 0)"/>
      </g>
     </g>
    </g>
    <g id="ytick_8">
     <g id="line2d_35">
      <path d="M 78.044375 50.446375 
L 636.044375 50.446375 
" clip-path="url(#pf2fb34166b)" style="fill: none; stroke-dasharray: 2.96,1.28; stroke-dashoffset: 0; stroke: #b0b0b0; stroke-opacity: 0.5; stroke-width: 0.8"/>
     </g>
     <g id="line2d_36">
      <g>
       <use xlink:href="#m00276704f7" x="78.044375" y="50.446375" style="stroke: #000000; stroke-width: 0.8"/>
      </g>
     </g>
     <g id="text_19">
      <!-- 25000 -->
      <g transform="translate(32.869375 55.005437) scale(0.12 -0.12)">
       <use xlink:href="#DejaVuSans-32"/>
       <use xlink:href="#DejaVuSans-35" transform="translate(63.623047 0)"/>
       <use xlink:href="#DejaVuSans-30" transform="translate(127.246094 0)"/>
       <use xlink:href="#DejaVuSans-30" transform="translate(190.869141 0)"/>
       <use xlink:href="#DejaVuSans-30" transform="translate(254.492188 0)"/>
      </g>
     </g>
    </g>
    <g id="text_20">
     <!-- Time (ms) -->
     <g transform="translate(16.318125 220.700812) rotate(-90) scale(0.12 -0.12)">
      <defs>
       <path id="DejaVuSans-6d" d="M 3328 2828 
Q 3544 3216 3844 3400 
Q 4144 3584 4550 3584 
Q 5097 3584 5394 3201 
Q 5691 2819 5691 2113 
L 5691 0 
L 5113 0 
L 5113 2094 
Q 5113 2597 4934 2840 
Q 4756 3084 4391 3084 
Q 3944 3084 3684 2787 
Q 3425 2491 3425 1978 
L 3425 0 
L 2847 0 
L 2847 2094 
Q 2847 2600 2669 2842 
Q 2491 3084 2119 3084 
Q 1678 3084 1418 2786 
Q 1159 2488 1159 1978 
L 1159 0 
L 581 0 
L 581 3500 
L 1159 3500 
L 1159 2956 
Q 1356 3278 1631 3431 
Q 1906 3584 2284 3584 
Q 2666 3584 2933 3390 
Q 3200 3197 3328 2828 
z
" transform="scale(0.015625)"/>
       <path id="DejaVuSans-65" d="M 3597 1894 
L 3597 1613 
L 953 1613 
Q 991 1019 1311 708 
Q 1631 397 2203 397 
Q 2534 397 2845 478 
Q 3156 559 3463 722 
L 3463 178 
Q 3153 47 2828 -22 
Q 2503 -91 2169 -91 
Q 1331 -91 842 396 
Q 353 884 353 1716 
Q 353 2575 817 3079 
Q 1281 3584 2069 3584 
Q 2775 3584 3186 3129 
Q 3597 2675 3597 1894 
z
M 3022 2063 
Q 3016 2534 2758 2815 
Q 2500 3097 2075 3097 
Q 1594 3097 1305 2825 
Q 1016 2553 972 2059 
L 3022 2063 
z
" transform="scale(0.015625)"/>
       <path id="DejaVuSans-28" d="M 1984 4856 
Q 1566 4138 1362 3434 
Q 1159 2731 1159 2009 
Q 1159 1288 1364 580 
Q 1569 -128 1984 -844 
L 1484 -844 
Q 1016 -109 783 600 
Q 550 1309 550 2009 
Q 550 2706 781 3412 
Q 1013 4119 1484 4856 
L 1984 4856 
z
" transform="scale(0.015625)"/>
       <path id="DejaVuSans-73" d="M 2834 3397 
L 2834 2853 
Q 2591 2978 2328 3040 
Q 2066 3103 1784 3103 
Q 1356 3103 1142 2972 
Q 928 2841 928 2578 
Q 928 2378 1081 2264 
Q 1234 2150 1697 2047 
L 1894 2003 
Q 2506 1872 2764 1633 
Q 3022 1394 3022 966 
Q 3022 478 2636 193 
Q 2250 -91 1575 -91 
Q 1294 -91 989 -36 
Q 684 19 347 128 
L 347 722 
Q 666 556 975 473 
Q 1284 391 1588 391 
Q 1994 391 2212 530 
Q 2431 669 2431 922 
Q 2431 1156 2273 1281 
Q 2116 1406 1581 1522 
L 1381 1569 
Q 847 1681 609 1914 
Q 372 2147 372 2553 
Q 372 3047 722 3315 
Q 1072 3584 1716 3584 
Q 2034 3584 2315 3537 
Q 2597 3491 2834 3397 
z
" transform="scale(0.015625)"/>
       <path id="DejaVuSans-29" d="M 513 4856 
L 1013 4856 
Q 1481 4119 1714 3412 
Q 1947 2706 1947 2009 
Q 1947 1309 1714 600 
Q 1481 -109 1013 -844 
L 513 -844 
Q 928 -128 1133 580 
Q 1338 1288 1338 2009 
Q 1338 2731 1133 3434 
Q 928 4138 513 4856 
z
" transform="scale(0.015625)"/>
      </defs>
      <use xlink:href="#DejaVuSans-54"/>
      <use xlink:href="#DejaVuSans-69" transform="translate(57.958984 0)"/>
      <use xlink:href="#DejaVuSans-6d" transform="translate(85.742188 0)"/>
      <use xlink:href="#DejaVuSans-65" transform="translate(183.154297 0)"/>
      <use xlink:href="#DejaVuSans-20" transform="translate(244.677734 0)"/>
      <use xlink:href="#DejaVuSans-28" transform="translate(276.464844 0)"/>
      <use xlink:href="#DejaVuSans-6d" transform="translate(315.478516 0)"/>
      <use xlink:href="#DejaVuSans-73" transform="translate(412.890625 0)"/>
      <use xlink:href="#DejaVuSans-29" transform="translate(464.990234 0)"/>
     </g>
    </g>
   </g>
   <g id="line2d_37">
    <path d="M 103.408011 225.277804 
L 108.531978 238.586567 
L 113.655945 239.075099 
L 118.779912 237.810921 
L 123.903879 239.128951 
L 129.027846 238.002921 
L 134.151813 236.615113 
L 139.27578 238.761691 
L 144.399747 239.30156 
L 149.523714 240.530273 
L 154.647681 226.637348 
L 159.771648 238.617674 
L 164.895615 242.154745 
L 170.019582 240.869244 
L 175.143549 242.057528 
L 180.267515 239.218592 
L 185.391482 240.611481 
L 190.515449 240.519566 
L 195.639416 238.810262 
L 200.763383 238.247762 
L 205.88735 236.126138 
L 211.011317 224.797679 
L 216.135284 235.605769 
L 221.259251 241.787895 
L 226.383218 210.385975 
L 231.507185 240.705684 
L 236.631152 240.233498 
L 241.755119 238.619288 
L 246.879086 241.04762 
L 252.003053 238.973576 
L 257.12702 238.949035 
L 262.250987 240.869734 
L 267.374954 241.322562 
L 272.49892 239.186556 
L 277.622887 239.685125 
L 282.746854 242.239339 
L 287.870821 236.859204 
L 292.994788 239.392999 
L 298.118755 241.123984 
L 303.242722 240.478891 
L 308.366689 240.752634 
L 313.490656 241.694789 
L 318.614623 236.539255 
L 323.73859 237.376659 
L 328.862557 241.203815 
L 333.986524 241.959508 
L 339.110491 219.073975 
L 344.234458 238.542778 
L 349.358425 238.800422 
L 354.482392 242.404625 
L 359.606358 242.906371 
L 364.730325 241.529866 
L 369.854292 243.107757 
L 374.978259 239.504103 
L 380.102226 241.166927 
L 385.226193 239.170725 
L 390.35016 241.547201 
L 395.474127 242.407881 
L 400.598094 240.084404 
L 405.722061 239.411987 
L 410.846028 241.89555 
L 415.969995 238.9557 
L 421.093962 239.075545 
L 426.217929 240.645908 
L 431.341896 241.923162 
L 436.465863 240.459808 
L 441.58983 240.273465 
L 446.713796 238.12337 
L 451.837763 240.622633 
L 456.96173 237.823343 
L 462.085697 242.158632 
L 467.209664 239.282166 
L 472.333631 239.499601 
L 477.457598 241.960363 
L 482.581565 242.453695 
L 487.705532 238.681561 
L 492.829499 240.938108 
L 497.953466 242.375969 
L 503.077433 239.941969 
L 508.2014 240.320892 
L 513.325367 239.666168 
L 518.449334 241.714399 
L 523.573301 239.678414 
L 528.697268 241.32991 
L 533.821235 240.733397 
L 538.945201 241.569529 
L 544.069168 236.879142 
L 549.193135 240.902673 
L 554.317102 240.816617 
L 559.441069 240.088345 
L 564.565036 237.877218 
L 569.689003 241.833069 
L 574.81297 239.876684 
L 579.936937 224.295467 
L 585.060904 241.146591 
L 590.184871 242.260367 
L 595.308838 242.077287 
L 600.432805 238.072449 
L 605.556772 240.468119 
L 610.680739 228.767885 
" clip-path="url(#pf2fb34166b)" style="fill: none; stroke: #35dc67; stroke-width: 1.5; stroke-linecap: square"/>
    <defs>
     <path id="m8564a67940" d="M 0 3 
C 0.795609 3 1.55874 2.683901 2.12132 2.12132 
C 2.683901 1.55874 3 0.795609 3 0 
C 3 -0.795609 2.683901 -1.55874 2.12132 -2.12132 
C 1.55874 -2.683901 0.795609 -3 0 -3 
C -0.795609 -3 -1.55874 -2.683901 -2.12132 -2.12132 
C -2.683901 -1.55874 -3 -0.795609 -3 0 
C -3 0.795609 -2.683901 1.55874 -2.12132 2.12132 
C -1.55874 2.683901 -0.795609 3 0 3 
z
" style="stroke: #ffffff; stroke-width: 0.75"/>
    </defs>
    <g clip-path="url(#pf2fb34166b)">
     <use xlink:href="#m8564a67940" x="103.408011" y="225.277804" style="fill: #35dc67; stroke: #ffffff; stroke-width: 0.75"/>
     <use xlink:href="#m8564a67940" x="108.531978" y="238.586567" style="fill: #35dc67; stroke: #ffffff; stroke-width: 0.75"/>
     <use xlink:href="#m8564a67940" x="113.655945" y="239.075099" style="fill: #35dc67; stroke: #ffffff; stroke-width: 0.75"/>
     <use xlink:href="#m8564a67940" x="118.779912" y="237.810921" style="fill: #35dc67; stroke: #ffffff; stroke-width: 0.75"/>
     <use xlink:href="#m8564a67940" x="123.903879" y="239.128951" style="fill: #35dc67; stroke: #ffffff; stroke-width: 0.75"/>
     <use xlink:href="#m8564a67940" x="129.027846" y="238.002921" style="fill: #35dc67; stroke: #ffffff; stroke-width: 0.75"/>
     <use xlink:href="#m8564a67940" x="134.151813" y="236.615113" style="fill: #35dc67; stroke: #ffffff; stroke-width: 0.75"/>
     <use xlink:href="#m8564a67940" x="139.27578" y="238.761691" style="fill: #35dc67; stroke: #ffffff; stroke-width: 0.75"/>
     <use xlink:href="#m8564a67940" x="144.399747" y="239.30156" style="fill: #35dc67; stroke: #ffffff; stroke-width: 0.75"/>
     <use xlink:href="#m8564a67940" x="149.523714" y="240.530273" style="fill: #35dc67; stroke: #ffffff; stroke-width: 0.75"/>
     <use xlink:href="#m8564a67940" x="154.647681" y="226.637348" style="fill: #35dc67; stroke: #ffffff; stroke-width: 0.75"/>
     <use xlink:href="#m8564a67940" x="159.771648" y="238.617674" style="fill: #35dc67; stroke: #ffffff; stroke-width: 0.75"/>
     <use xlink:href="#m8564a67940" x="164.895615" y="242.154745" style="fill: #35dc67; stroke: #ffffff; stroke-width: 0.75"/>
     <use xlink:href="#m8564a67940" x="170.019582" y="240.869244" style="fill: #35dc67; stroke: #ffffff; stroke-width: 0.75"/>
     <use xlink:href="#m8564a67940" x="175.143549" y="242.057528" style="fill: #35dc67; stroke: #ffffff; stroke-width: 0.75"/>
     <use xlink:href="#m8564a67940" x="180.267515" y="239.218592" style="fill: #35dc67; stroke: #ffffff; stroke-width: 0.75"/>
     <use xlink:href="#m8564a67940" x="185.391482" y="240.611481" style="fill: #35dc67; stroke: #ffffff; stroke-width: 0.75"/>
     <use xlink:href="#m8564a67940" x="190.515449" y="240.519566" style="fill: #35dc67; stroke: #ffffff; stroke-width: 0.75"/>
     <use xlink:href="#m8564a67940" x="195.639416" y="238.810262" style="fill: #35dc67; stroke: #ffffff; stroke-width: 0.75"/>
     <use xlink:href="#m8564a67940" x="200.763383" y="238.247762" style="fill: #35dc67; stroke: #ffffff; stroke-width: 0.75"/>
     <use xlink:href="#m8564a67940" x="205.88735" y="236.126138" style="fill: #35dc67; stroke: #ffffff; stroke-width: 0.75"/>
     <use xlink:href="#m8564a67940" x="211.011317" y="224.797679" style="fill: #35dc67; stroke: #ffffff; stroke-width: 0.75"/>
     <use xlink:href="#m8564a67940" x="216.135284" y="235.605769" style="fill: #35dc67; stroke: #ffffff; stroke-width: 0.75"/>
     <use xlink:href="#m8564a67940" x="221.259251" y="241.787895" style="fill: #35dc67; stroke: #ffffff; stroke-width: 0.75"/>
     <use xlink:href="#m8564a67940" x="226.383218" y="210.385975" style="fill: #35dc67; stroke: #ffffff; stroke-width: 0.75"/>
     <use xlink:href="#m8564a67940" x="231.507185" y="240.705684" style="fill: #35dc67; stroke: #ffffff; stroke-width: 0.75"/>
     <use xlink:href="#m8564a67940" x="236.631152" y="240.233498" style="fill: #35dc67; stroke: #ffffff; stroke-width: 0.75"/>
     <use xlink:href="#m8564a67940" x="241.755119" y="238.619288" style="fill: #35dc67; stroke: #ffffff; stroke-width: 0.75"/>
     <use xlink:href="#m8564a67940" x="246.879086" y="241.04762" style="fill: #35dc67; stroke: #ffffff; stroke-width: 0.75"/>
     <use xlink:href="#m8564a67940" x="252.003053" y="238.973576" style="fill: #35dc67; stroke: #ffffff; stroke-width: 0.75"/>
     <use xlink:href="#m8564a67940" x="257.12702" y="238.949035" style="fill: #35dc67; stroke: #ffffff; stroke-width: 0.75"/>
     <use xlink:href="#m8564a67940" x="262.250987" y="240.869734" style="fill: #35dc67; stroke: #ffffff; stroke-width: 0.75"/>
     <use xlink:href="#m8564a67940" x="267.374954" y="241.322562" style="fill: #35dc67; stroke: #ffffff; stroke-width: 0.75"/>
     <use xlink:href="#m8564a67940" x="272.49892" y="239.186556" style="fill: #35dc67; stroke: #ffffff; stroke-width: 0.75"/>
     <use xlink:href="#m8564a67940" x="277.622887" y="239.685125" style="fill: #35dc67; stroke: #ffffff; stroke-width: 0.75"/>
     <use xlink:href="#m8564a67940" x="282.746854" y="242.239339" style="fill: #35dc67; stroke: #ffffff; stroke-width: 0.75"/>
     <use xlink:href="#m8564a67940" x="287.870821" y="236.859204" style="fill: #35dc67; stroke: #ffffff; stroke-width: 0.75"/>
     <use xlink:href="#m8564a67940" x="292.994788" y="239.392999" style="fill: #35dc67; stroke: #ffffff; stroke-width: 0.75"/>
     <use xlink:href="#m8564a67940" x="298.118755" y="241.123984" style="fill: #35dc67; stroke: #ffffff; stroke-width: 0.75"/>
     <use xlink:href="#m8564a67940" x="303.242722" y="240.478891" style="fill: #35dc67; stroke: #ffffff; stroke-width: 0.75"/>
     <use xlink:href="#m8564a67940" x="308.366689" y="240.752634" style="fill: #35dc67; stroke: #ffffff; stroke-width: 0.75"/>
     <use xlink:href="#m8564a67940" x="313.490656" y="241.694789" style="fill: #35dc67; stroke: #ffffff; stroke-width: 0.75"/>
     <use xlink:href="#m8564a67940" x="318.614623" y="236.539255" style="fill: #35dc67; stroke: #ffffff; stroke-width: 0.75"/>
     <use xlink:href="#m8564a67940" x="323.73859" y="237.376659" style="fill: #35dc67; stroke: #ffffff; stroke-width: 0.75"/>
     <use xlink:href="#m8564a67940" x="328.862557" y="241.203815" style="fill: #35dc67; stroke: #ffffff; stroke-width: 0.75"/>
     <use xlink:href="#m8564a67940" x="333.986524" y="241.959508" style="fill: #35dc67; stroke: #ffffff; stroke-width: 0.75"/>
     <use xlink:href="#m8564a67940" x="339.110491" y="219.073975" style="fill: #35dc67; stroke: #ffffff; stroke-width: 0.75"/>
     <use xlink:href="#m8564a67940" x="344.234458" y="238.542778" style="fill: #35dc67; stroke: #ffffff; stroke-width: 0.75"/>
     <use xlink:href="#m8564a67940" x="349.358425" y="238.800422" style="fill: #35dc67; stroke: #ffffff; stroke-width: 0.75"/>
     <use xlink:href="#m8564a67940" x="354.482392" y="242.404625" style="fill: #35dc67; stroke: #ffffff; stroke-width: 0.75"/>
     <use xlink:href="#m8564a67940" x="359.606358" y="242.906371" style="fill: #35dc67; stroke: #ffffff; stroke-width: 0.75"/>
     <use xlink:href="#m8564a67940" x="364.730325" y="241.529866" style="fill: #35dc67; stroke: #ffffff; stroke-width: 0.75"/>
     <use xlink:href="#m8564a67940" x="369.854292" y="243.107757" style="fill: #35dc67; stroke: #ffffff; stroke-width: 0.75"/>
     <use xlink:href="#m8564a67940" x="374.978259" y="239.504103" style="fill: #35dc67; stroke: #ffffff; stroke-width: 0.75"/>
     <use xlink:href="#m8564a67940" x="380.102226" y="241.166927" style="fill: #35dc67; stroke: #ffffff; stroke-width: 0.75"/>
     <use xlink:href="#m8564a67940" x="385.226193" y="239.170725" style="fill: #35dc67; stroke: #ffffff; stroke-width: 0.75"/>
     <use xlink:href="#m8564a67940" x="390.35016" y="241.547201" style="fill: #35dc67; stroke: #ffffff; stroke-width: 0.75"/>
     <use xlink:href="#m8564a67940" x="395.474127" y="242.407881" style="fill: #35dc67; stroke: #ffffff; stroke-width: 0.75"/>
     <use xlink:href="#m8564a67940" x="400.598094" y="240.084404" style="fill: #35dc67; stroke: #ffffff; stroke-width: 0.75"/>
     <use xlink:href="#m8564a67940" x="405.722061" y="239.411987" style="fill: #35dc67; stroke: #ffffff; stroke-width: 0.75"/>
     <use xlink:href="#m8564a67940" x="410.846028" y="241.89555" style="fill: #35dc67; stroke: #ffffff; stroke-width: 0.75"/>
     <use xlink:href="#m8564a67940" x="415.969995" y="238.9557" style="fill: #35dc67; stroke: #ffffff; stroke-width: 0.75"/>
     <use xlink:href="#m8564a67940" x="421.093962" y="239.075545" style="fill: #35dc67; stroke: #ffffff; stroke-width: 0.75"/>
     <use xlink:href="#m8564a67940" x="426.217929" y="240.645908" style="fill: #35dc67; stroke: #ffffff; stroke-width: 0.75"/>
     <use xlink:href="#m8564a67940" x="431.341896" y="241.923162" style="fill: #35dc67; stroke: #ffffff; stroke-width: 0.75"/>
     <use xlink:href="#m8564a67940" x="436.465863" y="240.459808" style="fill: #35dc67; stroke: #ffffff; stroke-width: 0.75"/>
     <use xlink:href="#m8564a67940" x="441.58983" y="240.273465" style="fill: #35dc67; stroke: #ffffff; stroke-width: 0.75"/>
     <use xlink:href="#m8564a67940" x="446.713796" y="238.12337" style="fill: #35dc67; stroke: #ffffff; stroke-width: 0.75"/>
     <use xlink:href="#m8564a67940" x="451.837763" y="240.622633" style="fill: #35dc67; stroke: #ffffff; stroke-width: 0.75"/>
     <use xlink:href="#m8564a67940" x="456.96173" y="237.823343" style="fill: #35dc67; stroke: #ffffff; stroke-width: 0.75"/>
     <use xlink:href="#m8564a67940" x="462.085697" y="242.158632" style="fill: #35dc67; stroke: #ffffff; stroke-width: 0.75"/>
     <use xlink:href="#m8564a67940" x="467.209664" y="239.282166" style="fill: #35dc67; stroke: #ffffff; stroke-width: 0.75"/>
     <use xlink:href="#m8564a67940" x="472.333631" y="239.499601" style="fill: #35dc67; stroke: #ffffff; stroke-width: 0.75"/>
     <use xlink:href="#m8564a67940" x="477.457598" y="241.960363" style="fill: #35dc67; stroke: #ffffff; stroke-width: 0.75"/>
     <use xlink:href="#m8564a67940" x="482.581565" y="242.453695" style="fill: #35dc67; stroke: #ffffff; stroke-width: 0.75"/>
     <use xlink:href="#m8564a67940" x="487.705532" y="238.681561" style="fill: #35dc67; stroke: #ffffff; stroke-width: 0.75"/>
     <use xlink:href="#m8564a67940" x="492.829499" y="240.938108" style="fill: #35dc67; stroke: #ffffff; stroke-width: 0.75"/>
     <use xlink:href="#m8564a67940" x="497.953466" y="242.375969" style="fill: #35dc67; stroke: #ffffff; stroke-width: 0.75"/>
     <use xlink:href="#m8564a67940" x="503.077433" y="239.941969" style="fill: #35dc67; stroke: #ffffff; stroke-width: 0.75"/>
     <use xlink:href="#m8564a67940" x="508.2014" y="240.320892" style="fill: #35dc67; stroke: #ffffff; stroke-width: 0.75"/>
     <use xlink:href="#m8564a67940" x="513.325367" y="239.666168" style="fill: #35dc67; stroke: #ffffff; stroke-width: 0.75"/>
     <use xlink:href="#m8564a67940" x="518.449334" y="241.714399" style="fill: #35dc67; stroke: #ffffff; stroke-width: 0.75"/>
     <use xlink:href="#m8564a67940" x="523.573301" y="239.678414" style="fill: #35dc67; stroke: #ffffff; stroke-width: 0.75"/>
     <use xlink:href="#m8564a67940" x="528.697268" y="241.32991" style="fill: #35dc67; stroke: #ffffff; stroke-width: 0.75"/>
     <use xlink:href="#m8564a67940" x="533.821235" y="240.733397" style="fill: #35dc67; stroke: #ffffff; stroke-width: 0.75"/>
     <use xlink:href="#m8564a67940" x="538.945201" y="241.569529" style="fill: #35dc67; stroke: #ffffff; stroke-width: 0.75"/>
     <use xlink:href="#m8564a67940" x="544.069168" y="236.879142" style="fill: #35dc67; stroke: #ffffff; stroke-width: 0.75"/>
     <use xlink:href="#m8564a67940" x="549.193135" y="240.902673" style="fill: #35dc67; stroke: #ffffff; stroke-width: 0.75"/>
     <use xlink:href="#m8564a67940" x="554.317102" y="240.816617" style="fill: #35dc67; stroke: #ffffff; stroke-width: 0.75"/>
     <use xlink:href="#m8564a67940" x="559.441069" y="240.088345" style="fill: #35dc67; stroke: #ffffff; stroke-width: 0.75"/>
     <use xlink:href="#m8564a67940" x="564.565036" y="237.877218" style="fill: #35dc67; stroke: #ffffff; stroke-width: 0.75"/>
     <use xlink:href="#m8564a67940" x="569.689003" y="241.833069" style="fill: #35dc67; stroke: #ffffff; stroke-width: 0.75"/>
     <use xlink:href="#m8564a67940" x="574.81297" y="239.876684" style="fill: #35dc67; stroke: #ffffff; stroke-width: 0.75"/>
     <use xlink:href="#m8564a67940" x="579.936937" y="224.295467" style="fill: #35dc67; stroke: #ffffff; stroke-width: 0.75"/>
     <use xlink:href="#m8564a67940" x="585.060904" y="241.146591" style="fill: #35dc67; stroke: #ffffff; stroke-width: 0.75"/>
     <use xlink:href="#m8564a67940" x="590.184871" y="242.260367" style="fill: #35dc67; stroke: #ffffff; stroke-width: 0.75"/>
     <use xlink:href="#m8564a67940" x="595.308838" y="242.077287" style="fill: #35dc67; stroke: #ffffff; stroke-width: 0.75"/>
     <use xlink:href="#m8564a67940" x="600.432805" y="238.072449" style="fill: #35dc67; stroke: #ffffff; stroke-width: 0.75"/>
     <use xlink:href="#m8564a67940" x="605.556772" y="240.468119" style="fill: #35dc67; stroke: #ffffff; stroke-width: 0.75"/>
     <use xlink:href="#m8564a67940" x="610.680739" y="228.767885" style="fill: #35dc67; stroke: #ffffff; stroke-width: 0.75"/>
    </g>
   </g>
   <g id="line2d_38">
    <path d="M 103.408011 232.210598 
L 108.531978 234.833015 
L 113.655945 231.246453 
L 118.779912 232.580379 
L 123.903879 230.010733 
L 129.027846 230.598329 
L 134.151813 237.257816 
L 139.27578 238.224177 
L 144.399747 231.363344 
L 149.523714 217.913778 
L 154.647681 239.033001 
L 159.771648 235.806483 
L 164.895615 236.801453 
L 170.019582 234.693356 
L 175.143549 231.65069 
L 180.267515 232.771888 
L 185.391482 221.785292 
L 190.515449 227.325556 
L 195.639416 240.14252 
L 200.763383 230.237832 
L 205.88735 241.719733 
L 211.011317 218.75869 
L 216.135284 190.46175 
L 221.259251 238.588453 
L 226.383218 220.973679 
L 231.507185 238.182707 
L 236.631152 239.92142 
L 241.755119 230.128859 
L 246.879086 237.201464 
L 252.003053 229.414121 
L 257.12702 238.939919 
L 262.250987 215.289324 
L 267.374954 238.8494 
L 272.49892 239.276436 
L 277.622887 232.16643 
L 282.746854 239.807269 
L 287.870821 237.300884 
L 292.994788 240.257075 
L 298.118755 233.79767 
L 303.242722 231.109975 
L 308.366689 239.374954 
L 313.490656 237.482888 
L 318.614623 240.721862 
L 323.73859 241.209252 
L 328.862557 239.030978 
L 333.986524 240.501051 
L 339.110491 237.905383 
L 344.234458 239.323236 
L 349.358425 240.590758 
L 354.482392 239.140604 
L 359.606358 240.63717 
L 364.730325 240.598205 
L 369.854292 238.168427 
L 374.978259 241.720765 
L 380.102226 241.533661 
L 385.226193 239.614952 
L 390.35016 237.382496 
L 395.474127 241.299174 
L 400.598094 234.079597 
L 405.722061 236.105594 
L 410.846028 239.275944 
L 415.969995 238.43575 
L 421.093962 235.239889 
L 426.217929 239.184652 
L 431.341896 228.067507 
L 436.465863 239.082362 
L 441.58983 237.253752 
L 446.713796 240.792594 
L 451.837763 242.422198 
L 456.96173 237.256905 
L 462.085697 240.814975 
L 467.209664 240.31925 
L 472.333631 241.00335 
L 477.457598 240.671111 
L 482.581565 236.602158 
L 487.705532 236.769983 
L 492.829499 240.124371 
L 497.953466 239.358765 
L 503.077433 233.091732 
L 508.2014 238.473712 
L 513.325367 237.726282 
L 518.449334 239.899424 
L 523.573301 239.730781 
L 528.697268 241.953219 
L 533.821235 238.75619 
L 538.945201 238.555727 
L 544.069168 241.801672 
L 549.193135 238.690978 
L 554.317102 240.113884 
L 559.441069 232.674013 
L 564.565036 238.347361 
L 569.689003 241.958153 
L 574.81297 236.98594 
L 579.936937 236.879411 
L 585.060904 241.824113 
L 590.184871 235.500734 
L 595.308838 240.165645 
L 600.432805 241.203264 
L 605.556772 239.051273 
L 610.680739 236.216425 
" clip-path="url(#pf2fb34166b)" style="fill: none; stroke: #007bff; stroke-width: 1.5; stroke-linecap: square"/>
    <defs>
     <path id="md533d30eaa" d="M 0 3 
C 0.795609 3 1.55874 2.683901 2.12132 2.12132 
C 2.683901 1.55874 3 0.795609 3 0 
C 3 -0.795609 2.683901 -1.55874 2.12132 -2.12132 
C 1.55874 -2.683901 0.795609 -3 0 -3 
C -0.795609 -3 -1.55874 -2.683901 -2.12132 -2.12132 
C -2.683901 -1.55874 -3 -0.795609 -3 0 
C -3 0.795609 -2.683901 1.55874 -2.12132 2.12132 
C -1.55874 2.683901 -0.795609 3 0 3 
z
" style="stroke: #ffffff; stroke-width: 0.75"/>
    </defs>
    <g clip-path="url(#pf2fb34166b)">
     <use xlink:href="#md533d30eaa" x="103.408011" y="232.210598" style="fill: #007bff; stroke: #ffffff; stroke-width: 0.75"/>
     <use xlink:href="#md533d30eaa" x="108.531978" y="234.833015" style="fill: #007bff; stroke: #ffffff; stroke-width: 0.75"/>
     <use xlink:href="#md533d30eaa" x="113.655945" y="231.246453" style="fill: #007bff; stroke: #ffffff; stroke-width: 0.75"/>
     <use xlink:href="#md533d30eaa" x="118.779912" y="232.580379" style="fill: #007bff; stroke: #ffffff; stroke-width: 0.75"/>
     <use xlink:href="#md533d30eaa" x="123.903879" y="230.010733" style="fill: #007bff; stroke: #ffffff; stroke-width: 0.75"/>
     <use xlink:href="#md533d30eaa" x="129.027846" y="230.598329" style="fill: #007bff; stroke: #ffffff; stroke-width: 0.75"/>
     <use xlink:href="#md533d30eaa" x="134.151813" y="237.257816" style="fill: #007bff; stroke: #ffffff; stroke-width: 0.75"/>
     <use xlink:href="#md533d30eaa" x="139.27578" y="238.224177" style="fill: #007bff; stroke: #ffffff; stroke-width: 0.75"/>
     <use xlink:href="#md533d30eaa" x="144.399747" y="231.363344" style="fill: #007bff; stroke: #ffffff; stroke-width: 0.75"/>
     <use xlink:href="#md533d30eaa" x="149.523714" y="217.913778" style="fill: #007bff; stroke: #ffffff; stroke-width: 0.75"/>
     <use xlink:href="#md533d30eaa" x="154.647681" y="239.033001" style="fill: #007bff; stroke: #ffffff; stroke-width: 0.75"/>
     <use xlink:href="#md533d30eaa" x="159.771648" y="235.806483" style="fill: #007bff; stroke: #ffffff; stroke-width: 0.75"/>
     <use xlink:href="#md533d30eaa" x="164.895615" y="236.801453" style="fill: #007bff; stroke: #ffffff; stroke-width: 0.75"/>
     <use xlink:href="#md533d30eaa" x="170.019582" y="234.693356" style="fill: #007bff; stroke: #ffffff; stroke-width: 0.75"/>
     <use xlink:href="#md533d30eaa" x="175.143549" y="231.65069" style="fill: #007bff; stroke: #ffffff; stroke-width: 0.75"/>
     <use xlink:href="#md533d30eaa" x="180.267515" y="232.771888" style="fill: #007bff; stroke: #ffffff; stroke-width: 0.75"/>
     <use xlink:href="#md533d30eaa" x="185.391482" y="221.785292" style="fill: #007bff; stroke: #ffffff; stroke-width: 0.75"/>
     <use xlink:href="#md533d30eaa" x="190.515449" y="227.325556" style="fill: #007bff; stroke: #ffffff; stroke-width: 0.75"/>
     <use xlink:href="#md533d30eaa" x="195.639416" y="240.14252" style="fill: #007bff; stroke: #ffffff; stroke-width: 0.75"/>
     <use xlink:href="#md533d30eaa" x="200.763383" y="230.237832" style="fill: #007bff; stroke: #ffffff; stroke-width: 0.75"/>
     <use xlink:href="#md533d30eaa" x="205.88735" y="241.719733" style="fill: #007bff; stroke: #ffffff; stroke-width: 0.75"/>
     <use xlink:href="#md533d30eaa" x="211.011317" y="218.75869" style="fill: #007bff; stroke: #ffffff; stroke-width: 0.75"/>
     <use xlink:href="#md533d30eaa" x="216.135284" y="190.46175" style="fill: #007bff; stroke: #ffffff; stroke-width: 0.75"/>
     <use xlink:href="#md533d30eaa" x="221.259251" y="238.588453" style="fill: #007bff; stroke: #ffffff; stroke-width: 0.75"/>
     <use xlink:href="#md533d30eaa" x="226.383218" y="220.973679" style="fill: #007bff; stroke: #ffffff; stroke-width: 0.75"/>
     <use xlink:href="#md533d30eaa" x="231.507185" y="238.182707" style="fill: #007bff; stroke: #ffffff; stroke-width: 0.75"/>
     <use xlink:href="#md533d30eaa" x="236.631152" y="239.92142" style="fill: #007bff; stroke: #ffffff; stroke-width: 0.75"/>
     <use xlink:href="#md533d30eaa" x="241.755119" y="230.128859" style="fill: #007bff; stroke: #ffffff; stroke-width: 0.75"/>
     <use xlink:href="#md533d30eaa" x="246.879086" y="237.201464" style="fill: #007bff; stroke: #ffffff; stroke-width: 0.75"/>
     <use xlink:href="#md533d30eaa" x="252.003053" y="229.414121" style="fill: #007bff; stroke: #ffffff; stroke-width: 0.75"/>
     <use xlink:href="#md533d30eaa" x="257.12702" y="238.939919" style="fill: #007bff; stroke: #ffffff; stroke-width: 0.75"/>
     <use xlink:href="#md533d30eaa" x="262.250987" y="215.289324" style="fill: #007bff; stroke: #ffffff; stroke-width: 0.75"/>
     <use xlink:href="#md533d30eaa" x="267.374954" y="238.8494" style="fill: #007bff; stroke: #ffffff; stroke-width: 0.75"/>
     <use xlink:href="#md533d30eaa" x="272.49892" y="239.276436" style="fill: #007bff; stroke: #ffffff; stroke-width: 0.75"/>
     <use xlink:href="#md533d30eaa" x="277.622887" y="232.16643" style="fill: #007bff; stroke: #ffffff; stroke-width: 0.75"/>
     <use xlink:href="#md533d30eaa" x="282.746854" y="239.807269" style="fill: #007bff; stroke: #ffffff; stroke-width: 0.75"/>
     <use xlink:href="#md533d30eaa" x="287.870821" y="237.300884" style="fill: #007bff; stroke: #ffffff; stroke-width: 0.75"/>
     <use xlink:href="#md533d30eaa" x="292.994788" y="240.257075" style="fill: #007bff; stroke: #ffffff; stroke-width: 0.75"/>
     <use xlink:href="#md533d30eaa" x="298.118755" y="233.79767" style="fill: #007bff; stroke: #ffffff; stroke-width: 0.75"/>
     <use xlink:href="#md533d30eaa" x="303.242722" y="231.109975" style="fill: #007bff; stroke: #ffffff; stroke-width: 0.75"/>
     <use xlink:href="#md533d30eaa" x="308.366689" y="239.374954" style="fill: #007bff; stroke: #ffffff; stroke-width: 0.75"/>
     <use xlink:href="#md533d30eaa" x="313.490656" y="237.482888" style="fill: #007bff; stroke: #ffffff; stroke-width: 0.75"/>
     <use xlink:href="#md533d30eaa" x="318.614623" y="240.721862" style="fill: #007bff; stroke: #ffffff; stroke-width: 0.75"/>
     <use xlink:href="#md533d30eaa" x="323.73859" y="241.209252" style="fill: #007bff; stroke: #ffffff; stroke-width: 0.75"/>
     <use xlink:href="#md533d30eaa" x="328.862557" y="239.030978" style="fill: #007bff; stroke: #ffffff; stroke-width: 0.75"/>
     <use xlink:href="#md533d30eaa" x="333.986524" y="240.501051" style="fill: #007bff; stroke: #ffffff; stroke-width: 0.75"/>
     <use xlink:href="#md533d30eaa" x="339.110491" y="237.905383" style="fill: #007bff; stroke: #ffffff; stroke-width: 0.75"/>
     <use xlink:href="#md533d30eaa" x="344.234458" y="239.323236" style="fill: #007bff; stroke: #ffffff; stroke-width: 0.75"/>
     <use xlink:href="#md533d30eaa" x="349.358425" y="240.590758" style="fill: #007bff; stroke: #ffffff; stroke-width: 0.75"/>
     <use xlink:href="#md533d30eaa" x="354.482392" y="239.140604" style="fill: #007bff; stroke: #ffffff; stroke-width: 0.75"/>
     <use xlink:href="#md533d30eaa" x="359.606358" y="240.63717" style="fill: #007bff; stroke: #ffffff; stroke-width: 0.75"/>
     <use xlink:href="#md533d30eaa" x="364.730325" y="240.598205" style="fill: #007bff; stroke: #ffffff; stroke-width: 0.75"/>
     <use xlink:href="#md533d30eaa" x="369.854292" y="238.168427" style="fill: #007bff; stroke: #ffffff; stroke-width: 0.75"/>
     <use xlink:href="#md533d30eaa" x="374.978259" y="241.720765" style="fill: #007bff; stroke: #ffffff; stroke-width: 0.75"/>
     <use xlink:href="#md533d30eaa" x="380.102226" y="241.533661" style="fill: #007bff; stroke: #ffffff; stroke-width: 0.75"/>
     <use xlink:href="#md533d30eaa" x="385.226193" y="239.614952" style="fill: #007bff; stroke: #ffffff; stroke-width: 0.75"/>
     <use xlink:href="#md533d30eaa" x="390.35016" y="237.382496" style="fill: #007bff; stroke: #ffffff; stroke-width: 0.75"/>
     <use xlink:href="#md533d30eaa" x="395.474127" y="241.299174" style="fill: #007bff; stroke: #ffffff; stroke-width: 0.75"/>
     <use xlink:href="#md533d30eaa" x="400.598094" y="234.079597" style="fill: #007bff; stroke: #ffffff; stroke-width: 0.75"/>
     <use xlink:href="#md533d30eaa" x="405.722061" y="236.105594" style="fill: #007bff; stroke: #ffffff; stroke-width: 0.75"/>
     <use xlink:href="#md533d30eaa" x="410.846028" y="239.275944" style="fill: #007bff; stroke: #ffffff; stroke-width: 0.75"/>
     <use xlink:href="#md533d30eaa" x="415.969995" y="238.43575" style="fill: #007bff; stroke: #ffffff; stroke-width: 0.75"/>
     <use xlink:href="#md533d30eaa" x="421.093962" y="235.239889" style="fill: #007bff; stroke: #ffffff; stroke-width: 0.75"/>
     <use xlink:href="#md533d30eaa" x="426.217929" y="239.184652" style="fill: #007bff; stroke: #ffffff; stroke-width: 0.75"/>
     <use xlink:href="#md533d30eaa" x="431.341896" y="228.067507" style="fill: #007bff; stroke: #ffffff; stroke-width: 0.75"/>
     <use xlink:href="#md533d30eaa" x="436.465863" y="239.082362" style="fill: #007bff; stroke: #ffffff; stroke-width: 0.75"/>
     <use xlink:href="#md533d30eaa" x="441.58983" y="237.253752" style="fill: #007bff; stroke: #ffffff; stroke-width: 0.75"/>
     <use xlink:href="#md533d30eaa" x="446.713796" y="240.792594" style="fill: #007bff; stroke: #ffffff; stroke-width: 0.75"/>
     <use xlink:href="#md533d30eaa" x="451.837763" y="242.422198" style="fill: #007bff; stroke: #ffffff; stroke-width: 0.75"/>
     <use xlink:href="#md533d30eaa" x="456.96173" y="237.256905" style="fill: #007bff; stroke: #ffffff; stroke-width: 0.75"/>
     <use xlink:href="#md533d30eaa" x="462.085697" y="240.814975" style="fill: #007bff; stroke: #ffffff; stroke-width: 0.75"/>
     <use xlink:href="#md533d30eaa" x="467.209664" y="240.31925" style="fill: #007bff; stroke: #ffffff; stroke-width: 0.75"/>
     <use xlink:href="#md533d30eaa" x="472.333631" y="241.00335" style="fill: #007bff; stroke: #ffffff; stroke-width: 0.75"/>
     <use xlink:href="#md533d30eaa" x="477.457598" y="240.671111" style="fill: #007bff; stroke: #ffffff; stroke-width: 0.75"/>
     <use xlink:href="#md533d30eaa" x="482.581565" y="236.602158" style="fill: #007bff; stroke: #ffffff; stroke-width: 0.75"/>
     <use xlink:href="#md533d30eaa" x="487.705532" y="236.769983" style="fill: #007bff; stroke: #ffffff; stroke-width: 0.75"/>
     <use xlink:href="#md533d30eaa" x="492.829499" y="240.124371" style="fill: #007bff; stroke: #ffffff; stroke-width: 0.75"/>
     <use xlink:href="#md533d30eaa" x="497.953466" y="239.358765" style="fill: #007bff; stroke: #ffffff; stroke-width: 0.75"/>
     <use xlink:href="#md533d30eaa" x="503.077433" y="233.091732" style="fill: #007bff; stroke: #ffffff; stroke-width: 0.75"/>
     <use xlink:href="#md533d30eaa" x="508.2014" y="238.473712" style="fill: #007bff; stroke: #ffffff; stroke-width: 0.75"/>
     <use xlink:href="#md533d30eaa" x="513.325367" y="237.726282" style="fill: #007bff; stroke: #ffffff; stroke-width: 0.75"/>
     <use xlink:href="#md533d30eaa" x="518.449334" y="239.899424" style="fill: #007bff; stroke: #ffffff; stroke-width: 0.75"/>
     <use xlink:href="#md533d30eaa" x="523.573301" y="239.730781" style="fill: #007bff; stroke: #ffffff; stroke-width: 0.75"/>
     <use xlink:href="#md533d30eaa" x="528.697268" y="241.953219" style="fill: #007bff; stroke: #ffffff; stroke-width: 0.75"/>
     <use xlink:href="#md533d30eaa" x="533.821235" y="238.75619" style="fill: #007bff; stroke: #ffffff; stroke-width: 0.75"/>
     <use xlink:href="#md533d30eaa" x="538.945201" y="238.555727" style="fill: #007bff; stroke: #ffffff; stroke-width: 0.75"/>
     <use xlink:href="#md533d30eaa" x="544.069168" y="241.801672" style="fill: #007bff; stroke: #ffffff; stroke-width: 0.75"/>
     <use xlink:href="#md533d30eaa" x="549.193135" y="238.690978" style="fill: #007bff; stroke: #ffffff; stroke-width: 0.75"/>
     <use xlink:href="#md533d30eaa" x="554.317102" y="240.113884" style="fill: #007bff; stroke: #ffffff; stroke-width: 0.75"/>
     <use xlink:href="#md533d30eaa" x="559.441069" y="232.674013" style="fill: #007bff; stroke: #ffffff; stroke-width: 0.75"/>
     <use xlink:href="#md533d30eaa" x="564.565036" y="238.347361" style="fill: #007bff; stroke: #ffffff; stroke-width: 0.75"/>
     <use xlink:href="#md533d30eaa" x="569.689003" y="241.958153" style="fill: #007bff; stroke: #ffffff; stroke-width: 0.75"/>
     <use xlink:href="#md533d30eaa" x="574.81297" y="236.98594" style="fill: #007bff; stroke: #ffffff; stroke-width: 0.75"/>
     <use xlink:href="#md533d30eaa" x="579.936937" y="236.879411" style="fill: #007bff; stroke: #ffffff; stroke-width: 0.75"/>
     <use xlink:href="#md533d30eaa" x="585.060904" y="241.824113" style="fill: #007bff; stroke: #ffffff; stroke-width: 0.75"/>
     <use xlink:href="#md533d30eaa" x="590.184871" y="235.500734" style="fill: #007bff; stroke: #ffffff; stroke-width: 0.75"/>
     <use xlink:href="#md533d30eaa" x="595.308838" y="240.165645" style="fill: #007bff; stroke: #ffffff; stroke-width: 0.75"/>
     <use xlink:href="#md533d30eaa" x="600.432805" y="241.203264" style="fill: #007bff; stroke: #ffffff; stroke-width: 0.75"/>
     <use xlink:href="#md533d30eaa" x="605.556772" y="239.051273" style="fill: #007bff; stroke: #ffffff; stroke-width: 0.75"/>
     <use xlink:href="#md533d30eaa" x="610.680739" y="236.216425" style="fill: #007bff; stroke: #ffffff; stroke-width: 0.75"/>
    </g>
   </g>
   <g id="line2d_39"/>
   <g id="line2d_40"/>
   <g id="patch_3">
    <path d="M 78.044375 356.78175 
L 78.044375 24.14175 
" style="fill: none; stroke: #000000; stroke-width: 0.8; stroke-linejoin: miter; stroke-linecap: square"/>
   </g>
   <g id="patch_4">
    <path d="M 636.044375 356.78175 
L 636.044375 24.14175 
" style="fill: none; stroke: #000000; stroke-width: 0.8; stroke-linejoin: miter; stroke-linecap: square"/>
   </g>
   <g id="patch_5">
    <path d="M 78.044375 356.78175 
L 636.044375 356.78175 
" style="fill: none; stroke: #000000; stroke-width: 0.8; stroke-linejoin: miter; stroke-linecap: square"/>
   </g>
   <g id="patch_6">
    <path d="M 78.044375 24.14175 
L 636.044375 24.14175 
" style="fill: none; stroke: #000000; stroke-width: 0.8; stroke-linejoin: miter; stroke-linecap: square"/>
   </g>
   <g id="text_21">
    <!-- Gesture Learning Curve  -->
    <g transform="translate(269.3045 18.14175) scale(0.144 -0.144)">
     <defs>
      <path id="DejaVuSans-47" d="M 3809 666 
L 3809 1919 
L 2778 1919 
L 2778 2438 
L 4434 2438 
L 4434 434 
Q 4069 175 3628 42 
Q 3188 -91 2688 -91 
Q 1594 -91 976 548 
Q 359 1188 359 2328 
Q 359 3472 976 4111 
Q 1594 4750 2688 4750 
Q 3144 4750 3555 4637 
Q 3966 4525 4313 4306 
L 4313 3634 
Q 3963 3931 3569 4081 
Q 3175 4231 2741 4231 
Q 1884 4231 1454 3753 
Q 1025 3275 1025 2328 
Q 1025 1384 1454 906 
Q 1884 428 2741 428 
Q 3075 428 3337 486 
Q 3600 544 3809 666 
z
" transform="scale(0.015625)"/>
      <path id="DejaVuSans-74" d="M 1172 4494 
L 1172 3500 
L 2356 3500 
L 2356 3053 
L 1172 3053 
L 1172 1153 
Q 1172 725 1289 603 
Q 1406 481 1766 481 
L 2356 481 
L 2356 0 
L 1766 0 
Q 1100 0 847 248 
Q 594 497 594 1153 
L 594 3053 
L 172 3053 
L 172 3500 
L 594 3500 
L 594 4494 
L 1172 4494 
z
" transform="scale(0.015625)"/>
      <path id="DejaVuSans-75" d="M 544 1381 
L 544 3500 
L 1119 3500 
L 1119 1403 
Q 1119 906 1312 657 
Q 1506 409 1894 409 
Q 2359 409 2629 706 
Q 2900 1003 2900 1516 
L 2900 3500 
L 3475 3500 
L 3475 0 
L 2900 0 
L 2900 538 
Q 2691 219 2414 64 
Q 2138 -91 1772 -91 
Q 1169 -91 856 284 
Q 544 659 544 1381 
z
M 1991 3584 
L 1991 3584 
z
" transform="scale(0.015625)"/>
      <path id="DejaVuSans-4c" d="M 628 4666 
L 1259 4666 
L 1259 531 
L 3531 531 
L 3531 0 
L 628 0 
L 628 4666 
z
" transform="scale(0.015625)"/>
      <path id="DejaVuSans-6e" d="M 3513 2113 
L 3513 0 
L 2938 0 
L 2938 2094 
Q 2938 2591 2744 2837 
Q 2550 3084 2163 3084 
Q 1697 3084 1428 2787 
Q 1159 2491 1159 1978 
L 1159 0 
L 581 0 
L 581 3500 
L 1159 3500 
L 1159 2956 
Q 1366 3272 1645 3428 
Q 1925 3584 2291 3584 
Q 2894 3584 3203 3211 
Q 3513 2838 3513 2113 
z
" transform="scale(0.015625)"/>
      <path id="DejaVuSans-67" d="M 2906 1791 
Q 2906 2416 2648 2759 
Q 2391 3103 1925 3103 
Q 1463 3103 1205 2759 
Q 947 2416 947 1791 
Q 947 1169 1205 825 
Q 1463 481 1925 481 
Q 2391 481 2648 825 
Q 2906 1169 2906 1791 
z
M 3481 434 
Q 3481 -459 3084 -895 
Q 2688 -1331 1869 -1331 
Q 1566 -1331 1297 -1286 
Q 1028 -1241 775 -1147 
L 775 -588 
Q 1028 -725 1275 -790 
Q 1522 -856 1778 -856 
Q 2344 -856 2625 -561 
Q 2906 -266 2906 331 
L 2906 616 
Q 2728 306 2450 153 
Q 2172 0 1784 0 
Q 1141 0 747 490 
Q 353 981 353 1791 
Q 353 2603 747 3093 
Q 1141 3584 1784 3584 
Q 2172 3584 2450 3431 
Q 2728 3278 2906 2969 
L 2906 3500 
L 3481 3500 
L 3481 434 
z
" transform="scale(0.015625)"/>
      <path id="DejaVuSans-43" d="M 4122 4306 
L 4122 3641 
Q 3803 3938 3442 4084 
Q 3081 4231 2675 4231 
Q 1875 4231 1450 3742 
Q 1025 3253 1025 2328 
Q 1025 1406 1450 917 
Q 1875 428 2675 428 
Q 3081 428 3442 575 
Q 3803 722 4122 1019 
L 4122 359 
Q 3791 134 3420 21 
Q 3050 -91 2638 -91 
Q 1578 -91 968 557 
Q 359 1206 359 2328 
Q 359 3453 968 4101 
Q 1578 4750 2638 4750 
Q 3056 4750 3426 4639 
Q 3797 4528 4122 4306 
z
" transform="scale(0.015625)"/>
      <path id="DejaVuSans-76" d="M 191 3500 
L 800 3500 
L 1894 563 
L 2988 3500 
L 3597 3500 
L 2284 0 
L 1503 0 
L 191 3500 
z
" transform="scale(0.015625)"/>
     </defs>
     <use xlink:href="#DejaVuSans-47"/>
     <use xlink:href="#DejaVuSans-65" transform="translate(77.490234 0)"/>
     <use xlink:href="#DejaVuSans-73" transform="translate(139.013672 0)"/>
     <use xlink:href="#DejaVuSans-74" transform="translate(191.113281 0)"/>
     <use xlink:href="#DejaVuSans-75" transform="translate(230.322266 0)"/>
     <use xlink:href="#DejaVuSans-72" transform="translate(293.701172 0)"/>
     <use xlink:href="#DejaVuSans-65" transform="translate(332.564453 0)"/>
     <use xlink:href="#DejaVuSans-20" transform="translate(394.087891 0)"/>
     <use xlink:href="#DejaVuSans-4c" transform="translate(425.875 0)"/>
     <use xlink:href="#DejaVuSans-65" transform="translate(479.837891 0)"/>
     <use xlink:href="#DejaVuSans-61" transform="translate(541.361328 0)"/>
     <use xlink:href="#DejaVuSans-72" transform="translate(602.640625 0)"/>
     <use xlink:href="#DejaVuSans-6e" transform="translate(642.003906 0)"/>
     <use xlink:href="#DejaVuSans-69" transform="translate(705.382812 0)"/>
     <use xlink:href="#DejaVuSans-6e" transform="translate(733.166016 0)"/>
     <use xlink:href="#DejaVuSans-67" transform="translate(796.544922 0)"/>
     <use xlink:href="#DejaVuSans-20" transform="translate(860.021484 0)"/>
     <use xlink:href="#DejaVuSans-43" transform="translate(891.808594 0)"/>
     <use xlink:href="#DejaVuSans-75" transform="translate(961.632812 0)"/>
     <use xlink:href="#DejaVuSans-72" transform="translate(1025.011719 0)"/>
     <use xlink:href="#DejaVuSans-76" transform="translate(1066.125 0)"/>
     <use xlink:href="#DejaVuSans-65" transform="translate(1125.304688 0)"/>
     <use xlink:href="#DejaVuSans-20" transform="translate(1186.828125 0)"/>
    </g>
   </g>
   <g id="legend_1">
    <g id="patch_7">
     <path d="M 530.223125 86.583 
L 627.644375 86.583 
Q 630.044375 86.583 630.044375 84.183 
L 630.044375 32.54175 
Q 630.044375 30.14175 627.644375 30.14175 
L 530.223125 30.14175 
Q 527.823125 30.14175 527.823125 32.54175 
L 527.823125 84.183 
Q 527.823125 86.583 530.223125 86.583 
z
" style="fill: #ffffff; opacity: 0.8; stroke: #cccccc; stroke-linejoin: miter"/>
    </g>
    <g id="text_22">
     <!-- Condition -->
     <g transform="translate(550.301562 44.059875) scale(0.12 -0.12)">
      <defs>
       <path id="DejaVuSans-6f" d="M 1959 3097 
Q 1497 3097 1228 2736 
Q 959 2375 959 1747 
Q 959 1119 1226 758 
Q 1494 397 1959 397 
Q 2419 397 2687 759 
Q 2956 1122 2956 1747 
Q 2956 2369 2687 2733 
Q 2419 3097 1959 3097 
z
M 1959 3584 
Q 2709 3584 3137 3096 
Q 3566 2609 3566 1747 
Q 3566 888 3137 398 
Q 2709 -91 1959 -91 
Q 1206 -91 779 398 
Q 353 888 353 1747 
Q 353 2609 779 3096 
Q 1206 3584 1959 3584 
z
" transform="scale(0.015625)"/>
       <path id="DejaVuSans-64" d="M 2906 2969 
L 2906 4863 
L 3481 4863 
L 3481 0 
L 2906 0 
L 2906 525 
Q 2725 213 2448 61 
Q 2172 -91 1784 -91 
Q 1150 -91 751 415 
Q 353 922 353 1747 
Q 353 2572 751 3078 
Q 1150 3584 1784 3584 
Q 2172 3584 2448 3432 
Q 2725 3281 2906 2969 
z
M 947 1747 
Q 947 1113 1208 752 
Q 1469 391 1925 391 
Q 2381 391 2643 752 
Q 2906 1113 2906 1747 
Q 2906 2381 2643 2742 
Q 2381 3103 1925 3103 
Q 1469 3103 1208 2742 
Q 947 2381 947 1747 
z
" transform="scale(0.015625)"/>
      </defs>
      <use xlink:href="#DejaVuSans-43"/>
      <use xlink:href="#DejaVuSans-6f" transform="translate(69.824219 0)"/>
      <use xlink:href="#DejaVuSans-6e" transform="translate(131.005859 0)"/>
      <use xlink:href="#DejaVuSans-64" transform="translate(194.384766 0)"/>
      <use xlink:href="#DejaVuSans-69" transform="translate(257.861328 0)"/>
      <use xlink:href="#DejaVuSans-74" transform="translate(285.644531 0)"/>
      <use xlink:href="#DejaVuSans-69" transform="translate(324.853516 0)"/>
      <use xlink:href="#DejaVuSans-6f" transform="translate(352.636719 0)"/>
      <use xlink:href="#DejaVuSans-6e" transform="translate(413.818359 0)"/>
     </g>
    </g>
    <g id="line2d_41">
     <path d="M 532.623125 57.473625 
L 544.623125 57.473625 
L 556.623125 57.473625 
" style="fill: none; stroke: #35dc67; stroke-width: 1.5; stroke-linecap: square"/>
     <g>
      <use xlink:href="#m8564a67940" x="544.623125" y="57.473625" style="fill: #35dc67; stroke: #ffffff; stroke-width: 0.75"/>
     </g>
    </g>
    <g id="text_23">
     <!-- Proposed -->
     <g transform="translate(566.223125 61.673625) scale(0.12 -0.12)">
      <defs>
       <path id="DejaVuSans-50" d="M 1259 4147 
L 1259 2394 
L 2053 2394 
Q 2494 2394 2734 2622 
Q 2975 2850 2975 3272 
Q 2975 3691 2734 3919 
Q 2494 4147 2053 4147 
L 1259 4147 
z
M 628 4666 
L 2053 4666 
Q 2838 4666 3239 4311 
Q 3641 3956 3641 3272 
Q 3641 2581 3239 2228 
Q 2838 1875 2053 1875 
L 1259 1875 
L 1259 0 
L 628 0 
L 628 4666 
z
" transform="scale(0.015625)"/>
       <path id="DejaVuSans-70" d="M 1159 525 
L 1159 -1331 
L 581 -1331 
L 581 3500 
L 1159 3500 
L 1159 2969 
Q 1341 3281 1617 3432 
Q 1894 3584 2278 3584 
Q 2916 3584 3314 3078 
Q 3713 2572 3713 1747 
Q 3713 922 3314 415 
Q 2916 -91 2278 -91 
Q 1894 -91 1617 61 
Q 1341 213 1159 525 
z
M 3116 1747 
Q 3116 2381 2855 2742 
Q 2594 3103 2138 3103 
Q 1681 3103 1420 2742 
Q 1159 2381 1159 1747 
Q 1159 1113 1420 752 
Q 1681 391 2138 391 
Q 2594 391 2855 752 
Q 3116 1113 3116 1747 
z
" transform="scale(0.015625)"/>
      </defs>
      <use xlink:href="#DejaVuSans-50"/>
      <use xlink:href="#DejaVuSans-72" transform="translate(58.552734 0)"/>
      <use xlink:href="#DejaVuSans-6f" transform="translate(97.416016 0)"/>
      <use xlink:href="#DejaVuSans-70" transform="translate(158.597656 0)"/>
      <use xlink:href="#DejaVuSans-6f" transform="translate(222.074219 0)"/>
      <use xlink:href="#DejaVuSans-73" transform="translate(283.255859 0)"/>
      <use xlink:href="#DejaVuSans-65" transform="translate(335.355469 0)"/>
      <use xlink:href="#DejaVuSans-64" transform="translate(396.878906 0)"/>
     </g>
    </g>
    <g id="line2d_42">
     <path d="M 532.623125 75.087375 
L 544.623125 75.087375 
L 556.623125 75.087375 
" style="fill: none; stroke: #007bff; stroke-width: 1.5; stroke-linecap: square"/>
     <g>
      <use xlink:href="#md533d30eaa" x="544.623125" y="75.087375" style="fill: #007bff; stroke: #ffffff; stroke-width: 0.75"/>
     </g>
    </g>
    <g id="text_24">
     <!-- Controller -->
     <g transform="translate(566.223125 79.287375) scale(0.12 -0.12)">
      <use xlink:href="#DejaVuSans-43"/>
      <use xlink:href="#DejaVuSans-6f" transform="translate(69.824219 0)"/>
      <use xlink:href="#DejaVuSans-6e" transform="translate(131.005859 0)"/>
      <use xlink:href="#DejaVuSans-74" transform="translate(194.384766 0)"/>
      <use xlink:href="#DejaVuSans-72" transform="translate(233.59375 0)"/>
      <use xlink:href="#DejaVuSans-6f" transform="translate(272.457031 0)"/>
      <use xlink:href="#DejaVuSans-6c" transform="translate(333.638672 0)"/>
      <use xlink:href="#DejaVuSans-6c" transform="translate(361.421875 0)"/>
      <use xlink:href="#DejaVuSans-65" transform="translate(389.205078 0)"/>
      <use xlink:href="#DejaVuSans-72" transform="translate(450.728516 0)"/>
     </g>
    </g>
   </g>
  </g>
 </g>
 <defs>
  <clipPath id="pf2fb34166b">
   <rect x="78.044375" y="24.14175" width="558" height="332.64"/>
  </clipPath>
 </defs>
</svg>
