<?xml version="1.0" encoding="utf-8" standalone="no"?>
<!DOCTYPE svg PUBLIC "-//W3C//DTD SVG 1.1//EN"
  "http://www.w3.org/Graphics/SVG/1.1/DTD/svg11.dtd">
<svg xmlns:xlink="http://www.w3.org/1999/xlink" width="856.620625pt" height="423.121367pt" viewBox="0 0 856.620625 423.121367" xmlns="http://www.w3.org/2000/svg" version="1.1">
 <metadata>
  <rdf:RDF xmlns:dc="http://purl.org/dc/elements/1.1/" xmlns:cc="http://creativecommons.org/ns#" xmlns:rdf="http://www.w3.org/1999/02/22-rdf-syntax-ns#">
   <cc:Work>
    <dc:type rdf:resource="http://purl.org/dc/dcmitype/StillImage"/>
    <dc:date>2026-01-28T11:12:38.350810</dc:date>
    <dc:format>image/svg+xml</dc:format>
    <dc:creator>
     <cc:Agent>
      <dc:title>Matplotlib v3.10.8, https://matplotlib.org/</dc:title>
     </cc:Agent>
    </dc:creator>
   </cc:Work>
  </rdf:RDF>
 </metadata>
 <defs>
  <style type="text/css">*{stroke-linejoin: round; stroke-linecap: butt}</style>
 </defs>
 <g id="figure_1">
  <g id="patch_1">
   <path d="M 0 423.121367 
L 856.620625 423.121367 
L 856.620625 0 
L 0 0 
z
" style="fill: #ffffff"/>
  </g>
  <g id="axes_1">
   <g id="patch_2">
    <path d="M 59.690625 349.101209 
L 849.420625 349.101209 
L 849.420625 22.318125 
L 59.690625 22.318125 
z
" style="fill: #ffffff"/>
   </g>
   <g id="patch_3">
    <path d="M 116.099911 335.765739 
L 116.099911 335.765739 
L 116.099911 335.765739 
L 116.099911 335.765739 
z
" clip-path="url(#p6fd8db7e6b)" style="fill: #4ac76f; stroke: #1f1f1f; stroke-linejoin: miter"/>
   </g>
   <g id="patch_4">
    <path d="M 116.099911 335.765739 
L 116.099911 335.765739 
L 116.099911 335.765739 
L 116.099911 335.765739 
z
" clip-path="url(#p6fd8db7e6b)" style="fill: #207cdf; stroke: #1f1f1f; stroke-linejoin: miter"/>
   </g>
   <g id="matplotlib.axis_1">
    <g id="xtick_1">
     <g id="line2d_1">
      <defs>
       <path id="m6316dfb7b6" d="M 0 0 
L 0 3.5 
" style="stroke: #000000; stroke-width: 0.8"/>
      </defs>
      <g>
       <use xlink:href="#m6316dfb7b6" x="116.099911" y="349.101209" style="stroke: #000000; stroke-width: 0.8"/>
      </g>
     </g>
     <g id="text_1">
      <!-- Gun -->
      <g transform="translate(110.830308 375.915667) rotate(-45) scale(0.1 -0.1)">
       <defs>
        <path id="DejaVuSans-47" d="M 3809 666 
L 3809 1919 
L 2778 1919 
L 2778 2438 
L 4434 2438 
L 4434 434 
Q 4069 175 3628 42 
Q 3188 -91 2688 -91 
Q 1594 -91 976 548 
Q 359 1188 359 2328 
Q 359 3472 976 4111 
Q 1594 4750 2688 4750 
Q 3144 4750 3555 4637 
Q 3966 4525 4313 4306 
L 4313 3634 
Q 3963 3931 3569 4081 
Q 3175 4231 2741 4231 
Q 1884 4231 1454 3753 
Q 1025 3275 1025 2328 
Q 1025 1384 1454 906 
Q 1884 428 2741 428 
Q 3075 428 3337 486 
Q 3600 544 3809 666 
z
" transform="scale(0.015625)"/>
        <path id="DejaVuSans-75" d="M 544 1381 
L 544 3500 
L 1119 3500 
L 1119 1403 
Q 1119 906 1312 657 
Q 1506 409 1894 409 
Q 2359 409 2629 706 
Q 2900 1003 2900 1516 
L 2900 3500 
L 3475 3500 
L 3475 0 
L 2900 0 
L 2900 538 
Q 2691 219 2414 64 
Q 2138 -91 1772 -91 
Q 1169 -91 856 284 
Q 544 659 544 1381 
z
M 1991 3584 
L 1991 3584 
z
" transform="scale(0.015625)"/>
        <path id="DejaVuSans-6e" d="M 3513 2113 
L 3513 0 
L 2938 0 
L 2938 2094 
Q 2938 2591 2744 2837 
Q 2550 3084 2163 3084 
Q 1697 3084 1428 2787 
Q 1159 2491 1159 1978 
L 1159 0 
L 581 0 
L 581 3500 
L 1159 3500 
L 1159 2956 
Q 1366 3272 1645 3428 
Q 1925 3584 2291 3584 
Q 2894 3584 3203 3211 
Q 3513 2838 3513 2113 
z
" transform="scale(0.015625)"/>
       </defs>
       <use xlink:href="#DejaVuSans-47"/>
       <use xlink:href="#DejaVuSans-75" transform="translate(77.490234 0)"/>
       <use xlink:href="#DejaVuSans-6e" transform="translate(140.869141 0)"/>
      </g>
     </g>
    </g>
    <g id="xtick_2">
     <g id="line2d_2">
      <g>
       <use xlink:href="#m6316dfb7b6" x="228.918482" y="349.101209" style="stroke: #000000; stroke-width: 0.8"/>
      </g>
     </g>
     <g id="text_2">
      <!-- ThumbsUp -->
      <g transform="translate(211.866713 399.480001) rotate(-45) scale(0.1 -0.1)">
       <defs>
        <path id="DejaVuSans-54" d="M -19 4666 
L 3928 4666 
L 3928 4134 
L 2272 4134 
L 2272 0 
L 1638 0 
L 1638 4134 
L -19 4134 
L -19 4666 
z
" transform="scale(0.015625)"/>
        <path id="DejaVuSans-68" d="M 3513 2113 
L 3513 0 
L 2938 0 
L 2938 2094 
Q 2938 2591 2744 2837 
Q 2550 3084 2163 3084 
Q 1697 3084 1428 2787 
Q 1159 2491 1159 1978 
L 1159 0 
L 581 0 
L 581 4863 
L 1159 4863 
L 1159 2956 
Q 1366 3272 1645 3428 
Q 1925 3584 2291 3584 
Q 2894 3584 3203 3211 
Q 3513 2838 3513 2113 
z
" transform="scale(0.015625)"/>
        <path id="DejaVuSans-6d" d="M 3328 2828 
Q 3544 3216 3844 3400 
Q 4144 3584 4550 3584 
Q 5097 3584 5394 3201 
Q 5691 2819 5691 2113 
L 5691 0 
L 5113 0 
L 5113 2094 
Q 5113 2597 4934 2840 
Q 4756 3084 4391 3084 
Q 3944 3084 3684 2787 
Q 3425 2491 3425 1978 
L 3425 0 
L 2847 0 
L 2847 2094 
Q 2847 2600 2669 2842 
Q 2491 3084 2119 3084 
Q 1678 3084 1418 2786 
Q 1159 2488 1159 1978 
L 1159 0 
L 581 0 
L 581 3500 
L 1159 3500 
L 1159 2956 
Q 1356 3278 1631 3431 
Q 1906 3584 2284 3584 
Q 2666 3584 2933 3390 
Q 3200 3197 3328 2828 
z
" transform="scale(0.015625)"/>
        <path id="DejaVuSans-62" d="M 3116 1747 
Q 3116 2381 2855 2742 
Q 2594 3103 2138 3103 
Q 1681 3103 1420 2742 
Q 1159 2381 1159 1747 
Q 1159 1113 1420 752 
Q 1681 391 2138 391 
Q 2594 391 2855 752 
Q 3116 1113 3116 1747 
z
M 1159 2969 
Q 1341 3281 1617 3432 
Q 1894 3584 2278 3584 
Q 2916 3584 3314 3078 
Q 3713 2572 3713 1747 
Q 3713 922 3314 415 
Q 2916 -91 2278 -91 
Q 1894 -91 1617 61 
Q 1341 213 1159 525 
L 1159 0 
L 581 0 
L 581 4863 
L 1159 4863 
L 1159 2969 
z
" transform="scale(0.015625)"/>
        <path id="DejaVuSans-73" d="M 2834 3397 
L 2834 2853 
Q 2591 2978 2328 3040 
Q 2066 3103 1784 3103 
Q 1356 3103 1142 2972 
Q 928 2841 928 2578 
Q 928 2378 1081 2264 
Q 1234 2150 1697 2047 
L 1894 2003 
Q 2506 1872 2764 1633 
Q 3022 1394 3022 966 
Q 3022 478 2636 193 
Q 2250 -91 1575 -91 
Q 1294 -91 989 -36 
Q 684 19 347 128 
L 347 722 
Q 666 556 975 473 
Q 1284 391 1588 391 
Q 1994 391 2212 530 
Q 2431 669 2431 922 
Q 2431 1156 2273 1281 
Q 2116 1406 1581 1522 
L 1381 1569 
Q 847 1681 609 1914 
Q 372 2147 372 2553 
Q 372 3047 722 3315 
Q 1072 3584 1716 3584 
Q 2034 3584 2315 3537 
Q 2597 3491 2834 3397 
z
" transform="scale(0.015625)"/>
        <path id="DejaVuSans-55" d="M 556 4666 
L 1191 4666 
L 1191 1831 
Q 1191 1081 1462 751 
Q 1734 422 2344 422 
Q 2950 422 3222 751 
Q 3494 1081 3494 1831 
L 3494 4666 
L 4128 4666 
L 4128 1753 
Q 4128 841 3676 375 
Q 3225 -91 2344 -91 
Q 1459 -91 1007 375 
Q 556 841 556 1753 
L 556 4666 
z
" transform="scale(0.015625)"/>
        <path id="DejaVuSans-70" d="M 1159 525 
L 1159 -1331 
L 581 -1331 
L 581 3500 
L 1159 3500 
L 1159 2969 
Q 1341 3281 1617 3432 
Q 1894 3584 2278 3584 
Q 2916 3584 3314 3078 
Q 3713 2572 3713 1747 
Q 3713 922 3314 415 
Q 2916 -91 2278 -91 
Q 1894 -91 1617 61 
Q 1341 213 1159 525 
z
M 3116 1747 
Q 3116 2381 2855 2742 
Q 2594 3103 2138 3103 
Q 1681 3103 1420 2742 
Q 1159 2381 1159 1747 
Q 1159 1113 1420 752 
Q 1681 391 2138 391 
Q 2594 391 2855 752 
Q 3116 1113 3116 1747 
z
" transform="scale(0.015625)"/>
       </defs>
       <use xlink:href="#DejaVuSans-54"/>
       <use xlink:href="#DejaVuSans-68" transform="translate(61.083984 0)"/>
       <use xlink:href="#DejaVuSans-75" transform="translate(124.462891 0)"/>
       <use xlink:href="#DejaVuSans-6d" transform="translate(187.841797 0)"/>
       <use xlink:href="#DejaVuSans-62" transform="translate(285.253906 0)"/>
       <use xlink:href="#DejaVuSans-73" transform="translate(348.730469 0)"/>
       <use xlink:href="#DejaVuSans-55" transform="translate(400.830078 0)"/>
       <use xlink:href="#DejaVuSans-70" transform="translate(474.023438 0)"/>
      </g>
     </g>
    </g>
    <g id="xtick_3">
     <g id="line2d_3">
      <g>
       <use xlink:href="#m6316dfb7b6" x="341.737054" y="349.101209" style="stroke: #000000; stroke-width: 0.8"/>
      </g>
     </g>
     <g id="text_3">
      <!-- Neutral -->
      <g transform="translate(330.638792 387.572986) rotate(-45) scale(0.1 -0.1)">
       <defs>
        <path id="DejaVuSans-4e" d="M 628 4666 
L 1478 4666 
L 3547 763 
L 3547 4666 
L 4159 4666 
L 4159 0 
L 3309 0 
L 1241 3903 
L 1241 0 
L 628 0 
L 628 4666 
z
" transform="scale(0.015625)"/>
        <path id="DejaVuSans-65" d="M 3597 1894 
L 3597 1613 
L 953 1613 
Q 991 1019 1311 708 
Q 1631 397 2203 397 
Q 2534 397 2845 478 
Q 3156 559 3463 722 
L 3463 178 
Q 3153 47 2828 -22 
Q 2503 -91 2169 -91 
Q 1331 -91 842 396 
Q 353 884 353 1716 
Q 353 2575 817 3079 
Q 1281 3584 2069 3584 
Q 2775 3584 3186 3129 
Q 3597 2675 3597 1894 
z
M 3022 2063 
Q 3016 2534 2758 2815 
Q 2500 3097 2075 3097 
Q 1594 3097 1305 2825 
Q 1016 2553 972 2059 
L 3022 2063 
z
" transform="scale(0.015625)"/>
        <path id="DejaVuSans-74" d="M 1172 4494 
L 1172 3500 
L 2356 3500 
L 2356 3053 
L 1172 3053 
L 1172 1153 
Q 1172 725 1289 603 
Q 1406 481 1766 481 
L 2356 481 
L 2356 0 
L 1766 0 
Q 1100 0 847 248 
Q 594 497 594 1153 
L 594 3053 
L 172 3053 
L 172 3500 
L 594 3500 
L 594 4494 
L 1172 4494 
z
" transform="scale(0.015625)"/>
        <path id="DejaVuSans-72" d="M 2631 2963 
Q 2534 3019 2420 3045 
Q 2306 3072 2169 3072 
Q 1681 3072 1420 2755 
Q 1159 2438 1159 1844 
L 1159 0 
L 581 0 
L 581 3500 
L 1159 3500 
L 1159 2956 
Q 1341 3275 1631 3429 
Q 1922 3584 2338 3584 
Q 2397 3584 2469 3576 
Q 2541 3569 2628 3553 
L 2631 2963 
z
" transform="scale(0.015625)"/>
        <path id="DejaVuSans-61" d="M 2194 1759 
Q 1497 1759 1228 1600 
Q 959 1441 959 1056 
Q 959 750 1161 570 
Q 1363 391 1709 391 
Q 2188 391 2477 730 
Q 2766 1069 2766 1631 
L 2766 1759 
L 2194 1759 
z
M 3341 1997 
L 3341 0 
L 2766 0 
L 2766 531 
Q 2569 213 2275 61 
Q 1981 -91 1556 -91 
Q 1019 -91 701 211 
Q 384 513 384 1019 
Q 384 1609 779 1909 
Q 1175 2209 1959 2209 
L 2766 2209 
L 2766 2266 
Q 2766 2663 2505 2880 
Q 2244 3097 1772 3097 
Q 1472 3097 1187 3025 
Q 903 2953 641 2809 
L 641 3341 
Q 956 3463 1253 3523 
Q 1550 3584 1831 3584 
Q 2591 3584 2966 3190 
Q 3341 2797 3341 1997 
z
" transform="scale(0.015625)"/>
        <path id="DejaVuSans-6c" d="M 603 4863 
L 1178 4863 
L 1178 0 
L 603 0 
L 603 4863 
z
" transform="scale(0.015625)"/>
       </defs>
       <use xlink:href="#DejaVuSans-4e"/>
       <use xlink:href="#DejaVuSans-65" transform="translate(74.804688 0)"/>
       <use xlink:href="#DejaVuSans-75" transform="translate(136.328125 0)"/>
       <use xlink:href="#DejaVuSans-74" transform="translate(199.707031 0)"/>
       <use xlink:href="#DejaVuSans-72" transform="translate(238.916016 0)"/>
       <use xlink:href="#DejaVuSans-61" transform="translate(280.029297 0)"/>
       <use xlink:href="#DejaVuSans-6c" transform="translate(341.308594 0)"/>
      </g>
     </g>
    </g>
    <g id="xtick_4">
     <g id="line2d_4">
      <g>
       <use xlink:href="#m6316dfb7b6" x="454.555625" y="349.101209" style="stroke: #000000; stroke-width: 0.8"/>
      </g>
     </g>
     <g id="text_4">
      <!-- RockNRoll -->
      <g transform="translate(438.98436 396.518991) rotate(-45) scale(0.1 -0.1)">
       <defs>
        <path id="DejaVuSans-52" d="M 2841 2188 
Q 3044 2119 3236 1894 
Q 3428 1669 3622 1275 
L 4263 0 
L 3584 0 
L 2988 1197 
Q 2756 1666 2539 1819 
Q 2322 1972 1947 1972 
L 1259 1972 
L 1259 0 
L 628 0 
L 628 4666 
L 2053 4666 
Q 2853 4666 3247 4331 
Q 3641 3997 3641 3322 
Q 3641 2881 3436 2590 
Q 3231 2300 2841 2188 
z
M 1259 4147 
L 1259 2491 
L 2053 2491 
Q 2509 2491 2742 2702 
Q 2975 2913 2975 3322 
Q 2975 3731 2742 3939 
Q 2509 4147 2053 4147 
L 1259 4147 
z
" transform="scale(0.015625)"/>
        <path id="DejaVuSans-6f" d="M 1959 3097 
Q 1497 3097 1228 2736 
Q 959 2375 959 1747 
Q 959 1119 1226 758 
Q 1494 397 1959 397 
Q 2419 397 2687 759 
Q 2956 1122 2956 1747 
Q 2956 2369 2687 2733 
Q 2419 3097 1959 3097 
z
M 1959 3584 
Q 2709 3584 3137 3096 
Q 3566 2609 3566 1747 
Q 3566 888 3137 398 
Q 2709 -91 1959 -91 
Q 1206 -91 779 398 
Q 353 888 353 1747 
Q 353 2609 779 3096 
Q 1206 3584 1959 3584 
z
" transform="scale(0.015625)"/>
        <path id="DejaVuSans-63" d="M 3122 3366 
L 3122 2828 
Q 2878 2963 2633 3030 
Q 2388 3097 2138 3097 
Q 1578 3097 1268 2742 
Q 959 2388 959 1747 
Q 959 1106 1268 751 
Q 1578 397 2138 397 
Q 2388 397 2633 464 
Q 2878 531 3122 666 
L 3122 134 
Q 2881 22 2623 -34 
Q 2366 -91 2075 -91 
Q 1284 -91 818 406 
Q 353 903 353 1747 
Q 353 2603 823 3093 
Q 1294 3584 2113 3584 
Q 2378 3584 2631 3529 
Q 2884 3475 3122 3366 
z
" transform="scale(0.015625)"/>
        <path id="DejaVuSans-6b" d="M 581 4863 
L 1159 4863 
L 1159 1991 
L 2875 3500 
L 3609 3500 
L 1753 1863 
L 3688 0 
L 2938 0 
L 1159 1709 
L 1159 0 
L 581 0 
L 581 4863 
z
" transform="scale(0.015625)"/>
       </defs>
       <use xlink:href="#DejaVuSans-52"/>
       <use xlink:href="#DejaVuSans-6f" transform="translate(64.982422 0)"/>
       <use xlink:href="#DejaVuSans-63" transform="translate(126.164062 0)"/>
       <use xlink:href="#DejaVuSans-6b" transform="translate(181.144531 0)"/>
       <use xlink:href="#DejaVuSans-4e" transform="translate(239.054688 0)"/>
       <use xlink:href="#DejaVuSans-52" transform="translate(313.859375 0)"/>
       <use xlink:href="#DejaVuSans-6f" transform="translate(378.841797 0)"/>
       <use xlink:href="#DejaVuSans-6c" transform="translate(440.023438 0)"/>
       <use xlink:href="#DejaVuSans-6c" transform="translate(467.806641 0)"/>
      </g>
     </g>
    </g>
    <g id="xtick_5">
     <g id="line2d_5">
      <g>
       <use xlink:href="#m6316dfb7b6" x="567.374196" y="349.101209" style="stroke: #000000; stroke-width: 0.8"/>
      </g>
     </g>
     <g id="text_5">
      <!-- Fist -->
      <g transform="translate(563.338164 373.448528) rotate(-45) scale(0.1 -0.1)">
       <defs>
        <path id="DejaVuSans-46" d="M 628 4666 
L 3309 4666 
L 3309 4134 
L 1259 4134 
L 1259 2759 
L 3109 2759 
L 3109 2228 
L 1259 2228 
L 1259 0 
L 628 0 
L 628 4666 
z
" transform="scale(0.015625)"/>
        <path id="DejaVuSans-69" d="M 603 3500 
L 1178 3500 
L 1178 0 
L 603 0 
L 603 3500 
z
M 603 4863 
L 1178 4863 
L 1178 4134 
L 603 4134 
L 603 4863 
z
" transform="scale(0.015625)"/>
       </defs>
       <use xlink:href="#DejaVuSans-46"/>
       <use xlink:href="#DejaVuSans-69" transform="translate(50.269531 0)"/>
       <use xlink:href="#DejaVuSans-73" transform="translate(78.052734 0)"/>
       <use xlink:href="#DejaVuSans-74" transform="translate(130.152344 0)"/>
      </g>
     </g>
    </g>
    <g id="xtick_6">
     <g id="line2d_6">
      <g>
       <use xlink:href="#m6316dfb7b6" x="680.192768" y="349.101209" style="stroke: #000000; stroke-width: 0.8"/>
      </g>
     </g>
     <g id="text_6">
      <!-- Victory -->
      <g transform="translate(669.783383 386.195232) rotate(-45) scale(0.1 -0.1)">
       <defs>
        <path id="DejaVuSans-56" d="M 1831 0 
L 50 4666 
L 709 4666 
L 2188 738 
L 3669 4666 
L 4325 4666 
L 2547 0 
L 1831 0 
z
" transform="scale(0.015625)"/>
        <path id="DejaVuSans-79" d="M 2059 -325 
Q 1816 -950 1584 -1140 
Q 1353 -1331 966 -1331 
L 506 -1331 
L 506 -850 
L 844 -850 
Q 1081 -850 1212 -737 
Q 1344 -625 1503 -206 
L 1606 56 
L 191 3500 
L 800 3500 
L 1894 763 
L 2988 3500 
L 3597 3500 
L 2059 -325 
z
" transform="scale(0.015625)"/>
       </defs>
       <use xlink:href="#DejaVuSans-56"/>
       <use xlink:href="#DejaVuSans-69" transform="translate(66.158203 0)"/>
       <use xlink:href="#DejaVuSans-63" transform="translate(93.941406 0)"/>
       <use xlink:href="#DejaVuSans-74" transform="translate(148.921875 0)"/>
       <use xlink:href="#DejaVuSans-6f" transform="translate(188.130859 0)"/>
       <use xlink:href="#DejaVuSans-72" transform="translate(249.3125 0)"/>
       <use xlink:href="#DejaVuSans-79" transform="translate(290.425781 0)"/>
      </g>
     </g>
    </g>
    <g id="xtick_7">
     <g id="line2d_7">
      <g>
       <use xlink:href="#m6316dfb7b6" x="793.011339" y="349.101209" style="stroke: #000000; stroke-width: 0.8"/>
      </g>
     </g>
     <g id="text_7">
      <!-- FingerPoint -->
      <g transform="translate(775.31323 400.77268) rotate(-45) scale(0.1 -0.1)">
       <defs>
        <path id="DejaVuSans-67" d="M 2906 1791 
Q 2906 2416 2648 2759 
Q 2391 3103 1925 3103 
Q 1463 3103 1205 2759 
Q 947 2416 947 1791 
Q 947 1169 1205 825 
Q 1463 481 1925 481 
Q 2391 481 2648 825 
Q 2906 1169 2906 1791 
z
M 3481 434 
Q 3481 -459 3084 -895 
Q 2688 -1331 1869 -1331 
Q 1566 -1331 1297 -1286 
Q 1028 -1241 775 -1147 
L 775 -588 
Q 1028 -725 1275 -790 
Q 1522 -856 1778 -856 
Q 2344 -856 2625 -561 
Q 2906 -266 2906 331 
L 2906 616 
Q 2728 306 2450 153 
Q 2172 0 1784 0 
Q 1141 0 747 490 
Q 353 981 353 1791 
Q 353 2603 747 3093 
Q 1141 3584 1784 3584 
Q 2172 3584 2450 3431 
Q 2728 3278 2906 2969 
L 2906 3500 
L 3481 3500 
L 3481 434 
z
" transform="scale(0.015625)"/>
        <path id="DejaVuSans-50" d="M 1259 4147 
L 1259 2394 
L 2053 2394 
Q 2494 2394 2734 2622 
Q 2975 2850 2975 3272 
Q 2975 3691 2734 3919 
Q 2494 4147 2053 4147 
L 1259 4147 
z
M 628 4666 
L 2053 4666 
Q 2838 4666 3239 4311 
Q 3641 3956 3641 3272 
Q 3641 2581 3239 2228 
Q 2838 1875 2053 1875 
L 1259 1875 
L 1259 0 
L 628 0 
L 628 4666 
z
" transform="scale(0.015625)"/>
       </defs>
       <use xlink:href="#DejaVuSans-46"/>
       <use xlink:href="#DejaVuSans-69" transform="translate(50.269531 0)"/>
       <use xlink:href="#DejaVuSans-6e" transform="translate(78.052734 0)"/>
       <use xlink:href="#DejaVuSans-67" transform="translate(141.431641 0)"/>
       <use xlink:href="#DejaVuSans-65" transform="translate(204.908203 0)"/>
       <use xlink:href="#DejaVuSans-72" transform="translate(266.431641 0)"/>
       <use xlink:href="#DejaVuSans-50" transform="translate(307.544922 0)"/>
       <use xlink:href="#DejaVuSans-6f" transform="translate(364.222656 0)"/>
       <use xlink:href="#DejaVuSans-69" transform="translate(425.404297 0)"/>
       <use xlink:href="#DejaVuSans-6e" transform="translate(453.1875 0)"/>
       <use xlink:href="#DejaVuSans-74" transform="translate(516.566406 0)"/>
      </g>
     </g>
    </g>
    <g id="text_8">
     <!-- TargetGesture -->
     <g transform="translate(419.379844 413.841679) scale(0.1 -0.1)">
      <use xlink:href="#DejaVuSans-54"/>
      <use xlink:href="#DejaVuSans-61" transform="translate(44.583984 0)"/>
      <use xlink:href="#DejaVuSans-72" transform="translate(105.863281 0)"/>
      <use xlink:href="#DejaVuSans-67" transform="translate(145.226562 0)"/>
      <use xlink:href="#DejaVuSans-65" transform="translate(208.703125 0)"/>
      <use xlink:href="#DejaVuSans-74" transform="translate(270.226562 0)"/>
      <use xlink:href="#DejaVuSans-47" transform="translate(309.435547 0)"/>
      <use xlink:href="#DejaVuSans-65" transform="translate(386.925781 0)"/>
      <use xlink:href="#DejaVuSans-73" transform="translate(448.449219 0)"/>
      <use xlink:href="#DejaVuSans-74" transform="translate(500.548828 0)"/>
      <use xlink:href="#DejaVuSans-75" transform="translate(539.757812 0)"/>
      <use xlink:href="#DejaVuSans-72" transform="translate(603.136719 0)"/>
      <use xlink:href="#DejaVuSans-65" transform="translate(642 0)"/>
     </g>
    </g>
   </g>
   <g id="matplotlib.axis_2">
    <g id="ytick_1">
     <g id="line2d_8">
      <defs>
       <path id="m49068876a0" d="M 0 0 
L -3.5 0 
" style="stroke: #000000; stroke-width: 0.8"/>
      </defs>
      <g>
       <use xlink:href="#m49068876a0" x="59.690625" y="335.765739" style="stroke: #000000; stroke-width: 0.8"/>
      </g>
     </g>
     <g id="text_9">
      <!-- 0 -->
      <g transform="translate(46.328125 339.564957) scale(0.1 -0.1)">
       <defs>
        <path id="DejaVuSans-30" d="M 2034 4250 
Q 1547 4250 1301 3770 
Q 1056 3291 1056 2328 
Q 1056 1369 1301 889 
Q 1547 409 2034 409 
Q 2525 409 2770 889 
Q 3016 1369 3016 2328 
Q 3016 3291 2770 3770 
Q 2525 4250 2034 4250 
z
M 2034 4750 
Q 2819 4750 3233 4129 
Q 3647 3509 3647 2328 
Q 3647 1150 3233 529 
Q 2819 -91 2034 -91 
Q 1250 -91 836 529 
Q 422 1150 422 2328 
Q 422 3509 836 4129 
Q 1250 4750 2034 4750 
z
" transform="scale(0.015625)"/>
       </defs>
       <use xlink:href="#DejaVuSans-30"/>
      </g>
     </g>
    </g>
    <g id="ytick_2">
     <g id="line2d_9">
      <g>
       <use xlink:href="#m49068876a0" x="59.690625" y="276.174555" style="stroke: #000000; stroke-width: 0.8"/>
      </g>
     </g>
     <g id="text_10">
      <!-- 10000 -->
      <g transform="translate(20.878125 279.973773) scale(0.1 -0.1)">
       <defs>
        <path id="DejaVuSans-31" d="M 794 531 
L 1825 531 
L 1825 4091 
L 703 3866 
L 703 4441 
L 1819 4666 
L 2450 4666 
L 2450 531 
L 3481 531 
L 3481 0 
L 794 0 
L 794 531 
z
" transform="scale(0.015625)"/>
       </defs>
       <use xlink:href="#DejaVuSans-31"/>
       <use xlink:href="#DejaVuSans-30" transform="translate(63.623047 0)"/>
       <use xlink:href="#DejaVuSans-30" transform="translate(127.246094 0)"/>
       <use xlink:href="#DejaVuSans-30" transform="translate(190.869141 0)"/>
       <use xlink:href="#DejaVuSans-30" transform="translate(254.492188 0)"/>
      </g>
     </g>
    </g>
    <g id="ytick_3">
     <g id="line2d_10">
      <g>
       <use xlink:href="#m49068876a0" x="59.690625" y="216.583371" style="stroke: #000000; stroke-width: 0.8"/>
      </g>
     </g>
     <g id="text_11">
      <!-- 20000 -->
      <g transform="translate(20.878125 220.38259) scale(0.1 -0.1)">
       <defs>
        <path id="DejaVuSans-32" d="M 1228 531 
L 3431 531 
L 3431 0 
L 469 0 
L 469 531 
Q 828 903 1448 1529 
Q 2069 2156 2228 2338 
Q 2531 2678 2651 2914 
Q 2772 3150 2772 3378 
Q 2772 3750 2511 3984 
Q 2250 4219 1831 4219 
Q 1534 4219 1204 4116 
Q 875 4013 500 3803 
L 500 4441 
Q 881 4594 1212 4672 
Q 1544 4750 1819 4750 
Q 2544 4750 2975 4387 
Q 3406 4025 3406 3419 
Q 3406 3131 3298 2873 
Q 3191 2616 2906 2266 
Q 2828 2175 2409 1742 
Q 1991 1309 1228 531 
z
" transform="scale(0.015625)"/>
       </defs>
       <use xlink:href="#DejaVuSans-32"/>
       <use xlink:href="#DejaVuSans-30" transform="translate(63.623047 0)"/>
       <use xlink:href="#DejaVuSans-30" transform="translate(127.246094 0)"/>
       <use xlink:href="#DejaVuSans-30" transform="translate(190.869141 0)"/>
       <use xlink:href="#DejaVuSans-30" transform="translate(254.492188 0)"/>
      </g>
     </g>
    </g>
    <g id="ytick_4">
     <g id="line2d_11">
      <g>
       <use xlink:href="#m49068876a0" x="59.690625" y="156.992187" style="stroke: #000000; stroke-width: 0.8"/>
      </g>
     </g>
     <g id="text_12">
      <!-- 30000 -->
      <g transform="translate(20.878125 160.791406) scale(0.1 -0.1)">
       <defs>
        <path id="DejaVuSans-33" d="M 2597 2516 
Q 3050 2419 3304 2112 
Q 3559 1806 3559 1356 
Q 3559 666 3084 287 
Q 2609 -91 1734 -91 
Q 1441 -91 1130 -33 
Q 819 25 488 141 
L 488 750 
Q 750 597 1062 519 
Q 1375 441 1716 441 
Q 2309 441 2620 675 
Q 2931 909 2931 1356 
Q 2931 1769 2642 2001 
Q 2353 2234 1838 2234 
L 1294 2234 
L 1294 2753 
L 1863 2753 
Q 2328 2753 2575 2939 
Q 2822 3125 2822 3475 
Q 2822 3834 2567 4026 
Q 2313 4219 1838 4219 
Q 1578 4219 1281 4162 
Q 984 4106 628 3988 
L 628 4550 
Q 988 4650 1302 4700 
Q 1616 4750 1894 4750 
Q 2613 4750 3031 4423 
Q 3450 4097 3450 3541 
Q 3450 3153 3228 2886 
Q 3006 2619 2597 2516 
z
" transform="scale(0.015625)"/>
       </defs>
       <use xlink:href="#DejaVuSans-33"/>
       <use xlink:href="#DejaVuSans-30" transform="translate(63.623047 0)"/>
       <use xlink:href="#DejaVuSans-30" transform="translate(127.246094 0)"/>
       <use xlink:href="#DejaVuSans-30" transform="translate(190.869141 0)"/>
       <use xlink:href="#DejaVuSans-30" transform="translate(254.492188 0)"/>
      </g>
     </g>
    </g>
    <g id="ytick_5">
     <g id="line2d_12">
      <g>
       <use xlink:href="#m49068876a0" x="59.690625" y="97.401003" style="stroke: #000000; stroke-width: 0.8"/>
      </g>
     </g>
     <g id="text_13">
      <!-- 40000 -->
      <g transform="translate(20.878125 101.200222) scale(0.1 -0.1)">
       <defs>
        <path id="DejaVuSans-34" d="M 2419 4116 
L 825 1625 
L 2419 1625 
L 2419 4116 
z
M 2253 4666 
L 3047 4666 
L 3047 1625 
L 3713 1625 
L 3713 1100 
L 3047 1100 
L 3047 0 
L 2419 0 
L 2419 1100 
L 313 1100 
L 313 1709 
L 2253 4666 
z
" transform="scale(0.015625)"/>
       </defs>
       <use xlink:href="#DejaVuSans-34"/>
       <use xlink:href="#DejaVuSans-30" transform="translate(63.623047 0)"/>
       <use xlink:href="#DejaVuSans-30" transform="translate(127.246094 0)"/>
       <use xlink:href="#DejaVuSans-30" transform="translate(190.869141 0)"/>
       <use xlink:href="#DejaVuSans-30" transform="translate(254.492188 0)"/>
      </g>
     </g>
    </g>
    <g id="ytick_6">
     <g id="line2d_13">
      <g>
       <use xlink:href="#m49068876a0" x="59.690625" y="37.809819" style="stroke: #000000; stroke-width: 0.8"/>
      </g>
     </g>
     <g id="text_14">
      <!-- 50000 -->
      <g transform="translate(20.878125 41.609038) scale(0.1 -0.1)">
       <defs>
        <path id="DejaVuSans-35" d="M 691 4666 
L 3169 4666 
L 3169 4134 
L 1269 4134 
L 1269 2991 
Q 1406 3038 1543 3061 
Q 1681 3084 1819 3084 
Q 2600 3084 3056 2656 
Q 3513 2228 3513 1497 
Q 3513 744 3044 326 
Q 2575 -91 1722 -91 
Q 1428 -91 1123 -41 
Q 819 9 494 109 
L 494 744 
Q 775 591 1075 516 
Q 1375 441 1709 441 
Q 2250 441 2565 725 
Q 2881 1009 2881 1497 
Q 2881 1984 2565 2268 
Q 2250 2553 1709 2553 
Q 1456 2553 1204 2497 
Q 953 2441 691 2322 
L 691 4666 
z
" transform="scale(0.015625)"/>
       </defs>
       <use xlink:href="#DejaVuSans-35"/>
       <use xlink:href="#DejaVuSans-30" transform="translate(63.623047 0)"/>
       <use xlink:href="#DejaVuSans-30" transform="translate(127.246094 0)"/>
       <use xlink:href="#DejaVuSans-30" transform="translate(190.869141 0)"/>
       <use xlink:href="#DejaVuSans-30" transform="translate(254.492188 0)"/>
      </g>
     </g>
    </g>
    <g id="text_15">
     <!-- Time (ms) -->
     <g transform="translate(14.798438 210.908886) rotate(-90) scale(0.1 -0.1)">
      <defs>
       <path id="DejaVuSans-20" transform="scale(0.015625)"/>
       <path id="DejaVuSans-28" d="M 1984 4856 
Q 1566 4138 1362 3434 
Q 1159 2731 1159 2009 
Q 1159 1288 1364 580 
Q 1569 -128 1984 -844 
L 1484 -844 
Q 1016 -109 783 600 
Q 550 1309 550 2009 
Q 550 2706 781 3412 
Q 1013 4119 1484 4856 
L 1984 4856 
z
" transform="scale(0.015625)"/>
       <path id="DejaVuSans-29" d="M 513 4856 
L 1013 4856 
Q 1481 4119 1714 3412 
Q 1947 2706 1947 2009 
Q 1947 1309 1714 600 
Q 1481 -109 1013 -844 
L 513 -844 
Q 928 -128 1133 580 
Q 1338 1288 1338 2009 
Q 1338 2731 1133 3434 
Q 928 4138 513 4856 
z
" transform="scale(0.015625)"/>
      </defs>
      <use xlink:href="#DejaVuSans-54"/>
      <use xlink:href="#DejaVuSans-69" transform="translate(57.958984 0)"/>
      <use xlink:href="#DejaVuSans-6d" transform="translate(85.742188 0)"/>
      <use xlink:href="#DejaVuSans-65" transform="translate(183.154297 0)"/>
      <use xlink:href="#DejaVuSans-20" transform="translate(244.677734 0)"/>
      <use xlink:href="#DejaVuSans-28" transform="translate(276.464844 0)"/>
      <use xlink:href="#DejaVuSans-6d" transform="translate(315.478516 0)"/>
      <use xlink:href="#DejaVuSans-73" transform="translate(412.890625 0)"/>
      <use xlink:href="#DejaVuSans-29" transform="translate(464.990234 0)"/>
     </g>
    </g>
   </g>
   <g id="patch_5">
    <path d="M 70.972482 329.380146 
L 116.099911 329.380146 
L 116.099911 298.64024 
L 70.972482 298.64024 
L 70.972482 329.380146 
z
" clip-path="url(#p6fd8db7e6b)" style="fill: #4ac76f; stroke: #1f1f1f; stroke-linejoin: miter"/>
   </g>
   <g id="line2d_14">
    <path d="M 93.536196 329.380146 
L 93.536196 330.222299 
" clip-path="url(#p6fd8db7e6b)" style="fill: none; stroke: #1f1f1f"/>
   </g>
   <g id="line2d_15">
    <path d="M 93.536196 298.64024 
L 93.536196 279.072383 
" clip-path="url(#p6fd8db7e6b)" style="fill: none; stroke: #1f1f1f"/>
   </g>
   <g id="line2d_16">
    <path d="M 82.254339 330.222299 
L 104.818054 330.222299 
" clip-path="url(#p6fd8db7e6b)" style="fill: none; stroke: #1f1f1f; stroke-linecap: square"/>
   </g>
   <g id="line2d_17">
    <path d="M 82.254339 279.072383 
L 104.818054 279.072383 
" clip-path="url(#p6fd8db7e6b)" style="fill: none; stroke: #1f1f1f; stroke-linecap: square"/>
   </g>
   <g id="line2d_18"/>
   <g id="patch_6">
    <path d="M 183.791054 330.008262 
L 228.918482 330.008262 
L 228.918482 322.77244 
L 183.791054 322.77244 
L 183.791054 330.008262 
z
" clip-path="url(#p6fd8db7e6b)" style="fill: #4ac76f; stroke: #1f1f1f; stroke-linejoin: miter"/>
   </g>
   <g id="line2d_19">
    <path d="M 206.354768 330.008262 
L 206.354768 331.164557 
" clip-path="url(#p6fd8db7e6b)" style="fill: none; stroke: #1f1f1f"/>
   </g>
   <g id="line2d_20">
    <path d="M 206.354768 322.77244 
L 206.354768 314.219121 
" clip-path="url(#p6fd8db7e6b)" style="fill: none; stroke: #1f1f1f"/>
   </g>
   <g id="line2d_21">
    <path d="M 195.072911 331.164557 
L 217.636625 331.164557 
" clip-path="url(#p6fd8db7e6b)" style="fill: none; stroke: #1f1f1f; stroke-linecap: square"/>
   </g>
   <g id="line2d_22">
    <path d="M 195.072911 314.219121 
L 217.636625 314.219121 
" clip-path="url(#p6fd8db7e6b)" style="fill: none; stroke: #1f1f1f; stroke-linecap: square"/>
   </g>
   <g id="line2d_23">
    <defs>
     <path id="m3c67dd7cfe" d="M 0 3 
C 0.795609 3 1.55874 2.683901 2.12132 2.12132 
C 2.683901 1.55874 3 0.795609 3 0 
C 3 -0.795609 2.683901 -1.55874 2.12132 -2.12132 
C 1.55874 -2.683901 0.795609 -3 0 -3 
C -0.795609 -3 -1.55874 -2.683901 -2.12132 -2.12132 
C -2.683901 -1.55874 -3 -0.795609 -3 0 
C -3 0.795609 -2.683901 1.55874 -2.12132 2.12132 
C -1.55874 2.683901 -0.795609 3 0 3 
z
" style="stroke: #1f1f1f"/>
    </defs>
    <g clip-path="url(#p6fd8db7e6b)">
     <use xlink:href="#m3c67dd7cfe" x="206.354768" y="311.893617" style="fill-opacity: 0; stroke: #1f1f1f"/>
     <use xlink:href="#m3c67dd7cfe" x="206.354768" y="299.669691" style="fill-opacity: 0; stroke: #1f1f1f"/>
    </g>
   </g>
   <g id="patch_7">
    <path d="M 296.609625 328.938509 
L 341.737054 328.938509 
L 341.737054 322.020506 
L 296.609625 322.020506 
L 296.609625 328.938509 
z
" clip-path="url(#p6fd8db7e6b)" style="fill: #4ac76f; stroke: #1f1f1f; stroke-linejoin: miter"/>
   </g>
   <g id="line2d_24">
    <path d="M 319.173339 328.938509 
L 319.173339 334.247433 
" clip-path="url(#p6fd8db7e6b)" style="fill: none; stroke: #1f1f1f"/>
   </g>
   <g id="line2d_25">
    <path d="M 319.173339 322.020506 
L 319.173339 321.693113 
" clip-path="url(#p6fd8db7e6b)" style="fill: none; stroke: #1f1f1f"/>
   </g>
   <g id="line2d_26">
    <path d="M 307.891482 334.247433 
L 330.455196 334.247433 
" clip-path="url(#p6fd8db7e6b)" style="fill: none; stroke: #1f1f1f; stroke-linecap: square"/>
   </g>
   <g id="line2d_27">
    <path d="M 307.891482 321.693113 
L 330.455196 321.693113 
" clip-path="url(#p6fd8db7e6b)" style="fill: none; stroke: #1f1f1f; stroke-linecap: square"/>
   </g>
   <g id="line2d_28">
    <g clip-path="url(#p6fd8db7e6b)">
     <use xlink:href="#m3c67dd7cfe" x="319.173339" y="302.166293" style="fill-opacity: 0; stroke: #1f1f1f"/>
     <use xlink:href="#m3c67dd7cfe" x="319.173339" y="310.270223" style="fill-opacity: 0; stroke: #1f1f1f"/>
     <use xlink:href="#m3c67dd7cfe" x="319.173339" y="307.356435" style="fill-opacity: 0; stroke: #1f1f1f"/>
     <use xlink:href="#m3c67dd7cfe" x="319.173339" y="303.484154" style="fill-opacity: 0; stroke: #1f1f1f"/>
    </g>
   </g>
   <g id="patch_8">
    <path d="M 409.428196 323.268386 
L 454.555625 323.268386 
L 454.555625 301.927443 
L 409.428196 301.927443 
L 409.428196 323.268386 
z
" clip-path="url(#p6fd8db7e6b)" style="fill: #4ac76f; stroke: #1f1f1f; stroke-linejoin: miter"/>
   </g>
   <g id="line2d_29">
    <path d="M 431.991911 323.268386 
L 431.991911 327.261119 
" clip-path="url(#p6fd8db7e6b)" style="fill: none; stroke: #1f1f1f"/>
   </g>
   <g id="line2d_30">
    <path d="M 431.991911 301.927443 
L 431.991911 273.561196 
" clip-path="url(#p6fd8db7e6b)" style="fill: none; stroke: #1f1f1f"/>
   </g>
   <g id="line2d_31">
    <path d="M 420.710054 327.261119 
L 443.273768 327.261119 
" clip-path="url(#p6fd8db7e6b)" style="fill: none; stroke: #1f1f1f; stroke-linecap: square"/>
   </g>
   <g id="line2d_32">
    <path d="M 420.710054 273.561196 
L 443.273768 273.561196 
" clip-path="url(#p6fd8db7e6b)" style="fill: none; stroke: #1f1f1f; stroke-linecap: square"/>
   </g>
   <g id="line2d_33">
    <g clip-path="url(#p6fd8db7e6b)">
     <use xlink:href="#m3c67dd7cfe" x="431.991911" y="166.027492" style="fill-opacity: 0; stroke: #1f1f1f"/>
    </g>
   </g>
   <g id="patch_9">
    <path d="M 522.246768 330.757106 
L 567.374196 330.757106 
L 567.374196 328.542987 
L 522.246768 328.542987 
L 522.246768 330.757106 
z
" clip-path="url(#p6fd8db7e6b)" style="fill: #4ac76f; stroke: #1f1f1f; stroke-linejoin: miter"/>
   </g>
   <g id="line2d_34">
    <path d="M 544.810482 330.757106 
L 544.810482 332.332707 
" clip-path="url(#p6fd8db7e6b)" style="fill: none; stroke: #1f1f1f"/>
   </g>
   <g id="line2d_35">
    <path d="M 544.810482 328.542987 
L 544.810482 326.689535 
" clip-path="url(#p6fd8db7e6b)" style="fill: none; stroke: #1f1f1f"/>
   </g>
   <g id="line2d_36">
    <path d="M 533.528625 332.332707 
L 556.092339 332.332707 
" clip-path="url(#p6fd8db7e6b)" style="fill: none; stroke: #1f1f1f; stroke-linecap: square"/>
   </g>
   <g id="line2d_37">
    <path d="M 533.528625 326.689535 
L 556.092339 326.689535 
" clip-path="url(#p6fd8db7e6b)" style="fill: none; stroke: #1f1f1f; stroke-linecap: square"/>
   </g>
   <g id="line2d_38">
    <g clip-path="url(#p6fd8db7e6b)">
     <use xlink:href="#m3c67dd7cfe" x="544.810482" y="322.431878" style="fill-opacity: 0; stroke: #1f1f1f"/>
     <use xlink:href="#m3c67dd7cfe" x="544.810482" y="312.433554" style="fill-opacity: 0; stroke: #1f1f1f"/>
     <use xlink:href="#m3c67dd7cfe" x="544.810482" y="323.3307" style="fill-opacity: 0; stroke: #1f1f1f"/>
    </g>
   </g>
   <g id="patch_10">
    <path d="M 635.065339 326.550136 
L 680.192768 326.550136 
L 680.192768 317.624295 
L 635.065339 317.624295 
L 635.065339 326.550136 
z
" clip-path="url(#p6fd8db7e6b)" style="fill: #4ac76f; stroke: #1f1f1f; stroke-linejoin: miter"/>
   </g>
   <g id="line2d_39">
    <path d="M 657.629054 326.550136 
L 657.629054 331.456494 
" clip-path="url(#p6fd8db7e6b)" style="fill: none; stroke: #1f1f1f"/>
   </g>
   <g id="line2d_40">
    <path d="M 657.629054 317.624295 
L 657.629054 305.304342 
" clip-path="url(#p6fd8db7e6b)" style="fill: none; stroke: #1f1f1f"/>
   </g>
   <g id="line2d_41">
    <path d="M 646.347196 331.456494 
L 668.910911 331.456494 
" clip-path="url(#p6fd8db7e6b)" style="fill: none; stroke: #1f1f1f; stroke-linecap: square"/>
   </g>
   <g id="line2d_42">
    <path d="M 646.347196 305.304342 
L 668.910911 305.304342 
" clip-path="url(#p6fd8db7e6b)" style="fill: none; stroke: #1f1f1f; stroke-linecap: square"/>
   </g>
   <g id="line2d_43">
    <g clip-path="url(#p6fd8db7e6b)">
     <use xlink:href="#m3c67dd7cfe" x="657.629054" y="298.336772" style="fill-opacity: 0; stroke: #1f1f1f"/>
    </g>
   </g>
   <g id="patch_11">
    <path d="M 747.883911 329.314381 
L 793.011339 329.314381 
L 793.011339 326.811022 
L 747.883911 326.811022 
L 747.883911 329.314381 
z
" clip-path="url(#p6fd8db7e6b)" style="fill: #4ac76f; stroke: #1f1f1f; stroke-linejoin: miter"/>
   </g>
   <g id="line2d_44">
    <path d="M 770.447625 329.314381 
L 770.447625 331.076549 
" clip-path="url(#p6fd8db7e6b)" style="fill: none; stroke: #1f1f1f"/>
   </g>
   <g id="line2d_45">
    <path d="M 770.447625 326.811022 
L 770.447625 325.659509 
" clip-path="url(#p6fd8db7e6b)" style="fill: none; stroke: #1f1f1f"/>
   </g>
   <g id="line2d_46">
    <path d="M 759.165768 331.076549 
L 781.729482 331.076549 
" clip-path="url(#p6fd8db7e6b)" style="fill: none; stroke: #1f1f1f; stroke-linecap: square"/>
   </g>
   <g id="line2d_47">
    <path d="M 759.165768 325.659509 
L 781.729482 325.659509 
" clip-path="url(#p6fd8db7e6b)" style="fill: none; stroke: #1f1f1f; stroke-linecap: square"/>
   </g>
   <g id="line2d_48">
    <g clip-path="url(#p6fd8db7e6b)">
     <use xlink:href="#m3c67dd7cfe" x="770.447625" y="320.017088" style="fill-opacity: 0; stroke: #1f1f1f"/>
     <use xlink:href="#m3c67dd7cfe" x="770.447625" y="321.337224" style="fill-opacity: 0; stroke: #1f1f1f"/>
    </g>
   </g>
   <g id="patch_12">
    <path d="M 116.099911 327.155433 
L 161.227339 327.155433 
L 161.227339 314.18907 
L 116.099911 314.18907 
L 116.099911 327.155433 
z
" clip-path="url(#p6fd8db7e6b)" style="fill: #207cdf; stroke: #1f1f1f; stroke-linejoin: miter"/>
   </g>
   <g id="line2d_49">
    <path d="M 138.663625 327.155433 
L 138.663625 330.613872 
" clip-path="url(#p6fd8db7e6b)" style="fill: none; stroke: #1f1f1f"/>
   </g>
   <g id="line2d_50">
    <path d="M 138.663625 314.18907 
L 138.663625 295.731288 
" clip-path="url(#p6fd8db7e6b)" style="fill: none; stroke: #1f1f1f"/>
   </g>
   <g id="line2d_51">
    <path d="M 127.381768 330.613872 
L 149.945482 330.613872 
" clip-path="url(#p6fd8db7e6b)" style="fill: none; stroke: #1f1f1f; stroke-linecap: square"/>
   </g>
   <g id="line2d_52">
    <path d="M 127.381768 295.731288 
L 149.945482 295.731288 
" clip-path="url(#p6fd8db7e6b)" style="fill: none; stroke: #1f1f1f; stroke-linecap: square"/>
   </g>
   <g id="line2d_53">
    <g clip-path="url(#p6fd8db7e6b)">
     <use xlink:href="#m3c67dd7cfe" x="138.663625" y="291.06569" style="fill-opacity: 0; stroke: #1f1f1f"/>
    </g>
   </g>
   <g id="patch_13">
    <path d="M 228.918482 328.045857 
L 274.045911 328.045857 
L 274.045911 319.4205 
L 228.918482 319.4205 
L 228.918482 328.045857 
z
" clip-path="url(#p6fd8db7e6b)" style="fill: #207cdf; stroke: #1f1f1f; stroke-linejoin: miter"/>
   </g>
   <g id="line2d_54">
    <path d="M 251.482196 328.045857 
L 251.482196 331.108651 
" clip-path="url(#p6fd8db7e6b)" style="fill: none; stroke: #1f1f1f"/>
   </g>
   <g id="line2d_55">
    <path d="M 251.482196 319.4205 
L 251.482196 312.639264 
" clip-path="url(#p6fd8db7e6b)" style="fill: none; stroke: #1f1f1f"/>
   </g>
   <g id="line2d_56">
    <path d="M 240.200339 331.108651 
L 262.764054 331.108651 
" clip-path="url(#p6fd8db7e6b)" style="fill: none; stroke: #1f1f1f; stroke-linecap: square"/>
   </g>
   <g id="line2d_57">
    <path d="M 240.200339 312.639264 
L 262.764054 312.639264 
" clip-path="url(#p6fd8db7e6b)" style="fill: none; stroke: #1f1f1f; stroke-linecap: square"/>
   </g>
   <g id="line2d_58">
    <g clip-path="url(#p6fd8db7e6b)">
     <use xlink:href="#m3c67dd7cfe" x="251.482196" y="301.111598" style="fill-opacity: 0; stroke: #1f1f1f"/>
     <use xlink:href="#m3c67dd7cfe" x="251.482196" y="301.765016" style="fill-opacity: 0; stroke: #1f1f1f"/>
     <use xlink:href="#m3c67dd7cfe" x="251.482196" y="278.726262" style="fill-opacity: 0; stroke: #1f1f1f"/>
    </g>
   </g>
   <g id="patch_14">
    <path d="M 341.737054 329.462251 
L 386.864482 329.462251 
L 386.864482 327.019591 
L 341.737054 327.019591 
L 341.737054 329.462251 
z
" clip-path="url(#p6fd8db7e6b)" style="fill: #207cdf; stroke: #1f1f1f; stroke-linejoin: miter"/>
   </g>
   <g id="line2d_59">
    <path d="M 364.300768 329.462251 
L 364.300768 331.623169 
" clip-path="url(#p6fd8db7e6b)" style="fill: none; stroke: #1f1f1f"/>
   </g>
   <g id="line2d_60">
    <path d="M 364.300768 327.019591 
L 364.300768 326.951798 
" clip-path="url(#p6fd8db7e6b)" style="fill: none; stroke: #1f1f1f"/>
   </g>
   <g id="line2d_61">
    <path d="M 353.018911 331.623169 
L 375.582625 331.623169 
" clip-path="url(#p6fd8db7e6b)" style="fill: none; stroke: #1f1f1f; stroke-linecap: square"/>
   </g>
   <g id="line2d_62">
    <path d="M 353.018911 326.951798 
L 375.582625 326.951798 
" clip-path="url(#p6fd8db7e6b)" style="fill: none; stroke: #1f1f1f; stroke-linecap: square"/>
   </g>
   <g id="line2d_63">
    <g clip-path="url(#p6fd8db7e6b)">
     <use xlink:href="#m3c67dd7cfe" x="364.300768" y="321.449729" style="fill-opacity: 0; stroke: #1f1f1f"/>
     <use xlink:href="#m3c67dd7cfe" x="364.300768" y="301.555344" style="fill-opacity: 0; stroke: #1f1f1f"/>
    </g>
   </g>
   <g id="patch_15">
    <path d="M 454.555625 294.47286 
L 499.683054 294.47286 
L 499.683054 227.678229 
L 454.555625 227.678229 
L 454.555625 294.47286 
z
" clip-path="url(#p6fd8db7e6b)" style="fill: #207cdf; stroke: #1f1f1f; stroke-linejoin: miter"/>
   </g>
   <g id="line2d_64">
    <path d="M 477.119339 294.47286 
L 477.119339 326.846557 
" clip-path="url(#p6fd8db7e6b)" style="fill: none; stroke: #1f1f1f"/>
   </g>
   <g id="line2d_65">
    <path d="M 477.119339 227.678229 
L 477.119339 148.542058 
" clip-path="url(#p6fd8db7e6b)" style="fill: none; stroke: #1f1f1f"/>
   </g>
   <g id="line2d_66">
    <path d="M 465.837482 326.846557 
L 488.401196 326.846557 
" clip-path="url(#p6fd8db7e6b)" style="fill: none; stroke: #1f1f1f; stroke-linecap: square"/>
   </g>
   <g id="line2d_67">
    <path d="M 465.837482 148.542058 
L 488.401196 148.542058 
" clip-path="url(#p6fd8db7e6b)" style="fill: none; stroke: #1f1f1f; stroke-linecap: square"/>
   </g>
   <g id="line2d_68">
    <g clip-path="url(#p6fd8db7e6b)">
     <use xlink:href="#m3c67dd7cfe" x="477.119339" y="37.171902" style="fill-opacity: 0; stroke: #1f1f1f"/>
    </g>
   </g>
   <g id="patch_16">
    <path d="M 567.374196 329.327702 
L 612.501625 329.327702 
L 612.501625 322.936558 
L 567.374196 322.936558 
L 567.374196 329.327702 
z
" clip-path="url(#p6fd8db7e6b)" style="fill: #207cdf; stroke: #1f1f1f; stroke-linejoin: miter"/>
   </g>
   <g id="line2d_69">
    <path d="M 589.937911 329.327702 
L 589.937911 331.249171 
" clip-path="url(#p6fd8db7e6b)" style="fill: none; stroke: #1f1f1f"/>
   </g>
   <g id="line2d_70">
    <path d="M 589.937911 322.936558 
L 589.937911 314.662532 
" clip-path="url(#p6fd8db7e6b)" style="fill: none; stroke: #1f1f1f"/>
   </g>
   <g id="line2d_71">
    <path d="M 578.656054 331.249171 
L 601.219768 331.249171 
" clip-path="url(#p6fd8db7e6b)" style="fill: none; stroke: #1f1f1f; stroke-linecap: square"/>
   </g>
   <g id="line2d_72">
    <path d="M 578.656054 314.662532 
L 601.219768 314.662532 
" clip-path="url(#p6fd8db7e6b)" style="fill: none; stroke: #1f1f1f; stroke-linecap: square"/>
   </g>
   <g id="line2d_73">
    <g clip-path="url(#p6fd8db7e6b)">
     <use xlink:href="#m3c67dd7cfe" x="589.937911" y="260.644021" style="fill-opacity: 0; stroke: #1f1f1f"/>
     <use xlink:href="#m3c67dd7cfe" x="589.937911" y="242.936138" style="fill-opacity: 0; stroke: #1f1f1f"/>
    </g>
   </g>
   <g id="patch_17">
    <path d="M 680.192768 325.911466 
L 725.320196 325.911466 
L 725.320196 289.834929 
L 680.192768 289.834929 
L 680.192768 325.911466 
z
" clip-path="url(#p6fd8db7e6b)" style="fill: #207cdf; stroke: #1f1f1f; stroke-linejoin: miter"/>
   </g>
   <g id="line2d_74">
    <path d="M 702.756482 325.911466 
L 702.756482 329.903359 
" clip-path="url(#p6fd8db7e6b)" style="fill: none; stroke: #1f1f1f"/>
   </g>
   <g id="line2d_75">
    <path d="M 702.756482 289.834929 
L 702.756482 243.199984 
" clip-path="url(#p6fd8db7e6b)" style="fill: none; stroke: #1f1f1f"/>
   </g>
   <g id="line2d_76">
    <path d="M 691.474625 329.903359 
L 714.038339 329.903359 
" clip-path="url(#p6fd8db7e6b)" style="fill: none; stroke: #1f1f1f; stroke-linecap: square"/>
   </g>
   <g id="line2d_77">
    <path d="M 691.474625 243.199984 
L 714.038339 243.199984 
" clip-path="url(#p6fd8db7e6b)" style="fill: none; stroke: #1f1f1f; stroke-linecap: square"/>
   </g>
   <g id="line2d_78"/>
   <g id="patch_18">
    <path d="M 793.011339 328.406663 
L 838.138768 328.406663 
L 838.138768 301.383871 
L 793.011339 301.383871 
L 793.011339 328.406663 
z
" clip-path="url(#p6fd8db7e6b)" style="fill: #207cdf; stroke: #1f1f1f; stroke-linejoin: miter"/>
   </g>
   <g id="line2d_79">
    <path d="M 815.575054 328.406663 
L 815.575054 330.105832 
" clip-path="url(#p6fd8db7e6b)" style="fill: none; stroke: #1f1f1f"/>
   </g>
   <g id="line2d_80">
    <path d="M 815.575054 301.383871 
L 815.575054 264.684758 
" clip-path="url(#p6fd8db7e6b)" style="fill: none; stroke: #1f1f1f"/>
   </g>
   <g id="line2d_81">
    <path d="M 804.293196 330.105832 
L 826.856911 330.105832 
" clip-path="url(#p6fd8db7e6b)" style="fill: none; stroke: #1f1f1f; stroke-linecap: square"/>
   </g>
   <g id="line2d_82">
    <path d="M 804.293196 264.684758 
L 826.856911 264.684758 
" clip-path="url(#p6fd8db7e6b)" style="fill: none; stroke: #1f1f1f; stroke-linecap: square"/>
   </g>
   <g id="line2d_83"/>
   <g id="line2d_84">
    <path d="M 70.972482 321.365209 
L 116.099911 321.365209 
" clip-path="url(#p6fd8db7e6b)" style="fill: none; stroke: #1f1f1f"/>
   </g>
   <g id="line2d_85">
    <path d="M 183.791054 328.579479 
L 228.918482 328.579479 
" clip-path="url(#p6fd8db7e6b)" style="fill: none; stroke: #1f1f1f"/>
   </g>
   <g id="line2d_86">
    <path d="M 296.609625 326.335343 
L 341.737054 326.335343 
" clip-path="url(#p6fd8db7e6b)" style="fill: none; stroke: #1f1f1f"/>
   </g>
   <g id="line2d_87">
    <path d="M 409.428196 315.187717 
L 454.555625 315.187717 
" clip-path="url(#p6fd8db7e6b)" style="fill: none; stroke: #1f1f1f"/>
   </g>
   <g id="line2d_88">
    <path d="M 522.246768 329.796266 
L 567.374196 329.796266 
" clip-path="url(#p6fd8db7e6b)" style="fill: none; stroke: #1f1f1f"/>
   </g>
   <g id="line2d_89">
    <path d="M 635.065339 321.473159 
L 680.192768 321.473159 
" clip-path="url(#p6fd8db7e6b)" style="fill: none; stroke: #1f1f1f"/>
   </g>
   <g id="line2d_90">
    <path d="M 747.883911 328.916562 
L 793.011339 328.916562 
" clip-path="url(#p6fd8db7e6b)" style="fill: none; stroke: #1f1f1f"/>
   </g>
   <g id="line2d_91">
    <path d="M 116.099911 323.921666 
L 161.227339 323.921666 
" clip-path="url(#p6fd8db7e6b)" style="fill: none; stroke: #1f1f1f"/>
   </g>
   <g id="line2d_92">
    <path d="M 228.918482 322.992212 
L 274.045911 322.992212 
" clip-path="url(#p6fd8db7e6b)" style="fill: none; stroke: #1f1f1f"/>
   </g>
   <g id="line2d_93">
    <path d="M 341.737054 328.416839 
L 386.864482 328.416839 
" clip-path="url(#p6fd8db7e6b)" style="fill: none; stroke: #1f1f1f"/>
   </g>
   <g id="line2d_94">
    <path d="M 454.555625 271.513713 
L 499.683054 271.513713 
" clip-path="url(#p6fd8db7e6b)" style="fill: none; stroke: #1f1f1f"/>
   </g>
   <g id="line2d_95">
    <path d="M 567.374196 327.072288 
L 612.501625 327.072288 
" clip-path="url(#p6fd8db7e6b)" style="fill: none; stroke: #1f1f1f"/>
   </g>
   <g id="line2d_96">
    <path d="M 680.192768 307.249052 
L 725.320196 307.249052 
" clip-path="url(#p6fd8db7e6b)" style="fill: none; stroke: #1f1f1f"/>
   </g>
   <g id="line2d_97">
    <path d="M 793.011339 320.230137 
L 838.138768 320.230137 
" clip-path="url(#p6fd8db7e6b)" style="fill: none; stroke: #1f1f1f"/>
   </g>
   <g id="patch_19">
    <path d="M 59.690625 349.101209 
L 59.690625 22.318125 
" style="fill: none; stroke: #000000; stroke-width: 0.8; stroke-linejoin: miter; stroke-linecap: square"/>
   </g>
   <g id="patch_20">
    <path d="M 849.420625 349.101209 
L 849.420625 22.318125 
" style="fill: none; stroke: #000000; stroke-width: 0.8; stroke-linejoin: miter; stroke-linecap: square"/>
   </g>
   <g id="patch_21">
    <path d="M 59.690625 349.101209 
L 849.420625 349.101209 
" style="fill: none; stroke: #000000; stroke-width: 0.8; stroke-linejoin: miter; stroke-linecap: square"/>
   </g>
   <g id="patch_22">
    <path d="M 59.690625 22.318125 
L 849.420625 22.318125 
" style="fill: none; stroke: #000000; stroke-width: 0.8; stroke-linejoin: miter; stroke-linecap: square"/>
   </g>
   <g id="text_16">
    <!-- Reaction Time by Gesture Type (Practice) -->
    <g transform="translate(330.849688 16.318125) scale(0.12 -0.12)">
     <use xlink:href="#DejaVuSans-52"/>
     <use xlink:href="#DejaVuSans-65" transform="translate(64.982422 0)"/>
     <use xlink:href="#DejaVuSans-61" transform="translate(126.505859 0)"/>
     <use xlink:href="#DejaVuSans-63" transform="translate(187.785156 0)"/>
     <use xlink:href="#DejaVuSans-74" transform="translate(242.765625 0)"/>
     <use xlink:href="#DejaVuSans-69" transform="translate(281.974609 0)"/>
     <use xlink:href="#DejaVuSans-6f" transform="translate(309.757812 0)"/>
     <use xlink:href="#DejaVuSans-6e" transform="translate(370.939453 0)"/>
     <use xlink:href="#DejaVuSans-20" transform="translate(434.318359 0)"/>
     <use xlink:href="#DejaVuSans-54" transform="translate(466.105469 0)"/>
     <use xlink:href="#DejaVuSans-69" transform="translate(524.064453 0)"/>
     <use xlink:href="#DejaVuSans-6d" transform="translate(551.847656 0)"/>
     <use xlink:href="#DejaVuSans-65" transform="translate(649.259766 0)"/>
     <use xlink:href="#DejaVuSans-20" transform="translate(710.783203 0)"/>
     <use xlink:href="#DejaVuSans-62" transform="translate(742.570312 0)"/>
     <use xlink:href="#DejaVuSans-79" transform="translate(806.046875 0)"/>
     <use xlink:href="#DejaVuSans-20" transform="translate(865.226562 0)"/>
     <use xlink:href="#DejaVuSans-47" transform="translate(897.013672 0)"/>
     <use xlink:href="#DejaVuSans-65" transform="translate(974.503906 0)"/>
     <use xlink:href="#DejaVuSans-73" transform="translate(1036.027344 0)"/>
     <use xlink:href="#DejaVuSans-74" transform="translate(1088.126953 0)"/>
     <use xlink:href="#DejaVuSans-75" transform="translate(1127.335938 0)"/>
     <use xlink:href="#DejaVuSans-72" transform="translate(1190.714844 0)"/>
     <use xlink:href="#DejaVuSans-65" transform="translate(1229.578125 0)"/>
     <use xlink:href="#DejaVuSans-20" transform="translate(1291.101562 0)"/>
     <use xlink:href="#DejaVuSans-54" transform="translate(1322.888672 0)"/>
     <use xlink:href="#DejaVuSans-79" transform="translate(1368.347656 0)"/>
     <use xlink:href="#DejaVuSans-70" transform="translate(1427.527344 0)"/>
     <use xlink:href="#DejaVuSans-65" transform="translate(1491.003906 0)"/>
     <use xlink:href="#DejaVuSans-20" transform="translate(1552.527344 0)"/>
     <use xlink:href="#DejaVuSans-28" transform="translate(1584.314453 0)"/>
     <use xlink:href="#DejaVuSans-50" transform="translate(1623.328125 0)"/>
     <use xlink:href="#DejaVuSans-72" transform="translate(1681.880859 0)"/>
     <use xlink:href="#DejaVuSans-61" transform="translate(1722.994141 0)"/>
     <use xlink:href="#DejaVuSans-63" transform="translate(1784.273438 0)"/>
     <use xlink:href="#DejaVuSans-74" transform="translate(1839.253906 0)"/>
     <use xlink:href="#DejaVuSans-69" transform="translate(1878.462891 0)"/>
     <use xlink:href="#DejaVuSans-63" transform="translate(1906.246094 0)"/>
     <use xlink:href="#DejaVuSans-65" transform="translate(1961.226562 0)"/>
     <use xlink:href="#DejaVuSans-29" transform="translate(2022.75 0)"/>
    </g>
   </g>
   <g id="legend_1">
    <g id="patch_23">
     <path d="M 739.88625 74.3525 
L 842.420625 74.3525 
Q 844.420625 74.3525 844.420625 72.3525 
L 844.420625 29.318125 
Q 844.420625 27.318125 842.420625 27.318125 
L 739.88625 27.318125 
Q 737.88625 27.318125 737.88625 29.318125 
L 737.88625 72.3525 
Q 737.88625 74.3525 739.88625 74.3525 
z
" style="fill: #ffffff; opacity: 0.8; stroke: #cccccc; stroke-linejoin: miter"/>
    </g>
    <g id="text_17">
     <!-- Condition -->
     <g transform="translate(767.293281 38.916562) scale(0.1 -0.1)">
      <defs>
       <path id="DejaVuSans-43" d="M 4122 4306 
L 4122 3641 
Q 3803 3938 3442 4084 
Q 3081 4231 2675 4231 
Q 1875 4231 1450 3742 
Q 1025 3253 1025 2328 
Q 1025 1406 1450 917 
Q 1875 428 2675 428 
Q 3081 428 3442 575 
Q 3803 722 4122 1019 
L 4122 359 
Q 3791 134 3420 21 
Q 3050 -91 2638 -91 
Q 1578 -91 968 557 
Q 359 1206 359 2328 
Q 359 3453 968 4101 
Q 1578 4750 2638 4750 
Q 3056 4750 3426 4639 
Q 3797 4528 4122 4306 
z
" transform="scale(0.015625)"/>
       <path id="DejaVuSans-64" d="M 2906 2969 
L 2906 4863 
L 3481 4863 
L 3481 0 
L 2906 0 
L 2906 525 
Q 2725 213 2448 61 
Q 2172 -91 1784 -91 
Q 1150 -91 751 415 
Q 353 922 353 1747 
Q 353 2572 751 3078 
Q 1150 3584 1784 3584 
Q 2172 3584 2448 3432 
Q 2725 3281 2906 2969 
z
M 947 1747 
Q 947 1113 1208 752 
Q 1469 391 1925 391 
Q 2381 391 2643 752 
Q 2906 1113 2906 1747 
Q 2906 2381 2643 2742 
Q 2381 3103 1925 3103 
Q 1469 3103 1208 2742 
Q 947 2381 947 1747 
z
" transform="scale(0.015625)"/>
      </defs>
      <use xlink:href="#DejaVuSans-43"/>
      <use xlink:href="#DejaVuSans-6f" transform="translate(69.824219 0)"/>
      <use xlink:href="#DejaVuSans-6e" transform="translate(131.005859 0)"/>
      <use xlink:href="#DejaVuSans-64" transform="translate(194.384766 0)"/>
      <use xlink:href="#DejaVuSans-69" transform="translate(257.861328 0)"/>
      <use xlink:href="#DejaVuSans-74" transform="translate(285.644531 0)"/>
      <use xlink:href="#DejaVuSans-69" transform="translate(324.853516 0)"/>
      <use xlink:href="#DejaVuSans-6f" transform="translate(352.636719 0)"/>
      <use xlink:href="#DejaVuSans-6e" transform="translate(413.818359 0)"/>
     </g>
    </g>
    <g id="patch_24">
     <path d="M 741.88625 53.594687 
L 761.88625 53.594687 
L 761.88625 46.594687 
L 741.88625 46.594687 
z
" style="fill: #4ac76f; stroke: #1f1f1f; stroke-linejoin: miter"/>
    </g>
    <g id="text_18">
     <!-- HandyKey4VR -->
     <g transform="translate(769.88625 53.594687) scale(0.1 -0.1)">
      <defs>
       <path id="DejaVuSans-48" d="M 628 4666 
L 1259 4666 
L 1259 2753 
L 3553 2753 
L 3553 4666 
L 4184 4666 
L 4184 0 
L 3553 0 
L 3553 2222 
L 1259 2222 
L 1259 0 
L 628 0 
L 628 4666 
z
" transform="scale(0.015625)"/>
       <path id="DejaVuSans-4b" d="M 628 4666 
L 1259 4666 
L 1259 2694 
L 3353 4666 
L 4166 4666 
L 1850 2491 
L 4331 0 
L 3500 0 
L 1259 2247 
L 1259 0 
L 628 0 
L 628 4666 
z
" transform="scale(0.015625)"/>
      </defs>
      <use xlink:href="#DejaVuSans-48"/>
      <use xlink:href="#DejaVuSans-61" transform="translate(75.195312 0)"/>
      <use xlink:href="#DejaVuSans-6e" transform="translate(136.474609 0)"/>
      <use xlink:href="#DejaVuSans-64" transform="translate(199.853516 0)"/>
      <use xlink:href="#DejaVuSans-79" transform="translate(263.330078 0)"/>
      <use xlink:href="#DejaVuSans-4b" transform="translate(322.509766 0)"/>
      <use xlink:href="#DejaVuSans-65" transform="translate(383.085938 0)"/>
      <use xlink:href="#DejaVuSans-79" transform="translate(444.609375 0)"/>
      <use xlink:href="#DejaVuSans-34" transform="translate(503.789062 0)"/>
      <use xlink:href="#DejaVuSans-56" transform="translate(567.412109 0)"/>
      <use xlink:href="#DejaVuSans-52" transform="translate(635.820312 0)"/>
     </g>
    </g>
    <g id="patch_25">
     <path d="M 741.88625 68.272812 
L 761.88625 68.272812 
L 761.88625 61.272812 
L 741.88625 61.272812 
z
" style="fill: #207cdf; stroke: #1f1f1f; stroke-linejoin: miter"/>
    </g>
    <g id="text_19">
     <!-- Controller -->
     <g transform="translate(769.88625 68.272812) scale(0.1 -0.1)">
      <use xlink:href="#DejaVuSans-43"/>
      <use xlink:href="#DejaVuSans-6f" transform="translate(69.824219 0)"/>
      <use xlink:href="#DejaVuSans-6e" transform="translate(131.005859 0)"/>
      <use xlink:href="#DejaVuSans-74" transform="translate(194.384766 0)"/>
      <use xlink:href="#DejaVuSans-72" transform="translate(233.59375 0)"/>
      <use xlink:href="#DejaVuSans-6f" transform="translate(272.457031 0)"/>
      <use xlink:href="#DejaVuSans-6c" transform="translate(333.638672 0)"/>
      <use xlink:href="#DejaVuSans-6c" transform="translate(361.421875 0)"/>
      <use xlink:href="#DejaVuSans-65" transform="translate(389.205078 0)"/>
      <use xlink:href="#DejaVuSans-72" transform="translate(450.728516 0)"/>
     </g>
    </g>
   </g>
  </g>
 </g>
 <defs>
  <clipPath id="p6fd8db7e6b">
   <rect x="59.690625" y="22.318125" width="789.73" height="326.783084"/>
  </clipPath>
 </defs>
</svg>
