<?xml version="1.0" encoding="utf-8" standalone="no"?>
<!DOCTYPE svg PUBLIC "-//W3C//DTD SVG 1.1//EN"
  "http://www.w3.org/Graphics/SVG/1.1/DTD/svg11.dtd">
<svg xmlns:xlink="http://www.w3.org/1999/xlink" width="643.244375pt" height="398.20925pt" viewBox="0 0 643.244375 398.20925" xmlns="http://www.w3.org/2000/svg" version="1.1">
 <metadata>
  <rdf:RDF xmlns:dc="http://purl.org/dc/elements/1.1/" xmlns:cc="http://creativecommons.org/ns#" xmlns:rdf="http://www.w3.org/1999/02/22-rdf-syntax-ns#">
   <cc:Work>
    <dc:type rdf:resource="http://purl.org/dc/dcmitype/StillImage"/>
    <dc:date>2026-01-27T07:39:20.370348</dc:date>
    <dc:format>image/svg+xml</dc:format>
    <dc:creator>
     <cc:Agent>
      <dc:title>Matplotlib v3.10.8, https://matplotlib.org/</dc:title>
     </cc:Agent>
    </dc:creator>
   </cc:Work>
  </rdf:RDF>
 </metadata>
 <defs>
  <style type="text/css">*{stroke-linejoin: round; stroke-linecap: butt}</style>
 </defs>
 <g id="figure_1">
  <g id="patch_1">
   <path d="M 0 398.20925 
L 643.244375 398.20925 
L 643.244375 0 
L 0 0 
z
" style="fill: #ffffff"/>
  </g>
  <g id="axes_1">
   <g id="patch_2">
    <path d="M 78.044375 356.78175 
L 636.044375 356.78175 
L 636.044375 24.14175 
L 78.044375 24.14175 
z
" style="fill: #ffffff"/>
   </g>
   <g id="FillBetweenPolyCollection_1">
    <defs>
     <path id="mf186943ee5" d="M 103.408011 -205.785865 
L 103.408011 -150.638861 
L 108.531978 -159.852199 
L 113.655945 -156.047851 
L 118.779912 -157.010341 
L 123.903879 -159.080289 
L 129.027846 -158.668172 
L 134.151813 -157.45529 
L 139.27578 -161.276143 
L 144.399747 -158.644759 
L 149.523714 -158.876671 
L 154.647681 -133.264259 
L 159.771648 -161.134434 
L 164.895615 -159.304237 
L 170.019582 -157.645955 
L 175.143549 -159.31837 
L 180.267515 -157.237374 
L 185.391482 -156.065246 
L 190.515449 -160.184183 
L 195.639416 -155.380958 
L 200.763383 -158.110352 
L 205.88735 -160.340845 
L 211.011317 -147.714889 
L 216.135284 -149.834746 
L 221.259251 -160.560684 
L 226.383218 -117.444875 
L 231.507185 -158.18798 
L 236.631152 -157.225332 
L 241.755119 -158.792099 
L 246.879086 -158.838004 
L 252.003053 -158.420542 
L 257.12702 -160.677754 
L 262.250987 -158.181104 
L 267.374954 -159.610012 
L 272.49892 -158.691889 
L 277.622887 -157.090306 
L 282.746854 -159.752678 
L 287.870821 -150.078142 
L 292.994788 -154.98362 
L 298.118755 -158.03282 
L 303.242722 -156.033871 
L 308.366689 -157.923017 
L 313.490656 -159.98326 
L 318.614623 -155.057286 
L 323.73859 -160.201579 
L 328.862557 -156.736617 
L 333.986524 -158.43195 
L 339.110491 -135.284343 
L 344.234458 -158.975066 
L 349.358425 -155.140129 
L 354.482392 -158.187223 
L 359.606358 -159.150271 
L 364.730325 -159.20215 
L 369.854292 -154.969564 
L 374.978259 -158.516899 
L 380.102226 -157.665541 
L 385.226193 -158.509659 
L 390.35016 -159.393634 
L 395.474127 -157.815692 
L 400.598094 -155.341712 
L 405.722061 -156.864436 
L 410.846028 -158.423601 
L 415.969995 -157.62455 
L 421.093962 -157.222787 
L 426.217929 -159.41988 
L 431.341896 -156.793044 
L 436.465863 -156.730194 
L 441.58983 -157.4814 
L 446.713796 -159.279226 
L 451.837763 -158.363084 
L 456.96173 -158.742672 
L 462.085697 -157.711036 
L 467.209664 -158.313257 
L 472.333631 -159.05336 
L 477.457598 -159.867496 
L 482.581565 -157.480794 
L 487.705532 -155.168404 
L 492.829499 -157.020676 
L 497.953466 -159.689015 
L 503.077433 -160.338382 
L 508.2014 -158.028477 
L 513.325367 -156.099264 
L 518.449334 -157.490896 
L 523.573301 -157.855318 
L 528.697268 -158.616713 
L 533.821235 -158.622343 
L 538.945201 -159.640722 
L 544.069168 -153.528508 
L 549.193135 -160.455482 
L 554.317102 -157.87039 
L 559.441069 -159.582228 
L 564.565036 -160.960674 
L 569.689003 -157.416025 
L 574.81297 -159.131479 
L 579.936937 -140.493759 
L 585.060904 -157.689173 
L 590.184871 -158.450713 
L 595.308838 -158.171076 
L 600.432805 -160.001881 
L 605.556772 -159.377292 
L 610.680739 -148.362149 
L 610.680739 -201.04313 
L 610.680739 -201.04313 
L 605.556772 -166.169675 
L 600.432805 -172.541059 
L 595.308838 -166.138542 
L 590.184871 -163.437262 
L 585.060904 -166.124106 
L 579.936937 -215.435606 
L 574.81297 -169.546208 
L 569.689003 -169.880007 
L 564.565036 -171.028845 
L 559.441069 -167.279577 
L 554.317102 -168.2813 
L 549.193135 -165.331253 
L 544.069168 -179.752937 
L 538.945201 -163.615216 
L 533.821235 -166.763924 
L 528.697268 -164.987177 
L 523.573301 -171.362205 
L 518.449334 -169.175275 
L 513.325367 -171.336925 
L 508.2014 -170.973169 
L 503.077433 -169.146499 
L 497.953466 -164.108977 
L 492.829499 -167.926146 
L 487.705532 -173.145595 
L 482.581565 -164.142246 
L 477.457598 -163.431909 
L 472.333631 -170.249108 
L 467.209664 -170.692822 
L 462.085697 -168.193305 
L 456.96173 -172.063244 
L 451.837763 -168.057112 
L 446.713796 -171.065018 
L 441.58983 -169.741412 
L 436.465863 -170.805122 
L 431.341896 -171.868616 
L 426.217929 -165.622084 
L 421.093962 -171.698151 
L 415.969995 -172.026689 
L 410.846028 -164.304719 
L 405.722061 -169.858761 
L 400.598094 -175.899434 
L 395.474127 -167.866731 
L 390.35016 -164.668326 
L 385.226193 -171.246858 
L 380.102226 -167.44306 
L 374.978259 -169.138745 
L 369.854292 -173.839687 
L 364.730325 -164.518025 
L 359.606358 -163.688592 
L 354.482392 -163.521111 
L 349.358425 -174.76928 
L 344.234458 -171.977222 
L 339.110491 -230.763483 
L 333.986524 -164.773341 
L 328.862557 -167.337455 
L 323.73859 -172.642482 
L 318.614623 -176.386245 
L 313.490656 -164.292438 
L 308.366689 -166.891039 
L 303.242722 -172.667583 
L 298.118755 -166.989011 
L 292.994788 -172.770003 
L 287.870821 -182.170145 
L 282.746854 -162.375901 
L 277.622887 -171.618053 
L 272.49892 -170.606812 
L 267.374954 -166.153158 
L 262.250987 -166.280837 
L 257.12702 -169.649639 
L 252.003053 -172.820626 
L 246.879086 -166.394215 
L 241.755119 -170.335059 
L 236.631152 -171.910316 
L 231.507185 -171.517954 
L 226.383218 -258.058667 
L 221.259251 -166.047132 
L 216.135284 -184.703843 
L 211.011317 -205.118657 
L 205.88735 -177.242644 
L 200.763383 -171.544451 
L 195.639416 -172.779582 
L 190.515449 -168.435955 
L 185.391482 -178.683788 
L 180.267515 -173.90924 
L 175.143549 -163.617692 
L 170.019582 -168.868335 
L 164.895615 -164.896699 
L 159.771648 -171.548154 
L 154.647681 -220.970317 
L 149.523714 -167.353932 
L 144.399747 -169.083268 
L 139.27578 -168.436253 
L 134.151813 -180.082328 
L 129.027846 -172.637155 
L 123.903879 -174.154502 
L 118.779912 -172.645896 
L 113.655945 -174.726981 
L 108.531978 -172.183661 
L 103.408011 -205.785865 
z
" style="stroke: #35dc67; stroke-opacity: 0.2"/>
    </defs>
    <g clip-path="url(#pe0dcc5c8bc)">
     <use xlink:href="#mf186943ee5" x="0" y="398.20925" style="fill: #35dc67; fill-opacity: 0.2; stroke: #35dc67; stroke-opacity: 0.2"/>
    </g>
   </g>
   <g id="FillBetweenPolyCollection_2">
    <defs>
     <path id="m604d2b606b" d="M 103.408011 -185.504493 
L 103.408011 -155.834441 
L 108.531978 -155.015187 
L 113.655945 -148.831912 
L 118.779912 -132.995655 
L 123.903879 -157.8018 
L 129.027846 -152.671322 
L 134.151813 -159.560937 
L 139.27578 -158.391328 
L 144.399747 -153.280683 
L 149.523714 -131.789316 
L 154.647681 -112.511256 
L 159.771648 -159.517936 
L 164.895615 -160.362894 
L 170.019582 -155.831266 
L 175.143549 -157.474006 
L 180.267515 -158.410254 
L 185.391482 -127.684834 
L 190.515449 -160.6582 
L 195.639416 -159.431821 
L 200.763383 -147.952414 
L 205.88735 -158.422163 
L 211.011317 -145.014087 
L 216.135284 -56.5475 
L 221.259251 -89.638247 
L 226.383218 -118.818173 
L 231.507185 -158.00216 
L 236.631152 -156.958084 
L 241.755119 -156.873912 
L 246.879086 -159.770414 
L 252.003053 -159.645794 
L 257.12702 -159.840697 
L 262.250987 -110.141208 
L 267.374954 -158.389388 
L 272.49892 -159.557279 
L 277.622887 -160.825751 
L 282.746854 -157.569318 
L 287.870821 -160.240252 
L 292.994788 -155.940643 
L 298.118755 -157.14951 
L 303.242722 -150.849681 
L 308.366689 -160.826877 
L 313.490656 -160.632323 
L 318.614623 -158.756275 
L 323.73859 -158.013507 
L 328.862557 -153.363094 
L 333.986524 -158.729743 
L 339.110491 -157.858202 
L 344.234458 -156.127457 
L 349.358425 -159.408446 
L 354.482392 -158.821533 
L 359.606358 -159.265758 
L 364.730325 -155.511213 
L 369.854292 -158.421766 
L 374.978259 -156.844459 
L 380.102226 -157.53764 
L 385.226193 -159.854954 
L 390.35016 -161.246432 
L 395.474127 -155.644144 
L 400.598094 -157.164256 
L 405.722061 -155.712915 
L 410.846028 -157.297869 
L 415.969995 -157.10031 
L 421.093962 -157.583375 
L 426.217929 -158.613797 
L 431.341896 -151.655407 
L 436.465863 -157.410627 
L 441.58983 -160.030991 
L 446.713796 -155.509587 
L 451.837763 -156.769186 
L 456.96173 -153.703713 
L 462.085697 -159.282495 
L 467.209664 -159.906504 
L 472.333631 -159.212592 
L 477.457598 -155.520948 
L 482.581565 -152.86432 
L 487.705532 -154.689644 
L 492.829499 -159.24865 
L 497.953466 -159.784866 
L 503.077433 -150.162956 
L 508.2014 -158.388789 
L 513.325367 -158.936025 
L 518.449334 -156.195209 
L 523.573301 -157.677424 
L 528.697268 -159.268755 
L 533.821235 -154.18355 
L 538.945201 -159.801495 
L 544.069168 -156.308302 
L 549.193135 -160.727161 
L 554.317102 -160.052495 
L 559.441069 -151.871813 
L 564.565036 -156.749688 
L 569.689003 -157.801741 
L 574.81297 -105.231891 
L 579.936937 -154.831134 
L 585.060904 -160.142693 
L 590.184871 -154.149903 
L 595.308838 -156.279327 
L 600.432805 -156.029355 
L 605.556772 -157.839758 
L 610.680739 -159.254581 
L 610.680739 -181.475238 
L 610.680739 -181.475238 
L 605.556772 -178.715776 
L 600.432805 -175.334276 
L 595.308838 -170.993935 
L 590.184871 -179.945842 
L 585.060904 -164.25607 
L 579.936937 -176.534793 
L 574.81297 -277.226296 
L 569.689003 -169.636772 
L 564.565036 -173.921234 
L 559.441069 -190.164751 
L 554.317102 -168.813305 
L 549.193135 -177.508346 
L 544.069168 -171.49675 
L 538.945201 -173.984102 
L 533.821235 -175.523375 
L 528.697268 -164.057557 
L 523.573301 -170.843467 
L 518.449334 -171.182811 
L 513.325367 -173.185877 
L 508.2014 -172.675066 
L 503.077433 -189.58569 
L 497.953466 -167.582603 
L 492.829499 -168.622878 
L 487.705532 -177.376123 
L 482.581565 -185.5355 
L 477.457598 -171.639448 
L 472.333631 -165.044805 
L 467.209664 -166.329446 
L 462.085697 -171.246341 
L 456.96173 -178.666242 
L 451.837763 -172.742054 
L 446.713796 -170.795983 
L 441.58983 -173.291495 
L 436.465863 -171.007466 
L 431.341896 -196.258874 
L 426.217929 -171.5263 
L 421.093962 -178.985525 
L 415.969995 -172.683925 
L 410.846028 -171.423442 
L 405.722061 -180.536787 
L 400.598094 -182.061614 
L 395.474127 -174.70367 
L 390.35016 -177.020714 
L 385.226193 -169.955021 
L 380.102226 -172.463538 
L 374.978259 -173.20596 
L 369.854292 -178.047847 
L 364.730325 -170.677091 
L 359.606358 -166.379749 
L 354.482392 -170.932198 
L 349.358425 -167.39267 
L 344.234458 -172.49152 
L 339.110491 -178.571766 
L 333.986524 -167.770521 
L 328.862557 -186.038723 
L 323.73859 -165.492438 
L 318.614623 -172.092113 
L 313.490656 -171.428976 
L 308.366689 -168.052679 
L 303.242722 -192.545211 
L 298.118755 -185.372956 
L 292.994788 -169.426582 
L 287.870821 -174.205956 
L 282.746854 -175.834054 
L 277.622887 -179.88169 
L 272.49892 -172.016228 
L 267.374954 -170.745209 
L 262.250987 -257.756475 
L 257.12702 -170.315286 
L 252.003053 -185.715712 
L 246.879086 -173.763256 
L 241.755119 -190.746418 
L 236.631152 -176.307902 
L 231.507185 -173.063928 
L 226.383218 -243.015667 
L 221.259251 -295.544684 
L 216.135284 -358.9475 
L 211.011317 -225.829443 
L 205.88735 -172.705803 
L 200.763383 -200.488792 
L 195.639416 -167.907697 
L 190.515449 -199.50996 
L 185.391482 -235.845317 
L 180.267515 -180.476132 
L 175.143549 -188.923595 
L 170.019582 -182.078541 
L 164.895615 -176.208538 
L 159.771648 -187.900415 
L 154.647681 -254.299819 
L 149.523714 -234.979207 
L 144.399747 -190.243145 
L 139.27578 -171.544052 
L 134.151813 -174.423073 
L 129.027846 -192.666983 
L 123.903879 -191.660745 
L 118.779912 -231.519646 
L 113.655945 -217.585318 
L 108.531978 -188.008569 
L 103.408011 -185.504493 
z
" style="stroke: #007bff; stroke-opacity: 0.2"/>
    </defs>
    <g clip-path="url(#pe0dcc5c8bc)">
     <use xlink:href="#m604d2b606b" x="0" y="398.20925" style="fill: #007bff; fill-opacity: 0.2; stroke: #007bff; stroke-opacity: 0.2"/>
    </g>
   </g>
   <g id="matplotlib.axis_1">
    <g id="xtick_1">
     <g id="line2d_1">
      <path d="M 103.408011 356.78175 
L 103.408011 24.14175 
" clip-path="url(#pe0dcc5c8bc)" style="fill: none; stroke-dasharray: 2.96,1.28; stroke-dashoffset: 0; stroke: #b0b0b0; stroke-opacity: 0.5; stroke-width: 0.8"/>
     </g>
     <g id="line2d_2">
      <defs>
       <path id="m84b6764258" d="M 0 0 
L 0 3.5 
" style="stroke: #000000; stroke-width: 0.8"/>
      </defs>
      <g>
       <use xlink:href="#m84b6764258" x="103.408011" y="356.78175" style="stroke: #000000; stroke-width: 0.8"/>
      </g>
     </g>
     <g id="text_1">
      <!-- 1 -->
      <g transform="translate(99.590511 372.899875) scale(0.12 -0.12)">
       <defs>
        <path id="DejaVuSans-31" d="M 794 531 
L 1825 531 
L 1825 4091 
L 703 3866 
L 703 4441 
L 1819 4666 
L 2450 4666 
L 2450 531 
L 3481 531 
L 3481 0 
L 794 0 
L 794 531 
z
" transform="scale(0.015625)"/>
       </defs>
       <use xlink:href="#DejaVuSans-31"/>
      </g>
     </g>
    </g>
    <g id="xtick_2">
     <g id="line2d_3">
      <path d="M 154.647681 356.78175 
L 154.647681 24.14175 
" clip-path="url(#pe0dcc5c8bc)" style="fill: none; stroke-dasharray: 2.96,1.28; stroke-dashoffset: 0; stroke: #b0b0b0; stroke-opacity: 0.5; stroke-width: 0.8"/>
     </g>
     <g id="line2d_4">
      <g>
       <use xlink:href="#m84b6764258" x="154.647681" y="356.78175" style="stroke: #000000; stroke-width: 0.8"/>
      </g>
     </g>
     <g id="text_2">
      <!-- 11 -->
      <g transform="translate(147.012681 372.899875) scale(0.12 -0.12)">
       <use xlink:href="#DejaVuSans-31"/>
       <use xlink:href="#DejaVuSans-31" transform="translate(63.623047 0)"/>
      </g>
     </g>
    </g>
    <g id="xtick_3">
     <g id="line2d_5">
      <path d="M 205.88735 356.78175 
L 205.88735 24.14175 
" clip-path="url(#pe0dcc5c8bc)" style="fill: none; stroke-dasharray: 2.96,1.28; stroke-dashoffset: 0; stroke: #b0b0b0; stroke-opacity: 0.5; stroke-width: 0.8"/>
     </g>
     <g id="line2d_6">
      <g>
       <use xlink:href="#m84b6764258" x="205.88735" y="356.78175" style="stroke: #000000; stroke-width: 0.8"/>
      </g>
     </g>
     <g id="text_3">
      <!-- 21 -->
      <g transform="translate(198.25235 372.899875) scale(0.12 -0.12)">
       <defs>
        <path id="DejaVuSans-32" d="M 1228 531 
L 3431 531 
L 3431 0 
L 469 0 
L 469 531 
Q 828 903 1448 1529 
Q 2069 2156 2228 2338 
Q 2531 2678 2651 2914 
Q 2772 3150 2772 3378 
Q 2772 3750 2511 3984 
Q 2250 4219 1831 4219 
Q 1534 4219 1204 4116 
Q 875 4013 500 3803 
L 500 4441 
Q 881 4594 1212 4672 
Q 1544 4750 1819 4750 
Q 2544 4750 2975 4387 
Q 3406 4025 3406 3419 
Q 3406 3131 3298 2873 
Q 3191 2616 2906 2266 
Q 2828 2175 2409 1742 
Q 1991 1309 1228 531 
z
" transform="scale(0.015625)"/>
       </defs>
       <use xlink:href="#DejaVuSans-32"/>
       <use xlink:href="#DejaVuSans-31" transform="translate(63.623047 0)"/>
      </g>
     </g>
    </g>
    <g id="xtick_4">
     <g id="line2d_7">
      <path d="M 257.12702 356.78175 
L 257.12702 24.14175 
" clip-path="url(#pe0dcc5c8bc)" style="fill: none; stroke-dasharray: 2.96,1.28; stroke-dashoffset: 0; stroke: #b0b0b0; stroke-opacity: 0.5; stroke-width: 0.8"/>
     </g>
     <g id="line2d_8">
      <g>
       <use xlink:href="#m84b6764258" x="257.12702" y="356.78175" style="stroke: #000000; stroke-width: 0.8"/>
      </g>
     </g>
     <g id="text_4">
      <!-- 31 -->
      <g transform="translate(249.49202 372.899875) scale(0.12 -0.12)">
       <defs>
        <path id="DejaVuSans-33" d="M 2597 2516 
Q 3050 2419 3304 2112 
Q 3559 1806 3559 1356 
Q 3559 666 3084 287 
Q 2609 -91 1734 -91 
Q 1441 -91 1130 -33 
Q 819 25 488 141 
L 488 750 
Q 750 597 1062 519 
Q 1375 441 1716 441 
Q 2309 441 2620 675 
Q 2931 909 2931 1356 
Q 2931 1769 2642 2001 
Q 2353 2234 1838 2234 
L 1294 2234 
L 1294 2753 
L 1863 2753 
Q 2328 2753 2575 2939 
Q 2822 3125 2822 3475 
Q 2822 3834 2567 4026 
Q 2313 4219 1838 4219 
Q 1578 4219 1281 4162 
Q 984 4106 628 3988 
L 628 4550 
Q 988 4650 1302 4700 
Q 1616 4750 1894 4750 
Q 2613 4750 3031 4423 
Q 3450 4097 3450 3541 
Q 3450 3153 3228 2886 
Q 3006 2619 2597 2516 
z
" transform="scale(0.015625)"/>
       </defs>
       <use xlink:href="#DejaVuSans-33"/>
       <use xlink:href="#DejaVuSans-31" transform="translate(63.623047 0)"/>
      </g>
     </g>
    </g>
    <g id="xtick_5">
     <g id="line2d_9">
      <path d="M 308.366689 356.78175 
L 308.366689 24.14175 
" clip-path="url(#pe0dcc5c8bc)" style="fill: none; stroke-dasharray: 2.96,1.28; stroke-dashoffset: 0; stroke: #b0b0b0; stroke-opacity: 0.5; stroke-width: 0.8"/>
     </g>
     <g id="line2d_10">
      <g>
       <use xlink:href="#m84b6764258" x="308.366689" y="356.78175" style="stroke: #000000; stroke-width: 0.8"/>
      </g>
     </g>
     <g id="text_5">
      <!-- 41 -->
      <g transform="translate(300.731689 372.899875) scale(0.12 -0.12)">
       <defs>
        <path id="DejaVuSans-34" d="M 2419 4116 
L 825 1625 
L 2419 1625 
L 2419 4116 
z
M 2253 4666 
L 3047 4666 
L 3047 1625 
L 3713 1625 
L 3713 1100 
L 3047 1100 
L 3047 0 
L 2419 0 
L 2419 1100 
L 313 1100 
L 313 1709 
L 2253 4666 
z
" transform="scale(0.015625)"/>
       </defs>
       <use xlink:href="#DejaVuSans-34"/>
       <use xlink:href="#DejaVuSans-31" transform="translate(63.623047 0)"/>
      </g>
     </g>
    </g>
    <g id="xtick_6">
     <g id="line2d_11">
      <path d="M 359.606358 356.78175 
L 359.606358 24.14175 
" clip-path="url(#pe0dcc5c8bc)" style="fill: none; stroke-dasharray: 2.96,1.28; stroke-dashoffset: 0; stroke: #b0b0b0; stroke-opacity: 0.5; stroke-width: 0.8"/>
     </g>
     <g id="line2d_12">
      <g>
       <use xlink:href="#m84b6764258" x="359.606358" y="356.78175" style="stroke: #000000; stroke-width: 0.8"/>
      </g>
     </g>
     <g id="text_6">
      <!-- 51 -->
      <g transform="translate(351.971358 372.899875) scale(0.12 -0.12)">
       <defs>
        <path id="DejaVuSans-35" d="M 691 4666 
L 3169 4666 
L 3169 4134 
L 1269 4134 
L 1269 2991 
Q 1406 3038 1543 3061 
Q 1681 3084 1819 3084 
Q 2600 3084 3056 2656 
Q 3513 2228 3513 1497 
Q 3513 744 3044 326 
Q 2575 -91 1722 -91 
Q 1428 -91 1123 -41 
Q 819 9 494 109 
L 494 744 
Q 775 591 1075 516 
Q 1375 441 1709 441 
Q 2250 441 2565 725 
Q 2881 1009 2881 1497 
Q 2881 1984 2565 2268 
Q 2250 2553 1709 2553 
Q 1456 2553 1204 2497 
Q 953 2441 691 2322 
L 691 4666 
z
" transform="scale(0.015625)"/>
       </defs>
       <use xlink:href="#DejaVuSans-35"/>
       <use xlink:href="#DejaVuSans-31" transform="translate(63.623047 0)"/>
      </g>
     </g>
    </g>
    <g id="xtick_7">
     <g id="line2d_13">
      <path d="M 410.846028 356.78175 
L 410.846028 24.14175 
" clip-path="url(#pe0dcc5c8bc)" style="fill: none; stroke-dasharray: 2.96,1.28; stroke-dashoffset: 0; stroke: #b0b0b0; stroke-opacity: 0.5; stroke-width: 0.8"/>
     </g>
     <g id="line2d_14">
      <g>
       <use xlink:href="#m84b6764258" x="410.846028" y="356.78175" style="stroke: #000000; stroke-width: 0.8"/>
      </g>
     </g>
     <g id="text_7">
      <!-- 61 -->
      <g transform="translate(403.211028 372.899875) scale(0.12 -0.12)">
       <defs>
        <path id="DejaVuSans-36" d="M 2113 2584 
Q 1688 2584 1439 2293 
Q 1191 2003 1191 1497 
Q 1191 994 1439 701 
Q 1688 409 2113 409 
Q 2538 409 2786 701 
Q 3034 994 3034 1497 
Q 3034 2003 2786 2293 
Q 2538 2584 2113 2584 
z
M 3366 4563 
L 3366 3988 
Q 3128 4100 2886 4159 
Q 2644 4219 2406 4219 
Q 1781 4219 1451 3797 
Q 1122 3375 1075 2522 
Q 1259 2794 1537 2939 
Q 1816 3084 2150 3084 
Q 2853 3084 3261 2657 
Q 3669 2231 3669 1497 
Q 3669 778 3244 343 
Q 2819 -91 2113 -91 
Q 1303 -91 875 529 
Q 447 1150 447 2328 
Q 447 3434 972 4092 
Q 1497 4750 2381 4750 
Q 2619 4750 2861 4703 
Q 3103 4656 3366 4563 
z
" transform="scale(0.015625)"/>
       </defs>
       <use xlink:href="#DejaVuSans-36"/>
       <use xlink:href="#DejaVuSans-31" transform="translate(63.623047 0)"/>
      </g>
     </g>
    </g>
    <g id="xtick_8">
     <g id="line2d_15">
      <path d="M 462.085697 356.78175 
L 462.085697 24.14175 
" clip-path="url(#pe0dcc5c8bc)" style="fill: none; stroke-dasharray: 2.96,1.28; stroke-dashoffset: 0; stroke: #b0b0b0; stroke-opacity: 0.5; stroke-width: 0.8"/>
     </g>
     <g id="line2d_16">
      <g>
       <use xlink:href="#m84b6764258" x="462.085697" y="356.78175" style="stroke: #000000; stroke-width: 0.8"/>
      </g>
     </g>
     <g id="text_8">
      <!-- 71 -->
      <g transform="translate(454.450697 372.899875) scale(0.12 -0.12)">
       <defs>
        <path id="DejaVuSans-37" d="M 525 4666 
L 3525 4666 
L 3525 4397 
L 1831 0 
L 1172 0 
L 2766 4134 
L 525 4134 
L 525 4666 
z
" transform="scale(0.015625)"/>
       </defs>
       <use xlink:href="#DejaVuSans-37"/>
       <use xlink:href="#DejaVuSans-31" transform="translate(63.623047 0)"/>
      </g>
     </g>
    </g>
    <g id="xtick_9">
     <g id="line2d_17">
      <path d="M 513.325367 356.78175 
L 513.325367 24.14175 
" clip-path="url(#pe0dcc5c8bc)" style="fill: none; stroke-dasharray: 2.96,1.28; stroke-dashoffset: 0; stroke: #b0b0b0; stroke-opacity: 0.5; stroke-width: 0.8"/>
     </g>
     <g id="line2d_18">
      <g>
       <use xlink:href="#m84b6764258" x="513.325367" y="356.78175" style="stroke: #000000; stroke-width: 0.8"/>
      </g>
     </g>
     <g id="text_9">
      <!-- 81 -->
      <g transform="translate(505.690367 372.899875) scale(0.12 -0.12)">
       <defs>
        <path id="DejaVuSans-38" d="M 2034 2216 
Q 1584 2216 1326 1975 
Q 1069 1734 1069 1313 
Q 1069 891 1326 650 
Q 1584 409 2034 409 
Q 2484 409 2743 651 
Q 3003 894 3003 1313 
Q 3003 1734 2745 1975 
Q 2488 2216 2034 2216 
z
M 1403 2484 
Q 997 2584 770 2862 
Q 544 3141 544 3541 
Q 544 4100 942 4425 
Q 1341 4750 2034 4750 
Q 2731 4750 3128 4425 
Q 3525 4100 3525 3541 
Q 3525 3141 3298 2862 
Q 3072 2584 2669 2484 
Q 3125 2378 3379 2068 
Q 3634 1759 3634 1313 
Q 3634 634 3220 271 
Q 2806 -91 2034 -91 
Q 1263 -91 848 271 
Q 434 634 434 1313 
Q 434 1759 690 2068 
Q 947 2378 1403 2484 
z
M 1172 3481 
Q 1172 3119 1398 2916 
Q 1625 2713 2034 2713 
Q 2441 2713 2670 2916 
Q 2900 3119 2900 3481 
Q 2900 3844 2670 4047 
Q 2441 4250 2034 4250 
Q 1625 4250 1398 4047 
Q 1172 3844 1172 3481 
z
" transform="scale(0.015625)"/>
       </defs>
       <use xlink:href="#DejaVuSans-38"/>
       <use xlink:href="#DejaVuSans-31" transform="translate(63.623047 0)"/>
      </g>
     </g>
    </g>
    <g id="xtick_10">
     <g id="line2d_19">
      <path d="M 564.565036 356.78175 
L 564.565036 24.14175 
" clip-path="url(#pe0dcc5c8bc)" style="fill: none; stroke-dasharray: 2.96,1.28; stroke-dashoffset: 0; stroke: #b0b0b0; stroke-opacity: 0.5; stroke-width: 0.8"/>
     </g>
     <g id="line2d_20">
      <g>
       <use xlink:href="#m84b6764258" x="564.565036" y="356.78175" style="stroke: #000000; stroke-width: 0.8"/>
      </g>
     </g>
     <g id="text_10">
      <!-- 91 -->
      <g transform="translate(556.930036 372.899875) scale(0.12 -0.12)">
       <defs>
        <path id="DejaVuSans-39" d="M 703 97 
L 703 672 
Q 941 559 1184 500 
Q 1428 441 1663 441 
Q 2288 441 2617 861 
Q 2947 1281 2994 2138 
Q 2813 1869 2534 1725 
Q 2256 1581 1919 1581 
Q 1219 1581 811 2004 
Q 403 2428 403 3163 
Q 403 3881 828 4315 
Q 1253 4750 1959 4750 
Q 2769 4750 3195 4129 
Q 3622 3509 3622 2328 
Q 3622 1225 3098 567 
Q 2575 -91 1691 -91 
Q 1453 -91 1209 -44 
Q 966 3 703 97 
z
M 1959 2075 
Q 2384 2075 2632 2365 
Q 2881 2656 2881 3163 
Q 2881 3666 2632 3958 
Q 2384 4250 1959 4250 
Q 1534 4250 1286 3958 
Q 1038 3666 1038 3163 
Q 1038 2656 1286 2365 
Q 1534 2075 1959 2075 
z
" transform="scale(0.015625)"/>
       </defs>
       <use xlink:href="#DejaVuSans-39"/>
       <use xlink:href="#DejaVuSans-31" transform="translate(63.623047 0)"/>
      </g>
     </g>
    </g>
    <g id="text_11">
     <!-- Trial ID -->
     <g transform="translate(336.490625 388.513625) scale(0.12 -0.12)">
      <defs>
       <path id="DejaVuSans-54" d="M -19 4666 
L 3928 4666 
L 3928 4134 
L 2272 4134 
L 2272 0 
L 1638 0 
L 1638 4134 
L -19 4134 
L -19 4666 
z
" transform="scale(0.015625)"/>
       <path id="DejaVuSans-72" d="M 2631 2963 
Q 2534 3019 2420 3045 
Q 2306 3072 2169 3072 
Q 1681 3072 1420 2755 
Q 1159 2438 1159 1844 
L 1159 0 
L 581 0 
L 581 3500 
L 1159 3500 
L 1159 2956 
Q 1341 3275 1631 3429 
Q 1922 3584 2338 3584 
Q 2397 3584 2469 3576 
Q 2541 3569 2628 3553 
L 2631 2963 
z
" transform="scale(0.015625)"/>
       <path id="DejaVuSans-69" d="M 603 3500 
L 1178 3500 
L 1178 0 
L 603 0 
L 603 3500 
z
M 603 4863 
L 1178 4863 
L 1178 4134 
L 603 4134 
L 603 4863 
z
" transform="scale(0.015625)"/>
       <path id="DejaVuSans-61" d="M 2194 1759 
Q 1497 1759 1228 1600 
Q 959 1441 959 1056 
Q 959 750 1161 570 
Q 1363 391 1709 391 
Q 2188 391 2477 730 
Q 2766 1069 2766 1631 
L 2766 1759 
L 2194 1759 
z
M 3341 1997 
L 3341 0 
L 2766 0 
L 2766 531 
Q 2569 213 2275 61 
Q 1981 -91 1556 -91 
Q 1019 -91 701 211 
Q 384 513 384 1019 
Q 384 1609 779 1909 
Q 1175 2209 1959 2209 
L 2766 2209 
L 2766 2266 
Q 2766 2663 2505 2880 
Q 2244 3097 1772 3097 
Q 1472 3097 1187 3025 
Q 903 2953 641 2809 
L 641 3341 
Q 956 3463 1253 3523 
Q 1550 3584 1831 3584 
Q 2591 3584 2966 3190 
Q 3341 2797 3341 1997 
z
" transform="scale(0.015625)"/>
       <path id="DejaVuSans-6c" d="M 603 4863 
L 1178 4863 
L 1178 0 
L 603 0 
L 603 4863 
z
" transform="scale(0.015625)"/>
       <path id="DejaVuSans-20" transform="scale(0.015625)"/>
       <path id="DejaVuSans-49" d="M 628 4666 
L 1259 4666 
L 1259 0 
L 628 0 
L 628 4666 
z
" transform="scale(0.015625)"/>
       <path id="DejaVuSans-44" d="M 1259 4147 
L 1259 519 
L 2022 519 
Q 2988 519 3436 956 
Q 3884 1394 3884 2338 
Q 3884 3275 3436 3711 
Q 2988 4147 2022 4147 
L 1259 4147 
z
M 628 4666 
L 1925 4666 
Q 3281 4666 3915 4102 
Q 4550 3538 4550 2338 
Q 4550 1131 3912 565 
Q 3275 0 1925 0 
L 628 0 
L 628 4666 
z
" transform="scale(0.015625)"/>
      </defs>
      <use xlink:href="#DejaVuSans-54"/>
      <use xlink:href="#DejaVuSans-72" transform="translate(46.333984 0)"/>
      <use xlink:href="#DejaVuSans-69" transform="translate(87.447266 0)"/>
      <use xlink:href="#DejaVuSans-61" transform="translate(115.230469 0)"/>
      <use xlink:href="#DejaVuSans-6c" transform="translate(176.509766 0)"/>
      <use xlink:href="#DejaVuSans-20" transform="translate(204.292969 0)"/>
      <use xlink:href="#DejaVuSans-49" transform="translate(236.080078 0)"/>
      <use xlink:href="#DejaVuSans-44" transform="translate(265.572266 0)"/>
     </g>
    </g>
   </g>
   <g id="matplotlib.axis_2">
    <g id="ytick_1">
     <g id="line2d_21">
      <path d="M 78.044375 336.46672 
L 636.044375 336.46672 
" clip-path="url(#pe0dcc5c8bc)" style="fill: none; stroke-dasharray: 2.96,1.28; stroke-dashoffset: 0; stroke: #b0b0b0; stroke-opacity: 0.5; stroke-width: 0.8"/>
     </g>
     <g id="line2d_22">
      <defs>
       <path id="mdb2e4877c8" d="M 0 0 
L -3.5 0 
" style="stroke: #000000; stroke-width: 0.8"/>
      </defs>
      <g>
       <use xlink:href="#mdb2e4877c8" x="78.044375" y="336.46672" style="stroke: #000000; stroke-width: 0.8"/>
      </g>
     </g>
     <g id="text_12">
      <!-- −10000 -->
      <g transform="translate(22.81375 341.025783) scale(0.12 -0.12)">
       <defs>
        <path id="DejaVuSans-2212" d="M 678 2272 
L 4684 2272 
L 4684 1741 
L 678 1741 
L 678 2272 
z
" transform="scale(0.015625)"/>
        <path id="DejaVuSans-30" d="M 2034 4250 
Q 1547 4250 1301 3770 
Q 1056 3291 1056 2328 
Q 1056 1369 1301 889 
Q 1547 409 2034 409 
Q 2525 409 2770 889 
Q 3016 1369 3016 2328 
Q 3016 3291 2770 3770 
Q 2525 4250 2034 4250 
z
M 2034 4750 
Q 2819 4750 3233 4129 
Q 3647 3509 3647 2328 
Q 3647 1150 3233 529 
Q 2819 -91 2034 -91 
Q 1250 -91 836 529 
Q 422 1150 422 2328 
Q 422 3509 836 4129 
Q 1250 4750 2034 4750 
z
" transform="scale(0.015625)"/>
       </defs>
       <use xlink:href="#DejaVuSans-2212"/>
       <use xlink:href="#DejaVuSans-31" transform="translate(83.789062 0)"/>
       <use xlink:href="#DejaVuSans-30" transform="translate(147.412109 0)"/>
       <use xlink:href="#DejaVuSans-30" transform="translate(211.035156 0)"/>
       <use xlink:href="#DejaVuSans-30" transform="translate(274.658203 0)"/>
       <use xlink:href="#DejaVuSans-30" transform="translate(338.28125 0)"/>
      </g>
     </g>
    </g>
    <g id="ytick_2">
     <g id="line2d_23">
      <path d="M 78.044375 290.980266 
L 636.044375 290.980266 
" clip-path="url(#pe0dcc5c8bc)" style="fill: none; stroke-dasharray: 2.96,1.28; stroke-dashoffset: 0; stroke: #b0b0b0; stroke-opacity: 0.5; stroke-width: 0.8"/>
     </g>
     <g id="line2d_24">
      <g>
       <use xlink:href="#mdb2e4877c8" x="78.044375" y="290.980266" style="stroke: #000000; stroke-width: 0.8"/>
      </g>
     </g>
     <g id="text_13">
      <!-- −5000 -->
      <g transform="translate(30.44875 295.539328) scale(0.12 -0.12)">
       <use xlink:href="#DejaVuSans-2212"/>
       <use xlink:href="#DejaVuSans-35" transform="translate(83.789062 0)"/>
       <use xlink:href="#DejaVuSans-30" transform="translate(147.412109 0)"/>
       <use xlink:href="#DejaVuSans-30" transform="translate(211.035156 0)"/>
       <use xlink:href="#DejaVuSans-30" transform="translate(274.658203 0)"/>
      </g>
     </g>
    </g>
    <g id="ytick_3">
     <g id="line2d_25">
      <path d="M 78.044375 245.493811 
L 636.044375 245.493811 
" clip-path="url(#pe0dcc5c8bc)" style="fill: none; stroke-dasharray: 2.96,1.28; stroke-dashoffset: 0; stroke: #b0b0b0; stroke-opacity: 0.5; stroke-width: 0.8"/>
     </g>
     <g id="line2d_26">
      <g>
       <use xlink:href="#mdb2e4877c8" x="78.044375" y="245.493811" style="stroke: #000000; stroke-width: 0.8"/>
      </g>
     </g>
     <g id="text_14">
      <!-- 0 -->
      <g transform="translate(63.409375 250.052874) scale(0.12 -0.12)">
       <use xlink:href="#DejaVuSans-30"/>
      </g>
     </g>
    </g>
    <g id="ytick_4">
     <g id="line2d_27">
      <path d="M 78.044375 200.007357 
L 636.044375 200.007357 
" clip-path="url(#pe0dcc5c8bc)" style="fill: none; stroke-dasharray: 2.96,1.28; stroke-dashoffset: 0; stroke: #b0b0b0; stroke-opacity: 0.5; stroke-width: 0.8"/>
     </g>
     <g id="line2d_28">
      <g>
       <use xlink:href="#mdb2e4877c8" x="78.044375" y="200.007357" style="stroke: #000000; stroke-width: 0.8"/>
      </g>
     </g>
     <g id="text_15">
      <!-- 5000 -->
      <g transform="translate(40.504375 204.566419) scale(0.12 -0.12)">
       <use xlink:href="#DejaVuSans-35"/>
       <use xlink:href="#DejaVuSans-30" transform="translate(63.623047 0)"/>
       <use xlink:href="#DejaVuSans-30" transform="translate(127.246094 0)"/>
       <use xlink:href="#DejaVuSans-30" transform="translate(190.869141 0)"/>
      </g>
     </g>
    </g>
    <g id="ytick_5">
     <g id="line2d_29">
      <path d="M 78.044375 154.520902 
L 636.044375 154.520902 
" clip-path="url(#pe0dcc5c8bc)" style="fill: none; stroke-dasharray: 2.96,1.28; stroke-dashoffset: 0; stroke: #b0b0b0; stroke-opacity: 0.5; stroke-width: 0.8"/>
     </g>
     <g id="line2d_30">
      <g>
       <use xlink:href="#mdb2e4877c8" x="78.044375" y="154.520902" style="stroke: #000000; stroke-width: 0.8"/>
      </g>
     </g>
     <g id="text_16">
      <!-- 10000 -->
      <g transform="translate(32.869375 159.079965) scale(0.12 -0.12)">
       <use xlink:href="#DejaVuSans-31"/>
       <use xlink:href="#DejaVuSans-30" transform="translate(63.623047 0)"/>
       <use xlink:href="#DejaVuSans-30" transform="translate(127.246094 0)"/>
       <use xlink:href="#DejaVuSans-30" transform="translate(190.869141 0)"/>
       <use xlink:href="#DejaVuSans-30" transform="translate(254.492188 0)"/>
      </g>
     </g>
    </g>
    <g id="ytick_6">
     <g id="line2d_31">
      <path d="M 78.044375 109.034448 
L 636.044375 109.034448 
" clip-path="url(#pe0dcc5c8bc)" style="fill: none; stroke-dasharray: 2.96,1.28; stroke-dashoffset: 0; stroke: #b0b0b0; stroke-opacity: 0.5; stroke-width: 0.8"/>
     </g>
     <g id="line2d_32">
      <g>
       <use xlink:href="#mdb2e4877c8" x="78.044375" y="109.034448" style="stroke: #000000; stroke-width: 0.8"/>
      </g>
     </g>
     <g id="text_17">
      <!-- 15000 -->
      <g transform="translate(32.869375 113.59351) scale(0.12 -0.12)">
       <use xlink:href="#DejaVuSans-31"/>
       <use xlink:href="#DejaVuSans-35" transform="translate(63.623047 0)"/>
       <use xlink:href="#DejaVuSans-30" transform="translate(127.246094 0)"/>
       <use xlink:href="#DejaVuSans-30" transform="translate(190.869141 0)"/>
       <use xlink:href="#DejaVuSans-30" transform="translate(254.492188 0)"/>
      </g>
     </g>
    </g>
    <g id="ytick_7">
     <g id="line2d_33">
      <path d="M 78.044375 63.547993 
L 636.044375 63.547993 
" clip-path="url(#pe0dcc5c8bc)" style="fill: none; stroke-dasharray: 2.96,1.28; stroke-dashoffset: 0; stroke: #b0b0b0; stroke-opacity: 0.5; stroke-width: 0.8"/>
     </g>
     <g id="line2d_34">
      <g>
       <use xlink:href="#mdb2e4877c8" x="78.044375" y="63.547993" style="stroke: #000000; stroke-width: 0.8"/>
      </g>
     </g>
     <g id="text_18">
      <!-- 20000 -->
      <g transform="translate(32.869375 68.107056) scale(0.12 -0.12)">
       <use xlink:href="#DejaVuSans-32"/>
       <use xlink:href="#DejaVuSans-30" transform="translate(63.623047 0)"/>
       <use xlink:href="#DejaVuSans-30" transform="translate(127.246094 0)"/>
       <use xlink:href="#DejaVuSans-30" transform="translate(190.869141 0)"/>
       <use xlink:href="#DejaVuSans-30" transform="translate(254.492188 0)"/>
      </g>
     </g>
    </g>
    <g id="text_19">
     <!-- Time (ms) -->
     <g transform="translate(16.318125 220.700812) rotate(-90) scale(0.12 -0.12)">
      <defs>
       <path id="DejaVuSans-6d" d="M 3328 2828 
Q 3544 3216 3844 3400 
Q 4144 3584 4550 3584 
Q 5097 3584 5394 3201 
Q 5691 2819 5691 2113 
L 5691 0 
L 5113 0 
L 5113 2094 
Q 5113 2597 4934 2840 
Q 4756 3084 4391 3084 
Q 3944 3084 3684 2787 
Q 3425 2491 3425 1978 
L 3425 0 
L 2847 0 
L 2847 2094 
Q 2847 2600 2669 2842 
Q 2491 3084 2119 3084 
Q 1678 3084 1418 2786 
Q 1159 2488 1159 1978 
L 1159 0 
L 581 0 
L 581 3500 
L 1159 3500 
L 1159 2956 
Q 1356 3278 1631 3431 
Q 1906 3584 2284 3584 
Q 2666 3584 2933 3390 
Q 3200 3197 3328 2828 
z
" transform="scale(0.015625)"/>
       <path id="DejaVuSans-65" d="M 3597 1894 
L 3597 1613 
L 953 1613 
Q 991 1019 1311 708 
Q 1631 397 2203 397 
Q 2534 397 2845 478 
Q 3156 559 3463 722 
L 3463 178 
Q 3153 47 2828 -22 
Q 2503 -91 2169 -91 
Q 1331 -91 842 396 
Q 353 884 353 1716 
Q 353 2575 817 3079 
Q 1281 3584 2069 3584 
Q 2775 3584 3186 3129 
Q 3597 2675 3597 1894 
z
M 3022 2063 
Q 3016 2534 2758 2815 
Q 2500 3097 2075 3097 
Q 1594 3097 1305 2825 
Q 1016 2553 972 2059 
L 3022 2063 
z
" transform="scale(0.015625)"/>
       <path id="DejaVuSans-28" d="M 1984 4856 
Q 1566 4138 1362 3434 
Q 1159 2731 1159 2009 
Q 1159 1288 1364 580 
Q 1569 -128 1984 -844 
L 1484 -844 
Q 1016 -109 783 600 
Q 550 1309 550 2009 
Q 550 2706 781 3412 
Q 1013 4119 1484 4856 
L 1984 4856 
z
" transform="scale(0.015625)"/>
       <path id="DejaVuSans-73" d="M 2834 3397 
L 2834 2853 
Q 2591 2978 2328 3040 
Q 2066 3103 1784 3103 
Q 1356 3103 1142 2972 
Q 928 2841 928 2578 
Q 928 2378 1081 2264 
Q 1234 2150 1697 2047 
L 1894 2003 
Q 2506 1872 2764 1633 
Q 3022 1394 3022 966 
Q 3022 478 2636 193 
Q 2250 -91 1575 -91 
Q 1294 -91 989 -36 
Q 684 19 347 128 
L 347 722 
Q 666 556 975 473 
Q 1284 391 1588 391 
Q 1994 391 2212 530 
Q 2431 669 2431 922 
Q 2431 1156 2273 1281 
Q 2116 1406 1581 1522 
L 1381 1569 
Q 847 1681 609 1914 
Q 372 2147 372 2553 
Q 372 3047 722 3315 
Q 1072 3584 1716 3584 
Q 2034 3584 2315 3537 
Q 2597 3491 2834 3397 
z
" transform="scale(0.015625)"/>
       <path id="DejaVuSans-29" d="M 513 4856 
L 1013 4856 
Q 1481 4119 1714 3412 
Q 1947 2706 1947 2009 
Q 1947 1309 1714 600 
Q 1481 -109 1013 -844 
L 513 -844 
Q 928 -128 1133 580 
Q 1338 1288 1338 2009 
Q 1338 2731 1133 3434 
Q 928 4138 513 4856 
z
" transform="scale(0.015625)"/>
      </defs>
      <use xlink:href="#DejaVuSans-54"/>
      <use xlink:href="#DejaVuSans-69" transform="translate(57.958984 0)"/>
      <use xlink:href="#DejaVuSans-6d" transform="translate(85.742188 0)"/>
      <use xlink:href="#DejaVuSans-65" transform="translate(183.154297 0)"/>
      <use xlink:href="#DejaVuSans-20" transform="translate(244.677734 0)"/>
      <use xlink:href="#DejaVuSans-28" transform="translate(276.464844 0)"/>
      <use xlink:href="#DejaVuSans-6d" transform="translate(315.478516 0)"/>
      <use xlink:href="#DejaVuSans-73" transform="translate(412.890625 0)"/>
      <use xlink:href="#DejaVuSans-29" transform="translate(464.990234 0)"/>
     </g>
    </g>
   </g>
   <g id="line2d_35">
    <path d="M 103.408011 219.996887 
L 108.531978 232.19132 
L 113.655945 232.821834 
L 118.779912 233.381131 
L 123.903879 231.591855 
L 129.027846 232.556587 
L 134.151813 229.440441 
L 139.27578 233.353052 
L 144.399747 234.345237 
L 149.523714 235.093949 
L 154.647681 221.091962 
L 159.771648 231.867956 
L 164.895615 236.108782 
L 170.019582 234.952105 
L 175.143549 236.741219 
L 180.267515 232.635943 
L 185.391482 230.834733 
L 190.515449 233.899181 
L 195.639416 234.12898 
L 200.763383 233.381849 
L 205.88735 229.417506 
L 211.011317 221.792477 
L 216.135284 230.939956 
L 221.259251 234.905342 
L 226.383218 210.457479 
L 231.507185 233.356283 
L 236.631152 233.641426 
L 241.755119 233.645671 
L 246.879086 235.59314 
L 252.003053 232.588666 
L 257.12702 233.045553 
L 262.250987 235.978279 
L 267.374954 235.327665 
L 272.49892 233.559899 
L 277.622887 233.85507 
L 282.746854 237.14496 
L 287.870821 232.085106 
L 292.994788 234.332438 
L 298.118755 235.698335 
L 303.242722 233.858523 
L 308.366689 235.802222 
L 313.490656 236.071401 
L 318.614623 232.487484 
L 323.73859 231.78722 
L 328.862557 236.172214 
L 333.986524 236.606604 
L 339.110491 215.185337 
L 344.234458 232.733106 
L 349.358425 233.254545 
L 354.482392 237.355083 
L 359.606358 236.789818 
L 364.730325 236.349163 
L 369.854292 233.804625 
L 374.978259 234.381428 
L 380.102226 235.65495 
L 385.226193 233.330992 
L 390.35016 236.17827 
L 395.474127 235.368038 
L 400.598094 232.588677 
L 405.722061 234.847651 
L 410.846028 236.84509 
L 415.969995 233.383631 
L 421.093962 233.748781 
L 426.217929 235.688268 
L 431.341896 233.87842 
L 436.465863 234.441592 
L 441.58983 234.597844 
L 446.713796 233.037128 
L 451.837763 234.999152 
L 456.96173 232.806292 
L 462.085697 235.25708 
L 467.209664 233.70621 
L 472.333631 233.558016 
L 477.457598 236.559548 
L 482.581565 237.39773 
L 487.705532 234.05225 
L 492.829499 235.735839 
L 497.953466 236.310254 
L 503.077433 233.466809 
L 508.2014 233.708427 
L 513.325367 234.491156 
L 518.449334 234.876165 
L 523.573301 233.600488 
L 528.697268 236.407305 
L 533.821235 235.516117 
L 538.945201 236.581281 
L 544.069168 231.568528 
L 549.193135 235.315882 
L 554.317102 235.133405 
L 559.441069 234.778348 
L 564.565036 232.214491 
L 569.689003 234.561234 
L 574.81297 233.870407 
L 579.936937 220.244568 
L 585.060904 236.302611 
L 590.184871 237.265263 
L 595.308838 236.054441 
L 600.432805 231.93778 
L 605.556772 235.435767 
L 610.680739 223.506611 
" clip-path="url(#pe0dcc5c8bc)" style="fill: none; stroke: #35dc67; stroke-width: 1.5; stroke-linecap: square"/>
    <defs>
     <path id="m2447694305" d="M 0 3 
C 0.795609 3 1.55874 2.683901 2.12132 2.12132 
C 2.683901 1.55874 3 0.795609 3 0 
C 3 -0.795609 2.683901 -1.55874 2.12132 -2.12132 
C 1.55874 -2.683901 0.795609 -3 0 -3 
C -0.795609 -3 -1.55874 -2.683901 -2.12132 -2.12132 
C -2.683901 -1.55874 -3 -0.795609 -3 0 
C -3 0.795609 -2.683901 1.55874 -2.12132 2.12132 
C -1.55874 2.683901 -0.795609 3 0 3 
z
" style="stroke: #ffffff; stroke-width: 0.75"/>
    </defs>
    <g clip-path="url(#pe0dcc5c8bc)">
     <use xlink:href="#m2447694305" x="103.408011" y="219.996887" style="fill: #35dc67; stroke: #ffffff; stroke-width: 0.75"/>
     <use xlink:href="#m2447694305" x="108.531978" y="232.19132" style="fill: #35dc67; stroke: #ffffff; stroke-width: 0.75"/>
     <use xlink:href="#m2447694305" x="113.655945" y="232.821834" style="fill: #35dc67; stroke: #ffffff; stroke-width: 0.75"/>
     <use xlink:href="#m2447694305" x="118.779912" y="233.381131" style="fill: #35dc67; stroke: #ffffff; stroke-width: 0.75"/>
     <use xlink:href="#m2447694305" x="123.903879" y="231.591855" style="fill: #35dc67; stroke: #ffffff; stroke-width: 0.75"/>
     <use xlink:href="#m2447694305" x="129.027846" y="232.556587" style="fill: #35dc67; stroke: #ffffff; stroke-width: 0.75"/>
     <use xlink:href="#m2447694305" x="134.151813" y="229.440441" style="fill: #35dc67; stroke: #ffffff; stroke-width: 0.75"/>
     <use xlink:href="#m2447694305" x="139.27578" y="233.353052" style="fill: #35dc67; stroke: #ffffff; stroke-width: 0.75"/>
     <use xlink:href="#m2447694305" x="144.399747" y="234.345237" style="fill: #35dc67; stroke: #ffffff; stroke-width: 0.75"/>
     <use xlink:href="#m2447694305" x="149.523714" y="235.093949" style="fill: #35dc67; stroke: #ffffff; stroke-width: 0.75"/>
     <use xlink:href="#m2447694305" x="154.647681" y="221.091962" style="fill: #35dc67; stroke: #ffffff; stroke-width: 0.75"/>
     <use xlink:href="#m2447694305" x="159.771648" y="231.867956" style="fill: #35dc67; stroke: #ffffff; stroke-width: 0.75"/>
     <use xlink:href="#m2447694305" x="164.895615" y="236.108782" style="fill: #35dc67; stroke: #ffffff; stroke-width: 0.75"/>
     <use xlink:href="#m2447694305" x="170.019582" y="234.952105" style="fill: #35dc67; stroke: #ffffff; stroke-width: 0.75"/>
     <use xlink:href="#m2447694305" x="175.143549" y="236.741219" style="fill: #35dc67; stroke: #ffffff; stroke-width: 0.75"/>
     <use xlink:href="#m2447694305" x="180.267515" y="232.635943" style="fill: #35dc67; stroke: #ffffff; stroke-width: 0.75"/>
     <use xlink:href="#m2447694305" x="185.391482" y="230.834733" style="fill: #35dc67; stroke: #ffffff; stroke-width: 0.75"/>
     <use xlink:href="#m2447694305" x="190.515449" y="233.899181" style="fill: #35dc67; stroke: #ffffff; stroke-width: 0.75"/>
     <use xlink:href="#m2447694305" x="195.639416" y="234.12898" style="fill: #35dc67; stroke: #ffffff; stroke-width: 0.75"/>
     <use xlink:href="#m2447694305" x="200.763383" y="233.381849" style="fill: #35dc67; stroke: #ffffff; stroke-width: 0.75"/>
     <use xlink:href="#m2447694305" x="205.88735" y="229.417506" style="fill: #35dc67; stroke: #ffffff; stroke-width: 0.75"/>
     <use xlink:href="#m2447694305" x="211.011317" y="221.792477" style="fill: #35dc67; stroke: #ffffff; stroke-width: 0.75"/>
     <use xlink:href="#m2447694305" x="216.135284" y="230.939956" style="fill: #35dc67; stroke: #ffffff; stroke-width: 0.75"/>
     <use xlink:href="#m2447694305" x="221.259251" y="234.905342" style="fill: #35dc67; stroke: #ffffff; stroke-width: 0.75"/>
     <use xlink:href="#m2447694305" x="226.383218" y="210.457479" style="fill: #35dc67; stroke: #ffffff; stroke-width: 0.75"/>
     <use xlink:href="#m2447694305" x="231.507185" y="233.356283" style="fill: #35dc67; stroke: #ffffff; stroke-width: 0.75"/>
     <use xlink:href="#m2447694305" x="236.631152" y="233.641426" style="fill: #35dc67; stroke: #ffffff; stroke-width: 0.75"/>
     <use xlink:href="#m2447694305" x="241.755119" y="233.645671" style="fill: #35dc67; stroke: #ffffff; stroke-width: 0.75"/>
     <use xlink:href="#m2447694305" x="246.879086" y="235.59314" style="fill: #35dc67; stroke: #ffffff; stroke-width: 0.75"/>
     <use xlink:href="#m2447694305" x="252.003053" y="232.588666" style="fill: #35dc67; stroke: #ffffff; stroke-width: 0.75"/>
     <use xlink:href="#m2447694305" x="257.12702" y="233.045553" style="fill: #35dc67; stroke: #ffffff; stroke-width: 0.75"/>
     <use xlink:href="#m2447694305" x="262.250987" y="235.978279" style="fill: #35dc67; stroke: #ffffff; stroke-width: 0.75"/>
     <use xlink:href="#m2447694305" x="267.374954" y="235.327665" style="fill: #35dc67; stroke: #ffffff; stroke-width: 0.75"/>
     <use xlink:href="#m2447694305" x="272.49892" y="233.559899" style="fill: #35dc67; stroke: #ffffff; stroke-width: 0.75"/>
     <use xlink:href="#m2447694305" x="277.622887" y="233.85507" style="fill: #35dc67; stroke: #ffffff; stroke-width: 0.75"/>
     <use xlink:href="#m2447694305" x="282.746854" y="237.14496" style="fill: #35dc67; stroke: #ffffff; stroke-width: 0.75"/>
     <use xlink:href="#m2447694305" x="287.870821" y="232.085106" style="fill: #35dc67; stroke: #ffffff; stroke-width: 0.75"/>
     <use xlink:href="#m2447694305" x="292.994788" y="234.332438" style="fill: #35dc67; stroke: #ffffff; stroke-width: 0.75"/>
     <use xlink:href="#m2447694305" x="298.118755" y="235.698335" style="fill: #35dc67; stroke: #ffffff; stroke-width: 0.75"/>
     <use xlink:href="#m2447694305" x="303.242722" y="233.858523" style="fill: #35dc67; stroke: #ffffff; stroke-width: 0.75"/>
     <use xlink:href="#m2447694305" x="308.366689" y="235.802222" style="fill: #35dc67; stroke: #ffffff; stroke-width: 0.75"/>
     <use xlink:href="#m2447694305" x="313.490656" y="236.071401" style="fill: #35dc67; stroke: #ffffff; stroke-width: 0.75"/>
     <use xlink:href="#m2447694305" x="318.614623" y="232.487484" style="fill: #35dc67; stroke: #ffffff; stroke-width: 0.75"/>
     <use xlink:href="#m2447694305" x="323.73859" y="231.78722" style="fill: #35dc67; stroke: #ffffff; stroke-width: 0.75"/>
     <use xlink:href="#m2447694305" x="328.862557" y="236.172214" style="fill: #35dc67; stroke: #ffffff; stroke-width: 0.75"/>
     <use xlink:href="#m2447694305" x="333.986524" y="236.606604" style="fill: #35dc67; stroke: #ffffff; stroke-width: 0.75"/>
     <use xlink:href="#m2447694305" x="339.110491" y="215.185337" style="fill: #35dc67; stroke: #ffffff; stroke-width: 0.75"/>
     <use xlink:href="#m2447694305" x="344.234458" y="232.733106" style="fill: #35dc67; stroke: #ffffff; stroke-width: 0.75"/>
     <use xlink:href="#m2447694305" x="349.358425" y="233.254545" style="fill: #35dc67; stroke: #ffffff; stroke-width: 0.75"/>
     <use xlink:href="#m2447694305" x="354.482392" y="237.355083" style="fill: #35dc67; stroke: #ffffff; stroke-width: 0.75"/>
     <use xlink:href="#m2447694305" x="359.606358" y="236.789818" style="fill: #35dc67; stroke: #ffffff; stroke-width: 0.75"/>
     <use xlink:href="#m2447694305" x="364.730325" y="236.349163" style="fill: #35dc67; stroke: #ffffff; stroke-width: 0.75"/>
     <use xlink:href="#m2447694305" x="369.854292" y="233.804625" style="fill: #35dc67; stroke: #ffffff; stroke-width: 0.75"/>
     <use xlink:href="#m2447694305" x="374.978259" y="234.381428" style="fill: #35dc67; stroke: #ffffff; stroke-width: 0.75"/>
     <use xlink:href="#m2447694305" x="380.102226" y="235.65495" style="fill: #35dc67; stroke: #ffffff; stroke-width: 0.75"/>
     <use xlink:href="#m2447694305" x="385.226193" y="233.330992" style="fill: #35dc67; stroke: #ffffff; stroke-width: 0.75"/>
     <use xlink:href="#m2447694305" x="390.35016" y="236.17827" style="fill: #35dc67; stroke: #ffffff; stroke-width: 0.75"/>
     <use xlink:href="#m2447694305" x="395.474127" y="235.368038" style="fill: #35dc67; stroke: #ffffff; stroke-width: 0.75"/>
     <use xlink:href="#m2447694305" x="400.598094" y="232.588677" style="fill: #35dc67; stroke: #ffffff; stroke-width: 0.75"/>
     <use xlink:href="#m2447694305" x="405.722061" y="234.847651" style="fill: #35dc67; stroke: #ffffff; stroke-width: 0.75"/>
     <use xlink:href="#m2447694305" x="410.846028" y="236.84509" style="fill: #35dc67; stroke: #ffffff; stroke-width: 0.75"/>
     <use xlink:href="#m2447694305" x="415.969995" y="233.383631" style="fill: #35dc67; stroke: #ffffff; stroke-width: 0.75"/>
     <use xlink:href="#m2447694305" x="421.093962" y="233.748781" style="fill: #35dc67; stroke: #ffffff; stroke-width: 0.75"/>
     <use xlink:href="#m2447694305" x="426.217929" y="235.688268" style="fill: #35dc67; stroke: #ffffff; stroke-width: 0.75"/>
     <use xlink:href="#m2447694305" x="431.341896" y="233.87842" style="fill: #35dc67; stroke: #ffffff; stroke-width: 0.75"/>
     <use xlink:href="#m2447694305" x="436.465863" y="234.441592" style="fill: #35dc67; stroke: #ffffff; stroke-width: 0.75"/>
     <use xlink:href="#m2447694305" x="441.58983" y="234.597844" style="fill: #35dc67; stroke: #ffffff; stroke-width: 0.75"/>
     <use xlink:href="#m2447694305" x="446.713796" y="233.037128" style="fill: #35dc67; stroke: #ffffff; stroke-width: 0.75"/>
     <use xlink:href="#m2447694305" x="451.837763" y="234.999152" style="fill: #35dc67; stroke: #ffffff; stroke-width: 0.75"/>
     <use xlink:href="#m2447694305" x="456.96173" y="232.806292" style="fill: #35dc67; stroke: #ffffff; stroke-width: 0.75"/>
     <use xlink:href="#m2447694305" x="462.085697" y="235.25708" style="fill: #35dc67; stroke: #ffffff; stroke-width: 0.75"/>
     <use xlink:href="#m2447694305" x="467.209664" y="233.70621" style="fill: #35dc67; stroke: #ffffff; stroke-width: 0.75"/>
     <use xlink:href="#m2447694305" x="472.333631" y="233.558016" style="fill: #35dc67; stroke: #ffffff; stroke-width: 0.75"/>
     <use xlink:href="#m2447694305" x="477.457598" y="236.559548" style="fill: #35dc67; stroke: #ffffff; stroke-width: 0.75"/>
     <use xlink:href="#m2447694305" x="482.581565" y="237.39773" style="fill: #35dc67; stroke: #ffffff; stroke-width: 0.75"/>
     <use xlink:href="#m2447694305" x="487.705532" y="234.05225" style="fill: #35dc67; stroke: #ffffff; stroke-width: 0.75"/>
     <use xlink:href="#m2447694305" x="492.829499" y="235.735839" style="fill: #35dc67; stroke: #ffffff; stroke-width: 0.75"/>
     <use xlink:href="#m2447694305" x="497.953466" y="236.310254" style="fill: #35dc67; stroke: #ffffff; stroke-width: 0.75"/>
     <use xlink:href="#m2447694305" x="503.077433" y="233.466809" style="fill: #35dc67; stroke: #ffffff; stroke-width: 0.75"/>
     <use xlink:href="#m2447694305" x="508.2014" y="233.708427" style="fill: #35dc67; stroke: #ffffff; stroke-width: 0.75"/>
     <use xlink:href="#m2447694305" x="513.325367" y="234.491156" style="fill: #35dc67; stroke: #ffffff; stroke-width: 0.75"/>
     <use xlink:href="#m2447694305" x="518.449334" y="234.876165" style="fill: #35dc67; stroke: #ffffff; stroke-width: 0.75"/>
     <use xlink:href="#m2447694305" x="523.573301" y="233.600488" style="fill: #35dc67; stroke: #ffffff; stroke-width: 0.75"/>
     <use xlink:href="#m2447694305" x="528.697268" y="236.407305" style="fill: #35dc67; stroke: #ffffff; stroke-width: 0.75"/>
     <use xlink:href="#m2447694305" x="533.821235" y="235.516117" style="fill: #35dc67; stroke: #ffffff; stroke-width: 0.75"/>
     <use xlink:href="#m2447694305" x="538.945201" y="236.581281" style="fill: #35dc67; stroke: #ffffff; stroke-width: 0.75"/>
     <use xlink:href="#m2447694305" x="544.069168" y="231.568528" style="fill: #35dc67; stroke: #ffffff; stroke-width: 0.75"/>
     <use xlink:href="#m2447694305" x="549.193135" y="235.315882" style="fill: #35dc67; stroke: #ffffff; stroke-width: 0.75"/>
     <use xlink:href="#m2447694305" x="554.317102" y="235.133405" style="fill: #35dc67; stroke: #ffffff; stroke-width: 0.75"/>
     <use xlink:href="#m2447694305" x="559.441069" y="234.778348" style="fill: #35dc67; stroke: #ffffff; stroke-width: 0.75"/>
     <use xlink:href="#m2447694305" x="564.565036" y="232.214491" style="fill: #35dc67; stroke: #ffffff; stroke-width: 0.75"/>
     <use xlink:href="#m2447694305" x="569.689003" y="234.561234" style="fill: #35dc67; stroke: #ffffff; stroke-width: 0.75"/>
     <use xlink:href="#m2447694305" x="574.81297" y="233.870407" style="fill: #35dc67; stroke: #ffffff; stroke-width: 0.75"/>
     <use xlink:href="#m2447694305" x="579.936937" y="220.244568" style="fill: #35dc67; stroke: #ffffff; stroke-width: 0.75"/>
     <use xlink:href="#m2447694305" x="585.060904" y="236.302611" style="fill: #35dc67; stroke: #ffffff; stroke-width: 0.75"/>
     <use xlink:href="#m2447694305" x="590.184871" y="237.265263" style="fill: #35dc67; stroke: #ffffff; stroke-width: 0.75"/>
     <use xlink:href="#m2447694305" x="595.308838" y="236.054441" style="fill: #35dc67; stroke: #ffffff; stroke-width: 0.75"/>
     <use xlink:href="#m2447694305" x="600.432805" y="231.93778" style="fill: #35dc67; stroke: #ffffff; stroke-width: 0.75"/>
     <use xlink:href="#m2447694305" x="605.556772" y="235.435767" style="fill: #35dc67; stroke: #ffffff; stroke-width: 0.75"/>
     <use xlink:href="#m2447694305" x="610.680739" y="223.506611" style="fill: #35dc67; stroke: #ffffff; stroke-width: 0.75"/>
    </g>
   </g>
   <g id="line2d_36">
    <path d="M 103.408011 227.539783 
L 108.531978 226.697372 
L 113.655945 215.000635 
L 118.779912 215.951599 
L 123.903879 223.477977 
L 129.027846 225.540097 
L 134.151813 231.217245 
L 139.27578 233.24156 
L 144.399747 226.447336 
L 149.523714 214.824989 
L 154.647681 214.803713 
L 159.771648 224.500075 
L 164.895615 229.923534 
L 170.019582 229.254346 
L 175.143549 225.010449 
L 180.267515 228.766057 
L 185.391482 216.444175 
L 190.515449 218.12517 
L 195.639416 234.539491 
L 200.763383 223.988647 
L 205.88735 232.645267 
L 211.011317 212.787485 
L 216.135284 190.46175 
L 221.259251 205.617784 
L 226.383218 217.29233 
L 231.507185 232.676206 
L 236.631152 231.576257 
L 241.755119 224.399085 
L 246.879086 231.442415 
L 252.003053 225.528497 
L 257.12702 233.131259 
L 262.250987 214.260408 
L 267.374954 233.641951 
L 272.49892 232.422496 
L 277.622887 227.85553 
L 282.746854 231.507564 
L 287.870821 230.986146 
L 292.994788 235.525637 
L 298.118755 226.948017 
L 303.242722 226.511804 
L 308.366689 233.769472 
L 313.490656 232.178601 
L 318.614623 232.785056 
L 323.73859 236.456278 
L 328.862557 228.508341 
L 333.986524 234.959118 
L 339.110491 229.994266 
L 344.234458 233.899761 
L 349.358425 234.808692 
L 354.482392 233.332385 
L 359.606358 235.386496 
L 364.730325 235.115098 
L 369.854292 229.974444 
L 374.978259 233.184041 
L 380.102226 233.208661 
L 385.226193 233.304262 
L 390.35016 229.075677 
L 395.474127 233.035343 
L 400.598094 228.596315 
L 405.722061 230.084399 
L 410.846028 233.848594 
L 415.969995 233.317133 
L 421.093962 229.9248 
L 426.217929 233.139202 
L 431.341896 224.25211 
L 436.465863 234.000203 
L 441.58983 231.548007 
L 446.713796 235.056465 
L 451.837763 233.45363 
L 456.96173 232.024273 
L 462.085697 232.944832 
L 467.209664 235.091275 
L 472.333631 236.080551 
L 477.457598 234.629052 
L 482.581565 229.00934 
L 487.705532 232.176366 
L 492.829499 234.273486 
L 497.953466 234.525516 
L 503.077433 228.334927 
L 508.2014 232.677322 
L 513.325367 232.148299 
L 518.449334 234.52024 
L 523.573301 233.948804 
L 528.697268 236.546094 
L 533.821235 233.355787 
L 538.945201 231.316451 
L 544.069168 234.306724 
L 549.193135 229.091497 
L 554.317102 233.77635 
L 559.441069 227.190968 
L 564.565036 232.873789 
L 569.689003 234.489994 
L 574.81297 206.980156 
L 579.936937 232.526286 
L 585.060904 236.009869 
L 590.184871 231.161377 
L 595.308838 234.572619 
L 600.432805 232.527434 
L 605.556772 229.931483 
L 610.680739 227.84434 
" clip-path="url(#pe0dcc5c8bc)" style="fill: none; stroke: #007bff; stroke-width: 1.5; stroke-linecap: square"/>
    <defs>
     <path id="mf0107666ea" d="M 0 3 
C 0.795609 3 1.55874 2.683901 2.12132 2.12132 
C 2.683901 1.55874 3 0.795609 3 0 
C 3 -0.795609 2.683901 -1.55874 2.12132 -2.12132 
C 1.55874 -2.683901 0.795609 -3 0 -3 
C -0.795609 -3 -1.55874 -2.683901 -2.12132 -2.12132 
C -2.683901 -1.55874 -3 -0.795609 -3 0 
C -3 0.795609 -2.683901 1.55874 -2.12132 2.12132 
C -1.55874 2.683901 -0.795609 3 0 3 
z
" style="stroke: #ffffff; stroke-width: 0.75"/>
    </defs>
    <g clip-path="url(#pe0dcc5c8bc)">
     <use xlink:href="#mf0107666ea" x="103.408011" y="227.539783" style="fill: #007bff; stroke: #ffffff; stroke-width: 0.75"/>
     <use xlink:href="#mf0107666ea" x="108.531978" y="226.697372" style="fill: #007bff; stroke: #ffffff; stroke-width: 0.75"/>
     <use xlink:href="#mf0107666ea" x="113.655945" y="215.000635" style="fill: #007bff; stroke: #ffffff; stroke-width: 0.75"/>
     <use xlink:href="#mf0107666ea" x="118.779912" y="215.951599" style="fill: #007bff; stroke: #ffffff; stroke-width: 0.75"/>
     <use xlink:href="#mf0107666ea" x="123.903879" y="223.477977" style="fill: #007bff; stroke: #ffffff; stroke-width: 0.75"/>
     <use xlink:href="#mf0107666ea" x="129.027846" y="225.540097" style="fill: #007bff; stroke: #ffffff; stroke-width: 0.75"/>
     <use xlink:href="#mf0107666ea" x="134.151813" y="231.217245" style="fill: #007bff; stroke: #ffffff; stroke-width: 0.75"/>
     <use xlink:href="#mf0107666ea" x="139.27578" y="233.24156" style="fill: #007bff; stroke: #ffffff; stroke-width: 0.75"/>
     <use xlink:href="#mf0107666ea" x="144.399747" y="226.447336" style="fill: #007bff; stroke: #ffffff; stroke-width: 0.75"/>
     <use xlink:href="#mf0107666ea" x="149.523714" y="214.824989" style="fill: #007bff; stroke: #ffffff; stroke-width: 0.75"/>
     <use xlink:href="#mf0107666ea" x="154.647681" y="214.803713" style="fill: #007bff; stroke: #ffffff; stroke-width: 0.75"/>
     <use xlink:href="#mf0107666ea" x="159.771648" y="224.500075" style="fill: #007bff; stroke: #ffffff; stroke-width: 0.75"/>
     <use xlink:href="#mf0107666ea" x="164.895615" y="229.923534" style="fill: #007bff; stroke: #ffffff; stroke-width: 0.75"/>
     <use xlink:href="#mf0107666ea" x="170.019582" y="229.254346" style="fill: #007bff; stroke: #ffffff; stroke-width: 0.75"/>
     <use xlink:href="#mf0107666ea" x="175.143549" y="225.010449" style="fill: #007bff; stroke: #ffffff; stroke-width: 0.75"/>
     <use xlink:href="#mf0107666ea" x="180.267515" y="228.766057" style="fill: #007bff; stroke: #ffffff; stroke-width: 0.75"/>
     <use xlink:href="#mf0107666ea" x="185.391482" y="216.444175" style="fill: #007bff; stroke: #ffffff; stroke-width: 0.75"/>
     <use xlink:href="#mf0107666ea" x="190.515449" y="218.12517" style="fill: #007bff; stroke: #ffffff; stroke-width: 0.75"/>
     <use xlink:href="#mf0107666ea" x="195.639416" y="234.539491" style="fill: #007bff; stroke: #ffffff; stroke-width: 0.75"/>
     <use xlink:href="#mf0107666ea" x="200.763383" y="223.988647" style="fill: #007bff; stroke: #ffffff; stroke-width: 0.75"/>
     <use xlink:href="#mf0107666ea" x="205.88735" y="232.645267" style="fill: #007bff; stroke: #ffffff; stroke-width: 0.75"/>
     <use xlink:href="#mf0107666ea" x="211.011317" y="212.787485" style="fill: #007bff; stroke: #ffffff; stroke-width: 0.75"/>
     <use xlink:href="#mf0107666ea" x="216.135284" y="190.46175" style="fill: #007bff; stroke: #ffffff; stroke-width: 0.75"/>
     <use xlink:href="#mf0107666ea" x="221.259251" y="205.617784" style="fill: #007bff; stroke: #ffffff; stroke-width: 0.75"/>
     <use xlink:href="#mf0107666ea" x="226.383218" y="217.29233" style="fill: #007bff; stroke: #ffffff; stroke-width: 0.75"/>
     <use xlink:href="#mf0107666ea" x="231.507185" y="232.676206" style="fill: #007bff; stroke: #ffffff; stroke-width: 0.75"/>
     <use xlink:href="#mf0107666ea" x="236.631152" y="231.576257" style="fill: #007bff; stroke: #ffffff; stroke-width: 0.75"/>
     <use xlink:href="#mf0107666ea" x="241.755119" y="224.399085" style="fill: #007bff; stroke: #ffffff; stroke-width: 0.75"/>
     <use xlink:href="#mf0107666ea" x="246.879086" y="231.442415" style="fill: #007bff; stroke: #ffffff; stroke-width: 0.75"/>
     <use xlink:href="#mf0107666ea" x="252.003053" y="225.528497" style="fill: #007bff; stroke: #ffffff; stroke-width: 0.75"/>
     <use xlink:href="#mf0107666ea" x="257.12702" y="233.131259" style="fill: #007bff; stroke: #ffffff; stroke-width: 0.75"/>
     <use xlink:href="#mf0107666ea" x="262.250987" y="214.260408" style="fill: #007bff; stroke: #ffffff; stroke-width: 0.75"/>
     <use xlink:href="#mf0107666ea" x="267.374954" y="233.641951" style="fill: #007bff; stroke: #ffffff; stroke-width: 0.75"/>
     <use xlink:href="#mf0107666ea" x="272.49892" y="232.422496" style="fill: #007bff; stroke: #ffffff; stroke-width: 0.75"/>
     <use xlink:href="#mf0107666ea" x="277.622887" y="227.85553" style="fill: #007bff; stroke: #ffffff; stroke-width: 0.75"/>
     <use xlink:href="#mf0107666ea" x="282.746854" y="231.507564" style="fill: #007bff; stroke: #ffffff; stroke-width: 0.75"/>
     <use xlink:href="#mf0107666ea" x="287.870821" y="230.986146" style="fill: #007bff; stroke: #ffffff; stroke-width: 0.75"/>
     <use xlink:href="#mf0107666ea" x="292.994788" y="235.525637" style="fill: #007bff; stroke: #ffffff; stroke-width: 0.75"/>
     <use xlink:href="#mf0107666ea" x="298.118755" y="226.948017" style="fill: #007bff; stroke: #ffffff; stroke-width: 0.75"/>
     <use xlink:href="#mf0107666ea" x="303.242722" y="226.511804" style="fill: #007bff; stroke: #ffffff; stroke-width: 0.75"/>
     <use xlink:href="#mf0107666ea" x="308.366689" y="233.769472" style="fill: #007bff; stroke: #ffffff; stroke-width: 0.75"/>
     <use xlink:href="#mf0107666ea" x="313.490656" y="232.178601" style="fill: #007bff; stroke: #ffffff; stroke-width: 0.75"/>
     <use xlink:href="#mf0107666ea" x="318.614623" y="232.785056" style="fill: #007bff; stroke: #ffffff; stroke-width: 0.75"/>
     <use xlink:href="#mf0107666ea" x="323.73859" y="236.456278" style="fill: #007bff; stroke: #ffffff; stroke-width: 0.75"/>
     <use xlink:href="#mf0107666ea" x="328.862557" y="228.508341" style="fill: #007bff; stroke: #ffffff; stroke-width: 0.75"/>
     <use xlink:href="#mf0107666ea" x="333.986524" y="234.959118" style="fill: #007bff; stroke: #ffffff; stroke-width: 0.75"/>
     <use xlink:href="#mf0107666ea" x="339.110491" y="229.994266" style="fill: #007bff; stroke: #ffffff; stroke-width: 0.75"/>
     <use xlink:href="#mf0107666ea" x="344.234458" y="233.899761" style="fill: #007bff; stroke: #ffffff; stroke-width: 0.75"/>
     <use xlink:href="#mf0107666ea" x="349.358425" y="234.808692" style="fill: #007bff; stroke: #ffffff; stroke-width: 0.75"/>
     <use xlink:href="#mf0107666ea" x="354.482392" y="233.332385" style="fill: #007bff; stroke: #ffffff; stroke-width: 0.75"/>
     <use xlink:href="#mf0107666ea" x="359.606358" y="235.386496" style="fill: #007bff; stroke: #ffffff; stroke-width: 0.75"/>
     <use xlink:href="#mf0107666ea" x="364.730325" y="235.115098" style="fill: #007bff; stroke: #ffffff; stroke-width: 0.75"/>
     <use xlink:href="#mf0107666ea" x="369.854292" y="229.974444" style="fill: #007bff; stroke: #ffffff; stroke-width: 0.75"/>
     <use xlink:href="#mf0107666ea" x="374.978259" y="233.184041" style="fill: #007bff; stroke: #ffffff; stroke-width: 0.75"/>
     <use xlink:href="#mf0107666ea" x="380.102226" y="233.208661" style="fill: #007bff; stroke: #ffffff; stroke-width: 0.75"/>
     <use xlink:href="#mf0107666ea" x="385.226193" y="233.304262" style="fill: #007bff; stroke: #ffffff; stroke-width: 0.75"/>
     <use xlink:href="#mf0107666ea" x="390.35016" y="229.075677" style="fill: #007bff; stroke: #ffffff; stroke-width: 0.75"/>
     <use xlink:href="#mf0107666ea" x="395.474127" y="233.035343" style="fill: #007bff; stroke: #ffffff; stroke-width: 0.75"/>
     <use xlink:href="#mf0107666ea" x="400.598094" y="228.596315" style="fill: #007bff; stroke: #ffffff; stroke-width: 0.75"/>
     <use xlink:href="#mf0107666ea" x="405.722061" y="230.084399" style="fill: #007bff; stroke: #ffffff; stroke-width: 0.75"/>
     <use xlink:href="#mf0107666ea" x="410.846028" y="233.848594" style="fill: #007bff; stroke: #ffffff; stroke-width: 0.75"/>
     <use xlink:href="#mf0107666ea" x="415.969995" y="233.317133" style="fill: #007bff; stroke: #ffffff; stroke-width: 0.75"/>
     <use xlink:href="#mf0107666ea" x="421.093962" y="229.9248" style="fill: #007bff; stroke: #ffffff; stroke-width: 0.75"/>
     <use xlink:href="#mf0107666ea" x="426.217929" y="233.139202" style="fill: #007bff; stroke: #ffffff; stroke-width: 0.75"/>
     <use xlink:href="#mf0107666ea" x="431.341896" y="224.25211" style="fill: #007bff; stroke: #ffffff; stroke-width: 0.75"/>
     <use xlink:href="#mf0107666ea" x="436.465863" y="234.000203" style="fill: #007bff; stroke: #ffffff; stroke-width: 0.75"/>
     <use xlink:href="#mf0107666ea" x="441.58983" y="231.548007" style="fill: #007bff; stroke: #ffffff; stroke-width: 0.75"/>
     <use xlink:href="#mf0107666ea" x="446.713796" y="235.056465" style="fill: #007bff; stroke: #ffffff; stroke-width: 0.75"/>
     <use xlink:href="#mf0107666ea" x="451.837763" y="233.45363" style="fill: #007bff; stroke: #ffffff; stroke-width: 0.75"/>
     <use xlink:href="#mf0107666ea" x="456.96173" y="232.024273" style="fill: #007bff; stroke: #ffffff; stroke-width: 0.75"/>
     <use xlink:href="#mf0107666ea" x="462.085697" y="232.944832" style="fill: #007bff; stroke: #ffffff; stroke-width: 0.75"/>
     <use xlink:href="#mf0107666ea" x="467.209664" y="235.091275" style="fill: #007bff; stroke: #ffffff; stroke-width: 0.75"/>
     <use xlink:href="#mf0107666ea" x="472.333631" y="236.080551" style="fill: #007bff; stroke: #ffffff; stroke-width: 0.75"/>
     <use xlink:href="#mf0107666ea" x="477.457598" y="234.629052" style="fill: #007bff; stroke: #ffffff; stroke-width: 0.75"/>
     <use xlink:href="#mf0107666ea" x="482.581565" y="229.00934" style="fill: #007bff; stroke: #ffffff; stroke-width: 0.75"/>
     <use xlink:href="#mf0107666ea" x="487.705532" y="232.176366" style="fill: #007bff; stroke: #ffffff; stroke-width: 0.75"/>
     <use xlink:href="#mf0107666ea" x="492.829499" y="234.273486" style="fill: #007bff; stroke: #ffffff; stroke-width: 0.75"/>
     <use xlink:href="#mf0107666ea" x="497.953466" y="234.525516" style="fill: #007bff; stroke: #ffffff; stroke-width: 0.75"/>
     <use xlink:href="#mf0107666ea" x="503.077433" y="228.334927" style="fill: #007bff; stroke: #ffffff; stroke-width: 0.75"/>
     <use xlink:href="#mf0107666ea" x="508.2014" y="232.677322" style="fill: #007bff; stroke: #ffffff; stroke-width: 0.75"/>
     <use xlink:href="#mf0107666ea" x="513.325367" y="232.148299" style="fill: #007bff; stroke: #ffffff; stroke-width: 0.75"/>
     <use xlink:href="#mf0107666ea" x="518.449334" y="234.52024" style="fill: #007bff; stroke: #ffffff; stroke-width: 0.75"/>
     <use xlink:href="#mf0107666ea" x="523.573301" y="233.948804" style="fill: #007bff; stroke: #ffffff; stroke-width: 0.75"/>
     <use xlink:href="#mf0107666ea" x="528.697268" y="236.546094" style="fill: #007bff; stroke: #ffffff; stroke-width: 0.75"/>
     <use xlink:href="#mf0107666ea" x="533.821235" y="233.355787" style="fill: #007bff; stroke: #ffffff; stroke-width: 0.75"/>
     <use xlink:href="#mf0107666ea" x="538.945201" y="231.316451" style="fill: #007bff; stroke: #ffffff; stroke-width: 0.75"/>
     <use xlink:href="#mf0107666ea" x="544.069168" y="234.306724" style="fill: #007bff; stroke: #ffffff; stroke-width: 0.75"/>
     <use xlink:href="#mf0107666ea" x="549.193135" y="229.091497" style="fill: #007bff; stroke: #ffffff; stroke-width: 0.75"/>
     <use xlink:href="#mf0107666ea" x="554.317102" y="233.77635" style="fill: #007bff; stroke: #ffffff; stroke-width: 0.75"/>
     <use xlink:href="#mf0107666ea" x="559.441069" y="227.190968" style="fill: #007bff; stroke: #ffffff; stroke-width: 0.75"/>
     <use xlink:href="#mf0107666ea" x="564.565036" y="232.873789" style="fill: #007bff; stroke: #ffffff; stroke-width: 0.75"/>
     <use xlink:href="#mf0107666ea" x="569.689003" y="234.489994" style="fill: #007bff; stroke: #ffffff; stroke-width: 0.75"/>
     <use xlink:href="#mf0107666ea" x="574.81297" y="206.980156" style="fill: #007bff; stroke: #ffffff; stroke-width: 0.75"/>
     <use xlink:href="#mf0107666ea" x="579.936937" y="232.526286" style="fill: #007bff; stroke: #ffffff; stroke-width: 0.75"/>
     <use xlink:href="#mf0107666ea" x="585.060904" y="236.009869" style="fill: #007bff; stroke: #ffffff; stroke-width: 0.75"/>
     <use xlink:href="#mf0107666ea" x="590.184871" y="231.161377" style="fill: #007bff; stroke: #ffffff; stroke-width: 0.75"/>
     <use xlink:href="#mf0107666ea" x="595.308838" y="234.572619" style="fill: #007bff; stroke: #ffffff; stroke-width: 0.75"/>
     <use xlink:href="#mf0107666ea" x="600.432805" y="232.527434" style="fill: #007bff; stroke: #ffffff; stroke-width: 0.75"/>
     <use xlink:href="#mf0107666ea" x="605.556772" y="229.931483" style="fill: #007bff; stroke: #ffffff; stroke-width: 0.75"/>
     <use xlink:href="#mf0107666ea" x="610.680739" y="227.84434" style="fill: #007bff; stroke: #ffffff; stroke-width: 0.75"/>
    </g>
   </g>
   <g id="line2d_37"/>
   <g id="line2d_38"/>
   <g id="patch_3">
    <path d="M 78.044375 356.78175 
L 78.044375 24.14175 
" style="fill: none; stroke: #000000; stroke-width: 0.8; stroke-linejoin: miter; stroke-linecap: square"/>
   </g>
   <g id="patch_4">
    <path d="M 636.044375 356.78175 
L 636.044375 24.14175 
" style="fill: none; stroke: #000000; stroke-width: 0.8; stroke-linejoin: miter; stroke-linecap: square"/>
   </g>
   <g id="patch_5">
    <path d="M 78.044375 356.78175 
L 636.044375 356.78175 
" style="fill: none; stroke: #000000; stroke-width: 0.8; stroke-linejoin: miter; stroke-linecap: square"/>
   </g>
   <g id="patch_6">
    <path d="M 78.044375 24.14175 
L 636.044375 24.14175 
" style="fill: none; stroke: #000000; stroke-width: 0.8; stroke-linejoin: miter; stroke-linecap: square"/>
   </g>
   <g id="text_20">
    <!-- Gesture Learning Curve  -->
    <g transform="translate(269.3045 18.14175) scale(0.144 -0.144)">
     <defs>
      <path id="DejaVuSans-47" d="M 3809 666 
L 3809 1919 
L 2778 1919 
L 2778 2438 
L 4434 2438 
L 4434 434 
Q 4069 175 3628 42 
Q 3188 -91 2688 -91 
Q 1594 -91 976 548 
Q 359 1188 359 2328 
Q 359 3472 976 4111 
Q 1594 4750 2688 4750 
Q 3144 4750 3555 4637 
Q 3966 4525 4313 4306 
L 4313 3634 
Q 3963 3931 3569 4081 
Q 3175 4231 2741 4231 
Q 1884 4231 1454 3753 
Q 1025 3275 1025 2328 
Q 1025 1384 1454 906 
Q 1884 428 2741 428 
Q 3075 428 3337 486 
Q 3600 544 3809 666 
z
" transform="scale(0.015625)"/>
      <path id="DejaVuSans-74" d="M 1172 4494 
L 1172 3500 
L 2356 3500 
L 2356 3053 
L 1172 3053 
L 1172 1153 
Q 1172 725 1289 603 
Q 1406 481 1766 481 
L 2356 481 
L 2356 0 
L 1766 0 
Q 1100 0 847 248 
Q 594 497 594 1153 
L 594 3053 
L 172 3053 
L 172 3500 
L 594 3500 
L 594 4494 
L 1172 4494 
z
" transform="scale(0.015625)"/>
      <path id="DejaVuSans-75" d="M 544 1381 
L 544 3500 
L 1119 3500 
L 1119 1403 
Q 1119 906 1312 657 
Q 1506 409 1894 409 
Q 2359 409 2629 706 
Q 2900 1003 2900 1516 
L 2900 3500 
L 3475 3500 
L 3475 0 
L 2900 0 
L 2900 538 
Q 2691 219 2414 64 
Q 2138 -91 1772 -91 
Q 1169 -91 856 284 
Q 544 659 544 1381 
z
M 1991 3584 
L 1991 3584 
z
" transform="scale(0.015625)"/>
      <path id="DejaVuSans-4c" d="M 628 4666 
L 1259 4666 
L 1259 531 
L 3531 531 
L 3531 0 
L 628 0 
L 628 4666 
z
" transform="scale(0.015625)"/>
      <path id="DejaVuSans-6e" d="M 3513 2113 
L 3513 0 
L 2938 0 
L 2938 2094 
Q 2938 2591 2744 2837 
Q 2550 3084 2163 3084 
Q 1697 3084 1428 2787 
Q 1159 2491 1159 1978 
L 1159 0 
L 581 0 
L 581 3500 
L 1159 3500 
L 1159 2956 
Q 1366 3272 1645 3428 
Q 1925 3584 2291 3584 
Q 2894 3584 3203 3211 
Q 3513 2838 3513 2113 
z
" transform="scale(0.015625)"/>
      <path id="DejaVuSans-67" d="M 2906 1791 
Q 2906 2416 2648 2759 
Q 2391 3103 1925 3103 
Q 1463 3103 1205 2759 
Q 947 2416 947 1791 
Q 947 1169 1205 825 
Q 1463 481 1925 481 
Q 2391 481 2648 825 
Q 2906 1169 2906 1791 
z
M 3481 434 
Q 3481 -459 3084 -895 
Q 2688 -1331 1869 -1331 
Q 1566 -1331 1297 -1286 
Q 1028 -1241 775 -1147 
L 775 -588 
Q 1028 -725 1275 -790 
Q 1522 -856 1778 -856 
Q 2344 -856 2625 -561 
Q 2906 -266 2906 331 
L 2906 616 
Q 2728 306 2450 153 
Q 2172 0 1784 0 
Q 1141 0 747 490 
Q 353 981 353 1791 
Q 353 2603 747 3093 
Q 1141 3584 1784 3584 
Q 2172 3584 2450 3431 
Q 2728 3278 2906 2969 
L 2906 3500 
L 3481 3500 
L 3481 434 
z
" transform="scale(0.015625)"/>
      <path id="DejaVuSans-43" d="M 4122 4306 
L 4122 3641 
Q 3803 3938 3442 4084 
Q 3081 4231 2675 4231 
Q 1875 4231 1450 3742 
Q 1025 3253 1025 2328 
Q 1025 1406 1450 917 
Q 1875 428 2675 428 
Q 3081 428 3442 575 
Q 3803 722 4122 1019 
L 4122 359 
Q 3791 134 3420 21 
Q 3050 -91 2638 -91 
Q 1578 -91 968 557 
Q 359 1206 359 2328 
Q 359 3453 968 4101 
Q 1578 4750 2638 4750 
Q 3056 4750 3426 4639 
Q 3797 4528 4122 4306 
z
" transform="scale(0.015625)"/>
      <path id="DejaVuSans-76" d="M 191 3500 
L 800 3500 
L 1894 563 
L 2988 3500 
L 3597 3500 
L 2284 0 
L 1503 0 
L 191 3500 
z
" transform="scale(0.015625)"/>
     </defs>
     <use xlink:href="#DejaVuSans-47"/>
     <use xlink:href="#DejaVuSans-65" transform="translate(77.490234 0)"/>
     <use xlink:href="#DejaVuSans-73" transform="translate(139.013672 0)"/>
     <use xlink:href="#DejaVuSans-74" transform="translate(191.113281 0)"/>
     <use xlink:href="#DejaVuSans-75" transform="translate(230.322266 0)"/>
     <use xlink:href="#DejaVuSans-72" transform="translate(293.701172 0)"/>
     <use xlink:href="#DejaVuSans-65" transform="translate(332.564453 0)"/>
     <use xlink:href="#DejaVuSans-20" transform="translate(394.087891 0)"/>
     <use xlink:href="#DejaVuSans-4c" transform="translate(425.875 0)"/>
     <use xlink:href="#DejaVuSans-65" transform="translate(479.837891 0)"/>
     <use xlink:href="#DejaVuSans-61" transform="translate(541.361328 0)"/>
     <use xlink:href="#DejaVuSans-72" transform="translate(602.640625 0)"/>
     <use xlink:href="#DejaVuSans-6e" transform="translate(642.003906 0)"/>
     <use xlink:href="#DejaVuSans-69" transform="translate(705.382812 0)"/>
     <use xlink:href="#DejaVuSans-6e" transform="translate(733.166016 0)"/>
     <use xlink:href="#DejaVuSans-67" transform="translate(796.544922 0)"/>
     <use xlink:href="#DejaVuSans-20" transform="translate(860.021484 0)"/>
     <use xlink:href="#DejaVuSans-43" transform="translate(891.808594 0)"/>
     <use xlink:href="#DejaVuSans-75" transform="translate(961.632812 0)"/>
     <use xlink:href="#DejaVuSans-72" transform="translate(1025.011719 0)"/>
     <use xlink:href="#DejaVuSans-76" transform="translate(1066.125 0)"/>
     <use xlink:href="#DejaVuSans-65" transform="translate(1125.304688 0)"/>
     <use xlink:href="#DejaVuSans-20" transform="translate(1186.828125 0)"/>
    </g>
   </g>
   <g id="legend_1">
    <g id="patch_7">
     <path d="M 530.223125 86.583 
L 627.644375 86.583 
Q 630.044375 86.583 630.044375 84.183 
L 630.044375 32.54175 
Q 630.044375 30.14175 627.644375 30.14175 
L 530.223125 30.14175 
Q 527.823125 30.14175 527.823125 32.54175 
L 527.823125 84.183 
Q 527.823125 86.583 530.223125 86.583 
z
" style="fill: #ffffff; opacity: 0.8; stroke: #cccccc; stroke-linejoin: miter"/>
    </g>
    <g id="text_21">
     <!-- Condition -->
     <g transform="translate(550.301562 44.059875) scale(0.12 -0.12)">
      <defs>
       <path id="DejaVuSans-6f" d="M 1959 3097 
Q 1497 3097 1228 2736 
Q 959 2375 959 1747 
Q 959 1119 1226 758 
Q 1494 397 1959 397 
Q 2419 397 2687 759 
Q 2956 1122 2956 1747 
Q 2956 2369 2687 2733 
Q 2419 3097 1959 3097 
z
M 1959 3584 
Q 2709 3584 3137 3096 
Q 3566 2609 3566 1747 
Q 3566 888 3137 398 
Q 2709 -91 1959 -91 
Q 1206 -91 779 398 
Q 353 888 353 1747 
Q 353 2609 779 3096 
Q 1206 3584 1959 3584 
z
" transform="scale(0.015625)"/>
       <path id="DejaVuSans-64" d="M 2906 2969 
L 2906 4863 
L 3481 4863 
L 3481 0 
L 2906 0 
L 2906 525 
Q 2725 213 2448 61 
Q 2172 -91 1784 -91 
Q 1150 -91 751 415 
Q 353 922 353 1747 
Q 353 2572 751 3078 
Q 1150 3584 1784 3584 
Q 2172 3584 2448 3432 
Q 2725 3281 2906 2969 
z
M 947 1747 
Q 947 1113 1208 752 
Q 1469 391 1925 391 
Q 2381 391 2643 752 
Q 2906 1113 2906 1747 
Q 2906 2381 2643 2742 
Q 2381 3103 1925 3103 
Q 1469 3103 1208 2742 
Q 947 2381 947 1747 
z
" transform="scale(0.015625)"/>
      </defs>
      <use xlink:href="#DejaVuSans-43"/>
      <use xlink:href="#DejaVuSans-6f" transform="translate(69.824219 0)"/>
      <use xlink:href="#DejaVuSans-6e" transform="translate(131.005859 0)"/>
      <use xlink:href="#DejaVuSans-64" transform="translate(194.384766 0)"/>
      <use xlink:href="#DejaVuSans-69" transform="translate(257.861328 0)"/>
      <use xlink:href="#DejaVuSans-74" transform="translate(285.644531 0)"/>
      <use xlink:href="#DejaVuSans-69" transform="translate(324.853516 0)"/>
      <use xlink:href="#DejaVuSans-6f" transform="translate(352.636719 0)"/>
      <use xlink:href="#DejaVuSans-6e" transform="translate(413.818359 0)"/>
     </g>
    </g>
    <g id="line2d_39">
     <path d="M 532.623125 57.473625 
L 544.623125 57.473625 
L 556.623125 57.473625 
" style="fill: none; stroke: #35dc67; stroke-width: 1.5; stroke-linecap: square"/>
     <g>
      <use xlink:href="#m2447694305" x="544.623125" y="57.473625" style="fill: #35dc67; stroke: #ffffff; stroke-width: 0.75"/>
     </g>
    </g>
    <g id="text_22">
     <!-- Proposed -->
     <g transform="translate(566.223125 61.673625) scale(0.12 -0.12)">
      <defs>
       <path id="DejaVuSans-50" d="M 1259 4147 
L 1259 2394 
L 2053 2394 
Q 2494 2394 2734 2622 
Q 2975 2850 2975 3272 
Q 2975 3691 2734 3919 
Q 2494 4147 2053 4147 
L 1259 4147 
z
M 628 4666 
L 2053 4666 
Q 2838 4666 3239 4311 
Q 3641 3956 3641 3272 
Q 3641 2581 3239 2228 
Q 2838 1875 2053 1875 
L 1259 1875 
L 1259 0 
L 628 0 
L 628 4666 
z
" transform="scale(0.015625)"/>
       <path id="DejaVuSans-70" d="M 1159 525 
L 1159 -1331 
L 581 -1331 
L 581 3500 
L 1159 3500 
L 1159 2969 
Q 1341 3281 1617 3432 
Q 1894 3584 2278 3584 
Q 2916 3584 3314 3078 
Q 3713 2572 3713 1747 
Q 3713 922 3314 415 
Q 2916 -91 2278 -91 
Q 1894 -91 1617 61 
Q 1341 213 1159 525 
z
M 3116 1747 
Q 3116 2381 2855 2742 
Q 2594 3103 2138 3103 
Q 1681 3103 1420 2742 
Q 1159 2381 1159 1747 
Q 1159 1113 1420 752 
Q 1681 391 2138 391 
Q 2594 391 2855 752 
Q 3116 1113 3116 1747 
z
" transform="scale(0.015625)"/>
      </defs>
      <use xlink:href="#DejaVuSans-50"/>
      <use xlink:href="#DejaVuSans-72" transform="translate(58.552734 0)"/>
      <use xlink:href="#DejaVuSans-6f" transform="translate(97.416016 0)"/>
      <use xlink:href="#DejaVuSans-70" transform="translate(158.597656 0)"/>
      <use xlink:href="#DejaVuSans-6f" transform="translate(222.074219 0)"/>
      <use xlink:href="#DejaVuSans-73" transform="translate(283.255859 0)"/>
      <use xlink:href="#DejaVuSans-65" transform="translate(335.355469 0)"/>
      <use xlink:href="#DejaVuSans-64" transform="translate(396.878906 0)"/>
     </g>
    </g>
    <g id="line2d_40">
     <path d="M 532.623125 75.087375 
L 544.623125 75.087375 
L 556.623125 75.087375 
" style="fill: none; stroke: #007bff; stroke-width: 1.5; stroke-linecap: square"/>
     <g>
      <use xlink:href="#mf0107666ea" x="544.623125" y="75.087375" style="fill: #007bff; stroke: #ffffff; stroke-width: 0.75"/>
     </g>
    </g>
    <g id="text_23">
     <!-- Controller -->
     <g transform="translate(566.223125 79.287375) scale(0.12 -0.12)">
      <use xlink:href="#DejaVuSans-43"/>
      <use xlink:href="#DejaVuSans-6f" transform="translate(69.824219 0)"/>
      <use xlink:href="#DejaVuSans-6e" transform="translate(131.005859 0)"/>
      <use xlink:href="#DejaVuSans-74" transform="translate(194.384766 0)"/>
      <use xlink:href="#DejaVuSans-72" transform="translate(233.59375 0)"/>
      <use xlink:href="#DejaVuSans-6f" transform="translate(272.457031 0)"/>
      <use xlink:href="#DejaVuSans-6c" transform="translate(333.638672 0)"/>
      <use xlink:href="#DejaVuSans-6c" transform="translate(361.421875 0)"/>
      <use xlink:href="#DejaVuSans-65" transform="translate(389.205078 0)"/>
      <use xlink:href="#DejaVuSans-72" transform="translate(450.728516 0)"/>
     </g>
    </g>
   </g>
  </g>
 </g>
 <defs>
  <clipPath id="pe0dcc5c8bc">
   <rect x="78.044375" y="24.14175" width="558" height="332.64"/>
  </clipPath>
 </defs>
</svg>
