<?xml version="1.0" encoding="utf-8" standalone="no"?>
<!DOCTYPE svg PUBLIC "-//W3C//DTD SVG 1.1//EN"
  "http://www.w3.org/Graphics/SVG/1.1/DTD/svg11.dtd">
<svg xmlns:xlink="http://www.w3.org/1999/xlink" width="635.609375pt" height="398.20925pt" viewBox="0 0 635.609375 398.20925" xmlns="http://www.w3.org/2000/svg" version="1.1">
 <metadata>
  <rdf:RDF xmlns:dc="http://purl.org/dc/elements/1.1/" xmlns:cc="http://creativecommons.org/ns#" xmlns:rdf="http://www.w3.org/1999/02/22-rdf-syntax-ns#">
   <cc:Work>
    <dc:type rdf:resource="http://purl.org/dc/dcmitype/StillImage"/>
    <dc:date>2026-01-18T13:05:17.093699</dc:date>
    <dc:format>image/svg+xml</dc:format>
    <dc:creator>
     <cc:Agent>
      <dc:title>Matplotlib v3.10.8, https://matplotlib.org/</dc:title>
     </cc:Agent>
    </dc:creator>
   </cc:Work>
  </rdf:RDF>
 </metadata>
 <defs>
  <style type="text/css">*{stroke-linejoin: round; stroke-linecap: butt}</style>
 </defs>
 <g id="figure_1">
  <g id="patch_1">
   <path d="M 0 398.20925 
L 635.609375 398.20925 
L 635.609375 0 
L 0 0 
z
" style="fill: #ffffff"/>
  </g>
  <g id="axes_1">
   <g id="patch_2">
    <path d="M 70.409375 356.78175 
L 628.409375 356.78175 
L 628.409375 24.14175 
L 70.409375 24.14175 
z
" style="fill: #ffffff"/>
   </g>
   <g id="FillBetweenPolyCollection_1">
    <path d="M 95.773011 199.064153 
L 95.773011 324.544201 
L 100.896978 300.396622 
L 106.020945 314.738105 
L 106.020945 256.111591 
L 106.020945 256.111591 
L 100.896978 294.437195 
L 95.773011 199.064153 
z
" clip-path="url(#pfaaf8cdc46)" style="fill: #35dc67; fill-opacity: 0.2; stroke: #35dc67; stroke-opacity: 0.2"/>
    <path d="M 116.268879 286.523452 
L 116.268879 301.52418 
L 121.392846 300.785001 
L 126.516813 293.890262 
L 131.64078 298.196281 
L 136.764747 304.78205 
L 141.888714 299.986715 
L 147.012681 302.893255 
L 152.136648 291.72409 
L 157.260615 300.89112 
L 162.384582 304.024935 
L 167.508549 303.511989 
L 172.632515 310.073634 
L 177.756482 304.951821 
L 182.880449 301.868453 
L 188.004416 305.100335 
L 193.128383 304.028493 
L 198.25235 301.050197 
L 203.376317 293.870046 
L 208.500284 317.613491 
L 218.748218 300.244271 
L 223.872185 300.418702 
L 228.996152 303.21618 
L 234.120119 306.801507 
L 239.244086 307.405612 
L 244.368053 298.680169 
L 249.49202 305.833209 
L 254.615987 298.183946 
L 259.739954 296.929911 
L 264.86392 307.3744 
L 269.987887 295.684822 
L 275.111854 301.257365 
L 280.235821 315.374561 
L 285.359788 316.587062 
L 290.483755 296.474596 
L 295.607722 317.588561 
L 300.731689 300.587389 
L 305.855656 301.367816 
L 310.979623 291.239384 
L 316.10359 297.512735 
L 321.227557 304.834973 
L 326.351524 306.122018 
L 331.475491 341.66175 
L 336.599458 299.077133 
L 341.723425 315.068694 
L 346.847392 305.640509 
L 351.971358 302.214139 
L 357.095325 296.609878 
L 362.219292 300.949867 
L 367.343259 302.224339 
L 372.467226 306.278699 
L 377.591193 296.809581 
L 377.591193 291.181027 
L 377.591193 291.181027 
L 372.467226 282.704533 
L 367.343259 271.743099 
L 362.219292 300.659039 
L 357.095325 292.213174 
L 351.971358 297.566938 
L 346.847392 297.083196 
L 341.723425 245.579021 
L 336.599458 276.434274 
L 331.475491 39.26175 
L 326.351524 280.433254 
L 321.227557 282.858468 
L 316.10359 278.220137 
L 310.979623 242.6882 
L 305.855656 292.296799 
L 300.731689 294.164133 
L 295.607722 276.366237 
L 290.483755 284.042461 
L 285.359788 270.506438 
L 280.235821 202.292622 
L 275.111854 295.815369 
L 269.987887 260.92843 
L 264.86392 261.564635 
L 259.739954 290.69312 
L 254.615987 292.440655 
L 249.49202 299.250388 
L 244.368053 276.365679 
L 239.244086 286.914378 
L 234.120119 275.493618 
L 228.996152 297.197114 
L 223.872185 296.532807 
L 218.748218 270.941516 
L 208.500284 222.854096 
L 203.376317 169.671747 
L 198.25235 290.604638 
L 193.128383 286.404445 
L 188.004416 284.455982 
L 182.880449 290.828183 
L 177.756482 281.752635 
L 172.632515 271.288285 
L 167.508549 289.830643 
L 162.384582 291.944427 
L 157.260615 295.981482 
L 152.136648 276.945354 
L 147.012681 284.247099 
L 141.888714 281.442354 
L 136.764747 267.518254 
L 131.64078 284.401887 
L 126.516813 274.740271 
L 121.392846 274.052492 
L 116.268879 286.523452 
z
" clip-path="url(#pfaaf8cdc46)" style="fill: #35dc67; fill-opacity: 0.2; stroke: #35dc67; stroke-opacity: 0.2"/>
    <path d="M 387.839127 290.193195 
L 387.839127 303.196353 
L 392.963094 300.237886 
L 398.087061 301.076767 
L 403.211028 303.980892 
L 408.334995 296.467348 
L 413.458962 306.362179 
L 418.582929 293.659787 
L 423.706896 299.176425 
L 428.830863 300.59316 
L 433.95483 308.145788 
L 439.078796 293.802505 
L 439.078796 292.458859 
L 439.078796 292.458859 
L 433.95483 289.065513 
L 428.830863 300.59316 
L 423.706896 299.176425 
L 418.582929 289.133909 
L 413.458962 267.120444 
L 408.334995 273.783796 
L 403.211028 288.046041 
L 398.087061 263.397568 
L 392.963094 300.184701 
L 387.839127 290.193195 
z
" clip-path="url(#pfaaf8cdc46)" style="fill: #35dc67; fill-opacity: 0.2; stroke: #35dc67; stroke-opacity: 0.2"/>
    <path d="M 449.32673 271.214719 
L 449.32673 296.793967 
L 454.450697 300.30529 
L 459.574664 298.614909 
L 464.698631 305.435439 
L 469.822598 301.750517 
L 474.946565 305.669168 
L 480.070532 323.671943 
L 485.194499 303.244388 
L 485.194499 277.665535 
L 485.194499 277.665535 
L 480.070532 240.458296 
L 474.946565 297.673083 
L 469.822598 298.06761 
L 464.698631 270.423384 
L 459.574664 279.170756 
L 454.450697 298.764312 
L 449.32673 271.214719 
z
" clip-path="url(#pfaaf8cdc46)" style="fill: #35dc67; fill-opacity: 0.2; stroke: #35dc67; stroke-opacity: 0.2"/>
    <path d="M 495.442433 291.942877 
L 495.442433 295.633751 
L 500.5664 300.64207 
L 505.690367 315.548602 
L 510.814334 301.727461 
L 515.938301 297.306916 
L 521.062268 301.211642 
L 526.186235 299.648796 
L 531.310201 294.465197 
L 536.434168 314.83004 
L 541.558135 297.679624 
L 546.682102 300.921462 
L 551.806069 300.402398 
L 556.930036 299.741244 
L 562.054003 305.224478 
L 567.17797 307.852167 
L 572.301937 308.767397 
L 577.425904 300.021322 
L 582.549871 301.792202 
L 587.673838 300.09098 
L 592.797805 295.911942 
L 597.921772 300.281952 
L 597.921772 287.149494 
L 597.921772 287.149494 
L 592.797805 286.162867 
L 587.673838 295.54814 
L 582.549871 298.94606 
L 577.425904 291.045259 
L 572.301937 97.166169 
L 567.17797 276.367838 
L 562.054003 292.469417 
L 556.930036 294.723419 
L 551.806069 289.227879 
L 546.682102 268.937346 
L 541.558135 294.977385 
L 536.434168 239.513223 
L 531.310201 291.442916 
L 526.186235 283.956629 
L 521.062268 288.477087 
L 515.938301 266.475876 
L 510.814334 297.275444 
L 505.690367 269.578746 
L 500.5664 296.998942 
L 495.442433 291.942877 
z
" clip-path="url(#pfaaf8cdc46)" style="fill: #35dc67; fill-opacity: 0.2; stroke: #35dc67; stroke-opacity: 0.2"/>
   </g>
   <g id="FillBetweenPolyCollection_2">
    <path d="M 95.773011 281.692505 
L 95.773011 299.724199 
L 100.896978 307.30918 
L 106.020945 296.294344 
L 111.144912 314.921951 
L 116.268879 298.223414 
L 121.392846 302.261868 
L 126.516813 307.62425 
L 131.64078 305.292494 
L 136.764747 295.989895 
L 141.888714 302.482591 
L 147.012681 302.980938 
L 152.136648 308.233567 
L 157.260615 305.19368 
L 162.384582 300.63273 
L 167.508549 314.579496 
L 172.632515 279.894778 
L 177.756482 311.017154 
L 182.880449 316.060373 
L 188.004416 301.579172 
L 193.128383 312.489599 
L 198.25235 300.913295 
L 203.376317 328.695709 
L 208.500284 312.489912 
L 213.624251 298.816534 
L 218.748218 300.644468 
L 223.872185 302.580454 
L 228.996152 308.085688 
L 234.120119 301.824494 
L 239.244086 303.976065 
L 244.368053 272.933936 
L 249.49202 303.629178 
L 254.615987 298.432019 
L 259.739954 309.571732 
L 264.86392 300.358769 
L 269.987887 300.295045 
L 275.111854 300.068391 
L 280.235821 293.537627 
L 285.359788 298.318611 
L 290.483755 299.666545 
L 295.607722 304.099868 
L 300.731689 299.335353 
L 305.855656 307.131601 
L 310.979623 300.287238 
L 316.10359 303.212701 
L 321.227557 300.360391 
L 326.351524 302.779068 
L 331.475491 313.623033 
L 336.599458 311.917609 
L 341.723425 301.094202 
L 346.847392 301.49778 
L 351.971358 304.253605 
L 357.095325 299.279956 
L 362.219292 309.387908 
L 367.343259 301.088417 
L 372.467226 297.404253 
L 377.591193 300.700949 
L 382.71516 303.64633 
L 387.839127 301.995576 
L 392.963094 301.282534 
L 398.087061 301.824895 
L 403.211028 297.972829 
L 408.334995 303.99729 
L 413.458962 297.325287 
L 418.582929 299.58732 
L 423.706896 302.77301 
L 428.830863 303.119214 
L 433.95483 297.477774 
L 439.078796 309.470192 
L 444.202763 315.079285 
L 449.32673 301.210807 
L 454.450697 300.660625 
L 459.574664 301.760084 
L 464.698631 298.718619 
L 469.822598 314.368836 
L 474.946565 303.217451 
L 480.070532 302.379958 
L 485.194499 303.1204 
L 490.318466 298.209008 
L 495.442433 314.994658 
L 495.442433 203.586894 
L 495.442433 203.586894 
L 490.318466 291.035291 
L 485.194499 294.703815 
L 480.070532 289.719965 
L 474.946565 286.412966 
L 469.822598 252.425244 
L 464.698631 296.175914 
L 459.574664 286.103563 
L 454.450697 290.72496 
L 449.32673 294.56293 
L 444.202763 292.016022 
L 439.078796 266.349929 
L 433.95483 279.048052 
L 428.830863 265.491579 
L 423.706896 281.3621 
L 418.582929 285.892479 
L 413.458962 270.276151 
L 408.334995 280.559773 
L 403.211028 291.461658 
L 398.087061 290.763232 
L 392.963094 275.781977 
L 387.839127 297.641966 
L 382.71516 279.12428 
L 377.591193 297.130066 
L 372.467226 283.670457 
L 367.343259 298.209772 
L 362.219292 294.996553 
L 357.095325 251.553934 
L 351.971358 286.738349 
L 346.847392 293.076705 
L 341.723425 296.758013 
L 336.599458 265.852466 
L 331.475491 236.589764 
L 326.351524 284.140665 
L 321.227557 297.166397 
L 316.10359 293.259994 
L 310.979623 289.182468 
L 305.855656 269.565746 
L 300.731689 289.660042 
L 295.607722 278.921427 
L 290.483755 294.368234 
L 285.359788 291.392107 
L 280.235821 257.470245 
L 275.111854 281.712616 
L 269.987887 253.941538 
L 264.86392 276.801254 
L 259.739954 263.914122 
L 254.615987 287.339898 
L 249.49202 283.893469 
L 244.368053 271.198231 
L 239.244086 271.981924 
L 234.120119 205.377176 
L 228.996152 264.607924 
L 223.872185 289.925322 
L 218.748218 286.295738 
L 213.624251 293.517792 
L 208.500284 254.388833 
L 203.376317 101.838651 
L 198.25235 294.323747 
L 193.128383 246.383347 
L 188.004416 291.051367 
L 182.880449 226.577098 
L 177.756482 259.769182 
L 172.632515 264.310756 
L 167.508549 222.261709 
L 162.384582 290.070037 
L 157.260615 256.782063 
L 152.136648 272.549447 
L 147.012681 277.672281 
L 141.888714 278.549351 
L 136.764747 278.238708 
L 131.64078 284.563172 
L 126.516813 281.908522 
L 121.392846 282.047423 
L 116.268879 261.513269 
L 111.144912 247.509827 
L 106.020945 264.016481 
L 100.896978 279.179566 
L 95.773011 281.692505 
z
" clip-path="url(#pfaaf8cdc46)" style="fill: #007bff; fill-opacity: 0.2; stroke: #007bff; stroke-opacity: 0.2"/>
    <path d="M 505.690367 286.054591 
L 505.690367 299.866424 
L 510.814334 311.19574 
L 515.938301 296.474569 
L 521.062268 301.611727 
L 526.186235 301.610551 
L 531.310201 305.638642 
L 536.434168 301.682639 
L 541.558135 305.952899 
L 546.682102 301.343161 
L 551.806069 300.701559 
L 556.930036 302.945651 
L 562.054003 304.136525 
L 567.17797 306.732871 
L 572.301937 292.888235 
L 577.425904 304.072773 
L 582.549871 313.263785 
L 587.673838 299.989064 
L 592.797805 302.661174 
L 597.921772 300.267877 
L 603.045739 305.482787 
L 603.045739 281.643965 
L 603.045739 281.643965 
L 597.921772 279.198367 
L 592.797805 286.757144 
L 587.673838 292.374417 
L 582.549871 261.800425 
L 577.425904 295.623436 
L 572.301937 233.411417 
L 567.17797 276.504045 
L 562.054003 300.305482 
L 556.930036 297.706222 
L 551.806069 296.155961 
L 546.682102 292.492604 
L 541.558135 283.69039 
L 536.434168 299.148882 
L 531.310201 274.79819 
L 526.186235 298.029556 
L 521.062268 294.608857 
L 515.938301 265.689029 
L 510.814334 265.751578 
L 505.690367 286.054591 
z
" clip-path="url(#pfaaf8cdc46)" style="fill: #007bff; fill-opacity: 0.2; stroke: #007bff; stroke-opacity: 0.2"/>
   </g>
   <g id="matplotlib.axis_1">
    <g id="xtick_1">
     <g id="line2d_1">
      <path d="M 95.773011 356.78175 
L 95.773011 24.14175 
" clip-path="url(#pfaaf8cdc46)" style="fill: none; stroke-dasharray: 2.96,1.28; stroke-dashoffset: 0; stroke: #b0b0b0; stroke-opacity: 0.5; stroke-width: 0.8"/>
     </g>
     <g id="line2d_2">
      <defs>
       <path id="m8581dcbfa7" d="M 0 0 
L 0 3.5 
" style="stroke: #000000; stroke-width: 0.8"/>
      </defs>
      <g>
       <use xlink:href="#m8581dcbfa7" x="95.773011" y="356.78175" style="stroke: #000000; stroke-width: 0.8"/>
      </g>
     </g>
     <g id="text_1">
      <!-- 1 -->
      <g transform="translate(91.955511 372.899875) scale(0.12 -0.12)">
       <defs>
        <path id="DejaVuSans-31" d="M 794 531 
L 1825 531 
L 1825 4091 
L 703 3866 
L 703 4441 
L 1819 4666 
L 2450 4666 
L 2450 531 
L 3481 531 
L 3481 0 
L 794 0 
L 794 531 
z
" transform="scale(0.015625)"/>
       </defs>
       <use xlink:href="#DejaVuSans-31"/>
      </g>
     </g>
    </g>
    <g id="xtick_2">
     <g id="line2d_3">
      <path d="M 147.012681 356.78175 
L 147.012681 24.14175 
" clip-path="url(#pfaaf8cdc46)" style="fill: none; stroke-dasharray: 2.96,1.28; stroke-dashoffset: 0; stroke: #b0b0b0; stroke-opacity: 0.5; stroke-width: 0.8"/>
     </g>
     <g id="line2d_4">
      <g>
       <use xlink:href="#m8581dcbfa7" x="147.012681" y="356.78175" style="stroke: #000000; stroke-width: 0.8"/>
      </g>
     </g>
     <g id="text_2">
      <!-- 11 -->
      <g transform="translate(139.377681 372.899875) scale(0.12 -0.12)">
       <use xlink:href="#DejaVuSans-31"/>
       <use xlink:href="#DejaVuSans-31" transform="translate(63.623047 0)"/>
      </g>
     </g>
    </g>
    <g id="xtick_3">
     <g id="line2d_5">
      <path d="M 198.25235 356.78175 
L 198.25235 24.14175 
" clip-path="url(#pfaaf8cdc46)" style="fill: none; stroke-dasharray: 2.96,1.28; stroke-dashoffset: 0; stroke: #b0b0b0; stroke-opacity: 0.5; stroke-width: 0.8"/>
     </g>
     <g id="line2d_6">
      <g>
       <use xlink:href="#m8581dcbfa7" x="198.25235" y="356.78175" style="stroke: #000000; stroke-width: 0.8"/>
      </g>
     </g>
     <g id="text_3">
      <!-- 21 -->
      <g transform="translate(190.61735 372.899875) scale(0.12 -0.12)">
       <defs>
        <path id="DejaVuSans-32" d="M 1228 531 
L 3431 531 
L 3431 0 
L 469 0 
L 469 531 
Q 828 903 1448 1529 
Q 2069 2156 2228 2338 
Q 2531 2678 2651 2914 
Q 2772 3150 2772 3378 
Q 2772 3750 2511 3984 
Q 2250 4219 1831 4219 
Q 1534 4219 1204 4116 
Q 875 4013 500 3803 
L 500 4441 
Q 881 4594 1212 4672 
Q 1544 4750 1819 4750 
Q 2544 4750 2975 4387 
Q 3406 4025 3406 3419 
Q 3406 3131 3298 2873 
Q 3191 2616 2906 2266 
Q 2828 2175 2409 1742 
Q 1991 1309 1228 531 
z
" transform="scale(0.015625)"/>
       </defs>
       <use xlink:href="#DejaVuSans-32"/>
       <use xlink:href="#DejaVuSans-31" transform="translate(63.623047 0)"/>
      </g>
     </g>
    </g>
    <g id="xtick_4">
     <g id="line2d_7">
      <path d="M 249.49202 356.78175 
L 249.49202 24.14175 
" clip-path="url(#pfaaf8cdc46)" style="fill: none; stroke-dasharray: 2.96,1.28; stroke-dashoffset: 0; stroke: #b0b0b0; stroke-opacity: 0.5; stroke-width: 0.8"/>
     </g>
     <g id="line2d_8">
      <g>
       <use xlink:href="#m8581dcbfa7" x="249.49202" y="356.78175" style="stroke: #000000; stroke-width: 0.8"/>
      </g>
     </g>
     <g id="text_4">
      <!-- 31 -->
      <g transform="translate(241.85702 372.899875) scale(0.12 -0.12)">
       <defs>
        <path id="DejaVuSans-33" d="M 2597 2516 
Q 3050 2419 3304 2112 
Q 3559 1806 3559 1356 
Q 3559 666 3084 287 
Q 2609 -91 1734 -91 
Q 1441 -91 1130 -33 
Q 819 25 488 141 
L 488 750 
Q 750 597 1062 519 
Q 1375 441 1716 441 
Q 2309 441 2620 675 
Q 2931 909 2931 1356 
Q 2931 1769 2642 2001 
Q 2353 2234 1838 2234 
L 1294 2234 
L 1294 2753 
L 1863 2753 
Q 2328 2753 2575 2939 
Q 2822 3125 2822 3475 
Q 2822 3834 2567 4026 
Q 2313 4219 1838 4219 
Q 1578 4219 1281 4162 
Q 984 4106 628 3988 
L 628 4550 
Q 988 4650 1302 4700 
Q 1616 4750 1894 4750 
Q 2613 4750 3031 4423 
Q 3450 4097 3450 3541 
Q 3450 3153 3228 2886 
Q 3006 2619 2597 2516 
z
" transform="scale(0.015625)"/>
       </defs>
       <use xlink:href="#DejaVuSans-33"/>
       <use xlink:href="#DejaVuSans-31" transform="translate(63.623047 0)"/>
      </g>
     </g>
    </g>
    <g id="xtick_5">
     <g id="line2d_9">
      <path d="M 300.731689 356.78175 
L 300.731689 24.14175 
" clip-path="url(#pfaaf8cdc46)" style="fill: none; stroke-dasharray: 2.96,1.28; stroke-dashoffset: 0; stroke: #b0b0b0; stroke-opacity: 0.5; stroke-width: 0.8"/>
     </g>
     <g id="line2d_10">
      <g>
       <use xlink:href="#m8581dcbfa7" x="300.731689" y="356.78175" style="stroke: #000000; stroke-width: 0.8"/>
      </g>
     </g>
     <g id="text_5">
      <!-- 41 -->
      <g transform="translate(293.096689 372.899875) scale(0.12 -0.12)">
       <defs>
        <path id="DejaVuSans-34" d="M 2419 4116 
L 825 1625 
L 2419 1625 
L 2419 4116 
z
M 2253 4666 
L 3047 4666 
L 3047 1625 
L 3713 1625 
L 3713 1100 
L 3047 1100 
L 3047 0 
L 2419 0 
L 2419 1100 
L 313 1100 
L 313 1709 
L 2253 4666 
z
" transform="scale(0.015625)"/>
       </defs>
       <use xlink:href="#DejaVuSans-34"/>
       <use xlink:href="#DejaVuSans-31" transform="translate(63.623047 0)"/>
      </g>
     </g>
    </g>
    <g id="xtick_6">
     <g id="line2d_11">
      <path d="M 351.971358 356.78175 
L 351.971358 24.14175 
" clip-path="url(#pfaaf8cdc46)" style="fill: none; stroke-dasharray: 2.96,1.28; stroke-dashoffset: 0; stroke: #b0b0b0; stroke-opacity: 0.5; stroke-width: 0.8"/>
     </g>
     <g id="line2d_12">
      <g>
       <use xlink:href="#m8581dcbfa7" x="351.971358" y="356.78175" style="stroke: #000000; stroke-width: 0.8"/>
      </g>
     </g>
     <g id="text_6">
      <!-- 51 -->
      <g transform="translate(344.336358 372.899875) scale(0.12 -0.12)">
       <defs>
        <path id="DejaVuSans-35" d="M 691 4666 
L 3169 4666 
L 3169 4134 
L 1269 4134 
L 1269 2991 
Q 1406 3038 1543 3061 
Q 1681 3084 1819 3084 
Q 2600 3084 3056 2656 
Q 3513 2228 3513 1497 
Q 3513 744 3044 326 
Q 2575 -91 1722 -91 
Q 1428 -91 1123 -41 
Q 819 9 494 109 
L 494 744 
Q 775 591 1075 516 
Q 1375 441 1709 441 
Q 2250 441 2565 725 
Q 2881 1009 2881 1497 
Q 2881 1984 2565 2268 
Q 2250 2553 1709 2553 
Q 1456 2553 1204 2497 
Q 953 2441 691 2322 
L 691 4666 
z
" transform="scale(0.015625)"/>
       </defs>
       <use xlink:href="#DejaVuSans-35"/>
       <use xlink:href="#DejaVuSans-31" transform="translate(63.623047 0)"/>
      </g>
     </g>
    </g>
    <g id="xtick_7">
     <g id="line2d_13">
      <path d="M 403.211028 356.78175 
L 403.211028 24.14175 
" clip-path="url(#pfaaf8cdc46)" style="fill: none; stroke-dasharray: 2.96,1.28; stroke-dashoffset: 0; stroke: #b0b0b0; stroke-opacity: 0.5; stroke-width: 0.8"/>
     </g>
     <g id="line2d_14">
      <g>
       <use xlink:href="#m8581dcbfa7" x="403.211028" y="356.78175" style="stroke: #000000; stroke-width: 0.8"/>
      </g>
     </g>
     <g id="text_7">
      <!-- 61 -->
      <g transform="translate(395.576028 372.899875) scale(0.12 -0.12)">
       <defs>
        <path id="DejaVuSans-36" d="M 2113 2584 
Q 1688 2584 1439 2293 
Q 1191 2003 1191 1497 
Q 1191 994 1439 701 
Q 1688 409 2113 409 
Q 2538 409 2786 701 
Q 3034 994 3034 1497 
Q 3034 2003 2786 2293 
Q 2538 2584 2113 2584 
z
M 3366 4563 
L 3366 3988 
Q 3128 4100 2886 4159 
Q 2644 4219 2406 4219 
Q 1781 4219 1451 3797 
Q 1122 3375 1075 2522 
Q 1259 2794 1537 2939 
Q 1816 3084 2150 3084 
Q 2853 3084 3261 2657 
Q 3669 2231 3669 1497 
Q 3669 778 3244 343 
Q 2819 -91 2113 -91 
Q 1303 -91 875 529 
Q 447 1150 447 2328 
Q 447 3434 972 4092 
Q 1497 4750 2381 4750 
Q 2619 4750 2861 4703 
Q 3103 4656 3366 4563 
z
" transform="scale(0.015625)"/>
       </defs>
       <use xlink:href="#DejaVuSans-36"/>
       <use xlink:href="#DejaVuSans-31" transform="translate(63.623047 0)"/>
      </g>
     </g>
    </g>
    <g id="xtick_8">
     <g id="line2d_15">
      <path d="M 454.450697 356.78175 
L 454.450697 24.14175 
" clip-path="url(#pfaaf8cdc46)" style="fill: none; stroke-dasharray: 2.96,1.28; stroke-dashoffset: 0; stroke: #b0b0b0; stroke-opacity: 0.5; stroke-width: 0.8"/>
     </g>
     <g id="line2d_16">
      <g>
       <use xlink:href="#m8581dcbfa7" x="454.450697" y="356.78175" style="stroke: #000000; stroke-width: 0.8"/>
      </g>
     </g>
     <g id="text_8">
      <!-- 71 -->
      <g transform="translate(446.815697 372.899875) scale(0.12 -0.12)">
       <defs>
        <path id="DejaVuSans-37" d="M 525 4666 
L 3525 4666 
L 3525 4397 
L 1831 0 
L 1172 0 
L 2766 4134 
L 525 4134 
L 525 4666 
z
" transform="scale(0.015625)"/>
       </defs>
       <use xlink:href="#DejaVuSans-37"/>
       <use xlink:href="#DejaVuSans-31" transform="translate(63.623047 0)"/>
      </g>
     </g>
    </g>
    <g id="xtick_9">
     <g id="line2d_17">
      <path d="M 505.690367 356.78175 
L 505.690367 24.14175 
" clip-path="url(#pfaaf8cdc46)" style="fill: none; stroke-dasharray: 2.96,1.28; stroke-dashoffset: 0; stroke: #b0b0b0; stroke-opacity: 0.5; stroke-width: 0.8"/>
     </g>
     <g id="line2d_18">
      <g>
       <use xlink:href="#m8581dcbfa7" x="505.690367" y="356.78175" style="stroke: #000000; stroke-width: 0.8"/>
      </g>
     </g>
     <g id="text_9">
      <!-- 81 -->
      <g transform="translate(498.055367 372.899875) scale(0.12 -0.12)">
       <defs>
        <path id="DejaVuSans-38" d="M 2034 2216 
Q 1584 2216 1326 1975 
Q 1069 1734 1069 1313 
Q 1069 891 1326 650 
Q 1584 409 2034 409 
Q 2484 409 2743 651 
Q 3003 894 3003 1313 
Q 3003 1734 2745 1975 
Q 2488 2216 2034 2216 
z
M 1403 2484 
Q 997 2584 770 2862 
Q 544 3141 544 3541 
Q 544 4100 942 4425 
Q 1341 4750 2034 4750 
Q 2731 4750 3128 4425 
Q 3525 4100 3525 3541 
Q 3525 3141 3298 2862 
Q 3072 2584 2669 2484 
Q 3125 2378 3379 2068 
Q 3634 1759 3634 1313 
Q 3634 634 3220 271 
Q 2806 -91 2034 -91 
Q 1263 -91 848 271 
Q 434 634 434 1313 
Q 434 1759 690 2068 
Q 947 2378 1403 2484 
z
M 1172 3481 
Q 1172 3119 1398 2916 
Q 1625 2713 2034 2713 
Q 2441 2713 2670 2916 
Q 2900 3119 2900 3481 
Q 2900 3844 2670 4047 
Q 2441 4250 2034 4250 
Q 1625 4250 1398 4047 
Q 1172 3844 1172 3481 
z
" transform="scale(0.015625)"/>
       </defs>
       <use xlink:href="#DejaVuSans-38"/>
       <use xlink:href="#DejaVuSans-31" transform="translate(63.623047 0)"/>
      </g>
     </g>
    </g>
    <g id="xtick_10">
     <g id="line2d_19">
      <path d="M 556.930036 356.78175 
L 556.930036 24.14175 
" clip-path="url(#pfaaf8cdc46)" style="fill: none; stroke-dasharray: 2.96,1.28; stroke-dashoffset: 0; stroke: #b0b0b0; stroke-opacity: 0.5; stroke-width: 0.8"/>
     </g>
     <g id="line2d_20">
      <g>
       <use xlink:href="#m8581dcbfa7" x="556.930036" y="356.78175" style="stroke: #000000; stroke-width: 0.8"/>
      </g>
     </g>
     <g id="text_10">
      <!-- 91 -->
      <g transform="translate(549.295036 372.899875) scale(0.12 -0.12)">
       <defs>
        <path id="DejaVuSans-39" d="M 703 97 
L 703 672 
Q 941 559 1184 500 
Q 1428 441 1663 441 
Q 2288 441 2617 861 
Q 2947 1281 2994 2138 
Q 2813 1869 2534 1725 
Q 2256 1581 1919 1581 
Q 1219 1581 811 2004 
Q 403 2428 403 3163 
Q 403 3881 828 4315 
Q 1253 4750 1959 4750 
Q 2769 4750 3195 4129 
Q 3622 3509 3622 2328 
Q 3622 1225 3098 567 
Q 2575 -91 1691 -91 
Q 1453 -91 1209 -44 
Q 966 3 703 97 
z
M 1959 2075 
Q 2384 2075 2632 2365 
Q 2881 2656 2881 3163 
Q 2881 3666 2632 3958 
Q 2384 4250 1959 4250 
Q 1534 4250 1286 3958 
Q 1038 3666 1038 3163 
Q 1038 2656 1286 2365 
Q 1534 2075 1959 2075 
z
" transform="scale(0.015625)"/>
       </defs>
       <use xlink:href="#DejaVuSans-39"/>
       <use xlink:href="#DejaVuSans-31" transform="translate(63.623047 0)"/>
      </g>
     </g>
    </g>
    <g id="text_11">
     <!-- Trial ID -->
     <g transform="translate(328.855625 388.513625) scale(0.12 -0.12)">
      <defs>
       <path id="DejaVuSans-54" d="M -19 4666 
L 3928 4666 
L 3928 4134 
L 2272 4134 
L 2272 0 
L 1638 0 
L 1638 4134 
L -19 4134 
L -19 4666 
z
" transform="scale(0.015625)"/>
       <path id="DejaVuSans-72" d="M 2631 2963 
Q 2534 3019 2420 3045 
Q 2306 3072 2169 3072 
Q 1681 3072 1420 2755 
Q 1159 2438 1159 1844 
L 1159 0 
L 581 0 
L 581 3500 
L 1159 3500 
L 1159 2956 
Q 1341 3275 1631 3429 
Q 1922 3584 2338 3584 
Q 2397 3584 2469 3576 
Q 2541 3569 2628 3553 
L 2631 2963 
z
" transform="scale(0.015625)"/>
       <path id="DejaVuSans-69" d="M 603 3500 
L 1178 3500 
L 1178 0 
L 603 0 
L 603 3500 
z
M 603 4863 
L 1178 4863 
L 1178 4134 
L 603 4134 
L 603 4863 
z
" transform="scale(0.015625)"/>
       <path id="DejaVuSans-61" d="M 2194 1759 
Q 1497 1759 1228 1600 
Q 959 1441 959 1056 
Q 959 750 1161 570 
Q 1363 391 1709 391 
Q 2188 391 2477 730 
Q 2766 1069 2766 1631 
L 2766 1759 
L 2194 1759 
z
M 3341 1997 
L 3341 0 
L 2766 0 
L 2766 531 
Q 2569 213 2275 61 
Q 1981 -91 1556 -91 
Q 1019 -91 701 211 
Q 384 513 384 1019 
Q 384 1609 779 1909 
Q 1175 2209 1959 2209 
L 2766 2209 
L 2766 2266 
Q 2766 2663 2505 2880 
Q 2244 3097 1772 3097 
Q 1472 3097 1187 3025 
Q 903 2953 641 2809 
L 641 3341 
Q 956 3463 1253 3523 
Q 1550 3584 1831 3584 
Q 2591 3584 2966 3190 
Q 3341 2797 3341 1997 
z
" transform="scale(0.015625)"/>
       <path id="DejaVuSans-6c" d="M 603 4863 
L 1178 4863 
L 1178 0 
L 603 0 
L 603 4863 
z
" transform="scale(0.015625)"/>
       <path id="DejaVuSans-20" transform="scale(0.015625)"/>
       <path id="DejaVuSans-49" d="M 628 4666 
L 1259 4666 
L 1259 0 
L 628 0 
L 628 4666 
z
" transform="scale(0.015625)"/>
       <path id="DejaVuSans-44" d="M 1259 4147 
L 1259 519 
L 2022 519 
Q 2988 519 3436 956 
Q 3884 1394 3884 2338 
Q 3884 3275 3436 3711 
Q 2988 4147 2022 4147 
L 1259 4147 
z
M 628 4666 
L 1925 4666 
Q 3281 4666 3915 4102 
Q 4550 3538 4550 2338 
Q 4550 1131 3912 565 
Q 3275 0 1925 0 
L 628 0 
L 628 4666 
z
" transform="scale(0.015625)"/>
      </defs>
      <use xlink:href="#DejaVuSans-54"/>
      <use xlink:href="#DejaVuSans-72" transform="translate(46.333984 0)"/>
      <use xlink:href="#DejaVuSans-69" transform="translate(87.447266 0)"/>
      <use xlink:href="#DejaVuSans-61" transform="translate(115.230469 0)"/>
      <use xlink:href="#DejaVuSans-6c" transform="translate(176.509766 0)"/>
      <use xlink:href="#DejaVuSans-20" transform="translate(204.292969 0)"/>
      <use xlink:href="#DejaVuSans-49" transform="translate(236.080078 0)"/>
      <use xlink:href="#DejaVuSans-44" transform="translate(265.572266 0)"/>
     </g>
    </g>
   </g>
   <g id="matplotlib.axis_2">
    <g id="ytick_1">
     <g id="line2d_21">
      <path d="M 70.409375 353.146927 
L 628.409375 353.146927 
" clip-path="url(#pfaaf8cdc46)" style="fill: none; stroke-dasharray: 2.96,1.28; stroke-dashoffset: 0; stroke: #b0b0b0; stroke-opacity: 0.5; stroke-width: 0.8"/>
     </g>
     <g id="line2d_22">
      <defs>
       <path id="m032aa09672" d="M 0 0 
L -3.5 0 
" style="stroke: #000000; stroke-width: 0.8"/>
      </defs>
      <g>
       <use xlink:href="#m032aa09672" x="70.409375" y="353.146927" style="stroke: #000000; stroke-width: 0.8"/>
      </g>
     </g>
     <g id="text_12">
      <!-- −2500 -->
      <g transform="translate(22.81375 357.705989) scale(0.12 -0.12)">
       <defs>
        <path id="DejaVuSans-2212" d="M 678 2272 
L 4684 2272 
L 4684 1741 
L 678 1741 
L 678 2272 
z
" transform="scale(0.015625)"/>
        <path id="DejaVuSans-30" d="M 2034 4250 
Q 1547 4250 1301 3770 
Q 1056 3291 1056 2328 
Q 1056 1369 1301 889 
Q 1547 409 2034 409 
Q 2525 409 2770 889 
Q 3016 1369 3016 2328 
Q 3016 3291 2770 3770 
Q 2525 4250 2034 4250 
z
M 2034 4750 
Q 2819 4750 3233 4129 
Q 3647 3509 3647 2328 
Q 3647 1150 3233 529 
Q 2819 -91 2034 -91 
Q 1250 -91 836 529 
Q 422 1150 422 2328 
Q 422 3509 836 4129 
Q 1250 4750 2034 4750 
z
" transform="scale(0.015625)"/>
       </defs>
       <use xlink:href="#DejaVuSans-2212"/>
       <use xlink:href="#DejaVuSans-32" transform="translate(83.789062 0)"/>
       <use xlink:href="#DejaVuSans-35" transform="translate(147.412109 0)"/>
       <use xlink:href="#DejaVuSans-30" transform="translate(211.035156 0)"/>
       <use xlink:href="#DejaVuSans-30" transform="translate(274.658203 0)"/>
      </g>
     </g>
    </g>
    <g id="ytick_2">
     <g id="line2d_23">
      <path d="M 70.409375 313.865462 
L 628.409375 313.865462 
" clip-path="url(#pfaaf8cdc46)" style="fill: none; stroke-dasharray: 2.96,1.28; stroke-dashoffset: 0; stroke: #b0b0b0; stroke-opacity: 0.5; stroke-width: 0.8"/>
     </g>
     <g id="line2d_24">
      <g>
       <use xlink:href="#m032aa09672" x="70.409375" y="313.865462" style="stroke: #000000; stroke-width: 0.8"/>
      </g>
     </g>
     <g id="text_13">
      <!-- 0 -->
      <g transform="translate(55.774375 318.424525) scale(0.12 -0.12)">
       <use xlink:href="#DejaVuSans-30"/>
      </g>
     </g>
    </g>
    <g id="ytick_3">
     <g id="line2d_25">
      <path d="M 70.409375 274.583998 
L 628.409375 274.583998 
" clip-path="url(#pfaaf8cdc46)" style="fill: none; stroke-dasharray: 2.96,1.28; stroke-dashoffset: 0; stroke: #b0b0b0; stroke-opacity: 0.5; stroke-width: 0.8"/>
     </g>
     <g id="line2d_26">
      <g>
       <use xlink:href="#m032aa09672" x="70.409375" y="274.583998" style="stroke: #000000; stroke-width: 0.8"/>
      </g>
     </g>
     <g id="text_14">
      <!-- 2500 -->
      <g transform="translate(32.869375 279.143061) scale(0.12 -0.12)">
       <use xlink:href="#DejaVuSans-32"/>
       <use xlink:href="#DejaVuSans-35" transform="translate(63.623047 0)"/>
       <use xlink:href="#DejaVuSans-30" transform="translate(127.246094 0)"/>
       <use xlink:href="#DejaVuSans-30" transform="translate(190.869141 0)"/>
      </g>
     </g>
    </g>
    <g id="ytick_4">
     <g id="line2d_27">
      <path d="M 70.409375 235.302534 
L 628.409375 235.302534 
" clip-path="url(#pfaaf8cdc46)" style="fill: none; stroke-dasharray: 2.96,1.28; stroke-dashoffset: 0; stroke: #b0b0b0; stroke-opacity: 0.5; stroke-width: 0.8"/>
     </g>
     <g id="line2d_28">
      <g>
       <use xlink:href="#m032aa09672" x="70.409375" y="235.302534" style="stroke: #000000; stroke-width: 0.8"/>
      </g>
     </g>
     <g id="text_15">
      <!-- 5000 -->
      <g transform="translate(32.869375 239.861597) scale(0.12 -0.12)">
       <use xlink:href="#DejaVuSans-35"/>
       <use xlink:href="#DejaVuSans-30" transform="translate(63.623047 0)"/>
       <use xlink:href="#DejaVuSans-30" transform="translate(127.246094 0)"/>
       <use xlink:href="#DejaVuSans-30" transform="translate(190.869141 0)"/>
      </g>
     </g>
    </g>
    <g id="ytick_5">
     <g id="line2d_29">
      <path d="M 70.409375 196.02107 
L 628.409375 196.02107 
" clip-path="url(#pfaaf8cdc46)" style="fill: none; stroke-dasharray: 2.96,1.28; stroke-dashoffset: 0; stroke: #b0b0b0; stroke-opacity: 0.5; stroke-width: 0.8"/>
     </g>
     <g id="line2d_30">
      <g>
       <use xlink:href="#m032aa09672" x="70.409375" y="196.02107" style="stroke: #000000; stroke-width: 0.8"/>
      </g>
     </g>
     <g id="text_16">
      <!-- 7500 -->
      <g transform="translate(32.869375 200.580132) scale(0.12 -0.12)">
       <use xlink:href="#DejaVuSans-37"/>
       <use xlink:href="#DejaVuSans-35" transform="translate(63.623047 0)"/>
       <use xlink:href="#DejaVuSans-30" transform="translate(127.246094 0)"/>
       <use xlink:href="#DejaVuSans-30" transform="translate(190.869141 0)"/>
      </g>
     </g>
    </g>
    <g id="ytick_6">
     <g id="line2d_31">
      <path d="M 70.409375 156.739606 
L 628.409375 156.739606 
" clip-path="url(#pfaaf8cdc46)" style="fill: none; stroke-dasharray: 2.96,1.28; stroke-dashoffset: 0; stroke: #b0b0b0; stroke-opacity: 0.5; stroke-width: 0.8"/>
     </g>
     <g id="line2d_32">
      <g>
       <use xlink:href="#m032aa09672" x="70.409375" y="156.739606" style="stroke: #000000; stroke-width: 0.8"/>
      </g>
     </g>
     <g id="text_17">
      <!-- 10000 -->
      <g transform="translate(25.234375 161.298668) scale(0.12 -0.12)">
       <use xlink:href="#DejaVuSans-31"/>
       <use xlink:href="#DejaVuSans-30" transform="translate(63.623047 0)"/>
       <use xlink:href="#DejaVuSans-30" transform="translate(127.246094 0)"/>
       <use xlink:href="#DejaVuSans-30" transform="translate(190.869141 0)"/>
       <use xlink:href="#DejaVuSans-30" transform="translate(254.492188 0)"/>
      </g>
     </g>
    </g>
    <g id="ytick_7">
     <g id="line2d_33">
      <path d="M 70.409375 117.458141 
L 628.409375 117.458141 
" clip-path="url(#pfaaf8cdc46)" style="fill: none; stroke-dasharray: 2.96,1.28; stroke-dashoffset: 0; stroke: #b0b0b0; stroke-opacity: 0.5; stroke-width: 0.8"/>
     </g>
     <g id="line2d_34">
      <g>
       <use xlink:href="#m032aa09672" x="70.409375" y="117.458141" style="stroke: #000000; stroke-width: 0.8"/>
      </g>
     </g>
     <g id="text_18">
      <!-- 12500 -->
      <g transform="translate(25.234375 122.017204) scale(0.12 -0.12)">
       <use xlink:href="#DejaVuSans-31"/>
       <use xlink:href="#DejaVuSans-32" transform="translate(63.623047 0)"/>
       <use xlink:href="#DejaVuSans-35" transform="translate(127.246094 0)"/>
       <use xlink:href="#DejaVuSans-30" transform="translate(190.869141 0)"/>
       <use xlink:href="#DejaVuSans-30" transform="translate(254.492188 0)"/>
      </g>
     </g>
    </g>
    <g id="ytick_8">
     <g id="line2d_35">
      <path d="M 70.409375 78.176677 
L 628.409375 78.176677 
" clip-path="url(#pfaaf8cdc46)" style="fill: none; stroke-dasharray: 2.96,1.28; stroke-dashoffset: 0; stroke: #b0b0b0; stroke-opacity: 0.5; stroke-width: 0.8"/>
     </g>
     <g id="line2d_36">
      <g>
       <use xlink:href="#m032aa09672" x="70.409375" y="78.176677" style="stroke: #000000; stroke-width: 0.8"/>
      </g>
     </g>
     <g id="text_19">
      <!-- 15000 -->
      <g transform="translate(25.234375 82.73574) scale(0.12 -0.12)">
       <use xlink:href="#DejaVuSans-31"/>
       <use xlink:href="#DejaVuSans-35" transform="translate(63.623047 0)"/>
       <use xlink:href="#DejaVuSans-30" transform="translate(127.246094 0)"/>
       <use xlink:href="#DejaVuSans-30" transform="translate(190.869141 0)"/>
       <use xlink:href="#DejaVuSans-30" transform="translate(254.492188 0)"/>
      </g>
     </g>
    </g>
    <g id="ytick_9">
     <g id="line2d_37">
      <path d="M 70.409375 38.895213 
L 628.409375 38.895213 
" clip-path="url(#pfaaf8cdc46)" style="fill: none; stroke-dasharray: 2.96,1.28; stroke-dashoffset: 0; stroke: #b0b0b0; stroke-opacity: 0.5; stroke-width: 0.8"/>
     </g>
     <g id="line2d_38">
      <g>
       <use xlink:href="#m032aa09672" x="70.409375" y="38.895213" style="stroke: #000000; stroke-width: 0.8"/>
      </g>
     </g>
     <g id="text_20">
      <!-- 17500 -->
      <g transform="translate(25.234375 43.454275) scale(0.12 -0.12)">
       <use xlink:href="#DejaVuSans-31"/>
       <use xlink:href="#DejaVuSans-37" transform="translate(63.623047 0)"/>
       <use xlink:href="#DejaVuSans-35" transform="translate(127.246094 0)"/>
       <use xlink:href="#DejaVuSans-30" transform="translate(190.869141 0)"/>
       <use xlink:href="#DejaVuSans-30" transform="translate(254.492188 0)"/>
      </g>
     </g>
    </g>
    <g id="text_21">
     <!-- Time (ms) -->
     <g transform="translate(16.318125 220.700812) rotate(-90) scale(0.12 -0.12)">
      <defs>
       <path id="DejaVuSans-6d" d="M 3328 2828 
Q 3544 3216 3844 3400 
Q 4144 3584 4550 3584 
Q 5097 3584 5394 3201 
Q 5691 2819 5691 2113 
L 5691 0 
L 5113 0 
L 5113 2094 
Q 5113 2597 4934 2840 
Q 4756 3084 4391 3084 
Q 3944 3084 3684 2787 
Q 3425 2491 3425 1978 
L 3425 0 
L 2847 0 
L 2847 2094 
Q 2847 2600 2669 2842 
Q 2491 3084 2119 3084 
Q 1678 3084 1418 2786 
Q 1159 2488 1159 1978 
L 1159 0 
L 581 0 
L 581 3500 
L 1159 3500 
L 1159 2956 
Q 1356 3278 1631 3431 
Q 1906 3584 2284 3584 
Q 2666 3584 2933 3390 
Q 3200 3197 3328 2828 
z
" transform="scale(0.015625)"/>
       <path id="DejaVuSans-65" d="M 3597 1894 
L 3597 1613 
L 953 1613 
Q 991 1019 1311 708 
Q 1631 397 2203 397 
Q 2534 397 2845 478 
Q 3156 559 3463 722 
L 3463 178 
Q 3153 47 2828 -22 
Q 2503 -91 2169 -91 
Q 1331 -91 842 396 
Q 353 884 353 1716 
Q 353 2575 817 3079 
Q 1281 3584 2069 3584 
Q 2775 3584 3186 3129 
Q 3597 2675 3597 1894 
z
M 3022 2063 
Q 3016 2534 2758 2815 
Q 2500 3097 2075 3097 
Q 1594 3097 1305 2825 
Q 1016 2553 972 2059 
L 3022 2063 
z
" transform="scale(0.015625)"/>
       <path id="DejaVuSans-28" d="M 1984 4856 
Q 1566 4138 1362 3434 
Q 1159 2731 1159 2009 
Q 1159 1288 1364 580 
Q 1569 -128 1984 -844 
L 1484 -844 
Q 1016 -109 783 600 
Q 550 1309 550 2009 
Q 550 2706 781 3412 
Q 1013 4119 1484 4856 
L 1984 4856 
z
" transform="scale(0.015625)"/>
       <path id="DejaVuSans-73" d="M 2834 3397 
L 2834 2853 
Q 2591 2978 2328 3040 
Q 2066 3103 1784 3103 
Q 1356 3103 1142 2972 
Q 928 2841 928 2578 
Q 928 2378 1081 2264 
Q 1234 2150 1697 2047 
L 1894 2003 
Q 2506 1872 2764 1633 
Q 3022 1394 3022 966 
Q 3022 478 2636 193 
Q 2250 -91 1575 -91 
Q 1294 -91 989 -36 
Q 684 19 347 128 
L 347 722 
Q 666 556 975 473 
Q 1284 391 1588 391 
Q 1994 391 2212 530 
Q 2431 669 2431 922 
Q 2431 1156 2273 1281 
Q 2116 1406 1581 1522 
L 1381 1569 
Q 847 1681 609 1914 
Q 372 2147 372 2553 
Q 372 3047 722 3315 
Q 1072 3584 1716 3584 
Q 2034 3584 2315 3537 
Q 2597 3491 2834 3397 
z
" transform="scale(0.015625)"/>
       <path id="DejaVuSans-29" d="M 513 4856 
L 1013 4856 
Q 1481 4119 1714 3412 
Q 1947 2706 1947 2009 
Q 1947 1309 1714 600 
Q 1481 -109 1013 -844 
L 513 -844 
Q 928 -128 1133 580 
Q 1338 1288 1338 2009 
Q 1338 2731 1133 3434 
Q 928 4138 513 4856 
z
" transform="scale(0.015625)"/>
      </defs>
      <use xlink:href="#DejaVuSans-54"/>
      <use xlink:href="#DejaVuSans-69" transform="translate(57.958984 0)"/>
      <use xlink:href="#DejaVuSans-6d" transform="translate(85.742188 0)"/>
      <use xlink:href="#DejaVuSans-65" transform="translate(183.154297 0)"/>
      <use xlink:href="#DejaVuSans-20" transform="translate(244.677734 0)"/>
      <use xlink:href="#DejaVuSans-28" transform="translate(276.464844 0)"/>
      <use xlink:href="#DejaVuSans-6d" transform="translate(315.478516 0)"/>
      <use xlink:href="#DejaVuSans-73" transform="translate(412.890625 0)"/>
      <use xlink:href="#DejaVuSans-29" transform="translate(464.990234 0)"/>
     </g>
    </g>
   </g>
   <g id="line2d_39">
    <path d="M 95.773011 261.804177 
L 100.896978 297.416909 
L 106.020945 285.424848 
L 111.144912 260.91335 
L 116.268879 294.023816 
L 121.392846 287.418747 
L 126.516813 284.315267 
L 131.64078 291.299084 
L 136.764747 286.150152 
L 141.888714 290.714534 
L 147.012681 293.570177 
L 152.136648 284.334722 
L 157.260615 298.436301 
L 162.384582 297.984681 
L 167.508549 296.671316 
L 172.632515 290.68096 
L 177.756482 293.352228 
L 182.880449 296.348318 
L 188.004416 294.778159 
L 193.128383 295.216469 
L 198.25235 295.827418 
L 203.376317 231.770897 
L 208.500284 270.233793 
L 218.748218 285.592894 
L 223.872185 298.475754 
L 228.996152 300.206647 
L 234.120119 291.147563 
L 239.244086 297.159995 
L 244.368053 287.522924 
L 249.49202 302.541799 
L 254.615987 295.3123 
L 259.739954 293.811516 
L 264.86392 284.469518 
L 269.987887 278.306626 
L 275.111854 298.536367 
L 280.235821 258.833591 
L 285.359788 293.54675 
L 290.483755 290.258528 
L 295.607722 296.977399 
L 300.731689 297.375761 
L 305.855656 296.832307 
L 310.979623 266.963792 
L 316.10359 287.866436 
L 321.227557 293.84672 
L 326.351524 293.277636 
L 331.475491 190.46175 
L 336.599458 287.755704 
L 341.723425 280.323857 
L 346.847392 301.361853 
L 351.971358 299.890539 
L 357.095325 294.411526 
L 362.219292 300.804453 
L 367.343259 286.983719 
L 372.467226 294.491616 
L 377.591193 293.995304 
L 382.71516 297.281053 
L 387.839127 296.694774 
L 392.963094 300.211294 
L 398.087061 282.237167 
L 403.211028 296.013466 
L 408.334995 285.125572 
L 413.458962 286.741311 
L 418.582929 291.396848 
L 423.706896 299.176425 
L 428.830863 300.59316 
L 433.95483 298.60565 
L 439.078796 293.130682 
L 444.202763 291.874899 
L 449.32673 284.004343 
L 454.450697 299.534801 
L 459.574664 288.892832 
L 464.698631 287.929411 
L 469.822598 299.909064 
L 474.946565 301.671125 
L 480.070532 282.065119 
L 485.194499 290.454962 
L 490.318466 299.204641 
L 495.442433 293.788314 
L 500.5664 298.820506 
L 505.690367 292.563674 
L 510.814334 299.501453 
L 515.938301 281.891396 
L 521.062268 294.844365 
L 526.186235 291.802713 
L 531.310201 292.954057 
L 536.434168 277.171632 
L 541.558135 296.328505 
L 546.682102 284.929404 
L 551.806069 294.815138 
L 556.930036 297.232332 
L 562.054003 298.846948 
L 567.17797 292.110002 
L 572.301937 202.966783 
L 577.425904 295.533291 
L 582.549871 300.369131 
L 587.673838 297.81956 
L 592.797805 291.037405 
L 597.921772 293.715723 
L 603.045739 297.750294 
" clip-path="url(#pfaaf8cdc46)" style="fill: none; stroke: #35dc67; stroke-width: 1.5; stroke-linecap: square"/>
    <defs>
     <path id="mb677b6eadc" d="M 0 3 
C 0.795609 3 1.55874 2.683901 2.12132 2.12132 
C 2.683901 1.55874 3 0.795609 3 0 
C 3 -0.795609 2.683901 -1.55874 2.12132 -2.12132 
C 1.55874 -2.683901 0.795609 -3 0 -3 
C -0.795609 -3 -1.55874 -2.683901 -2.12132 -2.12132 
C -2.683901 -1.55874 -3 -0.795609 -3 0 
C -3 0.795609 -2.683901 1.55874 -2.12132 2.12132 
C -1.55874 2.683901 -0.795609 3 0 3 
z
" style="stroke: #ffffff; stroke-width: 0.75"/>
    </defs>
    <g clip-path="url(#pfaaf8cdc46)">
     <use xlink:href="#mb677b6eadc" x="95.773011" y="261.804177" style="fill: #35dc67; stroke: #ffffff; stroke-width: 0.75"/>
     <use xlink:href="#mb677b6eadc" x="100.896978" y="297.416909" style="fill: #35dc67; stroke: #ffffff; stroke-width: 0.75"/>
     <use xlink:href="#mb677b6eadc" x="106.020945" y="285.424848" style="fill: #35dc67; stroke: #ffffff; stroke-width: 0.75"/>
     <use xlink:href="#mb677b6eadc" x="111.144912" y="260.91335" style="fill: #35dc67; stroke: #ffffff; stroke-width: 0.75"/>
     <use xlink:href="#mb677b6eadc" x="116.268879" y="294.023816" style="fill: #35dc67; stroke: #ffffff; stroke-width: 0.75"/>
     <use xlink:href="#mb677b6eadc" x="121.392846" y="287.418747" style="fill: #35dc67; stroke: #ffffff; stroke-width: 0.75"/>
     <use xlink:href="#mb677b6eadc" x="126.516813" y="284.315267" style="fill: #35dc67; stroke: #ffffff; stroke-width: 0.75"/>
     <use xlink:href="#mb677b6eadc" x="131.64078" y="291.299084" style="fill: #35dc67; stroke: #ffffff; stroke-width: 0.75"/>
     <use xlink:href="#mb677b6eadc" x="136.764747" y="286.150152" style="fill: #35dc67; stroke: #ffffff; stroke-width: 0.75"/>
     <use xlink:href="#mb677b6eadc" x="141.888714" y="290.714534" style="fill: #35dc67; stroke: #ffffff; stroke-width: 0.75"/>
     <use xlink:href="#mb677b6eadc" x="147.012681" y="293.570177" style="fill: #35dc67; stroke: #ffffff; stroke-width: 0.75"/>
     <use xlink:href="#mb677b6eadc" x="152.136648" y="284.334722" style="fill: #35dc67; stroke: #ffffff; stroke-width: 0.75"/>
     <use xlink:href="#mb677b6eadc" x="157.260615" y="298.436301" style="fill: #35dc67; stroke: #ffffff; stroke-width: 0.75"/>
     <use xlink:href="#mb677b6eadc" x="162.384582" y="297.984681" style="fill: #35dc67; stroke: #ffffff; stroke-width: 0.75"/>
     <use xlink:href="#mb677b6eadc" x="167.508549" y="296.671316" style="fill: #35dc67; stroke: #ffffff; stroke-width: 0.75"/>
     <use xlink:href="#mb677b6eadc" x="172.632515" y="290.68096" style="fill: #35dc67; stroke: #ffffff; stroke-width: 0.75"/>
     <use xlink:href="#mb677b6eadc" x="177.756482" y="293.352228" style="fill: #35dc67; stroke: #ffffff; stroke-width: 0.75"/>
     <use xlink:href="#mb677b6eadc" x="182.880449" y="296.348318" style="fill: #35dc67; stroke: #ffffff; stroke-width: 0.75"/>
     <use xlink:href="#mb677b6eadc" x="188.004416" y="294.778159" style="fill: #35dc67; stroke: #ffffff; stroke-width: 0.75"/>
     <use xlink:href="#mb677b6eadc" x="193.128383" y="295.216469" style="fill: #35dc67; stroke: #ffffff; stroke-width: 0.75"/>
     <use xlink:href="#mb677b6eadc" x="198.25235" y="295.827418" style="fill: #35dc67; stroke: #ffffff; stroke-width: 0.75"/>
     <use xlink:href="#mb677b6eadc" x="203.376317" y="231.770897" style="fill: #35dc67; stroke: #ffffff; stroke-width: 0.75"/>
     <use xlink:href="#mb677b6eadc" x="208.500284" y="270.233793" style="fill: #35dc67; stroke: #ffffff; stroke-width: 0.75"/>
     <use xlink:href="#mb677b6eadc" x="218.748218" y="285.592894" style="fill: #35dc67; stroke: #ffffff; stroke-width: 0.75"/>
     <use xlink:href="#mb677b6eadc" x="223.872185" y="298.475754" style="fill: #35dc67; stroke: #ffffff; stroke-width: 0.75"/>
     <use xlink:href="#mb677b6eadc" x="228.996152" y="300.206647" style="fill: #35dc67; stroke: #ffffff; stroke-width: 0.75"/>
     <use xlink:href="#mb677b6eadc" x="234.120119" y="291.147563" style="fill: #35dc67; stroke: #ffffff; stroke-width: 0.75"/>
     <use xlink:href="#mb677b6eadc" x="239.244086" y="297.159995" style="fill: #35dc67; stroke: #ffffff; stroke-width: 0.75"/>
     <use xlink:href="#mb677b6eadc" x="244.368053" y="287.522924" style="fill: #35dc67; stroke: #ffffff; stroke-width: 0.75"/>
     <use xlink:href="#mb677b6eadc" x="249.49202" y="302.541799" style="fill: #35dc67; stroke: #ffffff; stroke-width: 0.75"/>
     <use xlink:href="#mb677b6eadc" x="254.615987" y="295.3123" style="fill: #35dc67; stroke: #ffffff; stroke-width: 0.75"/>
     <use xlink:href="#mb677b6eadc" x="259.739954" y="293.811516" style="fill: #35dc67; stroke: #ffffff; stroke-width: 0.75"/>
     <use xlink:href="#mb677b6eadc" x="264.86392" y="284.469518" style="fill: #35dc67; stroke: #ffffff; stroke-width: 0.75"/>
     <use xlink:href="#mb677b6eadc" x="269.987887" y="278.306626" style="fill: #35dc67; stroke: #ffffff; stroke-width: 0.75"/>
     <use xlink:href="#mb677b6eadc" x="275.111854" y="298.536367" style="fill: #35dc67; stroke: #ffffff; stroke-width: 0.75"/>
     <use xlink:href="#mb677b6eadc" x="280.235821" y="258.833591" style="fill: #35dc67; stroke: #ffffff; stroke-width: 0.75"/>
     <use xlink:href="#mb677b6eadc" x="285.359788" y="293.54675" style="fill: #35dc67; stroke: #ffffff; stroke-width: 0.75"/>
     <use xlink:href="#mb677b6eadc" x="290.483755" y="290.258528" style="fill: #35dc67; stroke: #ffffff; stroke-width: 0.75"/>
     <use xlink:href="#mb677b6eadc" x="295.607722" y="296.977399" style="fill: #35dc67; stroke: #ffffff; stroke-width: 0.75"/>
     <use xlink:href="#mb677b6eadc" x="300.731689" y="297.375761" style="fill: #35dc67; stroke: #ffffff; stroke-width: 0.75"/>
     <use xlink:href="#mb677b6eadc" x="305.855656" y="296.832307" style="fill: #35dc67; stroke: #ffffff; stroke-width: 0.75"/>
     <use xlink:href="#mb677b6eadc" x="310.979623" y="266.963792" style="fill: #35dc67; stroke: #ffffff; stroke-width: 0.75"/>
     <use xlink:href="#mb677b6eadc" x="316.10359" y="287.866436" style="fill: #35dc67; stroke: #ffffff; stroke-width: 0.75"/>
     <use xlink:href="#mb677b6eadc" x="321.227557" y="293.84672" style="fill: #35dc67; stroke: #ffffff; stroke-width: 0.75"/>
     <use xlink:href="#mb677b6eadc" x="326.351524" y="293.277636" style="fill: #35dc67; stroke: #ffffff; stroke-width: 0.75"/>
     <use xlink:href="#mb677b6eadc" x="331.475491" y="190.46175" style="fill: #35dc67; stroke: #ffffff; stroke-width: 0.75"/>
     <use xlink:href="#mb677b6eadc" x="336.599458" y="287.755704" style="fill: #35dc67; stroke: #ffffff; stroke-width: 0.75"/>
     <use xlink:href="#mb677b6eadc" x="341.723425" y="280.323857" style="fill: #35dc67; stroke: #ffffff; stroke-width: 0.75"/>
     <use xlink:href="#mb677b6eadc" x="346.847392" y="301.361853" style="fill: #35dc67; stroke: #ffffff; stroke-width: 0.75"/>
     <use xlink:href="#mb677b6eadc" x="351.971358" y="299.890539" style="fill: #35dc67; stroke: #ffffff; stroke-width: 0.75"/>
     <use xlink:href="#mb677b6eadc" x="357.095325" y="294.411526" style="fill: #35dc67; stroke: #ffffff; stroke-width: 0.75"/>
     <use xlink:href="#mb677b6eadc" x="362.219292" y="300.804453" style="fill: #35dc67; stroke: #ffffff; stroke-width: 0.75"/>
     <use xlink:href="#mb677b6eadc" x="367.343259" y="286.983719" style="fill: #35dc67; stroke: #ffffff; stroke-width: 0.75"/>
     <use xlink:href="#mb677b6eadc" x="372.467226" y="294.491616" style="fill: #35dc67; stroke: #ffffff; stroke-width: 0.75"/>
     <use xlink:href="#mb677b6eadc" x="377.591193" y="293.995304" style="fill: #35dc67; stroke: #ffffff; stroke-width: 0.75"/>
     <use xlink:href="#mb677b6eadc" x="382.71516" y="297.281053" style="fill: #35dc67; stroke: #ffffff; stroke-width: 0.75"/>
     <use xlink:href="#mb677b6eadc" x="387.839127" y="296.694774" style="fill: #35dc67; stroke: #ffffff; stroke-width: 0.75"/>
     <use xlink:href="#mb677b6eadc" x="392.963094" y="300.211294" style="fill: #35dc67; stroke: #ffffff; stroke-width: 0.75"/>
     <use xlink:href="#mb677b6eadc" x="398.087061" y="282.237167" style="fill: #35dc67; stroke: #ffffff; stroke-width: 0.75"/>
     <use xlink:href="#mb677b6eadc" x="403.211028" y="296.013466" style="fill: #35dc67; stroke: #ffffff; stroke-width: 0.75"/>
     <use xlink:href="#mb677b6eadc" x="408.334995" y="285.125572" style="fill: #35dc67; stroke: #ffffff; stroke-width: 0.75"/>
     <use xlink:href="#mb677b6eadc" x="413.458962" y="286.741311" style="fill: #35dc67; stroke: #ffffff; stroke-width: 0.75"/>
     <use xlink:href="#mb677b6eadc" x="418.582929" y="291.396848" style="fill: #35dc67; stroke: #ffffff; stroke-width: 0.75"/>
     <use xlink:href="#mb677b6eadc" x="423.706896" y="299.176425" style="fill: #35dc67; stroke: #ffffff; stroke-width: 0.75"/>
     <use xlink:href="#mb677b6eadc" x="428.830863" y="300.59316" style="fill: #35dc67; stroke: #ffffff; stroke-width: 0.75"/>
     <use xlink:href="#mb677b6eadc" x="433.95483" y="298.60565" style="fill: #35dc67; stroke: #ffffff; stroke-width: 0.75"/>
     <use xlink:href="#mb677b6eadc" x="439.078796" y="293.130682" style="fill: #35dc67; stroke: #ffffff; stroke-width: 0.75"/>
     <use xlink:href="#mb677b6eadc" x="444.202763" y="291.874899" style="fill: #35dc67; stroke: #ffffff; stroke-width: 0.75"/>
     <use xlink:href="#mb677b6eadc" x="449.32673" y="284.004343" style="fill: #35dc67; stroke: #ffffff; stroke-width: 0.75"/>
     <use xlink:href="#mb677b6eadc" x="454.450697" y="299.534801" style="fill: #35dc67; stroke: #ffffff; stroke-width: 0.75"/>
     <use xlink:href="#mb677b6eadc" x="459.574664" y="288.892832" style="fill: #35dc67; stroke: #ffffff; stroke-width: 0.75"/>
     <use xlink:href="#mb677b6eadc" x="464.698631" y="287.929411" style="fill: #35dc67; stroke: #ffffff; stroke-width: 0.75"/>
     <use xlink:href="#mb677b6eadc" x="469.822598" y="299.909064" style="fill: #35dc67; stroke: #ffffff; stroke-width: 0.75"/>
     <use xlink:href="#mb677b6eadc" x="474.946565" y="301.671125" style="fill: #35dc67; stroke: #ffffff; stroke-width: 0.75"/>
     <use xlink:href="#mb677b6eadc" x="480.070532" y="282.065119" style="fill: #35dc67; stroke: #ffffff; stroke-width: 0.75"/>
     <use xlink:href="#mb677b6eadc" x="485.194499" y="290.454962" style="fill: #35dc67; stroke: #ffffff; stroke-width: 0.75"/>
     <use xlink:href="#mb677b6eadc" x="490.318466" y="299.204641" style="fill: #35dc67; stroke: #ffffff; stroke-width: 0.75"/>
     <use xlink:href="#mb677b6eadc" x="495.442433" y="293.788314" style="fill: #35dc67; stroke: #ffffff; stroke-width: 0.75"/>
     <use xlink:href="#mb677b6eadc" x="500.5664" y="298.820506" style="fill: #35dc67; stroke: #ffffff; stroke-width: 0.75"/>
     <use xlink:href="#mb677b6eadc" x="505.690367" y="292.563674" style="fill: #35dc67; stroke: #ffffff; stroke-width: 0.75"/>
     <use xlink:href="#mb677b6eadc" x="510.814334" y="299.501453" style="fill: #35dc67; stroke: #ffffff; stroke-width: 0.75"/>
     <use xlink:href="#mb677b6eadc" x="515.938301" y="281.891396" style="fill: #35dc67; stroke: #ffffff; stroke-width: 0.75"/>
     <use xlink:href="#mb677b6eadc" x="521.062268" y="294.844365" style="fill: #35dc67; stroke: #ffffff; stroke-width: 0.75"/>
     <use xlink:href="#mb677b6eadc" x="526.186235" y="291.802713" style="fill: #35dc67; stroke: #ffffff; stroke-width: 0.75"/>
     <use xlink:href="#mb677b6eadc" x="531.310201" y="292.954057" style="fill: #35dc67; stroke: #ffffff; stroke-width: 0.75"/>
     <use xlink:href="#mb677b6eadc" x="536.434168" y="277.171632" style="fill: #35dc67; stroke: #ffffff; stroke-width: 0.75"/>
     <use xlink:href="#mb677b6eadc" x="541.558135" y="296.328505" style="fill: #35dc67; stroke: #ffffff; stroke-width: 0.75"/>
     <use xlink:href="#mb677b6eadc" x="546.682102" y="284.929404" style="fill: #35dc67; stroke: #ffffff; stroke-width: 0.75"/>
     <use xlink:href="#mb677b6eadc" x="551.806069" y="294.815138" style="fill: #35dc67; stroke: #ffffff; stroke-width: 0.75"/>
     <use xlink:href="#mb677b6eadc" x="556.930036" y="297.232332" style="fill: #35dc67; stroke: #ffffff; stroke-width: 0.75"/>
     <use xlink:href="#mb677b6eadc" x="562.054003" y="298.846948" style="fill: #35dc67; stroke: #ffffff; stroke-width: 0.75"/>
     <use xlink:href="#mb677b6eadc" x="567.17797" y="292.110002" style="fill: #35dc67; stroke: #ffffff; stroke-width: 0.75"/>
     <use xlink:href="#mb677b6eadc" x="572.301937" y="202.966783" style="fill: #35dc67; stroke: #ffffff; stroke-width: 0.75"/>
     <use xlink:href="#mb677b6eadc" x="577.425904" y="295.533291" style="fill: #35dc67; stroke: #ffffff; stroke-width: 0.75"/>
     <use xlink:href="#mb677b6eadc" x="582.549871" y="300.369131" style="fill: #35dc67; stroke: #ffffff; stroke-width: 0.75"/>
     <use xlink:href="#mb677b6eadc" x="587.673838" y="297.81956" style="fill: #35dc67; stroke: #ffffff; stroke-width: 0.75"/>
     <use xlink:href="#mb677b6eadc" x="592.797805" y="291.037405" style="fill: #35dc67; stroke: #ffffff; stroke-width: 0.75"/>
     <use xlink:href="#mb677b6eadc" x="597.921772" y="293.715723" style="fill: #35dc67; stroke: #ffffff; stroke-width: 0.75"/>
     <use xlink:href="#mb677b6eadc" x="603.045739" y="297.750294" style="fill: #35dc67; stroke: #ffffff; stroke-width: 0.75"/>
    </g>
   </g>
   <g id="line2d_40">
    <path d="M 95.773011 290.708352 
L 100.896978 293.244373 
L 106.020945 280.155413 
L 111.144912 281.215889 
L 116.268879 279.868341 
L 121.392846 292.154645 
L 126.516813 294.766386 
L 131.64078 294.927833 
L 136.764747 287.114301 
L 141.888714 290.515971 
L 147.012681 290.32661 
L 152.136648 290.391507 
L 157.260615 280.987871 
L 162.384582 295.351383 
L 167.508549 268.420603 
L 172.632515 272.102767 
L 177.756482 285.393168 
L 182.880449 271.318736 
L 188.004416 296.315269 
L 193.128383 279.436473 
L 198.25235 297.618521 
L 203.376317 215.26718 
L 208.500284 283.439373 
L 213.624251 296.167163 
L 218.748218 293.470103 
L 223.872185 296.252888 
L 228.996152 286.346806 
L 234.120119 253.600835 
L 239.244086 287.978995 
L 244.368053 272.066083 
L 249.49202 293.761323 
L 254.615987 292.885958 
L 259.739954 286.742927 
L 264.86392 288.580012 
L 269.987887 277.118291 
L 275.111854 290.890503 
L 280.235821 275.503936 
L 285.359788 294.855359 
L 290.483755 297.017389 
L 295.607722 291.510647 
L 300.731689 294.497697 
L 305.855656 288.348674 
L 310.979623 294.734853 
L 316.10359 298.236348 
L 321.227557 298.763394 
L 326.351524 293.459867 
L 331.475491 275.106398 
L 336.599458 288.885037 
L 341.723425 298.926107 
L 346.847392 297.287243 
L 351.971358 295.495977 
L 357.095325 275.416945 
L 362.219292 302.192231 
L 367.343259 299.649094 
L 372.467226 290.537355 
L 377.591193 298.915508 
L 382.71516 291.385305 
L 387.839127 299.818771 
L 392.963094 288.532255 
L 398.087061 296.294064 
L 403.211028 294.717243 
L 408.334995 292.278531 
L 413.458962 283.800719 
L 418.582929 292.739899 
L 423.706896 292.067555 
L 428.830863 284.305397 
L 433.95483 288.262913 
L 439.078796 287.910061 
L 444.202763 303.547653 
L 449.32673 297.886869 
L 454.450697 295.692793 
L 459.574664 293.931823 
L 464.698631 297.447267 
L 469.822598 283.39704 
L 474.946565 294.815208 
L 480.070532 296.049962 
L 485.194499 298.912107 
L 490.318466 294.622149 
L 495.442433 259.290776 
L 500.5664 297.899943 
L 505.690367 292.960507 
L 510.814334 288.473659 
L 515.938301 281.081799 
L 521.062268 298.110292 
L 526.186235 299.820053 
L 531.310201 290.218416 
L 536.434168 300.415761 
L 541.558135 294.821644 
L 546.682102 296.917883 
L 551.806069 298.42876 
L 556.930036 300.325936 
L 562.054003 302.221004 
L 567.17797 291.618458 
L 572.301937 263.149826 
L 577.425904 299.848105 
L 582.549871 287.532105 
L 587.673838 296.181741 
L 592.797805 294.709159 
L 597.921772 289.733122 
L 603.045739 293.563376 
" clip-path="url(#pfaaf8cdc46)" style="fill: none; stroke: #007bff; stroke-width: 1.5; stroke-linecap: square"/>
    <defs>
     <path id="m812f3c7eab" d="M 0 3 
C 0.795609 3 1.55874 2.683901 2.12132 2.12132 
C 2.683901 1.55874 3 0.795609 3 0 
C 3 -0.795609 2.683901 -1.55874 2.12132 -2.12132 
C 1.55874 -2.683901 0.795609 -3 0 -3 
C -0.795609 -3 -1.55874 -2.683901 -2.12132 -2.12132 
C -2.683901 -1.55874 -3 -0.795609 -3 0 
C -3 0.795609 -2.683901 1.55874 -2.12132 2.12132 
C -1.55874 2.683901 -0.795609 3 0 3 
z
" style="stroke: #ffffff; stroke-width: 0.75"/>
    </defs>
    <g clip-path="url(#pfaaf8cdc46)">
     <use xlink:href="#m812f3c7eab" x="95.773011" y="290.708352" style="fill: #007bff; stroke: #ffffff; stroke-width: 0.75"/>
     <use xlink:href="#m812f3c7eab" x="100.896978" y="293.244373" style="fill: #007bff; stroke: #ffffff; stroke-width: 0.75"/>
     <use xlink:href="#m812f3c7eab" x="106.020945" y="280.155413" style="fill: #007bff; stroke: #ffffff; stroke-width: 0.75"/>
     <use xlink:href="#m812f3c7eab" x="111.144912" y="281.215889" style="fill: #007bff; stroke: #ffffff; stroke-width: 0.75"/>
     <use xlink:href="#m812f3c7eab" x="116.268879" y="279.868341" style="fill: #007bff; stroke: #ffffff; stroke-width: 0.75"/>
     <use xlink:href="#m812f3c7eab" x="121.392846" y="292.154645" style="fill: #007bff; stroke: #ffffff; stroke-width: 0.75"/>
     <use xlink:href="#m812f3c7eab" x="126.516813" y="294.766386" style="fill: #007bff; stroke: #ffffff; stroke-width: 0.75"/>
     <use xlink:href="#m812f3c7eab" x="131.64078" y="294.927833" style="fill: #007bff; stroke: #ffffff; stroke-width: 0.75"/>
     <use xlink:href="#m812f3c7eab" x="136.764747" y="287.114301" style="fill: #007bff; stroke: #ffffff; stroke-width: 0.75"/>
     <use xlink:href="#m812f3c7eab" x="141.888714" y="290.515971" style="fill: #007bff; stroke: #ffffff; stroke-width: 0.75"/>
     <use xlink:href="#m812f3c7eab" x="147.012681" y="290.32661" style="fill: #007bff; stroke: #ffffff; stroke-width: 0.75"/>
     <use xlink:href="#m812f3c7eab" x="152.136648" y="290.391507" style="fill: #007bff; stroke: #ffffff; stroke-width: 0.75"/>
     <use xlink:href="#m812f3c7eab" x="157.260615" y="280.987871" style="fill: #007bff; stroke: #ffffff; stroke-width: 0.75"/>
     <use xlink:href="#m812f3c7eab" x="162.384582" y="295.351383" style="fill: #007bff; stroke: #ffffff; stroke-width: 0.75"/>
     <use xlink:href="#m812f3c7eab" x="167.508549" y="268.420603" style="fill: #007bff; stroke: #ffffff; stroke-width: 0.75"/>
     <use xlink:href="#m812f3c7eab" x="172.632515" y="272.102767" style="fill: #007bff; stroke: #ffffff; stroke-width: 0.75"/>
     <use xlink:href="#m812f3c7eab" x="177.756482" y="285.393168" style="fill: #007bff; stroke: #ffffff; stroke-width: 0.75"/>
     <use xlink:href="#m812f3c7eab" x="182.880449" y="271.318736" style="fill: #007bff; stroke: #ffffff; stroke-width: 0.75"/>
     <use xlink:href="#m812f3c7eab" x="188.004416" y="296.315269" style="fill: #007bff; stroke: #ffffff; stroke-width: 0.75"/>
     <use xlink:href="#m812f3c7eab" x="193.128383" y="279.436473" style="fill: #007bff; stroke: #ffffff; stroke-width: 0.75"/>
     <use xlink:href="#m812f3c7eab" x="198.25235" y="297.618521" style="fill: #007bff; stroke: #ffffff; stroke-width: 0.75"/>
     <use xlink:href="#m812f3c7eab" x="203.376317" y="215.26718" style="fill: #007bff; stroke: #ffffff; stroke-width: 0.75"/>
     <use xlink:href="#m812f3c7eab" x="208.500284" y="283.439373" style="fill: #007bff; stroke: #ffffff; stroke-width: 0.75"/>
     <use xlink:href="#m812f3c7eab" x="213.624251" y="296.167163" style="fill: #007bff; stroke: #ffffff; stroke-width: 0.75"/>
     <use xlink:href="#m812f3c7eab" x="218.748218" y="293.470103" style="fill: #007bff; stroke: #ffffff; stroke-width: 0.75"/>
     <use xlink:href="#m812f3c7eab" x="223.872185" y="296.252888" style="fill: #007bff; stroke: #ffffff; stroke-width: 0.75"/>
     <use xlink:href="#m812f3c7eab" x="228.996152" y="286.346806" style="fill: #007bff; stroke: #ffffff; stroke-width: 0.75"/>
     <use xlink:href="#m812f3c7eab" x="234.120119" y="253.600835" style="fill: #007bff; stroke: #ffffff; stroke-width: 0.75"/>
     <use xlink:href="#m812f3c7eab" x="239.244086" y="287.978995" style="fill: #007bff; stroke: #ffffff; stroke-width: 0.75"/>
     <use xlink:href="#m812f3c7eab" x="244.368053" y="272.066083" style="fill: #007bff; stroke: #ffffff; stroke-width: 0.75"/>
     <use xlink:href="#m812f3c7eab" x="249.49202" y="293.761323" style="fill: #007bff; stroke: #ffffff; stroke-width: 0.75"/>
     <use xlink:href="#m812f3c7eab" x="254.615987" y="292.885958" style="fill: #007bff; stroke: #ffffff; stroke-width: 0.75"/>
     <use xlink:href="#m812f3c7eab" x="259.739954" y="286.742927" style="fill: #007bff; stroke: #ffffff; stroke-width: 0.75"/>
     <use xlink:href="#m812f3c7eab" x="264.86392" y="288.580012" style="fill: #007bff; stroke: #ffffff; stroke-width: 0.75"/>
     <use xlink:href="#m812f3c7eab" x="269.987887" y="277.118291" style="fill: #007bff; stroke: #ffffff; stroke-width: 0.75"/>
     <use xlink:href="#m812f3c7eab" x="275.111854" y="290.890503" style="fill: #007bff; stroke: #ffffff; stroke-width: 0.75"/>
     <use xlink:href="#m812f3c7eab" x="280.235821" y="275.503936" style="fill: #007bff; stroke: #ffffff; stroke-width: 0.75"/>
     <use xlink:href="#m812f3c7eab" x="285.359788" y="294.855359" style="fill: #007bff; stroke: #ffffff; stroke-width: 0.75"/>
     <use xlink:href="#m812f3c7eab" x="290.483755" y="297.017389" style="fill: #007bff; stroke: #ffffff; stroke-width: 0.75"/>
     <use xlink:href="#m812f3c7eab" x="295.607722" y="291.510647" style="fill: #007bff; stroke: #ffffff; stroke-width: 0.75"/>
     <use xlink:href="#m812f3c7eab" x="300.731689" y="294.497697" style="fill: #007bff; stroke: #ffffff; stroke-width: 0.75"/>
     <use xlink:href="#m812f3c7eab" x="305.855656" y="288.348674" style="fill: #007bff; stroke: #ffffff; stroke-width: 0.75"/>
     <use xlink:href="#m812f3c7eab" x="310.979623" y="294.734853" style="fill: #007bff; stroke: #ffffff; stroke-width: 0.75"/>
     <use xlink:href="#m812f3c7eab" x="316.10359" y="298.236348" style="fill: #007bff; stroke: #ffffff; stroke-width: 0.75"/>
     <use xlink:href="#m812f3c7eab" x="321.227557" y="298.763394" style="fill: #007bff; stroke: #ffffff; stroke-width: 0.75"/>
     <use xlink:href="#m812f3c7eab" x="326.351524" y="293.459867" style="fill: #007bff; stroke: #ffffff; stroke-width: 0.75"/>
     <use xlink:href="#m812f3c7eab" x="331.475491" y="275.106398" style="fill: #007bff; stroke: #ffffff; stroke-width: 0.75"/>
     <use xlink:href="#m812f3c7eab" x="336.599458" y="288.885037" style="fill: #007bff; stroke: #ffffff; stroke-width: 0.75"/>
     <use xlink:href="#m812f3c7eab" x="341.723425" y="298.926107" style="fill: #007bff; stroke: #ffffff; stroke-width: 0.75"/>
     <use xlink:href="#m812f3c7eab" x="346.847392" y="297.287243" style="fill: #007bff; stroke: #ffffff; stroke-width: 0.75"/>
     <use xlink:href="#m812f3c7eab" x="351.971358" y="295.495977" style="fill: #007bff; stroke: #ffffff; stroke-width: 0.75"/>
     <use xlink:href="#m812f3c7eab" x="357.095325" y="275.416945" style="fill: #007bff; stroke: #ffffff; stroke-width: 0.75"/>
     <use xlink:href="#m812f3c7eab" x="362.219292" y="302.192231" style="fill: #007bff; stroke: #ffffff; stroke-width: 0.75"/>
     <use xlink:href="#m812f3c7eab" x="367.343259" y="299.649094" style="fill: #007bff; stroke: #ffffff; stroke-width: 0.75"/>
     <use xlink:href="#m812f3c7eab" x="372.467226" y="290.537355" style="fill: #007bff; stroke: #ffffff; stroke-width: 0.75"/>
     <use xlink:href="#m812f3c7eab" x="377.591193" y="298.915508" style="fill: #007bff; stroke: #ffffff; stroke-width: 0.75"/>
     <use xlink:href="#m812f3c7eab" x="382.71516" y="291.385305" style="fill: #007bff; stroke: #ffffff; stroke-width: 0.75"/>
     <use xlink:href="#m812f3c7eab" x="387.839127" y="299.818771" style="fill: #007bff; stroke: #ffffff; stroke-width: 0.75"/>
     <use xlink:href="#m812f3c7eab" x="392.963094" y="288.532255" style="fill: #007bff; stroke: #ffffff; stroke-width: 0.75"/>
     <use xlink:href="#m812f3c7eab" x="398.087061" y="296.294064" style="fill: #007bff; stroke: #ffffff; stroke-width: 0.75"/>
     <use xlink:href="#m812f3c7eab" x="403.211028" y="294.717243" style="fill: #007bff; stroke: #ffffff; stroke-width: 0.75"/>
     <use xlink:href="#m812f3c7eab" x="408.334995" y="292.278531" style="fill: #007bff; stroke: #ffffff; stroke-width: 0.75"/>
     <use xlink:href="#m812f3c7eab" x="413.458962" y="283.800719" style="fill: #007bff; stroke: #ffffff; stroke-width: 0.75"/>
     <use xlink:href="#m812f3c7eab" x="418.582929" y="292.739899" style="fill: #007bff; stroke: #ffffff; stroke-width: 0.75"/>
     <use xlink:href="#m812f3c7eab" x="423.706896" y="292.067555" style="fill: #007bff; stroke: #ffffff; stroke-width: 0.75"/>
     <use xlink:href="#m812f3c7eab" x="428.830863" y="284.305397" style="fill: #007bff; stroke: #ffffff; stroke-width: 0.75"/>
     <use xlink:href="#m812f3c7eab" x="433.95483" y="288.262913" style="fill: #007bff; stroke: #ffffff; stroke-width: 0.75"/>
     <use xlink:href="#m812f3c7eab" x="439.078796" y="287.910061" style="fill: #007bff; stroke: #ffffff; stroke-width: 0.75"/>
     <use xlink:href="#m812f3c7eab" x="444.202763" y="303.547653" style="fill: #007bff; stroke: #ffffff; stroke-width: 0.75"/>
     <use xlink:href="#m812f3c7eab" x="449.32673" y="297.886869" style="fill: #007bff; stroke: #ffffff; stroke-width: 0.75"/>
     <use xlink:href="#m812f3c7eab" x="454.450697" y="295.692793" style="fill: #007bff; stroke: #ffffff; stroke-width: 0.75"/>
     <use xlink:href="#m812f3c7eab" x="459.574664" y="293.931823" style="fill: #007bff; stroke: #ffffff; stroke-width: 0.75"/>
     <use xlink:href="#m812f3c7eab" x="464.698631" y="297.447267" style="fill: #007bff; stroke: #ffffff; stroke-width: 0.75"/>
     <use xlink:href="#m812f3c7eab" x="469.822598" y="283.39704" style="fill: #007bff; stroke: #ffffff; stroke-width: 0.75"/>
     <use xlink:href="#m812f3c7eab" x="474.946565" y="294.815208" style="fill: #007bff; stroke: #ffffff; stroke-width: 0.75"/>
     <use xlink:href="#m812f3c7eab" x="480.070532" y="296.049962" style="fill: #007bff; stroke: #ffffff; stroke-width: 0.75"/>
     <use xlink:href="#m812f3c7eab" x="485.194499" y="298.912107" style="fill: #007bff; stroke: #ffffff; stroke-width: 0.75"/>
     <use xlink:href="#m812f3c7eab" x="490.318466" y="294.622149" style="fill: #007bff; stroke: #ffffff; stroke-width: 0.75"/>
     <use xlink:href="#m812f3c7eab" x="495.442433" y="259.290776" style="fill: #007bff; stroke: #ffffff; stroke-width: 0.75"/>
     <use xlink:href="#m812f3c7eab" x="500.5664" y="297.899943" style="fill: #007bff; stroke: #ffffff; stroke-width: 0.75"/>
     <use xlink:href="#m812f3c7eab" x="505.690367" y="292.960507" style="fill: #007bff; stroke: #ffffff; stroke-width: 0.75"/>
     <use xlink:href="#m812f3c7eab" x="510.814334" y="288.473659" style="fill: #007bff; stroke: #ffffff; stroke-width: 0.75"/>
     <use xlink:href="#m812f3c7eab" x="515.938301" y="281.081799" style="fill: #007bff; stroke: #ffffff; stroke-width: 0.75"/>
     <use xlink:href="#m812f3c7eab" x="521.062268" y="298.110292" style="fill: #007bff; stroke: #ffffff; stroke-width: 0.75"/>
     <use xlink:href="#m812f3c7eab" x="526.186235" y="299.820053" style="fill: #007bff; stroke: #ffffff; stroke-width: 0.75"/>
     <use xlink:href="#m812f3c7eab" x="531.310201" y="290.218416" style="fill: #007bff; stroke: #ffffff; stroke-width: 0.75"/>
     <use xlink:href="#m812f3c7eab" x="536.434168" y="300.415761" style="fill: #007bff; stroke: #ffffff; stroke-width: 0.75"/>
     <use xlink:href="#m812f3c7eab" x="541.558135" y="294.821644" style="fill: #007bff; stroke: #ffffff; stroke-width: 0.75"/>
     <use xlink:href="#m812f3c7eab" x="546.682102" y="296.917883" style="fill: #007bff; stroke: #ffffff; stroke-width: 0.75"/>
     <use xlink:href="#m812f3c7eab" x="551.806069" y="298.42876" style="fill: #007bff; stroke: #ffffff; stroke-width: 0.75"/>
     <use xlink:href="#m812f3c7eab" x="556.930036" y="300.325936" style="fill: #007bff; stroke: #ffffff; stroke-width: 0.75"/>
     <use xlink:href="#m812f3c7eab" x="562.054003" y="302.221004" style="fill: #007bff; stroke: #ffffff; stroke-width: 0.75"/>
     <use xlink:href="#m812f3c7eab" x="567.17797" y="291.618458" style="fill: #007bff; stroke: #ffffff; stroke-width: 0.75"/>
     <use xlink:href="#m812f3c7eab" x="572.301937" y="263.149826" style="fill: #007bff; stroke: #ffffff; stroke-width: 0.75"/>
     <use xlink:href="#m812f3c7eab" x="577.425904" y="299.848105" style="fill: #007bff; stroke: #ffffff; stroke-width: 0.75"/>
     <use xlink:href="#m812f3c7eab" x="582.549871" y="287.532105" style="fill: #007bff; stroke: #ffffff; stroke-width: 0.75"/>
     <use xlink:href="#m812f3c7eab" x="587.673838" y="296.181741" style="fill: #007bff; stroke: #ffffff; stroke-width: 0.75"/>
     <use xlink:href="#m812f3c7eab" x="592.797805" y="294.709159" style="fill: #007bff; stroke: #ffffff; stroke-width: 0.75"/>
     <use xlink:href="#m812f3c7eab" x="597.921772" y="289.733122" style="fill: #007bff; stroke: #ffffff; stroke-width: 0.75"/>
     <use xlink:href="#m812f3c7eab" x="603.045739" y="293.563376" style="fill: #007bff; stroke: #ffffff; stroke-width: 0.75"/>
    </g>
   </g>
   <g id="line2d_41"/>
   <g id="line2d_42"/>
   <g id="patch_3">
    <path d="M 70.409375 356.78175 
L 70.409375 24.14175 
" style="fill: none; stroke: #000000; stroke-width: 0.8; stroke-linejoin: miter; stroke-linecap: square"/>
   </g>
   <g id="patch_4">
    <path d="M 628.409375 356.78175 
L 628.409375 24.14175 
" style="fill: none; stroke: #000000; stroke-width: 0.8; stroke-linejoin: miter; stroke-linecap: square"/>
   </g>
   <g id="patch_5">
    <path d="M 70.409375 356.78175 
L 628.409375 356.78175 
" style="fill: none; stroke: #000000; stroke-width: 0.8; stroke-linejoin: miter; stroke-linecap: square"/>
   </g>
   <g id="patch_6">
    <path d="M 70.409375 24.14175 
L 628.409375 24.14175 
" style="fill: none; stroke: #000000; stroke-width: 0.8; stroke-linejoin: miter; stroke-linecap: square"/>
   </g>
   <g id="text_22">
    <!-- Gesture Learning Curve  -->
    <g transform="translate(261.6695 18.14175) scale(0.144 -0.144)">
     <defs>
      <path id="DejaVuSans-47" d="M 3809 666 
L 3809 1919 
L 2778 1919 
L 2778 2438 
L 4434 2438 
L 4434 434 
Q 4069 175 3628 42 
Q 3188 -91 2688 -91 
Q 1594 -91 976 548 
Q 359 1188 359 2328 
Q 359 3472 976 4111 
Q 1594 4750 2688 4750 
Q 3144 4750 3555 4637 
Q 3966 4525 4313 4306 
L 4313 3634 
Q 3963 3931 3569 4081 
Q 3175 4231 2741 4231 
Q 1884 4231 1454 3753 
Q 1025 3275 1025 2328 
Q 1025 1384 1454 906 
Q 1884 428 2741 428 
Q 3075 428 3337 486 
Q 3600 544 3809 666 
z
" transform="scale(0.015625)"/>
      <path id="DejaVuSans-74" d="M 1172 4494 
L 1172 3500 
L 2356 3500 
L 2356 3053 
L 1172 3053 
L 1172 1153 
Q 1172 725 1289 603 
Q 1406 481 1766 481 
L 2356 481 
L 2356 0 
L 1766 0 
Q 1100 0 847 248 
Q 594 497 594 1153 
L 594 3053 
L 172 3053 
L 172 3500 
L 594 3500 
L 594 4494 
L 1172 4494 
z
" transform="scale(0.015625)"/>
      <path id="DejaVuSans-75" d="M 544 1381 
L 544 3500 
L 1119 3500 
L 1119 1403 
Q 1119 906 1312 657 
Q 1506 409 1894 409 
Q 2359 409 2629 706 
Q 2900 1003 2900 1516 
L 2900 3500 
L 3475 3500 
L 3475 0 
L 2900 0 
L 2900 538 
Q 2691 219 2414 64 
Q 2138 -91 1772 -91 
Q 1169 -91 856 284 
Q 544 659 544 1381 
z
M 1991 3584 
L 1991 3584 
z
" transform="scale(0.015625)"/>
      <path id="DejaVuSans-4c" d="M 628 4666 
L 1259 4666 
L 1259 531 
L 3531 531 
L 3531 0 
L 628 0 
L 628 4666 
z
" transform="scale(0.015625)"/>
      <path id="DejaVuSans-6e" d="M 3513 2113 
L 3513 0 
L 2938 0 
L 2938 2094 
Q 2938 2591 2744 2837 
Q 2550 3084 2163 3084 
Q 1697 3084 1428 2787 
Q 1159 2491 1159 1978 
L 1159 0 
L 581 0 
L 581 3500 
L 1159 3500 
L 1159 2956 
Q 1366 3272 1645 3428 
Q 1925 3584 2291 3584 
Q 2894 3584 3203 3211 
Q 3513 2838 3513 2113 
z
" transform="scale(0.015625)"/>
      <path id="DejaVuSans-67" d="M 2906 1791 
Q 2906 2416 2648 2759 
Q 2391 3103 1925 3103 
Q 1463 3103 1205 2759 
Q 947 2416 947 1791 
Q 947 1169 1205 825 
Q 1463 481 1925 481 
Q 2391 481 2648 825 
Q 2906 1169 2906 1791 
z
M 3481 434 
Q 3481 -459 3084 -895 
Q 2688 -1331 1869 -1331 
Q 1566 -1331 1297 -1286 
Q 1028 -1241 775 -1147 
L 775 -588 
Q 1028 -725 1275 -790 
Q 1522 -856 1778 -856 
Q 2344 -856 2625 -561 
Q 2906 -266 2906 331 
L 2906 616 
Q 2728 306 2450 153 
Q 2172 0 1784 0 
Q 1141 0 747 490 
Q 353 981 353 1791 
Q 353 2603 747 3093 
Q 1141 3584 1784 3584 
Q 2172 3584 2450 3431 
Q 2728 3278 2906 2969 
L 2906 3500 
L 3481 3500 
L 3481 434 
z
" transform="scale(0.015625)"/>
      <path id="DejaVuSans-43" d="M 4122 4306 
L 4122 3641 
Q 3803 3938 3442 4084 
Q 3081 4231 2675 4231 
Q 1875 4231 1450 3742 
Q 1025 3253 1025 2328 
Q 1025 1406 1450 917 
Q 1875 428 2675 428 
Q 3081 428 3442 575 
Q 3803 722 4122 1019 
L 4122 359 
Q 3791 134 3420 21 
Q 3050 -91 2638 -91 
Q 1578 -91 968 557 
Q 359 1206 359 2328 
Q 359 3453 968 4101 
Q 1578 4750 2638 4750 
Q 3056 4750 3426 4639 
Q 3797 4528 4122 4306 
z
" transform="scale(0.015625)"/>
      <path id="DejaVuSans-76" d="M 191 3500 
L 800 3500 
L 1894 563 
L 2988 3500 
L 3597 3500 
L 2284 0 
L 1503 0 
L 191 3500 
z
" transform="scale(0.015625)"/>
     </defs>
     <use xlink:href="#DejaVuSans-47"/>
     <use xlink:href="#DejaVuSans-65" transform="translate(77.490234 0)"/>
     <use xlink:href="#DejaVuSans-73" transform="translate(139.013672 0)"/>
     <use xlink:href="#DejaVuSans-74" transform="translate(191.113281 0)"/>
     <use xlink:href="#DejaVuSans-75" transform="translate(230.322266 0)"/>
     <use xlink:href="#DejaVuSans-72" transform="translate(293.701172 0)"/>
     <use xlink:href="#DejaVuSans-65" transform="translate(332.564453 0)"/>
     <use xlink:href="#DejaVuSans-20" transform="translate(394.087891 0)"/>
     <use xlink:href="#DejaVuSans-4c" transform="translate(425.875 0)"/>
     <use xlink:href="#DejaVuSans-65" transform="translate(479.837891 0)"/>
     <use xlink:href="#DejaVuSans-61" transform="translate(541.361328 0)"/>
     <use xlink:href="#DejaVuSans-72" transform="translate(602.640625 0)"/>
     <use xlink:href="#DejaVuSans-6e" transform="translate(642.003906 0)"/>
     <use xlink:href="#DejaVuSans-69" transform="translate(705.382812 0)"/>
     <use xlink:href="#DejaVuSans-6e" transform="translate(733.166016 0)"/>
     <use xlink:href="#DejaVuSans-67" transform="translate(796.544922 0)"/>
     <use xlink:href="#DejaVuSans-20" transform="translate(860.021484 0)"/>
     <use xlink:href="#DejaVuSans-43" transform="translate(891.808594 0)"/>
     <use xlink:href="#DejaVuSans-75" transform="translate(961.632812 0)"/>
     <use xlink:href="#DejaVuSans-72" transform="translate(1025.011719 0)"/>
     <use xlink:href="#DejaVuSans-76" transform="translate(1066.125 0)"/>
     <use xlink:href="#DejaVuSans-65" transform="translate(1125.304688 0)"/>
     <use xlink:href="#DejaVuSans-20" transform="translate(1186.828125 0)"/>
    </g>
   </g>
   <g id="legend_1">
    <g id="patch_7">
     <path d="M 522.588125 86.583 
L 620.009375 86.583 
Q 622.409375 86.583 622.409375 84.183 
L 622.409375 32.54175 
Q 622.409375 30.14175 620.009375 30.14175 
L 522.588125 30.14175 
Q 520.188125 30.14175 520.188125 32.54175 
L 520.188125 84.183 
Q 520.188125 86.583 522.588125 86.583 
z
" style="fill: #ffffff; opacity: 0.8; stroke: #cccccc; stroke-linejoin: miter"/>
    </g>
    <g id="text_23">
     <!-- Condition -->
     <g transform="translate(542.666562 44.059875) scale(0.12 -0.12)">
      <defs>
       <path id="DejaVuSans-6f" d="M 1959 3097 
Q 1497 3097 1228 2736 
Q 959 2375 959 1747 
Q 959 1119 1226 758 
Q 1494 397 1959 397 
Q 2419 397 2687 759 
Q 2956 1122 2956 1747 
Q 2956 2369 2687 2733 
Q 2419 3097 1959 3097 
z
M 1959 3584 
Q 2709 3584 3137 3096 
Q 3566 2609 3566 1747 
Q 3566 888 3137 398 
Q 2709 -91 1959 -91 
Q 1206 -91 779 398 
Q 353 888 353 1747 
Q 353 2609 779 3096 
Q 1206 3584 1959 3584 
z
" transform="scale(0.015625)"/>
       <path id="DejaVuSans-64" d="M 2906 2969 
L 2906 4863 
L 3481 4863 
L 3481 0 
L 2906 0 
L 2906 525 
Q 2725 213 2448 61 
Q 2172 -91 1784 -91 
Q 1150 -91 751 415 
Q 353 922 353 1747 
Q 353 2572 751 3078 
Q 1150 3584 1784 3584 
Q 2172 3584 2448 3432 
Q 2725 3281 2906 2969 
z
M 947 1747 
Q 947 1113 1208 752 
Q 1469 391 1925 391 
Q 2381 391 2643 752 
Q 2906 1113 2906 1747 
Q 2906 2381 2643 2742 
Q 2381 3103 1925 3103 
Q 1469 3103 1208 2742 
Q 947 2381 947 1747 
z
" transform="scale(0.015625)"/>
      </defs>
      <use xlink:href="#DejaVuSans-43"/>
      <use xlink:href="#DejaVuSans-6f" transform="translate(69.824219 0)"/>
      <use xlink:href="#DejaVuSans-6e" transform="translate(131.005859 0)"/>
      <use xlink:href="#DejaVuSans-64" transform="translate(194.384766 0)"/>
      <use xlink:href="#DejaVuSans-69" transform="translate(257.861328 0)"/>
      <use xlink:href="#DejaVuSans-74" transform="translate(285.644531 0)"/>
      <use xlink:href="#DejaVuSans-69" transform="translate(324.853516 0)"/>
      <use xlink:href="#DejaVuSans-6f" transform="translate(352.636719 0)"/>
      <use xlink:href="#DejaVuSans-6e" transform="translate(413.818359 0)"/>
     </g>
    </g>
    <g id="line2d_43">
     <path d="M 524.988125 57.473625 
L 536.988125 57.473625 
L 548.988125 57.473625 
" style="fill: none; stroke: #35dc67; stroke-width: 1.5; stroke-linecap: square"/>
     <g>
      <use xlink:href="#mb677b6eadc" x="536.988125" y="57.473625" style="fill: #35dc67; stroke: #ffffff; stroke-width: 0.75"/>
     </g>
    </g>
    <g id="text_24">
     <!-- Proposed -->
     <g transform="translate(558.588125 61.673625) scale(0.12 -0.12)">
      <defs>
       <path id="DejaVuSans-50" d="M 1259 4147 
L 1259 2394 
L 2053 2394 
Q 2494 2394 2734 2622 
Q 2975 2850 2975 3272 
Q 2975 3691 2734 3919 
Q 2494 4147 2053 4147 
L 1259 4147 
z
M 628 4666 
L 2053 4666 
Q 2838 4666 3239 4311 
Q 3641 3956 3641 3272 
Q 3641 2581 3239 2228 
Q 2838 1875 2053 1875 
L 1259 1875 
L 1259 0 
L 628 0 
L 628 4666 
z
" transform="scale(0.015625)"/>
       <path id="DejaVuSans-70" d="M 1159 525 
L 1159 -1331 
L 581 -1331 
L 581 3500 
L 1159 3500 
L 1159 2969 
Q 1341 3281 1617 3432 
Q 1894 3584 2278 3584 
Q 2916 3584 3314 3078 
Q 3713 2572 3713 1747 
Q 3713 922 3314 415 
Q 2916 -91 2278 -91 
Q 1894 -91 1617 61 
Q 1341 213 1159 525 
z
M 3116 1747 
Q 3116 2381 2855 2742 
Q 2594 3103 2138 3103 
Q 1681 3103 1420 2742 
Q 1159 2381 1159 1747 
Q 1159 1113 1420 752 
Q 1681 391 2138 391 
Q 2594 391 2855 752 
Q 3116 1113 3116 1747 
z
" transform="scale(0.015625)"/>
      </defs>
      <use xlink:href="#DejaVuSans-50"/>
      <use xlink:href="#DejaVuSans-72" transform="translate(58.552734 0)"/>
      <use xlink:href="#DejaVuSans-6f" transform="translate(97.416016 0)"/>
      <use xlink:href="#DejaVuSans-70" transform="translate(158.597656 0)"/>
      <use xlink:href="#DejaVuSans-6f" transform="translate(222.074219 0)"/>
      <use xlink:href="#DejaVuSans-73" transform="translate(283.255859 0)"/>
      <use xlink:href="#DejaVuSans-65" transform="translate(335.355469 0)"/>
      <use xlink:href="#DejaVuSans-64" transform="translate(396.878906 0)"/>
     </g>
    </g>
    <g id="line2d_44">
     <path d="M 524.988125 75.087375 
L 536.988125 75.087375 
L 548.988125 75.087375 
" style="fill: none; stroke: #007bff; stroke-width: 1.5; stroke-linecap: square"/>
     <g>
      <use xlink:href="#m812f3c7eab" x="536.988125" y="75.087375" style="fill: #007bff; stroke: #ffffff; stroke-width: 0.75"/>
     </g>
    </g>
    <g id="text_25">
     <!-- Controller -->
     <g transform="translate(558.588125 79.287375) scale(0.12 -0.12)">
      <use xlink:href="#DejaVuSans-43"/>
      <use xlink:href="#DejaVuSans-6f" transform="translate(69.824219 0)"/>
      <use xlink:href="#DejaVuSans-6e" transform="translate(131.005859 0)"/>
      <use xlink:href="#DejaVuSans-74" transform="translate(194.384766 0)"/>
      <use xlink:href="#DejaVuSans-72" transform="translate(233.59375 0)"/>
      <use xlink:href="#DejaVuSans-6f" transform="translate(272.457031 0)"/>
      <use xlink:href="#DejaVuSans-6c" transform="translate(333.638672 0)"/>
      <use xlink:href="#DejaVuSans-6c" transform="translate(361.421875 0)"/>
      <use xlink:href="#DejaVuSans-65" transform="translate(389.205078 0)"/>
      <use xlink:href="#DejaVuSans-72" transform="translate(450.728516 0)"/>
     </g>
    </g>
   </g>
  </g>
 </g>
 <defs>
  <clipPath id="pfaaf8cdc46">
   <rect x="70.409375" y="24.14175" width="558" height="332.64"/>
  </clipPath>
 </defs>
</svg>
