<?xml version="1.0" encoding="utf-8" standalone="no"?>
<!DOCTYPE svg PUBLIC "-//W3C//DTD SVG 1.1//EN"
  "http://www.w3.org/Graphics/SVG/1.1/DTD/svg11.dtd">
<svg xmlns:xlink="http://www.w3.org/1999/xlink" width="610.28375pt" height="398.20925pt" viewBox="0 0 610.28375 398.20925" xmlns="http://www.w3.org/2000/svg" version="1.1">
 <metadata>
  <rdf:RDF xmlns:dc="http://purl.org/dc/elements/1.1/" xmlns:cc="http://creativecommons.org/ns#" xmlns:rdf="http://www.w3.org/1999/02/22-rdf-syntax-ns#">
   <cc:Work>
    <dc:type rdf:resource="http://purl.org/dc/dcmitype/StillImage"/>
    <dc:date>2026-01-18T13:03:02.172425</dc:date>
    <dc:format>image/svg+xml</dc:format>
    <dc:creator>
     <cc:Agent>
      <dc:title>Matplotlib v3.10.8, https://matplotlib.org/</dc:title>
     </cc:Agent>
    </dc:creator>
   </cc:Work>
  </rdf:RDF>
 </metadata>
 <defs>
  <style type="text/css">*{stroke-linejoin: round; stroke-linecap: butt}</style>
 </defs>
 <g id="figure_1">
  <g id="patch_1">
   <path d="M 0 398.20925 
L 610.28375 398.20925 
L 610.28375 0 
L 0 0 
z
" style="fill: #ffffff"/>
  </g>
  <g id="axes_1">
   <g id="patch_2">
    <path d="M 45.08375 356.78175 
L 603.08375 356.78175 
L 603.08375 24.14175 
L 45.08375 24.14175 
z
" style="fill: #ffffff"/>
   </g>
   <g id="FillBetweenPolyCollection_1">
    <defs>
     <path id="m7001be5584" d="M 70.447386 -258.479509 
L 70.447386 -109.807703 
L 97.145951 -129.343797 
L 123.844516 -137.824302 
L 150.54308 -137.752635 
L 177.241645 -140.03777 
L 203.940209 -127.341294 
L 230.638774 -137.170331 
L 257.337339 -106.537986 
L 284.035903 -132.954534 
L 310.734468 -109.582786 
L 337.433032 -103.974408 
L 364.131597 -127.073355 
L 390.830161 -100.024295 
L 417.528726 -140.396161 
L 444.227291 -122.3861 
L 470.925855 -100.268184 
L 497.62442 -56.5475 
L 524.322984 -135.346554 
L 551.021549 -137.85117 
L 577.720114 -123.993972 
L 577.720114 -309.038572 
L 577.720114 -309.038572 
L 551.021549 -290.318912 
L 524.322984 -300.903568 
L 497.62442 -358.77245 
L 470.925855 -358.9475 
L 444.227291 -278.51198 
L 417.528726 -242.069572 
L 390.830161 -310.671647 
L 364.131597 -229.981467 
L 337.433032 -312.361661 
L 310.734468 -276.193809 
L 284.035903 -315.733724 
L 257.337339 -309.455923 
L 230.638774 -265.381525 
L 203.940209 -283.463236 
L 177.241645 -259.737178 
L 150.54308 -249.449724 
L 123.844516 -292.765696 
L 97.145951 -218.73322 
L 70.447386 -258.479509 
z
" style="stroke: #333333; stroke-opacity: 0.2"/>
    </defs>
    <g clip-path="url(#p5fd02acf7b)">
     <use xlink:href="#m7001be5584" x="0" y="398.20925" style="fill: #333333; fill-opacity: 0.2; stroke: #333333; stroke-opacity: 0.2"/>
    </g>
   </g>
   <g id="FillBetweenPolyCollection_2">
    <defs>
     <path id="mad46b2966f" d="M 70.447386 -184.391798 
L 70.447386 -106.560797 
L 97.145951 -127.184275 
L 123.844516 -114.792824 
L 150.54308 -141.903582 
L 177.241645 -129.91942 
L 203.940209 -114.330511 
L 230.638774 -125.923546 
L 257.337339 -115.352975 
L 284.035903 -122.567414 
L 310.734468 -129.488348 
L 337.433032 -140.877245 
L 364.131597 -104.59892 
L 390.830161 -139.47991 
L 417.528726 -124.323107 
L 444.227291 -155.018264 
L 470.925855 -131.73276 
L 497.62442 -119.006675 
L 524.322984 -113.879264 
L 551.021549 -147.55431 
L 577.720114 -102.307449 
L 577.720114 -221.671639 
L 577.720114 -221.671639 
L 551.021549 -214.861293 
L 524.322984 -166.276929 
L 497.62442 -257.899792 
L 470.925855 -266.783156 
L 444.227291 -221.728397 
L 417.528726 -243.335423 
L 390.830161 -341.410092 
L 364.131597 -220.856756 
L 337.433032 -265.844797 
L 310.734468 -305.164431 
L 284.035903 -254.685653 
L 257.337339 -232.647103 
L 230.638774 -245.458704 
L 203.940209 -165.696878 
L 177.241645 -194.846714 
L 150.54308 -223.157627 
L 123.844516 -201.645361 
L 97.145951 -220.560761 
L 70.447386 -184.391798 
z
" style="stroke: #35dc67; stroke-opacity: 0.2"/>
    </defs>
    <g clip-path="url(#p5fd02acf7b)">
     <use xlink:href="#mad46b2966f" x="0" y="398.20925" style="fill: #35dc67; fill-opacity: 0.2; stroke: #35dc67; stroke-opacity: 0.2"/>
    </g>
   </g>
   <g id="FillBetweenPolyCollection_3">
    <defs>
     <path id="mf97e99b1b8" d="M 70.447386 -162.010369 
L 70.447386 -128.773409 
L 97.145951 -126.452421 
L 123.844516 -136.972615 
L 150.54308 -121.381249 
L 177.241645 -122.286965 
L 203.940209 -133.238224 
L 230.638774 -137.088049 
L 257.337339 -129.053956 
L 284.035903 -119.502756 
L 310.734468 -122.11475 
L 337.433032 -112.983 
L 364.131597 -115.635332 
L 390.830161 -134.265046 
L 417.528726 -140.539736 
L 444.227291 -148.684237 
L 470.925855 -125.582439 
L 497.62442 -142.822438 
L 524.322984 -142.521669 
L 551.021549 -136.799394 
L 577.720114 -142.338001 
L 577.720114 -165.302423 
L 577.720114 -165.302423 
L 551.021549 -178.276097 
L 524.322984 -165.266525 
L 497.62442 -167.026614 
L 470.925855 -144.445917 
L 444.227291 -185.031432 
L 417.528726 -222.839106 
L 390.830161 -181.604335 
L 364.131597 -176.611158 
L 337.433032 -196.440559 
L 310.734468 -167.089442 
L 284.035903 -175.530509 
L 257.337339 -167.511438 
L 230.638774 -148.346497 
L 203.940209 -166.719029 
L 177.241645 -146.10042 
L 150.54308 -168.954426 
L 123.844516 -181.640028 
L 97.145951 -145.838677 
L 70.447386 -162.010369 
z
" style="stroke: #007bff; stroke-opacity: 0.2"/>
    </defs>
    <g clip-path="url(#p5fd02acf7b)">
     <use xlink:href="#mf97e99b1b8" x="0" y="398.20925" style="fill: #007bff; fill-opacity: 0.2; stroke: #007bff; stroke-opacity: 0.2"/>
    </g>
   </g>
   <g id="matplotlib.axis_1">
    <g id="xtick_1">
     <g id="line2d_1">
      <path d="M 110.495233 356.78175 
L 110.495233 24.14175 
" clip-path="url(#p5fd02acf7b)" style="fill: none; stroke-dasharray: 2.96,1.28; stroke-dashoffset: 0; stroke: #b0b0b0; stroke-opacity: 0.5; stroke-width: 0.8"/>
     </g>
     <g id="line2d_2">
      <defs>
       <path id="m1d9236ba40" d="M 0 0 
L 0 3.5 
" style="stroke: #000000; stroke-width: 0.8"/>
      </defs>
      <g>
       <use xlink:href="#m1d9236ba40" x="110.495233" y="356.78175" style="stroke: #000000; stroke-width: 0.8"/>
      </g>
     </g>
     <g id="text_1">
      <!-- 2.5 -->
      <g transform="translate(100.953358 372.899875) scale(0.12 -0.12)">
       <defs>
        <path id="DejaVuSans-32" d="M 1228 531 
L 3431 531 
L 3431 0 
L 469 0 
L 469 531 
Q 828 903 1448 1529 
Q 2069 2156 2228 2338 
Q 2531 2678 2651 2914 
Q 2772 3150 2772 3378 
Q 2772 3750 2511 3984 
Q 2250 4219 1831 4219 
Q 1534 4219 1204 4116 
Q 875 4013 500 3803 
L 500 4441 
Q 881 4594 1212 4672 
Q 1544 4750 1819 4750 
Q 2544 4750 2975 4387 
Q 3406 4025 3406 3419 
Q 3406 3131 3298 2873 
Q 3191 2616 2906 2266 
Q 2828 2175 2409 1742 
Q 1991 1309 1228 531 
z
" transform="scale(0.015625)"/>
        <path id="DejaVuSans-2e" d="M 684 794 
L 1344 794 
L 1344 0 
L 684 0 
L 684 794 
z
" transform="scale(0.015625)"/>
        <path id="DejaVuSans-35" d="M 691 4666 
L 3169 4666 
L 3169 4134 
L 1269 4134 
L 1269 2991 
Q 1406 3038 1543 3061 
Q 1681 3084 1819 3084 
Q 2600 3084 3056 2656 
Q 3513 2228 3513 1497 
Q 3513 744 3044 326 
Q 2575 -91 1722 -91 
Q 1428 -91 1123 -41 
Q 819 9 494 109 
L 494 744 
Q 775 591 1075 516 
Q 1375 441 1709 441 
Q 2250 441 2565 725 
Q 2881 1009 2881 1497 
Q 2881 1984 2565 2268 
Q 2250 2553 1709 2553 
Q 1456 2553 1204 2497 
Q 953 2441 691 2322 
L 691 4666 
z
" transform="scale(0.015625)"/>
       </defs>
       <use xlink:href="#DejaVuSans-32"/>
       <use xlink:href="#DejaVuSans-2e" transform="translate(63.623047 0)"/>
       <use xlink:href="#DejaVuSans-35" transform="translate(95.410156 0)"/>
      </g>
     </g>
    </g>
    <g id="xtick_2">
     <g id="line2d_3">
      <path d="M 177.241645 356.78175 
L 177.241645 24.14175 
" clip-path="url(#p5fd02acf7b)" style="fill: none; stroke-dasharray: 2.96,1.28; stroke-dashoffset: 0; stroke: #b0b0b0; stroke-opacity: 0.5; stroke-width: 0.8"/>
     </g>
     <g id="line2d_4">
      <g>
       <use xlink:href="#m1d9236ba40" x="177.241645" y="356.78175" style="stroke: #000000; stroke-width: 0.8"/>
      </g>
     </g>
     <g id="text_2">
      <!-- 5.0 -->
      <g transform="translate(167.69977 372.899875) scale(0.12 -0.12)">
       <defs>
        <path id="DejaVuSans-30" d="M 2034 4250 
Q 1547 4250 1301 3770 
Q 1056 3291 1056 2328 
Q 1056 1369 1301 889 
Q 1547 409 2034 409 
Q 2525 409 2770 889 
Q 3016 1369 3016 2328 
Q 3016 3291 2770 3770 
Q 2525 4250 2034 4250 
z
M 2034 4750 
Q 2819 4750 3233 4129 
Q 3647 3509 3647 2328 
Q 3647 1150 3233 529 
Q 2819 -91 2034 -91 
Q 1250 -91 836 529 
Q 422 1150 422 2328 
Q 422 3509 836 4129 
Q 1250 4750 2034 4750 
z
" transform="scale(0.015625)"/>
       </defs>
       <use xlink:href="#DejaVuSans-35"/>
       <use xlink:href="#DejaVuSans-2e" transform="translate(63.623047 0)"/>
       <use xlink:href="#DejaVuSans-30" transform="translate(95.410156 0)"/>
      </g>
     </g>
    </g>
    <g id="xtick_3">
     <g id="line2d_5">
      <path d="M 243.988056 356.78175 
L 243.988056 24.14175 
" clip-path="url(#p5fd02acf7b)" style="fill: none; stroke-dasharray: 2.96,1.28; stroke-dashoffset: 0; stroke: #b0b0b0; stroke-opacity: 0.5; stroke-width: 0.8"/>
     </g>
     <g id="line2d_6">
      <g>
       <use xlink:href="#m1d9236ba40" x="243.988056" y="356.78175" style="stroke: #000000; stroke-width: 0.8"/>
      </g>
     </g>
     <g id="text_3">
      <!-- 7.5 -->
      <g transform="translate(234.446181 372.899875) scale(0.12 -0.12)">
       <defs>
        <path id="DejaVuSans-37" d="M 525 4666 
L 3525 4666 
L 3525 4397 
L 1831 0 
L 1172 0 
L 2766 4134 
L 525 4134 
L 525 4666 
z
" transform="scale(0.015625)"/>
       </defs>
       <use xlink:href="#DejaVuSans-37"/>
       <use xlink:href="#DejaVuSans-2e" transform="translate(63.623047 0)"/>
       <use xlink:href="#DejaVuSans-35" transform="translate(95.410156 0)"/>
      </g>
     </g>
    </g>
    <g id="xtick_4">
     <g id="line2d_7">
      <path d="M 310.734468 356.78175 
L 310.734468 24.14175 
" clip-path="url(#p5fd02acf7b)" style="fill: none; stroke-dasharray: 2.96,1.28; stroke-dashoffset: 0; stroke: #b0b0b0; stroke-opacity: 0.5; stroke-width: 0.8"/>
     </g>
     <g id="line2d_8">
      <g>
       <use xlink:href="#m1d9236ba40" x="310.734468" y="356.78175" style="stroke: #000000; stroke-width: 0.8"/>
      </g>
     </g>
     <g id="text_4">
      <!-- 10.0 -->
      <g transform="translate(297.375093 372.899875) scale(0.12 -0.12)">
       <defs>
        <path id="DejaVuSans-31" d="M 794 531 
L 1825 531 
L 1825 4091 
L 703 3866 
L 703 4441 
L 1819 4666 
L 2450 4666 
L 2450 531 
L 3481 531 
L 3481 0 
L 794 0 
L 794 531 
z
" transform="scale(0.015625)"/>
       </defs>
       <use xlink:href="#DejaVuSans-31"/>
       <use xlink:href="#DejaVuSans-30" transform="translate(63.623047 0)"/>
       <use xlink:href="#DejaVuSans-2e" transform="translate(127.246094 0)"/>
       <use xlink:href="#DejaVuSans-30" transform="translate(159.033203 0)"/>
      </g>
     </g>
    </g>
    <g id="xtick_5">
     <g id="line2d_9">
      <path d="M 377.480879 356.78175 
L 377.480879 24.14175 
" clip-path="url(#p5fd02acf7b)" style="fill: none; stroke-dasharray: 2.96,1.28; stroke-dashoffset: 0; stroke: #b0b0b0; stroke-opacity: 0.5; stroke-width: 0.8"/>
     </g>
     <g id="line2d_10">
      <g>
       <use xlink:href="#m1d9236ba40" x="377.480879" y="356.78175" style="stroke: #000000; stroke-width: 0.8"/>
      </g>
     </g>
     <g id="text_5">
      <!-- 12.5 -->
      <g transform="translate(364.121504 372.899875) scale(0.12 -0.12)">
       <use xlink:href="#DejaVuSans-31"/>
       <use xlink:href="#DejaVuSans-32" transform="translate(63.623047 0)"/>
       <use xlink:href="#DejaVuSans-2e" transform="translate(127.246094 0)"/>
       <use xlink:href="#DejaVuSans-35" transform="translate(159.033203 0)"/>
      </g>
     </g>
    </g>
    <g id="xtick_6">
     <g id="line2d_11">
      <path d="M 444.227291 356.78175 
L 444.227291 24.14175 
" clip-path="url(#p5fd02acf7b)" style="fill: none; stroke-dasharray: 2.96,1.28; stroke-dashoffset: 0; stroke: #b0b0b0; stroke-opacity: 0.5; stroke-width: 0.8"/>
     </g>
     <g id="line2d_12">
      <g>
       <use xlink:href="#m1d9236ba40" x="444.227291" y="356.78175" style="stroke: #000000; stroke-width: 0.8"/>
      </g>
     </g>
     <g id="text_6">
      <!-- 15.0 -->
      <g transform="translate(430.867916 372.899875) scale(0.12 -0.12)">
       <use xlink:href="#DejaVuSans-31"/>
       <use xlink:href="#DejaVuSans-35" transform="translate(63.623047 0)"/>
       <use xlink:href="#DejaVuSans-2e" transform="translate(127.246094 0)"/>
       <use xlink:href="#DejaVuSans-30" transform="translate(159.033203 0)"/>
      </g>
     </g>
    </g>
    <g id="xtick_7">
     <g id="line2d_13">
      <path d="M 510.973702 356.78175 
L 510.973702 24.14175 
" clip-path="url(#p5fd02acf7b)" style="fill: none; stroke-dasharray: 2.96,1.28; stroke-dashoffset: 0; stroke: #b0b0b0; stroke-opacity: 0.5; stroke-width: 0.8"/>
     </g>
     <g id="line2d_14">
      <g>
       <use xlink:href="#m1d9236ba40" x="510.973702" y="356.78175" style="stroke: #000000; stroke-width: 0.8"/>
      </g>
     </g>
     <g id="text_7">
      <!-- 17.5 -->
      <g transform="translate(497.614327 372.899875) scale(0.12 -0.12)">
       <use xlink:href="#DejaVuSans-31"/>
       <use xlink:href="#DejaVuSans-37" transform="translate(63.623047 0)"/>
       <use xlink:href="#DejaVuSans-2e" transform="translate(127.246094 0)"/>
       <use xlink:href="#DejaVuSans-35" transform="translate(159.033203 0)"/>
      </g>
     </g>
    </g>
    <g id="xtick_8">
     <g id="line2d_15">
      <path d="M 577.720114 356.78175 
L 577.720114 24.14175 
" clip-path="url(#p5fd02acf7b)" style="fill: none; stroke-dasharray: 2.96,1.28; stroke-dashoffset: 0; stroke: #b0b0b0; stroke-opacity: 0.5; stroke-width: 0.8"/>
     </g>
     <g id="line2d_16">
      <g>
       <use xlink:href="#m1d9236ba40" x="577.720114" y="356.78175" style="stroke: #000000; stroke-width: 0.8"/>
      </g>
     </g>
     <g id="text_8">
      <!-- 20.0 -->
      <g transform="translate(564.360739 372.899875) scale(0.12 -0.12)">
       <use xlink:href="#DejaVuSans-32"/>
       <use xlink:href="#DejaVuSans-30" transform="translate(63.623047 0)"/>
       <use xlink:href="#DejaVuSans-2e" transform="translate(127.246094 0)"/>
       <use xlink:href="#DejaVuSans-30" transform="translate(159.033203 0)"/>
      </g>
     </g>
    </g>
    <g id="text_9">
     <!-- TrialID -->
     <g transform="translate(305.436875 388.513625) scale(0.12 -0.12)">
      <defs>
       <path id="DejaVuSans-54" d="M -19 4666 
L 3928 4666 
L 3928 4134 
L 2272 4134 
L 2272 0 
L 1638 0 
L 1638 4134 
L -19 4134 
L -19 4666 
z
" transform="scale(0.015625)"/>
       <path id="DejaVuSans-72" d="M 2631 2963 
Q 2534 3019 2420 3045 
Q 2306 3072 2169 3072 
Q 1681 3072 1420 2755 
Q 1159 2438 1159 1844 
L 1159 0 
L 581 0 
L 581 3500 
L 1159 3500 
L 1159 2956 
Q 1341 3275 1631 3429 
Q 1922 3584 2338 3584 
Q 2397 3584 2469 3576 
Q 2541 3569 2628 3553 
L 2631 2963 
z
" transform="scale(0.015625)"/>
       <path id="DejaVuSans-69" d="M 603 3500 
L 1178 3500 
L 1178 0 
L 603 0 
L 603 3500 
z
M 603 4863 
L 1178 4863 
L 1178 4134 
L 603 4134 
L 603 4863 
z
" transform="scale(0.015625)"/>
       <path id="DejaVuSans-61" d="M 2194 1759 
Q 1497 1759 1228 1600 
Q 959 1441 959 1056 
Q 959 750 1161 570 
Q 1363 391 1709 391 
Q 2188 391 2477 730 
Q 2766 1069 2766 1631 
L 2766 1759 
L 2194 1759 
z
M 3341 1997 
L 3341 0 
L 2766 0 
L 2766 531 
Q 2569 213 2275 61 
Q 1981 -91 1556 -91 
Q 1019 -91 701 211 
Q 384 513 384 1019 
Q 384 1609 779 1909 
Q 1175 2209 1959 2209 
L 2766 2209 
L 2766 2266 
Q 2766 2663 2505 2880 
Q 2244 3097 1772 3097 
Q 1472 3097 1187 3025 
Q 903 2953 641 2809 
L 641 3341 
Q 956 3463 1253 3523 
Q 1550 3584 1831 3584 
Q 2591 3584 2966 3190 
Q 3341 2797 3341 1997 
z
" transform="scale(0.015625)"/>
       <path id="DejaVuSans-6c" d="M 603 4863 
L 1178 4863 
L 1178 0 
L 603 0 
L 603 4863 
z
" transform="scale(0.015625)"/>
       <path id="DejaVuSans-49" d="M 628 4666 
L 1259 4666 
L 1259 0 
L 628 0 
L 628 4666 
z
" transform="scale(0.015625)"/>
       <path id="DejaVuSans-44" d="M 1259 4147 
L 1259 519 
L 2022 519 
Q 2988 519 3436 956 
Q 3884 1394 3884 2338 
Q 3884 3275 3436 3711 
Q 2988 4147 2022 4147 
L 1259 4147 
z
M 628 4666 
L 1925 4666 
Q 3281 4666 3915 4102 
Q 4550 3538 4550 2338 
Q 4550 1131 3912 565 
Q 3275 0 1925 0 
L 628 0 
L 628 4666 
z
" transform="scale(0.015625)"/>
      </defs>
      <use xlink:href="#DejaVuSans-54"/>
      <use xlink:href="#DejaVuSans-72" transform="translate(46.333984 0)"/>
      <use xlink:href="#DejaVuSans-69" transform="translate(87.447266 0)"/>
      <use xlink:href="#DejaVuSans-61" transform="translate(115.230469 0)"/>
      <use xlink:href="#DejaVuSans-6c" transform="translate(176.509766 0)"/>
      <use xlink:href="#DejaVuSans-49" transform="translate(204.292969 0)"/>
      <use xlink:href="#DejaVuSans-44" transform="translate(233.785156 0)"/>
     </g>
    </g>
   </g>
   <g id="matplotlib.axis_2">
    <g id="ytick_1">
     <g id="line2d_17">
      <path d="M 45.08375 312.457819 
L 603.08375 312.457819 
" clip-path="url(#p5fd02acf7b)" style="fill: none; stroke-dasharray: 2.96,1.28; stroke-dashoffset: 0; stroke: #b0b0b0; stroke-opacity: 0.5; stroke-width: 0.8"/>
     </g>
     <g id="line2d_18">
      <defs>
       <path id="mea44688517" d="M 0 0 
L -3.5 0 
" style="stroke: #000000; stroke-width: 0.8"/>
      </defs>
      <g>
       <use xlink:href="#mea44688517" x="45.08375" y="312.457819" style="stroke: #000000; stroke-width: 0.8"/>
      </g>
     </g>
     <g id="text_10">
      <!-- 0 -->
      <g transform="translate(30.44875 317.016882) scale(0.12 -0.12)">
       <use xlink:href="#DejaVuSans-30"/>
      </g>
     </g>
    </g>
    <g id="ytick_2">
     <g id="line2d_19">
      <path d="M 45.08375 266.371571 
L 603.08375 266.371571 
" clip-path="url(#p5fd02acf7b)" style="fill: none; stroke-dasharray: 2.96,1.28; stroke-dashoffset: 0; stroke: #b0b0b0; stroke-opacity: 0.5; stroke-width: 0.8"/>
     </g>
     <g id="line2d_20">
      <g>
       <use xlink:href="#mea44688517" x="45.08375" y="266.371571" style="stroke: #000000; stroke-width: 0.8"/>
      </g>
     </g>
     <g id="text_11">
      <!-- 10 -->
      <g transform="translate(22.81375 270.930634) scale(0.12 -0.12)">
       <use xlink:href="#DejaVuSans-31"/>
       <use xlink:href="#DejaVuSans-30" transform="translate(63.623047 0)"/>
      </g>
     </g>
    </g>
    <g id="ytick_3">
     <g id="line2d_21">
      <path d="M 45.08375 220.285323 
L 603.08375 220.285323 
" clip-path="url(#p5fd02acf7b)" style="fill: none; stroke-dasharray: 2.96,1.28; stroke-dashoffset: 0; stroke: #b0b0b0; stroke-opacity: 0.5; stroke-width: 0.8"/>
     </g>
     <g id="line2d_22">
      <g>
       <use xlink:href="#mea44688517" x="45.08375" y="220.285323" style="stroke: #000000; stroke-width: 0.8"/>
      </g>
     </g>
     <g id="text_12">
      <!-- 20 -->
      <g transform="translate(22.81375 224.844386) scale(0.12 -0.12)">
       <use xlink:href="#DejaVuSans-32"/>
       <use xlink:href="#DejaVuSans-30" transform="translate(63.623047 0)"/>
      </g>
     </g>
    </g>
    <g id="ytick_4">
     <g id="line2d_23">
      <path d="M 45.08375 174.199076 
L 603.08375 174.199076 
" clip-path="url(#p5fd02acf7b)" style="fill: none; stroke-dasharray: 2.96,1.28; stroke-dashoffset: 0; stroke: #b0b0b0; stroke-opacity: 0.5; stroke-width: 0.8"/>
     </g>
     <g id="line2d_24">
      <g>
       <use xlink:href="#mea44688517" x="45.08375" y="174.199076" style="stroke: #000000; stroke-width: 0.8"/>
      </g>
     </g>
     <g id="text_13">
      <!-- 30 -->
      <g transform="translate(22.81375 178.758138) scale(0.12 -0.12)">
       <defs>
        <path id="DejaVuSans-33" d="M 2597 2516 
Q 3050 2419 3304 2112 
Q 3559 1806 3559 1356 
Q 3559 666 3084 287 
Q 2609 -91 1734 -91 
Q 1441 -91 1130 -33 
Q 819 25 488 141 
L 488 750 
Q 750 597 1062 519 
Q 1375 441 1716 441 
Q 2309 441 2620 675 
Q 2931 909 2931 1356 
Q 2931 1769 2642 2001 
Q 2353 2234 1838 2234 
L 1294 2234 
L 1294 2753 
L 1863 2753 
Q 2328 2753 2575 2939 
Q 2822 3125 2822 3475 
Q 2822 3834 2567 4026 
Q 2313 4219 1838 4219 
Q 1578 4219 1281 4162 
Q 984 4106 628 3988 
L 628 4550 
Q 988 4650 1302 4700 
Q 1616 4750 1894 4750 
Q 2613 4750 3031 4423 
Q 3450 4097 3450 3541 
Q 3450 3153 3228 2886 
Q 3006 2619 2597 2516 
z
" transform="scale(0.015625)"/>
       </defs>
       <use xlink:href="#DejaVuSans-33"/>
       <use xlink:href="#DejaVuSans-30" transform="translate(63.623047 0)"/>
      </g>
     </g>
    </g>
    <g id="ytick_5">
     <g id="line2d_25">
      <path d="M 45.08375 128.112828 
L 603.08375 128.112828 
" clip-path="url(#p5fd02acf7b)" style="fill: none; stroke-dasharray: 2.96,1.28; stroke-dashoffset: 0; stroke: #b0b0b0; stroke-opacity: 0.5; stroke-width: 0.8"/>
     </g>
     <g id="line2d_26">
      <g>
       <use xlink:href="#mea44688517" x="45.08375" y="128.112828" style="stroke: #000000; stroke-width: 0.8"/>
      </g>
     </g>
     <g id="text_14">
      <!-- 40 -->
      <g transform="translate(22.81375 132.67189) scale(0.12 -0.12)">
       <defs>
        <path id="DejaVuSans-34" d="M 2419 4116 
L 825 1625 
L 2419 1625 
L 2419 4116 
z
M 2253 4666 
L 3047 4666 
L 3047 1625 
L 3713 1625 
L 3713 1100 
L 3047 1100 
L 3047 0 
L 2419 0 
L 2419 1100 
L 313 1100 
L 313 1709 
L 2253 4666 
z
" transform="scale(0.015625)"/>
       </defs>
       <use xlink:href="#DejaVuSans-34"/>
       <use xlink:href="#DejaVuSans-30" transform="translate(63.623047 0)"/>
      </g>
     </g>
    </g>
    <g id="ytick_6">
     <g id="line2d_27">
      <path d="M 45.08375 82.02658 
L 603.08375 82.02658 
" clip-path="url(#p5fd02acf7b)" style="fill: none; stroke-dasharray: 2.96,1.28; stroke-dashoffset: 0; stroke: #b0b0b0; stroke-opacity: 0.5; stroke-width: 0.8"/>
     </g>
     <g id="line2d_28">
      <g>
       <use xlink:href="#mea44688517" x="45.08375" y="82.02658" style="stroke: #000000; stroke-width: 0.8"/>
      </g>
     </g>
     <g id="text_15">
      <!-- 50 -->
      <g transform="translate(22.81375 86.585642) scale(0.12 -0.12)">
       <use xlink:href="#DejaVuSans-35"/>
       <use xlink:href="#DejaVuSans-30" transform="translate(63.623047 0)"/>
      </g>
     </g>
    </g>
    <g id="ytick_7">
     <g id="line2d_29">
      <path d="M 45.08375 35.940332 
L 603.08375 35.940332 
" clip-path="url(#p5fd02acf7b)" style="fill: none; stroke-dasharray: 2.96,1.28; stroke-dashoffset: 0; stroke: #b0b0b0; stroke-opacity: 0.5; stroke-width: 0.8"/>
     </g>
     <g id="line2d_30">
      <g>
       <use xlink:href="#mea44688517" x="45.08375" y="35.940332" style="stroke: #000000; stroke-width: 0.8"/>
      </g>
     </g>
     <g id="text_16">
      <!-- 60 -->
      <g transform="translate(22.81375 40.499394) scale(0.12 -0.12)">
       <defs>
        <path id="DejaVuSans-36" d="M 2113 2584 
Q 1688 2584 1439 2293 
Q 1191 2003 1191 1497 
Q 1191 994 1439 701 
Q 1688 409 2113 409 
Q 2538 409 2786 701 
Q 3034 994 3034 1497 
Q 3034 2003 2786 2293 
Q 2538 2584 2113 2584 
z
M 3366 4563 
L 3366 3988 
Q 3128 4100 2886 4159 
Q 2644 4219 2406 4219 
Q 1781 4219 1451 3797 
Q 1122 3375 1075 2522 
Q 1259 2794 1537 2939 
Q 1816 3084 2150 3084 
Q 2853 3084 3261 2657 
Q 3669 2231 3669 1497 
Q 3669 778 3244 343 
Q 2819 -91 2113 -91 
Q 1303 -91 875 529 
Q 447 1150 447 2328 
Q 447 3434 972 4092 
Q 1497 4750 2381 4750 
Q 2619 4750 2861 4703 
Q 3103 4656 3366 4563 
z
" transform="scale(0.015625)"/>
       </defs>
       <use xlink:href="#DejaVuSans-36"/>
       <use xlink:href="#DejaVuSans-30" transform="translate(63.623047 0)"/>
      </g>
     </g>
    </g>
    <g id="text_17">
     <!-- WPM -->
     <g transform="translate(16.318125 205.188937) rotate(-90) scale(0.12 -0.12)">
      <defs>
       <path id="DejaVuSans-57" d="M 213 4666 
L 850 4666 
L 1831 722 
L 2809 4666 
L 3519 4666 
L 4500 722 
L 5478 4666 
L 6119 4666 
L 4947 0 
L 4153 0 
L 3169 4050 
L 2175 0 
L 1381 0 
L 213 4666 
z
" transform="scale(0.015625)"/>
       <path id="DejaVuSans-50" d="M 1259 4147 
L 1259 2394 
L 2053 2394 
Q 2494 2394 2734 2622 
Q 2975 2850 2975 3272 
Q 2975 3691 2734 3919 
Q 2494 4147 2053 4147 
L 1259 4147 
z
M 628 4666 
L 2053 4666 
Q 2838 4666 3239 4311 
Q 3641 3956 3641 3272 
Q 3641 2581 3239 2228 
Q 2838 1875 2053 1875 
L 1259 1875 
L 1259 0 
L 628 0 
L 628 4666 
z
" transform="scale(0.015625)"/>
       <path id="DejaVuSans-4d" d="M 628 4666 
L 1569 4666 
L 2759 1491 
L 3956 4666 
L 4897 4666 
L 4897 0 
L 4281 0 
L 4281 4097 
L 3078 897 
L 2444 897 
L 1241 4097 
L 1241 0 
L 628 0 
L 628 4666 
z
" transform="scale(0.015625)"/>
      </defs>
      <use xlink:href="#DejaVuSans-57"/>
      <use xlink:href="#DejaVuSans-50" transform="translate(98.876953 0)"/>
      <use xlink:href="#DejaVuSans-4d" transform="translate(159.179688 0)"/>
     </g>
    </g>
   </g>
   <g id="line2d_31">
    <path d="M 70.447386 214.065644 
L 97.145951 224.170741 
L 123.844516 182.914251 
L 150.54308 204.60807 
L 177.241645 198.321776 
L 203.940209 192.806985 
L 230.638774 196.933322 
L 257.337339 190.212296 
L 284.035903 173.865121 
L 310.734468 205.320953 
L 337.433032 190.041216 
L 364.131597 219.681839 
L 390.830161 192.861279 
L 417.528726 206.976384 
L 444.227291 197.76021 
L 470.925855 168.601408 
L 497.62442 190.549275 
L 524.322984 180.084189 
L 551.021549 184.124209 
L 577.720114 181.692978 
" clip-path="url(#p5fd02acf7b)" style="fill: none; stroke: #333333; stroke-width: 1.5; stroke-linecap: square"/>
    <defs>
     <path id="m73e1c887bc" d="M 0 3 
C 0.795609 3 1.55874 2.683901 2.12132 2.12132 
C 2.683901 1.55874 3 0.795609 3 0 
C 3 -0.795609 2.683901 -1.55874 2.12132 -2.12132 
C 1.55874 -2.683901 0.795609 -3 0 -3 
C -0.795609 -3 -1.55874 -2.683901 -2.12132 -2.12132 
C -2.683901 -1.55874 -3 -0.795609 -3 0 
C -3 0.795609 -2.683901 1.55874 -2.12132 2.12132 
C -1.55874 2.683901 -0.795609 3 0 3 
z
" style="stroke: #ffffff; stroke-width: 0.75"/>
    </defs>
    <g clip-path="url(#p5fd02acf7b)">
     <use xlink:href="#m73e1c887bc" x="70.447386" y="214.065644" style="fill: #333333; stroke: #ffffff; stroke-width: 0.75"/>
     <use xlink:href="#m73e1c887bc" x="97.145951" y="224.170741" style="fill: #333333; stroke: #ffffff; stroke-width: 0.75"/>
     <use xlink:href="#m73e1c887bc" x="123.844516" y="182.914251" style="fill: #333333; stroke: #ffffff; stroke-width: 0.75"/>
     <use xlink:href="#m73e1c887bc" x="150.54308" y="204.60807" style="fill: #333333; stroke: #ffffff; stroke-width: 0.75"/>
     <use xlink:href="#m73e1c887bc" x="177.241645" y="198.321776" style="fill: #333333; stroke: #ffffff; stroke-width: 0.75"/>
     <use xlink:href="#m73e1c887bc" x="203.940209" y="192.806985" style="fill: #333333; stroke: #ffffff; stroke-width: 0.75"/>
     <use xlink:href="#m73e1c887bc" x="230.638774" y="196.933322" style="fill: #333333; stroke: #ffffff; stroke-width: 0.75"/>
     <use xlink:href="#m73e1c887bc" x="257.337339" y="190.212296" style="fill: #333333; stroke: #ffffff; stroke-width: 0.75"/>
     <use xlink:href="#m73e1c887bc" x="284.035903" y="173.865121" style="fill: #333333; stroke: #ffffff; stroke-width: 0.75"/>
     <use xlink:href="#m73e1c887bc" x="310.734468" y="205.320953" style="fill: #333333; stroke: #ffffff; stroke-width: 0.75"/>
     <use xlink:href="#m73e1c887bc" x="337.433032" y="190.041216" style="fill: #333333; stroke: #ffffff; stroke-width: 0.75"/>
     <use xlink:href="#m73e1c887bc" x="364.131597" y="219.681839" style="fill: #333333; stroke: #ffffff; stroke-width: 0.75"/>
     <use xlink:href="#m73e1c887bc" x="390.830161" y="192.861279" style="fill: #333333; stroke: #ffffff; stroke-width: 0.75"/>
     <use xlink:href="#m73e1c887bc" x="417.528726" y="206.976384" style="fill: #333333; stroke: #ffffff; stroke-width: 0.75"/>
     <use xlink:href="#m73e1c887bc" x="444.227291" y="197.76021" style="fill: #333333; stroke: #ffffff; stroke-width: 0.75"/>
     <use xlink:href="#m73e1c887bc" x="470.925855" y="168.601408" style="fill: #333333; stroke: #ffffff; stroke-width: 0.75"/>
     <use xlink:href="#m73e1c887bc" x="497.62442" y="190.549275" style="fill: #333333; stroke: #ffffff; stroke-width: 0.75"/>
     <use xlink:href="#m73e1c887bc" x="524.322984" y="180.084189" style="fill: #333333; stroke: #ffffff; stroke-width: 0.75"/>
     <use xlink:href="#m73e1c887bc" x="551.021549" y="184.124209" style="fill: #333333; stroke: #ffffff; stroke-width: 0.75"/>
     <use xlink:href="#m73e1c887bc" x="577.720114" y="181.692978" style="fill: #333333; stroke: #ffffff; stroke-width: 0.75"/>
    </g>
   </g>
   <g id="line2d_32">
    <path d="M 70.447386 252.732953 
L 97.145951 224.336732 
L 123.844516 239.990157 
L 150.54308 215.678645 
L 177.241645 235.826183 
L 203.940209 258.195556 
L 230.638774 212.518125 
L 257.337339 224.209211 
L 284.035903 209.582717 
L 310.734468 180.88286 
L 337.433032 194.848229 
L 364.131597 235.481412 
L 390.830161 157.764249 
L 417.528726 214.379985 
L 444.227291 209.83592 
L 470.925855 198.951292 
L 497.62442 209.756016 
L 524.322984 258.131153 
L 551.021549 217.001448 
L 577.720114 236.219706 
" clip-path="url(#p5fd02acf7b)" style="fill: none; stroke: #35dc67; stroke-width: 1.5; stroke-linecap: square"/>
    <defs>
     <path id="m55993cd7da" d="M 0 3 
C 0.795609 3 1.55874 2.683901 2.12132 2.12132 
C 2.683901 1.55874 3 0.795609 3 0 
C 3 -0.795609 2.683901 -1.55874 2.12132 -2.12132 
C 1.55874 -2.683901 0.795609 -3 0 -3 
C -0.795609 -3 -1.55874 -2.683901 -2.12132 -2.12132 
C -2.683901 -1.55874 -3 -0.795609 -3 0 
C -3 0.795609 -2.683901 1.55874 -2.12132 2.12132 
C -1.55874 2.683901 -0.795609 3 0 3 
z
" style="stroke: #ffffff; stroke-width: 0.75"/>
    </defs>
    <g clip-path="url(#p5fd02acf7b)">
     <use xlink:href="#m55993cd7da" x="70.447386" y="252.732953" style="fill: #35dc67; stroke: #ffffff; stroke-width: 0.75"/>
     <use xlink:href="#m55993cd7da" x="97.145951" y="224.336732" style="fill: #35dc67; stroke: #ffffff; stroke-width: 0.75"/>
     <use xlink:href="#m55993cd7da" x="123.844516" y="239.990157" style="fill: #35dc67; stroke: #ffffff; stroke-width: 0.75"/>
     <use xlink:href="#m55993cd7da" x="150.54308" y="215.678645" style="fill: #35dc67; stroke: #ffffff; stroke-width: 0.75"/>
     <use xlink:href="#m55993cd7da" x="177.241645" y="235.826183" style="fill: #35dc67; stroke: #ffffff; stroke-width: 0.75"/>
     <use xlink:href="#m55993cd7da" x="203.940209" y="258.195556" style="fill: #35dc67; stroke: #ffffff; stroke-width: 0.75"/>
     <use xlink:href="#m55993cd7da" x="230.638774" y="212.518125" style="fill: #35dc67; stroke: #ffffff; stroke-width: 0.75"/>
     <use xlink:href="#m55993cd7da" x="257.337339" y="224.209211" style="fill: #35dc67; stroke: #ffffff; stroke-width: 0.75"/>
     <use xlink:href="#m55993cd7da" x="284.035903" y="209.582717" style="fill: #35dc67; stroke: #ffffff; stroke-width: 0.75"/>
     <use xlink:href="#m55993cd7da" x="310.734468" y="180.88286" style="fill: #35dc67; stroke: #ffffff; stroke-width: 0.75"/>
     <use xlink:href="#m55993cd7da" x="337.433032" y="194.848229" style="fill: #35dc67; stroke: #ffffff; stroke-width: 0.75"/>
     <use xlink:href="#m55993cd7da" x="364.131597" y="235.481412" style="fill: #35dc67; stroke: #ffffff; stroke-width: 0.75"/>
     <use xlink:href="#m55993cd7da" x="390.830161" y="157.764249" style="fill: #35dc67; stroke: #ffffff; stroke-width: 0.75"/>
     <use xlink:href="#m55993cd7da" x="417.528726" y="214.379985" style="fill: #35dc67; stroke: #ffffff; stroke-width: 0.75"/>
     <use xlink:href="#m55993cd7da" x="444.227291" y="209.83592" style="fill: #35dc67; stroke: #ffffff; stroke-width: 0.75"/>
     <use xlink:href="#m55993cd7da" x="470.925855" y="198.951292" style="fill: #35dc67; stroke: #ffffff; stroke-width: 0.75"/>
     <use xlink:href="#m55993cd7da" x="497.62442" y="209.756016" style="fill: #35dc67; stroke: #ffffff; stroke-width: 0.75"/>
     <use xlink:href="#m55993cd7da" x="524.322984" y="258.131153" style="fill: #35dc67; stroke: #ffffff; stroke-width: 0.75"/>
     <use xlink:href="#m55993cd7da" x="551.021549" y="217.001448" style="fill: #35dc67; stroke: #ffffff; stroke-width: 0.75"/>
     <use xlink:href="#m55993cd7da" x="577.720114" y="236.219706" style="fill: #35dc67; stroke: #ffffff; stroke-width: 0.75"/>
    </g>
   </g>
   <g id="line2d_33">
    <path d="M 70.447386 252.817361 
L 97.145951 262.063701 
L 123.844516 238.902929 
L 150.54308 253.041413 
L 177.241645 264.015558 
L 203.940209 248.230623 
L 230.638774 255.491977 
L 257.337339 249.926553 
L 284.035903 250.692618 
L 310.734468 253.607154 
L 337.433032 243.49747 
L 364.131597 252.086005 
L 390.830161 240.274559 
L 417.528726 216.519829 
L 444.227291 231.351415 
L 470.925855 263.195072 
L 497.62442 243.284724 
L 524.322984 244.315153 
L 551.021549 240.671504 
L 577.720114 244.389038 
" clip-path="url(#p5fd02acf7b)" style="fill: none; stroke: #007bff; stroke-width: 1.5; stroke-linecap: square"/>
    <defs>
     <path id="m92d923b07c" d="M 0 3 
C 0.795609 3 1.55874 2.683901 2.12132 2.12132 
C 2.683901 1.55874 3 0.795609 3 0 
C 3 -0.795609 2.683901 -1.55874 2.12132 -2.12132 
C 1.55874 -2.683901 0.795609 -3 0 -3 
C -0.795609 -3 -1.55874 -2.683901 -2.12132 -2.12132 
C -2.683901 -1.55874 -3 -0.795609 -3 0 
C -3 0.795609 -2.683901 1.55874 -2.12132 2.12132 
C -1.55874 2.683901 -0.795609 3 0 3 
z
" style="stroke: #ffffff; stroke-width: 0.75"/>
    </defs>
    <g clip-path="url(#p5fd02acf7b)">
     <use xlink:href="#m92d923b07c" x="70.447386" y="252.817361" style="fill: #007bff; stroke: #ffffff; stroke-width: 0.75"/>
     <use xlink:href="#m92d923b07c" x="97.145951" y="262.063701" style="fill: #007bff; stroke: #ffffff; stroke-width: 0.75"/>
     <use xlink:href="#m92d923b07c" x="123.844516" y="238.902929" style="fill: #007bff; stroke: #ffffff; stroke-width: 0.75"/>
     <use xlink:href="#m92d923b07c" x="150.54308" y="253.041413" style="fill: #007bff; stroke: #ffffff; stroke-width: 0.75"/>
     <use xlink:href="#m92d923b07c" x="177.241645" y="264.015558" style="fill: #007bff; stroke: #ffffff; stroke-width: 0.75"/>
     <use xlink:href="#m92d923b07c" x="203.940209" y="248.230623" style="fill: #007bff; stroke: #ffffff; stroke-width: 0.75"/>
     <use xlink:href="#m92d923b07c" x="230.638774" y="255.491977" style="fill: #007bff; stroke: #ffffff; stroke-width: 0.75"/>
     <use xlink:href="#m92d923b07c" x="257.337339" y="249.926553" style="fill: #007bff; stroke: #ffffff; stroke-width: 0.75"/>
     <use xlink:href="#m92d923b07c" x="284.035903" y="250.692618" style="fill: #007bff; stroke: #ffffff; stroke-width: 0.75"/>
     <use xlink:href="#m92d923b07c" x="310.734468" y="253.607154" style="fill: #007bff; stroke: #ffffff; stroke-width: 0.75"/>
     <use xlink:href="#m92d923b07c" x="337.433032" y="243.49747" style="fill: #007bff; stroke: #ffffff; stroke-width: 0.75"/>
     <use xlink:href="#m92d923b07c" x="364.131597" y="252.086005" style="fill: #007bff; stroke: #ffffff; stroke-width: 0.75"/>
     <use xlink:href="#m92d923b07c" x="390.830161" y="240.274559" style="fill: #007bff; stroke: #ffffff; stroke-width: 0.75"/>
     <use xlink:href="#m92d923b07c" x="417.528726" y="216.519829" style="fill: #007bff; stroke: #ffffff; stroke-width: 0.75"/>
     <use xlink:href="#m92d923b07c" x="444.227291" y="231.351415" style="fill: #007bff; stroke: #ffffff; stroke-width: 0.75"/>
     <use xlink:href="#m92d923b07c" x="470.925855" y="263.195072" style="fill: #007bff; stroke: #ffffff; stroke-width: 0.75"/>
     <use xlink:href="#m92d923b07c" x="497.62442" y="243.284724" style="fill: #007bff; stroke: #ffffff; stroke-width: 0.75"/>
     <use xlink:href="#m92d923b07c" x="524.322984" y="244.315153" style="fill: #007bff; stroke: #ffffff; stroke-width: 0.75"/>
     <use xlink:href="#m92d923b07c" x="551.021549" y="240.671504" style="fill: #007bff; stroke: #ffffff; stroke-width: 0.75"/>
     <use xlink:href="#m92d923b07c" x="577.720114" y="244.389038" style="fill: #007bff; stroke: #ffffff; stroke-width: 0.75"/>
    </g>
   </g>
   <g id="line2d_34"/>
   <g id="line2d_35"/>
   <g id="line2d_36"/>
   <g id="patch_3">
    <path d="M 45.08375 356.78175 
L 45.08375 24.14175 
" style="fill: none; stroke: #000000; stroke-width: 0.8; stroke-linejoin: miter; stroke-linecap: square"/>
   </g>
   <g id="patch_4">
    <path d="M 603.08375 356.78175 
L 603.08375 24.14175 
" style="fill: none; stroke: #000000; stroke-width: 0.8; stroke-linejoin: miter; stroke-linecap: square"/>
   </g>
   <g id="patch_5">
    <path d="M 45.08375 356.78175 
L 603.08375 356.78175 
" style="fill: none; stroke: #000000; stroke-width: 0.8; stroke-linejoin: miter; stroke-linecap: square"/>
   </g>
   <g id="patch_6">
    <path d="M 45.08375 24.14175 
L 603.08375 24.14175 
" style="fill: none; stroke: #000000; stroke-width: 0.8; stroke-linejoin: miter; stroke-linecap: square"/>
   </g>
   <g id="text_18">
    <!-- WPM Learning Curve  -->
    <g transform="translate(247.044875 18.14175) scale(0.144 -0.144)">
     <defs>
      <path id="DejaVuSans-20" transform="scale(0.015625)"/>
      <path id="DejaVuSans-4c" d="M 628 4666 
L 1259 4666 
L 1259 531 
L 3531 531 
L 3531 0 
L 628 0 
L 628 4666 
z
" transform="scale(0.015625)"/>
      <path id="DejaVuSans-65" d="M 3597 1894 
L 3597 1613 
L 953 1613 
Q 991 1019 1311 708 
Q 1631 397 2203 397 
Q 2534 397 2845 478 
Q 3156 559 3463 722 
L 3463 178 
Q 3153 47 2828 -22 
Q 2503 -91 2169 -91 
Q 1331 -91 842 396 
Q 353 884 353 1716 
Q 353 2575 817 3079 
Q 1281 3584 2069 3584 
Q 2775 3584 3186 3129 
Q 3597 2675 3597 1894 
z
M 3022 2063 
Q 3016 2534 2758 2815 
Q 2500 3097 2075 3097 
Q 1594 3097 1305 2825 
Q 1016 2553 972 2059 
L 3022 2063 
z
" transform="scale(0.015625)"/>
      <path id="DejaVuSans-6e" d="M 3513 2113 
L 3513 0 
L 2938 0 
L 2938 2094 
Q 2938 2591 2744 2837 
Q 2550 3084 2163 3084 
Q 1697 3084 1428 2787 
Q 1159 2491 1159 1978 
L 1159 0 
L 581 0 
L 581 3500 
L 1159 3500 
L 1159 2956 
Q 1366 3272 1645 3428 
Q 1925 3584 2291 3584 
Q 2894 3584 3203 3211 
Q 3513 2838 3513 2113 
z
" transform="scale(0.015625)"/>
      <path id="DejaVuSans-67" d="M 2906 1791 
Q 2906 2416 2648 2759 
Q 2391 3103 1925 3103 
Q 1463 3103 1205 2759 
Q 947 2416 947 1791 
Q 947 1169 1205 825 
Q 1463 481 1925 481 
Q 2391 481 2648 825 
Q 2906 1169 2906 1791 
z
M 3481 434 
Q 3481 -459 3084 -895 
Q 2688 -1331 1869 -1331 
Q 1566 -1331 1297 -1286 
Q 1028 -1241 775 -1147 
L 775 -588 
Q 1028 -725 1275 -790 
Q 1522 -856 1778 -856 
Q 2344 -856 2625 -561 
Q 2906 -266 2906 331 
L 2906 616 
Q 2728 306 2450 153 
Q 2172 0 1784 0 
Q 1141 0 747 490 
Q 353 981 353 1791 
Q 353 2603 747 3093 
Q 1141 3584 1784 3584 
Q 2172 3584 2450 3431 
Q 2728 3278 2906 2969 
L 2906 3500 
L 3481 3500 
L 3481 434 
z
" transform="scale(0.015625)"/>
      <path id="DejaVuSans-43" d="M 4122 4306 
L 4122 3641 
Q 3803 3938 3442 4084 
Q 3081 4231 2675 4231 
Q 1875 4231 1450 3742 
Q 1025 3253 1025 2328 
Q 1025 1406 1450 917 
Q 1875 428 2675 428 
Q 3081 428 3442 575 
Q 3803 722 4122 1019 
L 4122 359 
Q 3791 134 3420 21 
Q 3050 -91 2638 -91 
Q 1578 -91 968 557 
Q 359 1206 359 2328 
Q 359 3453 968 4101 
Q 1578 4750 2638 4750 
Q 3056 4750 3426 4639 
Q 3797 4528 4122 4306 
z
" transform="scale(0.015625)"/>
      <path id="DejaVuSans-75" d="M 544 1381 
L 544 3500 
L 1119 3500 
L 1119 1403 
Q 1119 906 1312 657 
Q 1506 409 1894 409 
Q 2359 409 2629 706 
Q 2900 1003 2900 1516 
L 2900 3500 
L 3475 3500 
L 3475 0 
L 2900 0 
L 2900 538 
Q 2691 219 2414 64 
Q 2138 -91 1772 -91 
Q 1169 -91 856 284 
Q 544 659 544 1381 
z
M 1991 3584 
L 1991 3584 
z
" transform="scale(0.015625)"/>
      <path id="DejaVuSans-76" d="M 191 3500 
L 800 3500 
L 1894 563 
L 2988 3500 
L 3597 3500 
L 2284 0 
L 1503 0 
L 191 3500 
z
" transform="scale(0.015625)"/>
     </defs>
     <use xlink:href="#DejaVuSans-57"/>
     <use xlink:href="#DejaVuSans-50" transform="translate(98.876953 0)"/>
     <use xlink:href="#DejaVuSans-4d" transform="translate(159.179688 0)"/>
     <use xlink:href="#DejaVuSans-20" transform="translate(245.458984 0)"/>
     <use xlink:href="#DejaVuSans-4c" transform="translate(277.246094 0)"/>
     <use xlink:href="#DejaVuSans-65" transform="translate(331.208984 0)"/>
     <use xlink:href="#DejaVuSans-61" transform="translate(392.732422 0)"/>
     <use xlink:href="#DejaVuSans-72" transform="translate(454.011719 0)"/>
     <use xlink:href="#DejaVuSans-6e" transform="translate(493.375 0)"/>
     <use xlink:href="#DejaVuSans-69" transform="translate(556.753906 0)"/>
     <use xlink:href="#DejaVuSans-6e" transform="translate(584.537109 0)"/>
     <use xlink:href="#DejaVuSans-67" transform="translate(647.916016 0)"/>
     <use xlink:href="#DejaVuSans-20" transform="translate(711.392578 0)"/>
     <use xlink:href="#DejaVuSans-43" transform="translate(743.179688 0)"/>
     <use xlink:href="#DejaVuSans-75" transform="translate(813.003906 0)"/>
     <use xlink:href="#DejaVuSans-72" transform="translate(876.382812 0)"/>
     <use xlink:href="#DejaVuSans-76" transform="translate(917.496094 0)"/>
     <use xlink:href="#DejaVuSans-65" transform="translate(976.675781 0)"/>
     <use xlink:href="#DejaVuSans-20" transform="translate(1038.199219 0)"/>
    </g>
   </g>
   <g id="legend_1">
    <g id="patch_7">
     <path d="M 53.48375 104.19675 
L 150.905 104.19675 
Q 153.305 104.19675 153.305 101.79675 
L 153.305 32.54175 
Q 153.305 30.14175 150.905 30.14175 
L 53.48375 30.14175 
Q 51.08375 30.14175 51.08375 32.54175 
L 51.08375 101.79675 
Q 51.08375 104.19675 53.48375 104.19675 
z
" style="fill: #ffffff; opacity: 0.8; stroke: #cccccc; stroke-linejoin: miter"/>
    </g>
    <g id="text_19">
     <!-- Condition -->
     <g transform="translate(73.562188 44.059875) scale(0.12 -0.12)">
      <defs>
       <path id="DejaVuSans-6f" d="M 1959 3097 
Q 1497 3097 1228 2736 
Q 959 2375 959 1747 
Q 959 1119 1226 758 
Q 1494 397 1959 397 
Q 2419 397 2687 759 
Q 2956 1122 2956 1747 
Q 2956 2369 2687 2733 
Q 2419 3097 1959 3097 
z
M 1959 3584 
Q 2709 3584 3137 3096 
Q 3566 2609 3566 1747 
Q 3566 888 3137 398 
Q 2709 -91 1959 -91 
Q 1206 -91 779 398 
Q 353 888 353 1747 
Q 353 2609 779 3096 
Q 1206 3584 1959 3584 
z
" transform="scale(0.015625)"/>
       <path id="DejaVuSans-64" d="M 2906 2969 
L 2906 4863 
L 3481 4863 
L 3481 0 
L 2906 0 
L 2906 525 
Q 2725 213 2448 61 
Q 2172 -91 1784 -91 
Q 1150 -91 751 415 
Q 353 922 353 1747 
Q 353 2572 751 3078 
Q 1150 3584 1784 3584 
Q 2172 3584 2448 3432 
Q 2725 3281 2906 2969 
z
M 947 1747 
Q 947 1113 1208 752 
Q 1469 391 1925 391 
Q 2381 391 2643 752 
Q 2906 1113 2906 1747 
Q 2906 2381 2643 2742 
Q 2381 3103 1925 3103 
Q 1469 3103 1208 2742 
Q 947 2381 947 1747 
z
" transform="scale(0.015625)"/>
       <path id="DejaVuSans-74" d="M 1172 4494 
L 1172 3500 
L 2356 3500 
L 2356 3053 
L 1172 3053 
L 1172 1153 
Q 1172 725 1289 603 
Q 1406 481 1766 481 
L 2356 481 
L 2356 0 
L 1766 0 
Q 1100 0 847 248 
Q 594 497 594 1153 
L 594 3053 
L 172 3053 
L 172 3500 
L 594 3500 
L 594 4494 
L 1172 4494 
z
" transform="scale(0.015625)"/>
      </defs>
      <use xlink:href="#DejaVuSans-43"/>
      <use xlink:href="#DejaVuSans-6f" transform="translate(69.824219 0)"/>
      <use xlink:href="#DejaVuSans-6e" transform="translate(131.005859 0)"/>
      <use xlink:href="#DejaVuSans-64" transform="translate(194.384766 0)"/>
      <use xlink:href="#DejaVuSans-69" transform="translate(257.861328 0)"/>
      <use xlink:href="#DejaVuSans-74" transform="translate(285.644531 0)"/>
      <use xlink:href="#DejaVuSans-69" transform="translate(324.853516 0)"/>
      <use xlink:href="#DejaVuSans-6f" transform="translate(352.636719 0)"/>
      <use xlink:href="#DejaVuSans-6e" transform="translate(413.818359 0)"/>
     </g>
    </g>
    <g id="line2d_37">
     <path d="M 55.88375 57.473625 
L 67.88375 57.473625 
L 79.88375 57.473625 
" style="fill: none; stroke: #333333; stroke-width: 1.5; stroke-linecap: square"/>
     <g>
      <use xlink:href="#m73e1c887bc" x="67.88375" y="57.473625" style="fill: #333333; stroke: #ffffff; stroke-width: 0.75"/>
     </g>
    </g>
    <g id="text_20">
     <!-- Keyboard -->
     <g transform="translate(89.48375 61.673625) scale(0.12 -0.12)">
      <defs>
       <path id="DejaVuSans-4b" d="M 628 4666 
L 1259 4666 
L 1259 2694 
L 3353 4666 
L 4166 4666 
L 1850 2491 
L 4331 0 
L 3500 0 
L 1259 2247 
L 1259 0 
L 628 0 
L 628 4666 
z
" transform="scale(0.015625)"/>
       <path id="DejaVuSans-79" d="M 2059 -325 
Q 1816 -950 1584 -1140 
Q 1353 -1331 966 -1331 
L 506 -1331 
L 506 -850 
L 844 -850 
Q 1081 -850 1212 -737 
Q 1344 -625 1503 -206 
L 1606 56 
L 191 3500 
L 800 3500 
L 1894 763 
L 2988 3500 
L 3597 3500 
L 2059 -325 
z
" transform="scale(0.015625)"/>
       <path id="DejaVuSans-62" d="M 3116 1747 
Q 3116 2381 2855 2742 
Q 2594 3103 2138 3103 
Q 1681 3103 1420 2742 
Q 1159 2381 1159 1747 
Q 1159 1113 1420 752 
Q 1681 391 2138 391 
Q 2594 391 2855 752 
Q 3116 1113 3116 1747 
z
M 1159 2969 
Q 1341 3281 1617 3432 
Q 1894 3584 2278 3584 
Q 2916 3584 3314 3078 
Q 3713 2572 3713 1747 
Q 3713 922 3314 415 
Q 2916 -91 2278 -91 
Q 1894 -91 1617 61 
Q 1341 213 1159 525 
L 1159 0 
L 581 0 
L 581 4863 
L 1159 4863 
L 1159 2969 
z
" transform="scale(0.015625)"/>
      </defs>
      <use xlink:href="#DejaVuSans-4b"/>
      <use xlink:href="#DejaVuSans-65" transform="translate(60.576172 0)"/>
      <use xlink:href="#DejaVuSans-79" transform="translate(122.099609 0)"/>
      <use xlink:href="#DejaVuSans-62" transform="translate(181.279297 0)"/>
      <use xlink:href="#DejaVuSans-6f" transform="translate(244.755859 0)"/>
      <use xlink:href="#DejaVuSans-61" transform="translate(305.9375 0)"/>
      <use xlink:href="#DejaVuSans-72" transform="translate(367.216797 0)"/>
      <use xlink:href="#DejaVuSans-64" transform="translate(406.580078 0)"/>
     </g>
    </g>
    <g id="line2d_38">
     <path d="M 55.88375 75.087375 
L 67.88375 75.087375 
L 79.88375 75.087375 
" style="fill: none; stroke: #35dc67; stroke-width: 1.5; stroke-linecap: square"/>
     <g>
      <use xlink:href="#m55993cd7da" x="67.88375" y="75.087375" style="fill: #35dc67; stroke: #ffffff; stroke-width: 0.75"/>
     </g>
    </g>
    <g id="text_21">
     <!-- Proposed -->
     <g transform="translate(89.48375 79.287375) scale(0.12 -0.12)">
      <defs>
       <path id="DejaVuSans-70" d="M 1159 525 
L 1159 -1331 
L 581 -1331 
L 581 3500 
L 1159 3500 
L 1159 2969 
Q 1341 3281 1617 3432 
Q 1894 3584 2278 3584 
Q 2916 3584 3314 3078 
Q 3713 2572 3713 1747 
Q 3713 922 3314 415 
Q 2916 -91 2278 -91 
Q 1894 -91 1617 61 
Q 1341 213 1159 525 
z
M 3116 1747 
Q 3116 2381 2855 2742 
Q 2594 3103 2138 3103 
Q 1681 3103 1420 2742 
Q 1159 2381 1159 1747 
Q 1159 1113 1420 752 
Q 1681 391 2138 391 
Q 2594 391 2855 752 
Q 3116 1113 3116 1747 
z
" transform="scale(0.015625)"/>
       <path id="DejaVuSans-73" d="M 2834 3397 
L 2834 2853 
Q 2591 2978 2328 3040 
Q 2066 3103 1784 3103 
Q 1356 3103 1142 2972 
Q 928 2841 928 2578 
Q 928 2378 1081 2264 
Q 1234 2150 1697 2047 
L 1894 2003 
Q 2506 1872 2764 1633 
Q 3022 1394 3022 966 
Q 3022 478 2636 193 
Q 2250 -91 1575 -91 
Q 1294 -91 989 -36 
Q 684 19 347 128 
L 347 722 
Q 666 556 975 473 
Q 1284 391 1588 391 
Q 1994 391 2212 530 
Q 2431 669 2431 922 
Q 2431 1156 2273 1281 
Q 2116 1406 1581 1522 
L 1381 1569 
Q 847 1681 609 1914 
Q 372 2147 372 2553 
Q 372 3047 722 3315 
Q 1072 3584 1716 3584 
Q 2034 3584 2315 3537 
Q 2597 3491 2834 3397 
z
" transform="scale(0.015625)"/>
      </defs>
      <use xlink:href="#DejaVuSans-50"/>
      <use xlink:href="#DejaVuSans-72" transform="translate(58.552734 0)"/>
      <use xlink:href="#DejaVuSans-6f" transform="translate(97.416016 0)"/>
      <use xlink:href="#DejaVuSans-70" transform="translate(158.597656 0)"/>
      <use xlink:href="#DejaVuSans-6f" transform="translate(222.074219 0)"/>
      <use xlink:href="#DejaVuSans-73" transform="translate(283.255859 0)"/>
      <use xlink:href="#DejaVuSans-65" transform="translate(335.355469 0)"/>
      <use xlink:href="#DejaVuSans-64" transform="translate(396.878906 0)"/>
     </g>
    </g>
    <g id="line2d_39">
     <path d="M 55.88375 92.701125 
L 67.88375 92.701125 
L 79.88375 92.701125 
" style="fill: none; stroke: #007bff; stroke-width: 1.5; stroke-linecap: square"/>
     <g>
      <use xlink:href="#m92d923b07c" x="67.88375" y="92.701125" style="fill: #007bff; stroke: #ffffff; stroke-width: 0.75"/>
     </g>
    </g>
    <g id="text_22">
     <!-- Controller -->
     <g transform="translate(89.48375 96.901125) scale(0.12 -0.12)">
      <use xlink:href="#DejaVuSans-43"/>
      <use xlink:href="#DejaVuSans-6f" transform="translate(69.824219 0)"/>
      <use xlink:href="#DejaVuSans-6e" transform="translate(131.005859 0)"/>
      <use xlink:href="#DejaVuSans-74" transform="translate(194.384766 0)"/>
      <use xlink:href="#DejaVuSans-72" transform="translate(233.59375 0)"/>
      <use xlink:href="#DejaVuSans-6f" transform="translate(272.457031 0)"/>
      <use xlink:href="#DejaVuSans-6c" transform="translate(333.638672 0)"/>
      <use xlink:href="#DejaVuSans-6c" transform="translate(361.421875 0)"/>
      <use xlink:href="#DejaVuSans-65" transform="translate(389.205078 0)"/>
      <use xlink:href="#DejaVuSans-72" transform="translate(450.728516 0)"/>
     </g>
    </g>
   </g>
  </g>
 </g>
 <defs>
  <clipPath id="p5fd02acf7b">
   <rect x="45.08375" y="24.14175" width="558" height="332.64"/>
  </clipPath>
 </defs>
</svg>
