<?xml version="1.0" encoding="utf-8" standalone="no"?>
<!DOCTYPE svg PUBLIC "-//W3C//DTD SVG 1.1//EN"
  "http://www.w3.org/Graphics/SVG/1.1/DTD/svg11.dtd">
<svg xmlns:xlink="http://www.w3.org/1999/xlink" width="851.34375pt" height="418.515802pt" viewBox="0 0 851.34375 418.515802" xmlns="http://www.w3.org/2000/svg" version="1.1">
 <metadata>
  <rdf:RDF xmlns:dc="http://purl.org/dc/elements/1.1/" xmlns:cc="http://creativecommons.org/ns#" xmlns:rdf="http://www.w3.org/1999/02/22-rdf-syntax-ns#">
   <cc:Work>
    <dc:type rdf:resource="http://purl.org/dc/dcmitype/StillImage"/>
    <dc:date>2026-01-16T15:53:48.053560</dc:date>
    <dc:format>image/svg+xml</dc:format>
    <dc:creator>
     <cc:Agent>
      <dc:title>Matplotlib v3.10.8, https://matplotlib.org/</dc:title>
     </cc:Agent>
    </dc:creator>
   </cc:Work>
  </rdf:RDF>
 </metadata>
 <defs>
  <style type="text/css">*{stroke-linejoin: round; stroke-linecap: butt}</style>
 </defs>
 <g id="figure_1">
  <g id="patch_1">
   <path d="M 0 418.515802 
L 851.34375 418.515802 
L 851.34375 0 
L 0 0 
z
" style="fill: #ffffff"/>
  </g>
  <g id="axes_1">
   <g id="patch_2">
    <path d="M 60.35375 333.331614 
L 844.14375 333.331614 
L 844.14375 24.14175 
L 60.35375 24.14175 
z
" style="fill: #ffffff"/>
   </g>
   <g id="patch_3">
    <path d="M 116.33875 372.68837 
L 116.33875 372.68837 
L 116.33875 372.68837 
L 116.33875 372.68837 
z
" clip-path="url(#p414157ae69)" style="fill: #4ac76f; stroke: #1f1f1f; stroke-linejoin: miter"/>
   </g>
   <g id="patch_4">
    <path d="M 116.33875 372.68837 
L 116.33875 372.68837 
L 116.33875 372.68837 
L 116.33875 372.68837 
z
" clip-path="url(#p414157ae69)" style="fill: #207cdf; stroke: #1f1f1f; stroke-linejoin: miter"/>
   </g>
   <g id="matplotlib.axis_1">
    <g id="xtick_1">
     <g id="line2d_1">
      <defs>
       <path id="m1d692f518e" d="M 0 0 
L 0 3.5 
" style="stroke: #000000; stroke-width: 0.8"/>
      </defs>
      <g>
       <use xlink:href="#m1d692f518e" x="116.33875" y="333.331614" style="stroke: #000000; stroke-width: 0.8"/>
      </g>
     </g>
     <g id="text_1">
      <!-- Gun -->
      <g transform="translate(110.015227 364.108963) rotate(-45) scale(0.12 -0.12)">
       <defs>
        <path id="DejaVuSans-47" d="M 3809 666 
L 3809 1919 
L 2778 1919 
L 2778 2438 
L 4434 2438 
L 4434 434 
Q 4069 175 3628 42 
Q 3188 -91 2688 -91 
Q 1594 -91 976 548 
Q 359 1188 359 2328 
Q 359 3472 976 4111 
Q 1594 4750 2688 4750 
Q 3144 4750 3555 4637 
Q 3966 4525 4313 4306 
L 4313 3634 
Q 3963 3931 3569 4081 
Q 3175 4231 2741 4231 
Q 1884 4231 1454 3753 
Q 1025 3275 1025 2328 
Q 1025 1384 1454 906 
Q 1884 428 2741 428 
Q 3075 428 3337 486 
Q 3600 544 3809 666 
z
" transform="scale(0.015625)"/>
        <path id="DejaVuSans-75" d="M 544 1381 
L 544 3500 
L 1119 3500 
L 1119 1403 
Q 1119 906 1312 657 
Q 1506 409 1894 409 
Q 2359 409 2629 706 
Q 2900 1003 2900 1516 
L 2900 3500 
L 3475 3500 
L 3475 0 
L 2900 0 
L 2900 538 
Q 2691 219 2414 64 
Q 2138 -91 1772 -91 
Q 1169 -91 856 284 
Q 544 659 544 1381 
z
M 1991 3584 
L 1991 3584 
z
" transform="scale(0.015625)"/>
        <path id="DejaVuSans-6e" d="M 3513 2113 
L 3513 0 
L 2938 0 
L 2938 2094 
Q 2938 2591 2744 2837 
Q 2550 3084 2163 3084 
Q 1697 3084 1428 2787 
Q 1159 2491 1159 1978 
L 1159 0 
L 581 0 
L 581 3500 
L 1159 3500 
L 1159 2956 
Q 1366 3272 1645 3428 
Q 1925 3584 2291 3584 
Q 2894 3584 3203 3211 
Q 3513 2838 3513 2113 
z
" transform="scale(0.015625)"/>
       </defs>
       <use xlink:href="#DejaVuSans-47"/>
       <use xlink:href="#DejaVuSans-75" transform="translate(77.490234 0)"/>
       <use xlink:href="#DejaVuSans-6e" transform="translate(140.869141 0)"/>
      </g>
     </g>
    </g>
    <g id="xtick_2">
     <g id="line2d_2">
      <g>
       <use xlink:href="#m1d692f518e" x="228.30875" y="333.331614" style="stroke: #000000; stroke-width: 0.8"/>
      </g>
     </g>
     <g id="text_2">
      <!-- RockNRoll -->
      <g transform="translate(209.623232 388.832952) rotate(-45) scale(0.12 -0.12)">
       <defs>
        <path id="DejaVuSans-52" d="M 2841 2188 
Q 3044 2119 3236 1894 
Q 3428 1669 3622 1275 
L 4263 0 
L 3584 0 
L 2988 1197 
Q 2756 1666 2539 1819 
Q 2322 1972 1947 1972 
L 1259 1972 
L 1259 0 
L 628 0 
L 628 4666 
L 2053 4666 
Q 2853 4666 3247 4331 
Q 3641 3997 3641 3322 
Q 3641 2881 3436 2590 
Q 3231 2300 2841 2188 
z
M 1259 4147 
L 1259 2491 
L 2053 2491 
Q 2509 2491 2742 2702 
Q 2975 2913 2975 3322 
Q 2975 3731 2742 3939 
Q 2509 4147 2053 4147 
L 1259 4147 
z
" transform="scale(0.015625)"/>
        <path id="DejaVuSans-6f" d="M 1959 3097 
Q 1497 3097 1228 2736 
Q 959 2375 959 1747 
Q 959 1119 1226 758 
Q 1494 397 1959 397 
Q 2419 397 2687 759 
Q 2956 1122 2956 1747 
Q 2956 2369 2687 2733 
Q 2419 3097 1959 3097 
z
M 1959 3584 
Q 2709 3584 3137 3096 
Q 3566 2609 3566 1747 
Q 3566 888 3137 398 
Q 2709 -91 1959 -91 
Q 1206 -91 779 398 
Q 353 888 353 1747 
Q 353 2609 779 3096 
Q 1206 3584 1959 3584 
z
" transform="scale(0.015625)"/>
        <path id="DejaVuSans-63" d="M 3122 3366 
L 3122 2828 
Q 2878 2963 2633 3030 
Q 2388 3097 2138 3097 
Q 1578 3097 1268 2742 
Q 959 2388 959 1747 
Q 959 1106 1268 751 
Q 1578 397 2138 397 
Q 2388 397 2633 464 
Q 2878 531 3122 666 
L 3122 134 
Q 2881 22 2623 -34 
Q 2366 -91 2075 -91 
Q 1284 -91 818 406 
Q 353 903 353 1747 
Q 353 2603 823 3093 
Q 1294 3584 2113 3584 
Q 2378 3584 2631 3529 
Q 2884 3475 3122 3366 
z
" transform="scale(0.015625)"/>
        <path id="DejaVuSans-6b" d="M 581 4863 
L 1159 4863 
L 1159 1991 
L 2875 3500 
L 3609 3500 
L 1753 1863 
L 3688 0 
L 2938 0 
L 1159 1709 
L 1159 0 
L 581 0 
L 581 4863 
z
" transform="scale(0.015625)"/>
        <path id="DejaVuSans-4e" d="M 628 4666 
L 1478 4666 
L 3547 763 
L 3547 4666 
L 4159 4666 
L 4159 0 
L 3309 0 
L 1241 3903 
L 1241 0 
L 628 0 
L 628 4666 
z
" transform="scale(0.015625)"/>
        <path id="DejaVuSans-6c" d="M 603 4863 
L 1178 4863 
L 1178 0 
L 603 0 
L 603 4863 
z
" transform="scale(0.015625)"/>
       </defs>
       <use xlink:href="#DejaVuSans-52"/>
       <use xlink:href="#DejaVuSans-6f" transform="translate(64.982422 0)"/>
       <use xlink:href="#DejaVuSans-63" transform="translate(126.164062 0)"/>
       <use xlink:href="#DejaVuSans-6b" transform="translate(181.144531 0)"/>
       <use xlink:href="#DejaVuSans-4e" transform="translate(239.054688 0)"/>
       <use xlink:href="#DejaVuSans-52" transform="translate(313.859375 0)"/>
       <use xlink:href="#DejaVuSans-6f" transform="translate(378.841797 0)"/>
       <use xlink:href="#DejaVuSans-6c" transform="translate(440.023438 0)"/>
       <use xlink:href="#DejaVuSans-6c" transform="translate(467.806641 0)"/>
      </g>
     </g>
    </g>
    <g id="xtick_3">
     <g id="line2d_3">
      <g>
       <use xlink:href="#m1d692f518e" x="340.27875" y="333.331614" style="stroke: #000000; stroke-width: 0.8"/>
      </g>
     </g>
     <g id="text_3">
      <!-- Victory -->
      <g transform="translate(327.787488 376.444441) rotate(-45) scale(0.12 -0.12)">
       <defs>
        <path id="DejaVuSans-56" d="M 1831 0 
L 50 4666 
L 709 4666 
L 2188 738 
L 3669 4666 
L 4325 4666 
L 2547 0 
L 1831 0 
z
" transform="scale(0.015625)"/>
        <path id="DejaVuSans-69" d="M 603 3500 
L 1178 3500 
L 1178 0 
L 603 0 
L 603 3500 
z
M 603 4863 
L 1178 4863 
L 1178 4134 
L 603 4134 
L 603 4863 
z
" transform="scale(0.015625)"/>
        <path id="DejaVuSans-74" d="M 1172 4494 
L 1172 3500 
L 2356 3500 
L 2356 3053 
L 1172 3053 
L 1172 1153 
Q 1172 725 1289 603 
Q 1406 481 1766 481 
L 2356 481 
L 2356 0 
L 1766 0 
Q 1100 0 847 248 
Q 594 497 594 1153 
L 594 3053 
L 172 3053 
L 172 3500 
L 594 3500 
L 594 4494 
L 1172 4494 
z
" transform="scale(0.015625)"/>
        <path id="DejaVuSans-72" d="M 2631 2963 
Q 2534 3019 2420 3045 
Q 2306 3072 2169 3072 
Q 1681 3072 1420 2755 
Q 1159 2438 1159 1844 
L 1159 0 
L 581 0 
L 581 3500 
L 1159 3500 
L 1159 2956 
Q 1341 3275 1631 3429 
Q 1922 3584 2338 3584 
Q 2397 3584 2469 3576 
Q 2541 3569 2628 3553 
L 2631 2963 
z
" transform="scale(0.015625)"/>
        <path id="DejaVuSans-79" d="M 2059 -325 
Q 1816 -950 1584 -1140 
Q 1353 -1331 966 -1331 
L 506 -1331 
L 506 -850 
L 844 -850 
Q 1081 -850 1212 -737 
Q 1344 -625 1503 -206 
L 1606 56 
L 191 3500 
L 800 3500 
L 1894 763 
L 2988 3500 
L 3597 3500 
L 2059 -325 
z
" transform="scale(0.015625)"/>
       </defs>
       <use xlink:href="#DejaVuSans-56"/>
       <use xlink:href="#DejaVuSans-69" transform="translate(66.158203 0)"/>
       <use xlink:href="#DejaVuSans-63" transform="translate(93.941406 0)"/>
       <use xlink:href="#DejaVuSans-74" transform="translate(148.921875 0)"/>
       <use xlink:href="#DejaVuSans-6f" transform="translate(188.130859 0)"/>
       <use xlink:href="#DejaVuSans-72" transform="translate(249.3125 0)"/>
       <use xlink:href="#DejaVuSans-79" transform="translate(290.425781 0)"/>
      </g>
     </g>
    </g>
    <g id="xtick_4">
     <g id="line2d_4">
      <g>
       <use xlink:href="#m1d692f518e" x="452.24875" y="333.331614" style="stroke: #000000; stroke-width: 0.8"/>
      </g>
     </g>
     <g id="text_4">
      <!-- ThumbsUp -->
      <g transform="translate(431.786627 392.386163) rotate(-45) scale(0.12 -0.12)">
       <defs>
        <path id="DejaVuSans-54" d="M -19 4666 
L 3928 4666 
L 3928 4134 
L 2272 4134 
L 2272 0 
L 1638 0 
L 1638 4134 
L -19 4134 
L -19 4666 
z
" transform="scale(0.015625)"/>
        <path id="DejaVuSans-68" d="M 3513 2113 
L 3513 0 
L 2938 0 
L 2938 2094 
Q 2938 2591 2744 2837 
Q 2550 3084 2163 3084 
Q 1697 3084 1428 2787 
Q 1159 2491 1159 1978 
L 1159 0 
L 581 0 
L 581 4863 
L 1159 4863 
L 1159 2956 
Q 1366 3272 1645 3428 
Q 1925 3584 2291 3584 
Q 2894 3584 3203 3211 
Q 3513 2838 3513 2113 
z
" transform="scale(0.015625)"/>
        <path id="DejaVuSans-6d" d="M 3328 2828 
Q 3544 3216 3844 3400 
Q 4144 3584 4550 3584 
Q 5097 3584 5394 3201 
Q 5691 2819 5691 2113 
L 5691 0 
L 5113 0 
L 5113 2094 
Q 5113 2597 4934 2840 
Q 4756 3084 4391 3084 
Q 3944 3084 3684 2787 
Q 3425 2491 3425 1978 
L 3425 0 
L 2847 0 
L 2847 2094 
Q 2847 2600 2669 2842 
Q 2491 3084 2119 3084 
Q 1678 3084 1418 2786 
Q 1159 2488 1159 1978 
L 1159 0 
L 581 0 
L 581 3500 
L 1159 3500 
L 1159 2956 
Q 1356 3278 1631 3431 
Q 1906 3584 2284 3584 
Q 2666 3584 2933 3390 
Q 3200 3197 3328 2828 
z
" transform="scale(0.015625)"/>
        <path id="DejaVuSans-62" d="M 3116 1747 
Q 3116 2381 2855 2742 
Q 2594 3103 2138 3103 
Q 1681 3103 1420 2742 
Q 1159 2381 1159 1747 
Q 1159 1113 1420 752 
Q 1681 391 2138 391 
Q 2594 391 2855 752 
Q 3116 1113 3116 1747 
z
M 1159 2969 
Q 1341 3281 1617 3432 
Q 1894 3584 2278 3584 
Q 2916 3584 3314 3078 
Q 3713 2572 3713 1747 
Q 3713 922 3314 415 
Q 2916 -91 2278 -91 
Q 1894 -91 1617 61 
Q 1341 213 1159 525 
L 1159 0 
L 581 0 
L 581 4863 
L 1159 4863 
L 1159 2969 
z
" transform="scale(0.015625)"/>
        <path id="DejaVuSans-73" d="M 2834 3397 
L 2834 2853 
Q 2591 2978 2328 3040 
Q 2066 3103 1784 3103 
Q 1356 3103 1142 2972 
Q 928 2841 928 2578 
Q 928 2378 1081 2264 
Q 1234 2150 1697 2047 
L 1894 2003 
Q 2506 1872 2764 1633 
Q 3022 1394 3022 966 
Q 3022 478 2636 193 
Q 2250 -91 1575 -91 
Q 1294 -91 989 -36 
Q 684 19 347 128 
L 347 722 
Q 666 556 975 473 
Q 1284 391 1588 391 
Q 1994 391 2212 530 
Q 2431 669 2431 922 
Q 2431 1156 2273 1281 
Q 2116 1406 1581 1522 
L 1381 1569 
Q 847 1681 609 1914 
Q 372 2147 372 2553 
Q 372 3047 722 3315 
Q 1072 3584 1716 3584 
Q 2034 3584 2315 3537 
Q 2597 3491 2834 3397 
z
" transform="scale(0.015625)"/>
        <path id="DejaVuSans-55" d="M 556 4666 
L 1191 4666 
L 1191 1831 
Q 1191 1081 1462 751 
Q 1734 422 2344 422 
Q 2950 422 3222 751 
Q 3494 1081 3494 1831 
L 3494 4666 
L 4128 4666 
L 4128 1753 
Q 4128 841 3676 375 
Q 3225 -91 2344 -91 
Q 1459 -91 1007 375 
Q 556 841 556 1753 
L 556 4666 
z
" transform="scale(0.015625)"/>
        <path id="DejaVuSans-70" d="M 1159 525 
L 1159 -1331 
L 581 -1331 
L 581 3500 
L 1159 3500 
L 1159 2969 
Q 1341 3281 1617 3432 
Q 1894 3584 2278 3584 
Q 2916 3584 3314 3078 
Q 3713 2572 3713 1747 
Q 3713 922 3314 415 
Q 2916 -91 2278 -91 
Q 1894 -91 1617 61 
Q 1341 213 1159 525 
z
M 3116 1747 
Q 3116 2381 2855 2742 
Q 2594 3103 2138 3103 
Q 1681 3103 1420 2742 
Q 1159 2381 1159 1747 
Q 1159 1113 1420 752 
Q 1681 391 2138 391 
Q 2594 391 2855 752 
Q 3116 1113 3116 1747 
z
" transform="scale(0.015625)"/>
       </defs>
       <use xlink:href="#DejaVuSans-54"/>
       <use xlink:href="#DejaVuSans-68" transform="translate(61.083984 0)"/>
       <use xlink:href="#DejaVuSans-75" transform="translate(124.462891 0)"/>
       <use xlink:href="#DejaVuSans-6d" transform="translate(187.841797 0)"/>
       <use xlink:href="#DejaVuSans-62" transform="translate(285.253906 0)"/>
       <use xlink:href="#DejaVuSans-73" transform="translate(348.730469 0)"/>
       <use xlink:href="#DejaVuSans-55" transform="translate(400.830078 0)"/>
       <use xlink:href="#DejaVuSans-70" transform="translate(474.023438 0)"/>
      </g>
     </g>
    </g>
    <g id="xtick_5">
     <g id="line2d_5">
      <g>
       <use xlink:href="#m1d692f518e" x="564.21875" y="333.331614" style="stroke: #000000; stroke-width: 0.8"/>
      </g>
     </g>
     <g id="text_5">
      <!-- FingerPoint -->
      <g transform="translate(542.981019 393.937379) rotate(-45) scale(0.12 -0.12)">
       <defs>
        <path id="DejaVuSans-46" d="M 628 4666 
L 3309 4666 
L 3309 4134 
L 1259 4134 
L 1259 2759 
L 3109 2759 
L 3109 2228 
L 1259 2228 
L 1259 0 
L 628 0 
L 628 4666 
z
" transform="scale(0.015625)"/>
        <path id="DejaVuSans-67" d="M 2906 1791 
Q 2906 2416 2648 2759 
Q 2391 3103 1925 3103 
Q 1463 3103 1205 2759 
Q 947 2416 947 1791 
Q 947 1169 1205 825 
Q 1463 481 1925 481 
Q 2391 481 2648 825 
Q 2906 1169 2906 1791 
z
M 3481 434 
Q 3481 -459 3084 -895 
Q 2688 -1331 1869 -1331 
Q 1566 -1331 1297 -1286 
Q 1028 -1241 775 -1147 
L 775 -588 
Q 1028 -725 1275 -790 
Q 1522 -856 1778 -856 
Q 2344 -856 2625 -561 
Q 2906 -266 2906 331 
L 2906 616 
Q 2728 306 2450 153 
Q 2172 0 1784 0 
Q 1141 0 747 490 
Q 353 981 353 1791 
Q 353 2603 747 3093 
Q 1141 3584 1784 3584 
Q 2172 3584 2450 3431 
Q 2728 3278 2906 2969 
L 2906 3500 
L 3481 3500 
L 3481 434 
z
" transform="scale(0.015625)"/>
        <path id="DejaVuSans-65" d="M 3597 1894 
L 3597 1613 
L 953 1613 
Q 991 1019 1311 708 
Q 1631 397 2203 397 
Q 2534 397 2845 478 
Q 3156 559 3463 722 
L 3463 178 
Q 3153 47 2828 -22 
Q 2503 -91 2169 -91 
Q 1331 -91 842 396 
Q 353 884 353 1716 
Q 353 2575 817 3079 
Q 1281 3584 2069 3584 
Q 2775 3584 3186 3129 
Q 3597 2675 3597 1894 
z
M 3022 2063 
Q 3016 2534 2758 2815 
Q 2500 3097 2075 3097 
Q 1594 3097 1305 2825 
Q 1016 2553 972 2059 
L 3022 2063 
z
" transform="scale(0.015625)"/>
        <path id="DejaVuSans-50" d="M 1259 4147 
L 1259 2394 
L 2053 2394 
Q 2494 2394 2734 2622 
Q 2975 2850 2975 3272 
Q 2975 3691 2734 3919 
Q 2494 4147 2053 4147 
L 1259 4147 
z
M 628 4666 
L 2053 4666 
Q 2838 4666 3239 4311 
Q 3641 3956 3641 3272 
Q 3641 2581 3239 2228 
Q 2838 1875 2053 1875 
L 1259 1875 
L 1259 0 
L 628 0 
L 628 4666 
z
" transform="scale(0.015625)"/>
       </defs>
       <use xlink:href="#DejaVuSans-46"/>
       <use xlink:href="#DejaVuSans-69" transform="translate(50.269531 0)"/>
       <use xlink:href="#DejaVuSans-6e" transform="translate(78.052734 0)"/>
       <use xlink:href="#DejaVuSans-67" transform="translate(141.431641 0)"/>
       <use xlink:href="#DejaVuSans-65" transform="translate(204.908203 0)"/>
       <use xlink:href="#DejaVuSans-72" transform="translate(266.431641 0)"/>
       <use xlink:href="#DejaVuSans-50" transform="translate(307.544922 0)"/>
       <use xlink:href="#DejaVuSans-6f" transform="translate(364.222656 0)"/>
       <use xlink:href="#DejaVuSans-69" transform="translate(425.404297 0)"/>
       <use xlink:href="#DejaVuSans-6e" transform="translate(453.1875 0)"/>
       <use xlink:href="#DejaVuSans-74" transform="translate(516.566406 0)"/>
      </g>
     </g>
    </g>
    <g id="xtick_6">
     <g id="line2d_6">
      <g>
       <use xlink:href="#m1d692f518e" x="676.18875" y="333.331614" style="stroke: #000000; stroke-width: 0.8"/>
      </g>
     </g>
     <g id="text_6">
      <!-- Neutral -->
      <g transform="translate(662.870836 378.097745) rotate(-45) scale(0.12 -0.12)">
       <defs>
        <path id="DejaVuSans-61" d="M 2194 1759 
Q 1497 1759 1228 1600 
Q 959 1441 959 1056 
Q 959 750 1161 570 
Q 1363 391 1709 391 
Q 2188 391 2477 730 
Q 2766 1069 2766 1631 
L 2766 1759 
L 2194 1759 
z
M 3341 1997 
L 3341 0 
L 2766 0 
L 2766 531 
Q 2569 213 2275 61 
Q 1981 -91 1556 -91 
Q 1019 -91 701 211 
Q 384 513 384 1019 
Q 384 1609 779 1909 
Q 1175 2209 1959 2209 
L 2766 2209 
L 2766 2266 
Q 2766 2663 2505 2880 
Q 2244 3097 1772 3097 
Q 1472 3097 1187 3025 
Q 903 2953 641 2809 
L 641 3341 
Q 956 3463 1253 3523 
Q 1550 3584 1831 3584 
Q 2591 3584 2966 3190 
Q 3341 2797 3341 1997 
z
" transform="scale(0.015625)"/>
       </defs>
       <use xlink:href="#DejaVuSans-4e"/>
       <use xlink:href="#DejaVuSans-65" transform="translate(74.804688 0)"/>
       <use xlink:href="#DejaVuSans-75" transform="translate(136.328125 0)"/>
       <use xlink:href="#DejaVuSans-74" transform="translate(199.707031 0)"/>
       <use xlink:href="#DejaVuSans-72" transform="translate(238.916016 0)"/>
       <use xlink:href="#DejaVuSans-61" transform="translate(280.029297 0)"/>
       <use xlink:href="#DejaVuSans-6c" transform="translate(341.308594 0)"/>
      </g>
     </g>
    </g>
    <g id="xtick_7">
     <g id="line2d_7">
      <g>
       <use xlink:href="#m1d692f518e" x="788.15875" y="333.331614" style="stroke: #000000; stroke-width: 0.8"/>
      </g>
     </g>
     <g id="text_7">
      <!-- Fist -->
      <g transform="translate(783.31551 361.148395) rotate(-45) scale(0.12 -0.12)">
       <use xlink:href="#DejaVuSans-46"/>
       <use xlink:href="#DejaVuSans-69" transform="translate(50.269531 0)"/>
       <use xlink:href="#DejaVuSans-73" transform="translate(78.052734 0)"/>
       <use xlink:href="#DejaVuSans-74" transform="translate(130.152344 0)"/>
      </g>
     </g>
    </g>
    <g id="text_8">
     <!-- TargetGesture -->
     <g transform="translate(410.037812 408.820177) scale(0.12 -0.12)">
      <use xlink:href="#DejaVuSans-54"/>
      <use xlink:href="#DejaVuSans-61" transform="translate(44.583984 0)"/>
      <use xlink:href="#DejaVuSans-72" transform="translate(105.863281 0)"/>
      <use xlink:href="#DejaVuSans-67" transform="translate(145.226562 0)"/>
      <use xlink:href="#DejaVuSans-65" transform="translate(208.703125 0)"/>
      <use xlink:href="#DejaVuSans-74" transform="translate(270.226562 0)"/>
      <use xlink:href="#DejaVuSans-47" transform="translate(309.435547 0)"/>
      <use xlink:href="#DejaVuSans-65" transform="translate(386.925781 0)"/>
      <use xlink:href="#DejaVuSans-73" transform="translate(448.449219 0)"/>
      <use xlink:href="#DejaVuSans-74" transform="translate(500.548828 0)"/>
      <use xlink:href="#DejaVuSans-75" transform="translate(539.757812 0)"/>
      <use xlink:href="#DejaVuSans-72" transform="translate(603.136719 0)"/>
      <use xlink:href="#DejaVuSans-65" transform="translate(642 0)"/>
     </g>
    </g>
   </g>
   <g id="matplotlib.axis_2">
    <g id="ytick_1">
     <g id="line2d_8">
      <defs>
       <path id="m0c4ec7ce2d" d="M 0 0 
L -3.5 0 
" style="stroke: #000000; stroke-width: 0.8"/>
      </defs>
      <g>
       <use xlink:href="#m0c4ec7ce2d" x="60.35375" y="329.763892" style="stroke: #000000; stroke-width: 0.8"/>
      </g>
     </g>
     <g id="text_9">
      <!-- 500 -->
      <g transform="translate(30.44875 334.322955) scale(0.12 -0.12)">
       <defs>
        <path id="DejaVuSans-35" d="M 691 4666 
L 3169 4666 
L 3169 4134 
L 1269 4134 
L 1269 2991 
Q 1406 3038 1543 3061 
Q 1681 3084 1819 3084 
Q 2600 3084 3056 2656 
Q 3513 2228 3513 1497 
Q 3513 744 3044 326 
Q 2575 -91 1722 -91 
Q 1428 -91 1123 -41 
Q 819 9 494 109 
L 494 744 
Q 775 591 1075 516 
Q 1375 441 1709 441 
Q 2250 441 2565 725 
Q 2881 1009 2881 1497 
Q 2881 1984 2565 2268 
Q 2250 2553 1709 2553 
Q 1456 2553 1204 2497 
Q 953 2441 691 2322 
L 691 4666 
z
" transform="scale(0.015625)"/>
        <path id="DejaVuSans-30" d="M 2034 4250 
Q 1547 4250 1301 3770 
Q 1056 3291 1056 2328 
Q 1056 1369 1301 889 
Q 1547 409 2034 409 
Q 2525 409 2770 889 
Q 3016 1369 3016 2328 
Q 3016 3291 2770 3770 
Q 2525 4250 2034 4250 
z
M 2034 4750 
Q 2819 4750 3233 4129 
Q 3647 3509 3647 2328 
Q 3647 1150 3233 529 
Q 2819 -91 2034 -91 
Q 1250 -91 836 529 
Q 422 1150 422 2328 
Q 422 3509 836 4129 
Q 1250 4750 2034 4750 
z
" transform="scale(0.015625)"/>
       </defs>
       <use xlink:href="#DejaVuSans-35"/>
       <use xlink:href="#DejaVuSans-30" transform="translate(63.623047 0)"/>
       <use xlink:href="#DejaVuSans-30" transform="translate(127.246094 0)"/>
      </g>
     </g>
    </g>
    <g id="ytick_2">
     <g id="line2d_9">
      <g>
       <use xlink:href="#m0c4ec7ce2d" x="60.35375" y="286.839414" style="stroke: #000000; stroke-width: 0.8"/>
      </g>
     </g>
     <g id="text_10">
      <!-- 1000 -->
      <g transform="translate(22.81375 291.398477) scale(0.12 -0.12)">
       <defs>
        <path id="DejaVuSans-31" d="M 794 531 
L 1825 531 
L 1825 4091 
L 703 3866 
L 703 4441 
L 1819 4666 
L 2450 4666 
L 2450 531 
L 3481 531 
L 3481 0 
L 794 0 
L 794 531 
z
" transform="scale(0.015625)"/>
       </defs>
       <use xlink:href="#DejaVuSans-31"/>
       <use xlink:href="#DejaVuSans-30" transform="translate(63.623047 0)"/>
       <use xlink:href="#DejaVuSans-30" transform="translate(127.246094 0)"/>
       <use xlink:href="#DejaVuSans-30" transform="translate(190.869141 0)"/>
      </g>
     </g>
    </g>
    <g id="ytick_3">
     <g id="line2d_10">
      <g>
       <use xlink:href="#m0c4ec7ce2d" x="60.35375" y="243.914937" style="stroke: #000000; stroke-width: 0.8"/>
      </g>
     </g>
     <g id="text_11">
      <!-- 1500 -->
      <g transform="translate(22.81375 248.473999) scale(0.12 -0.12)">
       <use xlink:href="#DejaVuSans-31"/>
       <use xlink:href="#DejaVuSans-35" transform="translate(63.623047 0)"/>
       <use xlink:href="#DejaVuSans-30" transform="translate(127.246094 0)"/>
       <use xlink:href="#DejaVuSans-30" transform="translate(190.869141 0)"/>
      </g>
     </g>
    </g>
    <g id="ytick_4">
     <g id="line2d_11">
      <g>
       <use xlink:href="#m0c4ec7ce2d" x="60.35375" y="200.990459" style="stroke: #000000; stroke-width: 0.8"/>
      </g>
     </g>
     <g id="text_12">
      <!-- 2000 -->
      <g transform="translate(22.81375 205.549521) scale(0.12 -0.12)">
       <defs>
        <path id="DejaVuSans-32" d="M 1228 531 
L 3431 531 
L 3431 0 
L 469 0 
L 469 531 
Q 828 903 1448 1529 
Q 2069 2156 2228 2338 
Q 2531 2678 2651 2914 
Q 2772 3150 2772 3378 
Q 2772 3750 2511 3984 
Q 2250 4219 1831 4219 
Q 1534 4219 1204 4116 
Q 875 4013 500 3803 
L 500 4441 
Q 881 4594 1212 4672 
Q 1544 4750 1819 4750 
Q 2544 4750 2975 4387 
Q 3406 4025 3406 3419 
Q 3406 3131 3298 2873 
Q 3191 2616 2906 2266 
Q 2828 2175 2409 1742 
Q 1991 1309 1228 531 
z
" transform="scale(0.015625)"/>
       </defs>
       <use xlink:href="#DejaVuSans-32"/>
       <use xlink:href="#DejaVuSans-30" transform="translate(63.623047 0)"/>
       <use xlink:href="#DejaVuSans-30" transform="translate(127.246094 0)"/>
       <use xlink:href="#DejaVuSans-30" transform="translate(190.869141 0)"/>
      </g>
     </g>
    </g>
    <g id="ytick_5">
     <g id="line2d_12">
      <g>
       <use xlink:href="#m0c4ec7ce2d" x="60.35375" y="158.065981" style="stroke: #000000; stroke-width: 0.8"/>
      </g>
     </g>
     <g id="text_13">
      <!-- 2500 -->
      <g transform="translate(22.81375 162.625043) scale(0.12 -0.12)">
       <use xlink:href="#DejaVuSans-32"/>
       <use xlink:href="#DejaVuSans-35" transform="translate(63.623047 0)"/>
       <use xlink:href="#DejaVuSans-30" transform="translate(127.246094 0)"/>
       <use xlink:href="#DejaVuSans-30" transform="translate(190.869141 0)"/>
      </g>
     </g>
    </g>
    <g id="ytick_6">
     <g id="line2d_13">
      <g>
       <use xlink:href="#m0c4ec7ce2d" x="60.35375" y="115.141503" style="stroke: #000000; stroke-width: 0.8"/>
      </g>
     </g>
     <g id="text_14">
      <!-- 3000 -->
      <g transform="translate(22.81375 119.700566) scale(0.12 -0.12)">
       <defs>
        <path id="DejaVuSans-33" d="M 2597 2516 
Q 3050 2419 3304 2112 
Q 3559 1806 3559 1356 
Q 3559 666 3084 287 
Q 2609 -91 1734 -91 
Q 1441 -91 1130 -33 
Q 819 25 488 141 
L 488 750 
Q 750 597 1062 519 
Q 1375 441 1716 441 
Q 2309 441 2620 675 
Q 2931 909 2931 1356 
Q 2931 1769 2642 2001 
Q 2353 2234 1838 2234 
L 1294 2234 
L 1294 2753 
L 1863 2753 
Q 2328 2753 2575 2939 
Q 2822 3125 2822 3475 
Q 2822 3834 2567 4026 
Q 2313 4219 1838 4219 
Q 1578 4219 1281 4162 
Q 984 4106 628 3988 
L 628 4550 
Q 988 4650 1302 4700 
Q 1616 4750 1894 4750 
Q 2613 4750 3031 4423 
Q 3450 4097 3450 3541 
Q 3450 3153 3228 2886 
Q 3006 2619 2597 2516 
z
" transform="scale(0.015625)"/>
       </defs>
       <use xlink:href="#DejaVuSans-33"/>
       <use xlink:href="#DejaVuSans-30" transform="translate(63.623047 0)"/>
       <use xlink:href="#DejaVuSans-30" transform="translate(127.246094 0)"/>
       <use xlink:href="#DejaVuSans-30" transform="translate(190.869141 0)"/>
      </g>
     </g>
    </g>
    <g id="ytick_7">
     <g id="line2d_14">
      <g>
       <use xlink:href="#m0c4ec7ce2d" x="60.35375" y="72.217025" style="stroke: #000000; stroke-width: 0.8"/>
      </g>
     </g>
     <g id="text_15">
      <!-- 3500 -->
      <g transform="translate(22.81375 76.776088) scale(0.12 -0.12)">
       <use xlink:href="#DejaVuSans-33"/>
       <use xlink:href="#DejaVuSans-35" transform="translate(63.623047 0)"/>
       <use xlink:href="#DejaVuSans-30" transform="translate(127.246094 0)"/>
       <use xlink:href="#DejaVuSans-30" transform="translate(190.869141 0)"/>
      </g>
     </g>
    </g>
    <g id="ytick_8">
     <g id="line2d_15">
      <g>
       <use xlink:href="#m0c4ec7ce2d" x="60.35375" y="29.292547" style="stroke: #000000; stroke-width: 0.8"/>
      </g>
     </g>
     <g id="text_16">
      <!-- 4000 -->
      <g transform="translate(22.81375 33.85161) scale(0.12 -0.12)">
       <defs>
        <path id="DejaVuSans-34" d="M 2419 4116 
L 825 1625 
L 2419 1625 
L 2419 4116 
z
M 2253 4666 
L 3047 4666 
L 3047 1625 
L 3713 1625 
L 3713 1100 
L 3047 1100 
L 3047 0 
L 2419 0 
L 2419 1100 
L 313 1100 
L 313 1709 
L 2253 4666 
z
" transform="scale(0.015625)"/>
       </defs>
       <use xlink:href="#DejaVuSans-34"/>
       <use xlink:href="#DejaVuSans-30" transform="translate(63.623047 0)"/>
       <use xlink:href="#DejaVuSans-30" transform="translate(127.246094 0)"/>
       <use xlink:href="#DejaVuSans-30" transform="translate(190.869141 0)"/>
      </g>
     </g>
    </g>
    <g id="text_17">
     <!-- Time (ms) -->
     <g transform="translate(16.318125 208.975744) rotate(-90) scale(0.12 -0.12)">
      <defs>
       <path id="DejaVuSans-20" transform="scale(0.015625)"/>
       <path id="DejaVuSans-28" d="M 1984 4856 
Q 1566 4138 1362 3434 
Q 1159 2731 1159 2009 
Q 1159 1288 1364 580 
Q 1569 -128 1984 -844 
L 1484 -844 
Q 1016 -109 783 600 
Q 550 1309 550 2009 
Q 550 2706 781 3412 
Q 1013 4119 1484 4856 
L 1984 4856 
z
" transform="scale(0.015625)"/>
       <path id="DejaVuSans-29" d="M 513 4856 
L 1013 4856 
Q 1481 4119 1714 3412 
Q 1947 2706 1947 2009 
Q 1947 1309 1714 600 
Q 1481 -109 1013 -844 
L 513 -844 
Q 928 -128 1133 580 
Q 1338 1288 1338 2009 
Q 1338 2731 1133 3434 
Q 928 4138 513 4856 
z
" transform="scale(0.015625)"/>
      </defs>
      <use xlink:href="#DejaVuSans-54"/>
      <use xlink:href="#DejaVuSans-69" transform="translate(57.958984 0)"/>
      <use xlink:href="#DejaVuSans-6d" transform="translate(85.742188 0)"/>
      <use xlink:href="#DejaVuSans-65" transform="translate(183.154297 0)"/>
      <use xlink:href="#DejaVuSans-20" transform="translate(244.677734 0)"/>
      <use xlink:href="#DejaVuSans-28" transform="translate(276.464844 0)"/>
      <use xlink:href="#DejaVuSans-6d" transform="translate(315.478516 0)"/>
      <use xlink:href="#DejaVuSans-73" transform="translate(412.890625 0)"/>
      <use xlink:href="#DejaVuSans-29" transform="translate(464.990234 0)"/>
     </g>
    </g>
   </g>
   <g id="patch_5">
    <path d="M 71.55075 289.464945 
L 116.33875 289.464945 
L 116.33875 255.618173 
L 71.55075 255.618173 
L 71.55075 289.464945 
z
" clip-path="url(#p414157ae69)" style="fill: #4ac76f; stroke: #1f1f1f; stroke-linejoin: miter"/>
   </g>
   <g id="line2d_16">
    <path d="M 93.94475 289.464945 
L 93.94475 300.765054 
" clip-path="url(#p414157ae69)" style="fill: none; stroke: #1f1f1f"/>
   </g>
   <g id="line2d_17">
    <path d="M 93.94475 255.618173 
L 93.94475 235.802573 
" clip-path="url(#p414157ae69)" style="fill: none; stroke: #1f1f1f"/>
   </g>
   <g id="line2d_18">
    <path d="M 82.74775 300.765054 
L 105.14175 300.765054 
" clip-path="url(#p414157ae69)" style="fill: none; stroke: #1f1f1f; stroke-linecap: square"/>
   </g>
   <g id="line2d_19">
    <path d="M 82.74775 235.802573 
L 105.14175 235.802573 
" clip-path="url(#p414157ae69)" style="fill: none; stroke: #1f1f1f; stroke-linecap: square"/>
   </g>
   <g id="line2d_20">
    <defs>
     <path id="m6f8a7262f9" d="M 0 3 
C 0.795609 3 1.55874 2.683901 2.12132 2.12132 
C 2.683901 1.55874 3 0.795609 3 0 
C 3 -0.795609 2.683901 -1.55874 2.12132 -2.12132 
C 1.55874 -2.683901 0.795609 -3 0 -3 
C -0.795609 -3 -1.55874 -2.683901 -2.12132 -2.12132 
C -2.683901 -1.55874 -3 -0.795609 -3 0 
C -3 0.795609 -2.683901 1.55874 -2.12132 2.12132 
C -1.55874 2.683901 -0.795609 3 0 3 
z
" style="stroke: #1f1f1f"/>
    </defs>
    <g clip-path="url(#p414157ae69)">
     <use xlink:href="#m6f8a7262f9" x="93.94475" y="134.193452" style="fill-opacity: 0; stroke: #1f1f1f"/>
     <use xlink:href="#m6f8a7262f9" x="93.94475" y="200.787294" style="fill-opacity: 0; stroke: #1f1f1f"/>
    </g>
   </g>
   <g id="patch_6">
    <path d="M 183.52075 291.50282 
L 228.30875 291.50282 
L 228.30875 279.090194 
L 183.52075 279.090194 
L 183.52075 291.50282 
z
" clip-path="url(#p414157ae69)" style="fill: #4ac76f; stroke: #1f1f1f; stroke-linejoin: miter"/>
   </g>
   <g id="line2d_21">
    <path d="M 205.91475 291.50282 
L 205.91475 304.022084 
" clip-path="url(#p414157ae69)" style="fill: none; stroke: #1f1f1f"/>
   </g>
   <g id="line2d_22">
    <path d="M 205.91475 279.090194 
L 205.91475 270.018516 
" clip-path="url(#p414157ae69)" style="fill: none; stroke: #1f1f1f"/>
   </g>
   <g id="line2d_23">
    <path d="M 194.71775 304.022084 
L 217.11175 304.022084 
" clip-path="url(#p414157ae69)" style="fill: none; stroke: #1f1f1f; stroke-linecap: square"/>
   </g>
   <g id="line2d_24">
    <path d="M 194.71775 270.018516 
L 217.11175 270.018516 
" clip-path="url(#p414157ae69)" style="fill: none; stroke: #1f1f1f; stroke-linecap: square"/>
   </g>
   <g id="line2d_25">
    <g clip-path="url(#p414157ae69)">
     <use xlink:href="#m6f8a7262f9" x="205.91475" y="159.418383" style="fill-opacity: 0; stroke: #1f1f1f"/>
    </g>
   </g>
   <g id="patch_7">
    <path d="M 295.49075 288.423468 
L 340.27875 288.423468 
L 340.27875 256.089663 
L 295.49075 256.089663 
L 295.49075 288.423468 
z
" clip-path="url(#p414157ae69)" style="fill: #4ac76f; stroke: #1f1f1f; stroke-linejoin: miter"/>
   </g>
   <g id="line2d_26">
    <path d="M 317.88475 288.423468 
L 317.88475 298.142819 
" clip-path="url(#p414157ae69)" style="fill: none; stroke: #1f1f1f"/>
   </g>
   <g id="line2d_27">
    <path d="M 317.88475 256.089663 
L 317.88475 218.662088 
" clip-path="url(#p414157ae69)" style="fill: none; stroke: #1f1f1f"/>
   </g>
   <g id="line2d_28">
    <path d="M 306.68775 298.142819 
L 329.08175 298.142819 
" clip-path="url(#p414157ae69)" style="fill: none; stroke: #1f1f1f; stroke-linecap: square"/>
   </g>
   <g id="line2d_29">
    <path d="M 306.68775 218.662088 
L 329.08175 218.662088 
" clip-path="url(#p414157ae69)" style="fill: none; stroke: #1f1f1f; stroke-linecap: square"/>
   </g>
   <g id="line2d_30">
    <g clip-path="url(#p414157ae69)">
     <use xlink:href="#m6f8a7262f9" x="317.88475" y="160.56328" style="fill-opacity: 0; stroke: #1f1f1f"/>
     <use xlink:href="#m6f8a7262f9" x="317.88475" y="198.232746" style="fill-opacity: 0; stroke: #1f1f1f"/>
    </g>
   </g>
   <g id="patch_8">
    <path d="M 407.46075 291.392579 
L 452.24875 291.392579 
L 452.24875 259.854657 
L 407.46075 259.854657 
L 407.46075 291.392579 
z
" clip-path="url(#p414157ae69)" style="fill: #4ac76f; stroke: #1f1f1f; stroke-linejoin: miter"/>
   </g>
   <g id="line2d_31">
    <path d="M 429.85475 291.392579 
L 429.85475 299.450723 
" clip-path="url(#p414157ae69)" style="fill: none; stroke: #1f1f1f"/>
   </g>
   <g id="line2d_32">
    <path d="M 429.85475 259.854657 
L 429.85475 216.863136 
" clip-path="url(#p414157ae69)" style="fill: none; stroke: #1f1f1f"/>
   </g>
   <g id="line2d_33">
    <path d="M 418.65775 299.450723 
L 441.05175 299.450723 
" clip-path="url(#p414157ae69)" style="fill: none; stroke: #1f1f1f; stroke-linecap: square"/>
   </g>
   <g id="line2d_34">
    <path d="M 418.65775 216.863136 
L 441.05175 216.863136 
" clip-path="url(#p414157ae69)" style="fill: none; stroke: #1f1f1f; stroke-linecap: square"/>
   </g>
   <g id="line2d_35">
    <g clip-path="url(#p414157ae69)">
     <use xlink:href="#m6f8a7262f9" x="429.85475" y="81.02309" style="fill-opacity: 0; stroke: #1f1f1f"/>
     <use xlink:href="#m6f8a7262f9" x="429.85475" y="38.195835" style="fill-opacity: 0; stroke: #1f1f1f"/>
     <use xlink:href="#m6f8a7262f9" x="429.85475" y="112.203426" style="fill-opacity: 0; stroke: #1f1f1f"/>
    </g>
   </g>
   <g id="patch_9">
    <path d="M 519.43075 287.457486 
L 564.21875 287.457486 
L 564.21875 271.64261 
L 519.43075 271.64261 
L 519.43075 287.457486 
z
" clip-path="url(#p414157ae69)" style="fill: #4ac76f; stroke: #1f1f1f; stroke-linejoin: miter"/>
   </g>
   <g id="line2d_36">
    <path d="M 541.82475 287.457486 
L 541.82475 290.363572 
" clip-path="url(#p414157ae69)" style="fill: none; stroke: #1f1f1f"/>
   </g>
   <g id="line2d_37">
    <path d="M 541.82475 271.64261 
L 541.82475 271.64261 
" clip-path="url(#p414157ae69)" style="fill: none; stroke: #1f1f1f"/>
   </g>
   <g id="line2d_38">
    <path d="M 530.62775 290.363572 
L 553.02175 290.363572 
" clip-path="url(#p414157ae69)" style="fill: none; stroke: #1f1f1f; stroke-linecap: square"/>
   </g>
   <g id="line2d_39">
    <path d="M 530.62775 271.64261 
L 553.02175 271.64261 
" clip-path="url(#p414157ae69)" style="fill: none; stroke: #1f1f1f; stroke-linecap: square"/>
   </g>
   <g id="line2d_40">
    <g clip-path="url(#p414157ae69)">
     <use xlink:href="#m6f8a7262f9" x="541.82475" y="242.074025" style="fill-opacity: 0; stroke: #1f1f1f"/>
    </g>
   </g>
   <g id="patch_10">
    <path d="M 631.40075 298.235488 
L 676.18875 298.235488 
L 676.18875 283.843914 
L 631.40075 283.843914 
L 631.40075 298.235488 
z
" clip-path="url(#p414157ae69)" style="fill: #4ac76f; stroke: #1f1f1f; stroke-linejoin: miter"/>
   </g>
   <g id="line2d_41">
    <path d="M 653.79475 298.235488 
L 653.79475 300.594802 
" clip-path="url(#p414157ae69)" style="fill: none; stroke: #1f1f1f"/>
   </g>
   <g id="line2d_42">
    <path d="M 653.79475 283.843914 
L 653.79475 262.58438 
" clip-path="url(#p414157ae69)" style="fill: none; stroke: #1f1f1f"/>
   </g>
   <g id="line2d_43">
    <path d="M 642.59775 300.594802 
L 664.99175 300.594802 
" clip-path="url(#p414157ae69)" style="fill: none; stroke: #1f1f1f; stroke-linecap: square"/>
   </g>
   <g id="line2d_44">
    <path d="M 642.59775 262.58438 
L 664.99175 262.58438 
" clip-path="url(#p414157ae69)" style="fill: none; stroke: #1f1f1f; stroke-linecap: square"/>
   </g>
   <g id="line2d_45"/>
   <g id="patch_11">
    <path d="M 743.37075 294.077984 
L 788.15875 294.077984 
L 788.15875 277.918908 
L 743.37075 277.918908 
L 743.37075 294.077984 
z
" clip-path="url(#p414157ae69)" style="fill: #4ac76f; stroke: #1f1f1f; stroke-linejoin: miter"/>
   </g>
   <g id="line2d_46">
    <path d="M 765.76475 294.077984 
L 765.76475 295.391205 
" clip-path="url(#p414157ae69)" style="fill: none; stroke: #1f1f1f"/>
   </g>
   <g id="line2d_47">
    <path d="M 765.76475 277.918908 
L 765.76475 254.232357 
" clip-path="url(#p414157ae69)" style="fill: none; stroke: #1f1f1f"/>
   </g>
   <g id="line2d_48">
    <path d="M 754.56775 295.391205 
L 776.96175 295.391205 
" clip-path="url(#p414157ae69)" style="fill: none; stroke: #1f1f1f; stroke-linecap: square"/>
   </g>
   <g id="line2d_49">
    <path d="M 754.56775 254.232357 
L 776.96175 254.232357 
" clip-path="url(#p414157ae69)" style="fill: none; stroke: #1f1f1f; stroke-linecap: square"/>
   </g>
   <g id="line2d_50"/>
   <g id="patch_12">
    <path d="M 116.33875 302.920927 
L 161.12675 302.920927 
L 161.12675 297.823641 
L 116.33875 297.823641 
L 116.33875 302.920927 
z
" clip-path="url(#p414157ae69)" style="fill: #207cdf; stroke: #1f1f1f; stroke-linejoin: miter"/>
   </g>
   <g id="line2d_51">
    <path d="M 138.73275 302.920927 
L 138.73275 305.623028 
" clip-path="url(#p414157ae69)" style="fill: none; stroke: #1f1f1f"/>
   </g>
   <g id="line2d_52">
    <path d="M 138.73275 297.823641 
L 138.73275 295.171154 
" clip-path="url(#p414157ae69)" style="fill: none; stroke: #1f1f1f"/>
   </g>
   <g id="line2d_53">
    <path d="M 127.53575 305.623028 
L 149.92975 305.623028 
" clip-path="url(#p414157ae69)" style="fill: none; stroke: #1f1f1f; stroke-linecap: square"/>
   </g>
   <g id="line2d_54">
    <path d="M 127.53575 295.171154 
L 149.92975 295.171154 
" clip-path="url(#p414157ae69)" style="fill: none; stroke: #1f1f1f; stroke-linecap: square"/>
   </g>
   <g id="line2d_55"/>
   <g id="patch_13">
    <path d="M 228.30875 300.134272 
L 273.09675 300.134272 
L 273.09675 296.170565 
L 228.30875 296.170565 
L 228.30875 300.134272 
z
" clip-path="url(#p414157ae69)" style="fill: #207cdf; stroke: #1f1f1f; stroke-linejoin: miter"/>
   </g>
   <g id="line2d_56">
    <path d="M 250.70275 300.134272 
L 250.70275 303.094229 
" clip-path="url(#p414157ae69)" style="fill: none; stroke: #1f1f1f"/>
   </g>
   <g id="line2d_57">
    <path d="M 250.70275 296.170565 
L 250.70275 293.740605 
" clip-path="url(#p414157ae69)" style="fill: none; stroke: #1f1f1f"/>
   </g>
   <g id="line2d_58">
    <path d="M 239.50575 303.094229 
L 261.89975 303.094229 
" clip-path="url(#p414157ae69)" style="fill: none; stroke: #1f1f1f; stroke-linecap: square"/>
   </g>
   <g id="line2d_59">
    <path d="M 239.50575 293.740605 
L 261.89975 293.740605 
" clip-path="url(#p414157ae69)" style="fill: none; stroke: #1f1f1f; stroke-linecap: square"/>
   </g>
   <g id="line2d_60">
    <g clip-path="url(#p414157ae69)">
     <use xlink:href="#m6f8a7262f9" x="250.70275" y="264.710062" style="fill-opacity: 0; stroke: #1f1f1f"/>
     <use xlink:href="#m6f8a7262f9" x="250.70275" y="287.325386" style="fill-opacity: 0; stroke: #1f1f1f"/>
    </g>
   </g>
   <g id="patch_14">
    <path d="M 340.27875 312.774471 
L 385.06675 312.774471 
L 385.06675 305.939714 
L 340.27875 305.939714 
L 340.27875 312.774471 
z
" clip-path="url(#p414157ae69)" style="fill: #207cdf; stroke: #1f1f1f; stroke-linejoin: miter"/>
   </g>
   <g id="line2d_61">
    <path d="M 362.67275 312.774471 
L 362.67275 319.277529 
" clip-path="url(#p414157ae69)" style="fill: none; stroke: #1f1f1f"/>
   </g>
   <g id="line2d_62">
    <path d="M 362.67275 305.939714 
L 362.67275 305.401585 
" clip-path="url(#p414157ae69)" style="fill: none; stroke: #1f1f1f"/>
   </g>
   <g id="line2d_63">
    <path d="M 351.47575 319.277529 
L 373.86975 319.277529 
" clip-path="url(#p414157ae69)" style="fill: none; stroke: #1f1f1f; stroke-linecap: square"/>
   </g>
   <g id="line2d_64">
    <path d="M 351.47575 305.401585 
L 373.86975 305.401585 
" clip-path="url(#p414157ae69)" style="fill: none; stroke: #1f1f1f; stroke-linecap: square"/>
   </g>
   <g id="line2d_65"/>
   <g id="patch_15">
    <path d="M 452.24875 305.908506 
L 497.03675 305.908506 
L 497.03675 300.658948 
L 452.24875 300.658948 
L 452.24875 305.908506 
z
" clip-path="url(#p414157ae69)" style="fill: #207cdf; stroke: #1f1f1f; stroke-linejoin: miter"/>
   </g>
   <g id="line2d_66">
    <path d="M 474.64275 305.908506 
L 474.64275 310.61605 
" clip-path="url(#p414157ae69)" style="fill: none; stroke: #1f1f1f"/>
   </g>
   <g id="line2d_67">
    <path d="M 474.64275 300.658948 
L 474.64275 295.522016 
" clip-path="url(#p414157ae69)" style="fill: none; stroke: #1f1f1f"/>
   </g>
   <g id="line2d_68">
    <path d="M 463.44575 310.61605 
L 485.83975 310.61605 
" clip-path="url(#p414157ae69)" style="fill: none; stroke: #1f1f1f; stroke-linecap: square"/>
   </g>
   <g id="line2d_69">
    <path d="M 463.44575 295.522016 
L 485.83975 295.522016 
" clip-path="url(#p414157ae69)" style="fill: none; stroke: #1f1f1f; stroke-linecap: square"/>
   </g>
   <g id="line2d_70">
    <g clip-path="url(#p414157ae69)">
     <use xlink:href="#m6f8a7262f9" x="474.64275" y="314.410835" style="fill-opacity: 0; stroke: #1f1f1f"/>
     <use xlink:href="#m6f8a7262f9" x="474.64275" y="291.345728" style="fill-opacity: 0; stroke: #1f1f1f"/>
     <use xlink:href="#m6f8a7262f9" x="474.64275" y="290.852409" style="fill-opacity: 0; stroke: #1f1f1f"/>
    </g>
   </g>
   <g id="patch_16">
    <path d="M 564.21875 295.910232 
L 609.00675 295.910232 
L 609.00675 285.431862 
L 564.21875 285.431862 
L 564.21875 295.910232 
z
" clip-path="url(#p414157ae69)" style="fill: #207cdf; stroke: #1f1f1f; stroke-linejoin: miter"/>
   </g>
   <g id="line2d_71">
    <path d="M 586.61275 295.910232 
L 586.61275 302.821493 
" clip-path="url(#p414157ae69)" style="fill: none; stroke: #1f1f1f"/>
   </g>
   <g id="line2d_72">
    <path d="M 586.61275 285.431862 
L 586.61275 273.748827 
" clip-path="url(#p414157ae69)" style="fill: none; stroke: #1f1f1f"/>
   </g>
   <g id="line2d_73">
    <path d="M 575.41575 302.821493 
L 597.80975 302.821493 
" clip-path="url(#p414157ae69)" style="fill: none; stroke: #1f1f1f; stroke-linecap: square"/>
   </g>
   <g id="line2d_74">
    <path d="M 575.41575 273.748827 
L 597.80975 273.748827 
" clip-path="url(#p414157ae69)" style="fill: none; stroke: #1f1f1f; stroke-linecap: square"/>
   </g>
   <g id="line2d_75">
    <g clip-path="url(#p414157ae69)">
     <use xlink:href="#m6f8a7262f9" x="586.61275" y="313.432752" style="fill-opacity: 0; stroke: #1f1f1f"/>
    </g>
   </g>
   <g id="patch_17">
    <path d="M 676.18875 291.869755 
L 720.97675 291.869755 
L 720.97675 273.963168 
L 676.18875 273.963168 
L 676.18875 291.869755 
z
" clip-path="url(#p414157ae69)" style="fill: #207cdf; stroke: #1f1f1f; stroke-linejoin: miter"/>
   </g>
   <g id="line2d_76">
    <path d="M 698.58275 291.869755 
L 698.58275 305.176642 
" clip-path="url(#p414157ae69)" style="fill: none; stroke: #1f1f1f"/>
   </g>
   <g id="line2d_77">
    <path d="M 698.58275 273.963168 
L 698.58275 273.963168 
" clip-path="url(#p414157ae69)" style="fill: none; stroke: #1f1f1f"/>
   </g>
   <g id="line2d_78">
    <path d="M 687.38575 305.176642 
L 709.77975 305.176642 
" clip-path="url(#p414157ae69)" style="fill: none; stroke: #1f1f1f; stroke-linecap: square"/>
   </g>
   <g id="line2d_79">
    <path d="M 687.38575 273.963168 
L 709.77975 273.963168 
" clip-path="url(#p414157ae69)" style="fill: none; stroke: #1f1f1f; stroke-linecap: square"/>
   </g>
   <g id="line2d_80">
    <g clip-path="url(#p414157ae69)">
     <use xlink:href="#m6f8a7262f9" x="698.58275" y="237.133443" style="fill-opacity: 0; stroke: #1f1f1f"/>
     <use xlink:href="#m6f8a7262f9" x="698.58275" y="193.64718" style="fill-opacity: 0; stroke: #1f1f1f"/>
     <use xlink:href="#m6f8a7262f9" x="698.58275" y="197.657984" style="fill-opacity: 0; stroke: #1f1f1f"/>
    </g>
   </g>
   <g id="patch_18">
    <path d="M 788.15875 299.127789 
L 832.94675 299.127789 
L 832.94675 283.505369 
L 788.15875 283.505369 
L 788.15875 299.127789 
z
" clip-path="url(#p414157ae69)" style="fill: #207cdf; stroke: #1f1f1f; stroke-linejoin: miter"/>
   </g>
   <g id="line2d_81">
    <path d="M 810.55275 299.127789 
L 810.55275 302.776525 
" clip-path="url(#p414157ae69)" style="fill: none; stroke: #1f1f1f"/>
   </g>
   <g id="line2d_82">
    <path d="M 810.55275 283.505369 
L 810.55275 273.735912 
" clip-path="url(#p414157ae69)" style="fill: none; stroke: #1f1f1f"/>
   </g>
   <g id="line2d_83">
    <path d="M 799.35575 302.776525 
L 821.74975 302.776525 
" clip-path="url(#p414157ae69)" style="fill: none; stroke: #1f1f1f; stroke-linecap: square"/>
   </g>
   <g id="line2d_84">
    <path d="M 799.35575 273.735912 
L 821.74975 273.735912 
" clip-path="url(#p414157ae69)" style="fill: none; stroke: #1f1f1f; stroke-linecap: square"/>
   </g>
   <g id="line2d_85"/>
   <g id="line2d_86">
    <path d="M 71.55075 279.50637 
L 116.33875 279.50637 
" clip-path="url(#p414157ae69)" style="fill: none; stroke: #1f1f1f"/>
   </g>
   <g id="line2d_87">
    <path d="M 183.52075 282.691106 
L 228.30875 282.691106 
" clip-path="url(#p414157ae69)" style="fill: none; stroke: #1f1f1f"/>
   </g>
   <g id="line2d_88">
    <path d="M 295.49075 273.910525 
L 340.27875 273.910525 
" clip-path="url(#p414157ae69)" style="fill: none; stroke: #1f1f1f"/>
   </g>
   <g id="line2d_89">
    <path d="M 407.46075 285.515412 
L 452.24875 285.515412 
" clip-path="url(#p414157ae69)" style="fill: none; stroke: #1f1f1f"/>
   </g>
   <g id="line2d_90">
    <path d="M 519.43075 283.865703 
L 564.21875 283.865703 
" clip-path="url(#p414157ae69)" style="fill: none; stroke: #1f1f1f"/>
   </g>
   <g id="line2d_91">
    <path d="M 631.40075 291.153493 
L 676.18875 291.153493 
" clip-path="url(#p414157ae69)" style="fill: none; stroke: #1f1f1f"/>
   </g>
   <g id="line2d_92">
    <path d="M 743.37075 283.292712 
L 788.15875 283.292712 
" clip-path="url(#p414157ae69)" style="fill: none; stroke: #1f1f1f"/>
   </g>
   <g id="line2d_93">
    <path d="M 116.33875 300.120374 
L 161.12675 300.120374 
" clip-path="url(#p414157ae69)" style="fill: none; stroke: #1f1f1f"/>
   </g>
   <g id="line2d_94">
    <path d="M 228.30875 298.139442 
L 273.09675 298.139442 
" clip-path="url(#p414157ae69)" style="fill: none; stroke: #1f1f1f"/>
   </g>
   <g id="line2d_95">
    <path d="M 340.27875 307.64415 
L 385.06675 307.64415 
" clip-path="url(#p414157ae69)" style="fill: none; stroke: #1f1f1f"/>
   </g>
   <g id="line2d_96">
    <path d="M 452.24875 303.517824 
L 497.03675 303.517824 
" clip-path="url(#p414157ae69)" style="fill: none; stroke: #1f1f1f"/>
   </g>
   <g id="line2d_97">
    <path d="M 564.21875 292.589424 
L 609.00675 292.589424 
" clip-path="url(#p414157ae69)" style="fill: none; stroke: #1f1f1f"/>
   </g>
   <g id="line2d_98">
    <path d="M 676.18875 284.676204 
L 720.97675 284.676204 
" clip-path="url(#p414157ae69)" style="fill: none; stroke: #1f1f1f"/>
   </g>
   <g id="line2d_99">
    <path d="M 788.15875 294.5049 
L 832.94675 294.5049 
" clip-path="url(#p414157ae69)" style="fill: none; stroke: #1f1f1f"/>
   </g>
   <g id="patch_19">
    <path d="M 60.35375 333.331614 
L 60.35375 24.14175 
" style="fill: none; stroke: #000000; stroke-width: 0.8; stroke-linejoin: miter; stroke-linecap: square"/>
   </g>
   <g id="patch_20">
    <path d="M 844.14375 333.331614 
L 844.14375 24.14175 
" style="fill: none; stroke: #000000; stroke-width: 0.8; stroke-linejoin: miter; stroke-linecap: square"/>
   </g>
   <g id="patch_21">
    <path d="M 60.35375 333.331614 
L 844.14375 333.331614 
" style="fill: none; stroke: #000000; stroke-width: 0.8; stroke-linejoin: miter; stroke-linecap: square"/>
   </g>
   <g id="patch_22">
    <path d="M 60.35375 24.14175 
L 844.14375 24.14175 
" style="fill: none; stroke: #000000; stroke-width: 0.8; stroke-linejoin: miter; stroke-linecap: square"/>
   </g>
   <g id="text_18">
    <!-- Reaction Time by Gesture Type -->
    <g transform="translate(340.4665 18.14175) scale(0.144 -0.144)">
     <use xlink:href="#DejaVuSans-52"/>
     <use xlink:href="#DejaVuSans-65" transform="translate(64.982422 0)"/>
     <use xlink:href="#DejaVuSans-61" transform="translate(126.505859 0)"/>
     <use xlink:href="#DejaVuSans-63" transform="translate(187.785156 0)"/>
     <use xlink:href="#DejaVuSans-74" transform="translate(242.765625 0)"/>
     <use xlink:href="#DejaVuSans-69" transform="translate(281.974609 0)"/>
     <use xlink:href="#DejaVuSans-6f" transform="translate(309.757812 0)"/>
     <use xlink:href="#DejaVuSans-6e" transform="translate(370.939453 0)"/>
     <use xlink:href="#DejaVuSans-20" transform="translate(434.318359 0)"/>
     <use xlink:href="#DejaVuSans-54" transform="translate(466.105469 0)"/>
     <use xlink:href="#DejaVuSans-69" transform="translate(524.064453 0)"/>
     <use xlink:href="#DejaVuSans-6d" transform="translate(551.847656 0)"/>
     <use xlink:href="#DejaVuSans-65" transform="translate(649.259766 0)"/>
     <use xlink:href="#DejaVuSans-20" transform="translate(710.783203 0)"/>
     <use xlink:href="#DejaVuSans-62" transform="translate(742.570312 0)"/>
     <use xlink:href="#DejaVuSans-79" transform="translate(806.046875 0)"/>
     <use xlink:href="#DejaVuSans-20" transform="translate(865.226562 0)"/>
     <use xlink:href="#DejaVuSans-47" transform="translate(897.013672 0)"/>
     <use xlink:href="#DejaVuSans-65" transform="translate(974.503906 0)"/>
     <use xlink:href="#DejaVuSans-73" transform="translate(1036.027344 0)"/>
     <use xlink:href="#DejaVuSans-74" transform="translate(1088.126953 0)"/>
     <use xlink:href="#DejaVuSans-75" transform="translate(1127.335938 0)"/>
     <use xlink:href="#DejaVuSans-72" transform="translate(1190.714844 0)"/>
     <use xlink:href="#DejaVuSans-65" transform="translate(1229.578125 0)"/>
     <use xlink:href="#DejaVuSans-20" transform="translate(1291.101562 0)"/>
     <use xlink:href="#DejaVuSans-54" transform="translate(1322.888672 0)"/>
     <use xlink:href="#DejaVuSans-79" transform="translate(1368.347656 0)"/>
     <use xlink:href="#DejaVuSans-70" transform="translate(1427.527344 0)"/>
     <use xlink:href="#DejaVuSans-65" transform="translate(1491.003906 0)"/>
    </g>
   </g>
   <g id="legend_1">
    <g id="patch_23">
     <path d="M 738.3225 86.583 
L 835.74375 86.583 
Q 838.14375 86.583 838.14375 84.183 
L 838.14375 32.54175 
Q 838.14375 30.14175 835.74375 30.14175 
L 738.3225 30.14175 
Q 735.9225 30.14175 735.9225 32.54175 
L 735.9225 84.183 
Q 735.9225 86.583 738.3225 86.583 
z
" style="fill: #ffffff; opacity: 0.8; stroke: #cccccc; stroke-linejoin: miter"/>
    </g>
    <g id="text_19">
     <!-- Condition -->
     <g transform="translate(758.400937 44.059875) scale(0.12 -0.12)">
      <defs>
       <path id="DejaVuSans-43" d="M 4122 4306 
L 4122 3641 
Q 3803 3938 3442 4084 
Q 3081 4231 2675 4231 
Q 1875 4231 1450 3742 
Q 1025 3253 1025 2328 
Q 1025 1406 1450 917 
Q 1875 428 2675 428 
Q 3081 428 3442 575 
Q 3803 722 4122 1019 
L 4122 359 
Q 3791 134 3420 21 
Q 3050 -91 2638 -91 
Q 1578 -91 968 557 
Q 359 1206 359 2328 
Q 359 3453 968 4101 
Q 1578 4750 2638 4750 
Q 3056 4750 3426 4639 
Q 3797 4528 4122 4306 
z
" transform="scale(0.015625)"/>
       <path id="DejaVuSans-64" d="M 2906 2969 
L 2906 4863 
L 3481 4863 
L 3481 0 
L 2906 0 
L 2906 525 
Q 2725 213 2448 61 
Q 2172 -91 1784 -91 
Q 1150 -91 751 415 
Q 353 922 353 1747 
Q 353 2572 751 3078 
Q 1150 3584 1784 3584 
Q 2172 3584 2448 3432 
Q 2725 3281 2906 2969 
z
M 947 1747 
Q 947 1113 1208 752 
Q 1469 391 1925 391 
Q 2381 391 2643 752 
Q 2906 1113 2906 1747 
Q 2906 2381 2643 2742 
Q 2381 3103 1925 3103 
Q 1469 3103 1208 2742 
Q 947 2381 947 1747 
z
" transform="scale(0.015625)"/>
      </defs>
      <use xlink:href="#DejaVuSans-43"/>
      <use xlink:href="#DejaVuSans-6f" transform="translate(69.824219 0)"/>
      <use xlink:href="#DejaVuSans-6e" transform="translate(131.005859 0)"/>
      <use xlink:href="#DejaVuSans-64" transform="translate(194.384766 0)"/>
      <use xlink:href="#DejaVuSans-69" transform="translate(257.861328 0)"/>
      <use xlink:href="#DejaVuSans-74" transform="translate(285.644531 0)"/>
      <use xlink:href="#DejaVuSans-69" transform="translate(324.853516 0)"/>
      <use xlink:href="#DejaVuSans-6f" transform="translate(352.636719 0)"/>
      <use xlink:href="#DejaVuSans-6e" transform="translate(413.818359 0)"/>
     </g>
    </g>
    <g id="patch_24">
     <path d="M 740.7225 61.673625 
L 764.7225 61.673625 
L 764.7225 53.273625 
L 740.7225 53.273625 
z
" style="fill: #4ac76f; stroke: #1f1f1f; stroke-linejoin: miter"/>
    </g>
    <g id="text_20">
     <!-- Proposed -->
     <g transform="translate(774.3225 61.673625) scale(0.12 -0.12)">
      <use xlink:href="#DejaVuSans-50"/>
      <use xlink:href="#DejaVuSans-72" transform="translate(58.552734 0)"/>
      <use xlink:href="#DejaVuSans-6f" transform="translate(97.416016 0)"/>
      <use xlink:href="#DejaVuSans-70" transform="translate(158.597656 0)"/>
      <use xlink:href="#DejaVuSans-6f" transform="translate(222.074219 0)"/>
      <use xlink:href="#DejaVuSans-73" transform="translate(283.255859 0)"/>
      <use xlink:href="#DejaVuSans-65" transform="translate(335.355469 0)"/>
      <use xlink:href="#DejaVuSans-64" transform="translate(396.878906 0)"/>
     </g>
    </g>
    <g id="patch_25">
     <path d="M 740.7225 79.287375 
L 764.7225 79.287375 
L 764.7225 70.887375 
L 740.7225 70.887375 
z
" style="fill: #207cdf; stroke: #1f1f1f; stroke-linejoin: miter"/>
    </g>
    <g id="text_21">
     <!-- Controller -->
     <g transform="translate(774.3225 79.287375) scale(0.12 -0.12)">
      <use xlink:href="#DejaVuSans-43"/>
      <use xlink:href="#DejaVuSans-6f" transform="translate(69.824219 0)"/>
      <use xlink:href="#DejaVuSans-6e" transform="translate(131.005859 0)"/>
      <use xlink:href="#DejaVuSans-74" transform="translate(194.384766 0)"/>
      <use xlink:href="#DejaVuSans-72" transform="translate(233.59375 0)"/>
      <use xlink:href="#DejaVuSans-6f" transform="translate(272.457031 0)"/>
      <use xlink:href="#DejaVuSans-6c" transform="translate(333.638672 0)"/>
      <use xlink:href="#DejaVuSans-6c" transform="translate(361.421875 0)"/>
      <use xlink:href="#DejaVuSans-65" transform="translate(389.205078 0)"/>
      <use xlink:href="#DejaVuSans-72" transform="translate(450.728516 0)"/>
     </g>
    </g>
   </g>
  </g>
 </g>
 <defs>
  <clipPath id="p414157ae69">
   <rect x="60.35375" y="24.14175" width="783.79" height="309.189864"/>
  </clipPath>
 </defs>
</svg>
