<?xml version="1.0" encoding="utf-8" standalone="no"?>
<!DOCTYPE svg PUBLIC "-//W3C//DTD SVG 1.1//EN"
  "http://www.w3.org/Graphics/SVG/1.1/DTD/svg11.dtd">
<svg xmlns:xlink="http://www.w3.org/1999/xlink" width="633.18875pt" height="398.20925pt" viewBox="0 0 633.18875 398.20925" xmlns="http://www.w3.org/2000/svg" version="1.1">
 <metadata>
  <rdf:RDF xmlns:dc="http://purl.org/dc/elements/1.1/" xmlns:cc="http://creativecommons.org/ns#" xmlns:rdf="http://www.w3.org/1999/02/22-rdf-syntax-ns#">
   <cc:Work>
    <dc:type rdf:resource="http://purl.org/dc/dcmitype/StillImage"/>
    <dc:date>2026-01-18T16:23:05.979316</dc:date>
    <dc:format>image/svg+xml</dc:format>
    <dc:creator>
     <cc:Agent>
      <dc:title>Matplotlib v3.10.8, https://matplotlib.org/</dc:title>
     </cc:Agent>
    </dc:creator>
   </cc:Work>
  </rdf:RDF>
 </metadata>
 <defs>
  <style type="text/css">*{stroke-linejoin: round; stroke-linecap: butt}</style>
 </defs>
 <g id="figure_1">
  <g id="patch_1">
   <path d="M 0 398.20925 
L 633.18875 398.20925 
L 633.18875 0 
L 0 0 
z
" style="fill: #ffffff"/>
  </g>
  <g id="axes_1">
   <g id="patch_2">
    <path d="M 67.98875 356.78175 
L 625.98875 356.78175 
L 625.98875 24.14175 
L 67.98875 24.14175 
z
" style="fill: #ffffff"/>
   </g>
   <g id="FillBetweenPolyCollection_1">
    <path d="M 93.352386 216.674977 
L 93.352386 308.017981 
L 98.476353 285.218372 
L 103.60032 298.615462 
L 108.724287 295.165319 
L 113.848254 287.895047 
L 118.972221 288.771305 
L 124.096188 285.177133 
L 129.220155 282.857766 
L 134.344122 291.402506 
L 139.468089 283.28007 
L 144.592056 287.877127 
L 149.716023 278.363443 
L 154.83999 286.019694 
L 159.963957 288.049033 
L 165.087924 287.63912 
L 170.21189 294.211156 
L 175.335857 287.061311 
L 180.459824 287.701836 
L 185.583791 288.827156 
L 190.707758 289.636397 
L 195.831725 289.904288 
L 200.955692 289.163458 
L 206.079659 301.764602 
L 206.079659 228.519716 
L 206.079659 228.519716 
L 200.955692 187.005125 
L 195.831725 253.500191 
L 190.707758 275.891079 
L 185.583791 274.687131 
L 180.459824 279.257836 
L 175.335857 273.450441 
L 170.21189 265.151112 
L 165.087924 278.342701 
L 159.963957 280.730583 
L 154.83999 282.985299 
L 149.716023 267.589865 
L 144.592056 274.061091 
L 139.468089 268.075624 
L 134.344122 265.135649 
L 129.220155 270.324724 
L 124.096188 266.564781 
L 118.972221 267.25845 
L 113.848254 276.176255 
L 108.724287 245.940086 
L 103.60032 253.409582 
L 98.476353 281.090996 
L 93.352386 216.674977 
z
" clip-path="url(#p68433cb4c6)" style="fill: #35dc67; fill-opacity: 0.2; stroke: #35dc67; stroke-opacity: 0.2"/>
    <path d="M 216.327593 266.491758 
L 216.327593 289.723507 
L 221.45156 285.566147 
L 226.575527 288.97283 
L 231.699494 289.867591 
L 236.823461 288.19861 
L 241.947428 286.705957 
L 247.071395 289.740596 
L 252.195362 287.258834 
L 257.319329 283.090918 
L 262.443295 287.202792 
L 267.567262 286.095944 
L 272.691229 285.660447 
L 277.815196 301.578243 
L 282.939163 297.110384 
L 288.06313 286.297826 
L 293.187097 295.812545 
L 298.311064 285.232078 
L 303.435031 286.568287 
L 308.558998 287.042836 
L 313.682965 285.796632 
L 318.806932 290.991376 
L 323.930899 289.858307 
L 329.054866 322.798143 
L 334.178833 286.79807 
L 339.3028 298.864907 
L 344.426767 289.390605 
L 349.550733 286.625644 
L 354.6747 282.657607 
L 359.798667 288.664402 
L 364.922634 285.085038 
L 370.046601 290.968685 
L 375.170568 282.875144 
L 380.294535 285.795513 
L 385.418502 288.477089 
L 390.542469 288.119864 
L 395.666436 285.406385 
L 400.790403 287.962801 
L 405.91437 286.990733 
L 411.038337 291.801931 
L 416.162304 279.845244 
L 421.286271 288.242603 
L 426.410238 286.562723 
L 431.534205 291.299652 
L 436.658171 285.274147 
L 436.658171 278.959023 
L 436.658171 278.959023 
L 431.534205 277.609679 
L 426.410238 285.859845 
L 421.286271 272.118419 
L 416.162304 276.157274 
L 411.038337 261.191913 
L 405.91437 266.329775 
L 400.790403 277.111935 
L 395.666436 259.224993 
L 390.542469 278.409082 
L 385.418502 278.935922 
L 380.294535 282.831508 
L 375.170568 278.214057 
L 370.046601 274.126801 
L 364.922634 264.474397 
L 359.798667 285.516874 
L 354.6747 277.043854 
L 349.550733 283.809997 
L 344.426767 282.613095 
L 339.3028 248.562682 
L 334.178833 268.742496 
L 329.054866 104.725091 
L 323.930899 273.601577 
L 318.806932 273.986155 
L 313.682965 269.784543 
L 308.558998 243.544825 
L 303.435031 280.155599 
L 298.311064 279.973747 
L 293.187097 271.561833 
L 288.06313 274.188968 
L 282.939163 262.158835 
L 277.815196 218.067086 
L 272.691229 282.252784 
L 267.567262 257.315959 
L 262.443295 260.147032 
L 257.319329 278.264548 
L 252.195362 279.83363 
L 247.071395 284.639789 
L 241.947428 268.635639 
L 236.823461 271.095189 
L 231.699494 267.337544 
L 226.575527 276.518456 
L 221.45156 282.938669 
L 216.327593 266.491758 
z
" clip-path="url(#p68433cb4c6)" style="fill: #35dc67; fill-opacity: 0.2; stroke: #35dc67; stroke-opacity: 0.2"/>
    <path d="M 446.906105 257.30604 
L 446.906105 279.937632 
L 452.030072 285.585588 
L 457.154039 286.065609 
L 462.278006 291.049671 
L 467.401973 286.640307 
L 472.52594 289.618077 
L 477.649907 300.456015 
L 482.773874 289.095373 
L 487.897841 286.203949 
L 493.021808 284.572946 
L 498.145775 287.99683 
L 503.269742 296.602108 
L 508.393709 287.443543 
L 513.517676 282.915201 
L 518.641643 287.483878 
L 523.76561 287.702817 
L 528.889576 280.933726 
L 534.013543 298.425399 
L 539.13751 283.969265 
L 544.261477 287.987165 
L 549.385444 287.085582 
L 554.509411 282.949102 
L 559.633378 289.843643 
L 564.757345 292.01967 
L 569.881312 301.172074 
L 575.005279 285.74395 
L 580.129246 286.607655 
L 585.253213 285.592518 
L 590.37718 283.063246 
L 595.501147 285.917329 
L 600.625114 282.705343 
L 600.625114 270.438809 
L 600.625114 270.438809 
L 595.501147 276.408986 
L 590.37718 274.782045 
L 585.253213 281.830527 
L 580.129246 284.935101 
L 575.005279 268.272872 
L 569.881312 137.075818 
L 564.757345 265.947041 
L 559.633378 279.280992 
L 554.509411 274.267525 
L 549.385444 277.616813 
L 544.261477 263.658712 
L 539.13751 278.301841 
L 534.013543 244.164731 
L 528.889576 278.430932 
L 523.76561 274.8813 
L 518.641643 277.519227 
L 513.517676 261.188295 
L 508.393709 283.795485 
L 503.269742 264.991798 
L 498.145775 274.396125 
L 493.021808 279.085524 
L 487.897841 284.62769 
L 482.773874 268.645568 
L 477.649907 249.493308 
L 472.52594 283.828776 
L 467.401973 284.141821 
L 462.278006 267.119139 
L 457.154039 270.073727 
L 452.030072 284.312716 
L 446.906105 257.30604 
z
" clip-path="url(#p68433cb4c6)" style="fill: #35dc67; fill-opacity: 0.2; stroke: #35dc67; stroke-opacity: 0.2"/>
   </g>
   <g id="FillBetweenPolyCollection_2">
    <defs>
     <path id="m7500c454a4" d="M 93.352386 -126.505594 
L 93.352386 -114.313078 
L 98.476353 -107.205088 
L 103.60032 -114.698518 
L 108.724287 -99.988926 
L 113.848254 -116.224122 
L 118.972221 -110.687618 
L 124.096188 -107.234256 
L 129.220155 -108.350722 
L 134.344122 -112.84206 
L 139.468089 -56.5475 
L 144.592056 -113.171264 
L 149.716023 -107.261981 
L 154.83999 -106.552143 
L 159.963957 -112.587923 
L 165.087924 -102.709601 
L 170.21189 -121.248616 
L 175.335857 -104.78029 
L 180.459824 -110.244195 
L 185.583791 -112.255104 
L 190.707758 -102.523298 
L 195.831725 -111.275404 
L 200.955692 -83.924733 
L 206.079659 -102.063011 
L 211.203626 -106.031044 
L 216.327593 -110.145764 
L 221.45156 -110.121294 
L 226.575527 -104.608298 
L 231.699494 -101.367183 
L 236.823461 -109.399436 
L 241.947428 -122.384639 
L 247.071395 -109.294734 
L 252.195362 -114.443522 
L 257.319329 -104.254718 
L 262.443295 -109.02247 
L 267.567262 -112.447743 
L 272.691229 -111.574194 
L 277.815196 -111.541765 
L 282.939163 -112.028385 
L 288.06313 -111.356421 
L 293.187097 -110.133122 
L 298.311064 -113.242478 
L 303.435031 -111.512924 
L 308.558998 -113.538742 
L 313.682965 -109.780197 
L 318.806932 -110.807231 
L 323.930899 -109.426593 
L 329.054866 -99.766248 
L 334.178833 -102.167352 
L 339.3028 -111.785949 
L 344.426767 -112.453394 
L 349.550733 -108.802641 
L 354.6747 -99.73957 
L 359.798667 -105.934597 
L 364.922634 -110.9544 
L 370.046601 -111.659475 
L 375.170568 -112.45914 
L 380.294535 -108.817014 
L 385.418502 -109.771995 
L 390.542469 -108.394698 
L 395.666436 -108.964616 
L 400.790403 -111.451072 
L 405.91437 -107.858049 
L 411.038337 -113.489908 
L 416.162304 -111.658796 
L 421.286271 -110.395704 
L 426.410238 -109.043983 
L 431.534205 -111.713567 
L 436.658171 -104.335699 
L 441.782138 -103.249251 
L 446.906105 -110.121708 
L 452.030072 -110.279192 
L 457.154039 -109.537575 
L 462.278006 -111.028347 
L 467.401973 -99.712493 
L 472.52594 -111.161083 
L 477.649907 -108.420727 
L 482.773874 -110.934638 
L 487.897841 -114.526642 
L 493.021808 -101.833988 
L 498.145775 -108.408833 
L 503.269742 -111.287347 
L 508.393709 -102.39155 
L 513.517676 -109.631075 
L 518.641643 -108.563266 
L 523.76561 -111.363334 
L 528.889576 -111.73571 
L 534.013543 -110.827088 
L 539.13751 -107.762392 
L 544.261477 -110.328607 
L 549.385444 -111.830656 
L 554.509411 -109.857124 
L 559.633378 -109.624106 
L 564.757345 -105.86457 
L 569.881312 -109.600635 
L 575.005279 -111.12782 
L 580.129246 -101.708141 
L 585.253213 -111.206172 
L 590.37718 -111.672339 
L 595.501147 -110.242384 
L 600.625114 -106.97015 
L 600.625114 -125.016665 
L 600.625114 -125.016665 
L 595.501147 -127.381629 
L 590.37718 -122.426325 
L 585.253213 -118.162781 
L 580.129246 -144.325696 
L 575.005279 -118.428158 
L 569.881312 -160.895259 
L 564.757345 -126.870868 
L 559.633378 -112.698138 
L 554.509411 -113.956187 
L 549.385444 -115.079911 
L 544.261477 -118.131008 
L 539.13751 -126.198298 
L 534.013543 -112.856873 
L 528.889576 -136.819924 
L 523.76561 -113.915487 
L 518.641643 -116.218497 
L 513.517676 -137.683346 
L 508.393709 -136.946886 
L 503.269742 -122.580715 
L 498.145775 -115.46443 
L 493.021808 -185.453147 
L 487.897841 -119.424571 
L 482.773874 -119.353071 
L 477.649907 -119.775471 
L 472.52594 -122.53665 
L 467.401973 -144.809894 
L 462.278006 -116.164031 
L 457.154039 -122.317287 
L 452.030072 -119.259211 
L 446.906105 -116.499795 
L 441.782138 -116.784972 
L 436.658171 -136.741135 
L 431.534205 -127.925076 
L 426.410238 -136.794005 
L 421.286271 -128.126389 
L 416.162304 -122.103132 
L 411.038337 -134.039386 
L 405.91437 -125.950268 
L 400.790403 -119.383343 
L 395.666436 -119.121513 
L 390.542469 -129.713651 
L 385.418502 -114.23502 
L 380.294535 -127.046738 
L 375.170568 -116.050448 
L 370.046601 -124.76972 
L 364.922634 -113.903288 
L 359.798667 -122.556937 
L 354.6747 -145.464883 
L 349.550733 -122.09587 
L 344.426767 -118.665045 
L 339.3028 -115.37681 
L 334.178833 -133.99374 
L 329.054866 -151.833429 
L 323.930899 -124.091679 
L 318.806932 -114.89164 
L 313.682965 -117.093453 
L 308.558998 -121.132292 
L 303.435031 -133.518542 
L 298.311064 -121.254743 
L 293.187097 -125.688812 
L 288.06313 -116.55751 
L 282.939163 -119.425362 
L 277.815196 -143.831595 
L 272.691229 -125.614852 
L 267.567262 -150.833754 
L 262.443295 -126.933064 
L 257.319329 -134.689719 
L 252.195362 -122.059884 
L 247.071395 -124.25505 
L 241.947428 -139.436866 
L 236.823461 -135.894248 
L 231.699494 -171.05229 
L 226.575527 -136.81329 
L 221.45156 -119.522224 
L 216.327593 -121.577736 
L 211.203626 -141.449212 
L 206.079659 -143.760651 
L 200.955692 -237.408416 
L 195.831725 -116.785718 
L 190.707758 -149.573459 
L 185.583791 -119.379646 
L 180.459824 -180.014844 
L 175.335857 -140.487264 
L 170.21189 -141.621576 
L 165.087924 -161.55484 
L 159.963957 -120.193225 
L 154.83999 -142.678312 
L 149.716023 -131.800614 
L 144.592056 -131.458391 
L 139.468089 -358.9475 
L 134.344122 -129.2526 
L 129.220155 -123.114633 
L 124.096188 -124.998648 
L 118.972221 -125.22069 
L 113.848254 -172.579411 
L 108.724287 -150.291937 
L 103.60032 -136.865802 
L 98.476353 -127.714671 
L 93.352386 -126.505594 
z
" style="stroke: #007bff; stroke-opacity: 0.2"/>
    </defs>
    <g clip-path="url(#p68433cb4c6)">
     <use xlink:href="#m7500c454a4" x="0" y="398.20925" style="fill: #007bff; fill-opacity: 0.2; stroke: #007bff; stroke-opacity: 0.2"/>
    </g>
   </g>
   <g id="matplotlib.axis_1">
    <g id="xtick_1">
     <g id="line2d_1">
      <path d="M 93.352386 356.78175 
L 93.352386 24.14175 
" clip-path="url(#p68433cb4c6)" style="fill: none; stroke-dasharray: 2.96,1.28; stroke-dashoffset: 0; stroke: #b0b0b0; stroke-opacity: 0.5; stroke-width: 0.8"/>
     </g>
     <g id="line2d_2">
      <defs>
       <path id="m52cd1c501a" d="M 0 0 
L 0 3.5 
" style="stroke: #000000; stroke-width: 0.8"/>
      </defs>
      <g>
       <use xlink:href="#m52cd1c501a" x="93.352386" y="356.78175" style="stroke: #000000; stroke-width: 0.8"/>
      </g>
     </g>
     <g id="text_1">
      <!-- 1 -->
      <g transform="translate(89.534886 372.899875) scale(0.12 -0.12)">
       <defs>
        <path id="DejaVuSans-31" d="M 794 531 
L 1825 531 
L 1825 4091 
L 703 3866 
L 703 4441 
L 1819 4666 
L 2450 4666 
L 2450 531 
L 3481 531 
L 3481 0 
L 794 0 
L 794 531 
z
" transform="scale(0.015625)"/>
       </defs>
       <use xlink:href="#DejaVuSans-31"/>
      </g>
     </g>
    </g>
    <g id="xtick_2">
     <g id="line2d_3">
      <path d="M 144.592056 356.78175 
L 144.592056 24.14175 
" clip-path="url(#p68433cb4c6)" style="fill: none; stroke-dasharray: 2.96,1.28; stroke-dashoffset: 0; stroke: #b0b0b0; stroke-opacity: 0.5; stroke-width: 0.8"/>
     </g>
     <g id="line2d_4">
      <g>
       <use xlink:href="#m52cd1c501a" x="144.592056" y="356.78175" style="stroke: #000000; stroke-width: 0.8"/>
      </g>
     </g>
     <g id="text_2">
      <!-- 11 -->
      <g transform="translate(136.957056 372.899875) scale(0.12 -0.12)">
       <use xlink:href="#DejaVuSans-31"/>
       <use xlink:href="#DejaVuSans-31" transform="translate(63.623047 0)"/>
      </g>
     </g>
    </g>
    <g id="xtick_3">
     <g id="line2d_5">
      <path d="M 195.831725 356.78175 
L 195.831725 24.14175 
" clip-path="url(#p68433cb4c6)" style="fill: none; stroke-dasharray: 2.96,1.28; stroke-dashoffset: 0; stroke: #b0b0b0; stroke-opacity: 0.5; stroke-width: 0.8"/>
     </g>
     <g id="line2d_6">
      <g>
       <use xlink:href="#m52cd1c501a" x="195.831725" y="356.78175" style="stroke: #000000; stroke-width: 0.8"/>
      </g>
     </g>
     <g id="text_3">
      <!-- 21 -->
      <g transform="translate(188.196725 372.899875) scale(0.12 -0.12)">
       <defs>
        <path id="DejaVuSans-32" d="M 1228 531 
L 3431 531 
L 3431 0 
L 469 0 
L 469 531 
Q 828 903 1448 1529 
Q 2069 2156 2228 2338 
Q 2531 2678 2651 2914 
Q 2772 3150 2772 3378 
Q 2772 3750 2511 3984 
Q 2250 4219 1831 4219 
Q 1534 4219 1204 4116 
Q 875 4013 500 3803 
L 500 4441 
Q 881 4594 1212 4672 
Q 1544 4750 1819 4750 
Q 2544 4750 2975 4387 
Q 3406 4025 3406 3419 
Q 3406 3131 3298 2873 
Q 3191 2616 2906 2266 
Q 2828 2175 2409 1742 
Q 1991 1309 1228 531 
z
" transform="scale(0.015625)"/>
       </defs>
       <use xlink:href="#DejaVuSans-32"/>
       <use xlink:href="#DejaVuSans-31" transform="translate(63.623047 0)"/>
      </g>
     </g>
    </g>
    <g id="xtick_4">
     <g id="line2d_7">
      <path d="M 247.071395 356.78175 
L 247.071395 24.14175 
" clip-path="url(#p68433cb4c6)" style="fill: none; stroke-dasharray: 2.96,1.28; stroke-dashoffset: 0; stroke: #b0b0b0; stroke-opacity: 0.5; stroke-width: 0.8"/>
     </g>
     <g id="line2d_8">
      <g>
       <use xlink:href="#m52cd1c501a" x="247.071395" y="356.78175" style="stroke: #000000; stroke-width: 0.8"/>
      </g>
     </g>
     <g id="text_4">
      <!-- 31 -->
      <g transform="translate(239.436395 372.899875) scale(0.12 -0.12)">
       <defs>
        <path id="DejaVuSans-33" d="M 2597 2516 
Q 3050 2419 3304 2112 
Q 3559 1806 3559 1356 
Q 3559 666 3084 287 
Q 2609 -91 1734 -91 
Q 1441 -91 1130 -33 
Q 819 25 488 141 
L 488 750 
Q 750 597 1062 519 
Q 1375 441 1716 441 
Q 2309 441 2620 675 
Q 2931 909 2931 1356 
Q 2931 1769 2642 2001 
Q 2353 2234 1838 2234 
L 1294 2234 
L 1294 2753 
L 1863 2753 
Q 2328 2753 2575 2939 
Q 2822 3125 2822 3475 
Q 2822 3834 2567 4026 
Q 2313 4219 1838 4219 
Q 1578 4219 1281 4162 
Q 984 4106 628 3988 
L 628 4550 
Q 988 4650 1302 4700 
Q 1616 4750 1894 4750 
Q 2613 4750 3031 4423 
Q 3450 4097 3450 3541 
Q 3450 3153 3228 2886 
Q 3006 2619 2597 2516 
z
" transform="scale(0.015625)"/>
       </defs>
       <use xlink:href="#DejaVuSans-33"/>
       <use xlink:href="#DejaVuSans-31" transform="translate(63.623047 0)"/>
      </g>
     </g>
    </g>
    <g id="xtick_5">
     <g id="line2d_9">
      <path d="M 298.311064 356.78175 
L 298.311064 24.14175 
" clip-path="url(#p68433cb4c6)" style="fill: none; stroke-dasharray: 2.96,1.28; stroke-dashoffset: 0; stroke: #b0b0b0; stroke-opacity: 0.5; stroke-width: 0.8"/>
     </g>
     <g id="line2d_10">
      <g>
       <use xlink:href="#m52cd1c501a" x="298.311064" y="356.78175" style="stroke: #000000; stroke-width: 0.8"/>
      </g>
     </g>
     <g id="text_5">
      <!-- 41 -->
      <g transform="translate(290.676064 372.899875) scale(0.12 -0.12)">
       <defs>
        <path id="DejaVuSans-34" d="M 2419 4116 
L 825 1625 
L 2419 1625 
L 2419 4116 
z
M 2253 4666 
L 3047 4666 
L 3047 1625 
L 3713 1625 
L 3713 1100 
L 3047 1100 
L 3047 0 
L 2419 0 
L 2419 1100 
L 313 1100 
L 313 1709 
L 2253 4666 
z
" transform="scale(0.015625)"/>
       </defs>
       <use xlink:href="#DejaVuSans-34"/>
       <use xlink:href="#DejaVuSans-31" transform="translate(63.623047 0)"/>
      </g>
     </g>
    </g>
    <g id="xtick_6">
     <g id="line2d_11">
      <path d="M 349.550733 356.78175 
L 349.550733 24.14175 
" clip-path="url(#p68433cb4c6)" style="fill: none; stroke-dasharray: 2.96,1.28; stroke-dashoffset: 0; stroke: #b0b0b0; stroke-opacity: 0.5; stroke-width: 0.8"/>
     </g>
     <g id="line2d_12">
      <g>
       <use xlink:href="#m52cd1c501a" x="349.550733" y="356.78175" style="stroke: #000000; stroke-width: 0.8"/>
      </g>
     </g>
     <g id="text_6">
      <!-- 51 -->
      <g transform="translate(341.915733 372.899875) scale(0.12 -0.12)">
       <defs>
        <path id="DejaVuSans-35" d="M 691 4666 
L 3169 4666 
L 3169 4134 
L 1269 4134 
L 1269 2991 
Q 1406 3038 1543 3061 
Q 1681 3084 1819 3084 
Q 2600 3084 3056 2656 
Q 3513 2228 3513 1497 
Q 3513 744 3044 326 
Q 2575 -91 1722 -91 
Q 1428 -91 1123 -41 
Q 819 9 494 109 
L 494 744 
Q 775 591 1075 516 
Q 1375 441 1709 441 
Q 2250 441 2565 725 
Q 2881 1009 2881 1497 
Q 2881 1984 2565 2268 
Q 2250 2553 1709 2553 
Q 1456 2553 1204 2497 
Q 953 2441 691 2322 
L 691 4666 
z
" transform="scale(0.015625)"/>
       </defs>
       <use xlink:href="#DejaVuSans-35"/>
       <use xlink:href="#DejaVuSans-31" transform="translate(63.623047 0)"/>
      </g>
     </g>
    </g>
    <g id="xtick_7">
     <g id="line2d_13">
      <path d="M 400.790403 356.78175 
L 400.790403 24.14175 
" clip-path="url(#p68433cb4c6)" style="fill: none; stroke-dasharray: 2.96,1.28; stroke-dashoffset: 0; stroke: #b0b0b0; stroke-opacity: 0.5; stroke-width: 0.8"/>
     </g>
     <g id="line2d_14">
      <g>
       <use xlink:href="#m52cd1c501a" x="400.790403" y="356.78175" style="stroke: #000000; stroke-width: 0.8"/>
      </g>
     </g>
     <g id="text_7">
      <!-- 61 -->
      <g transform="translate(393.155403 372.899875) scale(0.12 -0.12)">
       <defs>
        <path id="DejaVuSans-36" d="M 2113 2584 
Q 1688 2584 1439 2293 
Q 1191 2003 1191 1497 
Q 1191 994 1439 701 
Q 1688 409 2113 409 
Q 2538 409 2786 701 
Q 3034 994 3034 1497 
Q 3034 2003 2786 2293 
Q 2538 2584 2113 2584 
z
M 3366 4563 
L 3366 3988 
Q 3128 4100 2886 4159 
Q 2644 4219 2406 4219 
Q 1781 4219 1451 3797 
Q 1122 3375 1075 2522 
Q 1259 2794 1537 2939 
Q 1816 3084 2150 3084 
Q 2853 3084 3261 2657 
Q 3669 2231 3669 1497 
Q 3669 778 3244 343 
Q 2819 -91 2113 -91 
Q 1303 -91 875 529 
Q 447 1150 447 2328 
Q 447 3434 972 4092 
Q 1497 4750 2381 4750 
Q 2619 4750 2861 4703 
Q 3103 4656 3366 4563 
z
" transform="scale(0.015625)"/>
       </defs>
       <use xlink:href="#DejaVuSans-36"/>
       <use xlink:href="#DejaVuSans-31" transform="translate(63.623047 0)"/>
      </g>
     </g>
    </g>
    <g id="xtick_8">
     <g id="line2d_15">
      <path d="M 452.030072 356.78175 
L 452.030072 24.14175 
" clip-path="url(#p68433cb4c6)" style="fill: none; stroke-dasharray: 2.96,1.28; stroke-dashoffset: 0; stroke: #b0b0b0; stroke-opacity: 0.5; stroke-width: 0.8"/>
     </g>
     <g id="line2d_16">
      <g>
       <use xlink:href="#m52cd1c501a" x="452.030072" y="356.78175" style="stroke: #000000; stroke-width: 0.8"/>
      </g>
     </g>
     <g id="text_8">
      <!-- 71 -->
      <g transform="translate(444.395072 372.899875) scale(0.12 -0.12)">
       <defs>
        <path id="DejaVuSans-37" d="M 525 4666 
L 3525 4666 
L 3525 4397 
L 1831 0 
L 1172 0 
L 2766 4134 
L 525 4134 
L 525 4666 
z
" transform="scale(0.015625)"/>
       </defs>
       <use xlink:href="#DejaVuSans-37"/>
       <use xlink:href="#DejaVuSans-31" transform="translate(63.623047 0)"/>
      </g>
     </g>
    </g>
    <g id="xtick_9">
     <g id="line2d_17">
      <path d="M 503.269742 356.78175 
L 503.269742 24.14175 
" clip-path="url(#p68433cb4c6)" style="fill: none; stroke-dasharray: 2.96,1.28; stroke-dashoffset: 0; stroke: #b0b0b0; stroke-opacity: 0.5; stroke-width: 0.8"/>
     </g>
     <g id="line2d_18">
      <g>
       <use xlink:href="#m52cd1c501a" x="503.269742" y="356.78175" style="stroke: #000000; stroke-width: 0.8"/>
      </g>
     </g>
     <g id="text_9">
      <!-- 81 -->
      <g transform="translate(495.634742 372.899875) scale(0.12 -0.12)">
       <defs>
        <path id="DejaVuSans-38" d="M 2034 2216 
Q 1584 2216 1326 1975 
Q 1069 1734 1069 1313 
Q 1069 891 1326 650 
Q 1584 409 2034 409 
Q 2484 409 2743 651 
Q 3003 894 3003 1313 
Q 3003 1734 2745 1975 
Q 2488 2216 2034 2216 
z
M 1403 2484 
Q 997 2584 770 2862 
Q 544 3141 544 3541 
Q 544 4100 942 4425 
Q 1341 4750 2034 4750 
Q 2731 4750 3128 4425 
Q 3525 4100 3525 3541 
Q 3525 3141 3298 2862 
Q 3072 2584 2669 2484 
Q 3125 2378 3379 2068 
Q 3634 1759 3634 1313 
Q 3634 634 3220 271 
Q 2806 -91 2034 -91 
Q 1263 -91 848 271 
Q 434 634 434 1313 
Q 434 1759 690 2068 
Q 947 2378 1403 2484 
z
M 1172 3481 
Q 1172 3119 1398 2916 
Q 1625 2713 2034 2713 
Q 2441 2713 2670 2916 
Q 2900 3119 2900 3481 
Q 2900 3844 2670 4047 
Q 2441 4250 2034 4250 
Q 1625 4250 1398 4047 
Q 1172 3844 1172 3481 
z
" transform="scale(0.015625)"/>
       </defs>
       <use xlink:href="#DejaVuSans-38"/>
       <use xlink:href="#DejaVuSans-31" transform="translate(63.623047 0)"/>
      </g>
     </g>
    </g>
    <g id="xtick_10">
     <g id="line2d_19">
      <path d="M 554.509411 356.78175 
L 554.509411 24.14175 
" clip-path="url(#p68433cb4c6)" style="fill: none; stroke-dasharray: 2.96,1.28; stroke-dashoffset: 0; stroke: #b0b0b0; stroke-opacity: 0.5; stroke-width: 0.8"/>
     </g>
     <g id="line2d_20">
      <g>
       <use xlink:href="#m52cd1c501a" x="554.509411" y="356.78175" style="stroke: #000000; stroke-width: 0.8"/>
      </g>
     </g>
     <g id="text_10">
      <!-- 91 -->
      <g transform="translate(546.874411 372.899875) scale(0.12 -0.12)">
       <defs>
        <path id="DejaVuSans-39" d="M 703 97 
L 703 672 
Q 941 559 1184 500 
Q 1428 441 1663 441 
Q 2288 441 2617 861 
Q 2947 1281 2994 2138 
Q 2813 1869 2534 1725 
Q 2256 1581 1919 1581 
Q 1219 1581 811 2004 
Q 403 2428 403 3163 
Q 403 3881 828 4315 
Q 1253 4750 1959 4750 
Q 2769 4750 3195 4129 
Q 3622 3509 3622 2328 
Q 3622 1225 3098 567 
Q 2575 -91 1691 -91 
Q 1453 -91 1209 -44 
Q 966 3 703 97 
z
M 1959 2075 
Q 2384 2075 2632 2365 
Q 2881 2656 2881 3163 
Q 2881 3666 2632 3958 
Q 2384 4250 1959 4250 
Q 1534 4250 1286 3958 
Q 1038 3666 1038 3163 
Q 1038 2656 1286 2365 
Q 1534 2075 1959 2075 
z
" transform="scale(0.015625)"/>
       </defs>
       <use xlink:href="#DejaVuSans-39"/>
       <use xlink:href="#DejaVuSans-31" transform="translate(63.623047 0)"/>
      </g>
     </g>
    </g>
    <g id="text_11">
     <!-- Trial ID -->
     <g transform="translate(326.435 388.513625) scale(0.12 -0.12)">
      <defs>
       <path id="DejaVuSans-54" d="M -19 4666 
L 3928 4666 
L 3928 4134 
L 2272 4134 
L 2272 0 
L 1638 0 
L 1638 4134 
L -19 4134 
L -19 4666 
z
" transform="scale(0.015625)"/>
       <path id="DejaVuSans-72" d="M 2631 2963 
Q 2534 3019 2420 3045 
Q 2306 3072 2169 3072 
Q 1681 3072 1420 2755 
Q 1159 2438 1159 1844 
L 1159 0 
L 581 0 
L 581 3500 
L 1159 3500 
L 1159 2956 
Q 1341 3275 1631 3429 
Q 1922 3584 2338 3584 
Q 2397 3584 2469 3576 
Q 2541 3569 2628 3553 
L 2631 2963 
z
" transform="scale(0.015625)"/>
       <path id="DejaVuSans-69" d="M 603 3500 
L 1178 3500 
L 1178 0 
L 603 0 
L 603 3500 
z
M 603 4863 
L 1178 4863 
L 1178 4134 
L 603 4134 
L 603 4863 
z
" transform="scale(0.015625)"/>
       <path id="DejaVuSans-61" d="M 2194 1759 
Q 1497 1759 1228 1600 
Q 959 1441 959 1056 
Q 959 750 1161 570 
Q 1363 391 1709 391 
Q 2188 391 2477 730 
Q 2766 1069 2766 1631 
L 2766 1759 
L 2194 1759 
z
M 3341 1997 
L 3341 0 
L 2766 0 
L 2766 531 
Q 2569 213 2275 61 
Q 1981 -91 1556 -91 
Q 1019 -91 701 211 
Q 384 513 384 1019 
Q 384 1609 779 1909 
Q 1175 2209 1959 2209 
L 2766 2209 
L 2766 2266 
Q 2766 2663 2505 2880 
Q 2244 3097 1772 3097 
Q 1472 3097 1187 3025 
Q 903 2953 641 2809 
L 641 3341 
Q 956 3463 1253 3523 
Q 1550 3584 1831 3584 
Q 2591 3584 2966 3190 
Q 3341 2797 3341 1997 
z
" transform="scale(0.015625)"/>
       <path id="DejaVuSans-6c" d="M 603 4863 
L 1178 4863 
L 1178 0 
L 603 0 
L 603 4863 
z
" transform="scale(0.015625)"/>
       <path id="DejaVuSans-20" transform="scale(0.015625)"/>
       <path id="DejaVuSans-49" d="M 628 4666 
L 1259 4666 
L 1259 0 
L 628 0 
L 628 4666 
z
" transform="scale(0.015625)"/>
       <path id="DejaVuSans-44" d="M 1259 4147 
L 1259 519 
L 2022 519 
Q 2988 519 3436 956 
Q 3884 1394 3884 2338 
Q 3884 3275 3436 3711 
Q 2988 4147 2022 4147 
L 1259 4147 
z
M 628 4666 
L 1925 4666 
Q 3281 4666 3915 4102 
Q 4550 3538 4550 2338 
Q 4550 1131 3912 565 
Q 3275 0 1925 0 
L 628 0 
L 628 4666 
z
" transform="scale(0.015625)"/>
      </defs>
      <use xlink:href="#DejaVuSans-54"/>
      <use xlink:href="#DejaVuSans-72" transform="translate(46.333984 0)"/>
      <use xlink:href="#DejaVuSans-69" transform="translate(87.447266 0)"/>
      <use xlink:href="#DejaVuSans-61" transform="translate(115.230469 0)"/>
      <use xlink:href="#DejaVuSans-6c" transform="translate(176.509766 0)"/>
      <use xlink:href="#DejaVuSans-20" transform="translate(204.292969 0)"/>
      <use xlink:href="#DejaVuSans-49" transform="translate(236.080078 0)"/>
      <use xlink:href="#DejaVuSans-44" transform="translate(265.572266 0)"/>
     </g>
    </g>
   </g>
   <g id="matplotlib.axis_2">
    <g id="ytick_1">
     <g id="line2d_21">
      <path d="M 67.98875 296.999367 
L 625.98875 296.999367 
" clip-path="url(#p68433cb4c6)" style="fill: none; stroke-dasharray: 2.96,1.28; stroke-dashoffset: 0; stroke: #b0b0b0; stroke-opacity: 0.5; stroke-width: 0.8"/>
     </g>
     <g id="line2d_22">
      <defs>
       <path id="m061d245c09" d="M 0 0 
L -3.5 0 
" style="stroke: #000000; stroke-width: 0.8"/>
      </defs>
      <g>
       <use xlink:href="#m061d245c09" x="67.98875" y="296.999367" style="stroke: #000000; stroke-width: 0.8"/>
      </g>
     </g>
     <g id="text_12">
      <!-- 0 -->
      <g transform="translate(53.35375 301.55843) scale(0.12 -0.12)">
       <defs>
        <path id="DejaVuSans-30" d="M 2034 4250 
Q 1547 4250 1301 3770 
Q 1056 3291 1056 2328 
Q 1056 1369 1301 889 
Q 1547 409 2034 409 
Q 2525 409 2770 889 
Q 3016 1369 3016 2328 
Q 3016 3291 2770 3770 
Q 2525 4250 2034 4250 
z
M 2034 4750 
Q 2819 4750 3233 4129 
Q 3647 3509 3647 2328 
Q 3647 1150 3233 529 
Q 2819 -91 2034 -91 
Q 1250 -91 836 529 
Q 422 1150 422 2328 
Q 422 3509 836 4129 
Q 1250 4750 2034 4750 
z
" transform="scale(0.015625)"/>
       </defs>
       <use xlink:href="#DejaVuSans-30"/>
      </g>
     </g>
    </g>
    <g id="ytick_2">
     <g id="line2d_23">
      <path d="M 67.98875 231.940267 
L 625.98875 231.940267 
" clip-path="url(#p68433cb4c6)" style="fill: none; stroke-dasharray: 2.96,1.28; stroke-dashoffset: 0; stroke: #b0b0b0; stroke-opacity: 0.5; stroke-width: 0.8"/>
     </g>
     <g id="line2d_24">
      <g>
       <use xlink:href="#m061d245c09" x="67.98875" y="231.940267" style="stroke: #000000; stroke-width: 0.8"/>
      </g>
     </g>
     <g id="text_13">
      <!-- 5000 -->
      <g transform="translate(30.44875 236.499329) scale(0.12 -0.12)">
       <use xlink:href="#DejaVuSans-35"/>
       <use xlink:href="#DejaVuSans-30" transform="translate(63.623047 0)"/>
       <use xlink:href="#DejaVuSans-30" transform="translate(127.246094 0)"/>
       <use xlink:href="#DejaVuSans-30" transform="translate(190.869141 0)"/>
      </g>
     </g>
    </g>
    <g id="ytick_3">
     <g id="line2d_25">
      <path d="M 67.98875 166.881166 
L 625.98875 166.881166 
" clip-path="url(#p68433cb4c6)" style="fill: none; stroke-dasharray: 2.96,1.28; stroke-dashoffset: 0; stroke: #b0b0b0; stroke-opacity: 0.5; stroke-width: 0.8"/>
     </g>
     <g id="line2d_26">
      <g>
       <use xlink:href="#m061d245c09" x="67.98875" y="166.881166" style="stroke: #000000; stroke-width: 0.8"/>
      </g>
     </g>
     <g id="text_14">
      <!-- 10000 -->
      <g transform="translate(22.81375 171.440229) scale(0.12 -0.12)">
       <use xlink:href="#DejaVuSans-31"/>
       <use xlink:href="#DejaVuSans-30" transform="translate(63.623047 0)"/>
       <use xlink:href="#DejaVuSans-30" transform="translate(127.246094 0)"/>
       <use xlink:href="#DejaVuSans-30" transform="translate(190.869141 0)"/>
       <use xlink:href="#DejaVuSans-30" transform="translate(254.492188 0)"/>
      </g>
     </g>
    </g>
    <g id="ytick_4">
     <g id="line2d_27">
      <path d="M 67.98875 101.822066 
L 625.98875 101.822066 
" clip-path="url(#p68433cb4c6)" style="fill: none; stroke-dasharray: 2.96,1.28; stroke-dashoffset: 0; stroke: #b0b0b0; stroke-opacity: 0.5; stroke-width: 0.8"/>
     </g>
     <g id="line2d_28">
      <g>
       <use xlink:href="#m061d245c09" x="67.98875" y="101.822066" style="stroke: #000000; stroke-width: 0.8"/>
      </g>
     </g>
     <g id="text_15">
      <!-- 15000 -->
      <g transform="translate(22.81375 106.381128) scale(0.12 -0.12)">
       <use xlink:href="#DejaVuSans-31"/>
       <use xlink:href="#DejaVuSans-35" transform="translate(63.623047 0)"/>
       <use xlink:href="#DejaVuSans-30" transform="translate(127.246094 0)"/>
       <use xlink:href="#DejaVuSans-30" transform="translate(190.869141 0)"/>
       <use xlink:href="#DejaVuSans-30" transform="translate(254.492188 0)"/>
      </g>
     </g>
    </g>
    <g id="ytick_5">
     <g id="line2d_29">
      <path d="M 67.98875 36.762965 
L 625.98875 36.762965 
" clip-path="url(#p68433cb4c6)" style="fill: none; stroke-dasharray: 2.96,1.28; stroke-dashoffset: 0; stroke: #b0b0b0; stroke-opacity: 0.5; stroke-width: 0.8"/>
     </g>
     <g id="line2d_30">
      <g>
       <use xlink:href="#m061d245c09" x="67.98875" y="36.762965" style="stroke: #000000; stroke-width: 0.8"/>
      </g>
     </g>
     <g id="text_16">
      <!-- 20000 -->
      <g transform="translate(22.81375 41.322028) scale(0.12 -0.12)">
       <use xlink:href="#DejaVuSans-32"/>
       <use xlink:href="#DejaVuSans-30" transform="translate(63.623047 0)"/>
       <use xlink:href="#DejaVuSans-30" transform="translate(127.246094 0)"/>
       <use xlink:href="#DejaVuSans-30" transform="translate(190.869141 0)"/>
       <use xlink:href="#DejaVuSans-30" transform="translate(254.492188 0)"/>
      </g>
     </g>
    </g>
    <g id="text_17">
     <!-- Time (ms) -->
     <g transform="translate(16.318125 220.700812) rotate(-90) scale(0.12 -0.12)">
      <defs>
       <path id="DejaVuSans-6d" d="M 3328 2828 
Q 3544 3216 3844 3400 
Q 4144 3584 4550 3584 
Q 5097 3584 5394 3201 
Q 5691 2819 5691 2113 
L 5691 0 
L 5113 0 
L 5113 2094 
Q 5113 2597 4934 2840 
Q 4756 3084 4391 3084 
Q 3944 3084 3684 2787 
Q 3425 2491 3425 1978 
L 3425 0 
L 2847 0 
L 2847 2094 
Q 2847 2600 2669 2842 
Q 2491 3084 2119 3084 
Q 1678 3084 1418 2786 
Q 1159 2488 1159 1978 
L 1159 0 
L 581 0 
L 581 3500 
L 1159 3500 
L 1159 2956 
Q 1356 3278 1631 3431 
Q 1906 3584 2284 3584 
Q 2666 3584 2933 3390 
Q 3200 3197 3328 2828 
z
" transform="scale(0.015625)"/>
       <path id="DejaVuSans-65" d="M 3597 1894 
L 3597 1613 
L 953 1613 
Q 991 1019 1311 708 
Q 1631 397 2203 397 
Q 2534 397 2845 478 
Q 3156 559 3463 722 
L 3463 178 
Q 3153 47 2828 -22 
Q 2503 -91 2169 -91 
Q 1331 -91 842 396 
Q 353 884 353 1716 
Q 353 2575 817 3079 
Q 1281 3584 2069 3584 
Q 2775 3584 3186 3129 
Q 3597 2675 3597 1894 
z
M 3022 2063 
Q 3016 2534 2758 2815 
Q 2500 3097 2075 3097 
Q 1594 3097 1305 2825 
Q 1016 2553 972 2059 
L 3022 2063 
z
" transform="scale(0.015625)"/>
       <path id="DejaVuSans-28" d="M 1984 4856 
Q 1566 4138 1362 3434 
Q 1159 2731 1159 2009 
Q 1159 1288 1364 580 
Q 1569 -128 1984 -844 
L 1484 -844 
Q 1016 -109 783 600 
Q 550 1309 550 2009 
Q 550 2706 781 3412 
Q 1013 4119 1484 4856 
L 1984 4856 
z
" transform="scale(0.015625)"/>
       <path id="DejaVuSans-73" d="M 2834 3397 
L 2834 2853 
Q 2591 2978 2328 3040 
Q 2066 3103 1784 3103 
Q 1356 3103 1142 2972 
Q 928 2841 928 2578 
Q 928 2378 1081 2264 
Q 1234 2150 1697 2047 
L 1894 2003 
Q 2506 1872 2764 1633 
Q 3022 1394 3022 966 
Q 3022 478 2636 193 
Q 2250 -91 1575 -91 
Q 1294 -91 989 -36 
Q 684 19 347 128 
L 347 722 
Q 666 556 975 473 
Q 1284 391 1588 391 
Q 1994 391 2212 530 
Q 2431 669 2431 922 
Q 2431 1156 2273 1281 
Q 2116 1406 1581 1522 
L 1381 1569 
Q 847 1681 609 1914 
Q 372 2147 372 2553 
Q 372 3047 722 3315 
Q 1072 3584 1716 3584 
Q 2034 3584 2315 3537 
Q 2597 3491 2834 3397 
z
" transform="scale(0.015625)"/>
       <path id="DejaVuSans-29" d="M 513 4856 
L 1013 4856 
Q 1481 4119 1714 3412 
Q 1947 2706 1947 2009 
Q 1947 1309 1714 600 
Q 1481 -109 1013 -844 
L 513 -844 
Q 928 -128 1133 580 
Q 1338 1288 1338 2009 
Q 1338 2731 1133 3434 
Q 928 4138 513 4856 
z
" transform="scale(0.015625)"/>
      </defs>
      <use xlink:href="#DejaVuSans-54"/>
      <use xlink:href="#DejaVuSans-69" transform="translate(57.958984 0)"/>
      <use xlink:href="#DejaVuSans-6d" transform="translate(85.742188 0)"/>
      <use xlink:href="#DejaVuSans-65" transform="translate(183.154297 0)"/>
      <use xlink:href="#DejaVuSans-20" transform="translate(244.677734 0)"/>
      <use xlink:href="#DejaVuSans-28" transform="translate(276.464844 0)"/>
      <use xlink:href="#DejaVuSans-6d" transform="translate(315.478516 0)"/>
      <use xlink:href="#DejaVuSans-73" transform="translate(412.890625 0)"/>
      <use xlink:href="#DejaVuSans-29" transform="translate(464.990234 0)"/>
     </g>
    </g>
   </g>
   <g id="line2d_31">
    <path d="M 93.352386 262.346479 
L 98.476353 283.154684 
L 103.60032 276.012522 
L 108.724287 270.552703 
L 113.848254 282.035651 
L 118.972221 278.014877 
L 124.096188 275.870957 
L 129.220155 276.591245 
L 134.344122 278.269077 
L 139.468089 275.677847 
L 144.592056 280.969109 
L 149.716023 272.976654 
L 154.83999 284.502496 
L 159.963957 284.389808 
L 165.087924 282.99091 
L 170.21189 279.681134 
L 175.335857 280.255876 
L 180.459824 283.479836 
L 185.583791 281.757143 
L 190.707758 282.763738 
L 195.831725 271.70224 
L 200.955692 238.084291 
L 206.079659 265.142159 
L 211.203626 285.340204 
L 216.327593 278.107633 
L 221.45156 284.252408 
L 226.575527 282.745643 
L 231.699494 278.602567 
L 236.823461 279.646899 
L 241.947428 277.670798 
L 247.071395 287.190193 
L 252.195362 283.546232 
L 257.319329 280.677733 
L 262.443295 273.674912 
L 267.567262 271.705952 
L 272.691229 283.956615 
L 277.815196 259.822664 
L 282.939163 279.634609 
L 288.06313 280.243397 
L 293.187097 283.687189 
L 298.311064 282.602912 
L 303.435031 283.361943 
L 308.558998 265.293831 
L 313.682965 277.790587 
L 318.806932 282.488766 
L 323.930899 281.729942 
L 329.054866 213.761617 
L 334.178833 277.770283 
L 339.3028 273.713794 
L 344.426767 286.00185 
L 349.550733 285.21782 
L 354.6747 279.85073 
L 359.798667 287.090638 
L 364.922634 274.779718 
L 370.046601 282.547743 
L 375.170568 280.5446 
L 380.294535 284.313511 
L 385.418502 283.706506 
L 390.542469 283.264473 
L 395.666436 272.315689 
L 400.790403 282.537368 
L 405.91437 276.660254 
L 411.038337 276.496922 
L 416.162304 278.001259 
L 421.286271 280.180511 
L 426.410238 286.211284 
L 431.534205 284.454665 
L 436.658171 282.116585 
L 441.782138 278.788662 
L 446.906105 268.621836 
L 452.030072 284.949152 
L 457.154039 278.069668 
L 462.278006 279.084405 
L 467.401973 285.391064 
L 472.52594 286.723426 
L 477.649907 274.974662 
L 482.773874 278.870471 
L 487.897841 285.41582 
L 493.021808 281.829235 
L 498.145775 281.196477 
L 503.269742 280.796953 
L 508.393709 285.619514 
L 513.517676 272.051748 
L 518.641643 282.501552 
L 523.76561 281.292058 
L 528.889576 279.682329 
L 534.013543 271.295065 
L 539.13751 281.135553 
L 544.261477 275.822939 
L 549.385444 282.351198 
L 554.509411 278.608313 
L 559.633378 284.562317 
L 564.757345 278.983355 
L 569.881312 219.123946 
L 575.005279 277.008411 
L 580.129246 285.771378 
L 585.253213 283.711522 
L 590.37718 278.922645 
L 595.501147 281.163158 
L 600.625114 276.572076 
" clip-path="url(#p68433cb4c6)" style="fill: none; stroke: #35dc67; stroke-width: 1.5; stroke-linecap: square"/>
    <defs>
     <path id="meba1227a1a" d="M 0 3 
C 0.795609 3 1.55874 2.683901 2.12132 2.12132 
C 2.683901 1.55874 3 0.795609 3 0 
C 3 -0.795609 2.683901 -1.55874 2.12132 -2.12132 
C 1.55874 -2.683901 0.795609 -3 0 -3 
C -0.795609 -3 -1.55874 -2.683901 -2.12132 -2.12132 
C -2.683901 -1.55874 -3 -0.795609 -3 0 
C -3 0.795609 -2.683901 1.55874 -2.12132 2.12132 
C -1.55874 2.683901 -0.795609 3 0 3 
z
" style="stroke: #ffffff; stroke-width: 0.75"/>
    </defs>
    <g clip-path="url(#p68433cb4c6)">
     <use xlink:href="#meba1227a1a" x="93.352386" y="262.346479" style="fill: #35dc67; stroke: #ffffff; stroke-width: 0.75"/>
     <use xlink:href="#meba1227a1a" x="98.476353" y="283.154684" style="fill: #35dc67; stroke: #ffffff; stroke-width: 0.75"/>
     <use xlink:href="#meba1227a1a" x="103.60032" y="276.012522" style="fill: #35dc67; stroke: #ffffff; stroke-width: 0.75"/>
     <use xlink:href="#meba1227a1a" x="108.724287" y="270.552703" style="fill: #35dc67; stroke: #ffffff; stroke-width: 0.75"/>
     <use xlink:href="#meba1227a1a" x="113.848254" y="282.035651" style="fill: #35dc67; stroke: #ffffff; stroke-width: 0.75"/>
     <use xlink:href="#meba1227a1a" x="118.972221" y="278.014877" style="fill: #35dc67; stroke: #ffffff; stroke-width: 0.75"/>
     <use xlink:href="#meba1227a1a" x="124.096188" y="275.870957" style="fill: #35dc67; stroke: #ffffff; stroke-width: 0.75"/>
     <use xlink:href="#meba1227a1a" x="129.220155" y="276.591245" style="fill: #35dc67; stroke: #ffffff; stroke-width: 0.75"/>
     <use xlink:href="#meba1227a1a" x="134.344122" y="278.269077" style="fill: #35dc67; stroke: #ffffff; stroke-width: 0.75"/>
     <use xlink:href="#meba1227a1a" x="139.468089" y="275.677847" style="fill: #35dc67; stroke: #ffffff; stroke-width: 0.75"/>
     <use xlink:href="#meba1227a1a" x="144.592056" y="280.969109" style="fill: #35dc67; stroke: #ffffff; stroke-width: 0.75"/>
     <use xlink:href="#meba1227a1a" x="149.716023" y="272.976654" style="fill: #35dc67; stroke: #ffffff; stroke-width: 0.75"/>
     <use xlink:href="#meba1227a1a" x="154.83999" y="284.502496" style="fill: #35dc67; stroke: #ffffff; stroke-width: 0.75"/>
     <use xlink:href="#meba1227a1a" x="159.963957" y="284.389808" style="fill: #35dc67; stroke: #ffffff; stroke-width: 0.75"/>
     <use xlink:href="#meba1227a1a" x="165.087924" y="282.99091" style="fill: #35dc67; stroke: #ffffff; stroke-width: 0.75"/>
     <use xlink:href="#meba1227a1a" x="170.21189" y="279.681134" style="fill: #35dc67; stroke: #ffffff; stroke-width: 0.75"/>
     <use xlink:href="#meba1227a1a" x="175.335857" y="280.255876" style="fill: #35dc67; stroke: #ffffff; stroke-width: 0.75"/>
     <use xlink:href="#meba1227a1a" x="180.459824" y="283.479836" style="fill: #35dc67; stroke: #ffffff; stroke-width: 0.75"/>
     <use xlink:href="#meba1227a1a" x="185.583791" y="281.757143" style="fill: #35dc67; stroke: #ffffff; stroke-width: 0.75"/>
     <use xlink:href="#meba1227a1a" x="190.707758" y="282.763738" style="fill: #35dc67; stroke: #ffffff; stroke-width: 0.75"/>
     <use xlink:href="#meba1227a1a" x="195.831725" y="271.70224" style="fill: #35dc67; stroke: #ffffff; stroke-width: 0.75"/>
     <use xlink:href="#meba1227a1a" x="200.955692" y="238.084291" style="fill: #35dc67; stroke: #ffffff; stroke-width: 0.75"/>
     <use xlink:href="#meba1227a1a" x="206.079659" y="265.142159" style="fill: #35dc67; stroke: #ffffff; stroke-width: 0.75"/>
     <use xlink:href="#meba1227a1a" x="211.203626" y="285.340204" style="fill: #35dc67; stroke: #ffffff; stroke-width: 0.75"/>
     <use xlink:href="#meba1227a1a" x="216.327593" y="278.107633" style="fill: #35dc67; stroke: #ffffff; stroke-width: 0.75"/>
     <use xlink:href="#meba1227a1a" x="221.45156" y="284.252408" style="fill: #35dc67; stroke: #ffffff; stroke-width: 0.75"/>
     <use xlink:href="#meba1227a1a" x="226.575527" y="282.745643" style="fill: #35dc67; stroke: #ffffff; stroke-width: 0.75"/>
     <use xlink:href="#meba1227a1a" x="231.699494" y="278.602567" style="fill: #35dc67; stroke: #ffffff; stroke-width: 0.75"/>
     <use xlink:href="#meba1227a1a" x="236.823461" y="279.646899" style="fill: #35dc67; stroke: #ffffff; stroke-width: 0.75"/>
     <use xlink:href="#meba1227a1a" x="241.947428" y="277.670798" style="fill: #35dc67; stroke: #ffffff; stroke-width: 0.75"/>
     <use xlink:href="#meba1227a1a" x="247.071395" y="287.190193" style="fill: #35dc67; stroke: #ffffff; stroke-width: 0.75"/>
     <use xlink:href="#meba1227a1a" x="252.195362" y="283.546232" style="fill: #35dc67; stroke: #ffffff; stroke-width: 0.75"/>
     <use xlink:href="#meba1227a1a" x="257.319329" y="280.677733" style="fill: #35dc67; stroke: #ffffff; stroke-width: 0.75"/>
     <use xlink:href="#meba1227a1a" x="262.443295" y="273.674912" style="fill: #35dc67; stroke: #ffffff; stroke-width: 0.75"/>
     <use xlink:href="#meba1227a1a" x="267.567262" y="271.705952" style="fill: #35dc67; stroke: #ffffff; stroke-width: 0.75"/>
     <use xlink:href="#meba1227a1a" x="272.691229" y="283.956615" style="fill: #35dc67; stroke: #ffffff; stroke-width: 0.75"/>
     <use xlink:href="#meba1227a1a" x="277.815196" y="259.822664" style="fill: #35dc67; stroke: #ffffff; stroke-width: 0.75"/>
     <use xlink:href="#meba1227a1a" x="282.939163" y="279.634609" style="fill: #35dc67; stroke: #ffffff; stroke-width: 0.75"/>
     <use xlink:href="#meba1227a1a" x="288.06313" y="280.243397" style="fill: #35dc67; stroke: #ffffff; stroke-width: 0.75"/>
     <use xlink:href="#meba1227a1a" x="293.187097" y="283.687189" style="fill: #35dc67; stroke: #ffffff; stroke-width: 0.75"/>
     <use xlink:href="#meba1227a1a" x="298.311064" y="282.602912" style="fill: #35dc67; stroke: #ffffff; stroke-width: 0.75"/>
     <use xlink:href="#meba1227a1a" x="303.435031" y="283.361943" style="fill: #35dc67; stroke: #ffffff; stroke-width: 0.75"/>
     <use xlink:href="#meba1227a1a" x="308.558998" y="265.293831" style="fill: #35dc67; stroke: #ffffff; stroke-width: 0.75"/>
     <use xlink:href="#meba1227a1a" x="313.682965" y="277.790587" style="fill: #35dc67; stroke: #ffffff; stroke-width: 0.75"/>
     <use xlink:href="#meba1227a1a" x="318.806932" y="282.488766" style="fill: #35dc67; stroke: #ffffff; stroke-width: 0.75"/>
     <use xlink:href="#meba1227a1a" x="323.930899" y="281.729942" style="fill: #35dc67; stroke: #ffffff; stroke-width: 0.75"/>
     <use xlink:href="#meba1227a1a" x="329.054866" y="213.761617" style="fill: #35dc67; stroke: #ffffff; stroke-width: 0.75"/>
     <use xlink:href="#meba1227a1a" x="334.178833" y="277.770283" style="fill: #35dc67; stroke: #ffffff; stroke-width: 0.75"/>
     <use xlink:href="#meba1227a1a" x="339.3028" y="273.713794" style="fill: #35dc67; stroke: #ffffff; stroke-width: 0.75"/>
     <use xlink:href="#meba1227a1a" x="344.426767" y="286.00185" style="fill: #35dc67; stroke: #ffffff; stroke-width: 0.75"/>
     <use xlink:href="#meba1227a1a" x="349.550733" y="285.21782" style="fill: #35dc67; stroke: #ffffff; stroke-width: 0.75"/>
     <use xlink:href="#meba1227a1a" x="354.6747" y="279.85073" style="fill: #35dc67; stroke: #ffffff; stroke-width: 0.75"/>
     <use xlink:href="#meba1227a1a" x="359.798667" y="287.090638" style="fill: #35dc67; stroke: #ffffff; stroke-width: 0.75"/>
     <use xlink:href="#meba1227a1a" x="364.922634" y="274.779718" style="fill: #35dc67; stroke: #ffffff; stroke-width: 0.75"/>
     <use xlink:href="#meba1227a1a" x="370.046601" y="282.547743" style="fill: #35dc67; stroke: #ffffff; stroke-width: 0.75"/>
     <use xlink:href="#meba1227a1a" x="375.170568" y="280.5446" style="fill: #35dc67; stroke: #ffffff; stroke-width: 0.75"/>
     <use xlink:href="#meba1227a1a" x="380.294535" y="284.313511" style="fill: #35dc67; stroke: #ffffff; stroke-width: 0.75"/>
     <use xlink:href="#meba1227a1a" x="385.418502" y="283.706506" style="fill: #35dc67; stroke: #ffffff; stroke-width: 0.75"/>
     <use xlink:href="#meba1227a1a" x="390.542469" y="283.264473" style="fill: #35dc67; stroke: #ffffff; stroke-width: 0.75"/>
     <use xlink:href="#meba1227a1a" x="395.666436" y="272.315689" style="fill: #35dc67; stroke: #ffffff; stroke-width: 0.75"/>
     <use xlink:href="#meba1227a1a" x="400.790403" y="282.537368" style="fill: #35dc67; stroke: #ffffff; stroke-width: 0.75"/>
     <use xlink:href="#meba1227a1a" x="405.91437" y="276.660254" style="fill: #35dc67; stroke: #ffffff; stroke-width: 0.75"/>
     <use xlink:href="#meba1227a1a" x="411.038337" y="276.496922" style="fill: #35dc67; stroke: #ffffff; stroke-width: 0.75"/>
     <use xlink:href="#meba1227a1a" x="416.162304" y="278.001259" style="fill: #35dc67; stroke: #ffffff; stroke-width: 0.75"/>
     <use xlink:href="#meba1227a1a" x="421.286271" y="280.180511" style="fill: #35dc67; stroke: #ffffff; stroke-width: 0.75"/>
     <use xlink:href="#meba1227a1a" x="426.410238" y="286.211284" style="fill: #35dc67; stroke: #ffffff; stroke-width: 0.75"/>
     <use xlink:href="#meba1227a1a" x="431.534205" y="284.454665" style="fill: #35dc67; stroke: #ffffff; stroke-width: 0.75"/>
     <use xlink:href="#meba1227a1a" x="436.658171" y="282.116585" style="fill: #35dc67; stroke: #ffffff; stroke-width: 0.75"/>
     <use xlink:href="#meba1227a1a" x="441.782138" y="278.788662" style="fill: #35dc67; stroke: #ffffff; stroke-width: 0.75"/>
     <use xlink:href="#meba1227a1a" x="446.906105" y="268.621836" style="fill: #35dc67; stroke: #ffffff; stroke-width: 0.75"/>
     <use xlink:href="#meba1227a1a" x="452.030072" y="284.949152" style="fill: #35dc67; stroke: #ffffff; stroke-width: 0.75"/>
     <use xlink:href="#meba1227a1a" x="457.154039" y="278.069668" style="fill: #35dc67; stroke: #ffffff; stroke-width: 0.75"/>
     <use xlink:href="#meba1227a1a" x="462.278006" y="279.084405" style="fill: #35dc67; stroke: #ffffff; stroke-width: 0.75"/>
     <use xlink:href="#meba1227a1a" x="467.401973" y="285.391064" style="fill: #35dc67; stroke: #ffffff; stroke-width: 0.75"/>
     <use xlink:href="#meba1227a1a" x="472.52594" y="286.723426" style="fill: #35dc67; stroke: #ffffff; stroke-width: 0.75"/>
     <use xlink:href="#meba1227a1a" x="477.649907" y="274.974662" style="fill: #35dc67; stroke: #ffffff; stroke-width: 0.75"/>
     <use xlink:href="#meba1227a1a" x="482.773874" y="278.870471" style="fill: #35dc67; stroke: #ffffff; stroke-width: 0.75"/>
     <use xlink:href="#meba1227a1a" x="487.897841" y="285.41582" style="fill: #35dc67; stroke: #ffffff; stroke-width: 0.75"/>
     <use xlink:href="#meba1227a1a" x="493.021808" y="281.829235" style="fill: #35dc67; stroke: #ffffff; stroke-width: 0.75"/>
     <use xlink:href="#meba1227a1a" x="498.145775" y="281.196477" style="fill: #35dc67; stroke: #ffffff; stroke-width: 0.75"/>
     <use xlink:href="#meba1227a1a" x="503.269742" y="280.796953" style="fill: #35dc67; stroke: #ffffff; stroke-width: 0.75"/>
     <use xlink:href="#meba1227a1a" x="508.393709" y="285.619514" style="fill: #35dc67; stroke: #ffffff; stroke-width: 0.75"/>
     <use xlink:href="#meba1227a1a" x="513.517676" y="272.051748" style="fill: #35dc67; stroke: #ffffff; stroke-width: 0.75"/>
     <use xlink:href="#meba1227a1a" x="518.641643" y="282.501552" style="fill: #35dc67; stroke: #ffffff; stroke-width: 0.75"/>
     <use xlink:href="#meba1227a1a" x="523.76561" y="281.292058" style="fill: #35dc67; stroke: #ffffff; stroke-width: 0.75"/>
     <use xlink:href="#meba1227a1a" x="528.889576" y="279.682329" style="fill: #35dc67; stroke: #ffffff; stroke-width: 0.75"/>
     <use xlink:href="#meba1227a1a" x="534.013543" y="271.295065" style="fill: #35dc67; stroke: #ffffff; stroke-width: 0.75"/>
     <use xlink:href="#meba1227a1a" x="539.13751" y="281.135553" style="fill: #35dc67; stroke: #ffffff; stroke-width: 0.75"/>
     <use xlink:href="#meba1227a1a" x="544.261477" y="275.822939" style="fill: #35dc67; stroke: #ffffff; stroke-width: 0.75"/>
     <use xlink:href="#meba1227a1a" x="549.385444" y="282.351198" style="fill: #35dc67; stroke: #ffffff; stroke-width: 0.75"/>
     <use xlink:href="#meba1227a1a" x="554.509411" y="278.608313" style="fill: #35dc67; stroke: #ffffff; stroke-width: 0.75"/>
     <use xlink:href="#meba1227a1a" x="559.633378" y="284.562317" style="fill: #35dc67; stroke: #ffffff; stroke-width: 0.75"/>
     <use xlink:href="#meba1227a1a" x="564.757345" y="278.983355" style="fill: #35dc67; stroke: #ffffff; stroke-width: 0.75"/>
     <use xlink:href="#meba1227a1a" x="569.881312" y="219.123946" style="fill: #35dc67; stroke: #ffffff; stroke-width: 0.75"/>
     <use xlink:href="#meba1227a1a" x="575.005279" y="277.008411" style="fill: #35dc67; stroke: #ffffff; stroke-width: 0.75"/>
     <use xlink:href="#meba1227a1a" x="580.129246" y="285.771378" style="fill: #35dc67; stroke: #ffffff; stroke-width: 0.75"/>
     <use xlink:href="#meba1227a1a" x="585.253213" y="283.711522" style="fill: #35dc67; stroke: #ffffff; stroke-width: 0.75"/>
     <use xlink:href="#meba1227a1a" x="590.37718" y="278.922645" style="fill: #35dc67; stroke: #ffffff; stroke-width: 0.75"/>
     <use xlink:href="#meba1227a1a" x="595.501147" y="281.163158" style="fill: #35dc67; stroke: #ffffff; stroke-width: 0.75"/>
     <use xlink:href="#meba1227a1a" x="600.625114" y="276.572076" style="fill: #35dc67; stroke: #ffffff; stroke-width: 0.75"/>
    </g>
   </g>
   <g id="line2d_32">
    <path d="M 93.352386 277.799914 
L 98.476353 280.749371 
L 103.60032 272.42709 
L 108.724287 273.068818 
L 113.848254 253.807484 
L 118.972221 280.255096 
L 124.096188 282.092798 
L 129.220155 282.476572 
L 134.344122 277.16192 
L 139.468089 190.46175 
L 144.592056 275.894422 
L 149.716023 278.677952 
L 154.83999 273.594022 
L 159.963957 281.818676 
L 165.087924 266.077029 
L 170.21189 266.774154 
L 175.335857 275.575473 
L 180.459824 253.07973 
L 185.583791 282.391875 
L 190.707758 272.160872 
L 195.831725 284.178689 
L 200.955692 237.542676 
L 206.079659 275.297419 
L 211.203626 274.469122 
L 216.327593 282.3475 
L 221.45156 283.387491 
L 226.575527 277.498456 
L 231.699494 261.999514 
L 236.823461 275.562408 
L 241.947428 267.298498 
L 247.071395 281.434358 
L 252.195362 279.957547 
L 257.319329 278.737031 
L 262.443295 280.231483 
L 267.567262 266.568502 
L 272.691229 279.614727 
L 277.815196 270.52257 
L 282.939163 282.482377 
L 288.06313 284.252285 
L 293.187097 280.298283 
L 298.311064 280.96064 
L 303.435031 275.693517 
L 308.558998 280.873733 
L 313.682965 284.772425 
L 318.806932 285.359815 
L 323.930899 281.450114 
L 329.054866 272.409411 
L 334.178833 280.128704 
L 339.3028 284.62787 
L 344.426767 282.65003 
L 349.550733 282.759995 
L 354.6747 275.607023 
L 359.798667 283.963483 
L 364.922634 285.780406 
L 370.046601 279.994653 
L 375.170568 283.954456 
L 380.294535 280.277374 
L 385.418502 286.205743 
L 390.542469 279.155076 
L 395.666436 284.166185 
L 400.790403 282.792042 
L 405.91437 281.305091 
L 411.038337 274.444603 
L 416.162304 281.328286 
L 421.286271 278.948204 
L 426.410238 275.290256 
L 431.534205 278.389928 
L 436.658171 277.670833 
L 441.782138 288.192139 
L 446.906105 284.898498 
L 452.030072 283.440049 
L 457.154039 282.281819 
L 462.278006 284.613061 
L 467.401973 275.948057 
L 472.52594 281.360384 
L 477.649907 284.111151 
L 482.773874 283.065396 
L 487.897841 281.233643 
L 493.021808 254.565683 
L 498.145775 286.272619 
L 503.269742 281.275219 
L 508.393709 278.540032 
L 513.517676 274.55204 
L 518.641643 285.818368 
L 523.76561 285.56984 
L 528.889576 273.931433 
L 534.013543 286.36727 
L 539.13751 281.228905 
L 544.261477 283.979443 
L 549.385444 284.753966 
L 554.509411 286.302594 
L 559.633378 287.048128 
L 564.757345 281.841531 
L 569.881312 262.961303 
L 575.005279 283.431261 
L 580.129246 275.192332 
L 585.253213 283.524774 
L 590.37718 281.159918 
L 595.501147 279.397244 
L 600.625114 282.215843 
" clip-path="url(#p68433cb4c6)" style="fill: none; stroke: #007bff; stroke-width: 1.5; stroke-linecap: square"/>
    <defs>
     <path id="m063bc55a19" d="M 0 3 
C 0.795609 3 1.55874 2.683901 2.12132 2.12132 
C 2.683901 1.55874 3 0.795609 3 0 
C 3 -0.795609 2.683901 -1.55874 2.12132 -2.12132 
C 1.55874 -2.683901 0.795609 -3 0 -3 
C -0.795609 -3 -1.55874 -2.683901 -2.12132 -2.12132 
C -2.683901 -1.55874 -3 -0.795609 -3 0 
C -3 0.795609 -2.683901 1.55874 -2.12132 2.12132 
C -1.55874 2.683901 -0.795609 3 0 3 
z
" style="stroke: #ffffff; stroke-width: 0.75"/>
    </defs>
    <g clip-path="url(#p68433cb4c6)">
     <use xlink:href="#m063bc55a19" x="93.352386" y="277.799914" style="fill: #007bff; stroke: #ffffff; stroke-width: 0.75"/>
     <use xlink:href="#m063bc55a19" x="98.476353" y="280.749371" style="fill: #007bff; stroke: #ffffff; stroke-width: 0.75"/>
     <use xlink:href="#m063bc55a19" x="103.60032" y="272.42709" style="fill: #007bff; stroke: #ffffff; stroke-width: 0.75"/>
     <use xlink:href="#m063bc55a19" x="108.724287" y="273.068818" style="fill: #007bff; stroke: #ffffff; stroke-width: 0.75"/>
     <use xlink:href="#m063bc55a19" x="113.848254" y="253.807484" style="fill: #007bff; stroke: #ffffff; stroke-width: 0.75"/>
     <use xlink:href="#m063bc55a19" x="118.972221" y="280.255096" style="fill: #007bff; stroke: #ffffff; stroke-width: 0.75"/>
     <use xlink:href="#m063bc55a19" x="124.096188" y="282.092798" style="fill: #007bff; stroke: #ffffff; stroke-width: 0.75"/>
     <use xlink:href="#m063bc55a19" x="129.220155" y="282.476572" style="fill: #007bff; stroke: #ffffff; stroke-width: 0.75"/>
     <use xlink:href="#m063bc55a19" x="134.344122" y="277.16192" style="fill: #007bff; stroke: #ffffff; stroke-width: 0.75"/>
     <use xlink:href="#m063bc55a19" x="139.468089" y="190.46175" style="fill: #007bff; stroke: #ffffff; stroke-width: 0.75"/>
     <use xlink:href="#m063bc55a19" x="144.592056" y="275.894422" style="fill: #007bff; stroke: #ffffff; stroke-width: 0.75"/>
     <use xlink:href="#m063bc55a19" x="149.716023" y="278.677952" style="fill: #007bff; stroke: #ffffff; stroke-width: 0.75"/>
     <use xlink:href="#m063bc55a19" x="154.83999" y="273.594022" style="fill: #007bff; stroke: #ffffff; stroke-width: 0.75"/>
     <use xlink:href="#m063bc55a19" x="159.963957" y="281.818676" style="fill: #007bff; stroke: #ffffff; stroke-width: 0.75"/>
     <use xlink:href="#m063bc55a19" x="165.087924" y="266.077029" style="fill: #007bff; stroke: #ffffff; stroke-width: 0.75"/>
     <use xlink:href="#m063bc55a19" x="170.21189" y="266.774154" style="fill: #007bff; stroke: #ffffff; stroke-width: 0.75"/>
     <use xlink:href="#m063bc55a19" x="175.335857" y="275.575473" style="fill: #007bff; stroke: #ffffff; stroke-width: 0.75"/>
     <use xlink:href="#m063bc55a19" x="180.459824" y="253.07973" style="fill: #007bff; stroke: #ffffff; stroke-width: 0.75"/>
     <use xlink:href="#m063bc55a19" x="185.583791" y="282.391875" style="fill: #007bff; stroke: #ffffff; stroke-width: 0.75"/>
     <use xlink:href="#m063bc55a19" x="190.707758" y="272.160872" style="fill: #007bff; stroke: #ffffff; stroke-width: 0.75"/>
     <use xlink:href="#m063bc55a19" x="195.831725" y="284.178689" style="fill: #007bff; stroke: #ffffff; stroke-width: 0.75"/>
     <use xlink:href="#m063bc55a19" x="200.955692" y="237.542676" style="fill: #007bff; stroke: #ffffff; stroke-width: 0.75"/>
     <use xlink:href="#m063bc55a19" x="206.079659" y="275.297419" style="fill: #007bff; stroke: #ffffff; stroke-width: 0.75"/>
     <use xlink:href="#m063bc55a19" x="211.203626" y="274.469122" style="fill: #007bff; stroke: #ffffff; stroke-width: 0.75"/>
     <use xlink:href="#m063bc55a19" x="216.327593" y="282.3475" style="fill: #007bff; stroke: #ffffff; stroke-width: 0.75"/>
     <use xlink:href="#m063bc55a19" x="221.45156" y="283.387491" style="fill: #007bff; stroke: #ffffff; stroke-width: 0.75"/>
     <use xlink:href="#m063bc55a19" x="226.575527" y="277.498456" style="fill: #007bff; stroke: #ffffff; stroke-width: 0.75"/>
     <use xlink:href="#m063bc55a19" x="231.699494" y="261.999514" style="fill: #007bff; stroke: #ffffff; stroke-width: 0.75"/>
     <use xlink:href="#m063bc55a19" x="236.823461" y="275.562408" style="fill: #007bff; stroke: #ffffff; stroke-width: 0.75"/>
     <use xlink:href="#m063bc55a19" x="241.947428" y="267.298498" style="fill: #007bff; stroke: #ffffff; stroke-width: 0.75"/>
     <use xlink:href="#m063bc55a19" x="247.071395" y="281.434358" style="fill: #007bff; stroke: #ffffff; stroke-width: 0.75"/>
     <use xlink:href="#m063bc55a19" x="252.195362" y="279.957547" style="fill: #007bff; stroke: #ffffff; stroke-width: 0.75"/>
     <use xlink:href="#m063bc55a19" x="257.319329" y="278.737031" style="fill: #007bff; stroke: #ffffff; stroke-width: 0.75"/>
     <use xlink:href="#m063bc55a19" x="262.443295" y="280.231483" style="fill: #007bff; stroke: #ffffff; stroke-width: 0.75"/>
     <use xlink:href="#m063bc55a19" x="267.567262" y="266.568502" style="fill: #007bff; stroke: #ffffff; stroke-width: 0.75"/>
     <use xlink:href="#m063bc55a19" x="272.691229" y="279.614727" style="fill: #007bff; stroke: #ffffff; stroke-width: 0.75"/>
     <use xlink:href="#m063bc55a19" x="277.815196" y="270.52257" style="fill: #007bff; stroke: #ffffff; stroke-width: 0.75"/>
     <use xlink:href="#m063bc55a19" x="282.939163" y="282.482377" style="fill: #007bff; stroke: #ffffff; stroke-width: 0.75"/>
     <use xlink:href="#m063bc55a19" x="288.06313" y="284.252285" style="fill: #007bff; stroke: #ffffff; stroke-width: 0.75"/>
     <use xlink:href="#m063bc55a19" x="293.187097" y="280.298283" style="fill: #007bff; stroke: #ffffff; stroke-width: 0.75"/>
     <use xlink:href="#m063bc55a19" x="298.311064" y="280.96064" style="fill: #007bff; stroke: #ffffff; stroke-width: 0.75"/>
     <use xlink:href="#m063bc55a19" x="303.435031" y="275.693517" style="fill: #007bff; stroke: #ffffff; stroke-width: 0.75"/>
     <use xlink:href="#m063bc55a19" x="308.558998" y="280.873733" style="fill: #007bff; stroke: #ffffff; stroke-width: 0.75"/>
     <use xlink:href="#m063bc55a19" x="313.682965" y="284.772425" style="fill: #007bff; stroke: #ffffff; stroke-width: 0.75"/>
     <use xlink:href="#m063bc55a19" x="318.806932" y="285.359815" style="fill: #007bff; stroke: #ffffff; stroke-width: 0.75"/>
     <use xlink:href="#m063bc55a19" x="323.930899" y="281.450114" style="fill: #007bff; stroke: #ffffff; stroke-width: 0.75"/>
     <use xlink:href="#m063bc55a19" x="329.054866" y="272.409411" style="fill: #007bff; stroke: #ffffff; stroke-width: 0.75"/>
     <use xlink:href="#m063bc55a19" x="334.178833" y="280.128704" style="fill: #007bff; stroke: #ffffff; stroke-width: 0.75"/>
     <use xlink:href="#m063bc55a19" x="339.3028" y="284.62787" style="fill: #007bff; stroke: #ffffff; stroke-width: 0.75"/>
     <use xlink:href="#m063bc55a19" x="344.426767" y="282.65003" style="fill: #007bff; stroke: #ffffff; stroke-width: 0.75"/>
     <use xlink:href="#m063bc55a19" x="349.550733" y="282.759995" style="fill: #007bff; stroke: #ffffff; stroke-width: 0.75"/>
     <use xlink:href="#m063bc55a19" x="354.6747" y="275.607023" style="fill: #007bff; stroke: #ffffff; stroke-width: 0.75"/>
     <use xlink:href="#m063bc55a19" x="359.798667" y="283.963483" style="fill: #007bff; stroke: #ffffff; stroke-width: 0.75"/>
     <use xlink:href="#m063bc55a19" x="364.922634" y="285.780406" style="fill: #007bff; stroke: #ffffff; stroke-width: 0.75"/>
     <use xlink:href="#m063bc55a19" x="370.046601" y="279.994653" style="fill: #007bff; stroke: #ffffff; stroke-width: 0.75"/>
     <use xlink:href="#m063bc55a19" x="375.170568" y="283.954456" style="fill: #007bff; stroke: #ffffff; stroke-width: 0.75"/>
     <use xlink:href="#m063bc55a19" x="380.294535" y="280.277374" style="fill: #007bff; stroke: #ffffff; stroke-width: 0.75"/>
     <use xlink:href="#m063bc55a19" x="385.418502" y="286.205743" style="fill: #007bff; stroke: #ffffff; stroke-width: 0.75"/>
     <use xlink:href="#m063bc55a19" x="390.542469" y="279.155076" style="fill: #007bff; stroke: #ffffff; stroke-width: 0.75"/>
     <use xlink:href="#m063bc55a19" x="395.666436" y="284.166185" style="fill: #007bff; stroke: #ffffff; stroke-width: 0.75"/>
     <use xlink:href="#m063bc55a19" x="400.790403" y="282.792042" style="fill: #007bff; stroke: #ffffff; stroke-width: 0.75"/>
     <use xlink:href="#m063bc55a19" x="405.91437" y="281.305091" style="fill: #007bff; stroke: #ffffff; stroke-width: 0.75"/>
     <use xlink:href="#m063bc55a19" x="411.038337" y="274.444603" style="fill: #007bff; stroke: #ffffff; stroke-width: 0.75"/>
     <use xlink:href="#m063bc55a19" x="416.162304" y="281.328286" style="fill: #007bff; stroke: #ffffff; stroke-width: 0.75"/>
     <use xlink:href="#m063bc55a19" x="421.286271" y="278.948204" style="fill: #007bff; stroke: #ffffff; stroke-width: 0.75"/>
     <use xlink:href="#m063bc55a19" x="426.410238" y="275.290256" style="fill: #007bff; stroke: #ffffff; stroke-width: 0.75"/>
     <use xlink:href="#m063bc55a19" x="431.534205" y="278.389928" style="fill: #007bff; stroke: #ffffff; stroke-width: 0.75"/>
     <use xlink:href="#m063bc55a19" x="436.658171" y="277.670833" style="fill: #007bff; stroke: #ffffff; stroke-width: 0.75"/>
     <use xlink:href="#m063bc55a19" x="441.782138" y="288.192139" style="fill: #007bff; stroke: #ffffff; stroke-width: 0.75"/>
     <use xlink:href="#m063bc55a19" x="446.906105" y="284.898498" style="fill: #007bff; stroke: #ffffff; stroke-width: 0.75"/>
     <use xlink:href="#m063bc55a19" x="452.030072" y="283.440049" style="fill: #007bff; stroke: #ffffff; stroke-width: 0.75"/>
     <use xlink:href="#m063bc55a19" x="457.154039" y="282.281819" style="fill: #007bff; stroke: #ffffff; stroke-width: 0.75"/>
     <use xlink:href="#m063bc55a19" x="462.278006" y="284.613061" style="fill: #007bff; stroke: #ffffff; stroke-width: 0.75"/>
     <use xlink:href="#m063bc55a19" x="467.401973" y="275.948057" style="fill: #007bff; stroke: #ffffff; stroke-width: 0.75"/>
     <use xlink:href="#m063bc55a19" x="472.52594" y="281.360384" style="fill: #007bff; stroke: #ffffff; stroke-width: 0.75"/>
     <use xlink:href="#m063bc55a19" x="477.649907" y="284.111151" style="fill: #007bff; stroke: #ffffff; stroke-width: 0.75"/>
     <use xlink:href="#m063bc55a19" x="482.773874" y="283.065396" style="fill: #007bff; stroke: #ffffff; stroke-width: 0.75"/>
     <use xlink:href="#m063bc55a19" x="487.897841" y="281.233643" style="fill: #007bff; stroke: #ffffff; stroke-width: 0.75"/>
     <use xlink:href="#m063bc55a19" x="493.021808" y="254.565683" style="fill: #007bff; stroke: #ffffff; stroke-width: 0.75"/>
     <use xlink:href="#m063bc55a19" x="498.145775" y="286.272619" style="fill: #007bff; stroke: #ffffff; stroke-width: 0.75"/>
     <use xlink:href="#m063bc55a19" x="503.269742" y="281.275219" style="fill: #007bff; stroke: #ffffff; stroke-width: 0.75"/>
     <use xlink:href="#m063bc55a19" x="508.393709" y="278.540032" style="fill: #007bff; stroke: #ffffff; stroke-width: 0.75"/>
     <use xlink:href="#m063bc55a19" x="513.517676" y="274.55204" style="fill: #007bff; stroke: #ffffff; stroke-width: 0.75"/>
     <use xlink:href="#m063bc55a19" x="518.641643" y="285.818368" style="fill: #007bff; stroke: #ffffff; stroke-width: 0.75"/>
     <use xlink:href="#m063bc55a19" x="523.76561" y="285.56984" style="fill: #007bff; stroke: #ffffff; stroke-width: 0.75"/>
     <use xlink:href="#m063bc55a19" x="528.889576" y="273.931433" style="fill: #007bff; stroke: #ffffff; stroke-width: 0.75"/>
     <use xlink:href="#m063bc55a19" x="534.013543" y="286.36727" style="fill: #007bff; stroke: #ffffff; stroke-width: 0.75"/>
     <use xlink:href="#m063bc55a19" x="539.13751" y="281.228905" style="fill: #007bff; stroke: #ffffff; stroke-width: 0.75"/>
     <use xlink:href="#m063bc55a19" x="544.261477" y="283.979443" style="fill: #007bff; stroke: #ffffff; stroke-width: 0.75"/>
     <use xlink:href="#m063bc55a19" x="549.385444" y="284.753966" style="fill: #007bff; stroke: #ffffff; stroke-width: 0.75"/>
     <use xlink:href="#m063bc55a19" x="554.509411" y="286.302594" style="fill: #007bff; stroke: #ffffff; stroke-width: 0.75"/>
     <use xlink:href="#m063bc55a19" x="559.633378" y="287.048128" style="fill: #007bff; stroke: #ffffff; stroke-width: 0.75"/>
     <use xlink:href="#m063bc55a19" x="564.757345" y="281.841531" style="fill: #007bff; stroke: #ffffff; stroke-width: 0.75"/>
     <use xlink:href="#m063bc55a19" x="569.881312" y="262.961303" style="fill: #007bff; stroke: #ffffff; stroke-width: 0.75"/>
     <use xlink:href="#m063bc55a19" x="575.005279" y="283.431261" style="fill: #007bff; stroke: #ffffff; stroke-width: 0.75"/>
     <use xlink:href="#m063bc55a19" x="580.129246" y="275.192332" style="fill: #007bff; stroke: #ffffff; stroke-width: 0.75"/>
     <use xlink:href="#m063bc55a19" x="585.253213" y="283.524774" style="fill: #007bff; stroke: #ffffff; stroke-width: 0.75"/>
     <use xlink:href="#m063bc55a19" x="590.37718" y="281.159918" style="fill: #007bff; stroke: #ffffff; stroke-width: 0.75"/>
     <use xlink:href="#m063bc55a19" x="595.501147" y="279.397244" style="fill: #007bff; stroke: #ffffff; stroke-width: 0.75"/>
     <use xlink:href="#m063bc55a19" x="600.625114" y="282.215843" style="fill: #007bff; stroke: #ffffff; stroke-width: 0.75"/>
    </g>
   </g>
   <g id="line2d_33"/>
   <g id="line2d_34"/>
   <g id="patch_3">
    <path d="M 67.98875 356.78175 
L 67.98875 24.14175 
" style="fill: none; stroke: #000000; stroke-width: 0.8; stroke-linejoin: miter; stroke-linecap: square"/>
   </g>
   <g id="patch_4">
    <path d="M 625.98875 356.78175 
L 625.98875 24.14175 
" style="fill: none; stroke: #000000; stroke-width: 0.8; stroke-linejoin: miter; stroke-linecap: square"/>
   </g>
   <g id="patch_5">
    <path d="M 67.98875 356.78175 
L 625.98875 356.78175 
" style="fill: none; stroke: #000000; stroke-width: 0.8; stroke-linejoin: miter; stroke-linecap: square"/>
   </g>
   <g id="patch_6">
    <path d="M 67.98875 24.14175 
L 625.98875 24.14175 
" style="fill: none; stroke: #000000; stroke-width: 0.8; stroke-linejoin: miter; stroke-linecap: square"/>
   </g>
   <g id="text_18">
    <!-- Gesture Learning Curve  -->
    <g transform="translate(259.248875 18.14175) scale(0.144 -0.144)">
     <defs>
      <path id="DejaVuSans-47" d="M 3809 666 
L 3809 1919 
L 2778 1919 
L 2778 2438 
L 4434 2438 
L 4434 434 
Q 4069 175 3628 42 
Q 3188 -91 2688 -91 
Q 1594 -91 976 548 
Q 359 1188 359 2328 
Q 359 3472 976 4111 
Q 1594 4750 2688 4750 
Q 3144 4750 3555 4637 
Q 3966 4525 4313 4306 
L 4313 3634 
Q 3963 3931 3569 4081 
Q 3175 4231 2741 4231 
Q 1884 4231 1454 3753 
Q 1025 3275 1025 2328 
Q 1025 1384 1454 906 
Q 1884 428 2741 428 
Q 3075 428 3337 486 
Q 3600 544 3809 666 
z
" transform="scale(0.015625)"/>
      <path id="DejaVuSans-74" d="M 1172 4494 
L 1172 3500 
L 2356 3500 
L 2356 3053 
L 1172 3053 
L 1172 1153 
Q 1172 725 1289 603 
Q 1406 481 1766 481 
L 2356 481 
L 2356 0 
L 1766 0 
Q 1100 0 847 248 
Q 594 497 594 1153 
L 594 3053 
L 172 3053 
L 172 3500 
L 594 3500 
L 594 4494 
L 1172 4494 
z
" transform="scale(0.015625)"/>
      <path id="DejaVuSans-75" d="M 544 1381 
L 544 3500 
L 1119 3500 
L 1119 1403 
Q 1119 906 1312 657 
Q 1506 409 1894 409 
Q 2359 409 2629 706 
Q 2900 1003 2900 1516 
L 2900 3500 
L 3475 3500 
L 3475 0 
L 2900 0 
L 2900 538 
Q 2691 219 2414 64 
Q 2138 -91 1772 -91 
Q 1169 -91 856 284 
Q 544 659 544 1381 
z
M 1991 3584 
L 1991 3584 
z
" transform="scale(0.015625)"/>
      <path id="DejaVuSans-4c" d="M 628 4666 
L 1259 4666 
L 1259 531 
L 3531 531 
L 3531 0 
L 628 0 
L 628 4666 
z
" transform="scale(0.015625)"/>
      <path id="DejaVuSans-6e" d="M 3513 2113 
L 3513 0 
L 2938 0 
L 2938 2094 
Q 2938 2591 2744 2837 
Q 2550 3084 2163 3084 
Q 1697 3084 1428 2787 
Q 1159 2491 1159 1978 
L 1159 0 
L 581 0 
L 581 3500 
L 1159 3500 
L 1159 2956 
Q 1366 3272 1645 3428 
Q 1925 3584 2291 3584 
Q 2894 3584 3203 3211 
Q 3513 2838 3513 2113 
z
" transform="scale(0.015625)"/>
      <path id="DejaVuSans-67" d="M 2906 1791 
Q 2906 2416 2648 2759 
Q 2391 3103 1925 3103 
Q 1463 3103 1205 2759 
Q 947 2416 947 1791 
Q 947 1169 1205 825 
Q 1463 481 1925 481 
Q 2391 481 2648 825 
Q 2906 1169 2906 1791 
z
M 3481 434 
Q 3481 -459 3084 -895 
Q 2688 -1331 1869 -1331 
Q 1566 -1331 1297 -1286 
Q 1028 -1241 775 -1147 
L 775 -588 
Q 1028 -725 1275 -790 
Q 1522 -856 1778 -856 
Q 2344 -856 2625 -561 
Q 2906 -266 2906 331 
L 2906 616 
Q 2728 306 2450 153 
Q 2172 0 1784 0 
Q 1141 0 747 490 
Q 353 981 353 1791 
Q 353 2603 747 3093 
Q 1141 3584 1784 3584 
Q 2172 3584 2450 3431 
Q 2728 3278 2906 2969 
L 2906 3500 
L 3481 3500 
L 3481 434 
z
" transform="scale(0.015625)"/>
      <path id="DejaVuSans-43" d="M 4122 4306 
L 4122 3641 
Q 3803 3938 3442 4084 
Q 3081 4231 2675 4231 
Q 1875 4231 1450 3742 
Q 1025 3253 1025 2328 
Q 1025 1406 1450 917 
Q 1875 428 2675 428 
Q 3081 428 3442 575 
Q 3803 722 4122 1019 
L 4122 359 
Q 3791 134 3420 21 
Q 3050 -91 2638 -91 
Q 1578 -91 968 557 
Q 359 1206 359 2328 
Q 359 3453 968 4101 
Q 1578 4750 2638 4750 
Q 3056 4750 3426 4639 
Q 3797 4528 4122 4306 
z
" transform="scale(0.015625)"/>
      <path id="DejaVuSans-76" d="M 191 3500 
L 800 3500 
L 1894 563 
L 2988 3500 
L 3597 3500 
L 2284 0 
L 1503 0 
L 191 3500 
z
" transform="scale(0.015625)"/>
     </defs>
     <use xlink:href="#DejaVuSans-47"/>
     <use xlink:href="#DejaVuSans-65" transform="translate(77.490234 0)"/>
     <use xlink:href="#DejaVuSans-73" transform="translate(139.013672 0)"/>
     <use xlink:href="#DejaVuSans-74" transform="translate(191.113281 0)"/>
     <use xlink:href="#DejaVuSans-75" transform="translate(230.322266 0)"/>
     <use xlink:href="#DejaVuSans-72" transform="translate(293.701172 0)"/>
     <use xlink:href="#DejaVuSans-65" transform="translate(332.564453 0)"/>
     <use xlink:href="#DejaVuSans-20" transform="translate(394.087891 0)"/>
     <use xlink:href="#DejaVuSans-4c" transform="translate(425.875 0)"/>
     <use xlink:href="#DejaVuSans-65" transform="translate(479.837891 0)"/>
     <use xlink:href="#DejaVuSans-61" transform="translate(541.361328 0)"/>
     <use xlink:href="#DejaVuSans-72" transform="translate(602.640625 0)"/>
     <use xlink:href="#DejaVuSans-6e" transform="translate(642.003906 0)"/>
     <use xlink:href="#DejaVuSans-69" transform="translate(705.382812 0)"/>
     <use xlink:href="#DejaVuSans-6e" transform="translate(733.166016 0)"/>
     <use xlink:href="#DejaVuSans-67" transform="translate(796.544922 0)"/>
     <use xlink:href="#DejaVuSans-20" transform="translate(860.021484 0)"/>
     <use xlink:href="#DejaVuSans-43" transform="translate(891.808594 0)"/>
     <use xlink:href="#DejaVuSans-75" transform="translate(961.632812 0)"/>
     <use xlink:href="#DejaVuSans-72" transform="translate(1025.011719 0)"/>
     <use xlink:href="#DejaVuSans-76" transform="translate(1066.125 0)"/>
     <use xlink:href="#DejaVuSans-65" transform="translate(1125.304688 0)"/>
     <use xlink:href="#DejaVuSans-20" transform="translate(1186.828125 0)"/>
    </g>
   </g>
   <g id="legend_1">
    <g id="patch_7">
     <path d="M 520.1675 86.583 
L 617.58875 86.583 
Q 619.98875 86.583 619.98875 84.183 
L 619.98875 32.54175 
Q 619.98875 30.14175 617.58875 30.14175 
L 520.1675 30.14175 
Q 517.7675 30.14175 517.7675 32.54175 
L 517.7675 84.183 
Q 517.7675 86.583 520.1675 86.583 
z
" style="fill: #ffffff; opacity: 0.8; stroke: #cccccc; stroke-linejoin: miter"/>
    </g>
    <g id="text_19">
     <!-- Condition -->
     <g transform="translate(540.245937 44.059875) scale(0.12 -0.12)">
      <defs>
       <path id="DejaVuSans-6f" d="M 1959 3097 
Q 1497 3097 1228 2736 
Q 959 2375 959 1747 
Q 959 1119 1226 758 
Q 1494 397 1959 397 
Q 2419 397 2687 759 
Q 2956 1122 2956 1747 
Q 2956 2369 2687 2733 
Q 2419 3097 1959 3097 
z
M 1959 3584 
Q 2709 3584 3137 3096 
Q 3566 2609 3566 1747 
Q 3566 888 3137 398 
Q 2709 -91 1959 -91 
Q 1206 -91 779 398 
Q 353 888 353 1747 
Q 353 2609 779 3096 
Q 1206 3584 1959 3584 
z
" transform="scale(0.015625)"/>
       <path id="DejaVuSans-64" d="M 2906 2969 
L 2906 4863 
L 3481 4863 
L 3481 0 
L 2906 0 
L 2906 525 
Q 2725 213 2448 61 
Q 2172 -91 1784 -91 
Q 1150 -91 751 415 
Q 353 922 353 1747 
Q 353 2572 751 3078 
Q 1150 3584 1784 3584 
Q 2172 3584 2448 3432 
Q 2725 3281 2906 2969 
z
M 947 1747 
Q 947 1113 1208 752 
Q 1469 391 1925 391 
Q 2381 391 2643 752 
Q 2906 1113 2906 1747 
Q 2906 2381 2643 2742 
Q 2381 3103 1925 3103 
Q 1469 3103 1208 2742 
Q 947 2381 947 1747 
z
" transform="scale(0.015625)"/>
      </defs>
      <use xlink:href="#DejaVuSans-43"/>
      <use xlink:href="#DejaVuSans-6f" transform="translate(69.824219 0)"/>
      <use xlink:href="#DejaVuSans-6e" transform="translate(131.005859 0)"/>
      <use xlink:href="#DejaVuSans-64" transform="translate(194.384766 0)"/>
      <use xlink:href="#DejaVuSans-69" transform="translate(257.861328 0)"/>
      <use xlink:href="#DejaVuSans-74" transform="translate(285.644531 0)"/>
      <use xlink:href="#DejaVuSans-69" transform="translate(324.853516 0)"/>
      <use xlink:href="#DejaVuSans-6f" transform="translate(352.636719 0)"/>
      <use xlink:href="#DejaVuSans-6e" transform="translate(413.818359 0)"/>
     </g>
    </g>
    <g id="line2d_35">
     <path d="M 522.5675 57.473625 
L 534.5675 57.473625 
L 546.5675 57.473625 
" style="fill: none; stroke: #35dc67; stroke-width: 1.5; stroke-linecap: square"/>
     <g>
      <use xlink:href="#meba1227a1a" x="534.5675" y="57.473625" style="fill: #35dc67; stroke: #ffffff; stroke-width: 0.75"/>
     </g>
    </g>
    <g id="text_20">
     <!-- Proposed -->
     <g transform="translate(556.1675 61.673625) scale(0.12 -0.12)">
      <defs>
       <path id="DejaVuSans-50" d="M 1259 4147 
L 1259 2394 
L 2053 2394 
Q 2494 2394 2734 2622 
Q 2975 2850 2975 3272 
Q 2975 3691 2734 3919 
Q 2494 4147 2053 4147 
L 1259 4147 
z
M 628 4666 
L 2053 4666 
Q 2838 4666 3239 4311 
Q 3641 3956 3641 3272 
Q 3641 2581 3239 2228 
Q 2838 1875 2053 1875 
L 1259 1875 
L 1259 0 
L 628 0 
L 628 4666 
z
" transform="scale(0.015625)"/>
       <path id="DejaVuSans-70" d="M 1159 525 
L 1159 -1331 
L 581 -1331 
L 581 3500 
L 1159 3500 
L 1159 2969 
Q 1341 3281 1617 3432 
Q 1894 3584 2278 3584 
Q 2916 3584 3314 3078 
Q 3713 2572 3713 1747 
Q 3713 922 3314 415 
Q 2916 -91 2278 -91 
Q 1894 -91 1617 61 
Q 1341 213 1159 525 
z
M 3116 1747 
Q 3116 2381 2855 2742 
Q 2594 3103 2138 3103 
Q 1681 3103 1420 2742 
Q 1159 2381 1159 1747 
Q 1159 1113 1420 752 
Q 1681 391 2138 391 
Q 2594 391 2855 752 
Q 3116 1113 3116 1747 
z
" transform="scale(0.015625)"/>
      </defs>
      <use xlink:href="#DejaVuSans-50"/>
      <use xlink:href="#DejaVuSans-72" transform="translate(58.552734 0)"/>
      <use xlink:href="#DejaVuSans-6f" transform="translate(97.416016 0)"/>
      <use xlink:href="#DejaVuSans-70" transform="translate(158.597656 0)"/>
      <use xlink:href="#DejaVuSans-6f" transform="translate(222.074219 0)"/>
      <use xlink:href="#DejaVuSans-73" transform="translate(283.255859 0)"/>
      <use xlink:href="#DejaVuSans-65" transform="translate(335.355469 0)"/>
      <use xlink:href="#DejaVuSans-64" transform="translate(396.878906 0)"/>
     </g>
    </g>
    <g id="line2d_36">
     <path d="M 522.5675 75.087375 
L 534.5675 75.087375 
L 546.5675 75.087375 
" style="fill: none; stroke: #007bff; stroke-width: 1.5; stroke-linecap: square"/>
     <g>
      <use xlink:href="#m063bc55a19" x="534.5675" y="75.087375" style="fill: #007bff; stroke: #ffffff; stroke-width: 0.75"/>
     </g>
    </g>
    <g id="text_21">
     <!-- Controller -->
     <g transform="translate(556.1675 79.287375) scale(0.12 -0.12)">
      <use xlink:href="#DejaVuSans-43"/>
      <use xlink:href="#DejaVuSans-6f" transform="translate(69.824219 0)"/>
      <use xlink:href="#DejaVuSans-6e" transform="translate(131.005859 0)"/>
      <use xlink:href="#DejaVuSans-74" transform="translate(194.384766 0)"/>
      <use xlink:href="#DejaVuSans-72" transform="translate(233.59375 0)"/>
      <use xlink:href="#DejaVuSans-6f" transform="translate(272.457031 0)"/>
      <use xlink:href="#DejaVuSans-6c" transform="translate(333.638672 0)"/>
      <use xlink:href="#DejaVuSans-6c" transform="translate(361.421875 0)"/>
      <use xlink:href="#DejaVuSans-65" transform="translate(389.205078 0)"/>
      <use xlink:href="#DejaVuSans-72" transform="translate(450.728516 0)"/>
     </g>
    </g>
   </g>
  </g>
 </g>
 <defs>
  <clipPath id="p68433cb4c6">
   <rect x="67.98875" y="24.14175" width="558" height="332.64"/>
  </clipPath>
 </defs>
</svg>
